%TF.GenerationSoftware,KiCad,Pcbnew,9.0.5*%
%TF.CreationDate,2025-11-09T18:53:40+00:00*%
%TF.ProjectId,54PinTo60RibbonAdapterBoard,35345069-6e54-46f3-9630-526962626f6e,rev?*%
%TF.SameCoordinates,Original*%
%TF.FileFunction,Copper,L1,Top*%
%TF.FilePolarity,Positive*%
%FSLAX46Y46*%
G04 Gerber Fmt 4.6, Leading zero omitted, Abs format (unit mm)*
G04 Created by KiCad (PCBNEW 9.0.5) date 2025-11-09 18:53:40*
%MOMM*%
%LPD*%
G01*
G04 APERTURE LIST*
G04 Aperture macros list*
%AMRoundRect*
0 Rectangle with rounded corners*
0 $1 Rounding radius*
0 $2 $3 $4 $5 $6 $7 $8 $9 X,Y pos of 4 corners*
0 Add a 4 corners polygon primitive as box body*
4,1,4,$2,$3,$4,$5,$6,$7,$8,$9,$2,$3,0*
0 Add four circle primitives for the rounded corners*
1,1,$1+$1,$2,$3*
1,1,$1+$1,$4,$5*
1,1,$1+$1,$6,$7*
1,1,$1+$1,$8,$9*
0 Add four rect primitives between the rounded corners*
20,1,$1+$1,$2,$3,$4,$5,0*
20,1,$1+$1,$4,$5,$6,$7,0*
20,1,$1+$1,$6,$7,$8,$9,0*
20,1,$1+$1,$8,$9,$2,$3,0*%
%AMFreePoly0*
4,1,5,1.100000,-1.170000,-0.550000,-1.170000,-0.550000,1.050000,1.100000,1.050000,1.100000,-1.170000,1.100000,-1.170000,$1*%
%AMFreePoly1*
4,1,5,0.669707,-1.510000,-3.980000,-1.510000,-3.980000,0.690000,0.670258,0.690000,0.669707,-1.510000,0.669707,-1.510000,$1*%
G04 Aperture macros list end*
%TA.AperFunction,ComponentPad*%
%ADD10R,1.700000X1.700000*%
%TD*%
%TA.AperFunction,ComponentPad*%
%ADD11C,1.700000*%
%TD*%
%TA.AperFunction,SMDPad,CuDef*%
%ADD12RoundRect,0.075000X0.075000X0.475000X-0.075000X0.475000X-0.075000X-0.475000X0.075000X-0.475000X0*%
%TD*%
%TA.AperFunction,SMDPad,CuDef*%
%ADD13FreePoly0,180.000000*%
%TD*%
%TA.AperFunction,SMDPad,CuDef*%
%ADD14FreePoly1,180.000000*%
%TD*%
%TA.AperFunction,ViaPad*%
%ADD15C,2.000000*%
%TD*%
%TA.AperFunction,Conductor*%
%ADD16C,0.200000*%
%TD*%
G04 APERTURE END LIST*
D10*
%TO.P,J1,1,Pin_1*%
%TO.N,Net-(J1-Pin_1)*%
X170000000Y-120360000D03*
D11*
%TO.P,J1,2,Pin_2*%
%TO.N,Net-(J1-Pin_2)*%
X170000000Y-117820000D03*
%TO.P,J1,3,Pin_3*%
%TO.N,Net-(J1-Pin_3)*%
X167460000Y-120360000D03*
%TO.P,J1,4,Pin_4*%
%TO.N,Net-(J1-Pin_4)*%
X167460000Y-117820000D03*
%TO.P,J1,5,Pin_5*%
%TO.N,Net-(J1-Pin_5)*%
X164920000Y-120360000D03*
%TO.P,J1,6,Pin_6*%
%TO.N,Net-(J1-Pin_6)*%
X164920000Y-117820000D03*
%TO.P,J1,7,Pin_7*%
%TO.N,Net-(J1-Pin_7)*%
X162380000Y-120360000D03*
%TO.P,J1,8,Pin_8*%
%TO.N,Net-(J1-Pin_8)*%
X162380000Y-117820000D03*
%TO.P,J1,9,Pin_9*%
%TO.N,Net-(J1-Pin_9)*%
X159840000Y-120360000D03*
%TO.P,J1,10,Pin_10*%
%TO.N,Net-(J1-Pin_10)*%
X159840000Y-117820000D03*
%TO.P,J1,11,Pin_11*%
%TO.N,Net-(J1-Pin_11)*%
X157300000Y-120360000D03*
%TO.P,J1,12,Pin_12*%
%TO.N,Net-(J1-Pin_12)*%
X157300000Y-117820000D03*
%TO.P,J1,13,Pin_13*%
%TO.N,Net-(J1-Pin_13)*%
X154760000Y-120360000D03*
%TO.P,J1,14,Pin_14*%
%TO.N,Net-(J1-Pin_14)*%
X154760000Y-117820000D03*
%TO.P,J1,15,Pin_15*%
%TO.N,Net-(J1-Pin_15)*%
X152220000Y-120360000D03*
%TO.P,J1,16,Pin_16*%
%TO.N,Net-(J1-Pin_16)*%
X152220000Y-117820000D03*
%TO.P,J1,17,Pin_17*%
%TO.N,Net-(J1-Pin_17)*%
X149680000Y-120360000D03*
%TO.P,J1,18,Pin_18*%
%TO.N,Net-(J1-Pin_18)*%
X149680000Y-117820000D03*
%TO.P,J1,19,Pin_19*%
%TO.N,Net-(J1-Pin_19)*%
X147140000Y-120360000D03*
%TO.P,J1,20,Pin_20*%
%TO.N,Net-(J1-Pin_20)*%
X147140000Y-117820000D03*
%TO.P,J1,21,Pin_21*%
%TO.N,Net-(J1-Pin_21)*%
X144600000Y-120360000D03*
%TO.P,J1,22,Pin_22*%
%TO.N,Net-(J1-Pin_22)*%
X144600000Y-117820000D03*
%TO.P,J1,23,Pin_23*%
%TO.N,Net-(J1-Pin_23)*%
X142060000Y-120360000D03*
%TO.P,J1,24,Pin_24*%
%TO.N,Net-(J1-Pin_24)*%
X142060000Y-117820000D03*
%TO.P,J1,25,Pin_25*%
%TO.N,Net-(J1-Pin_25)*%
X139520000Y-120360000D03*
%TO.P,J1,26,Pin_26*%
%TO.N,Net-(J1-Pin_26)*%
X139520000Y-117820000D03*
%TO.P,J1,27,Pin_27*%
%TO.N,Net-(J1-Pin_27)*%
X136980000Y-120360000D03*
%TO.P,J1,28,Pin_28*%
%TO.N,Net-(J1-Pin_28)*%
X136980000Y-117820000D03*
%TO.P,J1,29,Pin_29*%
%TO.N,Net-(J1-Pin_29)*%
X134440000Y-120360000D03*
%TO.P,J1,30,Pin_30*%
%TO.N,Net-(J1-Pin_30)*%
X134440000Y-117820000D03*
%TO.P,J1,31,Pin_31*%
%TO.N,Net-(J1-Pin_31)*%
X131900000Y-120360000D03*
%TO.P,J1,32,Pin_32*%
%TO.N,Net-(J1-Pin_32)*%
X131900000Y-117820000D03*
%TO.P,J1,33,Pin_33*%
%TO.N,Net-(J1-Pin_33)*%
X129360000Y-120360000D03*
%TO.P,J1,34,Pin_34*%
%TO.N,Net-(J1-Pin_34)*%
X129360000Y-117820000D03*
%TO.P,J1,35,Pin_35*%
%TO.N,Net-(J1-Pin_35)*%
X126820000Y-120360000D03*
%TO.P,J1,36,Pin_36*%
%TO.N,Net-(J1-Pin_36)*%
X126820000Y-117820000D03*
%TO.P,J1,37,Pin_37*%
%TO.N,Net-(J1-Pin_37)*%
X124280000Y-120360000D03*
%TO.P,J1,38,Pin_38*%
%TO.N,Net-(J1-Pin_38)*%
X124280000Y-117820000D03*
%TO.P,J1,39,Pin_39*%
%TO.N,Net-(J1-Pin_39)*%
X121740000Y-120360000D03*
%TO.P,J1,40,Pin_40*%
%TO.N,Net-(J1-Pin_40)*%
X121740000Y-117820000D03*
%TO.P,J1,41,Pin_41*%
%TO.N,Net-(J1-Pin_41)*%
X119200000Y-120360000D03*
%TO.P,J1,42,Pin_42*%
%TO.N,Net-(J1-Pin_42)*%
X119200000Y-117820000D03*
%TO.P,J1,43,Pin_43*%
%TO.N,Net-(J1-Pin_43)*%
X116660000Y-120360000D03*
%TO.P,J1,44,Pin_44*%
%TO.N,Net-(J1-Pin_44)*%
X116660000Y-117820000D03*
%TO.P,J1,45,Pin_45*%
%TO.N,Net-(J1-Pin_45)*%
X114120000Y-120360000D03*
%TO.P,J1,46,Pin_46*%
%TO.N,Net-(J1-Pin_46)*%
X114120000Y-117820000D03*
%TO.P,J1,47,Pin_47*%
%TO.N,Net-(J1-Pin_47)*%
X111580000Y-120360000D03*
%TO.P,J1,48,Pin_48*%
%TO.N,Net-(J1-Pin_48)*%
X111580000Y-117820000D03*
%TO.P,J1,49,Pin_49*%
%TO.N,Net-(J1-Pin_49)*%
X109040000Y-120360000D03*
%TO.P,J1,50,Pin_50*%
%TO.N,Net-(J1-Pin_50)*%
X109040000Y-117820000D03*
%TO.P,J1,51,Pin_51*%
%TO.N,Net-(J1-Pin_51)*%
X106500000Y-120360000D03*
%TO.P,J1,52,Pin_52*%
%TO.N,Net-(J1-Pin_52)*%
X106500000Y-117820000D03*
%TO.P,J1,53,Pin_53*%
%TO.N,Net-(J1-Pin_53)*%
X103960000Y-120360000D03*
%TO.P,J1,54,Pin_54*%
%TO.N,Net-(J1-Pin_54)*%
X103960000Y-117820000D03*
%TD*%
D12*
%TO.P,J2,1,Pin_1*%
%TO.N,Net-(J1-Pin_1)*%
X150230000Y-109405000D03*
%TO.P,J2,2,Pin_2*%
%TO.N,Net-(J1-Pin_2)*%
X149730000Y-109405000D03*
%TO.P,J2,3,Pin_3*%
%TO.N,Net-(J1-Pin_3)*%
X149230000Y-109405000D03*
%TO.P,J2,4,Pin_4*%
%TO.N,Net-(J1-Pin_4)*%
X148730000Y-109405000D03*
%TO.P,J2,5,Pin_5*%
%TO.N,Net-(J1-Pin_5)*%
X148230000Y-109405000D03*
%TO.P,J2,6,Pin_6*%
%TO.N,Net-(J1-Pin_6)*%
X147730000Y-109405000D03*
%TO.P,J2,7,Pin_7*%
%TO.N,Net-(J1-Pin_7)*%
X147230000Y-109405000D03*
%TO.P,J2,8,Pin_8*%
%TO.N,Net-(J1-Pin_8)*%
X146730000Y-109405000D03*
%TO.P,J2,9,Pin_9*%
%TO.N,Net-(J1-Pin_9)*%
X146230000Y-109405000D03*
%TO.P,J2,10,Pin_10*%
%TO.N,Net-(J1-Pin_10)*%
X145730000Y-109405000D03*
%TO.P,J2,11,Pin_11*%
%TO.N,Net-(J1-Pin_11)*%
X145230000Y-109405000D03*
%TO.P,J2,12,Pin_12*%
%TO.N,Net-(J1-Pin_12)*%
X144730000Y-109405000D03*
%TO.P,J2,13,Pin_13*%
%TO.N,Net-(J1-Pin_13)*%
X144230000Y-109405000D03*
%TO.P,J2,14,Pin_14*%
%TO.N,Net-(J1-Pin_14)*%
X143730000Y-109405000D03*
%TO.P,J2,15,Pin_15*%
%TO.N,Net-(J1-Pin_15)*%
X143230000Y-109405000D03*
%TO.P,J2,16,Pin_16*%
%TO.N,Net-(J1-Pin_16)*%
X142730000Y-109405000D03*
%TO.P,J2,17,Pin_17*%
%TO.N,Net-(J1-Pin_17)*%
X142230000Y-109405000D03*
%TO.P,J2,18,Pin_18*%
%TO.N,Net-(J1-Pin_18)*%
X141730000Y-109405000D03*
%TO.P,J2,19,Pin_19*%
%TO.N,Net-(J1-Pin_19)*%
X141230000Y-109405000D03*
%TO.P,J2,20,Pin_20*%
%TO.N,Net-(J1-Pin_20)*%
X140730000Y-109405000D03*
%TO.P,J2,21,Pin_21*%
%TO.N,Net-(J1-Pin_21)*%
X140230000Y-109405000D03*
%TO.P,J2,22,Pin_22*%
%TO.N,Net-(J1-Pin_22)*%
X139730000Y-109405000D03*
%TO.P,J2,23,Pin_23*%
%TO.N,Net-(J1-Pin_23)*%
X139230000Y-109405000D03*
%TO.P,J2,24,Pin_24*%
%TO.N,Net-(J1-Pin_24)*%
X138730000Y-109405000D03*
%TO.P,J2,25,Pin_25*%
%TO.N,Net-(J1-Pin_25)*%
X138230000Y-109405000D03*
%TO.P,J2,26,Pin_26*%
%TO.N,Net-(J1-Pin_26)*%
X137730000Y-109405000D03*
%TO.P,J2,27,Pin_27*%
%TO.N,Net-(J1-Pin_27)*%
X137230000Y-109405000D03*
%TO.P,J2,28,Pin_28*%
%TO.N,Net-(J1-Pin_28)*%
X136730000Y-109405000D03*
%TO.P,J2,29,Pin_29*%
%TO.N,Net-(J1-Pin_29)*%
X136230000Y-109405000D03*
%TO.P,J2,30,Pin_30*%
%TO.N,Net-(J1-Pin_30)*%
X135730000Y-109405000D03*
%TO.P,J2,31,Pin_31*%
%TO.N,Net-(J1-Pin_31)*%
X135230000Y-109405000D03*
%TO.P,J2,32,Pin_32*%
%TO.N,Net-(J1-Pin_32)*%
X134730000Y-109405000D03*
%TO.P,J2,33,Pin_33*%
%TO.N,Net-(J1-Pin_33)*%
X134230000Y-109405000D03*
%TO.P,J2,34,Pin_34*%
%TO.N,Net-(J1-Pin_34)*%
X133730000Y-109405000D03*
%TO.P,J2,35,Pin_35*%
%TO.N,Net-(J1-Pin_35)*%
X133230000Y-109405000D03*
%TO.P,J2,36,Pin_36*%
%TO.N,Net-(J1-Pin_36)*%
X132730000Y-109405000D03*
%TO.P,J2,37,Pin_37*%
%TO.N,Net-(J1-Pin_37)*%
X132230000Y-109405000D03*
%TO.P,J2,38,Pin_38*%
%TO.N,Net-(J1-Pin_38)*%
X131730000Y-109405000D03*
%TO.P,J2,39,Pin_39*%
%TO.N,Net-(J1-Pin_39)*%
X131230000Y-109405000D03*
%TO.P,J2,40,Pin_40*%
%TO.N,Net-(J1-Pin_40)*%
X130730000Y-109405000D03*
%TO.P,J2,41,Pin_41*%
%TO.N,Net-(J1-Pin_41)*%
X130230000Y-109405000D03*
%TO.P,J2,42,Pin_42*%
%TO.N,Net-(J1-Pin_42)*%
X129730000Y-109405000D03*
%TO.P,J2,43,Pin_43*%
%TO.N,Net-(J1-Pin_43)*%
X129230000Y-109405000D03*
%TO.P,J2,44,Pin_44*%
%TO.N,Net-(J1-Pin_44)*%
X128730000Y-109405000D03*
%TO.P,J2,45,Pin_45*%
%TO.N,Net-(J1-Pin_45)*%
X128230000Y-109405000D03*
%TO.P,J2,46,Pin_46*%
%TO.N,Net-(J1-Pin_46)*%
X127730000Y-109405000D03*
%TO.P,J2,47,Pin_47*%
%TO.N,Net-(J1-Pin_47)*%
X127230000Y-109405000D03*
%TO.P,J2,48,Pin_48*%
%TO.N,Net-(J1-Pin_48)*%
X126730000Y-109405000D03*
%TO.P,J2,49,Pin_49*%
%TO.N,Net-(J1-Pin_49)*%
X126230000Y-109405000D03*
%TO.P,J2,50,Pin_50*%
%TO.N,Net-(J1-Pin_50)*%
X125730000Y-109405000D03*
%TO.P,J2,51,Pin_51*%
%TO.N,Net-(J1-Pin_51)*%
X125230000Y-109405000D03*
%TO.P,J2,52,Pin_52*%
%TO.N,Net-(J1-Pin_52)*%
X124730000Y-109405000D03*
%TO.P,J2,53,Pin_53*%
%TO.N,Net-(J1-Pin_53)*%
X124230000Y-109405000D03*
%TO.P,J2,54,Pin_54*%
%TO.N,Net-(J1-Pin_54)*%
X123730000Y-109405000D03*
D13*
%TO.P,J2,MP,MountPin*%
%TO.N,GND*%
X152080000Y-106295000D03*
D14*
X119000000Y-106665000D03*
%TD*%
D15*
%TO.N,GND*%
X170000000Y-105120000D03*
X103960000Y-105120000D03*
X170000000Y-112740000D03*
X103960000Y-112740000D03*
%TD*%
D16*
%TO.N,Net-(J1-Pin_14)*%
X143730000Y-112940000D02*
X143730000Y-109405000D01*
X143860000Y-113070000D02*
X143730000Y-112940000D01*
X144180000Y-113070000D02*
X143860000Y-113070000D01*
X144950000Y-113840000D02*
X144180000Y-113070000D01*
X146622000Y-113892000D02*
X146570000Y-113840000D01*
X147315862Y-114562000D02*
X146645862Y-113892000D01*
X148465862Y-114562000D02*
X147315862Y-114562000D01*
X148513862Y-114610000D02*
X148465862Y-114562000D01*
X148550000Y-114610000D02*
X148513862Y-114610000D01*
X149180000Y-115240000D02*
X148550000Y-114610000D01*
X150740000Y-115240000D02*
X149180000Y-115240000D01*
X146645862Y-113892000D02*
X146622000Y-113892000D01*
X150752000Y-115252000D02*
X150740000Y-115240000D01*
X150755862Y-115252000D02*
X150752000Y-115252000D01*
X153033862Y-115970000D02*
X153015862Y-115952000D01*
X153110000Y-115970000D02*
X153033862Y-115970000D01*
X154760000Y-117620000D02*
X153110000Y-115970000D01*
X146570000Y-113840000D02*
X144950000Y-113840000D01*
X151455862Y-115952000D02*
X150755862Y-115252000D01*
X154760000Y-117820000D02*
X154760000Y-117620000D01*
X153015862Y-115952000D02*
X151455862Y-115952000D01*
%TO.N,Net-(J1-Pin_23)*%
X139330000Y-115650000D02*
X139230000Y-115550000D01*
X139230000Y-115550000D02*
X139230000Y-109405000D01*
X140440000Y-115650000D02*
X139330000Y-115650000D01*
X143340965Y-119079035D02*
X143340965Y-117030965D01*
X143340965Y-117030965D02*
X142660000Y-116350000D01*
X142660000Y-116350000D02*
X141140000Y-116350000D01*
X142060000Y-120360000D02*
X143340965Y-119079035D01*
X141140000Y-116350000D02*
X140440000Y-115650000D01*
%TO.N,Net-(J1-Pin_22)*%
X139860000Y-115290000D02*
X139730000Y-115160000D01*
X140610000Y-115290000D02*
X139860000Y-115290000D01*
X142760000Y-115940000D02*
X141260000Y-115940000D01*
X144600000Y-117780000D02*
X142760000Y-115940000D01*
X141260000Y-115940000D02*
X140610000Y-115290000D01*
X144600000Y-117820000D02*
X144600000Y-117780000D01*
X139730000Y-115160000D02*
X139730000Y-109405000D01*
%TO.N,Net-(J1-Pin_21)*%
X140230000Y-114810000D02*
X140230000Y-109405000D01*
X140730000Y-114900000D02*
X140320000Y-114900000D01*
X143710000Y-116340000D02*
X142940000Y-115570000D01*
X142940000Y-115570000D02*
X141400000Y-115570000D01*
X145190000Y-116340000D02*
X143710000Y-116340000D01*
X141400000Y-115570000D02*
X140730000Y-114900000D01*
X145860000Y-117010000D02*
X145190000Y-116340000D01*
X140320000Y-114900000D02*
X140230000Y-114810000D01*
X145860000Y-119100000D02*
X145860000Y-117010000D01*
X144600000Y-120360000D02*
X145860000Y-119100000D01*
%TO.N,Net-(J1-Pin_39)*%
X131230000Y-113950000D02*
X131230000Y-109405000D01*
X123000000Y-119100000D02*
X123000000Y-117000000D01*
X121740000Y-120360000D02*
X123000000Y-119100000D01*
X129730000Y-114880000D02*
X130420000Y-114190000D01*
X123700000Y-116300000D02*
X125230000Y-116300000D01*
X123000000Y-117000000D02*
X123700000Y-116300000D01*
X121740000Y-120380000D02*
X121740000Y-120360000D01*
X130420000Y-114190000D02*
X130990000Y-114190000D01*
X125850000Y-115680000D02*
X127380000Y-115680000D01*
X128180000Y-114880000D02*
X129730000Y-114880000D01*
X125230000Y-116300000D02*
X125850000Y-115680000D01*
X130990000Y-114190000D02*
X131230000Y-113950000D01*
X127380000Y-115680000D02*
X128180000Y-114880000D01*
%TO.N,Net-(J1-Pin_54)*%
X104140000Y-117460000D02*
X105640000Y-115960000D01*
X123730000Y-110200000D02*
X123730000Y-109405000D01*
X118690000Y-111730000D02*
X120010000Y-111730000D01*
X120880000Y-110860000D02*
X123070000Y-110860000D01*
X110130000Y-114570000D02*
X111540000Y-114570000D01*
X103720000Y-117460000D02*
X104140000Y-117460000D01*
X107300000Y-115960000D02*
X107970000Y-115290000D01*
X123070000Y-110860000D02*
X123730000Y-110200000D01*
X105640000Y-115960000D02*
X107300000Y-115960000D01*
X113940000Y-113830000D02*
X114598000Y-113172000D01*
X109410000Y-115290000D02*
X110130000Y-114570000D01*
X116078000Y-113172000D02*
X116900000Y-112350000D01*
X120010000Y-111730000D02*
X120880000Y-110860000D01*
X118070000Y-112350000D02*
X118690000Y-111730000D01*
X114598000Y-113172000D02*
X116078000Y-113172000D01*
X112280000Y-113830000D02*
X113940000Y-113830000D01*
X116900000Y-112350000D02*
X118070000Y-112350000D01*
X107970000Y-115290000D02*
X109410000Y-115290000D01*
X111540000Y-114570000D02*
X112280000Y-113830000D01*
%TO.N,Net-(J1-Pin_7)*%
X147930000Y-111370000D02*
X147480000Y-111370000D01*
X155020000Y-114150000D02*
X154230000Y-113360000D01*
X154230000Y-113360000D02*
X152780000Y-113360000D01*
X158710000Y-114860000D02*
X157050000Y-114860000D01*
X156340000Y-114150000D02*
X155020000Y-114150000D01*
X147230000Y-111120000D02*
X147230000Y-109405000D01*
X150460000Y-112640000D02*
X149860000Y-112040000D01*
X159400000Y-115550000D02*
X158710000Y-114860000D01*
X161790000Y-116340000D02*
X161000000Y-115550000D01*
X149860000Y-112040000D02*
X148600000Y-112040000D01*
X157050000Y-114860000D02*
X156340000Y-114150000D01*
X163000000Y-116340000D02*
X161790000Y-116340000D01*
X147480000Y-111370000D02*
X147230000Y-111120000D01*
X162380000Y-120380000D02*
X163640000Y-119120000D01*
X152780000Y-113360000D02*
X152060000Y-112640000D01*
X163640000Y-119120000D02*
X163640000Y-116980000D01*
X163640000Y-116980000D02*
X163000000Y-116340000D01*
X148600000Y-112040000D02*
X147930000Y-111370000D01*
X152060000Y-112640000D02*
X150460000Y-112640000D01*
X161000000Y-115550000D02*
X159400000Y-115550000D01*
%TO.N,Net-(J1-Pin_33)*%
X134050000Y-115670000D02*
X134230000Y-115490000D01*
X133450000Y-115670000D02*
X134050000Y-115670000D01*
X129360000Y-120360000D02*
X130610000Y-119110000D01*
X131315000Y-116330000D02*
X132790000Y-116330000D01*
X130610000Y-117035000D02*
X131315000Y-116330000D01*
X130610000Y-119110000D02*
X130610000Y-117035000D01*
X132790000Y-116330000D02*
X133450000Y-115670000D01*
X134230000Y-115490000D02*
X134230000Y-109405000D01*
X129360000Y-120380000D02*
X129360000Y-120360000D01*
%TO.N,Net-(J1-Pin_30)*%
X135730000Y-116390000D02*
X135730000Y-109405000D01*
X134450000Y-117670000D02*
X135730000Y-116390000D01*
X134440000Y-117840000D02*
X134450000Y-117830000D01*
X134450000Y-117830000D02*
X134450000Y-117670000D01*
%TO.N,Net-(J1-Pin_3)*%
X168710000Y-117000000D02*
X168000000Y-116290000D01*
X164460000Y-115630000D02*
X163770000Y-114940000D01*
X167460000Y-120360000D02*
X168710000Y-119110000D01*
X163770000Y-114940000D02*
X162740000Y-114940000D01*
X168710000Y-119110000D02*
X168710000Y-117000000D01*
X168000000Y-116290000D02*
X166600000Y-116290000D01*
X153630000Y-111940000D02*
X152920000Y-111230000D01*
X166600000Y-116290000D02*
X165940000Y-115630000D01*
X151180000Y-111230000D02*
X150580000Y-110630000D01*
X159690000Y-113450000D02*
X158020000Y-113450000D01*
X160330000Y-114090000D02*
X159690000Y-113450000D01*
X157260000Y-112690000D02*
X155750000Y-112690000D01*
X155750000Y-112690000D02*
X155000000Y-111940000D01*
X155000000Y-111940000D02*
X153630000Y-111940000D01*
X158020000Y-113450000D02*
X157260000Y-112690000D01*
X162740000Y-114940000D02*
X161890000Y-114090000D01*
X161890000Y-114090000D02*
X160330000Y-114090000D01*
X150580000Y-110630000D02*
X149410000Y-110630000D01*
X152920000Y-111230000D02*
X151180000Y-111230000D01*
X149230000Y-110450000D02*
X149230000Y-109405000D01*
X149410000Y-110630000D02*
X149230000Y-110450000D01*
X167460000Y-120380000D02*
X167460000Y-120360000D01*
X165940000Y-115630000D02*
X164460000Y-115630000D01*
%TO.N,Net-(J1-Pin_5)*%
X163330000Y-115640000D02*
X162280000Y-115640000D01*
X159020000Y-114140000D02*
X157430000Y-114140000D01*
X157430000Y-114140000D02*
X156710000Y-113420000D01*
X159760000Y-114880000D02*
X159020000Y-114140000D01*
X164920000Y-120380000D02*
X164920000Y-120360000D01*
X150240000Y-111330000D02*
X149130000Y-111330000D01*
X161520000Y-114880000D02*
X159760000Y-114880000D01*
X153160000Y-112660000D02*
X152410000Y-111910000D01*
X165540000Y-116320000D02*
X164010000Y-116320000D01*
X152410000Y-111910000D02*
X150820000Y-111910000D01*
X164920000Y-120360000D02*
X166210000Y-119070000D01*
X164010000Y-116320000D02*
X163330000Y-115640000D01*
X156710000Y-113420000D02*
X155400000Y-113420000D01*
X149130000Y-111330000D02*
X148230000Y-110430000D01*
X166210000Y-116990000D02*
X165540000Y-116320000D01*
X162280000Y-115640000D02*
X161520000Y-114880000D01*
X166210000Y-119070000D02*
X166210000Y-116990000D01*
X148230000Y-110430000D02*
X148230000Y-109405000D01*
X154640000Y-112660000D02*
X153160000Y-112660000D01*
X150820000Y-111910000D02*
X150240000Y-111330000D01*
X155400000Y-113420000D02*
X154640000Y-112660000D01*
%TO.N,Net-(J1-Pin_37)*%
X132230000Y-114610000D02*
X132230000Y-109405000D01*
X124280000Y-120380000D02*
X124280000Y-120360000D01*
X130730000Y-114900000D02*
X131940000Y-114900000D01*
X130040000Y-115590000D02*
X130730000Y-114900000D01*
X131940000Y-114900000D02*
X132230000Y-114610000D01*
X127710000Y-116340000D02*
X128460000Y-115590000D01*
X125530000Y-117030000D02*
X126220000Y-116340000D01*
X126220000Y-116340000D02*
X127710000Y-116340000D01*
X125530000Y-119110000D02*
X125530000Y-117030000D01*
X124280000Y-120360000D02*
X125530000Y-119110000D01*
X128460000Y-115590000D02*
X130040000Y-115590000D01*
%TO.N,Net-(J1-Pin_16)*%
X146285862Y-114562000D02*
X144662000Y-114562000D01*
X151950000Y-117460000D02*
X150440000Y-115950000D01*
X142730000Y-113630000D02*
X142730000Y-109405000D01*
X148240000Y-115290000D02*
X147020000Y-115290000D01*
X150440000Y-115950000D02*
X148900000Y-115950000D01*
X142870000Y-113770000D02*
X142730000Y-113630000D01*
X147020000Y-115290000D02*
X146300000Y-114570000D01*
X146300000Y-114570000D02*
X146293862Y-114570000D01*
X146293862Y-114570000D02*
X146285862Y-114562000D01*
X144662000Y-114562000D02*
X143870000Y-113770000D01*
X143870000Y-113770000D02*
X142870000Y-113770000D01*
X151980000Y-117460000D02*
X151950000Y-117460000D01*
X148900000Y-115950000D02*
X148240000Y-115290000D01*
%TO.N,Net-(J1-Pin_53)*%
X121100000Y-111220000D02*
X123230000Y-111220000D01*
X109640000Y-115680000D02*
X110390000Y-114930000D01*
X123750000Y-110700000D02*
X124090000Y-110700000D01*
X110390000Y-114930000D02*
X111770000Y-114930000D01*
X107420000Y-116350000D02*
X108090000Y-115680000D01*
X105270000Y-116822240D02*
X105742240Y-116350000D01*
X116220000Y-113500000D02*
X117030000Y-112690000D01*
X111770000Y-114930000D02*
X112470000Y-114230000D01*
X118270000Y-112690000D02*
X118860000Y-112100000D01*
X117030000Y-112690000D02*
X118270000Y-112690000D01*
X105742240Y-116350000D02*
X107420000Y-116350000D01*
X118860000Y-112100000D02*
X120220000Y-112100000D01*
X114050000Y-114230000D02*
X114780000Y-113500000D01*
X108090000Y-115680000D02*
X109640000Y-115680000D01*
X114780000Y-113500000D02*
X116220000Y-113500000D01*
X124090000Y-110700000D02*
X124230000Y-110560000D01*
X103960000Y-120380000D02*
X105270000Y-119070000D01*
X123230000Y-111220000D02*
X123750000Y-110700000D01*
X124230000Y-110560000D02*
X124230000Y-109405000D01*
X120220000Y-112100000D02*
X121100000Y-111220000D01*
X112470000Y-114230000D02*
X114050000Y-114230000D01*
X105270000Y-119070000D02*
X105270000Y-116822240D01*
%TO.N,Net-(J1-Pin_27)*%
X137230000Y-116020000D02*
X137230000Y-109405000D01*
X136980000Y-120380000D02*
X138234800Y-119125200D01*
X138234800Y-119125200D02*
X138234800Y-117024800D01*
X138234800Y-117024800D02*
X137230000Y-116020000D01*
%TO.N,Net-(J1-Pin_20)*%
X143860000Y-115930000D02*
X143160000Y-115230000D01*
X141560000Y-115230000D02*
X140730000Y-114400000D01*
X146650000Y-117210000D02*
X145370000Y-115930000D01*
X143160000Y-115230000D02*
X141560000Y-115230000D01*
X147150000Y-117210000D02*
X146650000Y-117210000D01*
X145370000Y-115930000D02*
X143860000Y-115930000D01*
X140730000Y-114400000D02*
X140730000Y-109405000D01*
%TO.N,Net-(J1-Pin_31)*%
X133200000Y-116980000D02*
X133840000Y-116340000D01*
X133200000Y-119080000D02*
X133200000Y-116980000D01*
X135230000Y-116120000D02*
X135230000Y-109405000D01*
X133840000Y-116340000D02*
X135010000Y-116340000D01*
X135010000Y-116340000D02*
X135230000Y-116120000D01*
X131900000Y-120380000D02*
X133200000Y-119080000D01*
%TO.N,Net-(J1-Pin_44)*%
X118430000Y-115990000D02*
X119860000Y-115990000D01*
X122460000Y-114550000D02*
X124490000Y-114550000D01*
X128730000Y-112740000D02*
X128730000Y-109405000D01*
X127430000Y-113080000D02*
X128390000Y-113080000D01*
X126590000Y-113920000D02*
X127430000Y-113080000D01*
X119860000Y-115990000D02*
X120570000Y-115280000D01*
X125120000Y-113920000D02*
X126590000Y-113920000D01*
X116420000Y-117460000D02*
X116960000Y-117460000D01*
X120570000Y-115280000D02*
X121730000Y-115280000D01*
X128390000Y-113080000D02*
X128730000Y-112740000D01*
X124490000Y-114550000D02*
X125120000Y-113920000D01*
X116960000Y-117460000D02*
X118430000Y-115990000D01*
X121730000Y-115280000D02*
X122460000Y-114550000D01*
%TO.N,Net-(J1-Pin_29)*%
X135730000Y-119090000D02*
X135730000Y-117020000D01*
X135730000Y-117020000D02*
X136230000Y-116520000D01*
X134440000Y-120380000D02*
X135730000Y-119090000D01*
X136230000Y-116520000D02*
X136230000Y-109405000D01*
%TO.N,Net-(J1-Pin_2)*%
X158192000Y-113122000D02*
X157350000Y-112280000D01*
X162910000Y-114610000D02*
X162040000Y-113740000D01*
X163900000Y-114610000D02*
X162910000Y-114610000D01*
X163902000Y-114612000D02*
X163900000Y-114610000D01*
X169889000Y-117729000D02*
X169889000Y-117669000D01*
X164595862Y-115302000D02*
X163905862Y-114612000D01*
X149730000Y-110120000D02*
X149730000Y-109405000D01*
X159910000Y-113140000D02*
X159843862Y-113140000D01*
X157350000Y-112280000D02*
X155910000Y-112280000D01*
X150750000Y-110280000D02*
X149890000Y-110280000D01*
X166075862Y-115302000D02*
X164595862Y-115302000D01*
X160510000Y-113740000D02*
X159910000Y-113140000D01*
X169760000Y-117460000D02*
X169760000Y-117600000D01*
X168130000Y-115910000D02*
X166683862Y-115910000D01*
X159843862Y-113140000D02*
X159825862Y-113122000D01*
X169889000Y-117669000D02*
X168130000Y-115910000D01*
X153900000Y-111590000D02*
X153170000Y-110860000D01*
X149890000Y-110280000D02*
X149730000Y-110120000D01*
X163905862Y-114612000D02*
X163902000Y-114612000D01*
X166683862Y-115910000D02*
X166075862Y-115302000D01*
X155220000Y-111590000D02*
X153900000Y-111590000D01*
X151330000Y-110860000D02*
X150750000Y-110280000D01*
X155910000Y-112280000D02*
X155220000Y-111590000D01*
X169760000Y-117600000D02*
X169889000Y-117729000D01*
X159825862Y-113122000D02*
X158192000Y-113122000D01*
X153170000Y-110860000D02*
X151330000Y-110860000D01*
X162040000Y-113740000D02*
X160510000Y-113740000D01*
%TO.N,Net-(J1-Pin_49)*%
X109040000Y-120360000D02*
X110290000Y-119110000D01*
X116920000Y-114930000D02*
X117650000Y-114200000D01*
X110290000Y-117050000D02*
X111000000Y-116340000D01*
X118870000Y-114200000D02*
X119570000Y-113500000D01*
X125760000Y-112120000D02*
X126230000Y-111650000D01*
X112380000Y-116340000D02*
X113100000Y-115620000D01*
X117650000Y-114200000D02*
X118870000Y-114200000D01*
X121580000Y-112830000D02*
X123710000Y-112830000D01*
X110290000Y-119110000D02*
X110290000Y-117050000D01*
X113100000Y-115620000D02*
X114750000Y-115620000D01*
X126230000Y-111650000D02*
X126230000Y-109405000D01*
X124420000Y-112120000D02*
X125760000Y-112120000D01*
X114750000Y-115620000D02*
X115440000Y-114930000D01*
X115440000Y-114930000D02*
X116920000Y-114930000D01*
X123710000Y-112830000D02*
X124420000Y-112120000D01*
X119570000Y-113500000D02*
X120910000Y-113500000D01*
X111000000Y-116340000D02*
X112380000Y-116340000D01*
X109040000Y-120380000D02*
X109040000Y-120360000D01*
X120910000Y-113500000D02*
X121580000Y-112830000D01*
%TO.N,Net-(J1-Pin_36)*%
X132340000Y-115250000D02*
X132730000Y-114860000D01*
X130140000Y-115990000D02*
X130880000Y-115250000D01*
X128590000Y-115990000D02*
X130140000Y-115990000D01*
X126820000Y-117760000D02*
X128590000Y-115990000D01*
X132730000Y-114860000D02*
X132730000Y-109405000D01*
X130880000Y-115250000D02*
X132340000Y-115250000D01*
X126820000Y-117840000D02*
X126820000Y-117760000D01*
%TO.N,Net-(J1-Pin_12)*%
X157060000Y-117460000D02*
X157050000Y-117460000D01*
X146912000Y-113152000D02*
X146880000Y-113120000D01*
X145330000Y-113120000D02*
X144730000Y-112520000D01*
X157050000Y-117460000D02*
X155490000Y-115900000D01*
X144730000Y-112520000D02*
X144730000Y-109405000D01*
X146915862Y-113152000D02*
X146912000Y-113152000D01*
X148860000Y-113850000D02*
X147613862Y-113850000D01*
X147613862Y-113850000D02*
X146915862Y-113152000D01*
X149490000Y-114480000D02*
X148860000Y-113850000D01*
X153420000Y-115230000D02*
X151860000Y-115230000D01*
X155490000Y-115900000D02*
X154090000Y-115900000D01*
X154090000Y-115900000D02*
X153420000Y-115230000D01*
X151860000Y-115230000D02*
X151110000Y-114480000D01*
X146880000Y-113120000D02*
X145330000Y-113120000D01*
X151110000Y-114480000D02*
X149490000Y-114480000D01*
%TO.N,Net-(J1-Pin_18)*%
X142040000Y-114510000D02*
X141730000Y-114200000D01*
X144300000Y-115240000D02*
X143570000Y-114510000D01*
X149440000Y-117460000D02*
X149680000Y-117700000D01*
X149680000Y-117730000D02*
X147930000Y-115980000D01*
X149680000Y-117700000D02*
X149680000Y-117820000D01*
X147930000Y-115980000D02*
X146690000Y-115980000D01*
X143570000Y-114510000D02*
X142040000Y-114510000D01*
X146690000Y-115980000D02*
X145950000Y-115240000D01*
X145950000Y-115240000D02*
X144300000Y-115240000D01*
X149680000Y-117820000D02*
X149680000Y-117730000D01*
X141730000Y-114200000D02*
X141730000Y-109405000D01*
%TO.N,Net-(J1-Pin_11)*%
X157900000Y-116340000D02*
X156440000Y-116340000D01*
X145230000Y-112340000D02*
X145230000Y-109405000D01*
X149650000Y-114110000D02*
X149030000Y-113490000D01*
X156440000Y-116340000D02*
X155630000Y-115530000D01*
X145680000Y-112790000D02*
X145230000Y-112340000D01*
X155630000Y-115530000D02*
X154260000Y-115530000D01*
X147200000Y-112790000D02*
X145680000Y-112790000D01*
X154260000Y-115530000D02*
X153610000Y-114880000D01*
X151250000Y-114110000D02*
X149650000Y-114110000D01*
X153610000Y-114880000D02*
X152020000Y-114880000D01*
X158570000Y-117010000D02*
X157900000Y-116340000D01*
X149030000Y-113490000D02*
X147900000Y-113490000D01*
X152020000Y-114880000D02*
X151250000Y-114110000D01*
X158570000Y-119110000D02*
X158570000Y-117010000D01*
X147900000Y-113490000D02*
X147200000Y-112790000D01*
X157300000Y-120380000D02*
X158570000Y-119110000D01*
%TO.N,Net-(J1-Pin_26)*%
X139220000Y-117460000D02*
X137730000Y-115970000D01*
X139280000Y-117460000D02*
X139220000Y-117460000D01*
X137730000Y-115970000D02*
X137730000Y-109405000D01*
%TO.N,Net-(J1-Pin_25)*%
X139530000Y-120360000D02*
X140810000Y-119080000D01*
X138680000Y-116360000D02*
X138230000Y-115910000D01*
X140810000Y-119080000D02*
X140810000Y-117050000D01*
X140120000Y-116360000D02*
X138680000Y-116360000D01*
X140810000Y-117050000D02*
X140120000Y-116360000D01*
X138230000Y-115910000D02*
X138230000Y-109405000D01*
X139520000Y-120360000D02*
X139530000Y-120360000D01*
%TO.N,Net-(J1-Pin_9)*%
X156730000Y-115540000D02*
X156060000Y-114870000D01*
X146350000Y-112100000D02*
X146230000Y-111980000D01*
X148290000Y-112730000D02*
X147660000Y-112100000D01*
X159090000Y-116340000D02*
X158290000Y-115540000D01*
X150082966Y-113380000D02*
X149432966Y-112730000D01*
X160440000Y-116340000D02*
X159090000Y-116340000D01*
X146230000Y-111980000D02*
X146230000Y-109405000D01*
X149432966Y-112730000D02*
X148290000Y-112730000D01*
X151640000Y-113380000D02*
X150082966Y-113380000D01*
X153910000Y-114110000D02*
X152370000Y-114110000D01*
X159840000Y-120380000D02*
X159840000Y-120360000D01*
X147660000Y-112100000D02*
X146350000Y-112100000D01*
X161100000Y-119100000D02*
X161100000Y-117000000D01*
X156060000Y-114870000D02*
X154670000Y-114870000D01*
X159840000Y-120360000D02*
X161100000Y-119100000D01*
X154670000Y-114870000D02*
X153910000Y-114110000D01*
X161100000Y-117000000D02*
X160440000Y-116340000D01*
X158290000Y-115540000D02*
X156730000Y-115540000D01*
X152370000Y-114110000D02*
X151640000Y-113380000D01*
%TO.N,Net-(J1-Pin_40)*%
X128020000Y-114520000D02*
X129560000Y-114520000D01*
X130730000Y-113760000D02*
X130730000Y-109405000D01*
X127230000Y-115310000D02*
X128020000Y-114520000D01*
X123240000Y-115960000D02*
X125070000Y-115960000D01*
X130630000Y-113860000D02*
X130730000Y-113760000D01*
X129560000Y-114520000D02*
X130220000Y-113860000D01*
X121740000Y-117840000D02*
X121740000Y-117460000D01*
X125720000Y-115310000D02*
X127230000Y-115310000D01*
X125070000Y-115960000D02*
X125720000Y-115310000D01*
X121740000Y-117460000D02*
X123240000Y-115960000D01*
X130220000Y-113860000D02*
X130630000Y-113860000D01*
%TO.N,Net-(J1-Pin_28)*%
X136730000Y-117210000D02*
X136730000Y-109405000D01*
X136980000Y-117460000D02*
X136730000Y-117210000D01*
%TO.N,Net-(J1-Pin_47)*%
X117990000Y-114910000D02*
X119230000Y-114910000D01*
X111580000Y-120360000D02*
X112830000Y-119110000D01*
X123990000Y-113520000D02*
X124640000Y-112870000D01*
X121270000Y-114170000D02*
X121920000Y-113520000D01*
X111580000Y-120380000D02*
X111580000Y-120360000D01*
X119970000Y-114170000D02*
X121270000Y-114170000D01*
X126140000Y-112870000D02*
X127230000Y-111780000D01*
X112830000Y-117030000D02*
X113520000Y-116340000D01*
X124640000Y-112870000D02*
X126140000Y-112870000D01*
X127230000Y-111780000D02*
X127230000Y-109405000D01*
X115780000Y-115640000D02*
X117260000Y-115640000D01*
X115080000Y-116340000D02*
X115780000Y-115640000D01*
X119230000Y-114910000D02*
X119970000Y-114170000D01*
X113520000Y-116340000D02*
X115080000Y-116340000D01*
X112830000Y-119110000D02*
X112830000Y-117030000D01*
X121920000Y-113520000D02*
X123990000Y-113520000D01*
X117260000Y-115640000D02*
X117990000Y-114910000D01*
%TO.N,Net-(J1-Pin_17)*%
X149680000Y-120380000D02*
X150950000Y-119110000D01*
X144480000Y-114890000D02*
X143750000Y-114160000D01*
X148810000Y-116350000D02*
X148080000Y-115620000D01*
X150950000Y-117010000D02*
X150290000Y-116350000D01*
X150950000Y-119110000D02*
X150950000Y-117010000D01*
X142470000Y-114160000D02*
X142230000Y-113920000D01*
X150290000Y-116350000D02*
X148810000Y-116350000D01*
X146150000Y-114890000D02*
X144480000Y-114890000D01*
X148080000Y-115620000D02*
X146880000Y-115620000D01*
X142230000Y-113920000D02*
X142230000Y-109405000D01*
X143750000Y-114160000D02*
X142470000Y-114160000D01*
X146880000Y-115620000D02*
X146150000Y-114890000D01*
%TO.N,Net-(J1-Pin_15)*%
X147180000Y-114890000D02*
X146510000Y-114220000D01*
X144840000Y-114220000D02*
X144050000Y-113430000D01*
X152220000Y-120360000D02*
X153520000Y-119060000D01*
X152810000Y-116340000D02*
X151380000Y-116340000D01*
X153520000Y-117050000D02*
X152810000Y-116340000D01*
X146510000Y-114220000D02*
X144840000Y-114220000D01*
X148330000Y-114890000D02*
X147180000Y-114890000D01*
X152220000Y-120380000D02*
X152220000Y-120360000D01*
X144050000Y-113430000D02*
X143390000Y-113430000D01*
X150620000Y-115580000D02*
X149020000Y-115580000D01*
X151380000Y-116340000D02*
X150620000Y-115580000D01*
X143390000Y-113430000D02*
X143230000Y-113270000D01*
X143230000Y-113270000D02*
X143230000Y-109405000D01*
X153520000Y-119060000D02*
X153520000Y-117050000D01*
X149020000Y-115580000D02*
X148330000Y-114890000D01*
%TO.N,Net-(J1-Pin_41)*%
X130230000Y-113340000D02*
X130230000Y-109405000D01*
X127090000Y-114950000D02*
X127860000Y-114180000D01*
X125580000Y-114950000D02*
X127090000Y-114950000D01*
X119200000Y-120380000D02*
X119200000Y-120360000D01*
X121002240Y-116330000D02*
X122350000Y-116330000D01*
X129390000Y-114180000D02*
X130230000Y-113340000D01*
X123060000Y-115620000D02*
X124910000Y-115620000D01*
X120460000Y-119100000D02*
X120460000Y-116872240D01*
X122350000Y-116330000D02*
X123060000Y-115620000D01*
X124910000Y-115620000D02*
X125580000Y-114950000D01*
X120460000Y-116872240D02*
X121002240Y-116330000D01*
X119200000Y-120360000D02*
X120460000Y-119100000D01*
X127860000Y-114180000D02*
X129390000Y-114180000D01*
%TO.N,Net-(J1-Pin_1)*%
X150330000Y-109940000D02*
X150230000Y-109840000D01*
X160060000Y-112790000D02*
X158460000Y-112790000D01*
X150230000Y-109840000D02*
X150230000Y-109405000D01*
X170000000Y-120380000D02*
X170000000Y-120360000D01*
X171460000Y-117120000D02*
X170650000Y-116310000D01*
X156100000Y-111940000D02*
X155400000Y-111240000D01*
X154090000Y-111240000D02*
X153370000Y-110520000D01*
X169070000Y-116310000D02*
X168300000Y-115540000D01*
X168300000Y-115540000D02*
X166940000Y-115540000D01*
X155400000Y-111240000D02*
X154090000Y-111240000D01*
X150920000Y-109940000D02*
X150330000Y-109940000D01*
X170000000Y-120360000D02*
X171460000Y-118900000D01*
X153370000Y-110520000D02*
X151500000Y-110520000D01*
X160680000Y-113410000D02*
X160060000Y-112790000D01*
X170650000Y-116310000D02*
X169070000Y-116310000D01*
X164140000Y-114260000D02*
X163130000Y-114260000D01*
X157610000Y-111940000D02*
X156100000Y-111940000D01*
X158460000Y-112790000D02*
X157610000Y-111940000D01*
X151500000Y-110520000D02*
X150920000Y-109940000D01*
X163130000Y-114260000D02*
X162280000Y-113410000D01*
X166940000Y-115540000D02*
X166340000Y-114940000D01*
X171460000Y-118900000D02*
X171460000Y-117120000D01*
X166340000Y-114940000D02*
X164820000Y-114940000D01*
X162280000Y-113410000D02*
X160680000Y-113410000D01*
X164820000Y-114940000D02*
X164140000Y-114260000D01*
%TO.N,Net-(J1-Pin_35)*%
X128750000Y-116350000D02*
X130280000Y-116350000D01*
X128040000Y-117060000D02*
X128750000Y-116350000D01*
X133230000Y-114880000D02*
X133230000Y-109405000D01*
X131030000Y-115600000D02*
X132510000Y-115600000D01*
X128040000Y-119140000D02*
X128040000Y-117060000D01*
X126820000Y-120380000D02*
X126820000Y-120360000D01*
X130280000Y-116350000D02*
X131030000Y-115600000D01*
X126820000Y-120360000D02*
X128040000Y-119140000D01*
X132510000Y-115600000D02*
X133230000Y-114880000D01*
%TO.N,Net-(J1-Pin_10)*%
X155810000Y-115200000D02*
X154490000Y-115200000D01*
X159600000Y-117460000D02*
X159520000Y-117460000D01*
X145960000Y-112440000D02*
X145730000Y-112210000D01*
X152140000Y-114500000D02*
X151360000Y-113720000D01*
X149750000Y-113720000D02*
X149110000Y-113080000D01*
X154490000Y-115200000D02*
X153790000Y-114500000D01*
X159520000Y-117460000D02*
X157950000Y-115890000D01*
X156500000Y-115890000D02*
X155810000Y-115200000D01*
X148030000Y-113080000D02*
X147390000Y-112440000D01*
X157950000Y-115890000D02*
X156500000Y-115890000D01*
X151360000Y-113720000D02*
X149750000Y-113720000D01*
X149110000Y-113080000D02*
X148030000Y-113080000D01*
X145730000Y-112210000D02*
X145730000Y-109405000D01*
X147390000Y-112440000D02*
X145960000Y-112440000D01*
X153790000Y-114500000D02*
X152140000Y-114500000D01*
%TO.N,Net-(J1-Pin_34)*%
X131180000Y-115940000D02*
X132690000Y-115940000D01*
X129360000Y-117840000D02*
X129350000Y-117830000D01*
X129350000Y-117830000D02*
X129350000Y-117770000D01*
X132690000Y-115940000D02*
X133730000Y-114900000D01*
X129350000Y-117770000D02*
X131180000Y-115940000D01*
X133730000Y-114900000D02*
X133730000Y-109405000D01*
%TO.N,Net-(J1-Pin_14)*%
X154520000Y-117460000D02*
X154520000Y-117580000D01*
X154520000Y-117580000D02*
X154760000Y-117820000D01*
%TO.N,Net-(J1-Pin_19)*%
X148400000Y-119140000D02*
X148400000Y-116990000D01*
X143380000Y-114860000D02*
X141740000Y-114860000D01*
X147160000Y-120380000D02*
X148400000Y-119140000D01*
X147140000Y-120380000D02*
X147160000Y-120380000D01*
X141230000Y-114350000D02*
X141230000Y-109405000D01*
X144090000Y-115570000D02*
X143380000Y-114860000D01*
X148400000Y-116990000D02*
X147770000Y-116360000D01*
X147770000Y-116360000D02*
X146520000Y-116360000D01*
X146520000Y-116360000D02*
X145730000Y-115570000D01*
X145730000Y-115570000D02*
X144090000Y-115570000D01*
X141740000Y-114860000D02*
X141230000Y-114350000D01*
%TO.N,Net-(J1-Pin_32)*%
X131900000Y-117760000D02*
X133660000Y-116000000D01*
X134340000Y-116000000D02*
X134730000Y-115610000D01*
X131900000Y-117840000D02*
X131900000Y-117760000D01*
X134730000Y-115610000D02*
X134730000Y-109405000D01*
X133660000Y-116000000D02*
X134340000Y-116000000D01*
%TO.N,Net-(J1-Pin_24)*%
X141480000Y-117230000D02*
X140270000Y-116020000D01*
X138730000Y-115760000D02*
X138730000Y-109405000D01*
X142060000Y-117700000D02*
X142060000Y-117820000D01*
X141480000Y-117240000D02*
X141480000Y-117230000D01*
X140270000Y-116020000D02*
X138990000Y-116020000D01*
X138990000Y-116020000D02*
X138730000Y-115760000D01*
X142060000Y-117820000D02*
X141480000Y-117240000D01*
%TO.N,Net-(J1-Pin_51)*%
X114390000Y-114940000D02*
X115090000Y-114240000D01*
X108450000Y-116350000D02*
X109980000Y-116350000D01*
X125230000Y-111210000D02*
X125230000Y-109405000D01*
X107790000Y-117010000D02*
X108450000Y-116350000D01*
X123410000Y-112070000D02*
X124070000Y-111410000D01*
X112740000Y-114940000D02*
X114390000Y-114940000D01*
X120550000Y-112810000D02*
X121290000Y-112070000D01*
X124070000Y-111410000D02*
X125030000Y-111410000D01*
X121290000Y-112070000D02*
X123410000Y-112070000D01*
X106500000Y-120380000D02*
X106510000Y-120380000D01*
X110680000Y-115650000D02*
X112030000Y-115650000D01*
X125030000Y-111410000D02*
X125230000Y-111210000D01*
X112030000Y-115650000D02*
X112740000Y-114940000D01*
X107790000Y-119100000D02*
X107790000Y-117010000D01*
X106510000Y-120380000D02*
X107790000Y-119100000D01*
X118590000Y-113420000D02*
X119200000Y-112810000D01*
X115090000Y-114240000D02*
X116580000Y-114240000D01*
X117400000Y-113420000D02*
X118590000Y-113420000D01*
X116580000Y-114240000D02*
X117400000Y-113420000D01*
X119200000Y-112810000D02*
X120550000Y-112810000D01*
X109980000Y-116350000D02*
X110680000Y-115650000D01*
%TO.N,Net-(J1-Pin_50)*%
X124250000Y-111760000D02*
X125470000Y-111760000D01*
X108800000Y-117460000D02*
X109380000Y-117460000D01*
X123530000Y-112480000D02*
X124250000Y-111760000D01*
X120750000Y-113170000D02*
X121440000Y-112480000D01*
X125470000Y-111760000D02*
X125730000Y-111500000D01*
X112920000Y-115280000D02*
X114580000Y-115280000D01*
X115290000Y-114570000D02*
X116780000Y-114570000D01*
X112200000Y-116000000D02*
X112920000Y-115280000D01*
X116780000Y-114570000D02*
X117530000Y-113820000D01*
X118750000Y-113820000D02*
X119400000Y-113170000D01*
X109380000Y-117460000D02*
X110840000Y-116000000D01*
X110840000Y-116000000D02*
X112200000Y-116000000D01*
X119400000Y-113170000D02*
X120750000Y-113170000D01*
X114580000Y-115280000D02*
X115290000Y-114570000D01*
X117530000Y-113820000D02*
X118750000Y-113820000D01*
X121440000Y-112480000D02*
X123530000Y-112480000D01*
X125730000Y-111500000D02*
X125730000Y-109405000D01*
%TO.N,Net-(J1-Pin_8)*%
X152660000Y-113730000D02*
X151920000Y-112990000D01*
X147820000Y-111740000D02*
X146910000Y-111740000D01*
X159260000Y-115900000D02*
X158560000Y-115200000D01*
X149536828Y-112370000D02*
X148450000Y-112370000D01*
X150156828Y-112990000D02*
X149536828Y-112370000D01*
X162140000Y-117460000D02*
X162140000Y-117200000D01*
X151920000Y-112990000D02*
X150156828Y-112990000D01*
X162140000Y-117200000D02*
X160840000Y-115900000D01*
X156890000Y-115200000D02*
X156180000Y-114490000D01*
X148450000Y-112370000D02*
X147820000Y-111740000D01*
X146910000Y-111740000D02*
X146730000Y-111560000D01*
X154120000Y-113730000D02*
X152660000Y-113730000D01*
X156180000Y-114490000D02*
X154880000Y-114490000D01*
X158560000Y-115200000D02*
X156890000Y-115200000D01*
X154880000Y-114490000D02*
X154120000Y-113730000D01*
X146730000Y-111560000D02*
X146730000Y-109405000D01*
X160840000Y-115900000D02*
X159260000Y-115900000D01*
%TO.N,Net-(J1-Pin_52)*%
X112604138Y-114612000D02*
X112608000Y-114612000D01*
X106820000Y-117460000D02*
X108260000Y-116020000D01*
X108260000Y-116020000D02*
X109810000Y-116020000D01*
X109810000Y-116020000D02*
X110550000Y-115280000D01*
X114240000Y-114580000D02*
X114960000Y-113860000D01*
X124490000Y-111060000D02*
X124730000Y-110820000D01*
X123920000Y-111060000D02*
X124490000Y-111060000D01*
X112608000Y-114612000D02*
X112640000Y-114580000D01*
X119020000Y-112470000D02*
X120370000Y-112470000D01*
X117270000Y-113050000D02*
X118440000Y-113050000D01*
X106260000Y-117460000D02*
X106820000Y-117460000D01*
X110550000Y-115280000D02*
X111936138Y-115280000D01*
X124730000Y-110820000D02*
X124730000Y-109405000D01*
X112640000Y-114580000D02*
X114240000Y-114580000D01*
X114960000Y-113860000D02*
X116460000Y-113860000D01*
X111936138Y-115280000D02*
X112604138Y-114612000D01*
X123360000Y-111620000D02*
X123920000Y-111060000D01*
X120370000Y-112470000D02*
X121220000Y-111620000D01*
X116460000Y-113860000D02*
X117270000Y-113050000D01*
X121220000Y-111620000D02*
X123360000Y-111620000D01*
X118440000Y-113050000D02*
X119020000Y-112470000D01*
%TO.N,Net-(J1-Pin_43)*%
X116660000Y-120380000D02*
X116660000Y-120360000D01*
X116660000Y-120360000D02*
X117960000Y-119060000D01*
X125270000Y-114270000D02*
X126730000Y-114270000D01*
X129230000Y-113070000D02*
X129230000Y-109405000D01*
X117960000Y-116980000D02*
X118600000Y-116340000D01*
X121990000Y-115640000D02*
X122730000Y-114900000D01*
X117960000Y-119060000D02*
X117960000Y-116980000D01*
X118600000Y-116340000D02*
X120000000Y-116340000D01*
X128850000Y-113450000D02*
X129230000Y-113070000D01*
X120000000Y-116340000D02*
X120700000Y-115640000D01*
X122730000Y-114900000D02*
X124640000Y-114900000D01*
X127550000Y-113450000D02*
X128850000Y-113450000D01*
X120700000Y-115640000D02*
X121990000Y-115640000D01*
X126730000Y-114270000D02*
X127550000Y-113450000D01*
X124640000Y-114900000D02*
X125270000Y-114270000D01*
%TO.N,Net-(J1-Pin_4)*%
X155580000Y-113090000D02*
X154800000Y-112310000D01*
X165760000Y-115970000D02*
X164200000Y-115970000D01*
X149250000Y-110980000D02*
X148730000Y-110460000D01*
X167220000Y-117430000D02*
X165760000Y-115970000D01*
X167220000Y-117460000D02*
X167220000Y-117430000D01*
X154800000Y-112310000D02*
X153390000Y-112310000D01*
X152660000Y-111580000D02*
X150960000Y-111580000D01*
X157730000Y-113800000D02*
X157020000Y-113090000D01*
X163510000Y-115280000D02*
X162550000Y-115280000D01*
X162550000Y-115280000D02*
X161720000Y-114450000D01*
X150960000Y-111580000D02*
X150360000Y-110980000D01*
X148730000Y-110460000D02*
X148730000Y-109405000D01*
X161720000Y-114450000D02*
X160150000Y-114450000D01*
X153390000Y-112310000D02*
X152660000Y-111580000D01*
X160150000Y-114450000D02*
X159500000Y-113800000D01*
X159500000Y-113800000D02*
X157730000Y-113800000D01*
X157020000Y-113090000D02*
X155580000Y-113090000D01*
X150360000Y-110980000D02*
X149250000Y-110980000D01*
X164200000Y-115970000D02*
X163510000Y-115280000D01*
%TO.N,Net-(J1-Pin_6)*%
X149953862Y-111670000D02*
X148800000Y-111670000D01*
X159580000Y-115210000D02*
X158860000Y-114490000D01*
X152970000Y-113020000D02*
X152210000Y-112260000D01*
X148800000Y-111670000D02*
X148160000Y-111030000D01*
X148160000Y-111030000D02*
X147960000Y-111030000D01*
X147960000Y-111030000D02*
X147730000Y-110800000D01*
X164610000Y-117460000D02*
X163140000Y-115990000D01*
X158860000Y-114490000D02*
X157260000Y-114490000D01*
X163140000Y-115990000D02*
X162010000Y-115990000D01*
X164680000Y-117460000D02*
X164610000Y-117460000D01*
X161230000Y-115210000D02*
X159580000Y-115210000D01*
X152210000Y-112260000D02*
X150543862Y-112260000D01*
X154480000Y-113020000D02*
X152970000Y-113020000D01*
X150543862Y-112260000D02*
X149953862Y-111670000D01*
X162010000Y-115990000D02*
X161230000Y-115210000D01*
X157260000Y-114490000D02*
X156530000Y-113760000D01*
X155220000Y-113760000D02*
X154480000Y-113020000D01*
X147730000Y-110800000D02*
X147730000Y-109405000D01*
X156530000Y-113760000D02*
X155220000Y-113760000D01*
%TO.N,Net-(J1-Pin_45)*%
X122260000Y-114210000D02*
X124260000Y-114210000D01*
X115390000Y-119090000D02*
X115390000Y-117050000D01*
X127270000Y-112730000D02*
X127760000Y-112730000D01*
X116100000Y-116340000D02*
X117590000Y-116340000D01*
X128230000Y-112260000D02*
X128230000Y-109405000D01*
X127760000Y-112730000D02*
X128230000Y-112260000D01*
X115390000Y-117050000D02*
X116100000Y-116340000D01*
X121560000Y-114910000D02*
X122260000Y-114210000D01*
X119650000Y-115630000D02*
X120370000Y-114910000D01*
X114120000Y-120360000D02*
X115390000Y-119090000D01*
X118300000Y-115630000D02*
X119650000Y-115630000D01*
X124890000Y-113580000D02*
X126420000Y-113580000D01*
X124260000Y-114210000D02*
X124890000Y-113580000D01*
X126420000Y-113580000D02*
X127270000Y-112730000D01*
X117590000Y-116340000D02*
X118300000Y-115630000D01*
X120370000Y-114910000D02*
X121560000Y-114910000D01*
X114120000Y-120380000D02*
X114120000Y-120360000D01*
%TO.N,Net-(J1-Pin_42)*%
X119380000Y-117460000D02*
X120860000Y-115980000D01*
X125440000Y-114600000D02*
X126920000Y-114600000D01*
X126920000Y-114600000D02*
X127710000Y-113810000D01*
X122200000Y-115980000D02*
X122920000Y-115260000D01*
X120860000Y-115980000D02*
X122200000Y-115980000D01*
X129730000Y-113280000D02*
X129730000Y-109405000D01*
X129200000Y-113810000D02*
X129730000Y-113280000D01*
X127710000Y-113810000D02*
X129200000Y-113810000D01*
X124780000Y-115260000D02*
X125440000Y-114600000D01*
X122920000Y-115260000D02*
X124780000Y-115260000D01*
X118960000Y-117460000D02*
X119380000Y-117460000D01*
%TO.N,Net-(J1-Pin_46)*%
X127390000Y-112360000D02*
X127730000Y-112020000D01*
X114470000Y-117460000D02*
X115950000Y-115980000D01*
X113880000Y-117460000D02*
X114470000Y-117460000D01*
X124130000Y-113870000D02*
X124760000Y-113240000D01*
X121400000Y-114550000D02*
X122080000Y-113870000D01*
X118130000Y-115270000D02*
X119380000Y-115270000D01*
X127140000Y-112360000D02*
X127390000Y-112360000D01*
X122080000Y-113870000D02*
X124130000Y-113870000D01*
X126260000Y-113240000D02*
X127140000Y-112360000D01*
X124760000Y-113240000D02*
X126260000Y-113240000D01*
X120100000Y-114550000D02*
X121400000Y-114550000D01*
X117420000Y-115980000D02*
X118130000Y-115270000D01*
X127730000Y-112020000D02*
X127730000Y-109405000D01*
X115950000Y-115980000D02*
X117420000Y-115980000D01*
X119380000Y-115270000D02*
X120100000Y-114550000D01*
%TO.N,Net-(J1-Pin_48)*%
X121720000Y-113180000D02*
X123866138Y-113180000D01*
X113300000Y-115980000D02*
X114940000Y-115980000D01*
X111820000Y-117460000D02*
X113300000Y-115980000D01*
X124546138Y-112500000D02*
X125980000Y-112500000D01*
X123866138Y-113180000D02*
X124546138Y-112500000D01*
X115650000Y-115270000D02*
X117080000Y-115270000D01*
X121070000Y-113830000D02*
X121720000Y-113180000D01*
X125980000Y-112500000D02*
X126730000Y-111750000D01*
X119790000Y-113830000D02*
X121070000Y-113830000D01*
X114940000Y-115980000D02*
X115650000Y-115270000D01*
X119070000Y-114550000D02*
X119790000Y-113830000D01*
X117800000Y-114550000D02*
X119070000Y-114550000D01*
X117080000Y-115270000D02*
X117800000Y-114550000D01*
X126730000Y-111750000D02*
X126730000Y-109405000D01*
X111340000Y-117460000D02*
X111820000Y-117460000D01*
%TO.N,Net-(J1-Pin_38)*%
X124280000Y-117840000D02*
X124280000Y-117760000D01*
X131730000Y-114310000D02*
X131730000Y-109405000D01*
X127570000Y-116010000D02*
X128360000Y-115220000D01*
X130590000Y-114550000D02*
X131490000Y-114550000D01*
X124280000Y-117760000D02*
X126030000Y-116010000D01*
X128360000Y-115220000D02*
X129920000Y-115220000D01*
X131490000Y-114550000D02*
X131730000Y-114310000D01*
X129920000Y-115220000D02*
X130590000Y-114550000D01*
X124040000Y-117460000D02*
X124040000Y-117600000D01*
X126030000Y-116010000D02*
X127570000Y-116010000D01*
%TO.N,Net-(J1-Pin_13)*%
X144230000Y-112540000D02*
X144230000Y-109405000D01*
X145170000Y-113480000D02*
X144230000Y-112540000D01*
X146780000Y-113480000D02*
X145170000Y-113480000D01*
X147480000Y-114180000D02*
X146780000Y-113480000D01*
X149350000Y-114870000D02*
X148660000Y-114180000D01*
X151000000Y-114870000D02*
X149350000Y-114870000D01*
X151700000Y-115570000D02*
X151000000Y-114870000D01*
X148660000Y-114180000D02*
X147480000Y-114180000D01*
X153270000Y-115570000D02*
X151700000Y-115570000D01*
X154040000Y-116340000D02*
X153270000Y-115570000D01*
X155340000Y-116340000D02*
X154040000Y-116340000D01*
X156010000Y-117010000D02*
X155340000Y-116340000D01*
X154760000Y-120380000D02*
X156010000Y-119130000D01*
X156010000Y-119130000D02*
X156010000Y-117010000D01*
%TD*%
%TA.AperFunction,Conductor*%
%TO.N,Net-(J1-Pin_8)*%
G36*
X146740229Y-109440882D02*
G01*
X146741249Y-109443346D01*
X146873469Y-109905826D01*
X146873633Y-109911617D01*
X146832059Y-110095875D01*
X146826895Y-110103191D01*
X146820646Y-110105000D01*
X146639354Y-110105000D01*
X146631081Y-110101573D01*
X146627941Y-110095875D01*
X146586366Y-109911613D01*
X146586529Y-109905829D01*
X146718751Y-109443345D01*
X146724320Y-109436333D01*
X146733216Y-109435313D01*
X146740229Y-109440882D01*
G37*
%TD.AperFunction*%
%TD*%
%TA.AperFunction,Conductor*%
%TO.N,Net-(J1-Pin_18)*%
G36*
X141740229Y-109440882D02*
G01*
X141741249Y-109443346D01*
X141873469Y-109905826D01*
X141873633Y-109911617D01*
X141832059Y-110095875D01*
X141826895Y-110103191D01*
X141820646Y-110105000D01*
X141639354Y-110105000D01*
X141631081Y-110101573D01*
X141627941Y-110095875D01*
X141586366Y-109911613D01*
X141586529Y-109905829D01*
X141718751Y-109443345D01*
X141724320Y-109436333D01*
X141733216Y-109435313D01*
X141740229Y-109440882D01*
G37*
%TD.AperFunction*%
%TD*%
%TA.AperFunction,Conductor*%
%TO.N,Net-(J1-Pin_11)*%
G36*
X145240229Y-109440882D02*
G01*
X145241249Y-109443346D01*
X145373469Y-109905826D01*
X145373633Y-109911617D01*
X145332059Y-110095875D01*
X145326895Y-110103191D01*
X145320646Y-110105000D01*
X145139354Y-110105000D01*
X145131081Y-110101573D01*
X145127941Y-110095875D01*
X145086366Y-109911613D01*
X145086529Y-109905829D01*
X145218751Y-109443345D01*
X145224320Y-109436333D01*
X145233216Y-109435313D01*
X145240229Y-109440882D01*
G37*
%TD.AperFunction*%
%TD*%
%TA.AperFunction,Conductor*%
%TO.N,Net-(J1-Pin_36)*%
G36*
X132740229Y-109440882D02*
G01*
X132741249Y-109443346D01*
X132873469Y-109905826D01*
X132873633Y-109911617D01*
X132832059Y-110095875D01*
X132826895Y-110103191D01*
X132820646Y-110105000D01*
X132639354Y-110105000D01*
X132631081Y-110101573D01*
X132627941Y-110095875D01*
X132586366Y-109911613D01*
X132586529Y-109905829D01*
X132718751Y-109443345D01*
X132724320Y-109436333D01*
X132733216Y-109435313D01*
X132740229Y-109440882D01*
G37*
%TD.AperFunction*%
%TD*%
%TA.AperFunction,Conductor*%
%TO.N,Net-(J1-Pin_45)*%
G36*
X128240229Y-109440882D02*
G01*
X128241249Y-109443346D01*
X128373469Y-109905826D01*
X128373633Y-109911617D01*
X128332059Y-110095875D01*
X128326895Y-110103191D01*
X128320646Y-110105000D01*
X128139354Y-110105000D01*
X128131081Y-110101573D01*
X128127941Y-110095875D01*
X128086366Y-109911613D01*
X128086529Y-109905829D01*
X128218751Y-109443345D01*
X128224320Y-109436333D01*
X128233216Y-109435313D01*
X128240229Y-109440882D01*
G37*
%TD.AperFunction*%
%TD*%
%TA.AperFunction,Conductor*%
%TO.N,Net-(J1-Pin_16)*%
G36*
X142740229Y-109440882D02*
G01*
X142741249Y-109443346D01*
X142873469Y-109905826D01*
X142873633Y-109911617D01*
X142832059Y-110095875D01*
X142826895Y-110103191D01*
X142820646Y-110105000D01*
X142639354Y-110105000D01*
X142631081Y-110101573D01*
X142627941Y-110095875D01*
X142586366Y-109911613D01*
X142586529Y-109905829D01*
X142718751Y-109443345D01*
X142724320Y-109436333D01*
X142733216Y-109435313D01*
X142740229Y-109440882D01*
G37*
%TD.AperFunction*%
%TD*%
%TA.AperFunction,Conductor*%
%TO.N,Net-(J1-Pin_4)*%
G36*
X148740229Y-109440882D02*
G01*
X148741249Y-109443346D01*
X148873469Y-109905826D01*
X148873633Y-109911617D01*
X148832059Y-110095875D01*
X148826895Y-110103191D01*
X148820646Y-110105000D01*
X148639354Y-110105000D01*
X148631081Y-110101573D01*
X148627941Y-110095875D01*
X148586366Y-109911613D01*
X148586529Y-109905829D01*
X148718751Y-109443345D01*
X148724320Y-109436333D01*
X148733216Y-109435313D01*
X148740229Y-109440882D01*
G37*
%TD.AperFunction*%
%TD*%
%TA.AperFunction,Conductor*%
%TO.N,Net-(J1-Pin_38)*%
G36*
X131740229Y-109440882D02*
G01*
X131741249Y-109443346D01*
X131873469Y-109905826D01*
X131873633Y-109911617D01*
X131832059Y-110095875D01*
X131826895Y-110103191D01*
X131820646Y-110105000D01*
X131639354Y-110105000D01*
X131631081Y-110101573D01*
X131627941Y-110095875D01*
X131586366Y-109911613D01*
X131586529Y-109905829D01*
X131718751Y-109443345D01*
X131724320Y-109436333D01*
X131733216Y-109435313D01*
X131740229Y-109440882D01*
G37*
%TD.AperFunction*%
%TD*%
%TA.AperFunction,Conductor*%
%TO.N,Net-(J1-Pin_9)*%
G36*
X146240229Y-109440882D02*
G01*
X146241249Y-109443346D01*
X146373469Y-109905826D01*
X146373633Y-109911617D01*
X146332059Y-110095875D01*
X146326895Y-110103191D01*
X146320646Y-110105000D01*
X146139354Y-110105000D01*
X146131081Y-110101573D01*
X146127941Y-110095875D01*
X146086366Y-109911613D01*
X146086529Y-109905829D01*
X146218751Y-109443345D01*
X146224320Y-109436333D01*
X146233216Y-109435313D01*
X146240229Y-109440882D01*
G37*
%TD.AperFunction*%
%TD*%
%TA.AperFunction,Conductor*%
%TO.N,Net-(J1-Pin_25)*%
G36*
X138240229Y-109440882D02*
G01*
X138241249Y-109443346D01*
X138373469Y-109905826D01*
X138373633Y-109911617D01*
X138332059Y-110095875D01*
X138326895Y-110103191D01*
X138320646Y-110105000D01*
X138139354Y-110105000D01*
X138131081Y-110101573D01*
X138127941Y-110095875D01*
X138086366Y-109911613D01*
X138086529Y-109905829D01*
X138218751Y-109443345D01*
X138224320Y-109436333D01*
X138233216Y-109435313D01*
X138240229Y-109440882D01*
G37*
%TD.AperFunction*%
%TD*%
%TA.AperFunction,Conductor*%
%TO.N,Net-(J1-Pin_40)*%
G36*
X130740229Y-109440882D02*
G01*
X130741249Y-109443346D01*
X130873469Y-109905826D01*
X130873633Y-109911617D01*
X130832059Y-110095875D01*
X130826895Y-110103191D01*
X130820646Y-110105000D01*
X130639354Y-110105000D01*
X130631081Y-110101573D01*
X130627941Y-110095875D01*
X130586366Y-109911613D01*
X130586529Y-109905829D01*
X130718751Y-109443345D01*
X130724320Y-109436333D01*
X130733216Y-109435313D01*
X130740229Y-109440882D01*
G37*
%TD.AperFunction*%
%TD*%
%TA.AperFunction,Conductor*%
%TO.N,Net-(J1-Pin_42)*%
G36*
X129740229Y-109440882D02*
G01*
X129741249Y-109443346D01*
X129873469Y-109905826D01*
X129873633Y-109911617D01*
X129832059Y-110095875D01*
X129826895Y-110103191D01*
X129820646Y-110105000D01*
X129639354Y-110105000D01*
X129631081Y-110101573D01*
X129627941Y-110095875D01*
X129586366Y-109911613D01*
X129586529Y-109905829D01*
X129718751Y-109443345D01*
X129724320Y-109436333D01*
X129733216Y-109435313D01*
X129740229Y-109440882D01*
G37*
%TD.AperFunction*%
%TD*%
%TA.AperFunction,Conductor*%
%TO.N,Net-(J1-Pin_41)*%
G36*
X130240229Y-109440882D02*
G01*
X130241249Y-109443346D01*
X130373469Y-109905826D01*
X130373633Y-109911617D01*
X130332059Y-110095875D01*
X130326895Y-110103191D01*
X130320646Y-110105000D01*
X130139354Y-110105000D01*
X130131081Y-110101573D01*
X130127941Y-110095875D01*
X130086366Y-109911613D01*
X130086529Y-109905829D01*
X130218751Y-109443345D01*
X130224320Y-109436333D01*
X130233216Y-109435313D01*
X130240229Y-109440882D01*
G37*
%TD.AperFunction*%
%TD*%
%TA.AperFunction,Conductor*%
%TO.N,Net-(J1-Pin_44)*%
G36*
X128740229Y-109440882D02*
G01*
X128741249Y-109443346D01*
X128873469Y-109905826D01*
X128873633Y-109911617D01*
X128832059Y-110095875D01*
X128826895Y-110103191D01*
X128820646Y-110105000D01*
X128639354Y-110105000D01*
X128631081Y-110101573D01*
X128627941Y-110095875D01*
X128586366Y-109911613D01*
X128586529Y-109905829D01*
X128718751Y-109443345D01*
X128724320Y-109436333D01*
X128733216Y-109435313D01*
X128740229Y-109440882D01*
G37*
%TD.AperFunction*%
%TD*%
%TA.AperFunction,Conductor*%
%TO.N,Net-(J1-Pin_29)*%
G36*
X136240229Y-109440882D02*
G01*
X136241249Y-109443346D01*
X136373469Y-109905826D01*
X136373633Y-109911617D01*
X136332059Y-110095875D01*
X136326895Y-110103191D01*
X136320646Y-110105000D01*
X136139354Y-110105000D01*
X136131081Y-110101573D01*
X136127941Y-110095875D01*
X136086366Y-109911613D01*
X136086529Y-109905829D01*
X136218751Y-109443345D01*
X136224320Y-109436333D01*
X136233216Y-109435313D01*
X136240229Y-109440882D01*
G37*
%TD.AperFunction*%
%TD*%
%TA.AperFunction,Conductor*%
%TO.N,Net-(J1-Pin_54)*%
G36*
X123740229Y-109440882D02*
G01*
X123741249Y-109443346D01*
X123873469Y-109905826D01*
X123873633Y-109911617D01*
X123832059Y-110095875D01*
X123826895Y-110103191D01*
X123820646Y-110105000D01*
X123639354Y-110105000D01*
X123631081Y-110101573D01*
X123627941Y-110095875D01*
X123586366Y-109911613D01*
X123586529Y-109905829D01*
X123718751Y-109443345D01*
X123724320Y-109436333D01*
X123733216Y-109435313D01*
X123740229Y-109440882D01*
G37*
%TD.AperFunction*%
%TD*%
%TA.AperFunction,Conductor*%
%TO.N,Net-(J1-Pin_51)*%
G36*
X125240229Y-109440882D02*
G01*
X125241249Y-109443346D01*
X125373469Y-109905826D01*
X125373633Y-109911617D01*
X125332059Y-110095875D01*
X125326895Y-110103191D01*
X125320646Y-110105000D01*
X125139354Y-110105000D01*
X125131081Y-110101573D01*
X125127941Y-110095875D01*
X125086366Y-109911613D01*
X125086529Y-109905829D01*
X125218751Y-109443345D01*
X125224320Y-109436333D01*
X125233216Y-109435313D01*
X125240229Y-109440882D01*
G37*
%TD.AperFunction*%
%TD*%
%TA.AperFunction,Conductor*%
%TO.N,Net-(J1-Pin_1)*%
G36*
X150377705Y-109375469D02*
G01*
X150382771Y-109382492D01*
X150497254Y-109838597D01*
X150497606Y-109841445D01*
X150497606Y-109967800D01*
X150494179Y-109976073D01*
X150485906Y-109979500D01*
X150392124Y-109979500D01*
X150386428Y-109978019D01*
X150338998Y-109951577D01*
X150333441Y-109944557D01*
X150333213Y-109943599D01*
X150231162Y-109416174D01*
X150232955Y-109407401D01*
X150240110Y-109402531D01*
X150368886Y-109373919D01*
X150377705Y-109375469D01*
G37*
%TD.AperFunction*%
%TD*%
%TA.AperFunction,Conductor*%
%TO.N,Net-(J1-Pin_15)*%
G36*
X143240229Y-109440882D02*
G01*
X143241249Y-109443346D01*
X143373469Y-109905826D01*
X143373633Y-109911617D01*
X143332059Y-110095875D01*
X143326895Y-110103191D01*
X143320646Y-110105000D01*
X143139354Y-110105000D01*
X143131081Y-110101573D01*
X143127941Y-110095875D01*
X143086366Y-109911613D01*
X143086529Y-109905829D01*
X143218751Y-109443345D01*
X143224320Y-109436333D01*
X143233216Y-109435313D01*
X143240229Y-109440882D01*
G37*
%TD.AperFunction*%
%TD*%
%TA.AperFunction,Conductor*%
%TO.N,Net-(J1-Pin_39)*%
G36*
X131240229Y-109440882D02*
G01*
X131241249Y-109443346D01*
X131373469Y-109905826D01*
X131373633Y-109911617D01*
X131332059Y-110095875D01*
X131326895Y-110103191D01*
X131320646Y-110105000D01*
X131139354Y-110105000D01*
X131131081Y-110101573D01*
X131127941Y-110095875D01*
X131086366Y-109911613D01*
X131086529Y-109905829D01*
X131218751Y-109443345D01*
X131224320Y-109436333D01*
X131233216Y-109435313D01*
X131240229Y-109440882D01*
G37*
%TD.AperFunction*%
%TD*%
%TA.AperFunction,Conductor*%
%TO.N,Net-(J1-Pin_34)*%
G36*
X133740229Y-109440882D02*
G01*
X133741249Y-109443346D01*
X133873469Y-109905826D01*
X133873633Y-109911617D01*
X133832059Y-110095875D01*
X133826895Y-110103191D01*
X133820646Y-110105000D01*
X133639354Y-110105000D01*
X133631081Y-110101573D01*
X133627941Y-110095875D01*
X133586366Y-109911613D01*
X133586529Y-109905829D01*
X133718751Y-109443345D01*
X133724320Y-109436333D01*
X133733216Y-109435313D01*
X133740229Y-109440882D01*
G37*
%TD.AperFunction*%
%TD*%
%TA.AperFunction,Conductor*%
%TO.N,Net-(J1-Pin_5)*%
G36*
X148240229Y-109440882D02*
G01*
X148241249Y-109443346D01*
X148373469Y-109905826D01*
X148373633Y-109911617D01*
X148332059Y-110095875D01*
X148326895Y-110103191D01*
X148320646Y-110105000D01*
X148139354Y-110105000D01*
X148131081Y-110101573D01*
X148127941Y-110095875D01*
X148086366Y-109911613D01*
X148086529Y-109905829D01*
X148218751Y-109443345D01*
X148224320Y-109436333D01*
X148233216Y-109435313D01*
X148240229Y-109440882D01*
G37*
%TD.AperFunction*%
%TD*%
%TA.AperFunction,Conductor*%
%TO.N,Net-(J1-Pin_7)*%
G36*
X147240229Y-109440882D02*
G01*
X147241249Y-109443346D01*
X147373469Y-109905826D01*
X147373633Y-109911617D01*
X147332059Y-110095875D01*
X147326895Y-110103191D01*
X147320646Y-110105000D01*
X147139354Y-110105000D01*
X147131081Y-110101573D01*
X147127941Y-110095875D01*
X147086366Y-109911613D01*
X147086529Y-109905829D01*
X147218751Y-109443345D01*
X147224320Y-109436333D01*
X147233216Y-109435313D01*
X147240229Y-109440882D01*
G37*
%TD.AperFunction*%
%TD*%
%TA.AperFunction,Conductor*%
%TO.N,Net-(J1-Pin_47)*%
G36*
X127240229Y-109440882D02*
G01*
X127241249Y-109443346D01*
X127373469Y-109905826D01*
X127373633Y-109911617D01*
X127332059Y-110095875D01*
X127326895Y-110103191D01*
X127320646Y-110105000D01*
X127139354Y-110105000D01*
X127131081Y-110101573D01*
X127127941Y-110095875D01*
X127086366Y-109911613D01*
X127086529Y-109905829D01*
X127218751Y-109443345D01*
X127224320Y-109436333D01*
X127233216Y-109435313D01*
X127240229Y-109440882D01*
G37*
%TD.AperFunction*%
%TD*%
%TA.AperFunction,Conductor*%
%TO.N,Net-(J1-Pin_28)*%
G36*
X136740229Y-109440882D02*
G01*
X136741249Y-109443346D01*
X136873469Y-109905826D01*
X136873633Y-109911617D01*
X136832059Y-110095875D01*
X136826895Y-110103191D01*
X136820646Y-110105000D01*
X136639354Y-110105000D01*
X136631081Y-110101573D01*
X136627941Y-110095875D01*
X136586366Y-109911613D01*
X136586529Y-109905829D01*
X136718751Y-109443345D01*
X136724320Y-109436333D01*
X136733216Y-109435313D01*
X136740229Y-109440882D01*
G37*
%TD.AperFunction*%
%TD*%
%TA.AperFunction,Conductor*%
%TO.N,Net-(J1-Pin_32)*%
G36*
X134740229Y-109440882D02*
G01*
X134741249Y-109443346D01*
X134873469Y-109905826D01*
X134873633Y-109911617D01*
X134832059Y-110095875D01*
X134826895Y-110103191D01*
X134820646Y-110105000D01*
X134639354Y-110105000D01*
X134631081Y-110101573D01*
X134627941Y-110095875D01*
X134586366Y-109911613D01*
X134586529Y-109905829D01*
X134718751Y-109443345D01*
X134724320Y-109436333D01*
X134733216Y-109435313D01*
X134740229Y-109440882D01*
G37*
%TD.AperFunction*%
%TD*%
%TA.AperFunction,Conductor*%
%TO.N,Net-(J1-Pin_49)*%
G36*
X126240229Y-109440882D02*
G01*
X126241249Y-109443346D01*
X126373469Y-109905826D01*
X126373633Y-109911617D01*
X126332059Y-110095875D01*
X126326895Y-110103191D01*
X126320646Y-110105000D01*
X126139354Y-110105000D01*
X126131081Y-110101573D01*
X126127941Y-110095875D01*
X126086366Y-109911613D01*
X126086529Y-109905829D01*
X126218751Y-109443345D01*
X126224320Y-109436333D01*
X126233216Y-109435313D01*
X126240229Y-109440882D01*
G37*
%TD.AperFunction*%
%TD*%
%TA.AperFunction,Conductor*%
%TO.N,Net-(J1-Pin_50)*%
G36*
X125740229Y-109440882D02*
G01*
X125741249Y-109443346D01*
X125873469Y-109905826D01*
X125873633Y-109911617D01*
X125832059Y-110095875D01*
X125826895Y-110103191D01*
X125820646Y-110105000D01*
X125639354Y-110105000D01*
X125631081Y-110101573D01*
X125627941Y-110095875D01*
X125586366Y-109911613D01*
X125586529Y-109905829D01*
X125718751Y-109443345D01*
X125724320Y-109436333D01*
X125733216Y-109435313D01*
X125740229Y-109440882D01*
G37*
%TD.AperFunction*%
%TD*%
%TA.AperFunction,Conductor*%
%TO.N,Net-(J1-Pin_26)*%
G36*
X137740229Y-109440882D02*
G01*
X137741249Y-109443346D01*
X137873469Y-109905826D01*
X137873633Y-109911617D01*
X137832059Y-110095875D01*
X137826895Y-110103191D01*
X137820646Y-110105000D01*
X137639354Y-110105000D01*
X137631081Y-110101573D01*
X137627941Y-110095875D01*
X137586366Y-109911613D01*
X137586529Y-109905829D01*
X137718751Y-109443345D01*
X137724320Y-109436333D01*
X137733216Y-109435313D01*
X137740229Y-109440882D01*
G37*
%TD.AperFunction*%
%TD*%
%TA.AperFunction,Conductor*%
%TO.N,Net-(J1-Pin_43)*%
G36*
X129240229Y-109440882D02*
G01*
X129241249Y-109443346D01*
X129373469Y-109905826D01*
X129373633Y-109911617D01*
X129332059Y-110095875D01*
X129326895Y-110103191D01*
X129320646Y-110105000D01*
X129139354Y-110105000D01*
X129131081Y-110101573D01*
X129127941Y-110095875D01*
X129086366Y-109911613D01*
X129086529Y-109905829D01*
X129218751Y-109443345D01*
X129224320Y-109436333D01*
X129233216Y-109435313D01*
X129240229Y-109440882D01*
G37*
%TD.AperFunction*%
%TD*%
%TA.AperFunction,Conductor*%
%TO.N,Net-(J1-Pin_46)*%
G36*
X127740229Y-109440882D02*
G01*
X127741249Y-109443346D01*
X127873469Y-109905826D01*
X127873633Y-109911617D01*
X127832059Y-110095875D01*
X127826895Y-110103191D01*
X127820646Y-110105000D01*
X127639354Y-110105000D01*
X127631081Y-110101573D01*
X127627941Y-110095875D01*
X127586366Y-109911613D01*
X127586529Y-109905829D01*
X127718751Y-109443345D01*
X127724320Y-109436333D01*
X127733216Y-109435313D01*
X127740229Y-109440882D01*
G37*
%TD.AperFunction*%
%TD*%
%TA.AperFunction,Conductor*%
%TO.N,Net-(J1-Pin_48)*%
G36*
X126740229Y-109440882D02*
G01*
X126741249Y-109443346D01*
X126873469Y-109905826D01*
X126873633Y-109911617D01*
X126832059Y-110095875D01*
X126826895Y-110103191D01*
X126820646Y-110105000D01*
X126639354Y-110105000D01*
X126631081Y-110101573D01*
X126627941Y-110095875D01*
X126586366Y-109911613D01*
X126586529Y-109905829D01*
X126718751Y-109443345D01*
X126724320Y-109436333D01*
X126733216Y-109435313D01*
X126740229Y-109440882D01*
G37*
%TD.AperFunction*%
%TD*%
%TA.AperFunction,Conductor*%
%TO.N,Net-(J1-Pin_52)*%
G36*
X124740229Y-109440882D02*
G01*
X124741249Y-109443346D01*
X124873469Y-109905826D01*
X124873633Y-109911617D01*
X124832059Y-110095875D01*
X124826895Y-110103191D01*
X124820646Y-110105000D01*
X124639354Y-110105000D01*
X124631081Y-110101573D01*
X124627941Y-110095875D01*
X124586366Y-109911613D01*
X124586529Y-109905829D01*
X124718751Y-109443345D01*
X124724320Y-109436333D01*
X124733216Y-109435313D01*
X124740229Y-109440882D01*
G37*
%TD.AperFunction*%
%TD*%
%TA.AperFunction,Conductor*%
%TO.N,Net-(J1-Pin_6)*%
G36*
X147740229Y-109440882D02*
G01*
X147741249Y-109443346D01*
X147873469Y-109905826D01*
X147873633Y-109911617D01*
X147832059Y-110095875D01*
X147826895Y-110103191D01*
X147820646Y-110105000D01*
X147639354Y-110105000D01*
X147631081Y-110101573D01*
X147627941Y-110095875D01*
X147586366Y-109911613D01*
X147586529Y-109905829D01*
X147718751Y-109443345D01*
X147724320Y-109436333D01*
X147733216Y-109435313D01*
X147740229Y-109440882D01*
G37*
%TD.AperFunction*%
%TD*%
%TA.AperFunction,Conductor*%
%TO.N,Net-(J1-Pin_35)*%
G36*
X133240229Y-109440882D02*
G01*
X133241249Y-109443346D01*
X133373469Y-109905826D01*
X133373633Y-109911617D01*
X133332059Y-110095875D01*
X133326895Y-110103191D01*
X133320646Y-110105000D01*
X133139354Y-110105000D01*
X133131081Y-110101573D01*
X133127941Y-110095875D01*
X133086366Y-109911613D01*
X133086529Y-109905829D01*
X133218751Y-109443345D01*
X133224320Y-109436333D01*
X133233216Y-109435313D01*
X133240229Y-109440882D01*
G37*
%TD.AperFunction*%
%TD*%
%TA.AperFunction,Conductor*%
%TO.N,Net-(J1-Pin_31)*%
G36*
X135240229Y-109440882D02*
G01*
X135241249Y-109443346D01*
X135373469Y-109905826D01*
X135373633Y-109911617D01*
X135332059Y-110095875D01*
X135326895Y-110103191D01*
X135320646Y-110105000D01*
X135139354Y-110105000D01*
X135131081Y-110101573D01*
X135127941Y-110095875D01*
X135086366Y-109911613D01*
X135086529Y-109905829D01*
X135218751Y-109443345D01*
X135224320Y-109436333D01*
X135233216Y-109435313D01*
X135240229Y-109440882D01*
G37*
%TD.AperFunction*%
%TD*%
%TA.AperFunction,Conductor*%
%TO.N,Net-(J1-Pin_27)*%
G36*
X137240229Y-109440882D02*
G01*
X137241249Y-109443346D01*
X137373469Y-109905826D01*
X137373633Y-109911617D01*
X137332059Y-110095875D01*
X137326895Y-110103191D01*
X137320646Y-110105000D01*
X137139354Y-110105000D01*
X137131081Y-110101573D01*
X137127941Y-110095875D01*
X137086366Y-109911613D01*
X137086529Y-109905829D01*
X137218751Y-109443345D01*
X137224320Y-109436333D01*
X137233216Y-109435313D01*
X137240229Y-109440882D01*
G37*
%TD.AperFunction*%
%TD*%
%TA.AperFunction,Conductor*%
%TO.N,Net-(J1-Pin_24)*%
G36*
X138740229Y-109440882D02*
G01*
X138741249Y-109443346D01*
X138873469Y-109905826D01*
X138873633Y-109911617D01*
X138832059Y-110095875D01*
X138826895Y-110103191D01*
X138820646Y-110105000D01*
X138639354Y-110105000D01*
X138631081Y-110101573D01*
X138627941Y-110095875D01*
X138586366Y-109911613D01*
X138586529Y-109905829D01*
X138718751Y-109443345D01*
X138724320Y-109436333D01*
X138733216Y-109435313D01*
X138740229Y-109440882D01*
G37*
%TD.AperFunction*%
%TD*%
%TA.AperFunction,Conductor*%
%TO.N,Net-(J1-Pin_12)*%
G36*
X144740229Y-109440882D02*
G01*
X144741249Y-109443346D01*
X144873469Y-109905826D01*
X144873633Y-109911617D01*
X144832059Y-110095875D01*
X144826895Y-110103191D01*
X144820646Y-110105000D01*
X144639354Y-110105000D01*
X144631081Y-110101573D01*
X144627941Y-110095875D01*
X144586366Y-109911613D01*
X144586529Y-109905829D01*
X144718751Y-109443345D01*
X144724320Y-109436333D01*
X144733216Y-109435313D01*
X144740229Y-109440882D01*
G37*
%TD.AperFunction*%
%TD*%
%TA.AperFunction,Conductor*%
%TO.N,Net-(J1-Pin_33)*%
G36*
X134240229Y-109440882D02*
G01*
X134241249Y-109443346D01*
X134373469Y-109905826D01*
X134373633Y-109911617D01*
X134332059Y-110095875D01*
X134326895Y-110103191D01*
X134320646Y-110105000D01*
X134139354Y-110105000D01*
X134131081Y-110101573D01*
X134127941Y-110095875D01*
X134086366Y-109911613D01*
X134086529Y-109905829D01*
X134218751Y-109443345D01*
X134224320Y-109436333D01*
X134233216Y-109435313D01*
X134240229Y-109440882D01*
G37*
%TD.AperFunction*%
%TD*%
%TA.AperFunction,Conductor*%
%TO.N,Net-(J1-Pin_20)*%
G36*
X140740229Y-109440882D02*
G01*
X140741249Y-109443346D01*
X140873469Y-109905826D01*
X140873633Y-109911617D01*
X140832059Y-110095875D01*
X140826895Y-110103191D01*
X140820646Y-110105000D01*
X140639354Y-110105000D01*
X140631081Y-110101573D01*
X140627941Y-110095875D01*
X140586366Y-109911613D01*
X140586529Y-109905829D01*
X140718751Y-109443345D01*
X140724320Y-109436333D01*
X140733216Y-109435313D01*
X140740229Y-109440882D01*
G37*
%TD.AperFunction*%
%TD*%
%TA.AperFunction,Conductor*%
%TO.N,Net-(J1-Pin_37)*%
G36*
X132240229Y-109440882D02*
G01*
X132241249Y-109443346D01*
X132373469Y-109905826D01*
X132373633Y-109911617D01*
X132332059Y-110095875D01*
X132326895Y-110103191D01*
X132320646Y-110105000D01*
X132139354Y-110105000D01*
X132131081Y-110101573D01*
X132127941Y-110095875D01*
X132086366Y-109911613D01*
X132086529Y-109905829D01*
X132218751Y-109443345D01*
X132224320Y-109436333D01*
X132233216Y-109435313D01*
X132240229Y-109440882D01*
G37*
%TD.AperFunction*%
%TD*%
%TA.AperFunction,Conductor*%
%TO.N,Net-(J1-Pin_10)*%
G36*
X145740229Y-109440882D02*
G01*
X145741249Y-109443346D01*
X145873469Y-109905826D01*
X145873633Y-109911617D01*
X145832059Y-110095875D01*
X145826895Y-110103191D01*
X145820646Y-110105000D01*
X145639354Y-110105000D01*
X145631081Y-110101573D01*
X145627941Y-110095875D01*
X145586366Y-109911613D01*
X145586529Y-109905829D01*
X145718751Y-109443345D01*
X145724320Y-109436333D01*
X145733216Y-109435313D01*
X145740229Y-109440882D01*
G37*
%TD.AperFunction*%
%TD*%
%TA.AperFunction,Conductor*%
%TO.N,Net-(J1-Pin_2)*%
G36*
X149740229Y-109440882D02*
G01*
X149741249Y-109443346D01*
X149873469Y-109905826D01*
X149873633Y-109911617D01*
X149832059Y-110095875D01*
X149826895Y-110103191D01*
X149820646Y-110105000D01*
X149639354Y-110105000D01*
X149631081Y-110101573D01*
X149627941Y-110095875D01*
X149586366Y-109911613D01*
X149586529Y-109905829D01*
X149718751Y-109443345D01*
X149724320Y-109436333D01*
X149733216Y-109435313D01*
X149740229Y-109440882D01*
G37*
%TD.AperFunction*%
%TD*%
%TA.AperFunction,Conductor*%
%TO.N,Net-(J1-Pin_19)*%
G36*
X141240229Y-109440882D02*
G01*
X141241249Y-109443346D01*
X141373469Y-109905826D01*
X141373633Y-109911617D01*
X141332059Y-110095875D01*
X141326895Y-110103191D01*
X141320646Y-110105000D01*
X141139354Y-110105000D01*
X141131081Y-110101573D01*
X141127941Y-110095875D01*
X141086366Y-109911613D01*
X141086529Y-109905829D01*
X141218751Y-109443345D01*
X141224320Y-109436333D01*
X141233216Y-109435313D01*
X141240229Y-109440882D01*
G37*
%TD.AperFunction*%
%TD*%
%TA.AperFunction,Conductor*%
%TO.N,Net-(J1-Pin_3)*%
G36*
X149240229Y-109440882D02*
G01*
X149241249Y-109443346D01*
X149373469Y-109905826D01*
X149373633Y-109911617D01*
X149332059Y-110095875D01*
X149326895Y-110103191D01*
X149320646Y-110105000D01*
X149139354Y-110105000D01*
X149131081Y-110101573D01*
X149127941Y-110095875D01*
X149086366Y-109911613D01*
X149086529Y-109905829D01*
X149218751Y-109443345D01*
X149224320Y-109436333D01*
X149233216Y-109435313D01*
X149240229Y-109440882D01*
G37*
%TD.AperFunction*%
%TD*%
%TA.AperFunction,Conductor*%
%TO.N,Net-(J1-Pin_30)*%
G36*
X135740229Y-109440882D02*
G01*
X135741249Y-109443346D01*
X135873469Y-109905826D01*
X135873633Y-109911617D01*
X135832059Y-110095875D01*
X135826895Y-110103191D01*
X135820646Y-110105000D01*
X135639354Y-110105000D01*
X135631081Y-110101573D01*
X135627941Y-110095875D01*
X135586366Y-109911613D01*
X135586529Y-109905829D01*
X135718751Y-109443345D01*
X135724320Y-109436333D01*
X135733216Y-109435313D01*
X135740229Y-109440882D01*
G37*
%TD.AperFunction*%
%TD*%
%TA.AperFunction,Conductor*%
%TO.N,Net-(J1-Pin_17)*%
G36*
X142240229Y-109440882D02*
G01*
X142241249Y-109443346D01*
X142373469Y-109905826D01*
X142373633Y-109911617D01*
X142332059Y-110095875D01*
X142326895Y-110103191D01*
X142320646Y-110105000D01*
X142139354Y-110105000D01*
X142131081Y-110101573D01*
X142127941Y-110095875D01*
X142086366Y-109911613D01*
X142086529Y-109905829D01*
X142218751Y-109443345D01*
X142224320Y-109436333D01*
X142233216Y-109435313D01*
X142240229Y-109440882D01*
G37*
%TD.AperFunction*%
%TD*%
%TA.AperFunction,Conductor*%
%TO.N,Net-(J1-Pin_53)*%
G36*
X124240229Y-109440882D02*
G01*
X124241249Y-109443346D01*
X124373469Y-109905826D01*
X124373633Y-109911617D01*
X124332059Y-110095875D01*
X124326895Y-110103191D01*
X124320646Y-110105000D01*
X124139354Y-110105000D01*
X124131081Y-110101573D01*
X124127941Y-110095875D01*
X124086366Y-109911613D01*
X124086529Y-109905829D01*
X124218751Y-109443345D01*
X124224320Y-109436333D01*
X124233216Y-109435313D01*
X124240229Y-109440882D01*
G37*
%TD.AperFunction*%
%TD*%
%TA.AperFunction,Conductor*%
%TO.N,GND*%
G36*
X172006922Y-102501280D02*
G01*
X172097266Y-102511459D01*
X172124331Y-102517636D01*
X172203540Y-102545352D01*
X172228553Y-102557398D01*
X172299606Y-102602043D01*
X172321313Y-102619355D01*
X172380644Y-102678686D01*
X172397957Y-102700395D01*
X172442600Y-102771444D01*
X172454648Y-102796462D01*
X172482362Y-102875666D01*
X172488540Y-102902735D01*
X172498720Y-102993076D01*
X172499500Y-103006961D01*
X172499500Y-121493038D01*
X172498720Y-121506922D01*
X172498720Y-121506923D01*
X172488540Y-121597264D01*
X172482362Y-121624333D01*
X172454648Y-121703537D01*
X172442600Y-121728555D01*
X172397957Y-121799604D01*
X172380644Y-121821313D01*
X172321313Y-121880644D01*
X172299604Y-121897957D01*
X172228555Y-121942600D01*
X172203537Y-121954648D01*
X172124333Y-121982362D01*
X172097264Y-121988540D01*
X172017075Y-121997576D01*
X172006921Y-121998720D01*
X171993038Y-121999500D01*
X102006962Y-121999500D01*
X101993078Y-121998720D01*
X101980553Y-121997308D01*
X101902735Y-121988540D01*
X101875666Y-121982362D01*
X101796462Y-121954648D01*
X101771444Y-121942600D01*
X101700395Y-121897957D01*
X101678686Y-121880644D01*
X101619355Y-121821313D01*
X101602042Y-121799604D01*
X101557399Y-121728555D01*
X101545351Y-121703537D01*
X101527946Y-121653796D01*
X101517636Y-121624331D01*
X101511459Y-121597263D01*
X101508110Y-121567544D01*
X101501280Y-121506922D01*
X101500500Y-121493038D01*
X101500500Y-117713713D01*
X102609500Y-117713713D01*
X102609500Y-117926286D01*
X102642753Y-118136239D01*
X102708444Y-118338414D01*
X102804951Y-118527820D01*
X102929890Y-118699786D01*
X103080213Y-118850109D01*
X103252182Y-118975050D01*
X103260946Y-118979516D01*
X103311742Y-119027491D01*
X103328536Y-119095312D01*
X103305998Y-119161447D01*
X103260946Y-119200484D01*
X103252182Y-119204949D01*
X103080213Y-119329890D01*
X102929890Y-119480213D01*
X102804951Y-119652179D01*
X102708444Y-119841585D01*
X102642753Y-120043760D01*
X102609500Y-120253713D01*
X102609500Y-120466286D01*
X102642753Y-120676239D01*
X102708444Y-120878414D01*
X102804951Y-121067820D01*
X102929890Y-121239786D01*
X103080213Y-121390109D01*
X103252179Y-121515048D01*
X103252181Y-121515049D01*
X103252184Y-121515051D01*
X103441588Y-121611557D01*
X103643757Y-121677246D01*
X103853713Y-121710500D01*
X103853714Y-121710500D01*
X104066286Y-121710500D01*
X104066287Y-121710500D01*
X104276243Y-121677246D01*
X104478412Y-121611557D01*
X104667816Y-121515051D01*
X104754138Y-121452335D01*
X104839786Y-121390109D01*
X104839788Y-121390106D01*
X104839792Y-121390104D01*
X104990104Y-121239792D01*
X104990106Y-121239788D01*
X104990109Y-121239786D01*
X105115048Y-121067820D01*
X105115047Y-121067820D01*
X105115051Y-121067816D01*
X105119514Y-121059054D01*
X105167488Y-121008259D01*
X105235308Y-120991463D01*
X105301444Y-121013999D01*
X105340486Y-121059056D01*
X105344951Y-121067820D01*
X105469890Y-121239786D01*
X105620213Y-121390109D01*
X105792179Y-121515048D01*
X105792181Y-121515049D01*
X105792184Y-121515051D01*
X105981588Y-121611557D01*
X106183757Y-121677246D01*
X106393713Y-121710500D01*
X106393714Y-121710500D01*
X106606286Y-121710500D01*
X106606287Y-121710500D01*
X106816243Y-121677246D01*
X107018412Y-121611557D01*
X107207816Y-121515051D01*
X107294138Y-121452335D01*
X107379786Y-121390109D01*
X107379788Y-121390106D01*
X107379792Y-121390104D01*
X107530104Y-121239792D01*
X107530106Y-121239788D01*
X107530109Y-121239786D01*
X107655048Y-121067820D01*
X107655047Y-121067820D01*
X107655051Y-121067816D01*
X107659514Y-121059054D01*
X107707488Y-121008259D01*
X107775308Y-120991463D01*
X107841444Y-121013999D01*
X107880486Y-121059056D01*
X107884951Y-121067820D01*
X108009890Y-121239786D01*
X108160213Y-121390109D01*
X108332179Y-121515048D01*
X108332181Y-121515049D01*
X108332184Y-121515051D01*
X108521588Y-121611557D01*
X108723757Y-121677246D01*
X108933713Y-121710500D01*
X108933714Y-121710500D01*
X109146286Y-121710500D01*
X109146287Y-121710500D01*
X109356243Y-121677246D01*
X109558412Y-121611557D01*
X109747816Y-121515051D01*
X109834138Y-121452335D01*
X109919786Y-121390109D01*
X109919788Y-121390106D01*
X109919792Y-121390104D01*
X110070104Y-121239792D01*
X110070106Y-121239788D01*
X110070109Y-121239786D01*
X110195048Y-121067820D01*
X110195047Y-121067820D01*
X110195051Y-121067816D01*
X110199514Y-121059054D01*
X110247488Y-121008259D01*
X110315308Y-120991463D01*
X110381444Y-121013999D01*
X110420486Y-121059056D01*
X110424951Y-121067820D01*
X110549890Y-121239786D01*
X110700213Y-121390109D01*
X110872179Y-121515048D01*
X110872181Y-121515049D01*
X110872184Y-121515051D01*
X111061588Y-121611557D01*
X111263757Y-121677246D01*
X111473713Y-121710500D01*
X111473714Y-121710500D01*
X111686286Y-121710500D01*
X111686287Y-121710500D01*
X111896243Y-121677246D01*
X112098412Y-121611557D01*
X112287816Y-121515051D01*
X112374138Y-121452335D01*
X112459786Y-121390109D01*
X112459788Y-121390106D01*
X112459792Y-121390104D01*
X112610104Y-121239792D01*
X112610106Y-121239788D01*
X112610109Y-121239786D01*
X112735048Y-121067820D01*
X112735047Y-121067820D01*
X112735051Y-121067816D01*
X112739514Y-121059054D01*
X112787488Y-121008259D01*
X112855308Y-120991463D01*
X112921444Y-121013999D01*
X112960486Y-121059056D01*
X112964951Y-121067820D01*
X113089890Y-121239786D01*
X113240213Y-121390109D01*
X113412179Y-121515048D01*
X113412181Y-121515049D01*
X113412184Y-121515051D01*
X113601588Y-121611557D01*
X113803757Y-121677246D01*
X114013713Y-121710500D01*
X114013714Y-121710500D01*
X114226286Y-121710500D01*
X114226287Y-121710500D01*
X114436243Y-121677246D01*
X114638412Y-121611557D01*
X114827816Y-121515051D01*
X114914138Y-121452335D01*
X114999786Y-121390109D01*
X114999788Y-121390106D01*
X114999792Y-121390104D01*
X115150104Y-121239792D01*
X115150106Y-121239788D01*
X115150109Y-121239786D01*
X115275048Y-121067820D01*
X115275047Y-121067820D01*
X115275051Y-121067816D01*
X115279514Y-121059054D01*
X115327488Y-121008259D01*
X115395308Y-120991463D01*
X115461444Y-121013999D01*
X115500486Y-121059056D01*
X115504951Y-121067820D01*
X115629890Y-121239786D01*
X115780213Y-121390109D01*
X115952179Y-121515048D01*
X115952181Y-121515049D01*
X115952184Y-121515051D01*
X116141588Y-121611557D01*
X116343757Y-121677246D01*
X116553713Y-121710500D01*
X116553714Y-121710500D01*
X116766286Y-121710500D01*
X116766287Y-121710500D01*
X116976243Y-121677246D01*
X117178412Y-121611557D01*
X117367816Y-121515051D01*
X117454138Y-121452335D01*
X117539786Y-121390109D01*
X117539788Y-121390106D01*
X117539792Y-121390104D01*
X117690104Y-121239792D01*
X117690106Y-121239788D01*
X117690109Y-121239786D01*
X117815048Y-121067820D01*
X117815047Y-121067820D01*
X117815051Y-121067816D01*
X117819514Y-121059054D01*
X117867488Y-121008259D01*
X117935308Y-120991463D01*
X118001444Y-121013999D01*
X118040486Y-121059056D01*
X118044951Y-121067820D01*
X118169890Y-121239786D01*
X118320213Y-121390109D01*
X118492179Y-121515048D01*
X118492181Y-121515049D01*
X118492184Y-121515051D01*
X118681588Y-121611557D01*
X118883757Y-121677246D01*
X119093713Y-121710500D01*
X119093714Y-121710500D01*
X119306286Y-121710500D01*
X119306287Y-121710500D01*
X119516243Y-121677246D01*
X119718412Y-121611557D01*
X119907816Y-121515051D01*
X119994138Y-121452335D01*
X120079786Y-121390109D01*
X120079788Y-121390106D01*
X120079792Y-121390104D01*
X120230104Y-121239792D01*
X120230106Y-121239788D01*
X120230109Y-121239786D01*
X120355048Y-121067820D01*
X120355047Y-121067820D01*
X120355051Y-121067816D01*
X120359514Y-121059054D01*
X120407488Y-121008259D01*
X120475308Y-120991463D01*
X120541444Y-121013999D01*
X120580486Y-121059056D01*
X120584951Y-121067820D01*
X120709890Y-121239786D01*
X120860213Y-121390109D01*
X121032179Y-121515048D01*
X121032181Y-121515049D01*
X121032184Y-121515051D01*
X121221588Y-121611557D01*
X121423757Y-121677246D01*
X121633713Y-121710500D01*
X121633714Y-121710500D01*
X121846286Y-121710500D01*
X121846287Y-121710500D01*
X122056243Y-121677246D01*
X122258412Y-121611557D01*
X122447816Y-121515051D01*
X122534138Y-121452335D01*
X122619786Y-121390109D01*
X122619788Y-121390106D01*
X122619792Y-121390104D01*
X122770104Y-121239792D01*
X122770106Y-121239788D01*
X122770109Y-121239786D01*
X122895048Y-121067820D01*
X122895047Y-121067820D01*
X122895051Y-121067816D01*
X122899514Y-121059054D01*
X122947488Y-121008259D01*
X123015308Y-120991463D01*
X123081444Y-121013999D01*
X123120486Y-121059056D01*
X123124951Y-121067820D01*
X123249890Y-121239786D01*
X123400213Y-121390109D01*
X123572179Y-121515048D01*
X123572181Y-121515049D01*
X123572184Y-121515051D01*
X123761588Y-121611557D01*
X123963757Y-121677246D01*
X124173713Y-121710500D01*
X124173714Y-121710500D01*
X124386286Y-121710500D01*
X124386287Y-121710500D01*
X124596243Y-121677246D01*
X124798412Y-121611557D01*
X124987816Y-121515051D01*
X125074138Y-121452335D01*
X125159786Y-121390109D01*
X125159788Y-121390106D01*
X125159792Y-121390104D01*
X125310104Y-121239792D01*
X125310106Y-121239788D01*
X125310109Y-121239786D01*
X125435048Y-121067820D01*
X125435047Y-121067820D01*
X125435051Y-121067816D01*
X125439514Y-121059054D01*
X125487488Y-121008259D01*
X125555308Y-120991463D01*
X125621444Y-121013999D01*
X125660486Y-121059056D01*
X125664951Y-121067820D01*
X125789890Y-121239786D01*
X125940213Y-121390109D01*
X126112179Y-121515048D01*
X126112181Y-121515049D01*
X126112184Y-121515051D01*
X126301588Y-121611557D01*
X126503757Y-121677246D01*
X126713713Y-121710500D01*
X126713714Y-121710500D01*
X126926286Y-121710500D01*
X126926287Y-121710500D01*
X127136243Y-121677246D01*
X127338412Y-121611557D01*
X127527816Y-121515051D01*
X127614138Y-121452335D01*
X127699786Y-121390109D01*
X127699788Y-121390106D01*
X127699792Y-121390104D01*
X127850104Y-121239792D01*
X127850106Y-121239788D01*
X127850109Y-121239786D01*
X127975048Y-121067820D01*
X127975047Y-121067820D01*
X127975051Y-121067816D01*
X127979514Y-121059054D01*
X128027488Y-121008259D01*
X128095308Y-120991463D01*
X128161444Y-121013999D01*
X128200486Y-121059056D01*
X128204951Y-121067820D01*
X128329890Y-121239786D01*
X128480213Y-121390109D01*
X128652179Y-121515048D01*
X128652181Y-121515049D01*
X128652184Y-121515051D01*
X128841588Y-121611557D01*
X129043757Y-121677246D01*
X129253713Y-121710500D01*
X129253714Y-121710500D01*
X129466286Y-121710500D01*
X129466287Y-121710500D01*
X129676243Y-121677246D01*
X129878412Y-121611557D01*
X130067816Y-121515051D01*
X130154138Y-121452335D01*
X130239786Y-121390109D01*
X130239788Y-121390106D01*
X130239792Y-121390104D01*
X130390104Y-121239792D01*
X130390106Y-121239788D01*
X130390109Y-121239786D01*
X130515048Y-121067820D01*
X130515047Y-121067820D01*
X130515051Y-121067816D01*
X130519514Y-121059054D01*
X130567488Y-121008259D01*
X130635308Y-120991463D01*
X130701444Y-121013999D01*
X130740486Y-121059056D01*
X130744951Y-121067820D01*
X130869890Y-121239786D01*
X131020213Y-121390109D01*
X131192179Y-121515048D01*
X131192181Y-121515049D01*
X131192184Y-121515051D01*
X131381588Y-121611557D01*
X131583757Y-121677246D01*
X131793713Y-121710500D01*
X131793714Y-121710500D01*
X132006286Y-121710500D01*
X132006287Y-121710500D01*
X132216243Y-121677246D01*
X132418412Y-121611557D01*
X132607816Y-121515051D01*
X132694138Y-121452335D01*
X132779786Y-121390109D01*
X132779788Y-121390106D01*
X132779792Y-121390104D01*
X132930104Y-121239792D01*
X132930106Y-121239788D01*
X132930109Y-121239786D01*
X133055048Y-121067820D01*
X133055047Y-121067820D01*
X133055051Y-121067816D01*
X133059514Y-121059054D01*
X133107488Y-121008259D01*
X133175308Y-120991463D01*
X133241444Y-121013999D01*
X133280486Y-121059056D01*
X133284951Y-121067820D01*
X133409890Y-121239786D01*
X133560213Y-121390109D01*
X133732179Y-121515048D01*
X133732181Y-121515049D01*
X133732184Y-121515051D01*
X133921588Y-121611557D01*
X134123757Y-121677246D01*
X134333713Y-121710500D01*
X134333714Y-121710500D01*
X134546286Y-121710500D01*
X134546287Y-121710500D01*
X134756243Y-121677246D01*
X134958412Y-121611557D01*
X135147816Y-121515051D01*
X135234138Y-121452335D01*
X135319786Y-121390109D01*
X135319788Y-121390106D01*
X135319792Y-121390104D01*
X135470104Y-121239792D01*
X135470106Y-121239788D01*
X135470109Y-121239786D01*
X135595048Y-121067820D01*
X135595047Y-121067820D01*
X135595051Y-121067816D01*
X135599514Y-121059054D01*
X135647488Y-121008259D01*
X135715308Y-120991463D01*
X135781444Y-121013999D01*
X135820486Y-121059056D01*
X135824951Y-121067820D01*
X135949890Y-121239786D01*
X136100213Y-121390109D01*
X136272179Y-121515048D01*
X136272181Y-121515049D01*
X136272184Y-121515051D01*
X136461588Y-121611557D01*
X136663757Y-121677246D01*
X136873713Y-121710500D01*
X136873714Y-121710500D01*
X137086286Y-121710500D01*
X137086287Y-121710500D01*
X137296243Y-121677246D01*
X137498412Y-121611557D01*
X137687816Y-121515051D01*
X137774138Y-121452335D01*
X137859786Y-121390109D01*
X137859788Y-121390106D01*
X137859792Y-121390104D01*
X138010104Y-121239792D01*
X138010106Y-121239788D01*
X138010109Y-121239786D01*
X138135048Y-121067820D01*
X138135047Y-121067820D01*
X138135051Y-121067816D01*
X138139514Y-121059054D01*
X138187488Y-121008259D01*
X138255308Y-120991463D01*
X138321444Y-121013999D01*
X138360486Y-121059056D01*
X138364951Y-121067820D01*
X138489890Y-121239786D01*
X138640213Y-121390109D01*
X138812179Y-121515048D01*
X138812181Y-121515049D01*
X138812184Y-121515051D01*
X139001588Y-121611557D01*
X139203757Y-121677246D01*
X139413713Y-121710500D01*
X139413714Y-121710500D01*
X139626286Y-121710500D01*
X139626287Y-121710500D01*
X139836243Y-121677246D01*
X140038412Y-121611557D01*
X140227816Y-121515051D01*
X140314138Y-121452335D01*
X140399786Y-121390109D01*
X140399788Y-121390106D01*
X140399792Y-121390104D01*
X140550104Y-121239792D01*
X140550106Y-121239788D01*
X140550109Y-121239786D01*
X140675048Y-121067820D01*
X140675047Y-121067820D01*
X140675051Y-121067816D01*
X140679514Y-121059054D01*
X140727488Y-121008259D01*
X140795308Y-120991463D01*
X140861444Y-121013999D01*
X140900486Y-121059056D01*
X140904951Y-121067820D01*
X141029890Y-121239786D01*
X141180213Y-121390109D01*
X141352179Y-121515048D01*
X141352181Y-121515049D01*
X141352184Y-121515051D01*
X141541588Y-121611557D01*
X141743757Y-121677246D01*
X141953713Y-121710500D01*
X141953714Y-121710500D01*
X142166286Y-121710500D01*
X142166287Y-121710500D01*
X142376243Y-121677246D01*
X142578412Y-121611557D01*
X142767816Y-121515051D01*
X142854138Y-121452335D01*
X142939786Y-121390109D01*
X142939788Y-121390106D01*
X142939792Y-121390104D01*
X143090104Y-121239792D01*
X143090106Y-121239788D01*
X143090109Y-121239786D01*
X143215048Y-121067820D01*
X143215047Y-121067820D01*
X143215051Y-121067816D01*
X143219514Y-121059054D01*
X143267488Y-121008259D01*
X143335308Y-120991463D01*
X143401444Y-121013999D01*
X143440486Y-121059056D01*
X143444951Y-121067820D01*
X143569890Y-121239786D01*
X143720213Y-121390109D01*
X143892179Y-121515048D01*
X143892181Y-121515049D01*
X143892184Y-121515051D01*
X144081588Y-121611557D01*
X144283757Y-121677246D01*
X144493713Y-121710500D01*
X144493714Y-121710500D01*
X144706286Y-121710500D01*
X144706287Y-121710500D01*
X144916243Y-121677246D01*
X145118412Y-121611557D01*
X145307816Y-121515051D01*
X145394138Y-121452335D01*
X145479786Y-121390109D01*
X145479788Y-121390106D01*
X145479792Y-121390104D01*
X145630104Y-121239792D01*
X145630106Y-121239788D01*
X145630109Y-121239786D01*
X145755048Y-121067820D01*
X145755047Y-121067820D01*
X145755051Y-121067816D01*
X145759514Y-121059054D01*
X145807488Y-121008259D01*
X145875308Y-120991463D01*
X145941444Y-121013999D01*
X145980486Y-121059056D01*
X145984951Y-121067820D01*
X146109890Y-121239786D01*
X146260213Y-121390109D01*
X146432179Y-121515048D01*
X146432181Y-121515049D01*
X146432184Y-121515051D01*
X146621588Y-121611557D01*
X146823757Y-121677246D01*
X147033713Y-121710500D01*
X147033714Y-121710500D01*
X147246286Y-121710500D01*
X147246287Y-121710500D01*
X147456243Y-121677246D01*
X147658412Y-121611557D01*
X147847816Y-121515051D01*
X147934138Y-121452335D01*
X148019786Y-121390109D01*
X148019788Y-121390106D01*
X148019792Y-121390104D01*
X148170104Y-121239792D01*
X148170106Y-121239788D01*
X148170109Y-121239786D01*
X148295048Y-121067820D01*
X148295047Y-121067820D01*
X148295051Y-121067816D01*
X148299514Y-121059054D01*
X148347488Y-121008259D01*
X148415308Y-120991463D01*
X148481444Y-121013999D01*
X148520486Y-121059056D01*
X148524951Y-121067820D01*
X148649890Y-121239786D01*
X148800213Y-121390109D01*
X148972179Y-121515048D01*
X148972181Y-121515049D01*
X148972184Y-121515051D01*
X149161588Y-121611557D01*
X149363757Y-121677246D01*
X149573713Y-121710500D01*
X149573714Y-121710500D01*
X149786286Y-121710500D01*
X149786287Y-121710500D01*
X149996243Y-121677246D01*
X150198412Y-121611557D01*
X150387816Y-121515051D01*
X150474138Y-121452335D01*
X150559786Y-121390109D01*
X150559788Y-121390106D01*
X150559792Y-121390104D01*
X150710104Y-121239792D01*
X150710106Y-121239788D01*
X150710109Y-121239786D01*
X150835048Y-121067820D01*
X150835047Y-121067820D01*
X150835051Y-121067816D01*
X150839514Y-121059054D01*
X150887488Y-121008259D01*
X150955308Y-120991463D01*
X151021444Y-121013999D01*
X151060486Y-121059056D01*
X151064951Y-121067820D01*
X151189890Y-121239786D01*
X151340213Y-121390109D01*
X151512179Y-121515048D01*
X151512181Y-121515049D01*
X151512184Y-121515051D01*
X151701588Y-121611557D01*
X151903757Y-121677246D01*
X152113713Y-121710500D01*
X152113714Y-121710500D01*
X152326286Y-121710500D01*
X152326287Y-121710500D01*
X152536243Y-121677246D01*
X152738412Y-121611557D01*
X152927816Y-121515051D01*
X153014138Y-121452335D01*
X153099786Y-121390109D01*
X153099788Y-121390106D01*
X153099792Y-121390104D01*
X153250104Y-121239792D01*
X153250106Y-121239788D01*
X153250109Y-121239786D01*
X153375048Y-121067820D01*
X153375047Y-121067820D01*
X153375051Y-121067816D01*
X153379514Y-121059054D01*
X153427488Y-121008259D01*
X153495308Y-120991463D01*
X153561444Y-121013999D01*
X153600486Y-121059056D01*
X153604951Y-121067820D01*
X153729890Y-121239786D01*
X153880213Y-121390109D01*
X154052179Y-121515048D01*
X154052181Y-121515049D01*
X154052184Y-121515051D01*
X154241588Y-121611557D01*
X154443757Y-121677246D01*
X154653713Y-121710500D01*
X154653714Y-121710500D01*
X154866286Y-121710500D01*
X154866287Y-121710500D01*
X155076243Y-121677246D01*
X155278412Y-121611557D01*
X155467816Y-121515051D01*
X155554138Y-121452335D01*
X155639786Y-121390109D01*
X155639788Y-121390106D01*
X155639792Y-121390104D01*
X155790104Y-121239792D01*
X155790106Y-121239788D01*
X155790109Y-121239786D01*
X155915048Y-121067820D01*
X155915047Y-121067820D01*
X155915051Y-121067816D01*
X155919514Y-121059054D01*
X155967488Y-121008259D01*
X156035308Y-120991463D01*
X156101444Y-121013999D01*
X156140486Y-121059056D01*
X156144951Y-121067820D01*
X156269890Y-121239786D01*
X156420213Y-121390109D01*
X156592179Y-121515048D01*
X156592181Y-121515049D01*
X156592184Y-121515051D01*
X156781588Y-121611557D01*
X156983757Y-121677246D01*
X157193713Y-121710500D01*
X157193714Y-121710500D01*
X157406286Y-121710500D01*
X157406287Y-121710500D01*
X157616243Y-121677246D01*
X157818412Y-121611557D01*
X158007816Y-121515051D01*
X158094138Y-121452335D01*
X158179786Y-121390109D01*
X158179788Y-121390106D01*
X158179792Y-121390104D01*
X158330104Y-121239792D01*
X158330106Y-121239788D01*
X158330109Y-121239786D01*
X158455048Y-121067820D01*
X158455047Y-121067820D01*
X158455051Y-121067816D01*
X158459514Y-121059054D01*
X158507488Y-121008259D01*
X158575308Y-120991463D01*
X158641444Y-121013999D01*
X158680486Y-121059056D01*
X158684951Y-121067820D01*
X158809890Y-121239786D01*
X158960213Y-121390109D01*
X159132179Y-121515048D01*
X159132181Y-121515049D01*
X159132184Y-121515051D01*
X159321588Y-121611557D01*
X159523757Y-121677246D01*
X159733713Y-121710500D01*
X159733714Y-121710500D01*
X159946286Y-121710500D01*
X159946287Y-121710500D01*
X160156243Y-121677246D01*
X160358412Y-121611557D01*
X160547816Y-121515051D01*
X160634138Y-121452335D01*
X160719786Y-121390109D01*
X160719788Y-121390106D01*
X160719792Y-121390104D01*
X160870104Y-121239792D01*
X160870106Y-121239788D01*
X160870109Y-121239786D01*
X160995048Y-121067820D01*
X160995047Y-121067820D01*
X160995051Y-121067816D01*
X160999514Y-121059054D01*
X161047488Y-121008259D01*
X161115308Y-120991463D01*
X161181444Y-121013999D01*
X161220486Y-121059056D01*
X161224951Y-121067820D01*
X161349890Y-121239786D01*
X161500213Y-121390109D01*
X161672179Y-121515048D01*
X161672181Y-121515049D01*
X161672184Y-121515051D01*
X161861588Y-121611557D01*
X162063757Y-121677246D01*
X162273713Y-121710500D01*
X162273714Y-121710500D01*
X162486286Y-121710500D01*
X162486287Y-121710500D01*
X162696243Y-121677246D01*
X162898412Y-121611557D01*
X163087816Y-121515051D01*
X163174138Y-121452335D01*
X163259786Y-121390109D01*
X163259788Y-121390106D01*
X163259792Y-121390104D01*
X163410104Y-121239792D01*
X163410106Y-121239788D01*
X163410109Y-121239786D01*
X163535048Y-121067820D01*
X163535047Y-121067820D01*
X163535051Y-121067816D01*
X163539514Y-121059054D01*
X163587488Y-121008259D01*
X163655308Y-120991463D01*
X163721444Y-121013999D01*
X163760486Y-121059056D01*
X163764951Y-121067820D01*
X163889890Y-121239786D01*
X164040213Y-121390109D01*
X164212179Y-121515048D01*
X164212181Y-121515049D01*
X164212184Y-121515051D01*
X164401588Y-121611557D01*
X164603757Y-121677246D01*
X164813713Y-121710500D01*
X164813714Y-121710500D01*
X165026286Y-121710500D01*
X165026287Y-121710500D01*
X165236243Y-121677246D01*
X165438412Y-121611557D01*
X165627816Y-121515051D01*
X165714138Y-121452335D01*
X165799786Y-121390109D01*
X165799788Y-121390106D01*
X165799792Y-121390104D01*
X165950104Y-121239792D01*
X165950106Y-121239788D01*
X165950109Y-121239786D01*
X166075048Y-121067820D01*
X166075047Y-121067820D01*
X166075051Y-121067816D01*
X166079514Y-121059054D01*
X166127488Y-121008259D01*
X166195308Y-120991463D01*
X166261444Y-121013999D01*
X166300486Y-121059056D01*
X166304951Y-121067820D01*
X166429890Y-121239786D01*
X166580213Y-121390109D01*
X166752179Y-121515048D01*
X166752181Y-121515049D01*
X166752184Y-121515051D01*
X166941588Y-121611557D01*
X167143757Y-121677246D01*
X167353713Y-121710500D01*
X167353714Y-121710500D01*
X167566286Y-121710500D01*
X167566287Y-121710500D01*
X167776243Y-121677246D01*
X167978412Y-121611557D01*
X168167816Y-121515051D01*
X168339792Y-121390104D01*
X168453329Y-121276566D01*
X168514648Y-121243084D01*
X168584340Y-121248068D01*
X168640274Y-121289939D01*
X168657189Y-121320917D01*
X168706202Y-121452328D01*
X168706206Y-121452335D01*
X168792452Y-121567544D01*
X168792455Y-121567547D01*
X168907664Y-121653793D01*
X168907671Y-121653797D01*
X169042517Y-121704091D01*
X169042516Y-121704091D01*
X169049444Y-121704835D01*
X169102127Y-121710500D01*
X170897872Y-121710499D01*
X170957483Y-121704091D01*
X171092331Y-121653796D01*
X171207546Y-121567546D01*
X171293796Y-121452331D01*
X171344091Y-121317483D01*
X171350500Y-121257873D01*
X171350499Y-119910097D01*
X171370184Y-119843059D01*
X171386818Y-119822417D01*
X171557056Y-119652179D01*
X171940520Y-119268716D01*
X172019577Y-119131785D01*
X172060501Y-118979057D01*
X172060501Y-118820942D01*
X172060501Y-118813347D01*
X172060500Y-118813329D01*
X172060500Y-117209059D01*
X172060501Y-117209046D01*
X172060501Y-117040945D01*
X172060501Y-117040943D01*
X172019577Y-116888215D01*
X171986708Y-116831284D01*
X171940520Y-116751284D01*
X171828716Y-116639480D01*
X171828715Y-116639479D01*
X171824385Y-116635149D01*
X171824374Y-116635139D01*
X171137590Y-115948355D01*
X171137588Y-115948352D01*
X171018717Y-115829481D01*
X171018709Y-115829475D01*
X170929923Y-115778215D01*
X170929922Y-115778215D01*
X170881785Y-115750423D01*
X170729057Y-115709499D01*
X170570943Y-115709499D01*
X170563347Y-115709499D01*
X170563331Y-115709500D01*
X169370097Y-115709500D01*
X169303058Y-115689815D01*
X169282416Y-115673181D01*
X168787590Y-115178355D01*
X168787588Y-115178352D01*
X168668717Y-115059481D01*
X168668709Y-115059475D01*
X168567918Y-115001284D01*
X168567916Y-115001283D01*
X168531790Y-114980425D01*
X168531789Y-114980424D01*
X168519263Y-114977067D01*
X168379057Y-114939499D01*
X168220943Y-114939499D01*
X168213347Y-114939499D01*
X168213331Y-114939500D01*
X167240097Y-114939500D01*
X167173058Y-114919815D01*
X167152416Y-114903181D01*
X166827590Y-114578355D01*
X166827588Y-114578352D01*
X166708717Y-114459481D01*
X166708716Y-114459480D01*
X166621904Y-114409360D01*
X166621904Y-114409359D01*
X166621900Y-114409358D01*
X166571785Y-114380423D01*
X166419057Y-114339499D01*
X166260943Y-114339499D01*
X166253347Y-114339499D01*
X166253331Y-114339500D01*
X165120097Y-114339500D01*
X165053058Y-114319815D01*
X165032416Y-114303181D01*
X164627590Y-113898355D01*
X164627588Y-113898352D01*
X164508717Y-113779481D01*
X164508716Y-113779480D01*
X164410023Y-113722500D01*
X164371785Y-113700423D01*
X164219057Y-113659499D01*
X164060943Y-113659499D01*
X164053347Y-113659499D01*
X164053331Y-113659500D01*
X163430098Y-113659500D01*
X163363059Y-113639815D01*
X163342417Y-113623181D01*
X162767590Y-113048355D01*
X162767588Y-113048352D01*
X162648717Y-112929481D01*
X162648716Y-112929480D01*
X162561904Y-112879360D01*
X162561904Y-112879359D01*
X162561900Y-112879358D01*
X162511785Y-112850423D01*
X162359057Y-112809499D01*
X162200943Y-112809499D01*
X162193347Y-112809499D01*
X162193331Y-112809500D01*
X160980097Y-112809500D01*
X160913058Y-112789815D01*
X160892416Y-112773181D01*
X160547590Y-112428355D01*
X160547588Y-112428352D01*
X160428717Y-112309481D01*
X160428709Y-112309475D01*
X160326560Y-112250500D01*
X160291788Y-112230424D01*
X160291787Y-112230423D01*
X160230693Y-112214053D01*
X160139057Y-112189499D01*
X159980943Y-112189499D01*
X159973347Y-112189499D01*
X159973331Y-112189500D01*
X158760098Y-112189500D01*
X158693059Y-112169815D01*
X158672417Y-112153181D01*
X158097590Y-111578355D01*
X158097588Y-111578352D01*
X157978717Y-111459481D01*
X157978709Y-111459475D01*
X157873470Y-111398716D01*
X157873469Y-111398715D01*
X157873469Y-111398716D01*
X157841785Y-111380423D01*
X157689057Y-111339499D01*
X157530943Y-111339499D01*
X157523347Y-111339499D01*
X157523331Y-111339500D01*
X156400097Y-111339500D01*
X156333058Y-111319815D01*
X156312416Y-111303181D01*
X155887590Y-110878355D01*
X155887588Y-110878352D01*
X155768717Y-110759481D01*
X155768709Y-110759475D01*
X155651465Y-110691785D01*
X155651465Y-110691784D01*
X155651460Y-110691783D01*
X155644594Y-110687818D01*
X155631786Y-110680423D01*
X155593603Y-110670192D01*
X155479057Y-110639499D01*
X155320943Y-110639499D01*
X155313347Y-110639499D01*
X155313331Y-110639500D01*
X154390098Y-110639500D01*
X154323059Y-110619815D01*
X154302417Y-110603181D01*
X153857590Y-110158355D01*
X153857588Y-110158352D01*
X153738717Y-110039481D01*
X153738709Y-110039475D01*
X153634795Y-109979481D01*
X153634794Y-109979480D01*
X153634794Y-109979481D01*
X153601785Y-109960423D01*
X153449057Y-109919499D01*
X153290943Y-109919499D01*
X153283347Y-109919499D01*
X153283331Y-109919500D01*
X151800097Y-109919500D01*
X151733058Y-109899815D01*
X151712416Y-109883181D01*
X151407590Y-109578355D01*
X151407588Y-109578352D01*
X151288717Y-109459481D01*
X151288716Y-109459480D01*
X151201904Y-109409360D01*
X151201904Y-109409359D01*
X151201900Y-109409358D01*
X151151785Y-109380423D01*
X150999054Y-109339498D01*
X150990997Y-109338438D01*
X150991365Y-109335642D01*
X150937461Y-109319814D01*
X150891706Y-109267010D01*
X150880500Y-109215499D01*
X150880500Y-108892286D01*
X150880499Y-108892272D01*
X150879750Y-108886586D01*
X150865687Y-108779764D01*
X150807698Y-108639767D01*
X150715451Y-108519549D01*
X150595233Y-108427302D01*
X150595229Y-108427300D01*
X150479998Y-108379570D01*
X150455236Y-108369313D01*
X150440698Y-108367399D01*
X150342727Y-108354500D01*
X150342720Y-108354500D01*
X150117280Y-108354500D01*
X150117272Y-108354500D01*
X150030393Y-108365938D01*
X150004764Y-108369313D01*
X150004762Y-108369313D01*
X149996708Y-108370374D01*
X149996316Y-108367399D01*
X149963684Y-108367399D01*
X149963292Y-108370374D01*
X149955237Y-108369313D01*
X149955236Y-108369313D01*
X149926271Y-108365499D01*
X149842727Y-108354500D01*
X149842720Y-108354500D01*
X149617280Y-108354500D01*
X149617272Y-108354500D01*
X149530393Y-108365938D01*
X149504764Y-108369313D01*
X149504762Y-108369313D01*
X149496708Y-108370374D01*
X149496316Y-108367399D01*
X149463684Y-108367399D01*
X149463292Y-108370374D01*
X149455237Y-108369313D01*
X149455236Y-108369313D01*
X149426271Y-108365499D01*
X149342727Y-108354500D01*
X149342720Y-108354500D01*
X149117280Y-108354500D01*
X149117272Y-108354500D01*
X149030393Y-108365938D01*
X149004764Y-108369313D01*
X149004762Y-108369313D01*
X148996708Y-108370374D01*
X148996316Y-108367399D01*
X148963684Y-108367399D01*
X148963292Y-108370374D01*
X148955237Y-108369313D01*
X148955236Y-108369313D01*
X148926271Y-108365499D01*
X148842727Y-108354500D01*
X148842720Y-108354500D01*
X148617280Y-108354500D01*
X148617272Y-108354500D01*
X148530393Y-108365938D01*
X148504764Y-108369313D01*
X148504762Y-108369313D01*
X148496708Y-108370374D01*
X148496316Y-108367399D01*
X148463684Y-108367399D01*
X148463292Y-108370374D01*
X148455237Y-108369313D01*
X148455236Y-108369313D01*
X148426271Y-108365499D01*
X148342727Y-108354500D01*
X148342720Y-108354500D01*
X148117280Y-108354500D01*
X148117272Y-108354500D01*
X148030393Y-108365938D01*
X148004764Y-108369313D01*
X148004762Y-108369313D01*
X147996708Y-108370374D01*
X147996316Y-108367399D01*
X147963684Y-108367399D01*
X147963292Y-108370374D01*
X147955237Y-108369313D01*
X147955236Y-108369313D01*
X147926271Y-108365499D01*
X147842727Y-108354500D01*
X147842720Y-108354500D01*
X147617280Y-108354500D01*
X147617272Y-108354500D01*
X147530393Y-108365938D01*
X147504764Y-108369313D01*
X147504762Y-108369313D01*
X147496708Y-108370374D01*
X147496316Y-108367399D01*
X147463684Y-108367399D01*
X147463292Y-108370374D01*
X147455237Y-108369313D01*
X147455236Y-108369313D01*
X147426271Y-108365499D01*
X147342727Y-108354500D01*
X147342720Y-108354500D01*
X147117280Y-108354500D01*
X147117272Y-108354500D01*
X147030393Y-108365938D01*
X147004764Y-108369313D01*
X147004762Y-108369313D01*
X146996708Y-108370374D01*
X146996316Y-108367399D01*
X146963684Y-108367399D01*
X146963292Y-108370374D01*
X146955237Y-108369313D01*
X146955236Y-108369313D01*
X146926271Y-108365499D01*
X146842727Y-108354500D01*
X146842720Y-108354500D01*
X146617280Y-108354500D01*
X146617272Y-108354500D01*
X146530393Y-108365938D01*
X146504764Y-108369313D01*
X146504762Y-108369313D01*
X146496708Y-108370374D01*
X146496316Y-108367399D01*
X146463684Y-108367399D01*
X146463292Y-108370374D01*
X146455237Y-108369313D01*
X146455236Y-108369313D01*
X146426271Y-108365499D01*
X146342727Y-108354500D01*
X146342720Y-108354500D01*
X146117280Y-108354500D01*
X146117272Y-108354500D01*
X146030393Y-108365938D01*
X146004764Y-108369313D01*
X146004762Y-108369313D01*
X145996708Y-108370374D01*
X145996316Y-108367399D01*
X145963684Y-108367399D01*
X145963292Y-108370374D01*
X145955237Y-108369313D01*
X145955236Y-108369313D01*
X145926271Y-108365499D01*
X145842727Y-108354500D01*
X145842720Y-108354500D01*
X145617280Y-108354500D01*
X145617272Y-108354500D01*
X145530393Y-108365938D01*
X145504764Y-108369313D01*
X145504762Y-108369313D01*
X145496708Y-108370374D01*
X145496316Y-108367399D01*
X145463684Y-108367399D01*
X145463292Y-108370374D01*
X145455237Y-108369313D01*
X145455236Y-108369313D01*
X145426271Y-108365499D01*
X145342727Y-108354500D01*
X145342720Y-108354500D01*
X145117280Y-108354500D01*
X145117272Y-108354500D01*
X145030393Y-108365938D01*
X145004764Y-108369313D01*
X145004762Y-108369313D01*
X144996708Y-108370374D01*
X144996316Y-108367399D01*
X144963684Y-108367399D01*
X144963292Y-108370374D01*
X144955237Y-108369313D01*
X144955236Y-108369313D01*
X144926271Y-108365499D01*
X144842727Y-108354500D01*
X144842720Y-108354500D01*
X144617280Y-108354500D01*
X144617272Y-108354500D01*
X144530393Y-108365938D01*
X144504764Y-108369313D01*
X144504762Y-108369313D01*
X144496708Y-108370374D01*
X144496316Y-108367399D01*
X144463684Y-108367399D01*
X144463292Y-108370374D01*
X144455237Y-108369313D01*
X144455236Y-108369313D01*
X144426271Y-108365499D01*
X144342727Y-108354500D01*
X144342720Y-108354500D01*
X144117280Y-108354500D01*
X144117272Y-108354500D01*
X144030393Y-108365938D01*
X144004764Y-108369313D01*
X144004762Y-108369313D01*
X143996708Y-108370374D01*
X143996316Y-108367399D01*
X143963684Y-108367399D01*
X143963292Y-108370374D01*
X143955237Y-108369313D01*
X143955236Y-108369313D01*
X143926271Y-108365499D01*
X143842727Y-108354500D01*
X143842720Y-108354500D01*
X143617280Y-108354500D01*
X143617272Y-108354500D01*
X143530393Y-108365938D01*
X143504764Y-108369313D01*
X143504762Y-108369313D01*
X143496708Y-108370374D01*
X143496316Y-108367399D01*
X143463684Y-108367399D01*
X143463292Y-108370374D01*
X143455237Y-108369313D01*
X143455236Y-108369313D01*
X143426271Y-108365499D01*
X143342727Y-108354500D01*
X143342720Y-108354500D01*
X143117280Y-108354500D01*
X143117272Y-108354500D01*
X143030393Y-108365938D01*
X143004764Y-108369313D01*
X143004762Y-108369313D01*
X142996708Y-108370374D01*
X142996316Y-108367399D01*
X142963684Y-108367399D01*
X142963292Y-108370374D01*
X142955237Y-108369313D01*
X142955236Y-108369313D01*
X142926271Y-108365499D01*
X142842727Y-108354500D01*
X142842720Y-108354500D01*
X142617280Y-108354500D01*
X142617272Y-108354500D01*
X142530393Y-108365938D01*
X142504764Y-108369313D01*
X142504762Y-108369313D01*
X142496708Y-108370374D01*
X142496316Y-108367399D01*
X142463684Y-108367399D01*
X142463292Y-108370374D01*
X142455237Y-108369313D01*
X142455236Y-108369313D01*
X142426271Y-108365499D01*
X142342727Y-108354500D01*
X142342720Y-108354500D01*
X142117280Y-108354500D01*
X142117272Y-108354500D01*
X142030393Y-108365938D01*
X142004764Y-108369313D01*
X142004762Y-108369313D01*
X141996708Y-108370374D01*
X141996316Y-108367399D01*
X141963684Y-108367399D01*
X141963292Y-108370374D01*
X141955237Y-108369313D01*
X141955236Y-108369313D01*
X141926271Y-108365499D01*
X141842727Y-108354500D01*
X141842720Y-108354500D01*
X141617280Y-108354500D01*
X141617272Y-108354500D01*
X141530393Y-108365938D01*
X141504764Y-108369313D01*
X141504762Y-108369313D01*
X141496708Y-108370374D01*
X141496316Y-108367399D01*
X141463684Y-108367399D01*
X141463292Y-108370374D01*
X141455237Y-108369313D01*
X141455236Y-108369313D01*
X141426271Y-108365499D01*
X141342727Y-108354500D01*
X141342720Y-108354500D01*
X141117280Y-108354500D01*
X141117272Y-108354500D01*
X141030393Y-108365938D01*
X141004764Y-108369313D01*
X141004762Y-108369313D01*
X140996708Y-108370374D01*
X140996316Y-108367399D01*
X140963684Y-108367399D01*
X140963292Y-108370374D01*
X140955237Y-108369313D01*
X140955236Y-108369313D01*
X140926271Y-108365499D01*
X140842727Y-108354500D01*
X140842720Y-108354500D01*
X140617280Y-108354500D01*
X140617272Y-108354500D01*
X140530393Y-108365938D01*
X140504764Y-108369313D01*
X140504762Y-108369313D01*
X140496708Y-108370374D01*
X140496316Y-108367399D01*
X140463684Y-108367399D01*
X140463292Y-108370374D01*
X140455237Y-108369313D01*
X140455236Y-108369313D01*
X140426271Y-108365499D01*
X140342727Y-108354500D01*
X140342720Y-108354500D01*
X140117280Y-108354500D01*
X140117272Y-108354500D01*
X140030393Y-108365938D01*
X140004764Y-108369313D01*
X140004762Y-108369313D01*
X139996708Y-108370374D01*
X139996316Y-108367399D01*
X139963684Y-108367399D01*
X139963292Y-108370374D01*
X139955237Y-108369313D01*
X139955236Y-108369313D01*
X139926271Y-108365499D01*
X139842727Y-108354500D01*
X139842720Y-108354500D01*
X139617280Y-108354500D01*
X139617272Y-108354500D01*
X139530393Y-108365938D01*
X139504764Y-108369313D01*
X139504762Y-108369313D01*
X139496708Y-108370374D01*
X139496316Y-108367399D01*
X139463684Y-108367399D01*
X139463292Y-108370374D01*
X139455237Y-108369313D01*
X139455236Y-108369313D01*
X139426271Y-108365499D01*
X139342727Y-108354500D01*
X139342720Y-108354500D01*
X139117280Y-108354500D01*
X139117272Y-108354500D01*
X139030393Y-108365938D01*
X139004764Y-108369313D01*
X139004762Y-108369313D01*
X138996708Y-108370374D01*
X138996316Y-108367399D01*
X138963684Y-108367399D01*
X138963292Y-108370374D01*
X138955237Y-108369313D01*
X138955236Y-108369313D01*
X138926271Y-108365499D01*
X138842727Y-108354500D01*
X138842720Y-108354500D01*
X138617280Y-108354500D01*
X138617272Y-108354500D01*
X138530393Y-108365938D01*
X138504764Y-108369313D01*
X138504762Y-108369313D01*
X138496708Y-108370374D01*
X138496316Y-108367399D01*
X138463684Y-108367399D01*
X138463292Y-108370374D01*
X138455237Y-108369313D01*
X138455236Y-108369313D01*
X138426271Y-108365499D01*
X138342727Y-108354500D01*
X138342720Y-108354500D01*
X138117280Y-108354500D01*
X138117272Y-108354500D01*
X138030393Y-108365938D01*
X138004764Y-108369313D01*
X138004762Y-108369313D01*
X137996708Y-108370374D01*
X137996316Y-108367399D01*
X137963684Y-108367399D01*
X137963292Y-108370374D01*
X137955237Y-108369313D01*
X137955236Y-108369313D01*
X137926271Y-108365499D01*
X137842727Y-108354500D01*
X137842720Y-108354500D01*
X137617280Y-108354500D01*
X137617272Y-108354500D01*
X137530393Y-108365938D01*
X137504764Y-108369313D01*
X137504762Y-108369313D01*
X137496708Y-108370374D01*
X137496316Y-108367399D01*
X137463684Y-108367399D01*
X137463292Y-108370374D01*
X137455237Y-108369313D01*
X137455236Y-108369313D01*
X137426271Y-108365499D01*
X137342727Y-108354500D01*
X137342720Y-108354500D01*
X137117280Y-108354500D01*
X137117272Y-108354500D01*
X137030393Y-108365938D01*
X137004764Y-108369313D01*
X137004762Y-108369313D01*
X136996708Y-108370374D01*
X136996316Y-108367399D01*
X136963684Y-108367399D01*
X136963292Y-108370374D01*
X136955237Y-108369313D01*
X136955236Y-108369313D01*
X136926271Y-108365499D01*
X136842727Y-108354500D01*
X136842720Y-108354500D01*
X136617280Y-108354500D01*
X136617272Y-108354500D01*
X136530393Y-108365938D01*
X136504764Y-108369313D01*
X136504762Y-108369313D01*
X136496708Y-108370374D01*
X136496316Y-108367399D01*
X136463684Y-108367399D01*
X136463292Y-108370374D01*
X136455237Y-108369313D01*
X136455236Y-108369313D01*
X136426271Y-108365499D01*
X136342727Y-108354500D01*
X136342720Y-108354500D01*
X136117280Y-108354500D01*
X136117272Y-108354500D01*
X136030393Y-108365938D01*
X136004764Y-108369313D01*
X136004762Y-108369313D01*
X135996708Y-108370374D01*
X135996316Y-108367399D01*
X135963684Y-108367399D01*
X135963292Y-108370374D01*
X135955237Y-108369313D01*
X135955236Y-108369313D01*
X135926271Y-108365499D01*
X135842727Y-108354500D01*
X135842720Y-108354500D01*
X135617280Y-108354500D01*
X135617272Y-108354500D01*
X135530393Y-108365938D01*
X135504764Y-108369313D01*
X135504762Y-108369313D01*
X135496708Y-108370374D01*
X135496316Y-108367399D01*
X135463684Y-108367399D01*
X135463292Y-108370374D01*
X135455237Y-108369313D01*
X135455236Y-108369313D01*
X135426271Y-108365499D01*
X135342727Y-108354500D01*
X135342720Y-108354500D01*
X135117280Y-108354500D01*
X135117272Y-108354500D01*
X135030393Y-108365938D01*
X135004764Y-108369313D01*
X135004762Y-108369313D01*
X134996708Y-108370374D01*
X134996316Y-108367399D01*
X134963684Y-108367399D01*
X134963292Y-108370374D01*
X134955237Y-108369313D01*
X134955236Y-108369313D01*
X134926271Y-108365499D01*
X134842727Y-108354500D01*
X134842720Y-108354500D01*
X134617280Y-108354500D01*
X134617272Y-108354500D01*
X134530393Y-108365938D01*
X134504764Y-108369313D01*
X134504762Y-108369313D01*
X134496708Y-108370374D01*
X134496316Y-108367399D01*
X134463684Y-108367399D01*
X134463292Y-108370374D01*
X134455237Y-108369313D01*
X134455236Y-108369313D01*
X134426271Y-108365499D01*
X134342727Y-108354500D01*
X134342720Y-108354500D01*
X134117280Y-108354500D01*
X134117272Y-108354500D01*
X134030393Y-108365938D01*
X134004764Y-108369313D01*
X134004762Y-108369313D01*
X133996708Y-108370374D01*
X133996316Y-108367399D01*
X133963684Y-108367399D01*
X133963292Y-108370374D01*
X133955237Y-108369313D01*
X133955236Y-108369313D01*
X133926271Y-108365499D01*
X133842727Y-108354500D01*
X133842720Y-108354500D01*
X133617280Y-108354500D01*
X133617272Y-108354500D01*
X133530393Y-108365938D01*
X133504764Y-108369313D01*
X133504762Y-108369313D01*
X133496708Y-108370374D01*
X133496316Y-108367399D01*
X133463684Y-108367399D01*
X133463292Y-108370374D01*
X133455237Y-108369313D01*
X133455236Y-108369313D01*
X133426271Y-108365499D01*
X133342727Y-108354500D01*
X133342720Y-108354500D01*
X133117280Y-108354500D01*
X133117272Y-108354500D01*
X133030393Y-108365938D01*
X133004764Y-108369313D01*
X133004762Y-108369313D01*
X132996708Y-108370374D01*
X132996316Y-108367399D01*
X132963684Y-108367399D01*
X132963292Y-108370374D01*
X132955237Y-108369313D01*
X132955236Y-108369313D01*
X132926271Y-108365499D01*
X132842727Y-108354500D01*
X132842720Y-108354500D01*
X132617280Y-108354500D01*
X132617272Y-108354500D01*
X132530393Y-108365938D01*
X132504764Y-108369313D01*
X132504762Y-108369313D01*
X132496708Y-108370374D01*
X132496316Y-108367399D01*
X132463684Y-108367399D01*
X132463292Y-108370374D01*
X132455237Y-108369313D01*
X132455236Y-108369313D01*
X132426271Y-108365499D01*
X132342727Y-108354500D01*
X132342720Y-108354500D01*
X132117280Y-108354500D01*
X132117272Y-108354500D01*
X132030393Y-108365938D01*
X132004764Y-108369313D01*
X132004762Y-108369313D01*
X131996708Y-108370374D01*
X131996316Y-108367399D01*
X131963684Y-108367399D01*
X131963292Y-108370374D01*
X131955237Y-108369313D01*
X131955236Y-108369313D01*
X131926271Y-108365499D01*
X131842727Y-108354500D01*
X131842720Y-108354500D01*
X131617280Y-108354500D01*
X131617272Y-108354500D01*
X131530393Y-108365938D01*
X131504764Y-108369313D01*
X131504762Y-108369313D01*
X131496708Y-108370374D01*
X131496316Y-108367399D01*
X131463684Y-108367399D01*
X131463292Y-108370374D01*
X131455237Y-108369313D01*
X131455236Y-108369313D01*
X131426271Y-108365499D01*
X131342727Y-108354500D01*
X131342720Y-108354500D01*
X131117280Y-108354500D01*
X131117272Y-108354500D01*
X131030393Y-108365938D01*
X131004764Y-108369313D01*
X131004762Y-108369313D01*
X130996708Y-108370374D01*
X130996316Y-108367399D01*
X130963684Y-108367399D01*
X130963292Y-108370374D01*
X130955237Y-108369313D01*
X130955236Y-108369313D01*
X130926271Y-108365499D01*
X130842727Y-108354500D01*
X130842720Y-108354500D01*
X130617280Y-108354500D01*
X130617272Y-108354500D01*
X130530393Y-108365938D01*
X130504764Y-108369313D01*
X130504762Y-108369313D01*
X130496708Y-108370374D01*
X130496316Y-108367399D01*
X130463684Y-108367399D01*
X130463292Y-108370374D01*
X130455237Y-108369313D01*
X130455236Y-108369313D01*
X130426271Y-108365499D01*
X130342727Y-108354500D01*
X130342720Y-108354500D01*
X130117280Y-108354500D01*
X130117272Y-108354500D01*
X130030393Y-108365938D01*
X130004764Y-108369313D01*
X130004762Y-108369313D01*
X129996708Y-108370374D01*
X129996316Y-108367399D01*
X129963684Y-108367399D01*
X129963292Y-108370374D01*
X129955237Y-108369313D01*
X129955236Y-108369313D01*
X129926271Y-108365499D01*
X129842727Y-108354500D01*
X129842720Y-108354500D01*
X129617280Y-108354500D01*
X129617272Y-108354500D01*
X129530393Y-108365938D01*
X129504764Y-108369313D01*
X129504762Y-108369313D01*
X129496708Y-108370374D01*
X129496316Y-108367399D01*
X129463684Y-108367399D01*
X129463292Y-108370374D01*
X129455237Y-108369313D01*
X129455236Y-108369313D01*
X129426271Y-108365499D01*
X129342727Y-108354500D01*
X129342720Y-108354500D01*
X129117280Y-108354500D01*
X129117272Y-108354500D01*
X129030393Y-108365938D01*
X129004764Y-108369313D01*
X129004762Y-108369313D01*
X128996708Y-108370374D01*
X128996316Y-108367399D01*
X128963684Y-108367399D01*
X128963292Y-108370374D01*
X128955237Y-108369313D01*
X128955236Y-108369313D01*
X128926271Y-108365499D01*
X128842727Y-108354500D01*
X128842720Y-108354500D01*
X128617280Y-108354500D01*
X128617272Y-108354500D01*
X128530393Y-108365938D01*
X128504764Y-108369313D01*
X128504762Y-108369313D01*
X128496708Y-108370374D01*
X128496316Y-108367399D01*
X128463684Y-108367399D01*
X128463292Y-108370374D01*
X128455237Y-108369313D01*
X128455236Y-108369313D01*
X128426271Y-108365499D01*
X128342727Y-108354500D01*
X128342720Y-108354500D01*
X128117280Y-108354500D01*
X128117272Y-108354500D01*
X128030393Y-108365938D01*
X128004764Y-108369313D01*
X128004762Y-108369313D01*
X127996708Y-108370374D01*
X127996316Y-108367399D01*
X127963684Y-108367399D01*
X127963292Y-108370374D01*
X127955237Y-108369313D01*
X127955236Y-108369313D01*
X127926271Y-108365499D01*
X127842727Y-108354500D01*
X127842720Y-108354500D01*
X127617280Y-108354500D01*
X127617272Y-108354500D01*
X127530393Y-108365938D01*
X127504764Y-108369313D01*
X127504762Y-108369313D01*
X127496708Y-108370374D01*
X127496316Y-108367399D01*
X127463684Y-108367399D01*
X127463292Y-108370374D01*
X127455237Y-108369313D01*
X127455236Y-108369313D01*
X127426271Y-108365499D01*
X127342727Y-108354500D01*
X127342720Y-108354500D01*
X127117280Y-108354500D01*
X127117272Y-108354500D01*
X127030393Y-108365938D01*
X127004764Y-108369313D01*
X127004762Y-108369313D01*
X126996708Y-108370374D01*
X126996316Y-108367399D01*
X126963684Y-108367399D01*
X126963292Y-108370374D01*
X126955237Y-108369313D01*
X126955236Y-108369313D01*
X126926271Y-108365499D01*
X126842727Y-108354500D01*
X126842720Y-108354500D01*
X126617280Y-108354500D01*
X126617272Y-108354500D01*
X126530393Y-108365938D01*
X126504764Y-108369313D01*
X126504762Y-108369313D01*
X126496708Y-108370374D01*
X126496316Y-108367399D01*
X126463684Y-108367399D01*
X126463292Y-108370374D01*
X126455237Y-108369313D01*
X126455236Y-108369313D01*
X126426271Y-108365499D01*
X126342727Y-108354500D01*
X126342720Y-108354500D01*
X126117280Y-108354500D01*
X126117272Y-108354500D01*
X126030393Y-108365938D01*
X126004764Y-108369313D01*
X126004762Y-108369313D01*
X125996708Y-108370374D01*
X125996316Y-108367399D01*
X125963684Y-108367399D01*
X125963292Y-108370374D01*
X125955237Y-108369313D01*
X125955236Y-108369313D01*
X125926271Y-108365499D01*
X125842727Y-108354500D01*
X125842720Y-108354500D01*
X125617280Y-108354500D01*
X125617272Y-108354500D01*
X125530393Y-108365938D01*
X125504764Y-108369313D01*
X125504762Y-108369313D01*
X125496708Y-108370374D01*
X125496316Y-108367399D01*
X125463684Y-108367399D01*
X125463292Y-108370374D01*
X125455237Y-108369313D01*
X125455236Y-108369313D01*
X125426271Y-108365499D01*
X125342727Y-108354500D01*
X125342720Y-108354500D01*
X125117280Y-108354500D01*
X125117272Y-108354500D01*
X125030393Y-108365938D01*
X125004764Y-108369313D01*
X125004762Y-108369313D01*
X124996708Y-108370374D01*
X124996316Y-108367399D01*
X124963684Y-108367399D01*
X124963292Y-108370374D01*
X124955237Y-108369313D01*
X124955236Y-108369313D01*
X124926271Y-108365499D01*
X124842727Y-108354500D01*
X124842720Y-108354500D01*
X124617280Y-108354500D01*
X124617272Y-108354500D01*
X124530393Y-108365938D01*
X124504764Y-108369313D01*
X124504762Y-108369313D01*
X124496708Y-108370374D01*
X124496316Y-108367399D01*
X124463684Y-108367399D01*
X124463292Y-108370374D01*
X124455237Y-108369313D01*
X124455236Y-108369313D01*
X124426271Y-108365499D01*
X124342727Y-108354500D01*
X124342720Y-108354500D01*
X124117280Y-108354500D01*
X124117272Y-108354500D01*
X124030393Y-108365938D01*
X124004764Y-108369313D01*
X124004762Y-108369313D01*
X123996708Y-108370374D01*
X123996316Y-108367399D01*
X123963684Y-108367399D01*
X123963292Y-108370374D01*
X123955237Y-108369313D01*
X123955236Y-108369313D01*
X123926271Y-108365499D01*
X123842727Y-108354500D01*
X123842720Y-108354500D01*
X123617280Y-108354500D01*
X123617272Y-108354500D01*
X123504764Y-108369313D01*
X123504763Y-108369313D01*
X123364770Y-108427300D01*
X123244549Y-108519549D01*
X123152300Y-108639770D01*
X123094313Y-108779763D01*
X123094313Y-108779764D01*
X123079500Y-108892272D01*
X123079500Y-108892280D01*
X123079500Y-109917720D01*
X123081238Y-109930921D01*
X123070470Y-109999956D01*
X123045979Y-110034784D01*
X122857582Y-110223182D01*
X122796262Y-110256666D01*
X122769903Y-110259500D01*
X120966670Y-110259500D01*
X120966654Y-110259499D01*
X120959058Y-110259499D01*
X120800943Y-110259499D01*
X120648215Y-110300423D01*
X120648213Y-110300423D01*
X120648213Y-110300424D01*
X120511281Y-110379482D01*
X119797584Y-111093181D01*
X119736261Y-111126666D01*
X119709903Y-111129500D01*
X118610941Y-111129500D01*
X118578417Y-111138214D01*
X118578418Y-111138215D01*
X118458214Y-111170423D01*
X118458209Y-111170426D01*
X118321290Y-111249475D01*
X118321282Y-111249481D01*
X118209478Y-111361286D01*
X117857584Y-111713181D01*
X117796261Y-111746666D01*
X117769903Y-111749500D01*
X116986670Y-111749500D01*
X116986654Y-111749499D01*
X116979058Y-111749499D01*
X116820943Y-111749499D01*
X116744579Y-111769961D01*
X116668214Y-111790423D01*
X116668209Y-111790426D01*
X116531290Y-111869475D01*
X116531282Y-111869481D01*
X115865584Y-112535181D01*
X115804261Y-112568666D01*
X115777903Y-112571500D01*
X114684670Y-112571500D01*
X114684654Y-112571499D01*
X114677058Y-112571499D01*
X114518943Y-112571499D01*
X114442579Y-112591961D01*
X114366214Y-112612423D01*
X114366209Y-112612426D01*
X114229290Y-112691475D01*
X114229282Y-112691481D01*
X113727584Y-113193181D01*
X113666261Y-113226666D01*
X113639903Y-113229500D01*
X112366669Y-113229500D01*
X112366653Y-113229499D01*
X112359057Y-113229499D01*
X112200943Y-113229499D01*
X112121010Y-113250917D01*
X112048216Y-113270422D01*
X112011709Y-113291500D01*
X112011708Y-113291499D01*
X111911287Y-113349477D01*
X111911282Y-113349481D01*
X111799480Y-113461284D01*
X111799478Y-113461286D01*
X111560342Y-113700423D01*
X111327584Y-113933181D01*
X111266261Y-113966666D01*
X111239903Y-113969500D01*
X110216670Y-113969500D01*
X110216654Y-113969499D01*
X110209058Y-113969499D01*
X110050943Y-113969499D01*
X109974579Y-113989961D01*
X109898214Y-114010423D01*
X109898209Y-114010426D01*
X109761290Y-114089475D01*
X109761282Y-114089481D01*
X109197584Y-114653181D01*
X109136261Y-114686666D01*
X109109903Y-114689500D01*
X108049057Y-114689500D01*
X107890943Y-114689500D01*
X107738215Y-114730423D01*
X107738214Y-114730423D01*
X107738212Y-114730424D01*
X107738209Y-114730425D01*
X107688096Y-114759359D01*
X107688095Y-114759360D01*
X107644689Y-114784420D01*
X107601285Y-114809479D01*
X107601282Y-114809481D01*
X107489478Y-114921286D01*
X107087584Y-115323181D01*
X107026261Y-115356666D01*
X106999903Y-115359500D01*
X105560941Y-115359500D01*
X105528417Y-115368214D01*
X105528418Y-115368215D01*
X105408214Y-115400423D01*
X105408209Y-115400426D01*
X105271290Y-115479475D01*
X105271282Y-115479481D01*
X105159478Y-115591286D01*
X104296546Y-116454217D01*
X104235223Y-116487702D01*
X104189467Y-116489009D01*
X104066292Y-116469500D01*
X104066287Y-116469500D01*
X103853713Y-116469500D01*
X103805042Y-116477208D01*
X103643760Y-116502753D01*
X103441585Y-116568444D01*
X103252179Y-116664951D01*
X103080213Y-116789890D01*
X102929890Y-116940213D01*
X102804951Y-117112179D01*
X102708444Y-117301585D01*
X102642753Y-117503760D01*
X102609500Y-117713713D01*
X101500500Y-117713713D01*
X101500500Y-103006961D01*
X101501280Y-102993077D01*
X101501280Y-102993076D01*
X101511460Y-102902729D01*
X101517635Y-102875670D01*
X101545353Y-102796456D01*
X101557396Y-102771450D01*
X101602046Y-102700389D01*
X101619351Y-102678690D01*
X101678690Y-102619351D01*
X101700389Y-102602046D01*
X101771450Y-102557396D01*
X101796456Y-102545353D01*
X101875670Y-102517635D01*
X101902733Y-102511459D01*
X101965419Y-102504396D01*
X101993079Y-102501280D01*
X102006962Y-102500500D01*
X102065892Y-102500500D01*
X171934108Y-102500500D01*
X171993038Y-102500500D01*
X172006922Y-102501280D01*
G37*
%TD.AperFunction*%
%TD*%
%TA.AperFunction,Conductor*%
%TO.N,Net-(J1-Pin_21)*%
G36*
X140130000Y-110105000D02*
G01*
X140330000Y-110105000D01*
X140374291Y-109908701D01*
X140230000Y-109404000D01*
X140085709Y-109908701D01*
X140130000Y-110105000D01*
G37*
%TD.AperFunction*%
%TD*%
%TA.AperFunction,Conductor*%
%TO.N,Net-(J1-Pin_22)*%
G36*
X139630000Y-110105000D02*
G01*
X139830000Y-110105000D01*
X139874291Y-109908701D01*
X139730000Y-109404000D01*
X139585709Y-109908701D01*
X139630000Y-110105000D01*
G37*
%TD.AperFunction*%
%TD*%
%TA.AperFunction,Conductor*%
%TO.N,Net-(J1-Pin_23)*%
G36*
X139130000Y-110105000D02*
G01*
X139330000Y-110105000D01*
X139374291Y-109908701D01*
X139230000Y-109404000D01*
X139085709Y-109908701D01*
X139130000Y-110105000D01*
G37*
%TD.AperFunction*%
%TD*%
%TA.AperFunction,Conductor*%
%TO.N,Net-(J1-Pin_14)*%
G36*
X143630000Y-110105000D02*
G01*
X143830000Y-110105000D01*
X143874291Y-109908701D01*
X143730000Y-109404000D01*
X143585709Y-109908701D01*
X143630000Y-110105000D01*
G37*
%TD.AperFunction*%
%TD*%
%TA.AperFunction,Conductor*%
%TO.N,Net-(J1-Pin_13)*%
G36*
X144240229Y-109440882D02*
G01*
X144241249Y-109443346D01*
X144373469Y-109905826D01*
X144373633Y-109911617D01*
X144332059Y-110095875D01*
X144326895Y-110103191D01*
X144320646Y-110105000D01*
X144139354Y-110105000D01*
X144131081Y-110101573D01*
X144127941Y-110095875D01*
X144086366Y-109911613D01*
X144086529Y-109905829D01*
X144218751Y-109443345D01*
X144224320Y-109436333D01*
X144233216Y-109435313D01*
X144240229Y-109440882D01*
G37*
%TD.AperFunction*%
%TD*%
M02*
