%TF.GenerationSoftware,KiCad,Pcbnew,9.0.5*%
%TF.CreationDate,2025-10-30T00:02:27+00:00*%
%TF.ProjectId,54PinTo60RibbonAdapterBoard,35345069-6e54-46f3-9630-526962626f6e,rev?*%
%TF.SameCoordinates,Original*%
%TF.FileFunction,Legend,Top*%
%TF.FilePolarity,Positive*%
%FSLAX46Y46*%
G04 Gerber Fmt 4.6, Leading zero omitted, Abs format (unit mm)*
G04 Created by KiCad (PCBNEW 9.0.5) date 2025-10-30 00:02:27*
%MOMM*%
%LPD*%
G01*
G04 APERTURE LIST*
G04 Aperture macros list*
%AMRoundRect*
0 Rectangle with rounded corners*
0 $1 Rounding radius*
0 $2 $3 $4 $5 $6 $7 $8 $9 X,Y pos of 4 corners*
0 Add a 4 corners polygon primitive as box body*
4,1,4,$2,$3,$4,$5,$6,$7,$8,$9,$2,$3,0*
0 Add four circle primitives for the rounded corners*
1,1,$1+$1,$2,$3*
1,1,$1+$1,$4,$5*
1,1,$1+$1,$6,$7*
1,1,$1+$1,$8,$9*
0 Add four rect primitives between the rounded corners*
20,1,$1+$1,$2,$3,$4,$5,0*
20,1,$1+$1,$4,$5,$6,$7,0*
20,1,$1+$1,$6,$7,$8,$9,0*
20,1,$1+$1,$8,$9,$2,$3,0*%
%AMFreePoly0*
4,1,5,1.100000,-1.170000,-0.550000,-1.170000,-0.550000,1.050000,1.100000,1.050000,1.100000,-1.170000,1.100000,-1.170000,$1*%
%AMFreePoly1*
4,1,5,0.669707,-1.510000,-3.980000,-1.510000,-3.980000,0.690000,0.670258,0.690000,0.669707,-1.510000,0.669707,-1.510000,$1*%
G04 Aperture macros list end*
%ADD10C,0.150000*%
%ADD11C,1.700000*%
%ADD12R,1.700000X1.700000*%
%ADD13RoundRect,0.075000X0.075000X0.475000X-0.075000X0.475000X-0.075000X-0.475000X0.075000X-0.475000X0*%
%ADD14FreePoly0,180.000000*%
%ADD15FreePoly1,180.000000*%
G04 APERTURE END LIST*
D10*
X120047618Y-112299819D02*
X119571428Y-112299819D01*
X119571428Y-112299819D02*
X119523809Y-112776009D01*
X119523809Y-112776009D02*
X119571428Y-112728390D01*
X119571428Y-112728390D02*
X119666666Y-112680771D01*
X119666666Y-112680771D02*
X119904761Y-112680771D01*
X119904761Y-112680771D02*
X119999999Y-112728390D01*
X119999999Y-112728390D02*
X120047618Y-112776009D01*
X120047618Y-112776009D02*
X120095237Y-112871247D01*
X120095237Y-112871247D02*
X120095237Y-113109342D01*
X120095237Y-113109342D02*
X120047618Y-113204580D01*
X120047618Y-113204580D02*
X119999999Y-113252200D01*
X119999999Y-113252200D02*
X119904761Y-113299819D01*
X119904761Y-113299819D02*
X119666666Y-113299819D01*
X119666666Y-113299819D02*
X119571428Y-113252200D01*
X119571428Y-113252200D02*
X119523809Y-113204580D01*
X120952380Y-112633152D02*
X120952380Y-113299819D01*
X120714285Y-112252200D02*
X120476190Y-112966485D01*
X120476190Y-112966485D02*
X121095237Y-112966485D01*
X121380952Y-113299819D02*
X121904761Y-112633152D01*
X121380952Y-112633152D02*
X121904761Y-113299819D01*
X123000000Y-112395057D02*
X123047619Y-112347438D01*
X123047619Y-112347438D02*
X123142857Y-112299819D01*
X123142857Y-112299819D02*
X123380952Y-112299819D01*
X123380952Y-112299819D02*
X123476190Y-112347438D01*
X123476190Y-112347438D02*
X123523809Y-112395057D01*
X123523809Y-112395057D02*
X123571428Y-112490295D01*
X123571428Y-112490295D02*
X123571428Y-112585533D01*
X123571428Y-112585533D02*
X123523809Y-112728390D01*
X123523809Y-112728390D02*
X122952381Y-113299819D01*
X122952381Y-113299819D02*
X123571428Y-113299819D01*
X124000000Y-113204580D02*
X124047619Y-113252200D01*
X124047619Y-113252200D02*
X124000000Y-113299819D01*
X124000000Y-113299819D02*
X123952381Y-113252200D01*
X123952381Y-113252200D02*
X124000000Y-113204580D01*
X124000000Y-113204580D02*
X124000000Y-113299819D01*
X124952380Y-112299819D02*
X124476190Y-112299819D01*
X124476190Y-112299819D02*
X124428571Y-112776009D01*
X124428571Y-112776009D02*
X124476190Y-112728390D01*
X124476190Y-112728390D02*
X124571428Y-112680771D01*
X124571428Y-112680771D02*
X124809523Y-112680771D01*
X124809523Y-112680771D02*
X124904761Y-112728390D01*
X124904761Y-112728390D02*
X124952380Y-112776009D01*
X124952380Y-112776009D02*
X124999999Y-112871247D01*
X124999999Y-112871247D02*
X124999999Y-113109342D01*
X124999999Y-113109342D02*
X124952380Y-113204580D01*
X124952380Y-113204580D02*
X124904761Y-113252200D01*
X124904761Y-113252200D02*
X124809523Y-113299819D01*
X124809523Y-113299819D02*
X124571428Y-113299819D01*
X124571428Y-113299819D02*
X124476190Y-113252200D01*
X124476190Y-113252200D02*
X124428571Y-113204580D01*
X125857142Y-112633152D02*
X125857142Y-113299819D01*
X125619047Y-112252200D02*
X125380952Y-112966485D01*
X125380952Y-112966485D02*
X125999999Y-112966485D01*
X126380952Y-113299819D02*
X126380952Y-112633152D01*
X126380952Y-112728390D02*
X126428571Y-112680771D01*
X126428571Y-112680771D02*
X126523809Y-112633152D01*
X126523809Y-112633152D02*
X126666666Y-112633152D01*
X126666666Y-112633152D02*
X126761904Y-112680771D01*
X126761904Y-112680771D02*
X126809523Y-112776009D01*
X126809523Y-112776009D02*
X126809523Y-113299819D01*
X126809523Y-112776009D02*
X126857142Y-112680771D01*
X126857142Y-112680771D02*
X126952380Y-112633152D01*
X126952380Y-112633152D02*
X127095237Y-112633152D01*
X127095237Y-112633152D02*
X127190476Y-112680771D01*
X127190476Y-112680771D02*
X127238095Y-112776009D01*
X127238095Y-112776009D02*
X127238095Y-113299819D01*
X127714285Y-113299819D02*
X127714285Y-112633152D01*
X127714285Y-112728390D02*
X127761904Y-112680771D01*
X127761904Y-112680771D02*
X127857142Y-112633152D01*
X127857142Y-112633152D02*
X127999999Y-112633152D01*
X127999999Y-112633152D02*
X128095237Y-112680771D01*
X128095237Y-112680771D02*
X128142856Y-112776009D01*
X128142856Y-112776009D02*
X128142856Y-113299819D01*
X128142856Y-112776009D02*
X128190475Y-112680771D01*
X128190475Y-112680771D02*
X128285713Y-112633152D01*
X128285713Y-112633152D02*
X128428570Y-112633152D01*
X128428570Y-112633152D02*
X128523809Y-112680771D01*
X128523809Y-112680771D02*
X128571428Y-112776009D01*
X128571428Y-112776009D02*
X128571428Y-113299819D01*
X129666666Y-112299819D02*
X130238094Y-112299819D01*
X129952380Y-113299819D02*
X129952380Y-112299819D01*
X130714285Y-113299819D02*
X130619047Y-113252200D01*
X130619047Y-113252200D02*
X130571428Y-113204580D01*
X130571428Y-113204580D02*
X130523809Y-113109342D01*
X130523809Y-113109342D02*
X130523809Y-112823628D01*
X130523809Y-112823628D02*
X130571428Y-112728390D01*
X130571428Y-112728390D02*
X130619047Y-112680771D01*
X130619047Y-112680771D02*
X130714285Y-112633152D01*
X130714285Y-112633152D02*
X130857142Y-112633152D01*
X130857142Y-112633152D02*
X130952380Y-112680771D01*
X130952380Y-112680771D02*
X130999999Y-112728390D01*
X130999999Y-112728390D02*
X131047618Y-112823628D01*
X131047618Y-112823628D02*
X131047618Y-113109342D01*
X131047618Y-113109342D02*
X130999999Y-113204580D01*
X130999999Y-113204580D02*
X130952380Y-113252200D01*
X130952380Y-113252200D02*
X130857142Y-113299819D01*
X130857142Y-113299819D02*
X130714285Y-113299819D01*
X132714285Y-112299819D02*
X132238095Y-112299819D01*
X132238095Y-112299819D02*
X132190476Y-112776009D01*
X132190476Y-112776009D02*
X132238095Y-112728390D01*
X132238095Y-112728390D02*
X132333333Y-112680771D01*
X132333333Y-112680771D02*
X132571428Y-112680771D01*
X132571428Y-112680771D02*
X132666666Y-112728390D01*
X132666666Y-112728390D02*
X132714285Y-112776009D01*
X132714285Y-112776009D02*
X132761904Y-112871247D01*
X132761904Y-112871247D02*
X132761904Y-113109342D01*
X132761904Y-113109342D02*
X132714285Y-113204580D01*
X132714285Y-113204580D02*
X132666666Y-113252200D01*
X132666666Y-113252200D02*
X132571428Y-113299819D01*
X132571428Y-113299819D02*
X132333333Y-113299819D01*
X132333333Y-113299819D02*
X132238095Y-113252200D01*
X132238095Y-113252200D02*
X132190476Y-113204580D01*
X133619047Y-112633152D02*
X133619047Y-113299819D01*
X133380952Y-112252200D02*
X133142857Y-112966485D01*
X133142857Y-112966485D02*
X133761904Y-112966485D01*
X134047619Y-113299819D02*
X134571428Y-112633152D01*
X134047619Y-112633152D02*
X134571428Y-113299819D01*
X135857143Y-113299819D02*
X135761905Y-113252200D01*
X135761905Y-113252200D02*
X135714286Y-113204580D01*
X135714286Y-113204580D02*
X135666667Y-113109342D01*
X135666667Y-113109342D02*
X135666667Y-112823628D01*
X135666667Y-112823628D02*
X135714286Y-112728390D01*
X135714286Y-112728390D02*
X135761905Y-112680771D01*
X135761905Y-112680771D02*
X135857143Y-112633152D01*
X135857143Y-112633152D02*
X136000000Y-112633152D01*
X136000000Y-112633152D02*
X136095238Y-112680771D01*
X136095238Y-112680771D02*
X136142857Y-112728390D01*
X136142857Y-112728390D02*
X136190476Y-112823628D01*
X136190476Y-112823628D02*
X136190476Y-113109342D01*
X136190476Y-113109342D02*
X136142857Y-113204580D01*
X136142857Y-113204580D02*
X136095238Y-113252200D01*
X136095238Y-113252200D02*
X136000000Y-113299819D01*
X136000000Y-113299819D02*
X135857143Y-113299819D01*
X136619048Y-113299819D02*
X136619048Y-112633152D01*
X136619048Y-112823628D02*
X136666667Y-112728390D01*
X136666667Y-112728390D02*
X136714286Y-112680771D01*
X136714286Y-112680771D02*
X136809524Y-112633152D01*
X136809524Y-112633152D02*
X136904762Y-112633152D01*
X138428572Y-112299819D02*
X138238096Y-112299819D01*
X138238096Y-112299819D02*
X138142858Y-112347438D01*
X138142858Y-112347438D02*
X138095239Y-112395057D01*
X138095239Y-112395057D02*
X138000001Y-112537914D01*
X138000001Y-112537914D02*
X137952382Y-112728390D01*
X137952382Y-112728390D02*
X137952382Y-113109342D01*
X137952382Y-113109342D02*
X138000001Y-113204580D01*
X138000001Y-113204580D02*
X138047620Y-113252200D01*
X138047620Y-113252200D02*
X138142858Y-113299819D01*
X138142858Y-113299819D02*
X138333334Y-113299819D01*
X138333334Y-113299819D02*
X138428572Y-113252200D01*
X138428572Y-113252200D02*
X138476191Y-113204580D01*
X138476191Y-113204580D02*
X138523810Y-113109342D01*
X138523810Y-113109342D02*
X138523810Y-112871247D01*
X138523810Y-112871247D02*
X138476191Y-112776009D01*
X138476191Y-112776009D02*
X138428572Y-112728390D01*
X138428572Y-112728390D02*
X138333334Y-112680771D01*
X138333334Y-112680771D02*
X138142858Y-112680771D01*
X138142858Y-112680771D02*
X138047620Y-112728390D01*
X138047620Y-112728390D02*
X138000001Y-112776009D01*
X138000001Y-112776009D02*
X137952382Y-112871247D01*
X139142858Y-112299819D02*
X139238096Y-112299819D01*
X139238096Y-112299819D02*
X139333334Y-112347438D01*
X139333334Y-112347438D02*
X139380953Y-112395057D01*
X139380953Y-112395057D02*
X139428572Y-112490295D01*
X139428572Y-112490295D02*
X139476191Y-112680771D01*
X139476191Y-112680771D02*
X139476191Y-112918866D01*
X139476191Y-112918866D02*
X139428572Y-113109342D01*
X139428572Y-113109342D02*
X139380953Y-113204580D01*
X139380953Y-113204580D02*
X139333334Y-113252200D01*
X139333334Y-113252200D02*
X139238096Y-113299819D01*
X139238096Y-113299819D02*
X139142858Y-113299819D01*
X139142858Y-113299819D02*
X139047620Y-113252200D01*
X139047620Y-113252200D02*
X139000001Y-113204580D01*
X139000001Y-113204580D02*
X138952382Y-113109342D01*
X138952382Y-113109342D02*
X138904763Y-112918866D01*
X138904763Y-112918866D02*
X138904763Y-112680771D01*
X138904763Y-112680771D02*
X138952382Y-112490295D01*
X138952382Y-112490295D02*
X139000001Y-112395057D01*
X139000001Y-112395057D02*
X139047620Y-112347438D01*
X139047620Y-112347438D02*
X139142858Y-112299819D01*
X139809525Y-113299819D02*
X140333334Y-112633152D01*
X139809525Y-112633152D02*
X140333334Y-113299819D01*
X141666668Y-112299819D02*
X141761906Y-112299819D01*
X141761906Y-112299819D02*
X141857144Y-112347438D01*
X141857144Y-112347438D02*
X141904763Y-112395057D01*
X141904763Y-112395057D02*
X141952382Y-112490295D01*
X141952382Y-112490295D02*
X142000001Y-112680771D01*
X142000001Y-112680771D02*
X142000001Y-112918866D01*
X142000001Y-112918866D02*
X141952382Y-113109342D01*
X141952382Y-113109342D02*
X141904763Y-113204580D01*
X141904763Y-113204580D02*
X141857144Y-113252200D01*
X141857144Y-113252200D02*
X141761906Y-113299819D01*
X141761906Y-113299819D02*
X141666668Y-113299819D01*
X141666668Y-113299819D02*
X141571430Y-113252200D01*
X141571430Y-113252200D02*
X141523811Y-113204580D01*
X141523811Y-113204580D02*
X141476192Y-113109342D01*
X141476192Y-113109342D02*
X141428573Y-112918866D01*
X141428573Y-112918866D02*
X141428573Y-112680771D01*
X141428573Y-112680771D02*
X141476192Y-112490295D01*
X141476192Y-112490295D02*
X141523811Y-112395057D01*
X141523811Y-112395057D02*
X141571430Y-112347438D01*
X141571430Y-112347438D02*
X141666668Y-112299819D01*
X142428573Y-113204580D02*
X142476192Y-113252200D01*
X142476192Y-113252200D02*
X142428573Y-113299819D01*
X142428573Y-113299819D02*
X142380954Y-113252200D01*
X142380954Y-113252200D02*
X142428573Y-113204580D01*
X142428573Y-113204580D02*
X142428573Y-113299819D01*
X143380953Y-112299819D02*
X142904763Y-112299819D01*
X142904763Y-112299819D02*
X142857144Y-112776009D01*
X142857144Y-112776009D02*
X142904763Y-112728390D01*
X142904763Y-112728390D02*
X143000001Y-112680771D01*
X143000001Y-112680771D02*
X143238096Y-112680771D01*
X143238096Y-112680771D02*
X143333334Y-112728390D01*
X143333334Y-112728390D02*
X143380953Y-112776009D01*
X143380953Y-112776009D02*
X143428572Y-112871247D01*
X143428572Y-112871247D02*
X143428572Y-113109342D01*
X143428572Y-113109342D02*
X143380953Y-113204580D01*
X143380953Y-113204580D02*
X143333334Y-113252200D01*
X143333334Y-113252200D02*
X143238096Y-113299819D01*
X143238096Y-113299819D02*
X143000001Y-113299819D01*
X143000001Y-113299819D02*
X142904763Y-113252200D01*
X142904763Y-113252200D02*
X142857144Y-113204580D01*
X143857144Y-113299819D02*
X143857144Y-112633152D01*
X143857144Y-112728390D02*
X143904763Y-112680771D01*
X143904763Y-112680771D02*
X144000001Y-112633152D01*
X144000001Y-112633152D02*
X144142858Y-112633152D01*
X144142858Y-112633152D02*
X144238096Y-112680771D01*
X144238096Y-112680771D02*
X144285715Y-112776009D01*
X144285715Y-112776009D02*
X144285715Y-113299819D01*
X144285715Y-112776009D02*
X144333334Y-112680771D01*
X144333334Y-112680771D02*
X144428572Y-112633152D01*
X144428572Y-112633152D02*
X144571429Y-112633152D01*
X144571429Y-112633152D02*
X144666668Y-112680771D01*
X144666668Y-112680771D02*
X144714287Y-112776009D01*
X144714287Y-112776009D02*
X144714287Y-113299819D01*
X145190477Y-113299819D02*
X145190477Y-112633152D01*
X145190477Y-112728390D02*
X145238096Y-112680771D01*
X145238096Y-112680771D02*
X145333334Y-112633152D01*
X145333334Y-112633152D02*
X145476191Y-112633152D01*
X145476191Y-112633152D02*
X145571429Y-112680771D01*
X145571429Y-112680771D02*
X145619048Y-112776009D01*
X145619048Y-112776009D02*
X145619048Y-113299819D01*
X145619048Y-112776009D02*
X145666667Y-112680771D01*
X145666667Y-112680771D02*
X145761905Y-112633152D01*
X145761905Y-112633152D02*
X145904762Y-112633152D01*
X145904762Y-112633152D02*
X146000001Y-112680771D01*
X146000001Y-112680771D02*
X146047620Y-112776009D01*
X146047620Y-112776009D02*
X146047620Y-113299819D01*
X147619048Y-112776009D02*
X147285715Y-112776009D01*
X147285715Y-113299819D02*
X147285715Y-112299819D01*
X147285715Y-112299819D02*
X147761905Y-112299819D01*
X148142858Y-113299819D02*
X148142858Y-112299819D01*
X148142858Y-112299819D02*
X148523810Y-112299819D01*
X148523810Y-112299819D02*
X148619048Y-112347438D01*
X148619048Y-112347438D02*
X148666667Y-112395057D01*
X148666667Y-112395057D02*
X148714286Y-112490295D01*
X148714286Y-112490295D02*
X148714286Y-112633152D01*
X148714286Y-112633152D02*
X148666667Y-112728390D01*
X148666667Y-112728390D02*
X148619048Y-112776009D01*
X148619048Y-112776009D02*
X148523810Y-112823628D01*
X148523810Y-112823628D02*
X148142858Y-112823628D01*
X149714286Y-113204580D02*
X149666667Y-113252200D01*
X149666667Y-113252200D02*
X149523810Y-113299819D01*
X149523810Y-113299819D02*
X149428572Y-113299819D01*
X149428572Y-113299819D02*
X149285715Y-113252200D01*
X149285715Y-113252200D02*
X149190477Y-113156961D01*
X149190477Y-113156961D02*
X149142858Y-113061723D01*
X149142858Y-113061723D02*
X149095239Y-112871247D01*
X149095239Y-112871247D02*
X149095239Y-112728390D01*
X149095239Y-112728390D02*
X149142858Y-112537914D01*
X149142858Y-112537914D02*
X149190477Y-112442676D01*
X149190477Y-112442676D02*
X149285715Y-112347438D01*
X149285715Y-112347438D02*
X149428572Y-112299819D01*
X149428572Y-112299819D02*
X149523810Y-112299819D01*
X149523810Y-112299819D02*
X149666667Y-112347438D01*
X149666667Y-112347438D02*
X149714286Y-112395057D01*
X103802969Y-115129819D02*
X103326779Y-115129819D01*
X103326779Y-115129819D02*
X103279160Y-115606009D01*
X103279160Y-115606009D02*
X103326779Y-115558390D01*
X103326779Y-115558390D02*
X103422017Y-115510771D01*
X103422017Y-115510771D02*
X103660112Y-115510771D01*
X103660112Y-115510771D02*
X103755350Y-115558390D01*
X103755350Y-115558390D02*
X103802969Y-115606009D01*
X103802969Y-115606009D02*
X103850588Y-115701247D01*
X103850588Y-115701247D02*
X103850588Y-115939342D01*
X103850588Y-115939342D02*
X103802969Y-116034580D01*
X103802969Y-116034580D02*
X103755350Y-116082200D01*
X103755350Y-116082200D02*
X103660112Y-116129819D01*
X103660112Y-116129819D02*
X103422017Y-116129819D01*
X103422017Y-116129819D02*
X103326779Y-116082200D01*
X103326779Y-116082200D02*
X103279160Y-116034580D01*
X104707731Y-115463152D02*
X104707731Y-116129819D01*
X104469636Y-115082200D02*
X104231541Y-115796485D01*
X104231541Y-115796485D02*
X104850588Y-115796485D01*
X172330588Y-120679819D02*
X171759160Y-120679819D01*
X172044874Y-120679819D02*
X172044874Y-119679819D01*
X172044874Y-119679819D02*
X171949636Y-119822676D01*
X171949636Y-119822676D02*
X171854398Y-119917914D01*
X171854398Y-119917914D02*
X171759160Y-119965533D01*
X152170588Y-109949819D02*
X151599160Y-109949819D01*
X151884874Y-109949819D02*
X151884874Y-108949819D01*
X151884874Y-108949819D02*
X151789636Y-109092676D01*
X151789636Y-109092676D02*
X151694398Y-109187914D01*
X151694398Y-109187914D02*
X151599160Y-109235533D01*
X119035350Y-108959819D02*
X118844874Y-108959819D01*
X118844874Y-108959819D02*
X118749636Y-109007438D01*
X118749636Y-109007438D02*
X118702017Y-109055057D01*
X118702017Y-109055057D02*
X118606779Y-109197914D01*
X118606779Y-109197914D02*
X118559160Y-109388390D01*
X118559160Y-109388390D02*
X118559160Y-109769342D01*
X118559160Y-109769342D02*
X118606779Y-109864580D01*
X118606779Y-109864580D02*
X118654398Y-109912200D01*
X118654398Y-109912200D02*
X118749636Y-109959819D01*
X118749636Y-109959819D02*
X118940112Y-109959819D01*
X118940112Y-109959819D02*
X119035350Y-109912200D01*
X119035350Y-109912200D02*
X119082969Y-109864580D01*
X119082969Y-109864580D02*
X119130588Y-109769342D01*
X119130588Y-109769342D02*
X119130588Y-109531247D01*
X119130588Y-109531247D02*
X119082969Y-109436009D01*
X119082969Y-109436009D02*
X119035350Y-109388390D01*
X119035350Y-109388390D02*
X118940112Y-109340771D01*
X118940112Y-109340771D02*
X118749636Y-109340771D01*
X118749636Y-109340771D02*
X118654398Y-109388390D01*
X118654398Y-109388390D02*
X118606779Y-109436009D01*
X118606779Y-109436009D02*
X118559160Y-109531247D01*
X119749636Y-108959819D02*
X119844874Y-108959819D01*
X119844874Y-108959819D02*
X119940112Y-109007438D01*
X119940112Y-109007438D02*
X119987731Y-109055057D01*
X119987731Y-109055057D02*
X120035350Y-109150295D01*
X120035350Y-109150295D02*
X120082969Y-109340771D01*
X120082969Y-109340771D02*
X120082969Y-109578866D01*
X120082969Y-109578866D02*
X120035350Y-109769342D01*
X120035350Y-109769342D02*
X119987731Y-109864580D01*
X119987731Y-109864580D02*
X119940112Y-109912200D01*
X119940112Y-109912200D02*
X119844874Y-109959819D01*
X119844874Y-109959819D02*
X119749636Y-109959819D01*
X119749636Y-109959819D02*
X119654398Y-109912200D01*
X119654398Y-109912200D02*
X119606779Y-109864580D01*
X119606779Y-109864580D02*
X119559160Y-109769342D01*
X119559160Y-109769342D02*
X119511541Y-109578866D01*
X119511541Y-109578866D02*
X119511541Y-109340771D01*
X119511541Y-109340771D02*
X119559160Y-109150295D01*
X119559160Y-109150295D02*
X119606779Y-109055057D01*
X119606779Y-109055057D02*
X119654398Y-109007438D01*
X119654398Y-109007438D02*
X119749636Y-108959819D01*
%TO.C,J2*%
X117780000Y-102045000D02*
X153180000Y-102045000D01*
X117780000Y-108305000D02*
X117780000Y-102045000D01*
X120325000Y-108305000D02*
X117780000Y-108305000D01*
X153180000Y-102045000D02*
X153180000Y-108305000D01*
X153180000Y-108305000D02*
X151640000Y-108305000D01*
X120809994Y-109085000D02*
X120650000Y-109085000D01*
X120650000Y-108125000D01*
X120809994Y-108125000D01*
X120809994Y-109085000D01*
G36*
X120809994Y-109085000D02*
G01*
X120650000Y-109085000D01*
X120650000Y-108125000D01*
X120809994Y-108125000D01*
X120809994Y-109085000D01*
G37*
X121309997Y-109085000D02*
X121150003Y-109085000D01*
X121150003Y-108125000D01*
X121309997Y-108125000D01*
X121309997Y-109085000D01*
G36*
X121309997Y-109085000D02*
G01*
X121150003Y-109085000D01*
X121150003Y-108125000D01*
X121309997Y-108125000D01*
X121309997Y-109085000D01*
G37*
X121809994Y-109085000D02*
X121650000Y-109085000D01*
X121650000Y-108125000D01*
X121809994Y-108125000D01*
X121809994Y-109085000D01*
G36*
X121809994Y-109085000D02*
G01*
X121650000Y-109085000D01*
X121650000Y-108125000D01*
X121809994Y-108125000D01*
X121809994Y-109085000D01*
G37*
X122309994Y-109085000D02*
X122150000Y-109085000D01*
X122150000Y-108125000D01*
X122309994Y-108125000D01*
X122309994Y-109085000D01*
G36*
X122309994Y-109085000D02*
G01*
X122150000Y-109085000D01*
X122150000Y-108125000D01*
X122309994Y-108125000D01*
X122309994Y-109085000D01*
G37*
X122809994Y-109085000D02*
X122650000Y-109085000D01*
X122650000Y-108125000D01*
X122809994Y-108125000D01*
X122809994Y-109085000D01*
G36*
X122809994Y-109085000D02*
G01*
X122650000Y-109085000D01*
X122650000Y-108125000D01*
X122809994Y-108125000D01*
X122809994Y-109085000D01*
G37*
X123309994Y-109085000D02*
X123150000Y-109085000D01*
X123150000Y-108125000D01*
X123309994Y-108125000D01*
X123309994Y-109085000D01*
G36*
X123309994Y-109085000D02*
G01*
X123150000Y-109085000D01*
X123150000Y-108125000D01*
X123309994Y-108125000D01*
X123309994Y-109085000D01*
G37*
X151030000Y-108545000D02*
X150700000Y-108305000D01*
X151030000Y-108065000D01*
X151030000Y-108545000D01*
G36*
X151030000Y-108545000D02*
G01*
X150700000Y-108305000D01*
X151030000Y-108065000D01*
X151030000Y-108545000D01*
G37*
%TD*%
%LPC*%
D11*
%TO.C,J1*%
X103960000Y-117820000D03*
X103960000Y-120360000D03*
X106500000Y-117820000D03*
X106500000Y-120360000D03*
X109040000Y-117820000D03*
X109040000Y-120360000D03*
X111580000Y-117820000D03*
X111580000Y-120360000D03*
X114120000Y-117820000D03*
X114120000Y-120360000D03*
X116660000Y-117820000D03*
X116660000Y-120360000D03*
X119200000Y-117820000D03*
X119200000Y-120360000D03*
X121740000Y-117820000D03*
X121740000Y-120360000D03*
X124280000Y-117820000D03*
X124280000Y-120360000D03*
X126820000Y-117820000D03*
X126820000Y-120360000D03*
X129360000Y-117820000D03*
X129360000Y-120360000D03*
X131900000Y-117820000D03*
X131900000Y-120360000D03*
X134440000Y-117820000D03*
X134440000Y-120360000D03*
X136980000Y-117820000D03*
X136980000Y-120360000D03*
X139520000Y-117820000D03*
X139520000Y-120360000D03*
X142060000Y-117820000D03*
X142060000Y-120360000D03*
X144600000Y-117820000D03*
X144600000Y-120360000D03*
X147140000Y-117820000D03*
X147140000Y-120360000D03*
X149680000Y-117820000D03*
X149680000Y-120360000D03*
X152220000Y-117820000D03*
X152220000Y-120360000D03*
X154760000Y-117820000D03*
X154760000Y-120360000D03*
X157300000Y-117820000D03*
X157300000Y-120360000D03*
X159840000Y-117820000D03*
X159840000Y-120360000D03*
X162380000Y-117820000D03*
X162380000Y-120360000D03*
X164920000Y-117820000D03*
X164920000Y-120360000D03*
X167460000Y-117820000D03*
X167460000Y-120360000D03*
X170000000Y-117820000D03*
D12*
X170000000Y-120360000D03*
%TD*%
D13*
%TO.C,J2*%
X150230000Y-108605000D03*
X149730000Y-108605000D03*
X149230000Y-108605000D03*
X148730000Y-108605000D03*
X148230000Y-108605000D03*
X147730000Y-108605000D03*
X147230000Y-108605000D03*
X146730000Y-108605000D03*
X146230000Y-108605000D03*
X145730000Y-108605000D03*
X145230000Y-108605000D03*
X144730000Y-108605000D03*
X144230000Y-108605000D03*
X143730000Y-108605000D03*
X143230000Y-108605000D03*
X142730000Y-108605000D03*
X142230000Y-108605000D03*
X141730000Y-108605000D03*
X141230000Y-108605000D03*
X140730000Y-108605000D03*
X140230000Y-108605000D03*
X139730000Y-108605000D03*
X139230000Y-108605000D03*
X138730000Y-108605000D03*
X138230000Y-108605000D03*
X137730000Y-108605000D03*
X137230000Y-108605000D03*
X136730000Y-108605000D03*
X136230000Y-108605000D03*
X135730000Y-108605000D03*
X135230000Y-108605000D03*
X134730000Y-108605000D03*
X134230000Y-108605000D03*
X133730000Y-108605000D03*
X133230000Y-108605000D03*
X132730000Y-108605000D03*
X132230000Y-108605000D03*
X131730000Y-108605000D03*
X131230000Y-108605000D03*
X130730000Y-108605000D03*
X130230000Y-108605000D03*
X129730000Y-108605000D03*
X129230000Y-108605000D03*
X128730000Y-108605000D03*
X128230000Y-108605000D03*
X127730000Y-108605000D03*
X127230000Y-108605000D03*
X126730000Y-108605000D03*
X126230000Y-108605000D03*
X125730000Y-108605000D03*
X125230000Y-108605000D03*
X124730000Y-108605000D03*
X124230000Y-108605000D03*
X123730000Y-108605000D03*
D14*
X152080000Y-105495000D03*
D15*
X119000000Y-105865000D03*
%TD*%
%LPD*%
M02*
