%TF.GenerationSoftware,KiCad,Pcbnew,9.0.5*%
%TF.CreationDate,2025-10-30T00:02:27+00:00*%
%TF.ProjectId,54PinTo60RibbonAdapterBoard,35345069-6e54-46f3-9630-526962626f6e,rev?*%
%TF.SameCoordinates,Original*%
%TF.FileFunction,Copper,L1,Top*%
%TF.FilePolarity,Positive*%
%FSLAX46Y46*%
G04 Gerber Fmt 4.6, Leading zero omitted, Abs format (unit mm)*
G04 Created by KiCad (PCBNEW 9.0.5) date 2025-10-30 00:02:27*
%MOMM*%
%LPD*%
G01*
G04 APERTURE LIST*
G04 Aperture macros list*
%AMRoundRect*
0 Rectangle with rounded corners*
0 $1 Rounding radius*
0 $2 $3 $4 $5 $6 $7 $8 $9 X,Y pos of 4 corners*
0 Add a 4 corners polygon primitive as box body*
4,1,4,$2,$3,$4,$5,$6,$7,$8,$9,$2,$3,0*
0 Add four circle primitives for the rounded corners*
1,1,$1+$1,$2,$3*
1,1,$1+$1,$4,$5*
1,1,$1+$1,$6,$7*
1,1,$1+$1,$8,$9*
0 Add four rect primitives between the rounded corners*
20,1,$1+$1,$2,$3,$4,$5,0*
20,1,$1+$1,$4,$5,$6,$7,0*
20,1,$1+$1,$6,$7,$8,$9,0*
20,1,$1+$1,$8,$9,$2,$3,0*%
%AMFreePoly0*
4,1,5,1.100000,-1.170000,-0.550000,-1.170000,-0.550000,1.050000,1.100000,1.050000,1.100000,-1.170000,1.100000,-1.170000,$1*%
%AMFreePoly1*
4,1,5,0.669707,-1.510000,-3.980000,-1.510000,-3.980000,0.690000,0.670258,0.690000,0.669707,-1.510000,0.669707,-1.510000,$1*%
G04 Aperture macros list end*
%TA.AperFunction,ComponentPad*%
%ADD10C,1.700000*%
%TD*%
%TA.AperFunction,ComponentPad*%
%ADD11R,1.700000X1.700000*%
%TD*%
%TA.AperFunction,SMDPad,CuDef*%
%ADD12RoundRect,0.075000X0.075000X0.475000X-0.075000X0.475000X-0.075000X-0.475000X0.075000X-0.475000X0*%
%TD*%
%TA.AperFunction,SMDPad,CuDef*%
%ADD13FreePoly0,180.000000*%
%TD*%
%TA.AperFunction,SMDPad,CuDef*%
%ADD14FreePoly1,180.000000*%
%TD*%
%TA.AperFunction,ViaPad*%
%ADD15C,2.000000*%
%TD*%
%TA.AperFunction,Conductor*%
%ADD16C,0.200000*%
%TD*%
G04 APERTURE END LIST*
D10*
%TO.P,J1,54,Pin_54*%
%TO.N,Net-(J1-Pin_54)*%
X103960000Y-117820000D03*
%TO.P,J1,53,Pin_53*%
%TO.N,Net-(J1-Pin_53)*%
X103960000Y-120360000D03*
%TO.P,J1,52,Pin_52*%
%TO.N,Net-(J1-Pin_52)*%
X106500000Y-117820000D03*
%TO.P,J1,51,Pin_51*%
%TO.N,Net-(J1-Pin_51)*%
X106500000Y-120360000D03*
%TO.P,J1,50,Pin_50*%
%TO.N,Net-(J1-Pin_50)*%
X109040000Y-117820000D03*
%TO.P,J1,49,Pin_49*%
%TO.N,Net-(J1-Pin_49)*%
X109040000Y-120360000D03*
%TO.P,J1,48,Pin_48*%
%TO.N,Net-(J1-Pin_48)*%
X111580000Y-117820000D03*
%TO.P,J1,47,Pin_47*%
%TO.N,Net-(J1-Pin_47)*%
X111580000Y-120360000D03*
%TO.P,J1,46,Pin_46*%
%TO.N,Net-(J1-Pin_46)*%
X114120000Y-117820000D03*
%TO.P,J1,45,Pin_45*%
%TO.N,Net-(J1-Pin_45)*%
X114120000Y-120360000D03*
%TO.P,J1,44,Pin_44*%
%TO.N,Net-(J1-Pin_44)*%
X116660000Y-117820000D03*
%TO.P,J1,43,Pin_43*%
%TO.N,Net-(J1-Pin_43)*%
X116660000Y-120360000D03*
%TO.P,J1,42,Pin_42*%
%TO.N,Net-(J1-Pin_42)*%
X119200000Y-117820000D03*
%TO.P,J1,41,Pin_41*%
%TO.N,Net-(J1-Pin_41)*%
X119200000Y-120360000D03*
%TO.P,J1,40,Pin_40*%
%TO.N,Net-(J1-Pin_40)*%
X121740000Y-117820000D03*
%TO.P,J1,39,Pin_39*%
%TO.N,Net-(J1-Pin_39)*%
X121740000Y-120360000D03*
%TO.P,J1,38,Pin_38*%
%TO.N,Net-(J1-Pin_38)*%
X124280000Y-117820000D03*
%TO.P,J1,37,Pin_37*%
%TO.N,Net-(J1-Pin_37)*%
X124280000Y-120360000D03*
%TO.P,J1,36,Pin_36*%
%TO.N,Net-(J1-Pin_36)*%
X126820000Y-117820000D03*
%TO.P,J1,35,Pin_35*%
%TO.N,Net-(J1-Pin_35)*%
X126820000Y-120360000D03*
%TO.P,J1,34,Pin_34*%
%TO.N,Net-(J1-Pin_34)*%
X129360000Y-117820000D03*
%TO.P,J1,33,Pin_33*%
%TO.N,Net-(J1-Pin_33)*%
X129360000Y-120360000D03*
%TO.P,J1,32,Pin_32*%
%TO.N,Net-(J1-Pin_32)*%
X131900000Y-117820000D03*
%TO.P,J1,31,Pin_31*%
%TO.N,Net-(J1-Pin_31)*%
X131900000Y-120360000D03*
%TO.P,J1,30,Pin_30*%
%TO.N,Net-(J1-Pin_30)*%
X134440000Y-117820000D03*
%TO.P,J1,29,Pin_29*%
%TO.N,Net-(J1-Pin_29)*%
X134440000Y-120360000D03*
%TO.P,J1,28,Pin_28*%
%TO.N,Net-(J1-Pin_28)*%
X136980000Y-117820000D03*
%TO.P,J1,27,Pin_27*%
%TO.N,Net-(J1-Pin_27)*%
X136980000Y-120360000D03*
%TO.P,J1,26,Pin_26*%
%TO.N,Net-(J1-Pin_26)*%
X139520000Y-117820000D03*
%TO.P,J1,25,Pin_25*%
%TO.N,Net-(J1-Pin_25)*%
X139520000Y-120360000D03*
%TO.P,J1,24,Pin_24*%
%TO.N,Net-(J1-Pin_24)*%
X142060000Y-117820000D03*
%TO.P,J1,23,Pin_23*%
%TO.N,Net-(J1-Pin_23)*%
X142060000Y-120360000D03*
%TO.P,J1,22,Pin_22*%
%TO.N,Net-(J1-Pin_22)*%
X144600000Y-117820000D03*
%TO.P,J1,21,Pin_21*%
%TO.N,Net-(J1-Pin_21)*%
X144600000Y-120360000D03*
%TO.P,J1,20,Pin_20*%
%TO.N,Net-(J1-Pin_20)*%
X147140000Y-117820000D03*
%TO.P,J1,19,Pin_19*%
%TO.N,Net-(J1-Pin_19)*%
X147140000Y-120360000D03*
%TO.P,J1,18,Pin_18*%
%TO.N,Net-(J1-Pin_18)*%
X149680000Y-117820000D03*
%TO.P,J1,17,Pin_17*%
%TO.N,Net-(J1-Pin_17)*%
X149680000Y-120360000D03*
%TO.P,J1,16,Pin_16*%
%TO.N,Net-(J1-Pin_16)*%
X152220000Y-117820000D03*
%TO.P,J1,15,Pin_15*%
%TO.N,Net-(J1-Pin_15)*%
X152220000Y-120360000D03*
%TO.P,J1,14,Pin_14*%
%TO.N,Net-(J1-Pin_14)*%
X154760000Y-117820000D03*
%TO.P,J1,13,Pin_13*%
%TO.N,Net-(J1-Pin_13)*%
X154760000Y-120360000D03*
%TO.P,J1,12,Pin_12*%
%TO.N,Net-(J1-Pin_12)*%
X157300000Y-117820000D03*
%TO.P,J1,11,Pin_11*%
%TO.N,Net-(J1-Pin_11)*%
X157300000Y-120360000D03*
%TO.P,J1,10,Pin_10*%
%TO.N,Net-(J1-Pin_10)*%
X159840000Y-117820000D03*
%TO.P,J1,9,Pin_9*%
%TO.N,Net-(J1-Pin_9)*%
X159840000Y-120360000D03*
%TO.P,J1,8,Pin_8*%
%TO.N,Net-(J1-Pin_8)*%
X162380000Y-117820000D03*
%TO.P,J1,7,Pin_7*%
%TO.N,Net-(J1-Pin_7)*%
X162380000Y-120360000D03*
%TO.P,J1,6,Pin_6*%
%TO.N,Net-(J1-Pin_6)*%
X164920000Y-117820000D03*
%TO.P,J1,5,Pin_5*%
%TO.N,Net-(J1-Pin_5)*%
X164920000Y-120360000D03*
%TO.P,J1,4,Pin_4*%
%TO.N,Net-(J1-Pin_4)*%
X167460000Y-117820000D03*
%TO.P,J1,3,Pin_3*%
%TO.N,Net-(J1-Pin_3)*%
X167460000Y-120360000D03*
%TO.P,J1,2,Pin_2*%
%TO.N,Net-(J1-Pin_2)*%
X170000000Y-117820000D03*
D11*
%TO.P,J1,1,Pin_1*%
%TO.N,Net-(J1-Pin_1)*%
X170000000Y-120360000D03*
%TD*%
D12*
%TO.P,J2,1,Pin_1*%
%TO.N,Net-(J1-Pin_1)*%
X150230000Y-108605000D03*
%TO.P,J2,2,Pin_2*%
%TO.N,Net-(J1-Pin_2)*%
X149730000Y-108605000D03*
%TO.P,J2,3,Pin_3*%
%TO.N,Net-(J1-Pin_3)*%
X149230000Y-108605000D03*
%TO.P,J2,4,Pin_4*%
%TO.N,Net-(J1-Pin_4)*%
X148730000Y-108605000D03*
%TO.P,J2,5,Pin_5*%
%TO.N,Net-(J1-Pin_5)*%
X148230000Y-108605000D03*
%TO.P,J2,6,Pin_6*%
%TO.N,Net-(J1-Pin_6)*%
X147730000Y-108605000D03*
%TO.P,J2,7,Pin_7*%
%TO.N,Net-(J1-Pin_7)*%
X147230000Y-108605000D03*
%TO.P,J2,8,Pin_8*%
%TO.N,Net-(J1-Pin_8)*%
X146730000Y-108605000D03*
%TO.P,J2,9,Pin_9*%
%TO.N,Net-(J1-Pin_9)*%
X146230000Y-108605000D03*
%TO.P,J2,10,Pin_10*%
%TO.N,Net-(J1-Pin_10)*%
X145730000Y-108605000D03*
%TO.P,J2,11,Pin_11*%
%TO.N,Net-(J1-Pin_11)*%
X145230000Y-108605000D03*
%TO.P,J2,12,Pin_12*%
%TO.N,Net-(J1-Pin_12)*%
X144730000Y-108605000D03*
%TO.P,J2,13,Pin_13*%
%TO.N,Net-(J1-Pin_13)*%
X144230000Y-108605000D03*
%TO.P,J2,14,Pin_14*%
%TO.N,Net-(J1-Pin_14)*%
X143730000Y-108605000D03*
%TO.P,J2,15,Pin_15*%
%TO.N,Net-(J1-Pin_15)*%
X143230000Y-108605000D03*
%TO.P,J2,16,Pin_16*%
%TO.N,Net-(J1-Pin_16)*%
X142730000Y-108605000D03*
%TO.P,J2,17,Pin_17*%
%TO.N,Net-(J1-Pin_17)*%
X142230000Y-108605000D03*
%TO.P,J2,18,Pin_18*%
%TO.N,Net-(J1-Pin_18)*%
X141730000Y-108605000D03*
%TO.P,J2,19,Pin_19*%
%TO.N,Net-(J1-Pin_19)*%
X141230000Y-108605000D03*
%TO.P,J2,20,Pin_20*%
%TO.N,Net-(J1-Pin_20)*%
X140730000Y-108605000D03*
%TO.P,J2,21,Pin_21*%
%TO.N,Net-(J1-Pin_21)*%
X140230000Y-108605000D03*
%TO.P,J2,22,Pin_22*%
%TO.N,Net-(J1-Pin_22)*%
X139730000Y-108605000D03*
%TO.P,J2,23,Pin_23*%
%TO.N,Net-(J1-Pin_23)*%
X139230000Y-108605000D03*
%TO.P,J2,24,Pin_24*%
%TO.N,Net-(J1-Pin_24)*%
X138730000Y-108605000D03*
%TO.P,J2,25,Pin_25*%
%TO.N,Net-(J1-Pin_25)*%
X138230000Y-108605000D03*
%TO.P,J2,26,Pin_26*%
%TO.N,Net-(J1-Pin_26)*%
X137730000Y-108605000D03*
%TO.P,J2,27,Pin_27*%
%TO.N,Net-(J1-Pin_27)*%
X137230000Y-108605000D03*
%TO.P,J2,28,Pin_28*%
%TO.N,Net-(J1-Pin_28)*%
X136730000Y-108605000D03*
%TO.P,J2,29,Pin_29*%
%TO.N,Net-(J1-Pin_29)*%
X136230000Y-108605000D03*
%TO.P,J2,30,Pin_30*%
%TO.N,Net-(J1-Pin_30)*%
X135730000Y-108605000D03*
%TO.P,J2,31,Pin_31*%
%TO.N,Net-(J1-Pin_31)*%
X135230000Y-108605000D03*
%TO.P,J2,32,Pin_32*%
%TO.N,Net-(J1-Pin_32)*%
X134730000Y-108605000D03*
%TO.P,J2,33,Pin_33*%
%TO.N,Net-(J1-Pin_33)*%
X134230000Y-108605000D03*
%TO.P,J2,34,Pin_34*%
%TO.N,Net-(J1-Pin_34)*%
X133730000Y-108605000D03*
%TO.P,J2,35,Pin_35*%
%TO.N,Net-(J1-Pin_35)*%
X133230000Y-108605000D03*
%TO.P,J2,36,Pin_36*%
%TO.N,Net-(J1-Pin_36)*%
X132730000Y-108605000D03*
%TO.P,J2,37,Pin_37*%
%TO.N,Net-(J1-Pin_37)*%
X132230000Y-108605000D03*
%TO.P,J2,38,Pin_38*%
%TO.N,Net-(J1-Pin_38)*%
X131730000Y-108605000D03*
%TO.P,J2,39,Pin_39*%
%TO.N,Net-(J1-Pin_39)*%
X131230000Y-108605000D03*
%TO.P,J2,40,Pin_40*%
%TO.N,Net-(J1-Pin_40)*%
X130730000Y-108605000D03*
%TO.P,J2,41,Pin_41*%
%TO.N,Net-(J1-Pin_41)*%
X130230000Y-108605000D03*
%TO.P,J2,42,Pin_42*%
%TO.N,Net-(J1-Pin_42)*%
X129730000Y-108605000D03*
%TO.P,J2,43,Pin_43*%
%TO.N,Net-(J1-Pin_43)*%
X129230000Y-108605000D03*
%TO.P,J2,44,Pin_44*%
%TO.N,Net-(J1-Pin_44)*%
X128730000Y-108605000D03*
%TO.P,J2,45,Pin_45*%
%TO.N,Net-(J1-Pin_45)*%
X128230000Y-108605000D03*
%TO.P,J2,46,Pin_46*%
%TO.N,Net-(J1-Pin_46)*%
X127730000Y-108605000D03*
%TO.P,J2,47,Pin_47*%
%TO.N,Net-(J1-Pin_47)*%
X127230000Y-108605000D03*
%TO.P,J2,48,Pin_48*%
%TO.N,Net-(J1-Pin_48)*%
X126730000Y-108605000D03*
%TO.P,J2,49,Pin_49*%
%TO.N,Net-(J1-Pin_49)*%
X126230000Y-108605000D03*
%TO.P,J2,50,Pin_50*%
%TO.N,Net-(J1-Pin_50)*%
X125730000Y-108605000D03*
%TO.P,J2,51,Pin_51*%
%TO.N,Net-(J1-Pin_51)*%
X125230000Y-108605000D03*
%TO.P,J2,52,Pin_52*%
%TO.N,Net-(J1-Pin_52)*%
X124730000Y-108605000D03*
%TO.P,J2,53,Pin_53*%
%TO.N,Net-(J1-Pin_53)*%
X124230000Y-108605000D03*
%TO.P,J2,54,Pin_54*%
%TO.N,Net-(J1-Pin_54)*%
X123730000Y-108605000D03*
D13*
%TO.P,J2,MP,MountPin*%
%TO.N,GND*%
X152080000Y-105495000D03*
D14*
X119000000Y-105865000D03*
%TD*%
D15*
%TO.N,GND*%
X169000000Y-104000000D03*
X105000000Y-104000000D03*
X169000000Y-110000000D03*
X105000000Y-110000000D03*
%TD*%
D16*
%TO.N,Net-(J1-Pin_39)*%
X123000000Y-118230000D02*
X123000000Y-117430000D01*
X121740000Y-120380000D02*
X121740000Y-119490000D01*
X121740000Y-119490000D02*
X123000000Y-118230000D01*
X123000000Y-117430000D02*
X131230000Y-109200000D01*
X131230000Y-109200000D02*
X131230000Y-108590000D01*
%TO.N,Net-(J1-Pin_54)*%
X104140000Y-117460000D02*
X111810000Y-109790000D01*
X123150000Y-109790000D02*
X123730000Y-109210000D01*
X111810000Y-109790000D02*
X123150000Y-109790000D01*
X123730000Y-109210000D02*
X123730000Y-108590000D01*
X103720000Y-117460000D02*
X104140000Y-117460000D01*
%TO.N,Net-(J1-Pin_7)*%
X149400690Y-111770000D02*
X149380000Y-111770000D01*
X147230000Y-109620000D02*
X147230000Y-108590000D01*
X162380000Y-119490000D02*
X163640000Y-118230000D01*
X162380000Y-120380000D02*
X162380000Y-119490000D01*
X149380000Y-111770000D02*
X147230000Y-109620000D01*
X163640000Y-116550000D02*
X158880000Y-111790000D01*
X158880000Y-111790000D02*
X149420690Y-111790000D01*
X149420690Y-111790000D02*
X149400690Y-111770000D01*
X163640000Y-118230000D02*
X163640000Y-116550000D01*
%TO.N,Net-(J1-Pin_33)*%
X134230000Y-109210000D02*
X134230000Y-108590000D01*
X130610000Y-112830000D02*
X134230000Y-109210000D01*
X129360000Y-119490000D02*
X130610000Y-118240000D01*
X130610000Y-118240000D02*
X130610000Y-112830000D01*
X129360000Y-120380000D02*
X129360000Y-119490000D01*
%TO.N,Net-(J1-Pin_30)*%
X134450000Y-117830000D02*
X134450000Y-110470000D01*
X134450000Y-110470000D02*
X135730000Y-109190000D01*
X135730000Y-109190000D02*
X135730000Y-108590000D01*
X134440000Y-117840000D02*
X134450000Y-117830000D01*
%TO.N,Net-(J1-Pin_3)*%
X168710000Y-117160000D02*
X162028000Y-110478000D01*
X149402000Y-109912000D02*
X149230000Y-109740000D01*
X149402000Y-109915862D02*
X149402000Y-109912000D01*
X149964138Y-110478000D02*
X149402000Y-109915862D01*
X167460000Y-119480000D02*
X168710000Y-118230000D01*
X167460000Y-120380000D02*
X167460000Y-119480000D01*
X168710000Y-118230000D02*
X168710000Y-117160000D01*
X149230000Y-109740000D02*
X149230000Y-108590000D01*
X162028000Y-110478000D02*
X149964138Y-110478000D01*
%TO.N,Net-(J1-Pin_5)*%
X149692414Y-111134000D02*
X149638414Y-111080000D01*
X164920000Y-120380000D02*
X164920000Y-119480000D01*
X166210000Y-118190000D02*
X166210000Y-116990000D01*
X149638414Y-111080000D02*
X149620000Y-111080000D01*
X149620000Y-111080000D02*
X148230000Y-109690000D01*
X164920000Y-119480000D02*
X166210000Y-118190000D01*
X148230000Y-109690000D02*
X148230000Y-108590000D01*
X160354000Y-111134000D02*
X149692414Y-111134000D01*
X166210000Y-116990000D02*
X160354000Y-111134000D01*
%TO.N,Net-(J1-Pin_13)*%
X148564828Y-113738000D02*
X148510828Y-113684000D01*
X148420000Y-113600000D02*
X144230000Y-109410000D01*
X154760000Y-119490000D02*
X156010000Y-118240000D01*
X148585518Y-113738000D02*
X148564828Y-113738000D01*
X156010000Y-116930000D02*
X152838000Y-113758000D01*
X148424552Y-113600000D02*
X148420000Y-113600000D01*
X154760000Y-120380000D02*
X154760000Y-119490000D01*
X152838000Y-113758000D02*
X148605518Y-113758000D01*
X156010000Y-118240000D02*
X156010000Y-116930000D01*
X148605518Y-113758000D02*
X148585518Y-113738000D01*
X148508552Y-113684000D02*
X148424552Y-113600000D01*
X148510828Y-113684000D02*
X148508552Y-113684000D01*
X144230000Y-109410000D02*
X144230000Y-108590000D01*
%TO.N,Net-(J1-Pin_37)*%
X125530000Y-115900000D02*
X132230000Y-109200000D01*
X124280000Y-120380000D02*
X124280000Y-119500000D01*
X125530000Y-118250000D02*
X125530000Y-115900000D01*
X132230000Y-109200000D02*
X132230000Y-108590000D01*
X124280000Y-119500000D02*
X125530000Y-118250000D01*
%TO.N,Net-(J1-Pin_16)*%
X148197932Y-114742000D02*
X148193932Y-114738000D01*
X152220000Y-117460000D02*
X152220000Y-116083862D01*
X152220000Y-116083862D02*
X150878138Y-114742000D01*
X148026138Y-114620000D02*
X148020000Y-114620000D01*
X148193932Y-114738000D02*
X148144138Y-114738000D01*
X151980000Y-117460000D02*
X152220000Y-117460000D01*
X150878138Y-114742000D02*
X148197932Y-114742000D01*
X148144138Y-114738000D02*
X148026138Y-114620000D01*
X142730000Y-109330000D02*
X142730000Y-108590000D01*
X148020000Y-114620000D02*
X142730000Y-109330000D01*
%TO.N,Net-(J1-Pin_53)*%
X124230000Y-109210000D02*
X124230000Y-108590000D01*
X111882240Y-110210000D02*
X123230000Y-110210000D01*
X105270000Y-118160000D02*
X105270000Y-116822240D01*
X123230000Y-110210000D02*
X124230000Y-109210000D01*
X103960000Y-119470000D02*
X105270000Y-118160000D01*
X105270000Y-116822240D02*
X111882240Y-110210000D01*
X103960000Y-120380000D02*
X103960000Y-119470000D01*
%TO.N,Net-(J1-Pin_27)*%
X136980000Y-120380000D02*
X136980000Y-119490000D01*
X136980000Y-119490000D02*
X138234800Y-118235200D01*
X137230000Y-109190000D02*
X137230000Y-108590000D01*
X138234800Y-118235200D02*
X138234800Y-110194800D01*
X138234800Y-110194800D02*
X137230000Y-109190000D01*
%TO.N,Net-(J1-Pin_22)*%
X139730000Y-109200000D02*
X139730000Y-108590000D01*
X144470000Y-113940000D02*
X139730000Y-109200000D01*
X144470000Y-117170000D02*
X144470000Y-113940000D01*
%TO.N,Net-(J1-Pin_20)*%
X140730000Y-109253862D02*
X140730000Y-108590000D01*
X147150000Y-115673862D02*
X140730000Y-109253862D01*
X147150000Y-117210000D02*
X147150000Y-115673862D01*
%TO.N,Net-(J1-Pin_31)*%
X133200000Y-111220000D02*
X135230000Y-109190000D01*
X133200000Y-118170000D02*
X133200000Y-111220000D01*
X131900000Y-119470000D02*
X133200000Y-118170000D01*
X131900000Y-120380000D02*
X131900000Y-119470000D01*
X135230000Y-109190000D02*
X135230000Y-108590000D01*
%TO.N,Net-(J1-Pin_44)*%
X128730000Y-109220000D02*
X128730000Y-108590000D01*
X119211000Y-114669000D02*
X123281000Y-114669000D01*
X116420000Y-117460000D02*
X119211000Y-114669000D01*
X123281000Y-114669000D02*
X128730000Y-109220000D01*
%TO.N,Net-(J1-Pin_29)*%
X135730000Y-118200000D02*
X135730000Y-110350000D01*
X136230000Y-109850000D02*
X136230000Y-108590000D01*
X134440000Y-120380000D02*
X134440000Y-119490000D01*
X135730000Y-110350000D02*
X136230000Y-109850000D01*
X134440000Y-119490000D02*
X135730000Y-118200000D01*
%TO.N,Net-(J1-Pin_2)*%
X163490000Y-110150000D02*
X150100000Y-110150000D01*
X169760000Y-117600000D02*
X170000000Y-117840000D01*
X150100000Y-110150000D02*
X149730000Y-109780000D01*
X169760000Y-117460000D02*
X169760000Y-117600000D01*
X170000000Y-117840000D02*
X170000000Y-116660000D01*
X170000000Y-116660000D02*
X163490000Y-110150000D01*
X149730000Y-109780000D02*
X149730000Y-108590000D01*
%TO.N,Net-(J1-Pin_49)*%
X114358000Y-113022000D02*
X122408000Y-113022000D01*
X122408000Y-113022000D02*
X126230000Y-109200000D01*
X109040000Y-120380000D02*
X109040000Y-119490000D01*
X126230000Y-109200000D02*
X126230000Y-108590000D01*
X109040000Y-119490000D02*
X110290000Y-118240000D01*
X110290000Y-118240000D02*
X110290000Y-117090000D01*
X110290000Y-117090000D02*
X114358000Y-113022000D01*
%TO.N,Net-(J1-Pin_36)*%
X126820000Y-115098824D02*
X132681000Y-109237824D01*
X132730000Y-109160000D02*
X132730000Y-108590000D01*
X132681000Y-109237824D02*
X132681000Y-109209000D01*
X126820000Y-117840000D02*
X126820000Y-115098824D01*
X132681000Y-109209000D02*
X132730000Y-109160000D01*
%TO.N,Net-(J1-Pin_12)*%
X157060000Y-115847724D02*
X154642276Y-113430000D01*
X157060000Y-117460000D02*
X157060000Y-115847724D01*
X148646690Y-113356000D02*
X148644414Y-113356000D01*
X144902000Y-109612000D02*
X144730000Y-109440000D01*
X154642276Y-113430000D02*
X148741380Y-113430000D01*
X148721380Y-113410000D02*
X148700690Y-113410000D01*
X148644414Y-113356000D02*
X148558414Y-113270000D01*
X148556138Y-113270000D02*
X144902000Y-109615862D01*
X144902000Y-109615862D02*
X144902000Y-109612000D01*
X148700690Y-113410000D02*
X148646690Y-113356000D01*
X148558414Y-113270000D02*
X148556138Y-113270000D01*
X148741380Y-113430000D02*
X148721380Y-113410000D01*
X144730000Y-109440000D02*
X144730000Y-108590000D01*
%TO.N,Net-(J1-Pin_18)*%
X147926208Y-115398000D02*
X147922208Y-115394000D01*
X147748276Y-115276000D02*
X141730000Y-109257724D01*
X149078000Y-115398000D02*
X147926208Y-115398000D01*
X147922208Y-115394000D02*
X147872414Y-115394000D01*
X147754414Y-115276000D02*
X147748276Y-115276000D01*
X141730000Y-109257724D02*
X141730000Y-108590000D01*
X147872414Y-115394000D02*
X147754414Y-115276000D01*
X149440000Y-117460000D02*
X149440000Y-115760000D01*
X149440000Y-115760000D02*
X149078000Y-115398000D01*
%TO.N,Net-(J1-Pin_11)*%
X148642276Y-112890000D02*
X148640000Y-112890000D01*
X148877242Y-113102000D02*
X148857242Y-113082000D01*
X145230000Y-109480000D02*
X145230000Y-108590000D01*
X157300000Y-119490000D02*
X158570000Y-118220000D01*
X154778138Y-113102000D02*
X148877242Y-113102000D01*
X148782552Y-113028000D02*
X148780276Y-113028000D01*
X148836552Y-113082000D02*
X148782552Y-113028000D01*
X148857242Y-113082000D02*
X148836552Y-113082000D01*
X148780276Y-113028000D02*
X148642276Y-112890000D01*
X148640000Y-112890000D02*
X145230000Y-109480000D01*
X158570000Y-116893862D02*
X154778138Y-113102000D01*
X158570000Y-118220000D02*
X158570000Y-116893862D01*
X157300000Y-120380000D02*
X157300000Y-119490000D01*
%TO.N,Net-(J1-Pin_26)*%
X139280000Y-117460000D02*
X139280000Y-110740000D01*
X137730000Y-109190000D02*
X137730000Y-108590000D01*
X139280000Y-110740000D02*
X137730000Y-109190000D01*
%TO.N,Net-(J1-Pin_25)*%
X139280000Y-120000000D02*
X140760000Y-118520000D01*
X140760000Y-118520000D02*
X140760000Y-111740000D01*
X138230000Y-109210000D02*
X138230000Y-108590000D01*
X140760000Y-111740000D02*
X138230000Y-109210000D01*
%TO.N,Net-(J1-Pin_9)*%
X156856000Y-112446000D02*
X149148966Y-112446000D01*
X149128966Y-112426000D02*
X149108276Y-112426000D01*
X161100000Y-118210000D02*
X161100000Y-116690000D01*
X159840000Y-120380000D02*
X159840000Y-119470000D01*
X149010000Y-112330000D02*
X146230000Y-109550000D01*
X159840000Y-119470000D02*
X161100000Y-118210000D01*
X149148966Y-112446000D02*
X149128966Y-112426000D01*
X146230000Y-109550000D02*
X146230000Y-108590000D01*
X149012276Y-112330000D02*
X149010000Y-112330000D01*
X161100000Y-116690000D02*
X156856000Y-112446000D01*
X149108276Y-112426000D02*
X149012276Y-112330000D01*
%TO.N,Net-(J1-Pin_40)*%
X130730000Y-109210000D02*
X130730000Y-108590000D01*
X123599000Y-115981000D02*
X123959000Y-115981000D01*
X123959000Y-115981000D02*
X130730000Y-109210000D01*
X121740000Y-117840000D02*
X123599000Y-115981000D01*
%TO.N,Net-(J1-Pin_28)*%
X136730000Y-117210000D02*
X136730000Y-108590000D01*
X136980000Y-117460000D02*
X136730000Y-117210000D01*
%TO.N,Net-(J1-Pin_47)*%
X127279000Y-109151000D02*
X127279000Y-108810000D01*
X111580000Y-120380000D02*
X111580000Y-119480000D01*
X122748000Y-113682000D02*
X127279000Y-109151000D01*
X116030240Y-113682000D02*
X122748000Y-113682000D01*
X112830000Y-118230000D02*
X112830000Y-116882240D01*
X112830000Y-116882240D02*
X116030240Y-113682000D01*
X111580000Y-119480000D02*
X112830000Y-118230000D01*
%TO.N,Net-(J1-Pin_17)*%
X147884138Y-114948000D02*
X142402000Y-109465862D01*
X148058070Y-115066000D02*
X148008276Y-115066000D01*
X149680000Y-120380000D02*
X149680000Y-119470000D01*
X149430000Y-115070000D02*
X148062070Y-115070000D01*
X147890276Y-114948000D02*
X147884138Y-114948000D01*
X150950000Y-116590000D02*
X149430000Y-115070000D01*
X148062070Y-115070000D02*
X148058070Y-115066000D01*
X142230000Y-109290000D02*
X142230000Y-108590000D01*
X142402000Y-109462000D02*
X142230000Y-109290000D01*
X148008276Y-115066000D02*
X147890276Y-114948000D01*
X149680000Y-119470000D02*
X150950000Y-118200000D01*
X142402000Y-109465862D02*
X142402000Y-109462000D01*
X150950000Y-118200000D02*
X150950000Y-116590000D01*
%TO.N,Net-(J1-Pin_21)*%
X145860000Y-114860000D02*
X140230000Y-109230000D01*
X145860000Y-118500000D02*
X145860000Y-114860000D01*
X144360000Y-120000000D02*
X145860000Y-118500000D01*
X140230000Y-109230000D02*
X140230000Y-108590000D01*
%TO.N,Net-(J1-Pin_15)*%
X151014000Y-114414000D02*
X148333794Y-114414000D01*
X152220000Y-120380000D02*
X152220000Y-119490000D01*
X148280000Y-114410000D02*
X143230000Y-109360000D01*
X148333794Y-114414000D02*
X148329794Y-114410000D01*
X152220000Y-119490000D02*
X153520000Y-118190000D01*
X148329794Y-114410000D02*
X148280000Y-114410000D01*
X143230000Y-109360000D02*
X143230000Y-108590000D01*
X153520000Y-118190000D02*
X153520000Y-116920000D01*
X153520000Y-116920000D02*
X151014000Y-114414000D01*
%TO.N,Net-(J1-Pin_41)*%
X122944516Y-116000000D02*
X123291516Y-115653000D01*
X119200000Y-119480000D02*
X120460000Y-118220000D01*
X120460000Y-118220000D02*
X120460000Y-116872240D01*
X123777000Y-115653000D02*
X130230000Y-109200000D01*
X119200000Y-120380000D02*
X119200000Y-119480000D01*
X121332240Y-116000000D02*
X122944516Y-116000000D01*
X123291516Y-115653000D02*
X123777000Y-115653000D01*
X120460000Y-116872240D02*
X121332240Y-116000000D01*
X130230000Y-109200000D02*
X130230000Y-108590000D01*
%TO.N,Net-(J1-Pin_1)*%
X170000000Y-119470000D02*
X171150000Y-118320000D01*
X150870000Y-109790000D02*
X150230000Y-109150000D01*
X170000000Y-120380000D02*
X170000000Y-119470000D01*
X171150000Y-118320000D02*
X171150000Y-117340000D01*
X171150000Y-117340000D02*
X163600000Y-109790000D01*
X150230000Y-109150000D02*
X150230000Y-108590000D01*
X163600000Y-109790000D02*
X150870000Y-109790000D01*
%TO.N,Net-(J1-Pin_35)*%
X133230000Y-109210000D02*
X133230000Y-108590000D01*
X128040000Y-118270000D02*
X128040000Y-114400000D01*
X126820000Y-119490000D02*
X128040000Y-118270000D01*
X126820000Y-120380000D02*
X126820000Y-119490000D01*
X128040000Y-114400000D02*
X133230000Y-109210000D01*
%TO.N,Net-(J1-Pin_10)*%
X156720138Y-112774000D02*
X149013104Y-112774000D01*
X148916138Y-112700000D02*
X145902000Y-109685862D01*
X145902000Y-109682000D02*
X145730000Y-109510000D01*
X145902000Y-109685862D02*
X145902000Y-109682000D01*
X148918414Y-112700000D02*
X148916138Y-112700000D01*
X159600000Y-115653862D02*
X156720138Y-112774000D01*
X148993104Y-112754000D02*
X148972414Y-112754000D01*
X148972414Y-112754000D02*
X148918414Y-112700000D01*
X149013104Y-112774000D02*
X148993104Y-112754000D01*
X145730000Y-109510000D02*
X145730000Y-108590000D01*
X159600000Y-117460000D02*
X159600000Y-115653862D01*
%TO.N,Net-(J1-Pin_34)*%
X129360000Y-117840000D02*
X129350000Y-117830000D01*
X129350000Y-113570000D02*
X133730000Y-109190000D01*
X129350000Y-117830000D02*
X129350000Y-113570000D01*
X133730000Y-109190000D02*
X133730000Y-108590000D01*
%TO.N,Net-(J1-Pin_14)*%
X148469656Y-114086000D02*
X148449656Y-114066000D01*
X148284138Y-113928000D02*
X148086138Y-113730000D01*
X148288690Y-113928000D02*
X148284138Y-113928000D01*
X152702138Y-114086000D02*
X148469656Y-114086000D01*
X148374966Y-114012000D02*
X148372690Y-114012000D01*
X148086138Y-113730000D02*
X148070000Y-113730000D01*
X148449656Y-114066000D02*
X148428966Y-114066000D01*
X148372690Y-114012000D02*
X148288690Y-113928000D01*
X154520000Y-115903862D02*
X152702138Y-114086000D01*
X154520000Y-117460000D02*
X154520000Y-115903862D01*
X148070000Y-113730000D02*
X143730000Y-109390000D01*
X143730000Y-109390000D02*
X143730000Y-108590000D01*
X148428966Y-114066000D02*
X148374966Y-114012000D01*
%TO.N,Net-(J1-Pin_19)*%
X148400000Y-116460000D02*
X141230000Y-109290000D01*
X148400000Y-118240000D02*
X148400000Y-116460000D01*
X147140000Y-119500000D02*
X148400000Y-118240000D01*
X147140000Y-120380000D02*
X147140000Y-119500000D01*
X141230000Y-109290000D02*
X141230000Y-108590000D01*
%TO.N,Net-(J1-Pin_32)*%
X134730000Y-109200000D02*
X134730000Y-108590000D01*
X131900000Y-117840000D02*
X131900000Y-112030000D01*
X131900000Y-112030000D02*
X134730000Y-109200000D01*
%TO.N,Net-(J1-Pin_24)*%
X138730000Y-109190000D02*
X138730000Y-108590000D01*
X142050000Y-112510000D02*
X138730000Y-109190000D01*
X141820000Y-117460000D02*
X142050000Y-117230000D01*
X142050000Y-117230000D02*
X142050000Y-112510000D01*
%TO.N,Net-(J1-Pin_51)*%
X107790000Y-117010000D02*
X113180000Y-111620000D01*
X106500000Y-120380000D02*
X106500000Y-119480000D01*
X122800000Y-111620000D02*
X125230000Y-109190000D01*
X113180000Y-111620000D02*
X122800000Y-111620000D01*
X125230000Y-109190000D02*
X125230000Y-108590000D01*
X107790000Y-118190000D02*
X107790000Y-117010000D01*
X106500000Y-119480000D02*
X107790000Y-118190000D01*
%TO.N,Net-(J1-Pin_50)*%
X108800000Y-117460000D02*
X114180000Y-112080000D01*
X114180000Y-112080000D02*
X122840000Y-112080000D01*
X125730000Y-109190000D02*
X125730000Y-108590000D01*
X122840000Y-112080000D02*
X125730000Y-109190000D01*
%TO.N,Net-(J1-Pin_8)*%
X162140000Y-115513862D02*
X158744138Y-112118000D01*
X149244138Y-112098000D02*
X146902000Y-109755862D01*
X158744138Y-112118000D02*
X149284828Y-112118000D01*
X146902000Y-109755862D02*
X146902000Y-109752000D01*
X149284828Y-112118000D02*
X149264828Y-112098000D01*
X146902000Y-109752000D02*
X146730000Y-109580000D01*
X162140000Y-117460000D02*
X162140000Y-115513862D01*
X146730000Y-109580000D02*
X146730000Y-108590000D01*
X149264828Y-112098000D02*
X149244138Y-112098000D01*
%TO.N,Net-(J1-Pin_52)*%
X124730000Y-109210000D02*
X124730000Y-108590000D01*
X123400000Y-110540000D02*
X124730000Y-109210000D01*
X106260000Y-117460000D02*
X113180000Y-110540000D01*
X113180000Y-110540000D02*
X123400000Y-110540000D01*
%TO.N,Net-(J1-Pin_43)*%
X117960000Y-116832240D02*
X119795240Y-114997000D01*
X116660000Y-119470000D02*
X117960000Y-118170000D01*
X117960000Y-118170000D02*
X117960000Y-116832240D01*
X116420000Y-120000000D02*
X116420000Y-120140000D01*
X116420000Y-120140000D02*
X116660000Y-120380000D01*
X119795240Y-114997000D02*
X123433000Y-114997000D01*
X123433000Y-114997000D02*
X129230000Y-109200000D01*
X116660000Y-120380000D02*
X116660000Y-119470000D01*
X129230000Y-109200000D02*
X129230000Y-108590000D01*
%TO.N,Net-(J1-Pin_4)*%
X161892138Y-110806000D02*
X149828276Y-110806000D01*
X149630000Y-110610000D02*
X148730000Y-109710000D01*
X148730000Y-109710000D02*
X148730000Y-108590000D01*
X149828276Y-110806000D02*
X149632276Y-110610000D01*
X149632276Y-110610000D02*
X149630000Y-110610000D01*
X167220000Y-116133862D02*
X161892138Y-110806000D01*
X167220000Y-117460000D02*
X167220000Y-116133862D01*
%TO.N,Net-(J1-Pin_6)*%
X149556552Y-111462000D02*
X149524552Y-111430000D01*
X149506138Y-111430000D02*
X147902000Y-109825862D01*
X147902000Y-109825862D02*
X147902000Y-109822000D01*
X147902000Y-109822000D02*
X147730000Y-109650000D01*
X149524552Y-111430000D02*
X149506138Y-111430000D01*
X160218138Y-111462000D02*
X149556552Y-111462000D01*
X164680000Y-115923862D02*
X160218138Y-111462000D01*
X164680000Y-117460000D02*
X164680000Y-115923862D01*
X147730000Y-109650000D02*
X147730000Y-108590000D01*
%TO.N,Net-(J1-Pin_23)*%
X143340965Y-118479035D02*
X143340965Y-113310965D01*
X141820000Y-120000000D02*
X143340965Y-118479035D01*
X139230000Y-109200000D02*
X139230000Y-108590000D01*
X143340965Y-113310965D02*
X139230000Y-109200000D01*
%TO.N,Net-(J1-Pin_45)*%
X123080000Y-114340000D02*
X128230000Y-109190000D01*
X117912240Y-114340000D02*
X123080000Y-114340000D01*
X115390000Y-116862240D02*
X117912240Y-114340000D01*
X114120000Y-120380000D02*
X114120000Y-119480000D01*
X128230000Y-109190000D02*
X128230000Y-108590000D01*
X114120000Y-119480000D02*
X115390000Y-118210000D01*
X115390000Y-118210000D02*
X115390000Y-116862240D01*
%TO.N,Net-(J1-Pin_42)*%
X129730000Y-108605000D02*
X129779000Y-108654000D01*
X123625000Y-115325000D02*
X129730000Y-109220000D01*
X121095000Y-115325000D02*
X123625000Y-115325000D01*
X118960000Y-117460000D02*
X121095000Y-115325000D01*
X129730000Y-109220000D02*
X129730000Y-108605000D01*
%TO.N,Net-(J1-Pin_46)*%
X113880000Y-117460000D02*
X117330000Y-114010000D01*
X117330000Y-114010000D02*
X122920000Y-114010000D01*
X122920000Y-114010000D02*
X127730000Y-109200000D01*
X127730000Y-109200000D02*
X127730000Y-108590000D01*
%TO.N,Net-(J1-Pin_48)*%
X126730000Y-109190000D02*
X126730000Y-108590000D01*
X115450000Y-113350000D02*
X122570000Y-113350000D01*
X111340000Y-117460000D02*
X115450000Y-113350000D01*
X122570000Y-113350000D02*
X126730000Y-109190000D01*
%TO.N,Net-(J1-Pin_38)*%
X131730000Y-109220000D02*
X131730000Y-108590000D01*
X124280000Y-116670000D02*
X131730000Y-109220000D01*
X124280000Y-117840000D02*
X124280000Y-116670000D01*
X124040000Y-117460000D02*
X124040000Y-117600000D01*
%TD*%
%TA.AperFunction,Conductor*%
%TO.N,GND*%
G36*
X170003736Y-100500726D02*
G01*
X170293796Y-100518271D01*
X170308659Y-100520076D01*
X170590798Y-100571780D01*
X170605335Y-100575363D01*
X170879172Y-100660695D01*
X170893163Y-100666000D01*
X171154743Y-100783727D01*
X171167989Y-100790680D01*
X171413465Y-100939075D01*
X171425776Y-100947573D01*
X171651573Y-101124473D01*
X171662781Y-101134403D01*
X171865596Y-101337218D01*
X171875526Y-101348426D01*
X171995481Y-101501538D01*
X172052422Y-101574217D01*
X172060928Y-101586540D01*
X172209316Y-101832004D01*
X172216275Y-101845263D01*
X172333997Y-102106831D01*
X172339306Y-102120832D01*
X172424635Y-102394663D01*
X172428219Y-102409201D01*
X172479923Y-102691340D01*
X172481728Y-102706205D01*
X172499274Y-102996263D01*
X172499500Y-103003750D01*
X172499500Y-119996249D01*
X172499274Y-120003736D01*
X172481728Y-120293794D01*
X172479923Y-120308659D01*
X172428219Y-120590798D01*
X172424635Y-120605336D01*
X172339306Y-120879167D01*
X172333997Y-120893168D01*
X172216275Y-121154736D01*
X172209316Y-121167995D01*
X172060928Y-121413459D01*
X172052422Y-121425782D01*
X171875526Y-121651573D01*
X171865596Y-121662781D01*
X171662781Y-121865596D01*
X171651573Y-121875526D01*
X171425782Y-122052422D01*
X171413459Y-122060928D01*
X171167995Y-122209316D01*
X171154736Y-122216275D01*
X170893168Y-122333997D01*
X170879167Y-122339306D01*
X170605336Y-122424635D01*
X170590798Y-122428219D01*
X170308659Y-122479923D01*
X170293794Y-122481728D01*
X170003736Y-122499274D01*
X169996249Y-122499500D01*
X104003751Y-122499500D01*
X103996264Y-122499274D01*
X103706205Y-122481728D01*
X103691340Y-122479923D01*
X103409201Y-122428219D01*
X103394663Y-122424635D01*
X103120832Y-122339306D01*
X103106831Y-122333997D01*
X102845263Y-122216275D01*
X102832004Y-122209316D01*
X102586540Y-122060928D01*
X102574217Y-122052422D01*
X102348426Y-121875526D01*
X102337218Y-121865596D01*
X102134403Y-121662781D01*
X102124473Y-121651573D01*
X101947573Y-121425776D01*
X101939075Y-121413465D01*
X101790680Y-121167989D01*
X101783727Y-121154743D01*
X101666000Y-120893163D01*
X101660693Y-120879167D01*
X101660458Y-120878414D01*
X101575363Y-120605335D01*
X101571780Y-120590798D01*
X101557752Y-120514250D01*
X101520075Y-120308657D01*
X101518271Y-120293794D01*
X101500726Y-120003736D01*
X101500500Y-119996249D01*
X101500500Y-117713713D01*
X102609500Y-117713713D01*
X102609500Y-117926287D01*
X102642754Y-118136243D01*
X102674299Y-118233329D01*
X102708444Y-118338414D01*
X102804951Y-118527820D01*
X102929890Y-118699786D01*
X103080213Y-118850109D01*
X103252182Y-118975050D01*
X103260946Y-118979516D01*
X103311742Y-119027491D01*
X103328536Y-119095312D01*
X103305998Y-119161447D01*
X103260946Y-119200484D01*
X103252182Y-119204949D01*
X103080213Y-119329890D01*
X102929890Y-119480213D01*
X102804951Y-119652179D01*
X102708444Y-119841585D01*
X102642753Y-120043760D01*
X102609500Y-120253713D01*
X102609500Y-120466286D01*
X102642753Y-120676239D01*
X102708444Y-120878414D01*
X102804951Y-121067820D01*
X102929890Y-121239786D01*
X103080213Y-121390109D01*
X103252179Y-121515048D01*
X103252181Y-121515049D01*
X103252184Y-121515051D01*
X103441588Y-121611557D01*
X103643757Y-121677246D01*
X103853713Y-121710500D01*
X103853714Y-121710500D01*
X104066286Y-121710500D01*
X104066287Y-121710500D01*
X104276243Y-121677246D01*
X104478412Y-121611557D01*
X104667816Y-121515051D01*
X104754138Y-121452335D01*
X104839786Y-121390109D01*
X104839788Y-121390106D01*
X104839792Y-121390104D01*
X104990104Y-121239792D01*
X104990106Y-121239788D01*
X104990109Y-121239786D01*
X105115048Y-121067820D01*
X105115047Y-121067820D01*
X105115051Y-121067816D01*
X105119514Y-121059054D01*
X105167488Y-121008259D01*
X105235308Y-120991463D01*
X105301444Y-121013999D01*
X105340486Y-121059056D01*
X105344951Y-121067820D01*
X105469890Y-121239786D01*
X105620213Y-121390109D01*
X105792179Y-121515048D01*
X105792181Y-121515049D01*
X105792184Y-121515051D01*
X105981588Y-121611557D01*
X106183757Y-121677246D01*
X106393713Y-121710500D01*
X106393714Y-121710500D01*
X106606286Y-121710500D01*
X106606287Y-121710500D01*
X106816243Y-121677246D01*
X107018412Y-121611557D01*
X107207816Y-121515051D01*
X107294138Y-121452335D01*
X107379786Y-121390109D01*
X107379788Y-121390106D01*
X107379792Y-121390104D01*
X107530104Y-121239792D01*
X107530106Y-121239788D01*
X107530109Y-121239786D01*
X107655048Y-121067820D01*
X107655047Y-121067820D01*
X107655051Y-121067816D01*
X107659514Y-121059054D01*
X107707488Y-121008259D01*
X107775308Y-120991463D01*
X107841444Y-121013999D01*
X107880486Y-121059056D01*
X107884951Y-121067820D01*
X108009890Y-121239786D01*
X108160213Y-121390109D01*
X108332179Y-121515048D01*
X108332181Y-121515049D01*
X108332184Y-121515051D01*
X108521588Y-121611557D01*
X108723757Y-121677246D01*
X108933713Y-121710500D01*
X108933714Y-121710500D01*
X109146286Y-121710500D01*
X109146287Y-121710500D01*
X109356243Y-121677246D01*
X109558412Y-121611557D01*
X109747816Y-121515051D01*
X109834138Y-121452335D01*
X109919786Y-121390109D01*
X109919788Y-121390106D01*
X109919792Y-121390104D01*
X110070104Y-121239792D01*
X110070106Y-121239788D01*
X110070109Y-121239786D01*
X110195048Y-121067820D01*
X110195047Y-121067820D01*
X110195051Y-121067816D01*
X110199514Y-121059054D01*
X110247488Y-121008259D01*
X110315308Y-120991463D01*
X110381444Y-121013999D01*
X110420486Y-121059056D01*
X110424951Y-121067820D01*
X110549890Y-121239786D01*
X110700213Y-121390109D01*
X110872179Y-121515048D01*
X110872181Y-121515049D01*
X110872184Y-121515051D01*
X111061588Y-121611557D01*
X111263757Y-121677246D01*
X111473713Y-121710500D01*
X111473714Y-121710500D01*
X111686286Y-121710500D01*
X111686287Y-121710500D01*
X111896243Y-121677246D01*
X112098412Y-121611557D01*
X112287816Y-121515051D01*
X112374138Y-121452335D01*
X112459786Y-121390109D01*
X112459788Y-121390106D01*
X112459792Y-121390104D01*
X112610104Y-121239792D01*
X112610106Y-121239788D01*
X112610109Y-121239786D01*
X112735048Y-121067820D01*
X112735047Y-121067820D01*
X112735051Y-121067816D01*
X112739514Y-121059054D01*
X112787488Y-121008259D01*
X112855308Y-120991463D01*
X112921444Y-121013999D01*
X112960486Y-121059056D01*
X112964951Y-121067820D01*
X113089890Y-121239786D01*
X113240213Y-121390109D01*
X113412179Y-121515048D01*
X113412181Y-121515049D01*
X113412184Y-121515051D01*
X113601588Y-121611557D01*
X113803757Y-121677246D01*
X114013713Y-121710500D01*
X114013714Y-121710500D01*
X114226286Y-121710500D01*
X114226287Y-121710500D01*
X114436243Y-121677246D01*
X114638412Y-121611557D01*
X114827816Y-121515051D01*
X114914138Y-121452335D01*
X114999786Y-121390109D01*
X114999788Y-121390106D01*
X114999792Y-121390104D01*
X115150104Y-121239792D01*
X115150106Y-121239788D01*
X115150109Y-121239786D01*
X115275048Y-121067820D01*
X115275047Y-121067820D01*
X115275051Y-121067816D01*
X115279514Y-121059054D01*
X115327488Y-121008259D01*
X115395308Y-120991463D01*
X115461444Y-121013999D01*
X115500486Y-121059056D01*
X115504951Y-121067820D01*
X115629890Y-121239786D01*
X115780213Y-121390109D01*
X115952179Y-121515048D01*
X115952181Y-121515049D01*
X115952184Y-121515051D01*
X116141588Y-121611557D01*
X116343757Y-121677246D01*
X116553713Y-121710500D01*
X116553714Y-121710500D01*
X116766286Y-121710500D01*
X116766287Y-121710500D01*
X116976243Y-121677246D01*
X117178412Y-121611557D01*
X117367816Y-121515051D01*
X117454138Y-121452335D01*
X117539786Y-121390109D01*
X117539788Y-121390106D01*
X117539792Y-121390104D01*
X117690104Y-121239792D01*
X117690106Y-121239788D01*
X117690109Y-121239786D01*
X117815048Y-121067820D01*
X117815047Y-121067820D01*
X117815051Y-121067816D01*
X117819514Y-121059054D01*
X117867488Y-121008259D01*
X117935308Y-120991463D01*
X118001444Y-121013999D01*
X118040486Y-121059056D01*
X118044951Y-121067820D01*
X118169890Y-121239786D01*
X118320213Y-121390109D01*
X118492179Y-121515048D01*
X118492181Y-121515049D01*
X118492184Y-121515051D01*
X118681588Y-121611557D01*
X118883757Y-121677246D01*
X119093713Y-121710500D01*
X119093714Y-121710500D01*
X119306286Y-121710500D01*
X119306287Y-121710500D01*
X119516243Y-121677246D01*
X119718412Y-121611557D01*
X119907816Y-121515051D01*
X119994138Y-121452335D01*
X120079786Y-121390109D01*
X120079788Y-121390106D01*
X120079792Y-121390104D01*
X120230104Y-121239792D01*
X120230106Y-121239788D01*
X120230109Y-121239786D01*
X120355048Y-121067820D01*
X120355047Y-121067820D01*
X120355051Y-121067816D01*
X120359514Y-121059054D01*
X120407488Y-121008259D01*
X120475308Y-120991463D01*
X120541444Y-121013999D01*
X120580486Y-121059056D01*
X120584951Y-121067820D01*
X120709890Y-121239786D01*
X120860213Y-121390109D01*
X121032179Y-121515048D01*
X121032181Y-121515049D01*
X121032184Y-121515051D01*
X121221588Y-121611557D01*
X121423757Y-121677246D01*
X121633713Y-121710500D01*
X121633714Y-121710500D01*
X121846286Y-121710500D01*
X121846287Y-121710500D01*
X122056243Y-121677246D01*
X122258412Y-121611557D01*
X122447816Y-121515051D01*
X122534138Y-121452335D01*
X122619786Y-121390109D01*
X122619788Y-121390106D01*
X122619792Y-121390104D01*
X122770104Y-121239792D01*
X122770106Y-121239788D01*
X122770109Y-121239786D01*
X122895048Y-121067820D01*
X122895047Y-121067820D01*
X122895051Y-121067816D01*
X122899514Y-121059054D01*
X122947488Y-121008259D01*
X123015308Y-120991463D01*
X123081444Y-121013999D01*
X123120486Y-121059056D01*
X123124951Y-121067820D01*
X123249890Y-121239786D01*
X123400213Y-121390109D01*
X123572179Y-121515048D01*
X123572181Y-121515049D01*
X123572184Y-121515051D01*
X123761588Y-121611557D01*
X123963757Y-121677246D01*
X124173713Y-121710500D01*
X124173714Y-121710500D01*
X124386286Y-121710500D01*
X124386287Y-121710500D01*
X124596243Y-121677246D01*
X124798412Y-121611557D01*
X124987816Y-121515051D01*
X125074138Y-121452335D01*
X125159786Y-121390109D01*
X125159788Y-121390106D01*
X125159792Y-121390104D01*
X125310104Y-121239792D01*
X125310106Y-121239788D01*
X125310109Y-121239786D01*
X125435048Y-121067820D01*
X125435047Y-121067820D01*
X125435051Y-121067816D01*
X125439514Y-121059054D01*
X125487488Y-121008259D01*
X125555308Y-120991463D01*
X125621444Y-121013999D01*
X125660486Y-121059056D01*
X125664951Y-121067820D01*
X125789890Y-121239786D01*
X125940213Y-121390109D01*
X126112179Y-121515048D01*
X126112181Y-121515049D01*
X126112184Y-121515051D01*
X126301588Y-121611557D01*
X126503757Y-121677246D01*
X126713713Y-121710500D01*
X126713714Y-121710500D01*
X126926286Y-121710500D01*
X126926287Y-121710500D01*
X127136243Y-121677246D01*
X127338412Y-121611557D01*
X127527816Y-121515051D01*
X127614138Y-121452335D01*
X127699786Y-121390109D01*
X127699788Y-121390106D01*
X127699792Y-121390104D01*
X127850104Y-121239792D01*
X127850106Y-121239788D01*
X127850109Y-121239786D01*
X127975048Y-121067820D01*
X127975047Y-121067820D01*
X127975051Y-121067816D01*
X127979514Y-121059054D01*
X128027488Y-121008259D01*
X128095308Y-120991463D01*
X128161444Y-121013999D01*
X128200486Y-121059056D01*
X128204951Y-121067820D01*
X128329890Y-121239786D01*
X128480213Y-121390109D01*
X128652179Y-121515048D01*
X128652181Y-121515049D01*
X128652184Y-121515051D01*
X128841588Y-121611557D01*
X129043757Y-121677246D01*
X129253713Y-121710500D01*
X129253714Y-121710500D01*
X129466286Y-121710500D01*
X129466287Y-121710500D01*
X129676243Y-121677246D01*
X129878412Y-121611557D01*
X130067816Y-121515051D01*
X130154138Y-121452335D01*
X130239786Y-121390109D01*
X130239788Y-121390106D01*
X130239792Y-121390104D01*
X130390104Y-121239792D01*
X130390106Y-121239788D01*
X130390109Y-121239786D01*
X130515048Y-121067820D01*
X130515047Y-121067820D01*
X130515051Y-121067816D01*
X130519514Y-121059054D01*
X130567488Y-121008259D01*
X130635308Y-120991463D01*
X130701444Y-121013999D01*
X130740486Y-121059056D01*
X130744951Y-121067820D01*
X130869890Y-121239786D01*
X131020213Y-121390109D01*
X131192179Y-121515048D01*
X131192181Y-121515049D01*
X131192184Y-121515051D01*
X131381588Y-121611557D01*
X131583757Y-121677246D01*
X131793713Y-121710500D01*
X131793714Y-121710500D01*
X132006286Y-121710500D01*
X132006287Y-121710500D01*
X132216243Y-121677246D01*
X132418412Y-121611557D01*
X132607816Y-121515051D01*
X132694138Y-121452335D01*
X132779786Y-121390109D01*
X132779788Y-121390106D01*
X132779792Y-121390104D01*
X132930104Y-121239792D01*
X132930106Y-121239788D01*
X132930109Y-121239786D01*
X133055048Y-121067820D01*
X133055047Y-121067820D01*
X133055051Y-121067816D01*
X133059514Y-121059054D01*
X133107488Y-121008259D01*
X133175308Y-120991463D01*
X133241444Y-121013999D01*
X133280486Y-121059056D01*
X133284951Y-121067820D01*
X133409890Y-121239786D01*
X133560213Y-121390109D01*
X133732179Y-121515048D01*
X133732181Y-121515049D01*
X133732184Y-121515051D01*
X133921588Y-121611557D01*
X134123757Y-121677246D01*
X134333713Y-121710500D01*
X134333714Y-121710500D01*
X134546286Y-121710500D01*
X134546287Y-121710500D01*
X134756243Y-121677246D01*
X134958412Y-121611557D01*
X135147816Y-121515051D01*
X135234138Y-121452335D01*
X135319786Y-121390109D01*
X135319788Y-121390106D01*
X135319792Y-121390104D01*
X135470104Y-121239792D01*
X135470106Y-121239788D01*
X135470109Y-121239786D01*
X135595048Y-121067820D01*
X135595047Y-121067820D01*
X135595051Y-121067816D01*
X135599514Y-121059054D01*
X135647488Y-121008259D01*
X135715308Y-120991463D01*
X135781444Y-121013999D01*
X135820486Y-121059056D01*
X135824951Y-121067820D01*
X135949890Y-121239786D01*
X136100213Y-121390109D01*
X136272179Y-121515048D01*
X136272181Y-121515049D01*
X136272184Y-121515051D01*
X136461588Y-121611557D01*
X136663757Y-121677246D01*
X136873713Y-121710500D01*
X136873714Y-121710500D01*
X137086286Y-121710500D01*
X137086287Y-121710500D01*
X137296243Y-121677246D01*
X137498412Y-121611557D01*
X137687816Y-121515051D01*
X137774138Y-121452335D01*
X137859786Y-121390109D01*
X137859788Y-121390106D01*
X137859792Y-121390104D01*
X138010104Y-121239792D01*
X138010106Y-121239788D01*
X138010109Y-121239786D01*
X138135048Y-121067820D01*
X138135047Y-121067820D01*
X138135051Y-121067816D01*
X138139514Y-121059054D01*
X138187488Y-121008259D01*
X138255308Y-120991463D01*
X138321444Y-121013999D01*
X138360486Y-121059056D01*
X138364951Y-121067820D01*
X138489890Y-121239786D01*
X138640213Y-121390109D01*
X138812179Y-121515048D01*
X138812181Y-121515049D01*
X138812184Y-121515051D01*
X139001588Y-121611557D01*
X139203757Y-121677246D01*
X139413713Y-121710500D01*
X139413714Y-121710500D01*
X139626286Y-121710500D01*
X139626287Y-121710500D01*
X139836243Y-121677246D01*
X140038412Y-121611557D01*
X140227816Y-121515051D01*
X140314138Y-121452335D01*
X140399786Y-121390109D01*
X140399788Y-121390106D01*
X140399792Y-121390104D01*
X140550104Y-121239792D01*
X140550106Y-121239788D01*
X140550109Y-121239786D01*
X140675048Y-121067820D01*
X140675047Y-121067820D01*
X140675051Y-121067816D01*
X140679514Y-121059054D01*
X140727488Y-121008259D01*
X140795308Y-120991463D01*
X140861444Y-121013999D01*
X140900486Y-121059056D01*
X140904951Y-121067820D01*
X141029890Y-121239786D01*
X141180213Y-121390109D01*
X141352179Y-121515048D01*
X141352181Y-121515049D01*
X141352184Y-121515051D01*
X141541588Y-121611557D01*
X141743757Y-121677246D01*
X141953713Y-121710500D01*
X141953714Y-121710500D01*
X142166286Y-121710500D01*
X142166287Y-121710500D01*
X142376243Y-121677246D01*
X142578412Y-121611557D01*
X142767816Y-121515051D01*
X142854138Y-121452335D01*
X142939786Y-121390109D01*
X142939788Y-121390106D01*
X142939792Y-121390104D01*
X143090104Y-121239792D01*
X143090106Y-121239788D01*
X143090109Y-121239786D01*
X143215048Y-121067820D01*
X143215047Y-121067820D01*
X143215051Y-121067816D01*
X143219514Y-121059054D01*
X143267488Y-121008259D01*
X143335308Y-120991463D01*
X143401444Y-121013999D01*
X143440486Y-121059056D01*
X143444951Y-121067820D01*
X143569890Y-121239786D01*
X143720213Y-121390109D01*
X143892179Y-121515048D01*
X143892181Y-121515049D01*
X143892184Y-121515051D01*
X144081588Y-121611557D01*
X144283757Y-121677246D01*
X144493713Y-121710500D01*
X144493714Y-121710500D01*
X144706286Y-121710500D01*
X144706287Y-121710500D01*
X144916243Y-121677246D01*
X145118412Y-121611557D01*
X145307816Y-121515051D01*
X145394138Y-121452335D01*
X145479786Y-121390109D01*
X145479788Y-121390106D01*
X145479792Y-121390104D01*
X145630104Y-121239792D01*
X145630106Y-121239788D01*
X145630109Y-121239786D01*
X145755048Y-121067820D01*
X145755047Y-121067820D01*
X145755051Y-121067816D01*
X145759514Y-121059054D01*
X145807488Y-121008259D01*
X145875308Y-120991463D01*
X145941444Y-121013999D01*
X145980486Y-121059056D01*
X145984951Y-121067820D01*
X146109890Y-121239786D01*
X146260213Y-121390109D01*
X146432179Y-121515048D01*
X146432181Y-121515049D01*
X146432184Y-121515051D01*
X146621588Y-121611557D01*
X146823757Y-121677246D01*
X147033713Y-121710500D01*
X147033714Y-121710500D01*
X147246286Y-121710500D01*
X147246287Y-121710500D01*
X147456243Y-121677246D01*
X147658412Y-121611557D01*
X147847816Y-121515051D01*
X147934138Y-121452335D01*
X148019786Y-121390109D01*
X148019788Y-121390106D01*
X148019792Y-121390104D01*
X148170104Y-121239792D01*
X148170106Y-121239788D01*
X148170109Y-121239786D01*
X148295048Y-121067820D01*
X148295047Y-121067820D01*
X148295051Y-121067816D01*
X148299514Y-121059054D01*
X148347488Y-121008259D01*
X148415308Y-120991463D01*
X148481444Y-121013999D01*
X148520486Y-121059056D01*
X148524951Y-121067820D01*
X148649890Y-121239786D01*
X148800213Y-121390109D01*
X148972179Y-121515048D01*
X148972181Y-121515049D01*
X148972184Y-121515051D01*
X149161588Y-121611557D01*
X149363757Y-121677246D01*
X149573713Y-121710500D01*
X149573714Y-121710500D01*
X149786286Y-121710500D01*
X149786287Y-121710500D01*
X149996243Y-121677246D01*
X150198412Y-121611557D01*
X150387816Y-121515051D01*
X150474138Y-121452335D01*
X150559786Y-121390109D01*
X150559788Y-121390106D01*
X150559792Y-121390104D01*
X150710104Y-121239792D01*
X150710106Y-121239788D01*
X150710109Y-121239786D01*
X150835048Y-121067820D01*
X150835047Y-121067820D01*
X150835051Y-121067816D01*
X150839514Y-121059054D01*
X150887488Y-121008259D01*
X150955308Y-120991463D01*
X151021444Y-121013999D01*
X151060486Y-121059056D01*
X151064951Y-121067820D01*
X151189890Y-121239786D01*
X151340213Y-121390109D01*
X151512179Y-121515048D01*
X151512181Y-121515049D01*
X151512184Y-121515051D01*
X151701588Y-121611557D01*
X151903757Y-121677246D01*
X152113713Y-121710500D01*
X152113714Y-121710500D01*
X152326286Y-121710500D01*
X152326287Y-121710500D01*
X152536243Y-121677246D01*
X152738412Y-121611557D01*
X152927816Y-121515051D01*
X153014138Y-121452335D01*
X153099786Y-121390109D01*
X153099788Y-121390106D01*
X153099792Y-121390104D01*
X153250104Y-121239792D01*
X153250106Y-121239788D01*
X153250109Y-121239786D01*
X153375048Y-121067820D01*
X153375047Y-121067820D01*
X153375051Y-121067816D01*
X153379514Y-121059054D01*
X153427488Y-121008259D01*
X153495308Y-120991463D01*
X153561444Y-121013999D01*
X153600486Y-121059056D01*
X153604951Y-121067820D01*
X153729890Y-121239786D01*
X153880213Y-121390109D01*
X154052179Y-121515048D01*
X154052181Y-121515049D01*
X154052184Y-121515051D01*
X154241588Y-121611557D01*
X154443757Y-121677246D01*
X154653713Y-121710500D01*
X154653714Y-121710500D01*
X154866286Y-121710500D01*
X154866287Y-121710500D01*
X155076243Y-121677246D01*
X155278412Y-121611557D01*
X155467816Y-121515051D01*
X155554138Y-121452335D01*
X155639786Y-121390109D01*
X155639788Y-121390106D01*
X155639792Y-121390104D01*
X155790104Y-121239792D01*
X155790106Y-121239788D01*
X155790109Y-121239786D01*
X155915048Y-121067820D01*
X155915047Y-121067820D01*
X155915051Y-121067816D01*
X155919514Y-121059054D01*
X155967488Y-121008259D01*
X156035308Y-120991463D01*
X156101444Y-121013999D01*
X156140486Y-121059056D01*
X156144951Y-121067820D01*
X156269890Y-121239786D01*
X156420213Y-121390109D01*
X156592179Y-121515048D01*
X156592181Y-121515049D01*
X156592184Y-121515051D01*
X156781588Y-121611557D01*
X156983757Y-121677246D01*
X157193713Y-121710500D01*
X157193714Y-121710500D01*
X157406286Y-121710500D01*
X157406287Y-121710500D01*
X157616243Y-121677246D01*
X157818412Y-121611557D01*
X158007816Y-121515051D01*
X158094138Y-121452335D01*
X158179786Y-121390109D01*
X158179788Y-121390106D01*
X158179792Y-121390104D01*
X158330104Y-121239792D01*
X158330106Y-121239788D01*
X158330109Y-121239786D01*
X158455048Y-121067820D01*
X158455047Y-121067820D01*
X158455051Y-121067816D01*
X158459514Y-121059054D01*
X158507488Y-121008259D01*
X158575308Y-120991463D01*
X158641444Y-121013999D01*
X158680486Y-121059056D01*
X158684951Y-121067820D01*
X158809890Y-121239786D01*
X158960213Y-121390109D01*
X159132179Y-121515048D01*
X159132181Y-121515049D01*
X159132184Y-121515051D01*
X159321588Y-121611557D01*
X159523757Y-121677246D01*
X159733713Y-121710500D01*
X159733714Y-121710500D01*
X159946286Y-121710500D01*
X159946287Y-121710500D01*
X160156243Y-121677246D01*
X160358412Y-121611557D01*
X160547816Y-121515051D01*
X160634138Y-121452335D01*
X160719786Y-121390109D01*
X160719788Y-121390106D01*
X160719792Y-121390104D01*
X160870104Y-121239792D01*
X160870106Y-121239788D01*
X160870109Y-121239786D01*
X160995048Y-121067820D01*
X160995047Y-121067820D01*
X160995051Y-121067816D01*
X160999514Y-121059054D01*
X161047488Y-121008259D01*
X161115308Y-120991463D01*
X161181444Y-121013999D01*
X161220486Y-121059056D01*
X161224951Y-121067820D01*
X161349890Y-121239786D01*
X161500213Y-121390109D01*
X161672179Y-121515048D01*
X161672181Y-121515049D01*
X161672184Y-121515051D01*
X161861588Y-121611557D01*
X162063757Y-121677246D01*
X162273713Y-121710500D01*
X162273714Y-121710500D01*
X162486286Y-121710500D01*
X162486287Y-121710500D01*
X162696243Y-121677246D01*
X162898412Y-121611557D01*
X163087816Y-121515051D01*
X163174138Y-121452335D01*
X163259786Y-121390109D01*
X163259788Y-121390106D01*
X163259792Y-121390104D01*
X163410104Y-121239792D01*
X163410106Y-121239788D01*
X163410109Y-121239786D01*
X163535048Y-121067820D01*
X163535047Y-121067820D01*
X163535051Y-121067816D01*
X163539514Y-121059054D01*
X163587488Y-121008259D01*
X163655308Y-120991463D01*
X163721444Y-121013999D01*
X163760486Y-121059056D01*
X163764951Y-121067820D01*
X163889890Y-121239786D01*
X164040213Y-121390109D01*
X164212179Y-121515048D01*
X164212181Y-121515049D01*
X164212184Y-121515051D01*
X164401588Y-121611557D01*
X164603757Y-121677246D01*
X164813713Y-121710500D01*
X164813714Y-121710500D01*
X165026286Y-121710500D01*
X165026287Y-121710500D01*
X165236243Y-121677246D01*
X165438412Y-121611557D01*
X165627816Y-121515051D01*
X165714138Y-121452335D01*
X165799786Y-121390109D01*
X165799788Y-121390106D01*
X165799792Y-121390104D01*
X165950104Y-121239792D01*
X165950106Y-121239788D01*
X165950109Y-121239786D01*
X166075048Y-121067820D01*
X166075047Y-121067820D01*
X166075051Y-121067816D01*
X166079514Y-121059054D01*
X166127488Y-121008259D01*
X166195308Y-120991463D01*
X166261444Y-121013999D01*
X166300486Y-121059056D01*
X166304951Y-121067820D01*
X166429890Y-121239786D01*
X166580213Y-121390109D01*
X166752179Y-121515048D01*
X166752181Y-121515049D01*
X166752184Y-121515051D01*
X166941588Y-121611557D01*
X167143757Y-121677246D01*
X167353713Y-121710500D01*
X167353714Y-121710500D01*
X167566286Y-121710500D01*
X167566287Y-121710500D01*
X167776243Y-121677246D01*
X167978412Y-121611557D01*
X168167816Y-121515051D01*
X168298811Y-121419878D01*
X168339784Y-121390110D01*
X168339784Y-121390109D01*
X168339792Y-121390104D01*
X168453329Y-121276566D01*
X168514648Y-121243084D01*
X168584340Y-121248068D01*
X168640274Y-121289939D01*
X168657189Y-121320917D01*
X168706202Y-121452328D01*
X168706206Y-121452335D01*
X168792452Y-121567544D01*
X168792455Y-121567547D01*
X168907664Y-121653793D01*
X168907671Y-121653797D01*
X169042517Y-121704091D01*
X169042516Y-121704091D01*
X169049444Y-121704835D01*
X169102127Y-121710500D01*
X170897872Y-121710499D01*
X170957483Y-121704091D01*
X171092331Y-121653796D01*
X171207546Y-121567546D01*
X171293796Y-121452331D01*
X171344091Y-121317483D01*
X171350500Y-121257873D01*
X171350499Y-119462128D01*
X171344091Y-119402517D01*
X171293796Y-119267669D01*
X171254484Y-119215155D01*
X171230067Y-119149693D01*
X171244918Y-119081420D01*
X171266066Y-119053168D01*
X171630520Y-118688716D01*
X171709577Y-118551784D01*
X171750501Y-118399057D01*
X171750501Y-118240942D01*
X171750501Y-118233347D01*
X171750500Y-118233329D01*
X171750500Y-117260944D01*
X171750500Y-117260943D01*
X171750381Y-117260500D01*
X171739416Y-117219577D01*
X171709577Y-117108216D01*
X171709573Y-117108209D01*
X171630524Y-116971290D01*
X171630521Y-116971286D01*
X171630520Y-116971284D01*
X171518716Y-116859480D01*
X171518715Y-116859479D01*
X171514385Y-116855149D01*
X171514374Y-116855139D01*
X164087590Y-109428355D01*
X164087588Y-109428352D01*
X163968717Y-109309481D01*
X163968716Y-109309480D01*
X163867326Y-109250943D01*
X163867325Y-109250942D01*
X163831783Y-109230422D01*
X163775881Y-109215443D01*
X163679057Y-109189499D01*
X163520943Y-109189499D01*
X163513347Y-109189499D01*
X163513331Y-109189500D01*
X151170098Y-109189500D01*
X151140657Y-109180855D01*
X151110671Y-109174332D01*
X151105655Y-109170577D01*
X151103059Y-109169815D01*
X151082417Y-109153181D01*
X150940220Y-109010984D01*
X150906735Y-108949661D01*
X150904079Y-108929928D01*
X150885404Y-108580479D01*
X150881229Y-108542137D01*
X150880500Y-108528714D01*
X150880500Y-108092286D01*
X150880499Y-108092272D01*
X150879750Y-108086586D01*
X150865687Y-107979764D01*
X150807698Y-107839767D01*
X150715451Y-107719549D01*
X150595233Y-107627302D01*
X150595229Y-107627300D01*
X150479998Y-107579570D01*
X150455236Y-107569313D01*
X150440698Y-107567399D01*
X150342727Y-107554500D01*
X150342720Y-107554500D01*
X150117280Y-107554500D01*
X150117272Y-107554500D01*
X150030393Y-107565938D01*
X150004764Y-107569313D01*
X150004762Y-107569313D01*
X149996708Y-107570374D01*
X149996316Y-107567399D01*
X149963684Y-107567399D01*
X149963292Y-107570374D01*
X149955237Y-107569313D01*
X149955236Y-107569313D01*
X149926271Y-107565499D01*
X149842727Y-107554500D01*
X149842720Y-107554500D01*
X149617280Y-107554500D01*
X149617272Y-107554500D01*
X149530393Y-107565938D01*
X149504764Y-107569313D01*
X149504762Y-107569313D01*
X149496708Y-107570374D01*
X149496316Y-107567399D01*
X149463684Y-107567399D01*
X149463292Y-107570374D01*
X149455237Y-107569313D01*
X149455236Y-107569313D01*
X149426271Y-107565499D01*
X149342727Y-107554500D01*
X149342720Y-107554500D01*
X149117280Y-107554500D01*
X149117272Y-107554500D01*
X149030393Y-107565938D01*
X149004764Y-107569313D01*
X149004762Y-107569313D01*
X148996708Y-107570374D01*
X148996316Y-107567399D01*
X148963684Y-107567399D01*
X148963292Y-107570374D01*
X148955237Y-107569313D01*
X148955236Y-107569313D01*
X148926271Y-107565499D01*
X148842727Y-107554500D01*
X148842720Y-107554500D01*
X148617280Y-107554500D01*
X148617272Y-107554500D01*
X148530393Y-107565938D01*
X148504764Y-107569313D01*
X148504762Y-107569313D01*
X148496708Y-107570374D01*
X148496316Y-107567399D01*
X148463684Y-107567399D01*
X148463292Y-107570374D01*
X148455237Y-107569313D01*
X148455236Y-107569313D01*
X148426271Y-107565499D01*
X148342727Y-107554500D01*
X148342720Y-107554500D01*
X148117280Y-107554500D01*
X148117272Y-107554500D01*
X148030393Y-107565938D01*
X148004764Y-107569313D01*
X148004762Y-107569313D01*
X147996708Y-107570374D01*
X147996316Y-107567399D01*
X147963684Y-107567399D01*
X147963292Y-107570374D01*
X147955237Y-107569313D01*
X147955236Y-107569313D01*
X147926271Y-107565499D01*
X147842727Y-107554500D01*
X147842720Y-107554500D01*
X147617280Y-107554500D01*
X147617272Y-107554500D01*
X147530393Y-107565938D01*
X147504764Y-107569313D01*
X147504762Y-107569313D01*
X147496708Y-107570374D01*
X147496316Y-107567399D01*
X147463684Y-107567399D01*
X147463292Y-107570374D01*
X147455237Y-107569313D01*
X147455236Y-107569313D01*
X147426271Y-107565499D01*
X147342727Y-107554500D01*
X147342720Y-107554500D01*
X147117280Y-107554500D01*
X147117272Y-107554500D01*
X147030393Y-107565938D01*
X147004764Y-107569313D01*
X147004762Y-107569313D01*
X146996708Y-107570374D01*
X146996316Y-107567399D01*
X146963684Y-107567399D01*
X146963292Y-107570374D01*
X146955237Y-107569313D01*
X146955236Y-107569313D01*
X146926271Y-107565499D01*
X146842727Y-107554500D01*
X146842720Y-107554500D01*
X146617280Y-107554500D01*
X146617272Y-107554500D01*
X146530393Y-107565938D01*
X146504764Y-107569313D01*
X146504762Y-107569313D01*
X146496708Y-107570374D01*
X146496316Y-107567399D01*
X146463684Y-107567399D01*
X146463292Y-107570374D01*
X146455237Y-107569313D01*
X146455236Y-107569313D01*
X146426271Y-107565499D01*
X146342727Y-107554500D01*
X146342720Y-107554500D01*
X146117280Y-107554500D01*
X146117272Y-107554500D01*
X146030393Y-107565938D01*
X146004764Y-107569313D01*
X146004762Y-107569313D01*
X145996708Y-107570374D01*
X145996316Y-107567399D01*
X145963684Y-107567399D01*
X145963292Y-107570374D01*
X145955237Y-107569313D01*
X145955236Y-107569313D01*
X145926271Y-107565499D01*
X145842727Y-107554500D01*
X145842720Y-107554500D01*
X145617280Y-107554500D01*
X145617272Y-107554500D01*
X145530393Y-107565938D01*
X145504764Y-107569313D01*
X145504762Y-107569313D01*
X145496708Y-107570374D01*
X145496316Y-107567399D01*
X145463684Y-107567399D01*
X145463292Y-107570374D01*
X145455237Y-107569313D01*
X145455236Y-107569313D01*
X145426271Y-107565499D01*
X145342727Y-107554500D01*
X145342720Y-107554500D01*
X145117280Y-107554500D01*
X145117272Y-107554500D01*
X145030393Y-107565938D01*
X145004764Y-107569313D01*
X145004762Y-107569313D01*
X144996708Y-107570374D01*
X144996316Y-107567399D01*
X144963684Y-107567399D01*
X144963292Y-107570374D01*
X144955237Y-107569313D01*
X144955236Y-107569313D01*
X144926271Y-107565499D01*
X144842727Y-107554500D01*
X144842720Y-107554500D01*
X144617280Y-107554500D01*
X144617272Y-107554500D01*
X144530393Y-107565938D01*
X144504764Y-107569313D01*
X144504762Y-107569313D01*
X144496708Y-107570374D01*
X144496316Y-107567399D01*
X144463684Y-107567399D01*
X144463292Y-107570374D01*
X144455237Y-107569313D01*
X144455236Y-107569313D01*
X144426271Y-107565499D01*
X144342727Y-107554500D01*
X144342720Y-107554500D01*
X144117280Y-107554500D01*
X144117272Y-107554500D01*
X144030393Y-107565938D01*
X144004764Y-107569313D01*
X144004762Y-107569313D01*
X143996708Y-107570374D01*
X143996316Y-107567399D01*
X143963684Y-107567399D01*
X143963292Y-107570374D01*
X143955237Y-107569313D01*
X143955236Y-107569313D01*
X143926271Y-107565499D01*
X143842727Y-107554500D01*
X143842720Y-107554500D01*
X143617280Y-107554500D01*
X143617272Y-107554500D01*
X143530393Y-107565938D01*
X143504764Y-107569313D01*
X143504762Y-107569313D01*
X143496708Y-107570374D01*
X143496316Y-107567399D01*
X143463684Y-107567399D01*
X143463292Y-107570374D01*
X143455237Y-107569313D01*
X143455236Y-107569313D01*
X143426271Y-107565499D01*
X143342727Y-107554500D01*
X143342720Y-107554500D01*
X143117280Y-107554500D01*
X143117272Y-107554500D01*
X143030393Y-107565938D01*
X143004764Y-107569313D01*
X143004762Y-107569313D01*
X142996708Y-107570374D01*
X142996316Y-107567399D01*
X142963684Y-107567399D01*
X142963292Y-107570374D01*
X142955237Y-107569313D01*
X142955236Y-107569313D01*
X142926271Y-107565499D01*
X142842727Y-107554500D01*
X142842720Y-107554500D01*
X142617280Y-107554500D01*
X142617272Y-107554500D01*
X142530393Y-107565938D01*
X142504764Y-107569313D01*
X142504762Y-107569313D01*
X142496708Y-107570374D01*
X142496316Y-107567399D01*
X142463684Y-107567399D01*
X142463292Y-107570374D01*
X142455237Y-107569313D01*
X142455236Y-107569313D01*
X142426271Y-107565499D01*
X142342727Y-107554500D01*
X142342720Y-107554500D01*
X142117280Y-107554500D01*
X142117272Y-107554500D01*
X142030393Y-107565938D01*
X142004764Y-107569313D01*
X142004762Y-107569313D01*
X141996708Y-107570374D01*
X141996316Y-107567399D01*
X141963684Y-107567399D01*
X141963292Y-107570374D01*
X141955237Y-107569313D01*
X141955236Y-107569313D01*
X141926271Y-107565499D01*
X141842727Y-107554500D01*
X141842720Y-107554500D01*
X141617280Y-107554500D01*
X141617272Y-107554500D01*
X141530393Y-107565938D01*
X141504764Y-107569313D01*
X141504762Y-107569313D01*
X141496708Y-107570374D01*
X141496316Y-107567399D01*
X141463684Y-107567399D01*
X141463292Y-107570374D01*
X141455237Y-107569313D01*
X141455236Y-107569313D01*
X141426271Y-107565499D01*
X141342727Y-107554500D01*
X141342720Y-107554500D01*
X141117280Y-107554500D01*
X141117272Y-107554500D01*
X141030393Y-107565938D01*
X141004764Y-107569313D01*
X141004762Y-107569313D01*
X140996708Y-107570374D01*
X140996316Y-107567399D01*
X140963684Y-107567399D01*
X140963292Y-107570374D01*
X140955237Y-107569313D01*
X140955236Y-107569313D01*
X140926271Y-107565499D01*
X140842727Y-107554500D01*
X140842720Y-107554500D01*
X140617280Y-107554500D01*
X140617272Y-107554500D01*
X140530393Y-107565938D01*
X140504764Y-107569313D01*
X140504762Y-107569313D01*
X140496708Y-107570374D01*
X140496316Y-107567399D01*
X140463684Y-107567399D01*
X140463292Y-107570374D01*
X140455237Y-107569313D01*
X140455236Y-107569313D01*
X140426271Y-107565499D01*
X140342727Y-107554500D01*
X140342720Y-107554500D01*
X140117280Y-107554500D01*
X140117272Y-107554500D01*
X140030393Y-107565938D01*
X140004764Y-107569313D01*
X140004762Y-107569313D01*
X139996708Y-107570374D01*
X139996316Y-107567399D01*
X139963684Y-107567399D01*
X139963292Y-107570374D01*
X139955237Y-107569313D01*
X139955236Y-107569313D01*
X139926271Y-107565499D01*
X139842727Y-107554500D01*
X139842720Y-107554500D01*
X139617280Y-107554500D01*
X139617272Y-107554500D01*
X139530393Y-107565938D01*
X139504764Y-107569313D01*
X139504762Y-107569313D01*
X139496708Y-107570374D01*
X139496316Y-107567399D01*
X139463684Y-107567399D01*
X139463292Y-107570374D01*
X139455237Y-107569313D01*
X139455236Y-107569313D01*
X139426271Y-107565499D01*
X139342727Y-107554500D01*
X139342720Y-107554500D01*
X139117280Y-107554500D01*
X139117272Y-107554500D01*
X139030393Y-107565938D01*
X139004764Y-107569313D01*
X139004762Y-107569313D01*
X138996708Y-107570374D01*
X138996316Y-107567399D01*
X138963684Y-107567399D01*
X138963292Y-107570374D01*
X138955237Y-107569313D01*
X138955236Y-107569313D01*
X138926271Y-107565499D01*
X138842727Y-107554500D01*
X138842720Y-107554500D01*
X138617280Y-107554500D01*
X138617272Y-107554500D01*
X138530393Y-107565938D01*
X138504764Y-107569313D01*
X138504762Y-107569313D01*
X138496708Y-107570374D01*
X138496316Y-107567399D01*
X138463684Y-107567399D01*
X138463292Y-107570374D01*
X138455237Y-107569313D01*
X138455236Y-107569313D01*
X138426271Y-107565499D01*
X138342727Y-107554500D01*
X138342720Y-107554500D01*
X138117280Y-107554500D01*
X138117272Y-107554500D01*
X138030393Y-107565938D01*
X138004764Y-107569313D01*
X138004762Y-107569313D01*
X137996708Y-107570374D01*
X137996316Y-107567399D01*
X137963684Y-107567399D01*
X137963292Y-107570374D01*
X137955237Y-107569313D01*
X137955236Y-107569313D01*
X137926271Y-107565499D01*
X137842727Y-107554500D01*
X137842720Y-107554500D01*
X137617280Y-107554500D01*
X137617272Y-107554500D01*
X137530393Y-107565938D01*
X137504764Y-107569313D01*
X137504762Y-107569313D01*
X137496708Y-107570374D01*
X137496316Y-107567399D01*
X137463684Y-107567399D01*
X137463292Y-107570374D01*
X137455237Y-107569313D01*
X137455236Y-107569313D01*
X137426271Y-107565499D01*
X137342727Y-107554500D01*
X137342720Y-107554500D01*
X137117280Y-107554500D01*
X137117272Y-107554500D01*
X137030393Y-107565938D01*
X137004764Y-107569313D01*
X137004762Y-107569313D01*
X136996708Y-107570374D01*
X136996316Y-107567399D01*
X136963684Y-107567399D01*
X136963292Y-107570374D01*
X136955237Y-107569313D01*
X136955236Y-107569313D01*
X136926271Y-107565499D01*
X136842727Y-107554500D01*
X136842720Y-107554500D01*
X136617280Y-107554500D01*
X136617272Y-107554500D01*
X136530393Y-107565938D01*
X136504764Y-107569313D01*
X136504762Y-107569313D01*
X136496708Y-107570374D01*
X136496316Y-107567399D01*
X136463684Y-107567399D01*
X136463292Y-107570374D01*
X136455237Y-107569313D01*
X136455236Y-107569313D01*
X136426271Y-107565499D01*
X136342727Y-107554500D01*
X136342720Y-107554500D01*
X136117280Y-107554500D01*
X136117272Y-107554500D01*
X136030393Y-107565938D01*
X136004764Y-107569313D01*
X136004762Y-107569313D01*
X135996708Y-107570374D01*
X135996316Y-107567399D01*
X135963684Y-107567399D01*
X135963292Y-107570374D01*
X135955237Y-107569313D01*
X135955236Y-107569313D01*
X135926271Y-107565499D01*
X135842727Y-107554500D01*
X135842720Y-107554500D01*
X135617280Y-107554500D01*
X135617272Y-107554500D01*
X135530393Y-107565938D01*
X135504764Y-107569313D01*
X135504762Y-107569313D01*
X135496708Y-107570374D01*
X135496316Y-107567399D01*
X135463684Y-107567399D01*
X135463292Y-107570374D01*
X135455237Y-107569313D01*
X135455236Y-107569313D01*
X135426271Y-107565499D01*
X135342727Y-107554500D01*
X135342720Y-107554500D01*
X135117280Y-107554500D01*
X135117272Y-107554500D01*
X135030393Y-107565938D01*
X135004764Y-107569313D01*
X135004762Y-107569313D01*
X134996708Y-107570374D01*
X134996316Y-107567399D01*
X134963684Y-107567399D01*
X134963292Y-107570374D01*
X134955237Y-107569313D01*
X134955236Y-107569313D01*
X134926271Y-107565499D01*
X134842727Y-107554500D01*
X134842720Y-107554500D01*
X134617280Y-107554500D01*
X134617272Y-107554500D01*
X134530393Y-107565938D01*
X134504764Y-107569313D01*
X134504762Y-107569313D01*
X134496708Y-107570374D01*
X134496316Y-107567399D01*
X134463684Y-107567399D01*
X134463292Y-107570374D01*
X134455237Y-107569313D01*
X134455236Y-107569313D01*
X134426271Y-107565499D01*
X134342727Y-107554500D01*
X134342720Y-107554500D01*
X134117280Y-107554500D01*
X134117272Y-107554500D01*
X134030393Y-107565938D01*
X134004764Y-107569313D01*
X134004762Y-107569313D01*
X133996708Y-107570374D01*
X133996316Y-107567399D01*
X133963684Y-107567399D01*
X133963292Y-107570374D01*
X133955237Y-107569313D01*
X133955236Y-107569313D01*
X133926271Y-107565499D01*
X133842727Y-107554500D01*
X133842720Y-107554500D01*
X133617280Y-107554500D01*
X133617272Y-107554500D01*
X133530393Y-107565938D01*
X133504764Y-107569313D01*
X133504762Y-107569313D01*
X133496708Y-107570374D01*
X133496316Y-107567399D01*
X133463684Y-107567399D01*
X133463292Y-107570374D01*
X133455237Y-107569313D01*
X133455236Y-107569313D01*
X133426271Y-107565499D01*
X133342727Y-107554500D01*
X133342720Y-107554500D01*
X133117280Y-107554500D01*
X133117272Y-107554500D01*
X133030393Y-107565938D01*
X133004764Y-107569313D01*
X133004762Y-107569313D01*
X132996708Y-107570374D01*
X132996316Y-107567399D01*
X132963684Y-107567399D01*
X132963292Y-107570374D01*
X132955237Y-107569313D01*
X132955236Y-107569313D01*
X132926271Y-107565499D01*
X132842727Y-107554500D01*
X132842720Y-107554500D01*
X132617280Y-107554500D01*
X132617272Y-107554500D01*
X132530393Y-107565938D01*
X132504764Y-107569313D01*
X132504762Y-107569313D01*
X132496708Y-107570374D01*
X132496316Y-107567399D01*
X132463684Y-107567399D01*
X132463292Y-107570374D01*
X132455237Y-107569313D01*
X132455236Y-107569313D01*
X132426271Y-107565499D01*
X132342727Y-107554500D01*
X132342720Y-107554500D01*
X132117280Y-107554500D01*
X132117272Y-107554500D01*
X132030393Y-107565938D01*
X132004764Y-107569313D01*
X132004762Y-107569313D01*
X131996708Y-107570374D01*
X131996316Y-107567399D01*
X131963684Y-107567399D01*
X131963292Y-107570374D01*
X131955237Y-107569313D01*
X131955236Y-107569313D01*
X131926271Y-107565499D01*
X131842727Y-107554500D01*
X131842720Y-107554500D01*
X131617280Y-107554500D01*
X131617272Y-107554500D01*
X131530393Y-107565938D01*
X131504764Y-107569313D01*
X131504762Y-107569313D01*
X131496708Y-107570374D01*
X131496316Y-107567399D01*
X131463684Y-107567399D01*
X131463292Y-107570374D01*
X131455237Y-107569313D01*
X131455236Y-107569313D01*
X131426271Y-107565499D01*
X131342727Y-107554500D01*
X131342720Y-107554500D01*
X131117280Y-107554500D01*
X131117272Y-107554500D01*
X131030393Y-107565938D01*
X131004764Y-107569313D01*
X131004762Y-107569313D01*
X130996708Y-107570374D01*
X130996316Y-107567399D01*
X130963684Y-107567399D01*
X130963292Y-107570374D01*
X130955237Y-107569313D01*
X130955236Y-107569313D01*
X130926271Y-107565499D01*
X130842727Y-107554500D01*
X130842720Y-107554500D01*
X130617280Y-107554500D01*
X130617272Y-107554500D01*
X130530393Y-107565938D01*
X130504764Y-107569313D01*
X130504762Y-107569313D01*
X130496708Y-107570374D01*
X130496316Y-107567399D01*
X130463684Y-107567399D01*
X130463292Y-107570374D01*
X130455237Y-107569313D01*
X130455236Y-107569313D01*
X130426271Y-107565499D01*
X130342727Y-107554500D01*
X130342720Y-107554500D01*
X130117280Y-107554500D01*
X130117272Y-107554500D01*
X130030393Y-107565938D01*
X130004764Y-107569313D01*
X130004762Y-107569313D01*
X129996708Y-107570374D01*
X129996316Y-107567399D01*
X129963684Y-107567399D01*
X129963292Y-107570374D01*
X129955237Y-107569313D01*
X129955236Y-107569313D01*
X129926271Y-107565499D01*
X129842727Y-107554500D01*
X129842720Y-107554500D01*
X129617280Y-107554500D01*
X129617272Y-107554500D01*
X129530393Y-107565938D01*
X129504764Y-107569313D01*
X129504762Y-107569313D01*
X129496708Y-107570374D01*
X129496316Y-107567399D01*
X129463684Y-107567399D01*
X129463292Y-107570374D01*
X129455237Y-107569313D01*
X129455236Y-107569313D01*
X129426271Y-107565499D01*
X129342727Y-107554500D01*
X129342720Y-107554500D01*
X129117280Y-107554500D01*
X129117272Y-107554500D01*
X129030393Y-107565938D01*
X129004764Y-107569313D01*
X129004762Y-107569313D01*
X128996708Y-107570374D01*
X128996316Y-107567399D01*
X128963684Y-107567399D01*
X128963292Y-107570374D01*
X128955237Y-107569313D01*
X128955236Y-107569313D01*
X128926271Y-107565499D01*
X128842727Y-107554500D01*
X128842720Y-107554500D01*
X128617280Y-107554500D01*
X128617272Y-107554500D01*
X128530393Y-107565938D01*
X128504764Y-107569313D01*
X128504762Y-107569313D01*
X128496708Y-107570374D01*
X128496316Y-107567399D01*
X128463684Y-107567399D01*
X128463292Y-107570374D01*
X128455237Y-107569313D01*
X128455236Y-107569313D01*
X128426271Y-107565499D01*
X128342727Y-107554500D01*
X128342720Y-107554500D01*
X128117280Y-107554500D01*
X128117272Y-107554500D01*
X128030393Y-107565938D01*
X128004764Y-107569313D01*
X128004762Y-107569313D01*
X127996708Y-107570374D01*
X127996316Y-107567399D01*
X127963684Y-107567399D01*
X127963292Y-107570374D01*
X127955237Y-107569313D01*
X127955236Y-107569313D01*
X127926271Y-107565499D01*
X127842727Y-107554500D01*
X127842720Y-107554500D01*
X127617280Y-107554500D01*
X127617272Y-107554500D01*
X127530393Y-107565938D01*
X127504764Y-107569313D01*
X127504762Y-107569313D01*
X127496708Y-107570374D01*
X127496316Y-107567399D01*
X127463684Y-107567399D01*
X127463292Y-107570374D01*
X127455237Y-107569313D01*
X127455236Y-107569313D01*
X127426271Y-107565499D01*
X127342727Y-107554500D01*
X127342720Y-107554500D01*
X127117280Y-107554500D01*
X127117272Y-107554500D01*
X127030393Y-107565938D01*
X127004764Y-107569313D01*
X127004762Y-107569313D01*
X126996708Y-107570374D01*
X126996316Y-107567399D01*
X126963684Y-107567399D01*
X126963292Y-107570374D01*
X126955237Y-107569313D01*
X126955236Y-107569313D01*
X126926271Y-107565499D01*
X126842727Y-107554500D01*
X126842720Y-107554500D01*
X126617280Y-107554500D01*
X126617272Y-107554500D01*
X126530393Y-107565938D01*
X126504764Y-107569313D01*
X126504762Y-107569313D01*
X126496708Y-107570374D01*
X126496316Y-107567399D01*
X126463684Y-107567399D01*
X126463292Y-107570374D01*
X126455237Y-107569313D01*
X126455236Y-107569313D01*
X126426271Y-107565499D01*
X126342727Y-107554500D01*
X126342720Y-107554500D01*
X126117280Y-107554500D01*
X126117272Y-107554500D01*
X126030393Y-107565938D01*
X126004764Y-107569313D01*
X126004762Y-107569313D01*
X125996708Y-107570374D01*
X125996316Y-107567399D01*
X125963684Y-107567399D01*
X125963292Y-107570374D01*
X125955237Y-107569313D01*
X125955236Y-107569313D01*
X125926271Y-107565499D01*
X125842727Y-107554500D01*
X125842720Y-107554500D01*
X125617280Y-107554500D01*
X125617272Y-107554500D01*
X125530393Y-107565938D01*
X125504764Y-107569313D01*
X125504762Y-107569313D01*
X125496708Y-107570374D01*
X125496316Y-107567399D01*
X125463684Y-107567399D01*
X125463292Y-107570374D01*
X125455237Y-107569313D01*
X125455236Y-107569313D01*
X125426271Y-107565499D01*
X125342727Y-107554500D01*
X125342720Y-107554500D01*
X125117280Y-107554500D01*
X125117272Y-107554500D01*
X125030393Y-107565938D01*
X125004764Y-107569313D01*
X125004762Y-107569313D01*
X124996708Y-107570374D01*
X124996316Y-107567399D01*
X124963684Y-107567399D01*
X124963292Y-107570374D01*
X124955237Y-107569313D01*
X124955236Y-107569313D01*
X124926271Y-107565499D01*
X124842727Y-107554500D01*
X124842720Y-107554500D01*
X124617280Y-107554500D01*
X124617272Y-107554500D01*
X124530393Y-107565938D01*
X124504764Y-107569313D01*
X124504762Y-107569313D01*
X124496708Y-107570374D01*
X124496316Y-107567399D01*
X124463684Y-107567399D01*
X124463292Y-107570374D01*
X124455237Y-107569313D01*
X124455236Y-107569313D01*
X124426271Y-107565499D01*
X124342727Y-107554500D01*
X124342720Y-107554500D01*
X124117280Y-107554500D01*
X124117272Y-107554500D01*
X124030393Y-107565938D01*
X124004764Y-107569313D01*
X124004762Y-107569313D01*
X123996708Y-107570374D01*
X123996316Y-107567399D01*
X123963684Y-107567399D01*
X123963292Y-107570374D01*
X123955237Y-107569313D01*
X123955236Y-107569313D01*
X123926271Y-107565499D01*
X123842727Y-107554500D01*
X123842720Y-107554500D01*
X123617280Y-107554500D01*
X123617272Y-107554500D01*
X123504764Y-107569313D01*
X123504763Y-107569313D01*
X123364770Y-107627300D01*
X123244549Y-107719549D01*
X123152300Y-107839770D01*
X123094313Y-107979763D01*
X123094313Y-107979764D01*
X123079500Y-108092272D01*
X123079500Y-108959903D01*
X123070855Y-108989343D01*
X123064332Y-109019330D01*
X123060577Y-109024345D01*
X123059815Y-109026942D01*
X123043181Y-109047584D01*
X122937584Y-109153181D01*
X122876261Y-109186666D01*
X122849903Y-109189500D01*
X111896669Y-109189500D01*
X111896653Y-109189499D01*
X111889057Y-109189499D01*
X111730943Y-109189499D01*
X111651010Y-109210917D01*
X111578216Y-109230422D01*
X111542672Y-109250944D01*
X111542671Y-109250943D01*
X111441287Y-109309477D01*
X111441282Y-109309481D01*
X111329478Y-109421286D01*
X104296546Y-116454217D01*
X104235223Y-116487702D01*
X104189467Y-116489009D01*
X104066292Y-116469500D01*
X104066287Y-116469500D01*
X103853713Y-116469500D01*
X103824506Y-116474126D01*
X103643760Y-116502753D01*
X103599500Y-116517134D01*
X103482817Y-116555047D01*
X103441585Y-116568444D01*
X103252179Y-116664951D01*
X103080213Y-116789890D01*
X102929890Y-116940213D01*
X102804951Y-117112179D01*
X102708444Y-117301585D01*
X102642753Y-117503760D01*
X102609500Y-117713713D01*
X101500500Y-117713713D01*
X101500500Y-103003750D01*
X101500726Y-102996263D01*
X101518271Y-102706205D01*
X101520076Y-102691340D01*
X101571780Y-102409201D01*
X101575364Y-102394663D01*
X101652096Y-102148422D01*
X101660696Y-102120822D01*
X101665998Y-102106841D01*
X101783731Y-101845249D01*
X101790676Y-101832016D01*
X101939080Y-101586526D01*
X101947567Y-101574230D01*
X102124480Y-101348417D01*
X102134395Y-101337226D01*
X102337226Y-101134395D01*
X102348417Y-101124480D01*
X102574230Y-100947567D01*
X102586526Y-100939080D01*
X102832016Y-100790676D01*
X102845249Y-100783731D01*
X103106841Y-100665998D01*
X103120822Y-100660696D01*
X103394668Y-100575362D01*
X103409197Y-100571780D01*
X103691344Y-100520075D01*
X103706201Y-100518271D01*
X103996264Y-100500726D01*
X104003751Y-100500500D01*
X104065892Y-100500500D01*
X169934108Y-100500500D01*
X169996249Y-100500500D01*
X170003736Y-100500726D01*
G37*
%TD.AperFunction*%
%TD*%
%TA.AperFunction,NonConductor*%
G36*
X158511080Y-112738185D02*
G01*
X158531722Y-112754819D01*
X161503181Y-115726278D01*
X161536666Y-115787601D01*
X161539500Y-115813959D01*
X161539500Y-115980903D01*
X161519815Y-116047942D01*
X161467011Y-116093697D01*
X161397853Y-116103641D01*
X161334297Y-116074616D01*
X161327819Y-116068584D01*
X158189416Y-112930181D01*
X158178803Y-112910744D01*
X158164303Y-112894011D01*
X158162386Y-112880679D01*
X158155931Y-112868858D01*
X158157510Y-112846771D01*
X158154359Y-112824853D01*
X158159954Y-112812601D01*
X158160915Y-112799166D01*
X158174185Y-112781439D01*
X158183384Y-112761297D01*
X158194715Y-112754014D01*
X158202787Y-112743233D01*
X158223532Y-112735495D01*
X158242162Y-112723523D01*
X158264080Y-112720371D01*
X158268251Y-112718816D01*
X158277097Y-112718500D01*
X158444041Y-112718500D01*
X158511080Y-112738185D01*
G37*
%TD.AperFunction*%
%TA.AperFunction,NonConductor*%
G36*
X156487080Y-113394185D02*
G01*
X156507722Y-113410819D01*
X158963181Y-115866278D01*
X158996666Y-115927601D01*
X158999500Y-115953959D01*
X158999500Y-116174764D01*
X158979815Y-116241803D01*
X158927011Y-116287558D01*
X158857853Y-116297502D01*
X158794297Y-116268477D01*
X158787819Y-116262445D01*
X156111554Y-113586181D01*
X156100941Y-113566744D01*
X156086441Y-113550011D01*
X156084524Y-113536679D01*
X156078069Y-113524858D01*
X156079648Y-113502771D01*
X156076497Y-113480853D01*
X156082092Y-113468601D01*
X156083053Y-113455166D01*
X156096323Y-113437439D01*
X156105522Y-113417297D01*
X156116853Y-113410014D01*
X156124925Y-113399233D01*
X156145670Y-113391495D01*
X156164300Y-113379523D01*
X156186218Y-113376371D01*
X156190389Y-113374816D01*
X156199235Y-113374500D01*
X156420041Y-113374500D01*
X156487080Y-113394185D01*
G37*
%TD.AperFunction*%
%TA.AperFunction,NonConductor*%
G36*
X154409218Y-114050185D02*
G01*
X154429860Y-114066819D01*
X156423181Y-116060140D01*
X156456666Y-116121463D01*
X156459500Y-116147821D01*
X156459500Y-116230903D01*
X156439815Y-116297942D01*
X156387011Y-116343697D01*
X156317853Y-116353641D01*
X156254297Y-116324616D01*
X156247819Y-116318584D01*
X154171416Y-114242181D01*
X154160803Y-114222744D01*
X154146303Y-114206011D01*
X154144386Y-114192679D01*
X154137931Y-114180858D01*
X154139510Y-114158771D01*
X154136359Y-114136853D01*
X154141954Y-114124601D01*
X154142915Y-114111166D01*
X154156185Y-114093439D01*
X154165384Y-114073297D01*
X154176715Y-114066014D01*
X154184787Y-114055233D01*
X154205532Y-114047495D01*
X154224162Y-114035523D01*
X154246080Y-114032371D01*
X154250251Y-114030816D01*
X154259097Y-114030500D01*
X154342179Y-114030500D01*
X154409218Y-114050185D01*
G37*
%TD.AperFunction*%
%TA.AperFunction,NonConductor*%
G36*
X140085703Y-111915384D02*
G01*
X140092181Y-111921416D01*
X140123181Y-111952416D01*
X140156666Y-112013739D01*
X140159500Y-112040097D01*
X140159500Y-116437115D01*
X140151575Y-116464103D01*
X140146778Y-116491825D01*
X140141862Y-116497180D01*
X140139815Y-116504154D01*
X140118558Y-116522572D01*
X140099535Y-116543301D01*
X140092504Y-116545149D01*
X140087011Y-116549909D01*
X140059165Y-116553912D01*
X140031961Y-116561064D01*
X140021735Y-116559294D01*
X140017853Y-116559853D01*
X139997184Y-116555047D01*
X139981524Y-116549959D01*
X139966182Y-116544974D01*
X139908508Y-116505538D01*
X139881308Y-116441180D01*
X139880500Y-116427043D01*
X139880500Y-112009097D01*
X139900185Y-111942058D01*
X139952989Y-111896303D01*
X140022147Y-111886359D01*
X140085703Y-111915384D01*
G37*
%TD.AperFunction*%
%TA.AperFunction,NonConductor*%
G36*
X137535703Y-110345384D02*
G01*
X137542181Y-110351416D01*
X137597981Y-110407216D01*
X137631466Y-110468539D01*
X137634300Y-110494897D01*
X137634300Y-116441924D01*
X137626374Y-116468914D01*
X137621577Y-116496636D01*
X137616662Y-116501990D01*
X137614615Y-116508963D01*
X137593357Y-116527383D01*
X137574332Y-116548112D01*
X137567302Y-116549959D01*
X137561811Y-116554718D01*
X137533965Y-116558721D01*
X137506758Y-116565873D01*
X137496534Y-116564103D01*
X137492653Y-116564662D01*
X137471981Y-116559855D01*
X137470254Y-116559294D01*
X137416180Y-116541723D01*
X137358506Y-116502286D01*
X137331308Y-116437927D01*
X137330500Y-116423793D01*
X137330500Y-110439097D01*
X137350185Y-110372058D01*
X137402989Y-110326303D01*
X137472147Y-110316359D01*
X137535703Y-110345384D01*
G37*
%TD.AperFunction*%
%TA.AperFunction,Conductor*%
%TO.N,Net-(J1-Pin_39)*%
G36*
X131237457Y-108649117D02*
G01*
X131238618Y-108652615D01*
X131319772Y-109148273D01*
X131318747Y-109155282D01*
X131271282Y-109252838D01*
X131269034Y-109255992D01*
X131211541Y-109313486D01*
X131203268Y-109316913D01*
X131194995Y-109313486D01*
X131088274Y-109206765D01*
X131084857Y-109198970D01*
X131080508Y-109092442D01*
X131080499Y-109092059D01*
X131080499Y-109080224D01*
X131081043Y-109076705D01*
X131215919Y-108650968D01*
X131221684Y-108644120D01*
X131230606Y-108643351D01*
X131237457Y-108649117D01*
G37*
%TD.AperFunction*%
%TD*%
%TA.AperFunction,Conductor*%
%TO.N,Net-(J1-Pin_54)*%
G36*
X123737807Y-108648012D02*
G01*
X123738947Y-108651383D01*
X123825700Y-109147105D01*
X123824761Y-109154106D01*
X123793462Y-109220588D01*
X123791149Y-109223877D01*
X123708611Y-109306415D01*
X123700338Y-109309842D01*
X123692065Y-109306415D01*
X123595088Y-109209438D01*
X123591714Y-109202281D01*
X123586428Y-109147105D01*
X123580227Y-109082372D01*
X123580719Y-109077728D01*
X123716269Y-108649863D01*
X123722034Y-108643015D01*
X123730956Y-108642246D01*
X123737807Y-108648012D01*
G37*
%TD.AperFunction*%
%TD*%
%TA.AperFunction,Conductor*%
%TO.N,Net-(J1-Pin_7)*%
G36*
X147240229Y-108640882D02*
G01*
X147241249Y-108643346D01*
X147373469Y-109105826D01*
X147373633Y-109111617D01*
X147332059Y-109295875D01*
X147326895Y-109303191D01*
X147320646Y-109305000D01*
X147139354Y-109305000D01*
X147131081Y-109301573D01*
X147127941Y-109295875D01*
X147086366Y-109111613D01*
X147086529Y-109105829D01*
X147218751Y-108643345D01*
X147224320Y-108636333D01*
X147233216Y-108635313D01*
X147240229Y-108640882D01*
G37*
%TD.AperFunction*%
%TD*%
%TA.AperFunction,Conductor*%
%TO.N,Net-(J1-Pin_33)*%
G36*
X134237807Y-108648012D02*
G01*
X134238947Y-108651383D01*
X134325700Y-109147105D01*
X134324761Y-109154106D01*
X134302358Y-109201692D01*
X134300045Y-109204981D01*
X134203611Y-109301415D01*
X134195338Y-109304842D01*
X134187065Y-109301415D01*
X134095088Y-109209438D01*
X134091714Y-109202281D01*
X134086428Y-109147105D01*
X134080551Y-109085752D01*
X134080499Y-109084676D01*
X134080499Y-109080224D01*
X134081043Y-109076705D01*
X134216269Y-108649863D01*
X134222034Y-108643015D01*
X134230956Y-108642246D01*
X134237807Y-108648012D01*
G37*
%TD.AperFunction*%
%TD*%
%TA.AperFunction,Conductor*%
%TO.N,Net-(J1-Pin_30)*%
G36*
X135592404Y-108601134D02*
G01*
X135720888Y-108604068D01*
X135729080Y-108607683D01*
X135732186Y-108614002D01*
X135813783Y-109149452D01*
X135812671Y-109156470D01*
X135726668Y-109327556D01*
X135719890Y-109333409D01*
X135710959Y-109332755D01*
X135707941Y-109330574D01*
X135581416Y-109204049D01*
X135577989Y-109195776D01*
X135577989Y-109195737D01*
X135578246Y-109119564D01*
X135578470Y-109117338D01*
X135580500Y-109107133D01*
X135580499Y-108612830D01*
X135583926Y-108604559D01*
X135592199Y-108601132D01*
X135592404Y-108601134D01*
G37*
%TD.AperFunction*%
%TD*%
%TA.AperFunction,Conductor*%
%TO.N,Net-(J1-Pin_3)*%
G36*
X149240229Y-108640882D02*
G01*
X149241249Y-108643346D01*
X149373469Y-109105826D01*
X149373633Y-109111617D01*
X149332059Y-109295875D01*
X149326895Y-109303191D01*
X149320646Y-109305000D01*
X149139354Y-109305000D01*
X149131081Y-109301573D01*
X149127941Y-109295875D01*
X149086366Y-109111613D01*
X149086529Y-109105829D01*
X149218751Y-108643345D01*
X149224320Y-108636333D01*
X149233216Y-108635313D01*
X149240229Y-108640882D01*
G37*
%TD.AperFunction*%
%TD*%
%TA.AperFunction,Conductor*%
%TO.N,Net-(J1-Pin_5)*%
G36*
X148240229Y-108640882D02*
G01*
X148241249Y-108643346D01*
X148373469Y-109105826D01*
X148373633Y-109111617D01*
X148332059Y-109295875D01*
X148326895Y-109303191D01*
X148320646Y-109305000D01*
X148139354Y-109305000D01*
X148131081Y-109301573D01*
X148127941Y-109295875D01*
X148086366Y-109111613D01*
X148086529Y-109105829D01*
X148218751Y-108643345D01*
X148224320Y-108636333D01*
X148233216Y-108635313D01*
X148240229Y-108640882D01*
G37*
%TD.AperFunction*%
%TD*%
%TA.AperFunction,Conductor*%
%TO.N,Net-(J1-Pin_13)*%
G36*
X144240229Y-108640882D02*
G01*
X144241249Y-108643346D01*
X144373469Y-109105826D01*
X144373633Y-109111617D01*
X144332059Y-109295875D01*
X144326895Y-109303191D01*
X144320646Y-109305000D01*
X144139354Y-109305000D01*
X144131081Y-109301573D01*
X144127941Y-109295875D01*
X144086366Y-109111613D01*
X144086529Y-109105829D01*
X144218751Y-108643345D01*
X144224320Y-108636333D01*
X144233216Y-108635313D01*
X144240229Y-108640882D01*
G37*
%TD.AperFunction*%
%TD*%
%TA.AperFunction,Conductor*%
%TO.N,Net-(J1-Pin_37)*%
G36*
X132237457Y-108649117D02*
G01*
X132238618Y-108652615D01*
X132319772Y-109148272D01*
X132318747Y-109155281D01*
X132300822Y-109192122D01*
X132298574Y-109195276D01*
X132195953Y-109297898D01*
X132187680Y-109301325D01*
X132179407Y-109297898D01*
X132088274Y-109206765D01*
X132084857Y-109198970D01*
X132080508Y-109092442D01*
X132080499Y-109092059D01*
X132080499Y-109080224D01*
X132081043Y-109076705D01*
X132215919Y-108650968D01*
X132221684Y-108644120D01*
X132230606Y-108643351D01*
X132237457Y-108649117D01*
G37*
%TD.AperFunction*%
%TD*%
%TA.AperFunction,Conductor*%
%TO.N,Net-(J1-Pin_16)*%
G36*
X142740229Y-108640882D02*
G01*
X142741249Y-108643346D01*
X142873469Y-109105826D01*
X142873633Y-109111617D01*
X142834447Y-109285293D01*
X142832059Y-109295875D01*
X142826895Y-109303191D01*
X142820646Y-109305000D01*
X142670955Y-109305000D01*
X142662682Y-109301573D01*
X142648825Y-109287716D01*
X142646966Y-109285293D01*
X142642462Y-109277492D01*
X142642458Y-109277487D01*
X142620747Y-109255776D01*
X142617608Y-109250080D01*
X142586366Y-109111613D01*
X142586529Y-109105829D01*
X142718751Y-108643345D01*
X142724320Y-108636333D01*
X142733216Y-108635313D01*
X142740229Y-108640882D01*
G37*
%TD.AperFunction*%
%TD*%
%TA.AperFunction,Conductor*%
%TO.N,Net-(J1-Pin_53)*%
G36*
X124237807Y-108648012D02*
G01*
X124238947Y-108651383D01*
X124325700Y-109147105D01*
X124324761Y-109154106D01*
X124293462Y-109220588D01*
X124291149Y-109223877D01*
X124208611Y-109306415D01*
X124200338Y-109309842D01*
X124192065Y-109306415D01*
X124095088Y-109209438D01*
X124091714Y-109202281D01*
X124086428Y-109147105D01*
X124080551Y-109085752D01*
X124080499Y-109084676D01*
X124080499Y-109080224D01*
X124081043Y-109076705D01*
X124216269Y-108649863D01*
X124222034Y-108643015D01*
X124230956Y-108642246D01*
X124237807Y-108648012D01*
G37*
%TD.AperFunction*%
%TD*%
%TA.AperFunction,Conductor*%
%TO.N,Net-(J1-Pin_27)*%
G36*
X137375882Y-108604372D02*
G01*
X137379497Y-108612565D01*
X137379500Y-108612832D01*
X137379500Y-109107132D01*
X137381527Y-109117322D01*
X137381752Y-109119564D01*
X137382010Y-109195736D01*
X137378611Y-109204021D01*
X137252058Y-109330574D01*
X137243785Y-109334001D01*
X137235512Y-109330574D01*
X137233332Y-109327558D01*
X137147328Y-109156471D01*
X137146216Y-109149453D01*
X137227813Y-108614002D01*
X137232447Y-108606340D01*
X137239109Y-108604068D01*
X137367534Y-108601135D01*
X137375882Y-108604372D01*
G37*
%TD.AperFunction*%
%TD*%
%TA.AperFunction,Conductor*%
%TO.N,Net-(J1-Pin_22)*%
G36*
X139742428Y-108647677D02*
G01*
X139744081Y-108650971D01*
X139878954Y-109076700D01*
X139879500Y-109080234D01*
X139879500Y-109091988D01*
X139879490Y-109092465D01*
X139875142Y-109198969D01*
X139871725Y-109206765D01*
X139775004Y-109303487D01*
X139766731Y-109306914D01*
X139758458Y-109303487D01*
X139672014Y-109217043D01*
X139669766Y-109213889D01*
X139666300Y-109206765D01*
X139641251Y-109155281D01*
X139640227Y-109148275D01*
X139721381Y-108652614D01*
X139726099Y-108645004D01*
X139734817Y-108642959D01*
X139742428Y-108647677D01*
G37*
%TD.AperFunction*%
%TD*%
%TA.AperFunction,Conductor*%
%TO.N,Net-(J1-Pin_20)*%
G36*
X140740500Y-108644943D02*
G01*
X140741838Y-108647935D01*
X140873280Y-109105185D01*
X140873118Y-109112166D01*
X140837746Y-109216721D01*
X140834936Y-109221245D01*
X140748849Y-109307332D01*
X140740576Y-109310759D01*
X140732303Y-109307332D01*
X140639002Y-109214031D01*
X140636383Y-109210029D01*
X140609024Y-109140226D01*
X140608511Y-109133354D01*
X140613349Y-109112166D01*
X140719186Y-108648562D01*
X140724369Y-108641260D01*
X140733197Y-108639760D01*
X140740500Y-108644943D01*
G37*
%TD.AperFunction*%
%TD*%
%TA.AperFunction,Conductor*%
%TO.N,Net-(J1-Pin_31)*%
G36*
X135092404Y-108601134D02*
G01*
X135220888Y-108604068D01*
X135229080Y-108607683D01*
X135232186Y-108614002D01*
X135313784Y-109149453D01*
X135312671Y-109156471D01*
X135287352Y-109206836D01*
X135285172Y-109209854D01*
X135194470Y-109300557D01*
X135186197Y-109303984D01*
X135177924Y-109300557D01*
X135081416Y-109204049D01*
X135077989Y-109195776D01*
X135077989Y-109195737D01*
X135078246Y-109119564D01*
X135078470Y-109117338D01*
X135080500Y-109107133D01*
X135080499Y-108612830D01*
X135083926Y-108604559D01*
X135092199Y-108601132D01*
X135092404Y-108601134D01*
G37*
%TD.AperFunction*%
%TD*%
%TA.AperFunction,Conductor*%
%TO.N,Net-(J1-Pin_44)*%
G36*
X128738140Y-108646963D02*
G01*
X128739257Y-108650209D01*
X128831569Y-109145949D01*
X128830715Y-109152940D01*
X128813722Y-109190256D01*
X128811347Y-109193680D01*
X128705683Y-109299345D01*
X128697410Y-109302772D01*
X128689137Y-109299345D01*
X128601918Y-109212126D01*
X128598619Y-109205571D01*
X128580625Y-109084216D01*
X128580499Y-109082524D01*
X128580499Y-109080224D01*
X128581043Y-109076705D01*
X128716601Y-108648816D01*
X128722367Y-108641966D01*
X128731289Y-108641197D01*
X128738140Y-108646963D01*
G37*
%TD.AperFunction*%
%TD*%
%TA.AperFunction,Conductor*%
%TO.N,Net-(J1-Pin_29)*%
G36*
X136240229Y-108640882D02*
G01*
X136241249Y-108643346D01*
X136373469Y-109105826D01*
X136373633Y-109111617D01*
X136332059Y-109295875D01*
X136326895Y-109303191D01*
X136320646Y-109305000D01*
X136139354Y-109305000D01*
X136131081Y-109301573D01*
X136127941Y-109295875D01*
X136086366Y-109111613D01*
X136086529Y-109105829D01*
X136218751Y-108643345D01*
X136224320Y-108636333D01*
X136233216Y-108635313D01*
X136240229Y-108640882D01*
G37*
%TD.AperFunction*%
%TD*%
%TA.AperFunction,Conductor*%
%TO.N,Net-(J1-Pin_2)*%
G36*
X149740229Y-108640882D02*
G01*
X149741249Y-108643346D01*
X149873469Y-109105826D01*
X149873633Y-109111617D01*
X149832059Y-109295875D01*
X149826895Y-109303191D01*
X149820646Y-109305000D01*
X149639354Y-109305000D01*
X149631081Y-109301573D01*
X149627941Y-109295875D01*
X149586366Y-109111613D01*
X149586529Y-109105829D01*
X149718751Y-108643345D01*
X149724320Y-108636333D01*
X149733216Y-108635313D01*
X149740229Y-108640882D01*
G37*
%TD.AperFunction*%
%TD*%
%TA.AperFunction,Conductor*%
%TO.N,Net-(J1-Pin_49)*%
G36*
X126237457Y-108649117D02*
G01*
X126238618Y-108652615D01*
X126319772Y-109148272D01*
X126318747Y-109155281D01*
X126299708Y-109194412D01*
X126297460Y-109197566D01*
X126196541Y-109298486D01*
X126188268Y-109301913D01*
X126179995Y-109298486D01*
X126088274Y-109206765D01*
X126084857Y-109198970D01*
X126080508Y-109092442D01*
X126080499Y-109092059D01*
X126080499Y-109080224D01*
X126081043Y-109076705D01*
X126215919Y-108650968D01*
X126221684Y-108644120D01*
X126230606Y-108643351D01*
X126237457Y-108649117D01*
G37*
%TD.AperFunction*%
%TD*%
%TA.AperFunction,Conductor*%
%TO.N,Net-(J1-Pin_12)*%
G36*
X144740229Y-108640882D02*
G01*
X144741249Y-108643346D01*
X144873469Y-109105826D01*
X144873633Y-109111617D01*
X144832059Y-109295875D01*
X144826895Y-109303191D01*
X144820646Y-109305000D01*
X144639354Y-109305000D01*
X144631081Y-109301573D01*
X144627941Y-109295875D01*
X144586366Y-109111613D01*
X144586529Y-109105829D01*
X144718751Y-108643345D01*
X144724320Y-108636333D01*
X144733216Y-108635313D01*
X144740229Y-108640882D01*
G37*
%TD.AperFunction*%
%TD*%
%TA.AperFunction,Conductor*%
%TO.N,Net-(J1-Pin_18)*%
G36*
X141740411Y-108644581D02*
G01*
X141741721Y-108647528D01*
X141873247Y-109105069D01*
X141873013Y-109112258D01*
X141835024Y-109217979D01*
X141832286Y-109222295D01*
X141718049Y-109336532D01*
X141709776Y-109339959D01*
X141701503Y-109336532D01*
X141673105Y-109308134D01*
X141670461Y-109304068D01*
X141606795Y-109138752D01*
X141606319Y-109131892D01*
X141610896Y-109112258D01*
X141719081Y-108648103D01*
X141724297Y-108640825D01*
X141733132Y-108639365D01*
X141740411Y-108644581D01*
G37*
%TD.AperFunction*%
%TD*%
%TA.AperFunction,Conductor*%
%TO.N,Net-(J1-Pin_11)*%
G36*
X145240229Y-108640882D02*
G01*
X145241249Y-108643346D01*
X145373469Y-109105826D01*
X145373633Y-109111617D01*
X145332059Y-109295875D01*
X145326895Y-109303191D01*
X145320646Y-109305000D01*
X145139354Y-109305000D01*
X145131081Y-109301573D01*
X145127941Y-109295875D01*
X145086366Y-109111613D01*
X145086529Y-109105829D01*
X145218751Y-108643345D01*
X145224320Y-108636333D01*
X145233216Y-108635313D01*
X145240229Y-108640882D01*
G37*
%TD.AperFunction*%
%TD*%
%TA.AperFunction,Conductor*%
%TO.N,Net-(J1-Pin_26)*%
G36*
X137875882Y-108604372D02*
G01*
X137879497Y-108612565D01*
X137879500Y-108612832D01*
X137879500Y-109107132D01*
X137881527Y-109117322D01*
X137881752Y-109119564D01*
X137882010Y-109195736D01*
X137878611Y-109204021D01*
X137878583Y-109204049D01*
X137782075Y-109300558D01*
X137773802Y-109303985D01*
X137765529Y-109300558D01*
X137674828Y-109209857D01*
X137672649Y-109206842D01*
X137647328Y-109156471D01*
X137646216Y-109149453D01*
X137727813Y-108614002D01*
X137732447Y-108606340D01*
X137739109Y-108604068D01*
X137867534Y-108601135D01*
X137875882Y-108604372D01*
G37*
%TD.AperFunction*%
%TD*%
%TA.AperFunction,Conductor*%
%TO.N,Net-(J1-Pin_25)*%
G36*
X138242151Y-108646677D02*
G01*
X138243730Y-108649866D01*
X138378954Y-109076700D01*
X138379500Y-109080234D01*
X138379500Y-109084646D01*
X138379447Y-109085762D01*
X138368285Y-109202281D01*
X138364911Y-109209438D01*
X138277933Y-109296416D01*
X138269660Y-109299843D01*
X138261387Y-109296416D01*
X138151056Y-109186085D01*
X138148745Y-109182798D01*
X138135236Y-109154104D01*
X138134298Y-109147107D01*
X138221052Y-108651380D01*
X138225853Y-108643825D01*
X138234593Y-108641875D01*
X138242151Y-108646677D01*
G37*
%TD.AperFunction*%
%TD*%
%TA.AperFunction,Conductor*%
%TO.N,Net-(J1-Pin_9)*%
G36*
X146240229Y-108640882D02*
G01*
X146241249Y-108643346D01*
X146373469Y-109105826D01*
X146373633Y-109111617D01*
X146332059Y-109295875D01*
X146326895Y-109303191D01*
X146320646Y-109305000D01*
X146139354Y-109305000D01*
X146131081Y-109301573D01*
X146127941Y-109295875D01*
X146086366Y-109111613D01*
X146086529Y-109105829D01*
X146218751Y-108643345D01*
X146224320Y-108636333D01*
X146233216Y-108635313D01*
X146240229Y-108640882D01*
G37*
%TD.AperFunction*%
%TD*%
%TA.AperFunction,Conductor*%
%TO.N,Net-(J1-Pin_40)*%
G36*
X130737807Y-108648012D02*
G01*
X130738947Y-108651383D01*
X130825700Y-109147105D01*
X130824761Y-109154106D01*
X130802358Y-109201692D01*
X130800045Y-109204981D01*
X130703611Y-109301415D01*
X130695338Y-109304842D01*
X130687065Y-109301415D01*
X130595088Y-109209438D01*
X130591714Y-109202281D01*
X130586428Y-109147105D01*
X130580551Y-109085752D01*
X130580499Y-109084676D01*
X130580499Y-109080224D01*
X130581043Y-109076705D01*
X130716269Y-108649863D01*
X130722034Y-108643015D01*
X130730956Y-108642246D01*
X130737807Y-108648012D01*
G37*
%TD.AperFunction*%
%TD*%
%TA.AperFunction,Conductor*%
%TO.N,Net-(J1-Pin_28)*%
G36*
X136740229Y-108640882D02*
G01*
X136741249Y-108643346D01*
X136873469Y-109105826D01*
X136873633Y-109111617D01*
X136832059Y-109295875D01*
X136826895Y-109303191D01*
X136820646Y-109305000D01*
X136639354Y-109305000D01*
X136631081Y-109301573D01*
X136627941Y-109295875D01*
X136586366Y-109111613D01*
X136586529Y-109105829D01*
X136718751Y-108643345D01*
X136724320Y-108636333D01*
X136733216Y-108635313D01*
X136740229Y-108640882D01*
G37*
%TD.AperFunction*%
%TD*%
%TA.AperFunction,Conductor*%
%TO.N,Net-(J1-Pin_47)*%
G36*
X127238017Y-108647350D02*
G01*
X127239143Y-108650643D01*
X127329344Y-109146193D01*
X127328309Y-109153498D01*
X127306185Y-109197981D01*
X127303982Y-109201044D01*
X127214721Y-109290306D01*
X127206448Y-109293733D01*
X127198175Y-109290306D01*
X127100882Y-109193013D01*
X127097611Y-109186646D01*
X127092137Y-109153498D01*
X127080654Y-109083961D01*
X127080499Y-109082076D01*
X127080499Y-109080224D01*
X127081043Y-109076705D01*
X127216479Y-108649202D01*
X127222244Y-108642353D01*
X127231166Y-108641584D01*
X127238017Y-108647350D01*
G37*
%TD.AperFunction*%
%TD*%
%TA.AperFunction,Conductor*%
%TO.N,Net-(J1-Pin_17)*%
G36*
X142239644Y-108641446D02*
G01*
X142240694Y-108643954D01*
X142373001Y-109104216D01*
X142372138Y-109112843D01*
X142312148Y-109228295D01*
X142310039Y-109231173D01*
X142227503Y-109313710D01*
X142219230Y-109317137D01*
X142210957Y-109313710D01*
X142126126Y-109228879D01*
X142123248Y-109224144D01*
X142088567Y-109114726D01*
X142088452Y-109108041D01*
X142218181Y-108644035D01*
X142223709Y-108636991D01*
X142232599Y-108635918D01*
X142239644Y-108641446D01*
G37*
%TD.AperFunction*%
%TD*%
%TA.AperFunction,Conductor*%
%TO.N,Net-(J1-Pin_21)*%
G36*
X140241624Y-108644757D02*
G01*
X140243053Y-108647727D01*
X140378954Y-109076700D01*
X140379500Y-109080234D01*
X140379500Y-109081365D01*
X140379276Y-109083642D01*
X140354434Y-109208838D01*
X140351231Y-109214834D01*
X140268791Y-109297274D01*
X140260518Y-109300701D01*
X140252245Y-109297274D01*
X140139198Y-109184227D01*
X140136748Y-109180635D01*
X140123199Y-109149600D01*
X140122446Y-109142641D01*
X140134832Y-109080234D01*
X140220423Y-108648982D01*
X140225395Y-108641536D01*
X140234177Y-108639785D01*
X140241624Y-108644757D01*
G37*
%TD.AperFunction*%
%TD*%
%TA.AperFunction,Conductor*%
%TO.N,Net-(J1-Pin_15)*%
G36*
X143240229Y-108640882D02*
G01*
X143241249Y-108643346D01*
X143373469Y-109105826D01*
X143373633Y-109111617D01*
X143332059Y-109295875D01*
X143326895Y-109303191D01*
X143320646Y-109305000D01*
X143139354Y-109305000D01*
X143131081Y-109301573D01*
X143127941Y-109295875D01*
X143086366Y-109111613D01*
X143086529Y-109105829D01*
X143218751Y-108643345D01*
X143224320Y-108636333D01*
X143233216Y-108635313D01*
X143240229Y-108640882D01*
G37*
%TD.AperFunction*%
%TD*%
%TA.AperFunction,Conductor*%
%TO.N,Net-(J1-Pin_41)*%
G36*
X130237457Y-108649117D02*
G01*
X130238618Y-108652615D01*
X130319772Y-109148273D01*
X130318747Y-109155282D01*
X130280757Y-109233363D01*
X130278509Y-109236517D01*
X130206541Y-109308486D01*
X130198268Y-109311913D01*
X130189995Y-109308486D01*
X130088274Y-109206765D01*
X130084857Y-109198970D01*
X130080508Y-109092442D01*
X130080499Y-109092059D01*
X130080499Y-109080224D01*
X130081043Y-109076705D01*
X130215919Y-108650968D01*
X130221684Y-108644120D01*
X130230606Y-108643351D01*
X130237457Y-108649117D01*
G37*
%TD.AperFunction*%
%TD*%
%TA.AperFunction,Conductor*%
%TO.N,Net-(J1-Pin_1)*%
G36*
X150376736Y-108599389D02*
G01*
X150380624Y-108607456D01*
X150380626Y-108607492D01*
X150411497Y-109185146D01*
X150408517Y-109193590D01*
X150408087Y-109194043D01*
X150281259Y-109320871D01*
X150272986Y-109324298D01*
X150264713Y-109320871D01*
X150262793Y-109318341D01*
X150172690Y-109158256D01*
X150171252Y-109151283D01*
X150228244Y-108614177D01*
X150232525Y-108606312D01*
X150239216Y-108603731D01*
X150368283Y-108596435D01*
X150376736Y-108599389D01*
G37*
%TD.AperFunction*%
%TD*%
%TA.AperFunction,Conductor*%
%TO.N,Net-(J1-Pin_35)*%
G36*
X133237807Y-108648012D02*
G01*
X133238947Y-108651383D01*
X133325700Y-109147105D01*
X133324760Y-109154106D01*
X133311252Y-109182797D01*
X133308940Y-109186086D01*
X133198611Y-109296415D01*
X133190338Y-109299842D01*
X133182065Y-109296415D01*
X133095088Y-109209438D01*
X133091714Y-109202281D01*
X133080551Y-109085752D01*
X133080499Y-109084676D01*
X133080499Y-109080224D01*
X133081043Y-109076705D01*
X133216269Y-108649863D01*
X133222034Y-108643015D01*
X133230956Y-108642246D01*
X133237807Y-108648012D01*
G37*
%TD.AperFunction*%
%TD*%
%TA.AperFunction,Conductor*%
%TO.N,Net-(J1-Pin_10)*%
G36*
X145740229Y-108640882D02*
G01*
X145741249Y-108643346D01*
X145873469Y-109105826D01*
X145873633Y-109111617D01*
X145832059Y-109295875D01*
X145826895Y-109303191D01*
X145820646Y-109305000D01*
X145639354Y-109305000D01*
X145631081Y-109301573D01*
X145627941Y-109295875D01*
X145586366Y-109111613D01*
X145586529Y-109105829D01*
X145718751Y-108643345D01*
X145724320Y-108636333D01*
X145733216Y-108635313D01*
X145740229Y-108640882D01*
G37*
%TD.AperFunction*%
%TD*%
%TA.AperFunction,Conductor*%
%TO.N,Net-(J1-Pin_34)*%
G36*
X133592404Y-108601134D02*
G01*
X133720888Y-108604068D01*
X133729080Y-108607683D01*
X133732186Y-108614002D01*
X133813784Y-109149453D01*
X133812671Y-109156471D01*
X133767136Y-109247052D01*
X133764956Y-109250070D01*
X133704470Y-109310557D01*
X133696197Y-109313984D01*
X133687924Y-109310557D01*
X133581416Y-109204049D01*
X133577989Y-109195776D01*
X133577989Y-109195737D01*
X133578246Y-109119564D01*
X133578470Y-109117338D01*
X133580500Y-109107133D01*
X133580499Y-108612830D01*
X133583926Y-108604559D01*
X133592199Y-108601132D01*
X133592404Y-108601134D01*
G37*
%TD.AperFunction*%
%TD*%
%TA.AperFunction,Conductor*%
%TO.N,Net-(J1-Pin_14)*%
G36*
X143740229Y-108640882D02*
G01*
X143741249Y-108643346D01*
X143873469Y-109105826D01*
X143873633Y-109111617D01*
X143832059Y-109295875D01*
X143826895Y-109303191D01*
X143820646Y-109305000D01*
X143639354Y-109305000D01*
X143631081Y-109301573D01*
X143627941Y-109295875D01*
X143586366Y-109111613D01*
X143586529Y-109105829D01*
X143718751Y-108643345D01*
X143724320Y-108636333D01*
X143733216Y-108635313D01*
X143740229Y-108640882D01*
G37*
%TD.AperFunction*%
%TD*%
%TA.AperFunction,Conductor*%
%TO.N,Net-(J1-Pin_19)*%
G36*
X141239644Y-108641446D02*
G01*
X141240694Y-108643954D01*
X141373001Y-109104216D01*
X141372138Y-109112843D01*
X141312148Y-109228295D01*
X141310039Y-109231173D01*
X141229434Y-109311779D01*
X141221161Y-109315206D01*
X141212888Y-109311779D01*
X141124334Y-109223225D01*
X141121456Y-109218490D01*
X141088567Y-109114726D01*
X141088452Y-109108041D01*
X141218181Y-108644035D01*
X141223709Y-108636991D01*
X141232599Y-108635918D01*
X141239644Y-108641446D01*
G37*
%TD.AperFunction*%
%TD*%
%TA.AperFunction,Conductor*%
%TO.N,Net-(J1-Pin_32)*%
G36*
X134737457Y-108649117D02*
G01*
X134738618Y-108652615D01*
X134819772Y-109148272D01*
X134818747Y-109155281D01*
X134799708Y-109194412D01*
X134797460Y-109197566D01*
X134696541Y-109298486D01*
X134688268Y-109301913D01*
X134679995Y-109298486D01*
X134588274Y-109206765D01*
X134584857Y-109198970D01*
X134580508Y-109092442D01*
X134580499Y-109092059D01*
X134580499Y-109080224D01*
X134581043Y-109076705D01*
X134715919Y-108650968D01*
X134721684Y-108644120D01*
X134730606Y-108643351D01*
X134737457Y-108649117D01*
G37*
%TD.AperFunction*%
%TD*%
%TA.AperFunction,Conductor*%
%TO.N,Net-(J1-Pin_24)*%
G36*
X138875882Y-108604372D02*
G01*
X138879497Y-108612565D01*
X138879500Y-108612832D01*
X138879500Y-109107132D01*
X138881527Y-109117322D01*
X138881752Y-109119564D01*
X138882010Y-109195736D01*
X138878611Y-109204021D01*
X138878583Y-109204049D01*
X138772075Y-109310558D01*
X138763802Y-109313985D01*
X138755529Y-109310558D01*
X138695045Y-109250074D01*
X138692865Y-109247058D01*
X138647328Y-109156471D01*
X138646216Y-109149453D01*
X138727813Y-108614002D01*
X138732447Y-108606340D01*
X138739109Y-108604068D01*
X138867534Y-108601135D01*
X138875882Y-108604372D01*
G37*
%TD.AperFunction*%
%TD*%
%TA.AperFunction,Conductor*%
%TO.N,Net-(J1-Pin_51)*%
G36*
X125092404Y-108601134D02*
G01*
X125220888Y-108604068D01*
X125229080Y-108607683D01*
X125232186Y-108614002D01*
X125313784Y-109149453D01*
X125312671Y-109156471D01*
X125287352Y-109206836D01*
X125285172Y-109209854D01*
X125194470Y-109300557D01*
X125186197Y-109303984D01*
X125177924Y-109300557D01*
X125081416Y-109204049D01*
X125077989Y-109195776D01*
X125077989Y-109195737D01*
X125078246Y-109119564D01*
X125078470Y-109117338D01*
X125080500Y-109107133D01*
X125080499Y-108612830D01*
X125083926Y-108604559D01*
X125092199Y-108601132D01*
X125092404Y-108601134D01*
G37*
%TD.AperFunction*%
%TD*%
%TA.AperFunction,Conductor*%
%TO.N,Net-(J1-Pin_50)*%
G36*
X125592404Y-108601134D02*
G01*
X125720888Y-108604068D01*
X125729080Y-108607683D01*
X125732186Y-108614002D01*
X125813784Y-109149453D01*
X125812671Y-109156471D01*
X125777244Y-109226944D01*
X125775064Y-109229962D01*
X125699470Y-109305557D01*
X125691197Y-109308984D01*
X125682924Y-109305557D01*
X125581416Y-109204049D01*
X125577989Y-109195776D01*
X125577989Y-109195737D01*
X125578246Y-109119564D01*
X125578470Y-109117338D01*
X125580500Y-109107133D01*
X125580499Y-108612830D01*
X125583926Y-108604559D01*
X125592199Y-108601132D01*
X125592404Y-108601134D01*
G37*
%TD.AperFunction*%
%TD*%
%TA.AperFunction,Conductor*%
%TO.N,Net-(J1-Pin_8)*%
G36*
X146740229Y-108640882D02*
G01*
X146741249Y-108643346D01*
X146873469Y-109105826D01*
X146873633Y-109111617D01*
X146832059Y-109295875D01*
X146826895Y-109303191D01*
X146820646Y-109305000D01*
X146639354Y-109305000D01*
X146631081Y-109301573D01*
X146627941Y-109295875D01*
X146586366Y-109111613D01*
X146586529Y-109105829D01*
X146718751Y-108643345D01*
X146724320Y-108636333D01*
X146733216Y-108635313D01*
X146740229Y-108640882D01*
G37*
%TD.AperFunction*%
%TD*%
%TA.AperFunction,Conductor*%
%TO.N,Net-(J1-Pin_52)*%
G36*
X124737807Y-108648012D02*
G01*
X124738947Y-108651383D01*
X124825700Y-109147105D01*
X124824760Y-109154106D01*
X124811252Y-109182797D01*
X124808940Y-109186086D01*
X124698611Y-109296415D01*
X124690338Y-109299842D01*
X124682065Y-109296415D01*
X124595088Y-109209438D01*
X124591714Y-109202281D01*
X124580551Y-109085752D01*
X124580499Y-109084676D01*
X124580499Y-109080224D01*
X124581043Y-109076705D01*
X124716269Y-108649863D01*
X124722034Y-108643015D01*
X124730956Y-108642246D01*
X124737807Y-108648012D01*
G37*
%TD.AperFunction*%
%TD*%
%TA.AperFunction,Conductor*%
%TO.N,Net-(J1-Pin_43)*%
G36*
X129237457Y-108649117D02*
G01*
X129238618Y-108652615D01*
X129319772Y-109148273D01*
X129318747Y-109155282D01*
X129271282Y-109252838D01*
X129269034Y-109255992D01*
X129211541Y-109313486D01*
X129203268Y-109316913D01*
X129194995Y-109313486D01*
X129088274Y-109206765D01*
X129084857Y-109198970D01*
X129080508Y-109092442D01*
X129080499Y-109092059D01*
X129080499Y-109080224D01*
X129081043Y-109076705D01*
X129215919Y-108650968D01*
X129221684Y-108644120D01*
X129230606Y-108643351D01*
X129237457Y-108649117D01*
G37*
%TD.AperFunction*%
%TD*%
%TA.AperFunction,Conductor*%
%TO.N,Net-(J1-Pin_4)*%
G36*
X148740229Y-108640882D02*
G01*
X148741249Y-108643346D01*
X148873469Y-109105826D01*
X148873633Y-109111617D01*
X148832059Y-109295875D01*
X148826895Y-109303191D01*
X148820646Y-109305000D01*
X148639354Y-109305000D01*
X148631081Y-109301573D01*
X148627941Y-109295875D01*
X148586366Y-109111613D01*
X148586529Y-109105829D01*
X148718751Y-108643345D01*
X148724320Y-108636333D01*
X148733216Y-108635313D01*
X148740229Y-108640882D01*
G37*
%TD.AperFunction*%
%TD*%
%TA.AperFunction,Conductor*%
%TO.N,Net-(J1-Pin_6)*%
G36*
X147740229Y-108640882D02*
G01*
X147741249Y-108643346D01*
X147873469Y-109105826D01*
X147873633Y-109111617D01*
X147832059Y-109295875D01*
X147826895Y-109303191D01*
X147820646Y-109305000D01*
X147639354Y-109305000D01*
X147631081Y-109301573D01*
X147627941Y-109295875D01*
X147586366Y-109111613D01*
X147586529Y-109105829D01*
X147718751Y-108643345D01*
X147724320Y-108636333D01*
X147733216Y-108635313D01*
X147740229Y-108640882D01*
G37*
%TD.AperFunction*%
%TD*%
%TA.AperFunction,Conductor*%
%TO.N,Net-(J1-Pin_23)*%
G36*
X139242428Y-108647677D02*
G01*
X139244081Y-108650971D01*
X139378954Y-109076700D01*
X139379500Y-109080234D01*
X139379500Y-109091988D01*
X139379490Y-109092465D01*
X139375142Y-109198969D01*
X139371725Y-109206765D01*
X139280004Y-109298487D01*
X139271731Y-109301914D01*
X139263458Y-109298487D01*
X139162538Y-109197567D01*
X139160291Y-109194415D01*
X139141251Y-109155281D01*
X139140227Y-109148275D01*
X139221381Y-108652614D01*
X139226099Y-108645004D01*
X139234817Y-108642959D01*
X139242428Y-108647677D01*
G37*
%TD.AperFunction*%
%TD*%
%TA.AperFunction,Conductor*%
%TO.N,Net-(J1-Pin_45)*%
G36*
X128092404Y-108601134D02*
G01*
X128220888Y-108604068D01*
X128229080Y-108607683D01*
X128232186Y-108614002D01*
X128313784Y-109149453D01*
X128312671Y-109156471D01*
X128257027Y-109267161D01*
X128254847Y-109270179D01*
X128209470Y-109315557D01*
X128201197Y-109318984D01*
X128192924Y-109315557D01*
X128081416Y-109204049D01*
X128077989Y-109195776D01*
X128077989Y-109195737D01*
X128078246Y-109119564D01*
X128078470Y-109117338D01*
X128080500Y-109107133D01*
X128080499Y-108612830D01*
X128083926Y-108604559D01*
X128092199Y-108601132D01*
X128092404Y-108601134D01*
G37*
%TD.AperFunction*%
%TD*%
%TA.AperFunction,Conductor*%
%TO.N,Net-(J1-Pin_42)*%
G36*
X129738140Y-108646963D02*
G01*
X129739257Y-108650209D01*
X129831569Y-109145949D01*
X129830715Y-109152940D01*
X129813722Y-109190256D01*
X129811347Y-109193680D01*
X129705683Y-109299345D01*
X129697410Y-109302772D01*
X129689137Y-109299345D01*
X129601918Y-109212126D01*
X129598619Y-109205571D01*
X129580625Y-109084216D01*
X129580499Y-109082524D01*
X129580499Y-109080224D01*
X129581043Y-109076705D01*
X129716601Y-108648816D01*
X129722367Y-108641966D01*
X129731289Y-108641197D01*
X129738140Y-108646963D01*
G37*
%TD.AperFunction*%
%TD*%
%TA.AperFunction,Conductor*%
%TO.N,Net-(J1-Pin_46)*%
G36*
X127737457Y-108649117D02*
G01*
X127738618Y-108652615D01*
X127819772Y-109148272D01*
X127818747Y-109155281D01*
X127799708Y-109194412D01*
X127797460Y-109197566D01*
X127696541Y-109298486D01*
X127688268Y-109301913D01*
X127679995Y-109298486D01*
X127588274Y-109206765D01*
X127584857Y-109198970D01*
X127580508Y-109092442D01*
X127580499Y-109092059D01*
X127580499Y-109080224D01*
X127581043Y-109076705D01*
X127715919Y-108650968D01*
X127721684Y-108644120D01*
X127730606Y-108643351D01*
X127737457Y-108649117D01*
G37*
%TD.AperFunction*%
%TD*%
%TA.AperFunction,Conductor*%
%TO.N,Net-(J1-Pin_48)*%
G36*
X126592404Y-108601134D02*
G01*
X126720888Y-108604068D01*
X126729080Y-108607683D01*
X126732186Y-108614002D01*
X126813784Y-109149453D01*
X126812671Y-109156471D01*
X126777244Y-109226944D01*
X126775064Y-109229962D01*
X126699470Y-109305557D01*
X126691197Y-109308984D01*
X126682924Y-109305557D01*
X126581416Y-109204049D01*
X126577989Y-109195776D01*
X126577989Y-109195737D01*
X126578246Y-109119564D01*
X126578470Y-109117338D01*
X126580500Y-109107133D01*
X126580499Y-108612830D01*
X126583926Y-108604559D01*
X126592199Y-108601132D01*
X126592404Y-108601134D01*
G37*
%TD.AperFunction*%
%TD*%
%TA.AperFunction,Conductor*%
%TO.N,Net-(J1-Pin_38)*%
G36*
X131738140Y-108646963D02*
G01*
X131739257Y-108650209D01*
X131831569Y-109145949D01*
X131830715Y-109152940D01*
X131813722Y-109190256D01*
X131811347Y-109193680D01*
X131705683Y-109299345D01*
X131697410Y-109302772D01*
X131689137Y-109299345D01*
X131601918Y-109212126D01*
X131598619Y-109205571D01*
X131580625Y-109084216D01*
X131580499Y-109082524D01*
X131580499Y-109080224D01*
X131581043Y-109076705D01*
X131716601Y-108648816D01*
X131722367Y-108641966D01*
X131731289Y-108641197D01*
X131738140Y-108646963D01*
G37*
%TD.AperFunction*%
%TD*%
M02*
