M48
; DRILL file {KiCad 9.0.5} date 2025-10-24T19:45:50+0100
; FORMAT={-:-/ absolute / inch / decimal}
; #@! TF.CreationDate,2025-10-24T19:45:50+01:00
; #@! TF.GenerationSoftware,Kicad,Pcbnew,9.0.5
; #@! TF.FileFunction,Plated,1,2,PTH
FMAT,2
INCH
; #@! TA.AperFunction,Plated,PTH,ViaDrill
T1C0.0394
; #@! TA.AperFunction,Plated,PTH,ComponentDrill
T2C0.0394
%
G90
G05
T1
X4.1339Y-4.0945
X4.1339Y-4.3307
X6.6535Y-4.0945
X6.6535Y-4.3307
T2
X4.0929Y-4.6394
X4.0929Y-4.7394
X4.1929Y-4.6394
X4.1929Y-4.7394
X4.2929Y-4.6394
X4.2929Y-4.7394
X4.3929Y-4.6394
X4.3929Y-4.7394
X4.4929Y-4.6394
X4.4929Y-4.7394
X4.5929Y-4.6394
X4.5929Y-4.7394
X4.6929Y-4.6394
X4.6929Y-4.7394
X4.7929Y-4.6394
X4.7929Y-4.7394
X4.8929Y-4.6394
X4.8929Y-4.7394
X4.9929Y-4.6394
X4.9929Y-4.7394
X5.0929Y-4.6394
X5.0929Y-4.7394
X5.1929Y-4.6394
X5.1929Y-4.7394
X5.2929Y-4.6394
X5.2929Y-4.7394
X5.3929Y-4.6394
X5.3929Y-4.7394
X5.4929Y-4.6394
X5.4929Y-4.7394
X5.5929Y-4.6394
X5.5929Y-4.7394
X5.6929Y-4.6394
X5.6929Y-4.7394
X5.7929Y-4.6394
X5.7929Y-4.7394
X5.8929Y-4.6394
X5.8929Y-4.7394
X5.9929Y-4.6394
X5.9929Y-4.7394
X6.0929Y-4.6394
X6.0929Y-4.7394
X6.1929Y-4.6394
X6.1929Y-4.7394
X6.2929Y-4.6394
X6.2929Y-4.7394
X6.3929Y-4.6394
X6.3929Y-4.7394
X6.4929Y-4.6394
X6.4929Y-4.7394
X6.5929Y-4.6394
X6.5929Y-4.7394
X6.6929Y-4.6394
X6.6929Y-4.7394
M30
