%TF.GenerationSoftware,KiCad,Pcbnew,9.0.5*%
%TF.CreationDate,2025-10-26T19:27:11+00:00*%
%TF.ProjectId,InstallationBoard,496e7374-616c-46c6-9174-696f6e426f61,rev?*%
%TF.SameCoordinates,Original*%
%TF.FileFunction,Copper,L1,Top*%
%TF.FilePolarity,Positive*%
%FSLAX46Y46*%
G04 Gerber Fmt 4.6, Leading zero omitted, Abs format (unit mm)*
G04 Created by KiCad (PCBNEW 9.0.5) date 2025-10-26 19:27:11*
%MOMM*%
%LPD*%
G01*
G04 APERTURE LIST*
G04 Aperture macros list*
%AMRoundRect*
0 Rectangle with rounded corners*
0 $1 Rounding radius*
0 $2 $3 $4 $5 $6 $7 $8 $9 X,Y pos of 4 corners*
0 Add a 4 corners polygon primitive as box body*
4,1,4,$2,$3,$4,$5,$6,$7,$8,$9,$2,$3,0*
0 Add four circle primitives for the rounded corners*
1,1,$1+$1,$2,$3*
1,1,$1+$1,$4,$5*
1,1,$1+$1,$6,$7*
1,1,$1+$1,$8,$9*
0 Add four rect primitives between the rounded corners*
20,1,$1+$1,$2,$3,$4,$5,0*
20,1,$1+$1,$4,$5,$6,$7,0*
20,1,$1+$1,$6,$7,$8,$9,0*
20,1,$1+$1,$8,$9,$2,$3,0*%
G04 Aperture macros list end*
%TA.AperFunction,SMDPad,CuDef*%
%ADD10R,2.000000X2.000000*%
%TD*%
%TA.AperFunction,SMDPad,CuDef*%
%ADD11RoundRect,0.125000X-0.125000X-0.875000X0.125000X-0.875000X0.125000X0.875000X-0.125000X0.875000X0*%
%TD*%
%TA.AperFunction,ComponentPad*%
%ADD12C,1.800000*%
%TD*%
%TA.AperFunction,ViaPad*%
%ADD13C,0.600000*%
%TD*%
%TA.AperFunction,Conductor*%
%ADD14C,0.200000*%
%TD*%
G04 APERTURE END LIST*
D10*
%TO.P,TP3,1,1*%
%TO.N,CLK*%
X179930000Y-107820000D03*
%TD*%
D11*
%TO.P,J3,1,Pin_1*%
%TO.N,CLK*%
X179870000Y-113650000D03*
%TD*%
D12*
%TO.P,J16,1,Pin_1*%
%TO.N,GND*%
X144241940Y-101468920D03*
%TD*%
%TO.P,J1,1,Pin_1*%
%TO.N,+5V*%
X166742030Y-101468920D03*
%TD*%
%TO.P,J4,1,Pin_1*%
%TO.N,SMS*%
X175492070Y-96468930D03*
%TD*%
%TO.P,J2,1,Pin_1*%
%TO.N,GND*%
X156742050Y-101468920D03*
%TD*%
%TO.P,J15,1,Pin_1*%
%TO.N,GND*%
X142992010Y-96468930D03*
%TD*%
D13*
%TO.N,D1*%
X167520000Y-113920000D03*
X147320000Y-115060000D03*
%TO.N,D2*%
X164890000Y-115350000D03*
X150800000Y-115350000D03*
%TO.N,D4*%
X159090000Y-114750000D03*
X163270000Y-114750000D03*
%TD*%
D14*
%TO.N,D1*%
X148460000Y-113920000D02*
X147320000Y-115060000D01*
X167520000Y-113920000D02*
X148460000Y-113920000D01*
%TO.N,D4*%
X163270000Y-114750000D02*
X159090000Y-114750000D01*
%TO.N,D2*%
X150800000Y-115350000D02*
X164890000Y-115350000D01*
%TO.N,CLK*%
X179870000Y-113650000D02*
X179870000Y-107880000D01*
X179870000Y-107880000D02*
X179930000Y-107820000D01*
%TD*%
%TA.AperFunction,Conductor*%
%TO.N,GND*%
G36*
X143091916Y-95366169D02*
G01*
X143154965Y-95377886D01*
X143269626Y-95399195D01*
X143291510Y-95405385D01*
X143460193Y-95470328D01*
X143480576Y-95480411D01*
X143587802Y-95546339D01*
X143634549Y-95575081D01*
X143652757Y-95588727D01*
X143652764Y-95588733D01*
X143786836Y-95709935D01*
X143802241Y-95726676D01*
X143911912Y-95870341D01*
X143924001Y-95889616D01*
X144005578Y-96050905D01*
X144013941Y-96072067D01*
X144064670Y-96245539D01*
X144069026Y-96267872D01*
X144087203Y-96447696D01*
X144087405Y-96470448D01*
X144072419Y-96650567D01*
X144068460Y-96672975D01*
X144020812Y-96847325D01*
X144012825Y-96868631D01*
X143931461Y-97036841D01*
X143926036Y-97046855D01*
X143895165Y-97098073D01*
X143858669Y-97224704D01*
X143856189Y-97356467D01*
X143857099Y-97364546D01*
X143857008Y-97364556D01*
X143859500Y-97384960D01*
X143859500Y-97587534D01*
X143889898Y-97759937D01*
X143949775Y-97924446D01*
X144037309Y-98076057D01*
X144149836Y-98210163D01*
X144283942Y-98322690D01*
X144283943Y-98322691D01*
X144283945Y-98322692D01*
X144435555Y-98410225D01*
X144600062Y-98470101D01*
X144772468Y-98500500D01*
X144772472Y-98500500D01*
X173697528Y-98500500D01*
X173697532Y-98500500D01*
X173869938Y-98470101D01*
X174034445Y-98410225D01*
X174186055Y-98322692D01*
X174320163Y-98210163D01*
X174432692Y-98076055D01*
X174520225Y-97924445D01*
X174580101Y-97759938D01*
X174580746Y-97756275D01*
X174581478Y-97754799D01*
X174581501Y-97754714D01*
X174581518Y-97754718D01*
X174611766Y-97693671D01*
X174671709Y-97657774D01*
X174741543Y-97659983D01*
X174759159Y-97667311D01*
X174954463Y-97766825D01*
X174954466Y-97766826D01*
X175043392Y-97795719D01*
X175164119Y-97834945D01*
X175381848Y-97869430D01*
X175381849Y-97869430D01*
X175602291Y-97869430D01*
X175602292Y-97869430D01*
X175820021Y-97834945D01*
X176029676Y-97766825D01*
X176226092Y-97666745D01*
X176287346Y-97622240D01*
X176315189Y-97602013D01*
X176347285Y-97590560D01*
X176379226Y-97578647D01*
X176380126Y-97578842D01*
X176380995Y-97578533D01*
X176414188Y-97586252D01*
X176447499Y-97593498D01*
X176448469Y-97594224D01*
X176449049Y-97594359D01*
X176475754Y-97614649D01*
X176510872Y-97649766D01*
X176512456Y-97651379D01*
X176539710Y-97679679D01*
X176554125Y-97694647D01*
X176556727Y-97696722D01*
X176567090Y-97705984D01*
X177261731Y-98400625D01*
X177375859Y-98466517D01*
X177503153Y-98500625D01*
X177503155Y-98500625D01*
X177642097Y-98500625D01*
X177644008Y-98500500D01*
X181234108Y-98500500D01*
X181293038Y-98500500D01*
X181306922Y-98501280D01*
X181397266Y-98511459D01*
X181424331Y-98517636D01*
X181503540Y-98545352D01*
X181528553Y-98557398D01*
X181599606Y-98602043D01*
X181621313Y-98619355D01*
X181680644Y-98678686D01*
X181697957Y-98700395D01*
X181742600Y-98771444D01*
X181754648Y-98796462D01*
X181782362Y-98875666D01*
X181788540Y-98902735D01*
X181798720Y-98993076D01*
X181799500Y-99006961D01*
X181799500Y-116039897D01*
X181799499Y-116039901D01*
X181799499Y-116059390D01*
X181799499Y-116071507D01*
X181799499Y-116099704D01*
X181798902Y-116111856D01*
X181791100Y-116191085D01*
X181786358Y-116214926D01*
X181765025Y-116285256D01*
X181755723Y-116307716D01*
X181721078Y-116372533D01*
X181707572Y-116392745D01*
X181657124Y-116454216D01*
X181648952Y-116463232D01*
X181148505Y-116963681D01*
X181087182Y-116997166D01*
X181060824Y-117000000D01*
X122649295Y-117000000D01*
X122582256Y-116980315D01*
X122561614Y-116963681D01*
X122350045Y-116752112D01*
X122341869Y-116743091D01*
X122293265Y-116683860D01*
X122279762Y-116663650D01*
X122245117Y-116598826D01*
X122235817Y-116576371D01*
X122214483Y-116506038D01*
X122209741Y-116482197D01*
X122206985Y-116454216D01*
X122201912Y-116402697D01*
X122201323Y-116391913D01*
X122201315Y-116391188D01*
X122201315Y-116331007D01*
X122200622Y-116328421D01*
X122200508Y-116318057D01*
X122200574Y-116317821D01*
X122200500Y-116316689D01*
X122200500Y-114981153D01*
X146519500Y-114981153D01*
X146519500Y-115138846D01*
X146550261Y-115293489D01*
X146550264Y-115293501D01*
X146610602Y-115439172D01*
X146610609Y-115439185D01*
X146698210Y-115570288D01*
X146698213Y-115570292D01*
X146809707Y-115681786D01*
X146809711Y-115681789D01*
X146940814Y-115769390D01*
X146940827Y-115769397D01*
X147086498Y-115829735D01*
X147086503Y-115829737D01*
X147240092Y-115860288D01*
X147241153Y-115860499D01*
X147241156Y-115860500D01*
X147241158Y-115860500D01*
X147398844Y-115860500D01*
X147398845Y-115860499D01*
X147553497Y-115829737D01*
X147699179Y-115769394D01*
X147830289Y-115681789D01*
X147941789Y-115570289D01*
X148029394Y-115439179D01*
X148089737Y-115293497D01*
X148118181Y-115150500D01*
X148120638Y-115138150D01*
X148153023Y-115076239D01*
X148154518Y-115074716D01*
X148672416Y-114556819D01*
X148733739Y-114523334D01*
X148760097Y-114520500D01*
X150198059Y-114520500D01*
X150265098Y-114540185D01*
X150310853Y-114592989D01*
X150320797Y-114662147D01*
X150291772Y-114725703D01*
X150285740Y-114732181D01*
X150178213Y-114839707D01*
X150178210Y-114839711D01*
X150090609Y-114970814D01*
X150090602Y-114970827D01*
X150030264Y-115116498D01*
X150030261Y-115116510D01*
X149999500Y-115271153D01*
X149999500Y-115428846D01*
X150030261Y-115583489D01*
X150030264Y-115583501D01*
X150090602Y-115729172D01*
X150090609Y-115729185D01*
X150178210Y-115860288D01*
X150178213Y-115860292D01*
X150289707Y-115971786D01*
X150289711Y-115971789D01*
X150420814Y-116059390D01*
X150420827Y-116059397D01*
X150532805Y-116105779D01*
X150566503Y-116119737D01*
X150721153Y-116150499D01*
X150721156Y-116150500D01*
X150721158Y-116150500D01*
X150878844Y-116150500D01*
X150878845Y-116150499D01*
X151033497Y-116119737D01*
X151179179Y-116059394D01*
X151219740Y-116032292D01*
X151310875Y-115971398D01*
X151377553Y-115950520D01*
X151379766Y-115950500D01*
X164310234Y-115950500D01*
X164377273Y-115970185D01*
X164379125Y-115971398D01*
X164510814Y-116059390D01*
X164510827Y-116059397D01*
X164622805Y-116105779D01*
X164656503Y-116119737D01*
X164811153Y-116150499D01*
X164811156Y-116150500D01*
X164811158Y-116150500D01*
X164968844Y-116150500D01*
X164968845Y-116150499D01*
X165123497Y-116119737D01*
X165269179Y-116059394D01*
X165400289Y-115971789D01*
X165511789Y-115860289D01*
X165599394Y-115729179D01*
X165659737Y-115583497D01*
X165690500Y-115428842D01*
X165690500Y-115271158D01*
X165690500Y-115271155D01*
X165690499Y-115271153D01*
X165664181Y-115138846D01*
X165659737Y-115116503D01*
X165659735Y-115116498D01*
X165599397Y-114970827D01*
X165599390Y-114970814D01*
X165511789Y-114839711D01*
X165511786Y-114839707D01*
X165404260Y-114732181D01*
X165370775Y-114670858D01*
X165375759Y-114601166D01*
X165417631Y-114545233D01*
X165483095Y-114520816D01*
X165491941Y-114520500D01*
X166940234Y-114520500D01*
X167007273Y-114540185D01*
X167009125Y-114541398D01*
X167140814Y-114629390D01*
X167140827Y-114629397D01*
X167264992Y-114680827D01*
X167286503Y-114689737D01*
X167441153Y-114720499D01*
X167441156Y-114720500D01*
X167441158Y-114720500D01*
X167598844Y-114720500D01*
X167598845Y-114720499D01*
X167753497Y-114689737D01*
X167899179Y-114629394D01*
X168030289Y-114541789D01*
X168141789Y-114430289D01*
X168229394Y-114299179D01*
X168289737Y-114153497D01*
X168320500Y-113998842D01*
X168320500Y-113841158D01*
X168320500Y-113841155D01*
X168320499Y-113841153D01*
X168289738Y-113686510D01*
X168289737Y-113686503D01*
X168233728Y-113551284D01*
X168229397Y-113540827D01*
X168229390Y-113540814D01*
X168141789Y-113409711D01*
X168141786Y-113409707D01*
X168030292Y-113298213D01*
X168030288Y-113298210D01*
X167899185Y-113210609D01*
X167899172Y-113210602D01*
X167753501Y-113150264D01*
X167753489Y-113150261D01*
X167598845Y-113119500D01*
X167598842Y-113119500D01*
X167441158Y-113119500D01*
X167441155Y-113119500D01*
X167286510Y-113150261D01*
X167286498Y-113150264D01*
X167140827Y-113210602D01*
X167140814Y-113210609D01*
X167009125Y-113298602D01*
X166942447Y-113319480D01*
X166940234Y-113319500D01*
X148380940Y-113319500D01*
X148340019Y-113330464D01*
X148340019Y-113330465D01*
X148302751Y-113340451D01*
X148228214Y-113360423D01*
X148228209Y-113360426D01*
X148091290Y-113439475D01*
X148091282Y-113439481D01*
X147305339Y-114225425D01*
X147244016Y-114258910D01*
X147241850Y-114259361D01*
X147086508Y-114290261D01*
X147086498Y-114290264D01*
X146940827Y-114350602D01*
X146940814Y-114350609D01*
X146809711Y-114438210D01*
X146809707Y-114438213D01*
X146698213Y-114549707D01*
X146698210Y-114549711D01*
X146610609Y-114680814D01*
X146610602Y-114680827D01*
X146550264Y-114826498D01*
X146550261Y-114826510D01*
X146519500Y-114981153D01*
X122200500Y-114981153D01*
X122200500Y-106772135D01*
X178429500Y-106772135D01*
X178429500Y-108867870D01*
X178429501Y-108867876D01*
X178435908Y-108927483D01*
X178486202Y-109062328D01*
X178486206Y-109062335D01*
X178572452Y-109177544D01*
X178572455Y-109177547D01*
X178687664Y-109263793D01*
X178687671Y-109263797D01*
X178732618Y-109280561D01*
X178822517Y-109314091D01*
X178882127Y-109320500D01*
X179145501Y-109320499D01*
X179212539Y-109340183D01*
X179258294Y-109392987D01*
X179269500Y-109444499D01*
X179269500Y-112316899D01*
X179250479Y-112381674D01*
X179250801Y-112381865D01*
X179250051Y-112383132D01*
X179249815Y-112383938D01*
X179248346Y-112386014D01*
X179166382Y-112524609D01*
X179166380Y-112524614D01*
X179122292Y-112676366D01*
X179122290Y-112676379D01*
X179119500Y-112711829D01*
X179119500Y-114588150D01*
X179119501Y-114588175D01*
X179122291Y-114623627D01*
X179166380Y-114775385D01*
X179166382Y-114775390D01*
X179246827Y-114911416D01*
X179246834Y-114911425D01*
X179358574Y-115023165D01*
X179358578Y-115023168D01*
X179358580Y-115023170D01*
X179494610Y-115103618D01*
X179646373Y-115147709D01*
X179681837Y-115150500D01*
X180058162Y-115150499D01*
X180093627Y-115147709D01*
X180245390Y-115103618D01*
X180381420Y-115023170D01*
X180493170Y-114911420D01*
X180573618Y-114775390D01*
X180617709Y-114623627D01*
X180620500Y-114588163D01*
X180620499Y-112711838D01*
X180617709Y-112676373D01*
X180573618Y-112524610D01*
X180493170Y-112388580D01*
X180489199Y-112381865D01*
X180491623Y-112380430D01*
X180470985Y-112327858D01*
X180470500Y-112316899D01*
X180470500Y-109444499D01*
X180490185Y-109377460D01*
X180542989Y-109331705D01*
X180594500Y-109320499D01*
X180977871Y-109320499D01*
X180977872Y-109320499D01*
X181037483Y-109314091D01*
X181172331Y-109263796D01*
X181287546Y-109177546D01*
X181373796Y-109062331D01*
X181424091Y-108927483D01*
X181430500Y-108867873D01*
X181430499Y-106772128D01*
X181424091Y-106712517D01*
X181373796Y-106577669D01*
X181373795Y-106577668D01*
X181373793Y-106577664D01*
X181287547Y-106462455D01*
X181287544Y-106462452D01*
X181172335Y-106376206D01*
X181172328Y-106376202D01*
X181037482Y-106325908D01*
X181037483Y-106325908D01*
X180977883Y-106319501D01*
X180977881Y-106319500D01*
X180977873Y-106319500D01*
X180977864Y-106319500D01*
X178882129Y-106319500D01*
X178882123Y-106319501D01*
X178822516Y-106325908D01*
X178687671Y-106376202D01*
X178687664Y-106376206D01*
X178572455Y-106462452D01*
X178572452Y-106462455D01*
X178486206Y-106577664D01*
X178486202Y-106577671D01*
X178435908Y-106712517D01*
X178429501Y-106772116D01*
X178429501Y-106772123D01*
X178429500Y-106772135D01*
X122200500Y-106772135D01*
X122200500Y-101351902D01*
X122739370Y-101351902D01*
X122739370Y-101588097D01*
X122776316Y-101821368D01*
X122849303Y-102045996D01*
X122955977Y-102255353D01*
X122956527Y-102256433D01*
X123095353Y-102447510D01*
X123262360Y-102614517D01*
X123453437Y-102753343D01*
X123552861Y-102804002D01*
X123663873Y-102860566D01*
X123663875Y-102860566D01*
X123663878Y-102860568D01*
X123691122Y-102869420D01*
X123888501Y-102933553D01*
X124121773Y-102970500D01*
X124121778Y-102970500D01*
X124357967Y-102970500D01*
X124591238Y-102933553D01*
X124594562Y-102932473D01*
X124815862Y-102860568D01*
X125026303Y-102753343D01*
X125217380Y-102614517D01*
X125384387Y-102447510D01*
X125389617Y-102440311D01*
X125444944Y-102397646D01*
X125514557Y-102391665D01*
X125576353Y-102424270D01*
X125590249Y-102440306D01*
X125595483Y-102447510D01*
X125762490Y-102614517D01*
X125953567Y-102753343D01*
X126052991Y-102804002D01*
X126164003Y-102860566D01*
X126164005Y-102860566D01*
X126164008Y-102860568D01*
X126191252Y-102869420D01*
X126388631Y-102933553D01*
X126621903Y-102970500D01*
X126621908Y-102970500D01*
X126858097Y-102970500D01*
X127091368Y-102933553D01*
X127094692Y-102932473D01*
X127315992Y-102860568D01*
X127526433Y-102753343D01*
X127717510Y-102614517D01*
X127884517Y-102447510D01*
X127885307Y-102446423D01*
X127889610Y-102440501D01*
X127944938Y-102397833D01*
X128014551Y-102391852D01*
X128076347Y-102424456D01*
X128090250Y-102440501D01*
X128095337Y-102447503D01*
X128095341Y-102447508D01*
X128095342Y-102447509D01*
X128095343Y-102447510D01*
X128262350Y-102614517D01*
X128453427Y-102753343D01*
X128552851Y-102804002D01*
X128663863Y-102860566D01*
X128663865Y-102860566D01*
X128663868Y-102860568D01*
X128691112Y-102869420D01*
X128888491Y-102933553D01*
X129121763Y-102970500D01*
X129121768Y-102970500D01*
X129357957Y-102970500D01*
X129591228Y-102933553D01*
X129594552Y-102932473D01*
X129815852Y-102860568D01*
X130026293Y-102753343D01*
X130217370Y-102614517D01*
X130384377Y-102447510D01*
X130389234Y-102440823D01*
X130444560Y-102398157D01*
X130514173Y-102392174D01*
X130575969Y-102424777D01*
X130589867Y-102440815D01*
X130595473Y-102448530D01*
X130762480Y-102615537D01*
X130953557Y-102754363D01*
X131052981Y-102805022D01*
X131163993Y-102861586D01*
X131163995Y-102861586D01*
X131163998Y-102861588D01*
X131284402Y-102900709D01*
X131388621Y-102934573D01*
X131621893Y-102971520D01*
X131621898Y-102971520D01*
X131858087Y-102971520D01*
X132091358Y-102934573D01*
X132097821Y-102932473D01*
X132315982Y-102861588D01*
X132320104Y-102859488D01*
X132368293Y-102834934D01*
X132526423Y-102754363D01*
X132717500Y-102615537D01*
X132884507Y-102448530D01*
X132890113Y-102440812D01*
X132945438Y-102398145D01*
X133015051Y-102392161D01*
X133076848Y-102424762D01*
X133090750Y-102440803D01*
X133095621Y-102447508D01*
X133095623Y-102447510D01*
X133262630Y-102614517D01*
X133453707Y-102753343D01*
X133553131Y-102804002D01*
X133664143Y-102860566D01*
X133664145Y-102860566D01*
X133664148Y-102860568D01*
X133691392Y-102869420D01*
X133888771Y-102933553D01*
X134122043Y-102970500D01*
X134122048Y-102970500D01*
X134358237Y-102970500D01*
X134591508Y-102933553D01*
X134594832Y-102932473D01*
X134816132Y-102860568D01*
X135026573Y-102753343D01*
X135217650Y-102614517D01*
X135384657Y-102447510D01*
X135385447Y-102446423D01*
X135389750Y-102440501D01*
X135445078Y-102397833D01*
X135514691Y-102391852D01*
X135576487Y-102424456D01*
X135590390Y-102440501D01*
X135595477Y-102447503D01*
X135595481Y-102447508D01*
X135595482Y-102447509D01*
X135595483Y-102447510D01*
X135762490Y-102614517D01*
X135953567Y-102753343D01*
X136052991Y-102804002D01*
X136164003Y-102860566D01*
X136164005Y-102860566D01*
X136164008Y-102860568D01*
X136191252Y-102869420D01*
X136388631Y-102933553D01*
X136621903Y-102970500D01*
X136621908Y-102970500D01*
X136858097Y-102970500D01*
X137091368Y-102933553D01*
X137094692Y-102932473D01*
X137315992Y-102860568D01*
X137526433Y-102753343D01*
X137717510Y-102614517D01*
X137884517Y-102447510D01*
X137889747Y-102440311D01*
X137945074Y-102397646D01*
X138014687Y-102391665D01*
X138076483Y-102424270D01*
X138090379Y-102440306D01*
X138095613Y-102447510D01*
X138262620Y-102614517D01*
X138453697Y-102753343D01*
X138553121Y-102804002D01*
X138664133Y-102860566D01*
X138664135Y-102860566D01*
X138664138Y-102860568D01*
X138691382Y-102869420D01*
X138888761Y-102933553D01*
X139122033Y-102970500D01*
X139122038Y-102970500D01*
X139358227Y-102970500D01*
X139591498Y-102933553D01*
X139594822Y-102932473D01*
X139816122Y-102860568D01*
X140026563Y-102753343D01*
X140217640Y-102614517D01*
X140384647Y-102447510D01*
X140390137Y-102439952D01*
X140445464Y-102397286D01*
X140515077Y-102391304D01*
X140576874Y-102423907D01*
X140590774Y-102439949D01*
X140595483Y-102446430D01*
X140762490Y-102613437D01*
X140953567Y-102752263D01*
X141052991Y-102802922D01*
X141164003Y-102859486D01*
X141164005Y-102859486D01*
X141164008Y-102859488D01*
X141284412Y-102898609D01*
X141388631Y-102932473D01*
X141621903Y-102969420D01*
X141621908Y-102969420D01*
X141858097Y-102969420D01*
X142091368Y-102932473D01*
X142315992Y-102859488D01*
X142526433Y-102752263D01*
X142717510Y-102613437D01*
X142884517Y-102446430D01*
X143023343Y-102255353D01*
X143130568Y-102044912D01*
X143203553Y-101820288D01*
X143211043Y-101772996D01*
X143240500Y-101587017D01*
X143240500Y-101350822D01*
X145241570Y-101350822D01*
X145241570Y-101587017D01*
X145278516Y-101820288D01*
X145351503Y-102044916D01*
X145435209Y-102209197D01*
X145458727Y-102255353D01*
X145597553Y-102446430D01*
X145764560Y-102613437D01*
X145955637Y-102752263D01*
X146055061Y-102802922D01*
X146166073Y-102859486D01*
X146166075Y-102859486D01*
X146166078Y-102859488D01*
X146286482Y-102898609D01*
X146390701Y-102932473D01*
X146623973Y-102969420D01*
X146623978Y-102969420D01*
X146860167Y-102969420D01*
X147093438Y-102932473D01*
X147318062Y-102859488D01*
X147528503Y-102752263D01*
X147719580Y-102613437D01*
X147886587Y-102446430D01*
X147890667Y-102440815D01*
X147891680Y-102439421D01*
X147947008Y-102396753D01*
X148016621Y-102390772D01*
X148078417Y-102423376D01*
X148092320Y-102439421D01*
X148097407Y-102446423D01*
X148097411Y-102446428D01*
X148097412Y-102446429D01*
X148097413Y-102446430D01*
X148264420Y-102613437D01*
X148455497Y-102752263D01*
X148554921Y-102802922D01*
X148665933Y-102859486D01*
X148665935Y-102859486D01*
X148665938Y-102859488D01*
X148786342Y-102898609D01*
X148890561Y-102932473D01*
X149123833Y-102969420D01*
X149123838Y-102969420D01*
X149360027Y-102969420D01*
X149593298Y-102932473D01*
X149817922Y-102859488D01*
X150028363Y-102752263D01*
X150219440Y-102613437D01*
X150386447Y-102446430D01*
X150391677Y-102439231D01*
X150447004Y-102396566D01*
X150516617Y-102390585D01*
X150578413Y-102423190D01*
X150592309Y-102439226D01*
X150597543Y-102446430D01*
X150764550Y-102613437D01*
X150955627Y-102752263D01*
X151055051Y-102802922D01*
X151166063Y-102859486D01*
X151166065Y-102859486D01*
X151166068Y-102859488D01*
X151286472Y-102898609D01*
X151390691Y-102932473D01*
X151623963Y-102969420D01*
X151623968Y-102969420D01*
X151860157Y-102969420D01*
X152093428Y-102932473D01*
X152318052Y-102859488D01*
X152528493Y-102752263D01*
X152719570Y-102613437D01*
X152886577Y-102446430D01*
X152890657Y-102440815D01*
X152891670Y-102439421D01*
X152946998Y-102396753D01*
X153016611Y-102390772D01*
X153078407Y-102423376D01*
X153092310Y-102439421D01*
X153097397Y-102446423D01*
X153097401Y-102446428D01*
X153097402Y-102446429D01*
X153097403Y-102446430D01*
X153264410Y-102613437D01*
X153455487Y-102752263D01*
X153554911Y-102802922D01*
X153665923Y-102859486D01*
X153665925Y-102859486D01*
X153665928Y-102859488D01*
X153786332Y-102898609D01*
X153890551Y-102932473D01*
X154123823Y-102969420D01*
X154123828Y-102969420D01*
X154360017Y-102969420D01*
X154593288Y-102932473D01*
X154817912Y-102859488D01*
X155028353Y-102752263D01*
X155219430Y-102613437D01*
X155386437Y-102446430D01*
X155525263Y-102255353D01*
X155632488Y-102044912D01*
X155705473Y-101820288D01*
X155712963Y-101772996D01*
X155742420Y-101587017D01*
X155742420Y-101350822D01*
X157741410Y-101350822D01*
X157741410Y-101587017D01*
X157778356Y-101820288D01*
X157851343Y-102044916D01*
X157935049Y-102209197D01*
X157958567Y-102255353D01*
X158097393Y-102446430D01*
X158264400Y-102613437D01*
X158455477Y-102752263D01*
X158554901Y-102802922D01*
X158665913Y-102859486D01*
X158665915Y-102859486D01*
X158665918Y-102859488D01*
X158786322Y-102898609D01*
X158890541Y-102932473D01*
X159123813Y-102969420D01*
X159123818Y-102969420D01*
X159360007Y-102969420D01*
X159593278Y-102932473D01*
X159817902Y-102859488D01*
X160028343Y-102752263D01*
X160219420Y-102613437D01*
X160386427Y-102446430D01*
X160391657Y-102439231D01*
X160446984Y-102396566D01*
X160516597Y-102390585D01*
X160578393Y-102423190D01*
X160592289Y-102439226D01*
X160597523Y-102446430D01*
X160764530Y-102613437D01*
X160955607Y-102752263D01*
X161055031Y-102802922D01*
X161166043Y-102859486D01*
X161166045Y-102859486D01*
X161166048Y-102859488D01*
X161286452Y-102898609D01*
X161390671Y-102932473D01*
X161623943Y-102969420D01*
X161623948Y-102969420D01*
X161860137Y-102969420D01*
X162093408Y-102932473D01*
X162318032Y-102859488D01*
X162528473Y-102752263D01*
X162719550Y-102613437D01*
X162886557Y-102446430D01*
X162890637Y-102440815D01*
X162891650Y-102439421D01*
X162946978Y-102396753D01*
X163016591Y-102390772D01*
X163078387Y-102423376D01*
X163092290Y-102439421D01*
X163097377Y-102446423D01*
X163097381Y-102446428D01*
X163097382Y-102446429D01*
X163097383Y-102446430D01*
X163264390Y-102613437D01*
X163455467Y-102752263D01*
X163554891Y-102802922D01*
X163665903Y-102859486D01*
X163665905Y-102859486D01*
X163665908Y-102859488D01*
X163786312Y-102898609D01*
X163890531Y-102932473D01*
X164123803Y-102969420D01*
X164123808Y-102969420D01*
X164359997Y-102969420D01*
X164593268Y-102932473D01*
X164817892Y-102859488D01*
X165028333Y-102752263D01*
X165219410Y-102613437D01*
X165386417Y-102446430D01*
X165453450Y-102354167D01*
X165508779Y-102311502D01*
X165578392Y-102305523D01*
X165640187Y-102338128D01*
X165654085Y-102354167D01*
X165673786Y-102381283D01*
X165829666Y-102537163D01*
X165829671Y-102537167D01*
X165985222Y-102650180D01*
X166008008Y-102666735D01*
X166136405Y-102732157D01*
X166204423Y-102766815D01*
X166204426Y-102766816D01*
X166309251Y-102800875D01*
X166414079Y-102834935D01*
X166631808Y-102869420D01*
X166631809Y-102869420D01*
X166852251Y-102869420D01*
X166852252Y-102869420D01*
X167069981Y-102834935D01*
X167279636Y-102766815D01*
X167476052Y-102666735D01*
X167654395Y-102537162D01*
X167810272Y-102381285D01*
X167829838Y-102354353D01*
X167885166Y-102311688D01*
X167954779Y-102305707D01*
X168016575Y-102338311D01*
X168030475Y-102354353D01*
X168092655Y-102439937D01*
X168097373Y-102446430D01*
X168264380Y-102613437D01*
X168455457Y-102752263D01*
X168554881Y-102802922D01*
X168665893Y-102859486D01*
X168665895Y-102859486D01*
X168665898Y-102859488D01*
X168786302Y-102898609D01*
X168890521Y-102932473D01*
X169123793Y-102969420D01*
X169123798Y-102969420D01*
X169359987Y-102969420D01*
X169593258Y-102932473D01*
X169817882Y-102859488D01*
X170028323Y-102752263D01*
X170219400Y-102613437D01*
X170386407Y-102446430D01*
X170391637Y-102439231D01*
X170446964Y-102396566D01*
X170516577Y-102390585D01*
X170578373Y-102423190D01*
X170592269Y-102439226D01*
X170597503Y-102446430D01*
X170764510Y-102613437D01*
X170955587Y-102752263D01*
X171055011Y-102802922D01*
X171166023Y-102859486D01*
X171166025Y-102859486D01*
X171166028Y-102859488D01*
X171286432Y-102898609D01*
X171390651Y-102932473D01*
X171623923Y-102969420D01*
X171623928Y-102969420D01*
X171860117Y-102969420D01*
X172093388Y-102932473D01*
X172318012Y-102859488D01*
X172528453Y-102752263D01*
X172719530Y-102613437D01*
X172886537Y-102446430D01*
X172890617Y-102440815D01*
X172891630Y-102439421D01*
X172946958Y-102396753D01*
X173016571Y-102390772D01*
X173078367Y-102423376D01*
X173092270Y-102439421D01*
X173097357Y-102446423D01*
X173097361Y-102446428D01*
X173097362Y-102446429D01*
X173097363Y-102446430D01*
X173264370Y-102613437D01*
X173455447Y-102752263D01*
X173554871Y-102802922D01*
X173665883Y-102859486D01*
X173665885Y-102859486D01*
X173665888Y-102859488D01*
X173786292Y-102898609D01*
X173890511Y-102932473D01*
X174123783Y-102969420D01*
X174123788Y-102969420D01*
X174359977Y-102969420D01*
X174593248Y-102932473D01*
X174817872Y-102859488D01*
X175028313Y-102752263D01*
X175219390Y-102613437D01*
X175386397Y-102446430D01*
X175391254Y-102439743D01*
X175446580Y-102397077D01*
X175516193Y-102391094D01*
X175577989Y-102423697D01*
X175591887Y-102439735D01*
X175597493Y-102447450D01*
X175764500Y-102614457D01*
X175955577Y-102753283D01*
X176055001Y-102803942D01*
X176166013Y-102860506D01*
X176166015Y-102860506D01*
X176166018Y-102860508D01*
X176286422Y-102899629D01*
X176390641Y-102933493D01*
X176623913Y-102970440D01*
X176623918Y-102970440D01*
X176860107Y-102970440D01*
X177093378Y-102933493D01*
X177096517Y-102932473D01*
X177318002Y-102860508D01*
X177528443Y-102753283D01*
X177719520Y-102614457D01*
X177886527Y-102447450D01*
X177891987Y-102439934D01*
X177947310Y-102397266D01*
X178016923Y-102391279D01*
X178078721Y-102423879D01*
X178092625Y-102439923D01*
X178094428Y-102442404D01*
X178097351Y-102446428D01*
X178097353Y-102446430D01*
X178264360Y-102613437D01*
X178455437Y-102752263D01*
X178554861Y-102802922D01*
X178665873Y-102859486D01*
X178665875Y-102859486D01*
X178665878Y-102859488D01*
X178786282Y-102898609D01*
X178890501Y-102932473D01*
X179123773Y-102969420D01*
X179123778Y-102969420D01*
X179359967Y-102969420D01*
X179593238Y-102932473D01*
X179817862Y-102859488D01*
X180028303Y-102752263D01*
X180219380Y-102613437D01*
X180386387Y-102446430D01*
X180525213Y-102255353D01*
X180632438Y-102044912D01*
X180705423Y-101820288D01*
X180712913Y-101772996D01*
X180742370Y-101587017D01*
X180742370Y-101350822D01*
X180705423Y-101117551D01*
X180669646Y-101007442D01*
X180632438Y-100892928D01*
X180632436Y-100892925D01*
X180632436Y-100892923D01*
X180548730Y-100728642D01*
X180525213Y-100682487D01*
X180386387Y-100491410D01*
X180219380Y-100324403D01*
X180028303Y-100185577D01*
X179999739Y-100171023D01*
X179817866Y-100078353D01*
X179593238Y-100005366D01*
X179359967Y-99968420D01*
X179359962Y-99968420D01*
X179123778Y-99968420D01*
X179123773Y-99968420D01*
X178890501Y-100005366D01*
X178665873Y-100078353D01*
X178455436Y-100185577D01*
X178346420Y-100264782D01*
X178264360Y-100324403D01*
X178264358Y-100324405D01*
X178264357Y-100324405D01*
X178097355Y-100491407D01*
X178097350Y-100491413D01*
X178091883Y-100498938D01*
X178036551Y-100541600D01*
X177966937Y-100547576D01*
X177905144Y-100514967D01*
X177891251Y-100498932D01*
X177886573Y-100492493D01*
X177886527Y-100492430D01*
X177719520Y-100325423D01*
X177528443Y-100186597D01*
X177526441Y-100185577D01*
X177318006Y-100079373D01*
X177093378Y-100006386D01*
X176860107Y-99969440D01*
X176860102Y-99969440D01*
X176623918Y-99969440D01*
X176623913Y-99969440D01*
X176390641Y-100006386D01*
X176166013Y-100079373D01*
X175955576Y-100186597D01*
X175846560Y-100265802D01*
X175764500Y-100325423D01*
X175764498Y-100325425D01*
X175764497Y-100325425D01*
X175597495Y-100492427D01*
X175597490Y-100492433D01*
X175592629Y-100499124D01*
X175537297Y-100541787D01*
X175467683Y-100547762D01*
X175405890Y-100515153D01*
X175391996Y-100499117D01*
X175391887Y-100498967D01*
X175386397Y-100491410D01*
X175219390Y-100324403D01*
X175028313Y-100185577D01*
X174999749Y-100171023D01*
X174817876Y-100078353D01*
X174593248Y-100005366D01*
X174359977Y-99968420D01*
X174359972Y-99968420D01*
X174123788Y-99968420D01*
X174123783Y-99968420D01*
X173890511Y-100005366D01*
X173665883Y-100078353D01*
X173455446Y-100185577D01*
X173346430Y-100264782D01*
X173264370Y-100324403D01*
X173264368Y-100324405D01*
X173264367Y-100324405D01*
X173097365Y-100491407D01*
X173097360Y-100491413D01*
X173092266Y-100498425D01*
X173036935Y-100541089D01*
X172967321Y-100547067D01*
X172905527Y-100514459D01*
X172891634Y-100498425D01*
X172886539Y-100491413D01*
X172886534Y-100491407D01*
X172719532Y-100324405D01*
X172719530Y-100324403D01*
X172528453Y-100185577D01*
X172499889Y-100171023D01*
X172318016Y-100078353D01*
X172093388Y-100005366D01*
X171860117Y-99968420D01*
X171860112Y-99968420D01*
X171623928Y-99968420D01*
X171623923Y-99968420D01*
X171390651Y-100005366D01*
X171166023Y-100078353D01*
X170955586Y-100185577D01*
X170846570Y-100264782D01*
X170764510Y-100324403D01*
X170764508Y-100324405D01*
X170764507Y-100324405D01*
X170597502Y-100491410D01*
X170592272Y-100498610D01*
X170536941Y-100541275D01*
X170467328Y-100547253D01*
X170405533Y-100514646D01*
X170391638Y-100498610D01*
X170386407Y-100491410D01*
X170219402Y-100324405D01*
X170219400Y-100324403D01*
X170028323Y-100185577D01*
X169999759Y-100171023D01*
X169817886Y-100078353D01*
X169593258Y-100005366D01*
X169359987Y-99968420D01*
X169359982Y-99968420D01*
X169123798Y-99968420D01*
X169123793Y-99968420D01*
X168890521Y-100005366D01*
X168665893Y-100078353D01*
X168455456Y-100185577D01*
X168346440Y-100264782D01*
X168264380Y-100324403D01*
X168264378Y-100324405D01*
X168264377Y-100324405D01*
X168097374Y-100491408D01*
X168030475Y-100583487D01*
X167975144Y-100626152D01*
X167905531Y-100632131D01*
X167843736Y-100599525D01*
X167829838Y-100583485D01*
X167810275Y-100556558D01*
X167654393Y-100400676D01*
X167654388Y-100400672D01*
X167476055Y-100271107D01*
X167476054Y-100271106D01*
X167476052Y-100271105D01*
X167413126Y-100239042D01*
X167279636Y-100171024D01*
X167279633Y-100171023D01*
X167069982Y-100102905D01*
X166921785Y-100079433D01*
X166852252Y-100068420D01*
X166631808Y-100068420D01*
X166569100Y-100078352D01*
X166414077Y-100102905D01*
X166204426Y-100171023D01*
X166204423Y-100171024D01*
X166008004Y-100271107D01*
X165829671Y-100400672D01*
X165829666Y-100400676D01*
X165673788Y-100556554D01*
X165654084Y-100583674D01*
X165598753Y-100626338D01*
X165529139Y-100632316D01*
X165467345Y-100599708D01*
X165453449Y-100583672D01*
X165453315Y-100583487D01*
X165386417Y-100491410D01*
X165219410Y-100324403D01*
X165028333Y-100185577D01*
X164999769Y-100171023D01*
X164817896Y-100078353D01*
X164593268Y-100005366D01*
X164359997Y-99968420D01*
X164359992Y-99968420D01*
X164123808Y-99968420D01*
X164123803Y-99968420D01*
X163890531Y-100005366D01*
X163665903Y-100078353D01*
X163455466Y-100185577D01*
X163346450Y-100264782D01*
X163264390Y-100324403D01*
X163264388Y-100324405D01*
X163264387Y-100324405D01*
X163097385Y-100491407D01*
X163097380Y-100491413D01*
X163092286Y-100498425D01*
X163036955Y-100541089D01*
X162967341Y-100547067D01*
X162905547Y-100514459D01*
X162891654Y-100498425D01*
X162886559Y-100491413D01*
X162886554Y-100491407D01*
X162719552Y-100324405D01*
X162719550Y-100324403D01*
X162528473Y-100185577D01*
X162499909Y-100171023D01*
X162318036Y-100078353D01*
X162093408Y-100005366D01*
X161860137Y-99968420D01*
X161860132Y-99968420D01*
X161623948Y-99968420D01*
X161623943Y-99968420D01*
X161390671Y-100005366D01*
X161166043Y-100078353D01*
X160955606Y-100185577D01*
X160846590Y-100264782D01*
X160764530Y-100324403D01*
X160764528Y-100324405D01*
X160764527Y-100324405D01*
X160597522Y-100491410D01*
X160592292Y-100498610D01*
X160536961Y-100541275D01*
X160467348Y-100547253D01*
X160405553Y-100514646D01*
X160391658Y-100498610D01*
X160386427Y-100491410D01*
X160219422Y-100324405D01*
X160219420Y-100324403D01*
X160028343Y-100185577D01*
X159999779Y-100171023D01*
X159817906Y-100078353D01*
X159593278Y-100005366D01*
X159360007Y-99968420D01*
X159360002Y-99968420D01*
X159123818Y-99968420D01*
X159123813Y-99968420D01*
X158890541Y-100005366D01*
X158665913Y-100078353D01*
X158455476Y-100185577D01*
X158346460Y-100264782D01*
X158264400Y-100324403D01*
X158264398Y-100324405D01*
X158264397Y-100324405D01*
X158097395Y-100491407D01*
X158097395Y-100491408D01*
X158097393Y-100491410D01*
X158060379Y-100542355D01*
X157958567Y-100682486D01*
X157851343Y-100892923D01*
X157778356Y-101117551D01*
X157741410Y-101350822D01*
X155742420Y-101350822D01*
X155705473Y-101117551D01*
X155669696Y-101007442D01*
X155632488Y-100892928D01*
X155632486Y-100892925D01*
X155632486Y-100892923D01*
X155548780Y-100728642D01*
X155525263Y-100682487D01*
X155386437Y-100491410D01*
X155219430Y-100324403D01*
X155028353Y-100185577D01*
X154999789Y-100171023D01*
X154817916Y-100078353D01*
X154593288Y-100005366D01*
X154360017Y-99968420D01*
X154360012Y-99968420D01*
X154123828Y-99968420D01*
X154123823Y-99968420D01*
X153890551Y-100005366D01*
X153665923Y-100078353D01*
X153455486Y-100185577D01*
X153346470Y-100264782D01*
X153264410Y-100324403D01*
X153264408Y-100324405D01*
X153264407Y-100324405D01*
X153097405Y-100491407D01*
X153097400Y-100491413D01*
X153092306Y-100498425D01*
X153036975Y-100541089D01*
X152967361Y-100547067D01*
X152905567Y-100514459D01*
X152891674Y-100498425D01*
X152886579Y-100491413D01*
X152886574Y-100491407D01*
X152719572Y-100324405D01*
X152719570Y-100324403D01*
X152528493Y-100185577D01*
X152499929Y-100171023D01*
X152318056Y-100078353D01*
X152093428Y-100005366D01*
X151860157Y-99968420D01*
X151860152Y-99968420D01*
X151623968Y-99968420D01*
X151623963Y-99968420D01*
X151390691Y-100005366D01*
X151166063Y-100078353D01*
X150955626Y-100185577D01*
X150846610Y-100264782D01*
X150764550Y-100324403D01*
X150764548Y-100324405D01*
X150764547Y-100324405D01*
X150597542Y-100491410D01*
X150592312Y-100498610D01*
X150536981Y-100541275D01*
X150467368Y-100547253D01*
X150405573Y-100514646D01*
X150391678Y-100498610D01*
X150386447Y-100491410D01*
X150219442Y-100324405D01*
X150219440Y-100324403D01*
X150028363Y-100185577D01*
X149999799Y-100171023D01*
X149817926Y-100078353D01*
X149593298Y-100005366D01*
X149360027Y-99968420D01*
X149360022Y-99968420D01*
X149123838Y-99968420D01*
X149123833Y-99968420D01*
X148890561Y-100005366D01*
X148665933Y-100078353D01*
X148455496Y-100185577D01*
X148346480Y-100264782D01*
X148264420Y-100324403D01*
X148264418Y-100324405D01*
X148264417Y-100324405D01*
X148097415Y-100491407D01*
X148097410Y-100491413D01*
X148092316Y-100498425D01*
X148036985Y-100541089D01*
X147967371Y-100547067D01*
X147905577Y-100514459D01*
X147891684Y-100498425D01*
X147886589Y-100491413D01*
X147886584Y-100491407D01*
X147719582Y-100324405D01*
X147719580Y-100324403D01*
X147528503Y-100185577D01*
X147499939Y-100171023D01*
X147318066Y-100078353D01*
X147093438Y-100005366D01*
X146860167Y-99968420D01*
X146860162Y-99968420D01*
X146623978Y-99968420D01*
X146623973Y-99968420D01*
X146390701Y-100005366D01*
X146166073Y-100078353D01*
X145955636Y-100185577D01*
X145846620Y-100264782D01*
X145764560Y-100324403D01*
X145764558Y-100324405D01*
X145764557Y-100324405D01*
X145597555Y-100491407D01*
X145597555Y-100491408D01*
X145597553Y-100491410D01*
X145560539Y-100542355D01*
X145458727Y-100682486D01*
X145351503Y-100892923D01*
X145278516Y-101117551D01*
X145241570Y-101350822D01*
X143240500Y-101350822D01*
X143203553Y-101117551D01*
X143167776Y-101007442D01*
X143130568Y-100892928D01*
X143130566Y-100892925D01*
X143130566Y-100892923D01*
X143046860Y-100728642D01*
X143023343Y-100682487D01*
X142884517Y-100491410D01*
X142717510Y-100324403D01*
X142526433Y-100185577D01*
X142497869Y-100171023D01*
X142315996Y-100078353D01*
X142091368Y-100005366D01*
X141858097Y-99968420D01*
X141858092Y-99968420D01*
X141621908Y-99968420D01*
X141621903Y-99968420D01*
X141388631Y-100005366D01*
X141164003Y-100078353D01*
X140953566Y-100185577D01*
X140844550Y-100264782D01*
X140762490Y-100324403D01*
X140762488Y-100324405D01*
X140762487Y-100324405D01*
X140595485Y-100491407D01*
X140595480Y-100491413D01*
X140589986Y-100498975D01*
X140534653Y-100541638D01*
X140465040Y-100547613D01*
X140403247Y-100515003D01*
X140389353Y-100498967D01*
X140385388Y-100493510D01*
X140384647Y-100492490D01*
X140217640Y-100325483D01*
X140026563Y-100186657D01*
X140024443Y-100185577D01*
X139816126Y-100079433D01*
X139591498Y-100006446D01*
X139358227Y-99969500D01*
X139358222Y-99969500D01*
X139122038Y-99969500D01*
X139122033Y-99969500D01*
X138888761Y-100006446D01*
X138664133Y-100079433D01*
X138453696Y-100186657D01*
X138344680Y-100265862D01*
X138262620Y-100325483D01*
X138262618Y-100325485D01*
X138262617Y-100325485D01*
X138095612Y-100492490D01*
X138090382Y-100499690D01*
X138035051Y-100542355D01*
X137965438Y-100548333D01*
X137903643Y-100515726D01*
X137889748Y-100499690D01*
X137884517Y-100492490D01*
X137717512Y-100325485D01*
X137717510Y-100325483D01*
X137526433Y-100186657D01*
X137524313Y-100185577D01*
X137315996Y-100079433D01*
X137091368Y-100006446D01*
X136858097Y-99969500D01*
X136858092Y-99969500D01*
X136621908Y-99969500D01*
X136621903Y-99969500D01*
X136388631Y-100006446D01*
X136164003Y-100079433D01*
X135953566Y-100186657D01*
X135844550Y-100265862D01*
X135762490Y-100325483D01*
X135762488Y-100325485D01*
X135762487Y-100325485D01*
X135595485Y-100492487D01*
X135595480Y-100492493D01*
X135590386Y-100499505D01*
X135535055Y-100542169D01*
X135465441Y-100548147D01*
X135403647Y-100515539D01*
X135389754Y-100499505D01*
X135384659Y-100492493D01*
X135384654Y-100492487D01*
X135217652Y-100325485D01*
X135217650Y-100325483D01*
X135026573Y-100186657D01*
X135024453Y-100185577D01*
X134816136Y-100079433D01*
X134591508Y-100006446D01*
X134358237Y-99969500D01*
X134358232Y-99969500D01*
X134122048Y-99969500D01*
X134122043Y-99969500D01*
X133888771Y-100006446D01*
X133664143Y-100079433D01*
X133453706Y-100186657D01*
X133344690Y-100265862D01*
X133262630Y-100325483D01*
X133262628Y-100325485D01*
X133262627Y-100325485D01*
X133095625Y-100492487D01*
X133095625Y-100492488D01*
X133095623Y-100492490D01*
X133090014Y-100500210D01*
X133090010Y-100500216D01*
X133034678Y-100542880D01*
X132965065Y-100548856D01*
X132903271Y-100516248D01*
X132889379Y-100500216D01*
X132884507Y-100493510D01*
X132717500Y-100326503D01*
X132526423Y-100187677D01*
X132493738Y-100171023D01*
X132315986Y-100080453D01*
X132091358Y-100007466D01*
X131858087Y-99970520D01*
X131858082Y-99970520D01*
X131621898Y-99970520D01*
X131621893Y-99970520D01*
X131388621Y-100007466D01*
X131163993Y-100080453D01*
X130953556Y-100187677D01*
X130844540Y-100266882D01*
X130762480Y-100326503D01*
X130762478Y-100326505D01*
X130762477Y-100326505D01*
X130595475Y-100493507D01*
X130595470Y-100493513D01*
X130590609Y-100500204D01*
X130535277Y-100542867D01*
X130465663Y-100548842D01*
X130403870Y-100516233D01*
X130389976Y-100500197D01*
X130389473Y-100499505D01*
X130384377Y-100492490D01*
X130217370Y-100325483D01*
X130026293Y-100186657D01*
X130024173Y-100185577D01*
X129815856Y-100079433D01*
X129591228Y-100006446D01*
X129357957Y-99969500D01*
X129357952Y-99969500D01*
X129121768Y-99969500D01*
X129121763Y-99969500D01*
X128888491Y-100006446D01*
X128663863Y-100079433D01*
X128453426Y-100186657D01*
X128344410Y-100265862D01*
X128262350Y-100325483D01*
X128262348Y-100325485D01*
X128262347Y-100325485D01*
X128095345Y-100492487D01*
X128095340Y-100492493D01*
X128090246Y-100499505D01*
X128034915Y-100542169D01*
X127965301Y-100548147D01*
X127903507Y-100515539D01*
X127889614Y-100499505D01*
X127884519Y-100492493D01*
X127884514Y-100492487D01*
X127717512Y-100325485D01*
X127717510Y-100325483D01*
X127526433Y-100186657D01*
X127524313Y-100185577D01*
X127315996Y-100079433D01*
X127091368Y-100006446D01*
X126858097Y-99969500D01*
X126858092Y-99969500D01*
X126621908Y-99969500D01*
X126621903Y-99969500D01*
X126388631Y-100006446D01*
X126164003Y-100079433D01*
X125953566Y-100186657D01*
X125844550Y-100265862D01*
X125762490Y-100325483D01*
X125762488Y-100325485D01*
X125762487Y-100325485D01*
X125595482Y-100492490D01*
X125590252Y-100499690D01*
X125534921Y-100542355D01*
X125465308Y-100548333D01*
X125403513Y-100515726D01*
X125389618Y-100499690D01*
X125384387Y-100492490D01*
X125217382Y-100325485D01*
X125217380Y-100325483D01*
X125026303Y-100186657D01*
X125024183Y-100185577D01*
X124815866Y-100079433D01*
X124591238Y-100006446D01*
X124357967Y-99969500D01*
X124357962Y-99969500D01*
X124121778Y-99969500D01*
X124121773Y-99969500D01*
X123888501Y-100006446D01*
X123663873Y-100079433D01*
X123453436Y-100186657D01*
X123344420Y-100265862D01*
X123262360Y-100325483D01*
X123262358Y-100325485D01*
X123262357Y-100325485D01*
X123095355Y-100492487D01*
X123095355Y-100492488D01*
X123095353Y-100492490D01*
X123054916Y-100548147D01*
X122956527Y-100683566D01*
X122849303Y-100894003D01*
X122776316Y-101118631D01*
X122739370Y-101351902D01*
X122200500Y-101351902D01*
X122200500Y-99083869D01*
X122200512Y-99073493D01*
X122201184Y-99070884D01*
X122200588Y-99011309D01*
X122200589Y-99010611D01*
X122200672Y-99010326D01*
X122201245Y-98998023D01*
X122207846Y-98934108D01*
X122210644Y-98907010D01*
X122216628Y-98879722D01*
X122218012Y-98875666D01*
X122243891Y-98799795D01*
X122255827Y-98774550D01*
X122300301Y-98702750D01*
X122317592Y-98680814D01*
X122377007Y-98620800D01*
X122398766Y-98603295D01*
X122470116Y-98558106D01*
X122495247Y-98545915D01*
X122574897Y-98517853D01*
X122602127Y-98511598D01*
X122674027Y-98503445D01*
X122693034Y-98501290D01*
X122707005Y-98500500D01*
X141187528Y-98500500D01*
X141187532Y-98500500D01*
X141359938Y-98470101D01*
X141524445Y-98410225D01*
X141676055Y-98322692D01*
X141810163Y-98210163D01*
X141922692Y-98076055D01*
X142010225Y-97924445D01*
X142070101Y-97759938D01*
X142100500Y-97587532D01*
X142100500Y-97500000D01*
X142100500Y-97434108D01*
X142100500Y-97361107D01*
X142101652Y-97356460D01*
X142100500Y-97295279D01*
X142100500Y-97234108D01*
X142100497Y-97234099D01*
X142100064Y-97230808D01*
X142100036Y-97230440D01*
X142099669Y-97228004D01*
X142099668Y-97227996D01*
X142099171Y-97224704D01*
X142099171Y-97224699D01*
X142099169Y-97224691D01*
X142082548Y-97167023D01*
X142081922Y-97164774D01*
X142066392Y-97106815D01*
X142065111Y-97103722D01*
X142065095Y-97103683D01*
X142064173Y-97101456D01*
X142064004Y-97101121D01*
X142062673Y-97098071D01*
X142062673Y-97098070D01*
X142031670Y-97046633D01*
X142030431Y-97044528D01*
X142030309Y-97044316D01*
X142026157Y-97036464D01*
X141944974Y-96868634D01*
X141936993Y-96847344D01*
X141889341Y-96672987D01*
X141885384Y-96650595D01*
X141870393Y-96470460D01*
X141870593Y-96447723D01*
X141888771Y-96267869D01*
X141893121Y-96245569D01*
X141943857Y-96072067D01*
X141952212Y-96050925D01*
X142033792Y-95889624D01*
X142045878Y-95870354D01*
X142090835Y-95811461D01*
X142155548Y-95726686D01*
X142170955Y-95709945D01*
X142170970Y-95709932D01*
X142305034Y-95588733D01*
X142323237Y-95575090D01*
X142477208Y-95480418D01*
X142497594Y-95470333D01*
X142666273Y-95405389D01*
X142688160Y-95399199D01*
X142865873Y-95366169D01*
X142888511Y-95364082D01*
X143069260Y-95364082D01*
X143091916Y-95366169D01*
G37*
%TD.AperFunction*%
%TD*%
M02*
