M48
; DRILL file {KiCad 9.0.6} date 2025-12-19T16:30:06+0000
; FORMAT={-:-/ absolute / inch / decimal}
; #@! TF.CreationDate,2025-12-19T16:30:06+00:00
; #@! TF.GenerationSoftware,Kicad,Pcbnew,9.0.6
; #@! TF.FileFunction,Plated,1,2,PTH
FMAT,2
INCH
; #@! TA.AperFunction,Plated,PTH,ViaDrill
T1C0.0157
; #@! TA.AperFunction,Plated,PTH,ViaDrill
T2C0.0236
; #@! TA.AperFunction,Plated,PTH,ComponentDrill
T3C0.0394
; #@! TA.AperFunction,Plated,PTH,ComponentDrill
T4C0.0402
; #@! TA.AperFunction,Plated,PTH,ViaDrill
T5C0.0709
%
G90
G05
T1
X4.1571Y-4.2102
X4.1594Y-4.3087
X4.2016Y-3.5591
X4.2504Y-4.1354
X4.2654Y-3.0937
X4.2862Y-2.524
X4.2985Y-3.3779
X4.3185Y-3.4579
X4.3228Y-3.1937
X4.3413Y-3.6488
X4.4075Y-4.4276
X4.4339Y-4.1787
X4.4409Y-3.1055
X4.4602Y-3.9846
X4.463Y-3.5395
X4.4713Y-3.352
X4.4713Y-3.4122
X4.4862Y-3.0587
X4.4984Y-3.4547
X4.5059Y-3.2205
X4.5217Y-2.5394
X4.5319Y-4.087
X4.5421Y-3.3961
X4.5551Y-3.126
X4.5713Y-2.9913
X4.6043Y-4.4358
X4.6602Y-3.2142
X4.6622Y-3.4409
X4.6728Y-2.6831
X4.7335Y-3.7252
X4.7429Y-3.563
X4.7673Y-2.9614
X4.7882Y-2.8748
X4.7898Y-3.0547
X4.7904Y-2.7545
X4.7925Y-3.4142
X4.7957Y-4.185
X4.8461Y-3.9461
X4.8638Y-4.0795
X4.8713Y-3.2047
X4.8937Y-3.5547
X4.902Y-4.4327
X4.9083Y-4.1909
X4.9142Y-3.4083
X5.0067Y-4.1909
X5.0071Y-3.4071
X5.0232Y-2.9854
X5.0343Y-3.15
X5.0685Y-2.8571
X5.0945Y-3.0811
X5.1035Y-3.4059
X5.1331Y-3.7693
X5.1402Y-3.6705
X5.1661Y-3.5622
X5.1846Y-4.1878
X5.1913Y-3.7646
X5.2091Y-3.4102
X5.2181Y-3.9933
X5.2461Y-3.7839
X5.2469Y-4.4315
X5.2673Y-2.8524
X5.2693Y-3.5535
X5.2827Y-3.3846
X5.2862Y-3.1106
X5.2937Y-3.8
X5.3122Y-2.6894
X5.3272Y-4.1898
X5.3343Y-3.7972
X5.3343Y-3.9289
X5.3516Y-3.9969
X5.3559Y-3.4878
X5.3563Y-3.75
X5.3744Y-4.1449
X5.3933Y-2.8614
X5.3961Y-3.4535
X5.4008Y-4.4256
X5.4012Y-3.3843
X5.4146Y-3.15
X5.4354Y-2.828
X5.4398Y-3.7567
X5.4398Y-3.8154
X5.4496Y-2.737
X5.4559Y-3.7075
X5.4598Y-4.1791
X5.487Y-3.8106
X5.4933Y-3.0618
X5.4937Y-3.4039
X5.4969Y-3.998
X5.5016Y-3.2476
X5.5114Y-2.7205
X5.515Y-3.6374
X5.5295Y-3.1402
X5.552Y-4.0035
X5.5661Y-3.4642
X5.5685Y-4.1835
X5.5736Y-2.965
X5.5744Y-3.7087
X5.5791Y-3.163
X5.6098Y-2.8465
X5.6252Y-3.8094
X5.6382Y-3.5894
X5.6484Y-3.4039
X5.6535Y-2.6921
X5.6571Y-3.065
X5.6909Y-4.4252
X5.7051Y-3.9795
X5.7114Y-3.485
X5.722Y-3.7378
X5.7295Y-2.865
X5.7386Y-2.9669
X5.7398Y-3.7906
X5.7421Y-3.0642
X5.7512Y-3.4012
X5.7598Y-3.1811
X5.763Y-3.4709
X5.7744Y-3.7043
X5.7862Y-2.6933
X5.7953Y-3.1165
X5.8248Y-3.9803
X5.826Y-4.1665
X5.8303Y-3.5929
X5.8402Y-3.4118
X5.8406Y-3.6626
X5.8531Y-2.8614
X5.8531Y-3.798
X5.8539Y-3.2283
X5.8575Y-2.9732
X5.8669Y-2.7705
X5.872Y-3.0327
X5.8783Y-4.0012
X5.8902Y-4.4303
X5.926Y-2.6858
X5.935Y-3.4008
X5.9387Y-3.0352
X5.9387Y-3.0972
X5.939Y-2.9732
X5.9413Y-3.2126
X5.9421Y-2.8638
X5.9472Y-3.5016
X5.9571Y-4.0091
X5.9787Y-3.6386
X5.9925Y-4.0327
X6.0199Y-3.0352
X6.0199Y-3.0972
X6.0205Y-2.9732
X6.0209Y-4.1776
X6.0217Y-2.8638
X6.0228Y-3.2118
X6.0256Y-3.3831
X6.0303Y-3.4689
X6.0524Y-3.802
X6.0547Y-3.989
X6.089Y-3.5602
X6.1011Y-3.0352
X6.1011Y-3.0972
X6.102Y-2.9732
X6.1028Y-2.8626
X6.1028Y-3.2114
X6.1311Y-3.5858
X6.1364Y-3.6335
X6.1409Y-2.6858
X6.1425Y-3.9866
X6.1689Y-3.5807
X6.1697Y-4.1858
X6.1748Y-3.387
X6.1835Y-2.8614
X6.1835Y-2.9732
X6.1835Y-3.0352
X6.1835Y-3.0972
X6.1937Y-3.2091
X6.2009Y-3.9819
X6.2039Y-4.4303
X6.2118Y-4.0362
X6.2152Y-3.5654
X6.2567Y-3.5445
X6.2587Y-2.911
X6.2626Y-2.9972
X6.2646Y-3.0783
X6.2661Y-3.1591
X6.2736Y-4.1831
X6.2851Y-3.5743
X6.2961Y-2.7929
X6.3075Y-2.9642
X6.323Y-3.7919
X6.3236Y-3.5819
X6.3433Y-3.0433
X6.3591Y-3.8457
X6.3626Y-3.5634
X6.3693Y-3.7575
X6.3835Y-3.1193
X6.3898Y-4.1811
X6.3965Y-4.0264
X6.4085Y-3.5411
X6.4122Y-3.5996
X6.4169Y-2.7992
X6.4173Y-3.2197
X6.4854Y-3.048
X6.5004Y-2.6484
X6.5087Y-3.4516
X6.5622Y-3.3827
X6.565Y-2.9382
X6.5697Y-3.0819
X6.5697Y-4.1866
X6.5701Y-2.8031
X6.5929Y-4.4303
X6.628Y-3.8559
X6.6819Y-3.6469
X6.6902Y-3.4016
X6.7055Y-4.0496
X6.7059Y-3.9587
X6.7063Y-3.8496
X6.7126Y-3.902
X6.7398Y-3.337
X6.7425Y-2.9752
X6.7453Y-3.0835
X6.7862Y-3.4012
X6.7984Y-2.8917
X6.802Y-3.5394
X6.8209Y-3.1732
X6.826Y-2.6311
X6.8291Y-3.3169
X6.8394Y-3.0354
X6.8402Y-3.8587
X6.8488Y-2.6835
X6.8488Y-2.722
X6.8488Y-2.7606
X6.8488Y-2.7992
X6.8839Y-3.9571
X6.8984Y-3.3961
X6.9689Y-2.6823
X6.9689Y-2.7209
X6.9689Y-2.7594
X6.9689Y-2.798
X6.9689Y-2.8366
X6.9689Y-2.8752
X6.9689Y-2.9138
X6.9689Y-2.9524
X6.9732Y-4.3772
X6.9736Y-4.2394
X6.9906Y-3.2457
X6.9909Y-3.0965
X6.9996Y-3.1445
X7.0272Y-2.961
X7.0307Y-3.2516
X7.0374Y-3.0638
X7.0378Y-2.6098
X7.0677Y-3.7772
X7.0732Y-3.9591
X7.0752Y-4.2394
X7.0752Y-4.376
X7.0768Y-4.0854
X7.1831Y-3.5843
X7.1945Y-4.324
X7.1988Y-3.7799
X7.2016Y-4.0071
X7.2035Y-4.1677
X7.2047Y-3.8512
X7.2118Y-4.0862
X7.2122Y-4.4087
X7.215Y-4.2531
X7.2169Y-3.9555
X7.2177Y-3.4173
X7.2232Y-3.4996
X7.2453Y-3.5614
X7.2732Y-3.5268
X7.278Y-3.4482
X7.278Y-3.487
X7.2925Y-2.5256
X7.3453Y-3.1701
X7.3484Y-3.0291
X7.3524Y-4.3071
T2
X5.5764Y-2.7929
X5.8213Y-3.5457
X6.3185Y-3.8776
X6.413Y-3.4795
X6.415Y-3.7945
X6.4593Y-4.014
X7.006Y-3.4488
X7.0307Y-3.6307
T3
X4.2508Y-4.2591
X4.2508Y-4.3591
X4.3508Y-4.2591
X4.3508Y-4.3591
X4.4508Y-4.2591
X4.4508Y-4.3591
X4.5508Y-4.2591
X4.5508Y-4.3591
X4.6508Y-4.2591
X4.6508Y-4.3591
X4.7508Y-4.2591
X4.7508Y-4.3591
X4.8508Y-4.2591
X4.8508Y-4.3591
X4.9508Y-4.2591
X4.9508Y-4.3591
X5.0508Y-4.2591
X5.0508Y-4.3591
X5.1508Y-4.2591
X5.1508Y-4.3591
X5.2508Y-4.2591
X5.2508Y-4.3591
X5.3508Y-4.2591
X5.3508Y-4.3591
X5.4508Y-4.2591
X5.4508Y-4.3591
X5.5508Y-4.2591
X5.5508Y-4.3591
X5.6508Y-4.2591
X5.6508Y-4.3591
X5.7508Y-4.2591
X5.7508Y-4.3591
X5.8508Y-4.2591
X5.8508Y-4.3591
X5.9508Y-4.2591
X5.9508Y-4.3591
X6.0508Y-4.2591
X6.0508Y-4.3591
X6.1508Y-4.2591
X6.1508Y-4.3591
X6.2508Y-4.2591
X6.2508Y-4.3591
X6.3508Y-4.2591
X6.3508Y-4.3591
X6.4508Y-4.2591
X6.4508Y-4.3591
X6.5508Y-4.2591
X6.5508Y-4.3591
X6.6508Y-4.2591
X6.6508Y-4.3591
X6.7508Y-4.2591
X6.7508Y-4.3591
X6.8508Y-4.2591
X6.8508Y-4.3591
T4
X4.7496Y-2.5984
X4.7496Y-3.2984
X4.8496Y-2.5984
X4.8496Y-3.2984
X4.9496Y-2.5984
X4.9496Y-3.2984
X5.0496Y-2.5984
X5.0496Y-3.2984
X5.1496Y-2.5984
X5.1496Y-3.2984
X5.2496Y-2.5984
X5.2496Y-3.2984
X5.3496Y-2.5984
X5.3496Y-3.2984
X5.4496Y-2.5984
X5.4496Y-3.2984
X5.5496Y-2.5984
X5.5496Y-3.2984
X5.6496Y-2.5984
X5.6496Y-3.2984
X5.7496Y-2.5984
X5.7496Y-3.2984
X5.8496Y-2.5984
X5.8496Y-3.2984
X5.9496Y-2.5984
X5.9496Y-3.2984
X6.0496Y-2.5984
X6.0496Y-3.2984
X6.1496Y-2.5984
X6.1496Y-3.2984
X6.2496Y-2.5984
X6.2496Y-3.2984
X6.3496Y-2.5984
X6.3496Y-3.2984
X6.4496Y-2.5984
X6.4496Y-3.2984
X6.5496Y-2.5984
X6.5496Y-3.2984
X6.6494Y-2.7992
X6.6494Y-2.8992
X6.6494Y-2.9992
X6.6494Y-3.0992
X6.6496Y-2.5984
X6.6496Y-3.2984
T5
X4.0024Y-4.3142
X7.5193Y-2.5524
M30
