%TF.GenerationSoftware,KiCad,Pcbnew,9.0.6*%
%TF.CreationDate,2025-12-23T23:13:00+00:00*%
%TF.ProjectId,GG_LCD_DIY,47475f4c-4344-45f4-9449-592e6b696361,rev?*%
%TF.SameCoordinates,Original*%
%TF.FileFunction,Profile,NP*%
%FSLAX46Y46*%
G04 Gerber Fmt 4.6, Leading zero omitted, Abs format (unit mm)*
G04 Created by KiCad (PCBNEW 9.0.6) date 2025-12-23 23:13:00*
%MOMM*%
%LPD*%
G01*
G04 APERTURE LIST*
%TA.AperFunction,Profile*%
%ADD10C,0.050000*%
%TD*%
%ADD11C,0.050000*%
G04 APERTURE END LIST*
D10*
X101850000Y-112300000D02*
G75*
G02*
X101850000Y-106700000I0J2800000D01*
G01*
X188000000Y-68800000D02*
G75*
G02*
X189000000Y-67800000I1000000J0D01*
G01*
X105110000Y-103600000D02*
X105110000Y-62250000D01*
X106110000Y-61250000D02*
X179850000Y-61250000D01*
X102010000Y-106700000D02*
X101850000Y-106700000D01*
X105110000Y-103600000D02*
G75*
G02*
X102010000Y-106700000I-3100000J0D01*
G01*
X101850000Y-112300000D02*
X109820000Y-112300000D01*
X191020000Y-62200000D02*
X183050000Y-62200000D01*
X191020000Y-62200000D02*
G75*
G02*
X191020000Y-67800000I0J-2800000D01*
G01*
D11*
X109820000Y-112300000D02*
X109825117Y-112300105D01*
X109830221Y-112300231D01*
X109835315Y-112300376D01*
X109840397Y-112300540D01*
X109845470Y-112300724D01*
X109850530Y-112300928D01*
X109855582Y-112301151D01*
X109860621Y-112301394D01*
X109865652Y-112301657D01*
X109870670Y-112301938D01*
X109875681Y-112302240D01*
X109880679Y-112302560D01*
X109885669Y-112302900D01*
X109890648Y-112303259D01*
X109895618Y-112303638D01*
X109900577Y-112304036D01*
X109905529Y-112304453D01*
X109910469Y-112304890D01*
X109920323Y-112305820D01*
X109930141Y-112306827D01*
X109939924Y-112307911D01*
X109949672Y-112309072D01*
X109959386Y-112310308D01*
X109969067Y-112311621D01*
X109978716Y-112313010D01*
X109988334Y-112314475D01*
X109997921Y-112316016D01*
X110007480Y-112317634D01*
X110017009Y-112319327D01*
X110026512Y-112321097D01*
X110035987Y-112322943D01*
X110045436Y-112324865D01*
X110054861Y-112326863D01*
X110064261Y-112328938D01*
X110073638Y-112331090D01*
X110082993Y-112333318D01*
X110092326Y-112335623D01*
X110101639Y-112338006D01*
X110110933Y-112340465D01*
X110120207Y-112343003D01*
X110129464Y-112345618D01*
X110138705Y-112348311D01*
X110147929Y-112351083D01*
X110157139Y-112353934D01*
X110166335Y-112356864D01*
X110175518Y-112359874D01*
X110184688Y-112362964D01*
X110193848Y-112366134D01*
X110202999Y-112369385D01*
X110212140Y-112372718D01*
X110221273Y-112376133D01*
X110230400Y-112379631D01*
X110239520Y-112383211D01*
X110248637Y-112386876D01*
X110257749Y-112390625D01*
X110266859Y-112394460D01*
X110275968Y-112398381D01*
X110285077Y-112402388D01*
X110294186Y-112406483D01*
X110303298Y-112410666D01*
X110312414Y-112414939D01*
X110321534Y-112419303D01*
X110330660Y-112423757D01*
X110339793Y-112428304D01*
X110348935Y-112432944D01*
X110358087Y-112437679D01*
X110367251Y-112442510D01*
X110376427Y-112447438D01*
X110385618Y-112452463D01*
X110394825Y-112457589D01*
X110404050Y-112462816D01*
X110413294Y-112468145D01*
X110422558Y-112473579D01*
X110431846Y-112479118D01*
X110441158Y-112484765D01*
X110450497Y-112490521D01*
X110459864Y-112496388D01*
X110469261Y-112502369D01*
X110478692Y-112508464D01*
X110488157Y-112514678D01*
X110497659Y-112521011D01*
X110507202Y-112527467D01*
X110516786Y-112534047D01*
X110526416Y-112540755D01*
X110536094Y-112547594D01*
X110545822Y-112554566D01*
X110555605Y-112561675D01*
X110565445Y-112568924D01*
X110575346Y-112576317D01*
X110585313Y-112583859D01*
X110595348Y-112591552D01*
X110605456Y-112599401D01*
X110615643Y-112607412D01*
X110625912Y-112615590D01*
X110636269Y-112623939D01*
X110646720Y-112632466D01*
X110657272Y-112641178D01*
X110667930Y-112650081D01*
X110678703Y-112659184D01*
X110689598Y-112668493D01*
X110700624Y-112678020D01*
X110711792Y-112687773D01*
X110723110Y-112697764D01*
X110734593Y-112708005D01*
X110746252Y-112718511D01*
X110758103Y-112729296D01*
X110770163Y-112740378D01*
X110782452Y-112751779D01*
X110794991Y-112763519D01*
X110807807Y-112775627D01*
X110820929Y-112788134D01*
X110834394Y-112801075D01*
X110848245Y-112814497D01*
X110862533Y-112828454D01*
X110877325Y-112843011D01*
X110892703Y-112858256D01*
X110908775Y-112874300D01*
X110925689Y-112891293D01*
X110943652Y-112909450D01*
X110962975Y-112929092D01*
X110984168Y-112950744D01*
X111008189Y-112975391D01*
X111037308Y-113005370D01*
X111060799Y-113029595D01*
X111082017Y-113051477D01*
X111103316Y-113073419D01*
X111124706Y-113095406D01*
X111146198Y-113117427D01*
X111167801Y-113139466D01*
X111178648Y-113150489D01*
X111189527Y-113161512D01*
X111200440Y-113172533D01*
X111211387Y-113183551D01*
X111222370Y-113194564D01*
X111233390Y-113205570D01*
X111244449Y-113216567D01*
X111255547Y-113227555D01*
X111266687Y-113238532D01*
X111277870Y-113249494D01*
X111289096Y-113260443D01*
X111300367Y-113271374D01*
X111311685Y-113282287D01*
X111323050Y-113293181D01*
X111334465Y-113304053D01*
X111345930Y-113314902D01*
X111357447Y-113325726D01*
X111369017Y-113336523D01*
X111380641Y-113347293D01*
X111392321Y-113358033D01*
X111404058Y-113368741D01*
X111415853Y-113379417D01*
X111427708Y-113390057D01*
X111439624Y-113400662D01*
X111451602Y-113411228D01*
X111463643Y-113421755D01*
X111475750Y-113432241D01*
X111487923Y-113442684D01*
X111500163Y-113453082D01*
X111506309Y-113458264D01*
X111512472Y-113463434D01*
X111518653Y-113468592D01*
X111524851Y-113473738D01*
X111531068Y-113478872D01*
X111537302Y-113483993D01*
X111543555Y-113489101D01*
X111549826Y-113494196D01*
X111556115Y-113499278D01*
X111562423Y-113504347D01*
X111568750Y-113509402D01*
X111575096Y-113514443D01*
X111581462Y-113519470D01*
X111587846Y-113524483D01*
X111594250Y-113529482D01*
X111600674Y-113534466D01*
X111607118Y-113539435D01*
X111613582Y-113544389D01*
X111620065Y-113549328D01*
X111626570Y-113554251D01*
X111633094Y-113559159D01*
X111639640Y-113564051D01*
X111646206Y-113568926D01*
X111652793Y-113573786D01*
X111659401Y-113578629D01*
X111666031Y-113583455D01*
X111672682Y-113588264D01*
X111679355Y-113593056D01*
X111686050Y-113597831D01*
X111692766Y-113602589D01*
X111699505Y-113607328D01*
X111706266Y-113612050D01*
X111713050Y-113616754D01*
X111719856Y-113621439D01*
X111726685Y-113626106D01*
X111733537Y-113630754D01*
X111740412Y-113635382D01*
X111747311Y-113639992D01*
X111754233Y-113644583D01*
X111761178Y-113649154D01*
X111768148Y-113653705D01*
X111775141Y-113658236D01*
X111782158Y-113662747D01*
X111789200Y-113667237D01*
X111796266Y-113671707D01*
X111803357Y-113676156D01*
X111810473Y-113680584D01*
X111817613Y-113684991D01*
X111824779Y-113689376D01*
X111831970Y-113693740D01*
X111839186Y-113698082D01*
X111846428Y-113702402D01*
X111853696Y-113706699D01*
X111860990Y-113710975D01*
X111868309Y-113715227D01*
X111875655Y-113719457D01*
X111883028Y-113723663D01*
X111890427Y-113727846D01*
X111897853Y-113732006D01*
X111905306Y-113736142D01*
X111912786Y-113740254D01*
X111920293Y-113744342D01*
X111927827Y-113748406D01*
X111935389Y-113752445D01*
X111942979Y-113756460D01*
X111950597Y-113760449D01*
X111958243Y-113764414D01*
X111965917Y-113768353D01*
X111973619Y-113772266D01*
X111981350Y-113776154D01*
X111989110Y-113780016D01*
X111996899Y-113783852D01*
X112004717Y-113787661D01*
X112012564Y-113791443D01*
X112020440Y-113795199D01*
X112028346Y-113798928D01*
X112036282Y-113802630D01*
X112044247Y-113806304D01*
X112052243Y-113809951D01*
X112060269Y-113813570D01*
X112068325Y-113817161D01*
X112076412Y-113820723D01*
X112084529Y-113824258D01*
X112092678Y-113827763D01*
X112100857Y-113831240D01*
X112109068Y-113834687D01*
X112117309Y-113838106D01*
X112125583Y-113841495D01*
X112133888Y-113844854D01*
X112142225Y-113848184D01*
X112150594Y-113851483D01*
X112158996Y-113854752D01*
X112167429Y-113857990D01*
X112175895Y-113861198D01*
X112184394Y-113864375D01*
X112192926Y-113867521D01*
X112201491Y-113870636D01*
X112210088Y-113873719D01*
X112218720Y-113876770D01*
X112227384Y-113879789D01*
X112236083Y-113882777D01*
X112244815Y-113885731D01*
X112253581Y-113888654D01*
X112262382Y-113891543D01*
X112271217Y-113894400D01*
X112280086Y-113897223D01*
X112288990Y-113900013D01*
X112297928Y-113902770D01*
X112306902Y-113905493D01*
X112315911Y-113908181D01*
X112324955Y-113910836D01*
X112334035Y-113913456D01*
X112343150Y-113916041D01*
X112352301Y-113918592D01*
X112361489Y-113921108D01*
X112370712Y-113923588D01*
X112379971Y-113926033D01*
X112389267Y-113928443D01*
X112398600Y-113930816D01*
X112407970Y-113933154D01*
X112417376Y-113935455D01*
X112426820Y-113937720D01*
X112436300Y-113939948D01*
X112445819Y-113942139D01*
X112455375Y-113944293D01*
X112464969Y-113946410D01*
X112474600Y-113948489D01*
X112484270Y-113950531D01*
X112493978Y-113952535D01*
X112503725Y-113954500D01*
X112513510Y-113956428D01*
X112523334Y-113958316D01*
X112533197Y-113960167D01*
X112543099Y-113961978D01*
X112553040Y-113963750D01*
X112563021Y-113965482D01*
X112573041Y-113967176D01*
X112583101Y-113968829D01*
X112593201Y-113970442D01*
X112603341Y-113972016D01*
X112613521Y-113973548D01*
X112623742Y-113975041D01*
X112634004Y-113976492D01*
X112644306Y-113977903D01*
X112654649Y-113979272D01*
X112665033Y-113980600D01*
X112675458Y-113981886D01*
X112685925Y-113983131D01*
X112696433Y-113984333D01*
X112706983Y-113985493D01*
X112717575Y-113986611D01*
X112728209Y-113987686D01*
X112738886Y-113988719D01*
X112749604Y-113989708D01*
X112760366Y-113990654D01*
X112771169Y-113991556D01*
X112782016Y-113992415D01*
X112792906Y-113993230D01*
X112803839Y-113994001D01*
X112814816Y-113994728D01*
X112825836Y-113995410D01*
X112836900Y-113996048D01*
X112848007Y-113996640D01*
X112859159Y-113997188D01*
X112870355Y-113997690D01*
X112881595Y-113998146D01*
X112892880Y-113998557D01*
X112904210Y-113998922D01*
X112915584Y-113999241D01*
X112927004Y-113999513D01*
X112938468Y-113999739D01*
X112949978Y-113999918D01*
X112961534Y-114000051D01*
X112973135Y-114000136D01*
X112984782Y-114000173D01*
X112996475Y-114000163D01*
X113008214Y-114000106D01*
X113020000Y-114000000D01*
D10*
X188000000Y-113000000D02*
X188000000Y-68800000D01*
X113020000Y-114000000D02*
X187000000Y-114000000D01*
X105110000Y-62250000D02*
G75*
G02*
X106110000Y-61250000I1000000J0D01*
G01*
X189000000Y-67800000D02*
X191020000Y-67800000D01*
D11*
X183050000Y-62200000D02*
X183043076Y-62199861D01*
X183036174Y-62199702D01*
X183029290Y-62199524D01*
X183022429Y-62199326D01*
X183015585Y-62199109D01*
X183008764Y-62198873D01*
X183001959Y-62198617D01*
X182995177Y-62198342D01*
X182988411Y-62198048D01*
X182981667Y-62197735D01*
X182974938Y-62197403D01*
X182968231Y-62197051D01*
X182961539Y-62196681D01*
X182954868Y-62196291D01*
X182948212Y-62195883D01*
X182941577Y-62195456D01*
X182934956Y-62195009D01*
X182928357Y-62194544D01*
X182921770Y-62194061D01*
X182915204Y-62193558D01*
X182908651Y-62193037D01*
X182902118Y-62192497D01*
X182895597Y-62191938D01*
X182889097Y-62191361D01*
X182876140Y-62190151D01*
X182863244Y-62188866D01*
X182850408Y-62187507D01*
X182837630Y-62186074D01*
X182824909Y-62184567D01*
X182812243Y-62182987D01*
X182799631Y-62181333D01*
X182787069Y-62179605D01*
X182774558Y-62177804D01*
X182762094Y-62175929D01*
X182749676Y-62173980D01*
X182737303Y-62171958D01*
X182724972Y-62169861D01*
X182712681Y-62167691D01*
X182700429Y-62165447D01*
X182688214Y-62163128D01*
X182676034Y-62160735D01*
X182663887Y-62158268D01*
X182651770Y-62155725D01*
X182639682Y-62153107D01*
X182627620Y-62150412D01*
X182615583Y-62147642D01*
X182603569Y-62144795D01*
X182591574Y-62141871D01*
X182579597Y-62138870D01*
X182567635Y-62135790D01*
X182555686Y-62132631D01*
X182543747Y-62129392D01*
X182531817Y-62126073D01*
X182519891Y-62122673D01*
X182507968Y-62119191D01*
X182496044Y-62115625D01*
X182484117Y-62111975D01*
X182472183Y-62108240D01*
X182460240Y-62104419D01*
X182448283Y-62100510D01*
X182436310Y-62096511D01*
X182424317Y-62092423D01*
X182412300Y-62088241D01*
X182400255Y-62083966D01*
X182388178Y-62079595D01*
X182376065Y-62075126D01*
X182363910Y-62070557D01*
X182351710Y-62065886D01*
X182339458Y-62061110D01*
X182327149Y-62056226D01*
X182314777Y-62051232D01*
X182302336Y-62046124D01*
X182289819Y-62040899D01*
X182277218Y-62035553D01*
X182264526Y-62030082D01*
X182251734Y-62024482D01*
X182238832Y-62018746D01*
X182225811Y-62012871D01*
X182212658Y-62006849D01*
X182199363Y-62000674D01*
X182185910Y-61994339D01*
X182172284Y-61987835D01*
X182158469Y-61981152D01*
X182144444Y-61974281D01*
X182130189Y-61967207D01*
X182115677Y-61959918D01*
X182100879Y-61952398D01*
X182085761Y-61944626D01*
X182070283Y-61936580D01*
X182054396Y-61928232D01*
X182038042Y-61919551D01*
X182021148Y-61910493D01*
X182003621Y-61901007D01*
X181985341Y-61891025D01*
X181966146Y-61880454D01*
X181945808Y-61869165D01*
X181923988Y-61856966D01*
X181900135Y-61843542D01*
X181873233Y-61828317D01*
X181840952Y-61809965D01*
X181810540Y-61792634D01*
X181767990Y-61768395D01*
X181746585Y-61756234D01*
X181725079Y-61744054D01*
X181703460Y-61731864D01*
X181681720Y-61719670D01*
X181659847Y-61707479D01*
X181648857Y-61701387D01*
X181637830Y-61695299D01*
X181626765Y-61689215D01*
X181615660Y-61683136D01*
X181604513Y-61677063D01*
X181593325Y-61670998D01*
X181582092Y-61664940D01*
X181570815Y-61658891D01*
X181559490Y-61652852D01*
X181548119Y-61646823D01*
X181536698Y-61640806D01*
X181525227Y-61634802D01*
X181513704Y-61628811D01*
X181502128Y-61622834D01*
X181490497Y-61616872D01*
X181478812Y-61610926D01*
X181467069Y-61604997D01*
X181455267Y-61599085D01*
X181443407Y-61593192D01*
X181431485Y-61587319D01*
X181419501Y-61581467D01*
X181407453Y-61575635D01*
X181395340Y-61569826D01*
X181383162Y-61564040D01*
X181370915Y-61558278D01*
X181358600Y-61552541D01*
X181346215Y-61546830D01*
X181333758Y-61541145D01*
X181321228Y-61535488D01*
X181308624Y-61529859D01*
X181295945Y-61524260D01*
X181283189Y-61518691D01*
X181270354Y-61513153D01*
X181257441Y-61507647D01*
X181244446Y-61502174D01*
X181231370Y-61496735D01*
X181218210Y-61491331D01*
X181204965Y-61485962D01*
X181191634Y-61480630D01*
X181178216Y-61475335D01*
X181164710Y-61470079D01*
X181151113Y-61464861D01*
X181137425Y-61459684D01*
X181123644Y-61454548D01*
X181109769Y-61449453D01*
X181095799Y-61444401D01*
X181081733Y-61439393D01*
X181067568Y-61434430D01*
X181053305Y-61429511D01*
X181038940Y-61424640D01*
X181024474Y-61419815D01*
X181009905Y-61415038D01*
X180995231Y-61410311D01*
X180987854Y-61407966D01*
X180980451Y-61405633D01*
X180973021Y-61403313D01*
X180965564Y-61401006D01*
X180958080Y-61398712D01*
X180950568Y-61396431D01*
X180943030Y-61394163D01*
X180935463Y-61391908D01*
X180927869Y-61389667D01*
X180920247Y-61387439D01*
X180912596Y-61385225D01*
X180904918Y-61383024D01*
X180897211Y-61380837D01*
X180889475Y-61378664D01*
X180881711Y-61376506D01*
X180873917Y-61374361D01*
X180866095Y-61372230D01*
X180858243Y-61370114D01*
X180850362Y-61368013D01*
X180842451Y-61365926D01*
X180834511Y-61363854D01*
X180826540Y-61361796D01*
X180818540Y-61359753D01*
X180810509Y-61357726D01*
X180802448Y-61355714D01*
X180794356Y-61353716D01*
X180786233Y-61351735D01*
X180778080Y-61349768D01*
X180769895Y-61347818D01*
X180761680Y-61345883D01*
X180753432Y-61343964D01*
X180745153Y-61342060D01*
X180736843Y-61340173D01*
X180728500Y-61338302D01*
X180720126Y-61336447D01*
X180711719Y-61334609D01*
X180703280Y-61332787D01*
X180694808Y-61330982D01*
X180686303Y-61329193D01*
X180677766Y-61327421D01*
X180669196Y-61325666D01*
X180660592Y-61323929D01*
X180651955Y-61322208D01*
X180643284Y-61320505D01*
X180634580Y-61318819D01*
X180625841Y-61317150D01*
X180617069Y-61315499D01*
X180608262Y-61313866D01*
X180599421Y-61312251D01*
X180590546Y-61310653D01*
X180581636Y-61309074D01*
X180572690Y-61307512D01*
X180563710Y-61305969D01*
X180554695Y-61304445D01*
X180545644Y-61302939D01*
X180536558Y-61301451D01*
X180527436Y-61299982D01*
X180518278Y-61298533D01*
X180509084Y-61297101D01*
X180499854Y-61295690D01*
X180490587Y-61294297D01*
X180481284Y-61292923D01*
X180471945Y-61291569D01*
X180462568Y-61290234D01*
X180453154Y-61288919D01*
X180443703Y-61287624D01*
X180434215Y-61286349D01*
X180424690Y-61285093D01*
X180415126Y-61283858D01*
X180405525Y-61282642D01*
X180395886Y-61281447D01*
X180386208Y-61280272D01*
X180376492Y-61279118D01*
X180366738Y-61277985D01*
X180356945Y-61276872D01*
X180347113Y-61275780D01*
X180337242Y-61274709D01*
X180327332Y-61273659D01*
X180317383Y-61272630D01*
X180307394Y-61271623D01*
X180297365Y-61270636D01*
X180287297Y-61269672D01*
X180277189Y-61268729D01*
X180267040Y-61267807D01*
X180256851Y-61266908D01*
X180246622Y-61266031D01*
X180236352Y-61265175D01*
X180226041Y-61264342D01*
X180215689Y-61263531D01*
X180205296Y-61262742D01*
X180194862Y-61261976D01*
X180184386Y-61261233D01*
X180173868Y-61260512D01*
X180163309Y-61259814D01*
X180152708Y-61259139D01*
X180142064Y-61258487D01*
X180131378Y-61257859D01*
X180120650Y-61257253D01*
X180109879Y-61256671D01*
X180099066Y-61256113D01*
X180088209Y-61255578D01*
X180077309Y-61255067D01*
X180066366Y-61254579D01*
X180055380Y-61254116D01*
X180044349Y-61253677D01*
X180033275Y-61253262D01*
X180022157Y-61252871D01*
X180010995Y-61252505D01*
X179999789Y-61252163D01*
X179988538Y-61251845D01*
X179977243Y-61251553D01*
X179965902Y-61251285D01*
X179954517Y-61251043D01*
X179943087Y-61250825D01*
X179931611Y-61250633D01*
X179920090Y-61250465D01*
X179908523Y-61250324D01*
X179896911Y-61250207D01*
X179885253Y-61250117D01*
X179873548Y-61250052D01*
X179861797Y-61250013D01*
X179850000Y-61250000D01*
D10*
X188000000Y-113000000D02*
G75*
G02*
X187000000Y-114000000I-1000000J0D01*
G01*
M02*
