M48
; DRILL file {KiCad 9.0.6} date 2025-12-23T23:13:00+0000
; FORMAT={-:-/ absolute / inch / decimal}
; #@! TF.CreationDate,2025-12-23T23:13:00+00:00
; #@! TF.GenerationSoftware,Kicad,Pcbnew,9.0.6
; #@! TF.FileFunction,Plated,1,2,PTH
FMAT,2
INCH
; #@! TA.AperFunction,Plated,PTH,ViaDrill
T1C0.0157
; #@! TA.AperFunction,Plated,PTH,ViaDrill
T2C0.0236
; #@! TA.AperFunction,Plated,PTH,ComponentDrill
T3C0.0394
; #@! TA.AperFunction,Plated,PTH,ComponentDrill
T4C0.0402
; #@! TA.AperFunction,Plated,PTH,ViaDrill
T5C0.0709
%
G90
G05
T1
X4.1571Y-4.2102
X4.1594Y-4.3087
X4.222Y-3.4638
X4.2276Y-3.1917
X4.2488Y-3.0465
X4.2862Y-2.524
X4.2945Y-4.1886
X4.2985Y-3.2795
X4.3205Y-3.3768
X4.3209Y-3.1118
X4.322Y-3.5528
X4.3669Y-3.039
X4.4012Y-2.9461
X4.4051Y-4.1819
X4.4059Y-4.4303
X4.422Y-3.461
X4.4409Y-3.1055
X4.4602Y-3.9846
X4.4713Y-3.2535
X4.4713Y-3.3138
X4.4862Y-3.0587
X4.498Y-4.4307
X4.4984Y-3.3563
X4.5028Y-4.1835
X4.5094Y-3.222
X4.5217Y-2.5394
X4.5291Y-4.0925
X4.5346Y-3.4232
X4.5421Y-3.2976
X4.5551Y-3.126
X4.585Y-2.948
X4.5965Y-4.1835
X4.6043Y-4.4311
X4.6575Y-3.3118
X4.6602Y-3.2142
X4.6606Y-2.5988
X4.6614Y-2.8874
X4.6622Y-3.4409
X4.6709Y-2.7083
X4.6996Y-4.4291
X4.7004Y-4.1835
X4.7197Y-2.9661
X4.7429Y-3.563
X4.7661Y-3.7335
X4.7874Y-2.7545
X4.7882Y-2.8748
X4.7898Y-3.0547
X4.7898Y-3.135
X4.7925Y-3.4142
X4.7957Y-4.185
X4.7988Y-2.5075
X4.8Y-2.6622
X4.8Y-3.239
X4.8012Y-4.4295
X4.8461Y-3.9461
X4.8638Y-4.0795
X4.8992Y-2.9717
X4.9004Y-3.2445
X4.9028Y-4.4303
X4.9083Y-4.1909
X4.9091Y-3.5941
X4.9102Y-3.8409
X4.9142Y-3.4083
X4.9492Y-2.5106
X4.9992Y-3.2441
X5.0012Y-4.4295
X5.0067Y-4.1909
X5.0071Y-3.4071
X5.0232Y-2.9854
X5.0343Y-3.15
X5.0346Y-3.7346
X5.0472Y-2.5071
X5.0681Y-2.8126
X5.078Y-2.928
X5.0819Y-3.0331
X5.0984Y-3.1098
X5.1004Y-3.2445
X5.1004Y-4.4283
X5.1035Y-3.4059
X5.1087Y-2.6957
X5.1331Y-3.7693
X5.1402Y-3.6705
X5.1449Y-2.5094
X5.1661Y-3.5622
X5.1846Y-4.1878
X5.1913Y-3.7646
X5.2091Y-3.4102
X5.2181Y-3.9933
X5.2461Y-3.7839
X5.2504Y-2.5094
X5.2516Y-4.4319
X5.2673Y-2.8524
X5.2693Y-3.5535
X5.2827Y-3.3846
X5.2862Y-3.1106
X5.2937Y-3.8
X5.3122Y-2.6894
X5.3272Y-4.1898
X5.3343Y-3.7972
X5.3343Y-3.9289
X5.3472Y-2.5079
X5.3472Y-2.8311
X5.3516Y-3.1079
X5.3516Y-3.9969
X5.3559Y-3.4878
X5.3563Y-3.75
X5.3744Y-4.1449
X5.3937Y-2.6591
X5.3961Y-3.4535
X5.3996Y-3.2469
X5.4008Y-4.4256
X5.4012Y-3.3843
X5.4307Y-3.1524
X5.4311Y-2.9705
X5.4354Y-2.828
X5.4398Y-3.7567
X5.4398Y-3.8154
X5.4441Y-2.5071
X5.4496Y-2.737
X5.4559Y-3.7075
X5.4591Y-3.072
X5.4598Y-4.1791
X5.487Y-3.8106
X5.4969Y-3.998
X5.4976Y-3.3823
X5.4984Y-3.2425
X5.5114Y-2.7205
X5.515Y-3.6374
X5.5161Y-2.9075
X5.5291Y-3.1402
X5.5358Y-3.0724
X5.5441Y-2.5087
X5.552Y-4.0035
X5.5657Y-2.9728
X5.5661Y-3.4642
X5.5685Y-4.1835
X5.5744Y-3.7087
X5.5791Y-3.163
X5.5965Y-3.2461
X5.5988Y-2.6713
X5.6252Y-3.8094
X5.6382Y-3.5894
X5.6402Y-2.9138
X5.6425Y-3.387
X5.6449Y-2.5087
X5.6559Y-2.9969
X5.6591Y-2.7996
X5.6909Y-4.4252
X5.7028Y-3.0728
X5.7051Y-3.9795
X5.7114Y-3.485
X5.7165Y-2.7398
X5.722Y-3.7378
X5.7398Y-3.7906
X5.7465Y-2.5087
X5.7472Y-3.3878
X5.7598Y-3.1811
X5.763Y-3.4709
X5.7646Y-2.887
X5.7709Y-2.974
X5.7744Y-3.7043
X5.7843Y-2.6835
X5.7953Y-3.1165
X5.8035Y-4.4256
X5.8094Y-2.8402
X5.8098Y-4.1795
X5.8248Y-3.9803
X5.8303Y-3.0343
X5.8303Y-3.5929
X5.8315Y-4.1209
X5.8339Y-2.9252
X5.8339Y-2.9839
X5.8354Y-3.4898
X5.8406Y-3.6626
X5.8492Y-2.5106
X5.8504Y-3.3902
X5.8531Y-3.798
X5.8539Y-3.2283
X5.8783Y-4.0012
X5.889Y-2.7547
X5.8921Y-3.1575
X5.9287Y-4.178
X5.9295Y-3.3957
X5.9299Y-2.6693
X5.9331Y-2.8398
X5.9413Y-3.2126
X5.9417Y-2.5102
X5.9469Y-2.7933
X5.9472Y-3.5016
X5.9571Y-4.0091
X5.9925Y-4.0327
X6.0028Y-4.4307
X6.0028Y-3.6476
X6.0063Y-2.7953
X6.0209Y-4.1776
X6.0256Y-3.3831
X6.0457Y-3.4575
X6.0472Y-2.511
X6.0524Y-3.802
X6.0547Y-3.989
X6.089Y-3.5602
X6.1035Y-4.4311
X6.1268Y-2.6752
X6.1311Y-3.5858
X6.1364Y-3.6335
X6.1425Y-3.9866
X6.1441Y-2.5094
X6.1555Y-2.926
X6.1567Y-3.0142
X6.1575Y-3.0811
X6.1689Y-3.5807
X6.172Y-2.8201
X6.1748Y-3.387
X6.1756Y-4.1858
X6.2009Y-3.9819
X6.2039Y-4.4303
X6.2118Y-4.0362
X6.2152Y-3.5654
X6.2488Y-2.511
X6.2567Y-3.5445
X6.263Y-3.7819
X6.274Y-4.0232
X6.276Y-2.8512
X6.2851Y-3.5743
X6.2921Y-3.2323
X6.2972Y-4.1866
X6.298Y-2.6461
X6.3051Y-4.4276
X6.323Y-3.7919
X6.3236Y-3.5819
X6.3346Y-3.1083
X6.3476Y-4.1165
X6.348Y-2.5118
X6.3591Y-3.8457
X6.3626Y-3.5634
X6.3693Y-3.7575
X6.3965Y-4.0264
X6.4012Y-4.1925
X6.4028Y-4.4287
X6.4051Y-3.2331
X6.4085Y-3.5411
X6.4091Y-2.8055
X6.4122Y-3.5996
X6.4465Y-2.5102
X6.5004Y-2.6484
X6.5035Y-4.4283
X6.5087Y-3.4516
X6.5181Y-3.3858
X6.528Y-2.865
X6.548Y-2.5079
X6.5579Y-2.8043
X6.565Y-2.9382
X6.5697Y-3.0819
X6.5941Y-3.3835
X6.5965Y-4.1933
X6.6012Y-4.4311
X6.628Y-3.8559
X6.648Y-2.5118
X6.6819Y-3.6469
X6.6902Y-3.4016
X6.7028Y-4.4299
X6.7055Y-4.0496
X6.7059Y-3.9587
X6.7063Y-3.8496
X6.7126Y-3.902
X6.7295Y-2.9697
X6.7315Y-2.5685
X6.7398Y-3.337
X6.7453Y-3.0835
X6.7677Y-2.4728
X6.7827Y-3.537
X6.7862Y-3.4012
X6.7972Y-4.1886
X6.7984Y-2.8917
X6.8067Y-4.4272
X6.8087Y-3.0362
X6.8209Y-3.1732
X6.826Y-2.6311
X6.8291Y-3.3169
X6.8402Y-3.8587
X6.8488Y-2.6835
X6.8488Y-2.722
X6.8488Y-2.7606
X6.8488Y-2.7992
X6.8839Y-3.9571
X6.8984Y-3.3961
X6.9063Y-3.5646
X6.9634Y-4.3583
X6.9638Y-4.2598
X6.9689Y-2.6823
X6.9689Y-2.7209
X6.9689Y-2.7594
X6.9689Y-2.798
X6.9689Y-2.8366
X6.9689Y-2.8752
X6.9689Y-2.9138
X6.9689Y-2.9524
X6.9906Y-3.2457
X6.9909Y-3.0965
X6.9965Y-3.1409
X7.0283Y-2.6657
X7.0307Y-3.2516
X7.0378Y-2.6098
X7.0591Y-4.361
X7.0638Y-3.0291
X7.0646Y-3.6811
X7.065Y-4.2004
X7.0654Y-2.5386
X7.0724Y-3.8854
X7.0764Y-4.0453
X7.0768Y-3.7591
X7.1526Y-3.3396
X7.1638Y-3.1028
X7.1642Y-3.2547
X7.1646Y-2.95
X7.1657Y-3.7579
X7.1831Y-3.5843
X7.1886Y-2.6976
X7.1898Y-2.8154
X7.1945Y-4.324
X7.1961Y-3.9689
X7.2004Y-3.7917
X7.202Y-4.1469
X7.2059Y-3.4201
X7.2071Y-3.5004
X7.215Y-4.2531
X7.2276Y-3.9185
X7.2295Y-4.0846
X7.239Y-4.4075
X7.2398Y-3.5799
X7.2437Y-3.5361
X7.2453Y-3.7594
X7.2519Y-3.4387
X7.2528Y-3.4906
X7.2673Y-2.5244
X7.3394Y-2.6441
X7.3453Y-3.1701
X7.3484Y-3.0291
X7.3535Y-3.335
X7.3575Y-4.3567
X7.3594Y-4.1988
T2
X5.5764Y-2.7929
X5.8213Y-3.5457
X6.3185Y-3.8776
X6.413Y-3.4795
X6.415Y-3.7945
X6.4593Y-4.014
X7.006Y-3.4488
X7.0157Y-3.6465
T3
X4.2508Y-4.2591
X4.2508Y-4.3591
X4.3508Y-4.2591
X4.3508Y-4.3591
X4.4508Y-4.2591
X4.4508Y-4.3591
X4.5508Y-4.2591
X4.5508Y-4.3591
X4.6508Y-4.2591
X4.6508Y-4.3591
X4.7508Y-4.2591
X4.7508Y-4.3591
X4.8508Y-4.2591
X4.8508Y-4.3591
X4.9508Y-4.2591
X4.9508Y-4.3591
X5.0508Y-4.2591
X5.0508Y-4.3591
X5.1508Y-4.2591
X5.1508Y-4.3591
X5.2508Y-4.2591
X5.2508Y-4.3591
X5.3508Y-4.2591
X5.3508Y-4.3591
X5.4508Y-4.2591
X5.4508Y-4.3591
X5.5508Y-4.2591
X5.5508Y-4.3591
X5.6508Y-4.2591
X5.6508Y-4.3591
X5.7508Y-4.2591
X5.7508Y-4.3591
X5.8508Y-4.2591
X5.8508Y-4.3591
X5.9508Y-4.2591
X5.9508Y-4.3591
X6.0508Y-4.2591
X6.0508Y-4.3591
X6.1508Y-4.2591
X6.1508Y-4.3591
X6.2508Y-4.2591
X6.2508Y-4.3591
X6.3508Y-4.2591
X6.3508Y-4.3591
X6.4508Y-4.2591
X6.4508Y-4.3591
X6.5508Y-4.2591
X6.5508Y-4.3591
X6.6508Y-4.2591
X6.6508Y-4.3591
X6.7508Y-4.2591
X6.7508Y-4.3591
X6.8508Y-4.2591
X6.8508Y-4.3591
T4
X4.7496Y-2.5984
X4.7496Y-3.2984
X4.8496Y-2.5984
X4.8496Y-3.2984
X4.9496Y-2.5984
X4.9496Y-3.2984
X5.0496Y-2.5984
X5.0496Y-3.2984
X5.1496Y-2.5984
X5.1496Y-3.2984
X5.2496Y-2.5984
X5.2496Y-3.2984
X5.3496Y-2.5984
X5.3496Y-3.2984
X5.4496Y-2.5984
X5.4496Y-3.2984
X5.5496Y-2.5984
X5.5496Y-3.2984
X5.6496Y-2.5984
X5.6496Y-3.2984
X5.7496Y-2.5984
X5.7496Y-3.2984
X5.8496Y-2.5984
X5.8496Y-3.2984
X5.9496Y-2.5984
X5.9496Y-3.2984
X6.0496Y-2.5984
X6.0496Y-3.2984
X6.1496Y-2.5984
X6.1496Y-3.2984
X6.2496Y-2.5984
X6.2496Y-3.2984
X6.3496Y-2.5984
X6.3496Y-3.2984
X6.4496Y-2.5984
X6.4496Y-3.2984
X6.5496Y-2.5984
X6.5496Y-3.2984
X6.6494Y-2.7992
X6.6494Y-2.8992
X6.6494Y-2.9992
X6.6494Y-3.0992
X6.6496Y-2.5984
X6.6496Y-3.2984
T5
X4.0024Y-4.3142
X7.5193Y-2.5524
M30
