M48
; DRILL file {KiCad 9.0.6} date 2026-01-25T16:52:48+0000
; FORMAT={-:-/ absolute / inch / decimal}
; #@! TF.CreationDate,2026-01-25T16:52:48+00:00
; #@! TF.GenerationSoftware,Kicad,Pcbnew,9.0.6
; #@! TF.FileFunction,Plated,1,2,PTH
FMAT,2
INCH
; #@! TA.AperFunction,Plated,PTH,ViaDrill
T1C0.0157
; #@! TA.AperFunction,Plated,PTH,ViaDrill
T2C0.0236
; #@! TA.AperFunction,Plated,PTH,ComponentDrill
T3C0.0354
; #@! TA.AperFunction,Plated,PTH,ComponentDrill
T4C0.0402
; #@! TA.AperFunction,Plated,PTH,ViaDrill
T5C0.0787
%
G90
G05
T1
X4.1547Y-4.2382
X4.1559Y-4.3445
X4.2063Y-4.0413
X4.2189Y-2.6913
X4.2217Y-2.5665
X4.2217Y-3.1185
X4.2236Y-2.9126
X4.2256Y-3.4839
X4.3091Y-3.4154
X4.3098Y-3.5476
X4.3098Y-3.9819
X4.311Y-4.1209
X4.3122Y-3.7504
X4.3122Y-3.8697
X4.313Y-3.6543
X4.3311Y-4.3512
X4.3358Y-4.2299
X4.3748Y-2.911
X4.3772Y-3.1173
X4.3783Y-2.6941
X4.3937Y-2.5697
X4.4043Y-3.265
X4.4142Y-3.3902
X4.4165Y-4.0425
X4.4417Y-3.7413
X4.45Y-3.6508
X4.4555Y-3.8823
X4.4559Y-3.0413
X4.4567Y-3.8311
X4.461Y-3.776
X4.4646Y-2.6146
X4.4661Y-2.7449
X4.4681Y-2.911
X4.4732Y-4.3528
X4.4748Y-4.237
X4.4839Y-3.9622
X4.4852Y-3.9183
X4.4908Y-3.6948
X4.4969Y-3.8539
X4.5213Y-2.5323
X4.5217Y-3.2402
X4.5449Y-3.4087
X4.5713Y-3.0366
X4.5933Y-2.4484
X4.6102Y-2.8055
X4.6217Y-2.6744
X4.6232Y-3.2374
X4.626Y-2.7512
X4.6295Y-2.5327
X4.6531Y-4.048
X4.6559Y-3.576
X4.6571Y-2.911
X4.7197Y-2.5346
X4.724Y-3.0343
X4.7244Y-3.2429
X4.7528Y-3.4098
X4.7535Y-3.7457
X4.7598Y-3.8622
X4.7799Y-3.5839
X4.7945Y-4.0508
X4.7961Y-2.9102
X4.8Y-4.4909
X4.8087Y-3.0354
X4.822Y-3.9472
X4.8268Y-3.2449
X4.8335Y-2.5362
X4.8764Y-3.5106
X4.8776Y-3.4075
X4.8776Y-3.585
X4.8799Y-2.813
X4.8831Y-2.9083
X4.8862Y-4.3201
X4.8898Y-3.8858
X4.9248Y-2.5323
X4.9343Y-4.4035
X4.9417Y-4.037
X4.9457Y-4.2335
X4.9606Y-2.9102
X4.9665Y-3.5094
X4.9929Y-4.1898
X5.0098Y-3.4031
X5.0154Y-2.5319
X5.0425Y-4.028
X5.0457Y-4.2205
X5.0469Y-3.5768
X5.0524Y-3.8118
X5.0575Y-4.4854
X5.063Y-2.9303
X5.0654Y-2.8453
X5.0697Y-3.7063
X5.0925Y-3.9681
X5.1165Y-3.0311
X5.1177Y-3.6433
X5.1217Y-3.8161
X5.1307Y-2.5323
X5.1378Y-2.678
X5.1409Y-4.0445
X5.1429Y-4.1835
X5.1606Y-3.9217
X5.1634Y-3.7799
X5.1724Y-2.9311
X5.1736Y-3.2437
X5.174Y-3.7307
X5.174Y-4.3961
X5.1756Y-3.0543
X5.1795Y-3.1248
X5.1799Y-3.5783
X5.1882Y-3.4024
X5.1965Y-4.2484
X5.2028Y-2.7165
X5.2102Y-2.4476
X5.2228Y-2.5323
X5.2228Y-4.0472
X5.2382Y-2.7484
X5.2409Y-4.2094
X5.2441Y-4.4016
X5.2533Y-3.9309
X5.2567Y-3.7051
X5.2579Y-4.4858
X5.2614Y-3.9894
X5.2728Y-3.1878
X5.2732Y-3.2484
X5.278Y-3.4866
X5.278Y-3.7575
X5.2831Y-4.3799
X5.2902Y-3.9571
X5.2917Y-4.1642
X5.2933Y-3.6516
X5.3016Y-2.8681
X5.3122Y-2.9965
X5.3197Y-2.7591
X5.3209Y-2.5323
X5.3217Y-4.4051
X5.3236Y-2.6748
X5.335Y-4.2244
X5.3404Y-3.9331
X5.3496Y-3.4594
X5.3571Y-3.4028
X5.3598Y-3.1193
X5.3622Y-3.7835
X5.3693Y-4.2626
X5.3705Y-3.1913
X5.3732Y-2.9748
X5.3732Y-3.2484
X5.3807Y-4.3091
X5.3827Y-2.8236
X5.3852Y-3.9331
X5.3929Y-3.7344
X5.3996Y-4.0549
X5.4252Y-4.3807
X5.4256Y-2.5339
X5.4301Y-3.9331
X5.4331Y-3.7544
X5.4413Y-3.5921
X5.4461Y-4.2193
X5.472Y-2.8996
X5.4748Y-3.7358
X5.475Y-3.9331
X5.4756Y-3.2492
X5.4776Y-3.5614
X5.4799Y-3.1913
X5.4929Y-3.1193
X5.5024Y-4.4874
X5.5084Y-3.9588
X5.5098Y-3.6689
X5.5169Y-2.6854
X5.5217Y-2.5339
X5.5224Y-3.4878
X5.5295Y-3.5339
X5.5386Y-3.7875
X5.5398Y-3.937
X5.5531Y-3.1193
X5.5594Y-4.2161
X5.5602Y-4.3764
X5.5685Y-2.8902
X5.5736Y-3.2492
X5.578Y-3.1913
X5.5806Y-3.7879
X5.5818Y-3.9374
X5.5862Y-3.648
X5.5886Y-3.4028
X5.6098Y-2.6835
X5.6138Y-2.535
X5.6146Y-3.487
X5.6226Y-3.7879
X5.6238Y-3.9374
X5.6524Y-4.4098
X5.6559Y-3.5323
X5.6579Y-3.4094
X5.6646Y-3.7879
X5.665Y-2.8902
X5.665Y-3.9831
X5.6657Y-3.9374
X5.6689Y-3.487
X5.6697Y-3.1862
X5.6709Y-2.4472
X5.6717Y-3.6504
X5.676Y-3.248
X5.6937Y-3.1165
X5.7209Y-4.0437
X5.7221Y-2.7079
X5.7256Y-4.1661
X5.7315Y-2.535
X5.7343Y-4.3748
X5.7366Y-3.7441
X5.737Y-3.9291
X5.7402Y-3.4575
X5.7469Y-4.2528
X5.7516Y-3.0055
X5.7693Y-3.1079
X5.7701Y-2.889
X5.7724Y-3.1843
X5.7736Y-3.4035
X5.774Y-3.2504
X5.7803Y-3.4996
X5.7815Y-3.7433
X5.7831Y-4.1673
X5.7886Y-3.9295
X5.7945Y-4.3669
X5.8232Y-4.3287
X5.8236Y-2.535
X5.8252Y-3.7441
X5.8425Y-3.4394
X5.8469Y-3.1142
X5.8516Y-4.4874
X5.8567Y-3.9791
X5.8618Y-4.4094
X5.8637Y-2.6877
X5.8697Y-3.2516
X5.8703Y-3.4994
X5.8713Y-3.7449
X5.8846Y-3.1878
X5.885Y-4.185
X5.8898Y-4.274
X5.9134Y-3.6354
X5.9193Y-3.678
X5.9272Y-3.9579
X5.9276Y-2.5335
X5.9331Y-3.4972
X5.9445Y-4.176
X5.9465Y-2.837
X5.948Y-2.9988
X5.9512Y-2.9189
X5.978Y-3.9449
X5.9843Y-3.7437
X6.0106Y-2.6906
X6.0114Y-3.5882
X6.0122Y-3.4028
X6.0146Y-3.1862
X6.015Y-4.3965
X6.0362Y-3.2256
X6.0406Y-2.4488
X6.0453Y-3.8091
X6.0543Y-2.9114
X6.0594Y-3.0016
X6.0732Y-3.1126
X6.0884Y-3.6461
X6.1008Y-3.7382
X6.1047Y-3.4933
X6.1087Y-3.4039
X6.1193Y-3.2657
X6.1228Y-3.8929
X6.1248Y-2.7071
X6.1287Y-2.5311
X6.1323Y-3.9799
X6.139Y-3.1929
X6.139Y-4.1618
X6.1496Y-2.7461
X6.1559Y-3.0043
X6.1626Y-2.9075
X6.1748Y-3.122
X6.1787Y-3.5591
X6.1795Y-3.4331
X6.1933Y-4.4882
X6.2165Y-3.8835
X6.2256Y-4.2315
X6.235Y-4.0402
X6.2406Y-2.689
X6.2409Y-3.1685
X6.243Y-2.8341
X6.2591Y-4.3941
X6.2646Y-3.9772
X6.2654Y-3.1193
X6.2744Y-3.0067
X6.2823Y-3.4047
X6.2882Y-3.7567
X6.2933Y-3.5484
X6.2976Y-2.937
X6.3138Y-3.7004
X6.3213Y-3.2618
X6.328Y-3.1453
X6.3287Y-3.0673
X6.3307Y-2.7335
X6.3315Y-4.1654
X6.3366Y-4.2209
X6.3406Y-4.3382
X6.3634Y-2.4469
X6.3634Y-3.9996
X6.375Y-2.7919
X6.3795Y-4.2409
X6.3811Y-2.8382
X6.3823Y-2.9398
X6.3831Y-2.685
X6.3945Y-4.3854
X6.4114Y-3.0803
X6.4163Y-3.5404
X6.4217Y-3.4012
X6.4382Y-4.2461
X6.4404Y-3.6793
X6.4598Y-3.9469
X6.4697Y-3.8571
X6.4764Y-2.6858
X6.4776Y-3.4858
X6.4843Y-3.6059
X6.4854Y-4.1224
X6.4913Y-3.8024
X6.5041Y-2.7589
X6.5083Y-4.4902
X6.515Y-3.765
X6.5201Y-3.9878
X6.5469Y-3.3957
X6.548Y-2.9386
X6.548Y-3.2882
X6.5496Y-3.5583
X6.5508Y-3.1299
X6.552Y-2.6673
X6.5567Y-3.9673
X6.5626Y-4.0469
X6.5811Y-2.6118
X6.5819Y-4.3413
X6.5846Y-3.7717
X6.5921Y-3.4957
X6.5957Y-4.3835
X6.5961Y-4.2421
X6.598Y-4.298
X6.6047Y-3.426
X6.6067Y-2.8984
X6.6201Y-2.589
X6.6335Y-3.2764
X6.6382Y-3.137
X6.6413Y-3.3764
X6.6496Y-3.8717
X6.6535Y-2.4472
X6.6543Y-3.9638
X6.6551Y-3.8
X6.6654Y-2.5429
X6.6697Y-4.0469
X6.6752Y-2.9701
X6.6772Y-3.1913
X6.6874Y-2.8972
X6.6933Y-4.1295
X6.6972Y-3.7961
X6.6984Y-2.663
X6.7098Y-4.298
X6.7252Y-3.478
X6.7276Y-3.6378
X6.7283Y-3.3685
X6.7291Y-3.1823
X6.7291Y-3.4276
X6.7323Y-2.5512
X6.7417Y-3.75
X6.7453Y-3.9465
X6.7476Y-2.6657
X6.7508Y-3.8524
X6.7563Y-4.4398
X6.7677Y-4.2469
X6.7685Y-2.9697
X6.7724Y-3.2008
X6.774Y-4.0472
X6.7764Y-3.6114
X6.7809Y-3.3329
X6.7917Y-3.9406
X6.7945Y-3.6508
X6.7969Y-3.4303
X6.8012Y-4.4425
X6.8031Y-2.5591
X6.8035Y-2.6634
X6.8108Y-4.2837
X6.811Y-3.6902
X6.8287Y-3.852
X6.8291Y-3.726
X6.8331Y-3.1933
X6.8339Y-3.9429
X6.8417Y-2.4472
X6.8492Y-4.4406
X6.8549Y-4.2907
X6.8728Y-4.0421
X6.874Y-4.1319
X6.8807Y-3.8059
X6.8886Y-4.3949
X6.8945Y-3.0929
X6.898Y-3.135
X6.9244Y-3.2831
X6.935Y-3.1717
X6.9445Y-3.6327
X6.9469Y-3.5555
X6.9484Y-2.7602
X6.9543Y-3.7457
X6.9756Y-4.3327
X6.9764Y-3.9854
X6.9764Y-4.1307
X6.9772Y-4.2256
X6.9882Y-3.6
X7.0433Y-2.8244
X7.0433Y-2.922
X7.0579Y-3.2488
X7.0783Y-4.1248
X7.0791Y-4.2181
X7.0886Y-3.0862
X7.0925Y-2.8772
X7.0936Y-2.4475
X7.0941Y-3.987
X7.1047Y-3.676
X7.1154Y-3.0378
X7.137Y-2.7575
X7.161Y-4.1587
X7.1626Y-4.2724
X7.1701Y-4.0472
X7.1713Y-3.939
X7.1732Y-4.4406
X7.1744Y-2.9953
X7.2248Y-2.8331
X7.2539Y-3.3039
X7.2819Y-4.0402
X7.2826Y-3.3287
X7.2839Y-3.9327
X7.2953Y-3.4839
X7.3008Y-4.2713
X7.3039Y-4.1555
X7.315Y-4.4413
X7.3795Y-2.765
X7.4031Y-3.478
X7.4287Y-2.5563
T2
X4.9626Y-2.4843
X6.274Y-3.9051
X6.9213Y-3.8969
X7.0528Y-3.7319
X7.1555Y-3.7201
X7.1563Y-3.1358
X7.2567Y-3.6358
X7.2701Y-3.213
X7.2787Y-3.0055
X7.2799Y-3.839
T4
X4.5722Y-2.6181
X4.5722Y-3.3181
X4.6722Y-2.6181
X4.6722Y-3.3181
X4.7722Y-2.6181
X4.7722Y-3.3181
X4.8722Y-2.6181
X4.8722Y-3.3181
X4.9722Y-2.6181
X4.9722Y-3.3181
X5.0722Y-2.6181
X5.0722Y-3.3181
X5.1722Y-2.6181
X5.1722Y-3.3181
X5.2722Y-2.6181
X5.2722Y-3.3181
X5.3722Y-2.6181
X5.3722Y-3.3181
X5.4722Y-2.6181
X5.4722Y-3.3181
X5.5722Y-2.6181
X5.5722Y-3.3181
X5.6722Y-2.6181
X5.6722Y-3.3181
X5.7722Y-2.6181
X5.7722Y-3.3181
X5.8722Y-2.6181
X5.8722Y-3.3181
X5.9722Y-2.6181
X5.9722Y-3.3181
X6.0722Y-2.6181
X6.0722Y-3.3181
X6.1722Y-2.6181
X6.1722Y-3.3181
X6.2722Y-2.6181
X6.2722Y-3.3181
X6.3722Y-2.6181
X6.3722Y-3.3181
X6.472Y-2.8189
X6.472Y-2.9189
X6.472Y-3.0189
X6.472Y-3.1189
X6.4722Y-2.6181
X6.4722Y-3.3181
T5
X4.0024Y-4.3142
X7.5193Y-2.5524
T3
G00X4.3254Y-3.4787
M15
G01X4.2939Y-3.4787
M16
G05
G00X4.3254Y-4.0496
M15
G01X4.2939Y-4.0496
M16
G05
G00X4.5797Y-3.4787
M15
G01X4.5089Y-3.4787
M16
G05
G00X4.5797Y-4.0496
M15
G01X4.5089Y-4.0496
M16
G05
M30
