%TF.GenerationSoftware,KiCad,Pcbnew,9.0.7*%
%TF.CreationDate,2026-02-25T23:12:41+00:00*%
%TF.ProjectId,GG_LCD_DIY,47475f4c-4344-45f4-9449-592e6b696361,rev?*%
%TF.SameCoordinates,Original*%
%TF.FileFunction,Legend,Bot*%
%TF.FilePolarity,Positive*%
%FSLAX46Y46*%
G04 Gerber Fmt 4.6, Leading zero omitted, Abs format (unit mm)*
G04 Created by KiCad (PCBNEW 9.0.7) date 2026-02-25 23:12:41*
%MOMM*%
%LPD*%
G01*
G04 APERTURE LIST*
G04 Aperture macros list*
%AMRoundRect*
0 Rectangle with rounded corners*
0 $1 Rounding radius*
0 $2 $3 $4 $5 $6 $7 $8 $9 X,Y pos of 4 corners*
0 Add a 4 corners polygon primitive as box body*
4,1,4,$2,$3,$4,$5,$6,$7,$8,$9,$2,$3,0*
0 Add four circle primitives for the rounded corners*
1,1,$1+$1,$2,$3*
1,1,$1+$1,$4,$5*
1,1,$1+$1,$6,$7*
1,1,$1+$1,$8,$9*
0 Add four rect primitives between the rounded corners*
20,1,$1+$1,$2,$3,$4,$5,0*
20,1,$1+$1,$4,$5,$6,$7,0*
20,1,$1+$1,$6,$7,$8,$9,0*
20,1,$1+$1,$8,$9,$2,$3,0*%
G04 Aperture macros list end*
%ADD10C,0.150000*%
%ADD11C,0.120000*%
%ADD12O,1.700000X1.700000*%
%ADD13R,1.700000X1.700000*%
%ADD14C,1.300000*%
%ADD15O,3.300000X2.000000*%
%ADD16O,2.300000X2.000000*%
%ADD17RoundRect,0.250000X-0.350000X-0.450000X0.350000X-0.450000X0.350000X0.450000X-0.350000X0.450000X0*%
%ADD18R,0.500000X0.800000*%
%ADD19R,0.400000X0.800000*%
%ADD20RoundRect,0.160000X-0.160000X0.197500X-0.160000X-0.197500X0.160000X-0.197500X0.160000X0.197500X0*%
%ADD21RoundRect,0.250000X0.350000X0.450000X-0.350000X0.450000X-0.350000X-0.450000X0.350000X-0.450000X0*%
%ADD22RoundRect,0.250000X0.337500X0.475000X-0.337500X0.475000X-0.337500X-0.475000X0.337500X-0.475000X0*%
%ADD23RoundRect,0.155000X-0.155000X0.212500X-0.155000X-0.212500X0.155000X-0.212500X0.155000X0.212500X0*%
%ADD24RoundRect,0.250000X0.250000X0.250000X-0.250000X0.250000X-0.250000X-0.250000X0.250000X-0.250000X0*%
%ADD25RoundRect,0.160000X0.197500X0.160000X-0.197500X0.160000X-0.197500X-0.160000X0.197500X-0.160000X0*%
%ADD26RoundRect,0.250000X0.250000X-0.250000X0.250000X0.250000X-0.250000X0.250000X-0.250000X-0.250000X0*%
%ADD27RoundRect,0.155000X-0.212500X-0.155000X0.212500X-0.155000X0.212500X0.155000X-0.212500X0.155000X0*%
%ADD28RoundRect,0.250000X0.450000X-0.325000X0.450000X0.325000X-0.450000X0.325000X-0.450000X-0.325000X0*%
%ADD29RoundRect,0.160000X0.160000X-0.197500X0.160000X0.197500X-0.160000X0.197500X-0.160000X-0.197500X0*%
%ADD30RoundRect,0.155000X0.155000X-0.212500X0.155000X0.212500X-0.155000X0.212500X-0.155000X-0.212500X0*%
%ADD31RoundRect,0.250000X-0.450000X0.350000X-0.450000X-0.350000X0.450000X-0.350000X0.450000X0.350000X0*%
%ADD32RoundRect,0.237500X0.237500X-0.250000X0.237500X0.250000X-0.237500X0.250000X-0.237500X-0.250000X0*%
%ADD33RoundRect,0.250000X-0.337500X-0.475000X0.337500X-0.475000X0.337500X0.475000X-0.337500X0.475000X0*%
%ADD34RoundRect,0.150000X0.150000X-0.725000X0.150000X0.725000X-0.150000X0.725000X-0.150000X-0.725000X0*%
%ADD35RoundRect,0.162500X0.162500X-0.617500X0.162500X0.617500X-0.162500X0.617500X-0.162500X-0.617500X0*%
%ADD36RoundRect,0.250000X0.325000X0.450000X-0.325000X0.450000X-0.325000X-0.450000X0.325000X-0.450000X0*%
%ADD37RoundRect,0.237500X-0.250000X-0.237500X0.250000X-0.237500X0.250000X0.237500X-0.250000X0.237500X0*%
%ADD38RoundRect,0.250000X0.475000X-0.337500X0.475000X0.337500X-0.475000X0.337500X-0.475000X-0.337500X0*%
%ADD39RoundRect,0.250000X-0.250000X0.250000X-0.250000X-0.250000X0.250000X-0.250000X0.250000X0.250000X0*%
%ADD40R,0.800000X0.500000*%
%ADD41R,0.800000X0.400000*%
%ADD42RoundRect,0.162500X-0.617500X-0.162500X0.617500X-0.162500X0.617500X0.162500X-0.617500X0.162500X0*%
%ADD43RoundRect,0.237500X-0.237500X0.300000X-0.237500X-0.300000X0.237500X-0.300000X0.237500X0.300000X0*%
%ADD44RoundRect,0.155000X0.212500X0.155000X-0.212500X0.155000X-0.212500X-0.155000X0.212500X-0.155000X0*%
%ADD45RoundRect,0.150000X-0.150000X0.725000X-0.150000X-0.725000X0.150000X-0.725000X0.150000X0.725000X0*%
%ADD46RoundRect,0.100000X0.637500X0.100000X-0.637500X0.100000X-0.637500X-0.100000X0.637500X-0.100000X0*%
%ADD47RoundRect,0.250000X-0.250000X-0.250000X0.250000X-0.250000X0.250000X0.250000X-0.250000X0.250000X0*%
%ADD48RoundRect,0.200000X-0.750000X-0.200000X0.750000X-0.200000X0.750000X0.200000X-0.750000X0.200000X0*%
G04 APERTURE END LIST*
D10*
X114150000Y-101800000D02*
X114150000Y-101280000D01*
X177730000Y-82100000D02*
X180770000Y-82100000D01*
X177710000Y-61820000D02*
X177717849Y-82100001D01*
X114150000Y-92080000D02*
X111150000Y-92080000D01*
X180770000Y-92070000D02*
X177720000Y-92070000D01*
X114150000Y-97360000D02*
X114150000Y-94400000D01*
X114150000Y-105660000D02*
X114150000Y-103830000D01*
X111150000Y-92080000D02*
X111150000Y-82080000D01*
X177721731Y-92069999D02*
X177730000Y-114420000D01*
X180770000Y-82100000D02*
X180770000Y-92070000D01*
D11*
X105830000Y-101840000D02*
X113830000Y-101840000D01*
X113830000Y-109840000D01*
X105830000Y-109840000D01*
X105830000Y-101840000D01*
G36*
X105830000Y-101840000D02*
G01*
X113830000Y-101840000D01*
X113830000Y-109840000D01*
X105830000Y-109840000D01*
X105830000Y-101840000D01*
G37*
D10*
X160750000Y-108500000D02*
X171390000Y-108500000D01*
X174080000Y-108500000D02*
X174080000Y-100990000D01*
X111150000Y-82080000D02*
X114150000Y-82080000D01*
X114157849Y-114430000D02*
X114157849Y-114030000D01*
X114150000Y-93270000D02*
X114150000Y-92080000D01*
X114150000Y-82080001D02*
X114150000Y-63670000D01*
X162900839Y-97265057D02*
X162853220Y-97217438D01*
X162853220Y-97217438D02*
X162757982Y-97169819D01*
X162757982Y-97169819D02*
X162519887Y-97169819D01*
X162519887Y-97169819D02*
X162424649Y-97217438D01*
X162424649Y-97217438D02*
X162377030Y-97265057D01*
X162377030Y-97265057D02*
X162329411Y-97360295D01*
X162329411Y-97360295D02*
X162329411Y-97455533D01*
X162329411Y-97455533D02*
X162377030Y-97598390D01*
X162377030Y-97598390D02*
X162948458Y-98169819D01*
X162948458Y-98169819D02*
X162329411Y-98169819D01*
X161710363Y-97169819D02*
X161615125Y-97169819D01*
X161615125Y-97169819D02*
X161519887Y-97217438D01*
X161519887Y-97217438D02*
X161472268Y-97265057D01*
X161472268Y-97265057D02*
X161424649Y-97360295D01*
X161424649Y-97360295D02*
X161377030Y-97550771D01*
X161377030Y-97550771D02*
X161377030Y-97788866D01*
X161377030Y-97788866D02*
X161424649Y-97979342D01*
X161424649Y-97979342D02*
X161472268Y-98074580D01*
X161472268Y-98074580D02*
X161519887Y-98122200D01*
X161519887Y-98122200D02*
X161615125Y-98169819D01*
X161615125Y-98169819D02*
X161710363Y-98169819D01*
X161710363Y-98169819D02*
X161805601Y-98122200D01*
X161805601Y-98122200D02*
X161853220Y-98074580D01*
X161853220Y-98074580D02*
X161900839Y-97979342D01*
X161900839Y-97979342D02*
X161948458Y-97788866D01*
X161948458Y-97788866D02*
X161948458Y-97550771D01*
X161948458Y-97550771D02*
X161900839Y-97360295D01*
X161900839Y-97360295D02*
X161853220Y-97265057D01*
X161853220Y-97265057D02*
X161805601Y-97217438D01*
X161805601Y-97217438D02*
X161710363Y-97169819D01*
X161043696Y-97503152D02*
X160805601Y-98169819D01*
X160805601Y-98169819D02*
X160567506Y-97503152D01*
X158853220Y-98074580D02*
X158900839Y-98122200D01*
X158900839Y-98122200D02*
X159043696Y-98169819D01*
X159043696Y-98169819D02*
X159138934Y-98169819D01*
X159138934Y-98169819D02*
X159281791Y-98122200D01*
X159281791Y-98122200D02*
X159377029Y-98026961D01*
X159377029Y-98026961D02*
X159424648Y-97931723D01*
X159424648Y-97931723D02*
X159472267Y-97741247D01*
X159472267Y-97741247D02*
X159472267Y-97598390D01*
X159472267Y-97598390D02*
X159424648Y-97407914D01*
X159424648Y-97407914D02*
X159377029Y-97312676D01*
X159377029Y-97312676D02*
X159281791Y-97217438D01*
X159281791Y-97217438D02*
X159138934Y-97169819D01*
X159138934Y-97169819D02*
X159043696Y-97169819D01*
X159043696Y-97169819D02*
X158900839Y-97217438D01*
X158900839Y-97217438D02*
X158853220Y-97265057D01*
X158424648Y-98169819D02*
X158424648Y-97503152D01*
X158424648Y-97169819D02*
X158472267Y-97217438D01*
X158472267Y-97217438D02*
X158424648Y-97265057D01*
X158424648Y-97265057D02*
X158377029Y-97217438D01*
X158377029Y-97217438D02*
X158424648Y-97169819D01*
X158424648Y-97169819D02*
X158424648Y-97265057D01*
X157948458Y-98169819D02*
X157948458Y-97503152D01*
X157948458Y-97693628D02*
X157900839Y-97598390D01*
X157900839Y-97598390D02*
X157853220Y-97550771D01*
X157853220Y-97550771D02*
X157757982Y-97503152D01*
X157757982Y-97503152D02*
X157662744Y-97503152D01*
X156900839Y-98122200D02*
X156996077Y-98169819D01*
X156996077Y-98169819D02*
X157186553Y-98169819D01*
X157186553Y-98169819D02*
X157281791Y-98122200D01*
X157281791Y-98122200D02*
X157329410Y-98074580D01*
X157329410Y-98074580D02*
X157377029Y-97979342D01*
X157377029Y-97979342D02*
X157377029Y-97693628D01*
X157377029Y-97693628D02*
X157329410Y-97598390D01*
X157329410Y-97598390D02*
X157281791Y-97550771D01*
X157281791Y-97550771D02*
X157186553Y-97503152D01*
X157186553Y-97503152D02*
X156996077Y-97503152D01*
X156996077Y-97503152D02*
X156900839Y-97550771D01*
X156043696Y-97503152D02*
X156043696Y-98169819D01*
X156472267Y-97503152D02*
X156472267Y-98026961D01*
X156472267Y-98026961D02*
X156424648Y-98122200D01*
X156424648Y-98122200D02*
X156329410Y-98169819D01*
X156329410Y-98169819D02*
X156186553Y-98169819D01*
X156186553Y-98169819D02*
X156091315Y-98122200D01*
X156091315Y-98122200D02*
X156043696Y-98074580D01*
X155567505Y-98169819D02*
X155567505Y-97503152D01*
X155567505Y-97169819D02*
X155615124Y-97217438D01*
X155615124Y-97217438D02*
X155567505Y-97265057D01*
X155567505Y-97265057D02*
X155519886Y-97217438D01*
X155519886Y-97217438D02*
X155567505Y-97169819D01*
X155567505Y-97169819D02*
X155567505Y-97265057D01*
X155234172Y-97503152D02*
X154853220Y-97503152D01*
X155091315Y-97169819D02*
X155091315Y-98026961D01*
X155091315Y-98026961D02*
X155043696Y-98122200D01*
X155043696Y-98122200D02*
X154948458Y-98169819D01*
X154948458Y-98169819D02*
X154853220Y-98169819D01*
X160698458Y-113189819D02*
X160079411Y-113189819D01*
X160079411Y-113189819D02*
X160412744Y-113570771D01*
X160412744Y-113570771D02*
X160269887Y-113570771D01*
X160269887Y-113570771D02*
X160174649Y-113618390D01*
X160174649Y-113618390D02*
X160127030Y-113666009D01*
X160127030Y-113666009D02*
X160079411Y-113761247D01*
X160079411Y-113761247D02*
X160079411Y-113999342D01*
X160079411Y-113999342D02*
X160127030Y-114094580D01*
X160127030Y-114094580D02*
X160174649Y-114142200D01*
X160174649Y-114142200D02*
X160269887Y-114189819D01*
X160269887Y-114189819D02*
X160555601Y-114189819D01*
X160555601Y-114189819D02*
X160650839Y-114142200D01*
X160650839Y-114142200D02*
X160698458Y-114094580D01*
X159650839Y-114094580D02*
X159603220Y-114142200D01*
X159603220Y-114142200D02*
X159650839Y-114189819D01*
X159650839Y-114189819D02*
X159698458Y-114142200D01*
X159698458Y-114142200D02*
X159650839Y-114094580D01*
X159650839Y-114094580D02*
X159650839Y-114189819D01*
X159269887Y-113189819D02*
X158650840Y-113189819D01*
X158650840Y-113189819D02*
X158984173Y-113570771D01*
X158984173Y-113570771D02*
X158841316Y-113570771D01*
X158841316Y-113570771D02*
X158746078Y-113618390D01*
X158746078Y-113618390D02*
X158698459Y-113666009D01*
X158698459Y-113666009D02*
X158650840Y-113761247D01*
X158650840Y-113761247D02*
X158650840Y-113999342D01*
X158650840Y-113999342D02*
X158698459Y-114094580D01*
X158698459Y-114094580D02*
X158746078Y-114142200D01*
X158746078Y-114142200D02*
X158841316Y-114189819D01*
X158841316Y-114189819D02*
X159127030Y-114189819D01*
X159127030Y-114189819D02*
X159222268Y-114142200D01*
X159222268Y-114142200D02*
X159269887Y-114094580D01*
X158317506Y-113523152D02*
X158079411Y-114189819D01*
X158079411Y-114189819D02*
X157841316Y-113523152D01*
X156127030Y-114094580D02*
X156174649Y-114142200D01*
X156174649Y-114142200D02*
X156317506Y-114189819D01*
X156317506Y-114189819D02*
X156412744Y-114189819D01*
X156412744Y-114189819D02*
X156555601Y-114142200D01*
X156555601Y-114142200D02*
X156650839Y-114046961D01*
X156650839Y-114046961D02*
X156698458Y-113951723D01*
X156698458Y-113951723D02*
X156746077Y-113761247D01*
X156746077Y-113761247D02*
X156746077Y-113618390D01*
X156746077Y-113618390D02*
X156698458Y-113427914D01*
X156698458Y-113427914D02*
X156650839Y-113332676D01*
X156650839Y-113332676D02*
X156555601Y-113237438D01*
X156555601Y-113237438D02*
X156412744Y-113189819D01*
X156412744Y-113189819D02*
X156317506Y-113189819D01*
X156317506Y-113189819D02*
X156174649Y-113237438D01*
X156174649Y-113237438D02*
X156127030Y-113285057D01*
X155698458Y-114189819D02*
X155698458Y-113523152D01*
X155698458Y-113189819D02*
X155746077Y-113237438D01*
X155746077Y-113237438D02*
X155698458Y-113285057D01*
X155698458Y-113285057D02*
X155650839Y-113237438D01*
X155650839Y-113237438D02*
X155698458Y-113189819D01*
X155698458Y-113189819D02*
X155698458Y-113285057D01*
X155222268Y-114189819D02*
X155222268Y-113523152D01*
X155222268Y-113713628D02*
X155174649Y-113618390D01*
X155174649Y-113618390D02*
X155127030Y-113570771D01*
X155127030Y-113570771D02*
X155031792Y-113523152D01*
X155031792Y-113523152D02*
X154936554Y-113523152D01*
X154174649Y-114142200D02*
X154269887Y-114189819D01*
X154269887Y-114189819D02*
X154460363Y-114189819D01*
X154460363Y-114189819D02*
X154555601Y-114142200D01*
X154555601Y-114142200D02*
X154603220Y-114094580D01*
X154603220Y-114094580D02*
X154650839Y-113999342D01*
X154650839Y-113999342D02*
X154650839Y-113713628D01*
X154650839Y-113713628D02*
X154603220Y-113618390D01*
X154603220Y-113618390D02*
X154555601Y-113570771D01*
X154555601Y-113570771D02*
X154460363Y-113523152D01*
X154460363Y-113523152D02*
X154269887Y-113523152D01*
X154269887Y-113523152D02*
X154174649Y-113570771D01*
X153317506Y-113523152D02*
X153317506Y-114189819D01*
X153746077Y-113523152D02*
X153746077Y-114046961D01*
X153746077Y-114046961D02*
X153698458Y-114142200D01*
X153698458Y-114142200D02*
X153603220Y-114189819D01*
X153603220Y-114189819D02*
X153460363Y-114189819D01*
X153460363Y-114189819D02*
X153365125Y-114142200D01*
X153365125Y-114142200D02*
X153317506Y-114094580D01*
X152841315Y-114189819D02*
X152841315Y-113523152D01*
X152841315Y-113189819D02*
X152888934Y-113237438D01*
X152888934Y-113237438D02*
X152841315Y-113285057D01*
X152841315Y-113285057D02*
X152793696Y-113237438D01*
X152793696Y-113237438D02*
X152841315Y-113189819D01*
X152841315Y-113189819D02*
X152841315Y-113285057D01*
X152507982Y-113523152D02*
X152127030Y-113523152D01*
X152365125Y-113189819D02*
X152365125Y-114046961D01*
X152365125Y-114046961D02*
X152317506Y-114142200D01*
X152317506Y-114142200D02*
X152222268Y-114189819D01*
X152222268Y-114189819D02*
X152127030Y-114189819D01*
X139862857Y-70284819D02*
X140196190Y-69808628D01*
X140434285Y-70284819D02*
X140434285Y-69284819D01*
X140434285Y-69284819D02*
X140053333Y-69284819D01*
X140053333Y-69284819D02*
X139958095Y-69332438D01*
X139958095Y-69332438D02*
X139910476Y-69380057D01*
X139910476Y-69380057D02*
X139862857Y-69475295D01*
X139862857Y-69475295D02*
X139862857Y-69618152D01*
X139862857Y-69618152D02*
X139910476Y-69713390D01*
X139910476Y-69713390D02*
X139958095Y-69761009D01*
X139958095Y-69761009D02*
X140053333Y-69808628D01*
X140053333Y-69808628D02*
X140434285Y-69808628D01*
X139481904Y-69380057D02*
X139434285Y-69332438D01*
X139434285Y-69332438D02*
X139339047Y-69284819D01*
X139339047Y-69284819D02*
X139100952Y-69284819D01*
X139100952Y-69284819D02*
X139005714Y-69332438D01*
X139005714Y-69332438D02*
X138958095Y-69380057D01*
X138958095Y-69380057D02*
X138910476Y-69475295D01*
X138910476Y-69475295D02*
X138910476Y-69570533D01*
X138910476Y-69570533D02*
X138958095Y-69713390D01*
X138958095Y-69713390D02*
X139529523Y-70284819D01*
X139529523Y-70284819D02*
X138910476Y-70284819D01*
X138529523Y-69380057D02*
X138481904Y-69332438D01*
X138481904Y-69332438D02*
X138386666Y-69284819D01*
X138386666Y-69284819D02*
X138148571Y-69284819D01*
X138148571Y-69284819D02*
X138053333Y-69332438D01*
X138053333Y-69332438D02*
X138005714Y-69380057D01*
X138005714Y-69380057D02*
X137958095Y-69475295D01*
X137958095Y-69475295D02*
X137958095Y-69570533D01*
X137958095Y-69570533D02*
X138005714Y-69713390D01*
X138005714Y-69713390D02*
X138577142Y-70284819D01*
X138577142Y-70284819D02*
X137958095Y-70284819D01*
X137010476Y-90214819D02*
X137343809Y-89738628D01*
X137581904Y-90214819D02*
X137581904Y-89214819D01*
X137581904Y-89214819D02*
X137200952Y-89214819D01*
X137200952Y-89214819D02*
X137105714Y-89262438D01*
X137105714Y-89262438D02*
X137058095Y-89310057D01*
X137058095Y-89310057D02*
X137010476Y-89405295D01*
X137010476Y-89405295D02*
X137010476Y-89548152D01*
X137010476Y-89548152D02*
X137058095Y-89643390D01*
X137058095Y-89643390D02*
X137105714Y-89691009D01*
X137105714Y-89691009D02*
X137200952Y-89738628D01*
X137200952Y-89738628D02*
X137581904Y-89738628D01*
X136581904Y-90214819D02*
X136581904Y-89214819D01*
X136581904Y-89214819D02*
X136010476Y-90214819D01*
X136010476Y-90214819D02*
X136010476Y-89214819D01*
X135010476Y-90214819D02*
X135581904Y-90214819D01*
X135296190Y-90214819D02*
X135296190Y-89214819D01*
X135296190Y-89214819D02*
X135391428Y-89357676D01*
X135391428Y-89357676D02*
X135486666Y-89452914D01*
X135486666Y-89452914D02*
X135581904Y-89500533D01*
X171794819Y-82263333D02*
X171318628Y-81930000D01*
X171794819Y-81691905D02*
X170794819Y-81691905D01*
X170794819Y-81691905D02*
X170794819Y-82072857D01*
X170794819Y-82072857D02*
X170842438Y-82168095D01*
X170842438Y-82168095D02*
X170890057Y-82215714D01*
X170890057Y-82215714D02*
X170985295Y-82263333D01*
X170985295Y-82263333D02*
X171128152Y-82263333D01*
X171128152Y-82263333D02*
X171223390Y-82215714D01*
X171223390Y-82215714D02*
X171271009Y-82168095D01*
X171271009Y-82168095D02*
X171318628Y-82072857D01*
X171318628Y-82072857D02*
X171318628Y-81691905D01*
X171794819Y-82739524D02*
X171794819Y-82930000D01*
X171794819Y-82930000D02*
X171747200Y-83025238D01*
X171747200Y-83025238D02*
X171699580Y-83072857D01*
X171699580Y-83072857D02*
X171556723Y-83168095D01*
X171556723Y-83168095D02*
X171366247Y-83215714D01*
X171366247Y-83215714D02*
X170985295Y-83215714D01*
X170985295Y-83215714D02*
X170890057Y-83168095D01*
X170890057Y-83168095D02*
X170842438Y-83120476D01*
X170842438Y-83120476D02*
X170794819Y-83025238D01*
X170794819Y-83025238D02*
X170794819Y-82834762D01*
X170794819Y-82834762D02*
X170842438Y-82739524D01*
X170842438Y-82739524D02*
X170890057Y-82691905D01*
X170890057Y-82691905D02*
X170985295Y-82644286D01*
X170985295Y-82644286D02*
X171223390Y-82644286D01*
X171223390Y-82644286D02*
X171318628Y-82691905D01*
X171318628Y-82691905D02*
X171366247Y-82739524D01*
X171366247Y-82739524D02*
X171413866Y-82834762D01*
X171413866Y-82834762D02*
X171413866Y-83025238D01*
X171413866Y-83025238D02*
X171366247Y-83120476D01*
X171366247Y-83120476D02*
X171318628Y-83168095D01*
X171318628Y-83168095D02*
X171223390Y-83215714D01*
X140032857Y-71654819D02*
X140366190Y-71178628D01*
X140604285Y-71654819D02*
X140604285Y-70654819D01*
X140604285Y-70654819D02*
X140223333Y-70654819D01*
X140223333Y-70654819D02*
X140128095Y-70702438D01*
X140128095Y-70702438D02*
X140080476Y-70750057D01*
X140080476Y-70750057D02*
X140032857Y-70845295D01*
X140032857Y-70845295D02*
X140032857Y-70988152D01*
X140032857Y-70988152D02*
X140080476Y-71083390D01*
X140080476Y-71083390D02*
X140128095Y-71131009D01*
X140128095Y-71131009D02*
X140223333Y-71178628D01*
X140223333Y-71178628D02*
X140604285Y-71178628D01*
X139651904Y-70750057D02*
X139604285Y-70702438D01*
X139604285Y-70702438D02*
X139509047Y-70654819D01*
X139509047Y-70654819D02*
X139270952Y-70654819D01*
X139270952Y-70654819D02*
X139175714Y-70702438D01*
X139175714Y-70702438D02*
X139128095Y-70750057D01*
X139128095Y-70750057D02*
X139080476Y-70845295D01*
X139080476Y-70845295D02*
X139080476Y-70940533D01*
X139080476Y-70940533D02*
X139128095Y-71083390D01*
X139128095Y-71083390D02*
X139699523Y-71654819D01*
X139699523Y-71654819D02*
X139080476Y-71654819D01*
X138128095Y-71654819D02*
X138699523Y-71654819D01*
X138413809Y-71654819D02*
X138413809Y-70654819D01*
X138413809Y-70654819D02*
X138509047Y-70797676D01*
X138509047Y-70797676D02*
X138604285Y-70892914D01*
X138604285Y-70892914D02*
X138699523Y-70940533D01*
X137372857Y-73764819D02*
X137706190Y-73288628D01*
X137944285Y-73764819D02*
X137944285Y-72764819D01*
X137944285Y-72764819D02*
X137563333Y-72764819D01*
X137563333Y-72764819D02*
X137468095Y-72812438D01*
X137468095Y-72812438D02*
X137420476Y-72860057D01*
X137420476Y-72860057D02*
X137372857Y-72955295D01*
X137372857Y-72955295D02*
X137372857Y-73098152D01*
X137372857Y-73098152D02*
X137420476Y-73193390D01*
X137420476Y-73193390D02*
X137468095Y-73241009D01*
X137468095Y-73241009D02*
X137563333Y-73288628D01*
X137563333Y-73288628D02*
X137944285Y-73288628D01*
X136420476Y-73764819D02*
X136991904Y-73764819D01*
X136706190Y-73764819D02*
X136706190Y-72764819D01*
X136706190Y-72764819D02*
X136801428Y-72907676D01*
X136801428Y-72907676D02*
X136896666Y-73002914D01*
X136896666Y-73002914D02*
X136991904Y-73050533D01*
X135849047Y-73193390D02*
X135944285Y-73145771D01*
X135944285Y-73145771D02*
X135991904Y-73098152D01*
X135991904Y-73098152D02*
X136039523Y-73002914D01*
X136039523Y-73002914D02*
X136039523Y-72955295D01*
X136039523Y-72955295D02*
X135991904Y-72860057D01*
X135991904Y-72860057D02*
X135944285Y-72812438D01*
X135944285Y-72812438D02*
X135849047Y-72764819D01*
X135849047Y-72764819D02*
X135658571Y-72764819D01*
X135658571Y-72764819D02*
X135563333Y-72812438D01*
X135563333Y-72812438D02*
X135515714Y-72860057D01*
X135515714Y-72860057D02*
X135468095Y-72955295D01*
X135468095Y-72955295D02*
X135468095Y-73002914D01*
X135468095Y-73002914D02*
X135515714Y-73098152D01*
X135515714Y-73098152D02*
X135563333Y-73145771D01*
X135563333Y-73145771D02*
X135658571Y-73193390D01*
X135658571Y-73193390D02*
X135849047Y-73193390D01*
X135849047Y-73193390D02*
X135944285Y-73241009D01*
X135944285Y-73241009D02*
X135991904Y-73288628D01*
X135991904Y-73288628D02*
X136039523Y-73383866D01*
X136039523Y-73383866D02*
X136039523Y-73574342D01*
X136039523Y-73574342D02*
X135991904Y-73669580D01*
X135991904Y-73669580D02*
X135944285Y-73717200D01*
X135944285Y-73717200D02*
X135849047Y-73764819D01*
X135849047Y-73764819D02*
X135658571Y-73764819D01*
X135658571Y-73764819D02*
X135563333Y-73717200D01*
X135563333Y-73717200D02*
X135515714Y-73669580D01*
X135515714Y-73669580D02*
X135468095Y-73574342D01*
X135468095Y-73574342D02*
X135468095Y-73383866D01*
X135468095Y-73383866D02*
X135515714Y-73288628D01*
X135515714Y-73288628D02*
X135563333Y-73241009D01*
X135563333Y-73241009D02*
X135658571Y-73193390D01*
X135942857Y-76249580D02*
X135990476Y-76297200D01*
X135990476Y-76297200D02*
X136133333Y-76344819D01*
X136133333Y-76344819D02*
X136228571Y-76344819D01*
X136228571Y-76344819D02*
X136371428Y-76297200D01*
X136371428Y-76297200D02*
X136466666Y-76201961D01*
X136466666Y-76201961D02*
X136514285Y-76106723D01*
X136514285Y-76106723D02*
X136561904Y-75916247D01*
X136561904Y-75916247D02*
X136561904Y-75773390D01*
X136561904Y-75773390D02*
X136514285Y-75582914D01*
X136514285Y-75582914D02*
X136466666Y-75487676D01*
X136466666Y-75487676D02*
X136371428Y-75392438D01*
X136371428Y-75392438D02*
X136228571Y-75344819D01*
X136228571Y-75344819D02*
X136133333Y-75344819D01*
X136133333Y-75344819D02*
X135990476Y-75392438D01*
X135990476Y-75392438D02*
X135942857Y-75440057D01*
X135609523Y-75344819D02*
X134990476Y-75344819D01*
X134990476Y-75344819D02*
X135323809Y-75725771D01*
X135323809Y-75725771D02*
X135180952Y-75725771D01*
X135180952Y-75725771D02*
X135085714Y-75773390D01*
X135085714Y-75773390D02*
X135038095Y-75821009D01*
X135038095Y-75821009D02*
X134990476Y-75916247D01*
X134990476Y-75916247D02*
X134990476Y-76154342D01*
X134990476Y-76154342D02*
X135038095Y-76249580D01*
X135038095Y-76249580D02*
X135085714Y-76297200D01*
X135085714Y-76297200D02*
X135180952Y-76344819D01*
X135180952Y-76344819D02*
X135466666Y-76344819D01*
X135466666Y-76344819D02*
X135561904Y-76297200D01*
X135561904Y-76297200D02*
X135609523Y-76249580D01*
X134371428Y-75344819D02*
X134276190Y-75344819D01*
X134276190Y-75344819D02*
X134180952Y-75392438D01*
X134180952Y-75392438D02*
X134133333Y-75440057D01*
X134133333Y-75440057D02*
X134085714Y-75535295D01*
X134085714Y-75535295D02*
X134038095Y-75725771D01*
X134038095Y-75725771D02*
X134038095Y-75963866D01*
X134038095Y-75963866D02*
X134085714Y-76154342D01*
X134085714Y-76154342D02*
X134133333Y-76249580D01*
X134133333Y-76249580D02*
X134180952Y-76297200D01*
X134180952Y-76297200D02*
X134276190Y-76344819D01*
X134276190Y-76344819D02*
X134371428Y-76344819D01*
X134371428Y-76344819D02*
X134466666Y-76297200D01*
X134466666Y-76297200D02*
X134514285Y-76249580D01*
X134514285Y-76249580D02*
X134561904Y-76154342D01*
X134561904Y-76154342D02*
X134609523Y-75963866D01*
X134609523Y-75963866D02*
X134609523Y-75725771D01*
X134609523Y-75725771D02*
X134561904Y-75535295D01*
X134561904Y-75535295D02*
X134514285Y-75440057D01*
X134514285Y-75440057D02*
X134466666Y-75392438D01*
X134466666Y-75392438D02*
X134371428Y-75344819D01*
X153692857Y-70229580D02*
X153740476Y-70277200D01*
X153740476Y-70277200D02*
X153883333Y-70324819D01*
X153883333Y-70324819D02*
X153978571Y-70324819D01*
X153978571Y-70324819D02*
X154121428Y-70277200D01*
X154121428Y-70277200D02*
X154216666Y-70181961D01*
X154216666Y-70181961D02*
X154264285Y-70086723D01*
X154264285Y-70086723D02*
X154311904Y-69896247D01*
X154311904Y-69896247D02*
X154311904Y-69753390D01*
X154311904Y-69753390D02*
X154264285Y-69562914D01*
X154264285Y-69562914D02*
X154216666Y-69467676D01*
X154216666Y-69467676D02*
X154121428Y-69372438D01*
X154121428Y-69372438D02*
X153978571Y-69324819D01*
X153978571Y-69324819D02*
X153883333Y-69324819D01*
X153883333Y-69324819D02*
X153740476Y-69372438D01*
X153740476Y-69372438D02*
X153692857Y-69420057D01*
X153311904Y-69420057D02*
X153264285Y-69372438D01*
X153264285Y-69372438D02*
X153169047Y-69324819D01*
X153169047Y-69324819D02*
X152930952Y-69324819D01*
X152930952Y-69324819D02*
X152835714Y-69372438D01*
X152835714Y-69372438D02*
X152788095Y-69420057D01*
X152788095Y-69420057D02*
X152740476Y-69515295D01*
X152740476Y-69515295D02*
X152740476Y-69610533D01*
X152740476Y-69610533D02*
X152788095Y-69753390D01*
X152788095Y-69753390D02*
X153359523Y-70324819D01*
X153359523Y-70324819D02*
X152740476Y-70324819D01*
X152407142Y-69324819D02*
X151740476Y-69324819D01*
X151740476Y-69324819D02*
X152169047Y-70324819D01*
X120782857Y-74594819D02*
X121116190Y-74118628D01*
X121354285Y-74594819D02*
X121354285Y-73594819D01*
X121354285Y-73594819D02*
X120973333Y-73594819D01*
X120973333Y-73594819D02*
X120878095Y-73642438D01*
X120878095Y-73642438D02*
X120830476Y-73690057D01*
X120830476Y-73690057D02*
X120782857Y-73785295D01*
X120782857Y-73785295D02*
X120782857Y-73928152D01*
X120782857Y-73928152D02*
X120830476Y-74023390D01*
X120830476Y-74023390D02*
X120878095Y-74071009D01*
X120878095Y-74071009D02*
X120973333Y-74118628D01*
X120973333Y-74118628D02*
X121354285Y-74118628D01*
X120401904Y-73690057D02*
X120354285Y-73642438D01*
X120354285Y-73642438D02*
X120259047Y-73594819D01*
X120259047Y-73594819D02*
X120020952Y-73594819D01*
X120020952Y-73594819D02*
X119925714Y-73642438D01*
X119925714Y-73642438D02*
X119878095Y-73690057D01*
X119878095Y-73690057D02*
X119830476Y-73785295D01*
X119830476Y-73785295D02*
X119830476Y-73880533D01*
X119830476Y-73880533D02*
X119878095Y-74023390D01*
X119878095Y-74023390D02*
X120449523Y-74594819D01*
X120449523Y-74594819D02*
X119830476Y-74594819D01*
X119259047Y-74023390D02*
X119354285Y-73975771D01*
X119354285Y-73975771D02*
X119401904Y-73928152D01*
X119401904Y-73928152D02*
X119449523Y-73832914D01*
X119449523Y-73832914D02*
X119449523Y-73785295D01*
X119449523Y-73785295D02*
X119401904Y-73690057D01*
X119401904Y-73690057D02*
X119354285Y-73642438D01*
X119354285Y-73642438D02*
X119259047Y-73594819D01*
X119259047Y-73594819D02*
X119068571Y-73594819D01*
X119068571Y-73594819D02*
X118973333Y-73642438D01*
X118973333Y-73642438D02*
X118925714Y-73690057D01*
X118925714Y-73690057D02*
X118878095Y-73785295D01*
X118878095Y-73785295D02*
X118878095Y-73832914D01*
X118878095Y-73832914D02*
X118925714Y-73928152D01*
X118925714Y-73928152D02*
X118973333Y-73975771D01*
X118973333Y-73975771D02*
X119068571Y-74023390D01*
X119068571Y-74023390D02*
X119259047Y-74023390D01*
X119259047Y-74023390D02*
X119354285Y-74071009D01*
X119354285Y-74071009D02*
X119401904Y-74118628D01*
X119401904Y-74118628D02*
X119449523Y-74213866D01*
X119449523Y-74213866D02*
X119449523Y-74404342D01*
X119449523Y-74404342D02*
X119401904Y-74499580D01*
X119401904Y-74499580D02*
X119354285Y-74547200D01*
X119354285Y-74547200D02*
X119259047Y-74594819D01*
X119259047Y-74594819D02*
X119068571Y-74594819D01*
X119068571Y-74594819D02*
X118973333Y-74547200D01*
X118973333Y-74547200D02*
X118925714Y-74499580D01*
X118925714Y-74499580D02*
X118878095Y-74404342D01*
X118878095Y-74404342D02*
X118878095Y-74213866D01*
X118878095Y-74213866D02*
X118925714Y-74118628D01*
X118925714Y-74118628D02*
X118973333Y-74071009D01*
X118973333Y-74071009D02*
X119068571Y-74023390D01*
X119898094Y-63554819D02*
X119898094Y-62554819D01*
X119898094Y-62554819D02*
X119659999Y-62554819D01*
X119659999Y-62554819D02*
X119517142Y-62602438D01*
X119517142Y-62602438D02*
X119421904Y-62697676D01*
X119421904Y-62697676D02*
X119374285Y-62792914D01*
X119374285Y-62792914D02*
X119326666Y-62983390D01*
X119326666Y-62983390D02*
X119326666Y-63126247D01*
X119326666Y-63126247D02*
X119374285Y-63316723D01*
X119374285Y-63316723D02*
X119421904Y-63411961D01*
X119421904Y-63411961D02*
X119517142Y-63507200D01*
X119517142Y-63507200D02*
X119659999Y-63554819D01*
X119659999Y-63554819D02*
X119898094Y-63554819D01*
X118945713Y-62650057D02*
X118898094Y-62602438D01*
X118898094Y-62602438D02*
X118802856Y-62554819D01*
X118802856Y-62554819D02*
X118564761Y-62554819D01*
X118564761Y-62554819D02*
X118469523Y-62602438D01*
X118469523Y-62602438D02*
X118421904Y-62650057D01*
X118421904Y-62650057D02*
X118374285Y-62745295D01*
X118374285Y-62745295D02*
X118374285Y-62840533D01*
X118374285Y-62840533D02*
X118421904Y-62983390D01*
X118421904Y-62983390D02*
X118993332Y-63554819D01*
X118993332Y-63554819D02*
X118374285Y-63554819D01*
X117532857Y-72934819D02*
X117866190Y-72458628D01*
X118104285Y-72934819D02*
X118104285Y-71934819D01*
X118104285Y-71934819D02*
X117723333Y-71934819D01*
X117723333Y-71934819D02*
X117628095Y-71982438D01*
X117628095Y-71982438D02*
X117580476Y-72030057D01*
X117580476Y-72030057D02*
X117532857Y-72125295D01*
X117532857Y-72125295D02*
X117532857Y-72268152D01*
X117532857Y-72268152D02*
X117580476Y-72363390D01*
X117580476Y-72363390D02*
X117628095Y-72411009D01*
X117628095Y-72411009D02*
X117723333Y-72458628D01*
X117723333Y-72458628D02*
X118104285Y-72458628D01*
X117199523Y-71934819D02*
X116580476Y-71934819D01*
X116580476Y-71934819D02*
X116913809Y-72315771D01*
X116913809Y-72315771D02*
X116770952Y-72315771D01*
X116770952Y-72315771D02*
X116675714Y-72363390D01*
X116675714Y-72363390D02*
X116628095Y-72411009D01*
X116628095Y-72411009D02*
X116580476Y-72506247D01*
X116580476Y-72506247D02*
X116580476Y-72744342D01*
X116580476Y-72744342D02*
X116628095Y-72839580D01*
X116628095Y-72839580D02*
X116675714Y-72887200D01*
X116675714Y-72887200D02*
X116770952Y-72934819D01*
X116770952Y-72934819D02*
X117056666Y-72934819D01*
X117056666Y-72934819D02*
X117151904Y-72887200D01*
X117151904Y-72887200D02*
X117199523Y-72839580D01*
X116199523Y-72030057D02*
X116151904Y-71982438D01*
X116151904Y-71982438D02*
X116056666Y-71934819D01*
X116056666Y-71934819D02*
X115818571Y-71934819D01*
X115818571Y-71934819D02*
X115723333Y-71982438D01*
X115723333Y-71982438D02*
X115675714Y-72030057D01*
X115675714Y-72030057D02*
X115628095Y-72125295D01*
X115628095Y-72125295D02*
X115628095Y-72220533D01*
X115628095Y-72220533D02*
X115675714Y-72363390D01*
X115675714Y-72363390D02*
X116247142Y-72934819D01*
X116247142Y-72934819D02*
X115628095Y-72934819D01*
X117032857Y-105794819D02*
X117366190Y-105318628D01*
X117604285Y-105794819D02*
X117604285Y-104794819D01*
X117604285Y-104794819D02*
X117223333Y-104794819D01*
X117223333Y-104794819D02*
X117128095Y-104842438D01*
X117128095Y-104842438D02*
X117080476Y-104890057D01*
X117080476Y-104890057D02*
X117032857Y-104985295D01*
X117032857Y-104985295D02*
X117032857Y-105128152D01*
X117032857Y-105128152D02*
X117080476Y-105223390D01*
X117080476Y-105223390D02*
X117128095Y-105271009D01*
X117128095Y-105271009D02*
X117223333Y-105318628D01*
X117223333Y-105318628D02*
X117604285Y-105318628D01*
X116175714Y-104794819D02*
X116366190Y-104794819D01*
X116366190Y-104794819D02*
X116461428Y-104842438D01*
X116461428Y-104842438D02*
X116509047Y-104890057D01*
X116509047Y-104890057D02*
X116604285Y-105032914D01*
X116604285Y-105032914D02*
X116651904Y-105223390D01*
X116651904Y-105223390D02*
X116651904Y-105604342D01*
X116651904Y-105604342D02*
X116604285Y-105699580D01*
X116604285Y-105699580D02*
X116556666Y-105747200D01*
X116556666Y-105747200D02*
X116461428Y-105794819D01*
X116461428Y-105794819D02*
X116270952Y-105794819D01*
X116270952Y-105794819D02*
X116175714Y-105747200D01*
X116175714Y-105747200D02*
X116128095Y-105699580D01*
X116128095Y-105699580D02*
X116080476Y-105604342D01*
X116080476Y-105604342D02*
X116080476Y-105366247D01*
X116080476Y-105366247D02*
X116128095Y-105271009D01*
X116128095Y-105271009D02*
X116175714Y-105223390D01*
X116175714Y-105223390D02*
X116270952Y-105175771D01*
X116270952Y-105175771D02*
X116461428Y-105175771D01*
X116461428Y-105175771D02*
X116556666Y-105223390D01*
X116556666Y-105223390D02*
X116604285Y-105271009D01*
X116604285Y-105271009D02*
X116651904Y-105366247D01*
X115461428Y-104794819D02*
X115366190Y-104794819D01*
X115366190Y-104794819D02*
X115270952Y-104842438D01*
X115270952Y-104842438D02*
X115223333Y-104890057D01*
X115223333Y-104890057D02*
X115175714Y-104985295D01*
X115175714Y-104985295D02*
X115128095Y-105175771D01*
X115128095Y-105175771D02*
X115128095Y-105413866D01*
X115128095Y-105413866D02*
X115175714Y-105604342D01*
X115175714Y-105604342D02*
X115223333Y-105699580D01*
X115223333Y-105699580D02*
X115270952Y-105747200D01*
X115270952Y-105747200D02*
X115366190Y-105794819D01*
X115366190Y-105794819D02*
X115461428Y-105794819D01*
X115461428Y-105794819D02*
X115556666Y-105747200D01*
X115556666Y-105747200D02*
X115604285Y-105699580D01*
X115604285Y-105699580D02*
X115651904Y-105604342D01*
X115651904Y-105604342D02*
X115699523Y-105413866D01*
X115699523Y-105413866D02*
X115699523Y-105175771D01*
X115699523Y-105175771D02*
X115651904Y-104985295D01*
X115651904Y-104985295D02*
X115604285Y-104890057D01*
X115604285Y-104890057D02*
X115556666Y-104842438D01*
X115556666Y-104842438D02*
X115461428Y-104794819D01*
X151412857Y-79824819D02*
X151746190Y-79348628D01*
X151984285Y-79824819D02*
X151984285Y-78824819D01*
X151984285Y-78824819D02*
X151603333Y-78824819D01*
X151603333Y-78824819D02*
X151508095Y-78872438D01*
X151508095Y-78872438D02*
X151460476Y-78920057D01*
X151460476Y-78920057D02*
X151412857Y-79015295D01*
X151412857Y-79015295D02*
X151412857Y-79158152D01*
X151412857Y-79158152D02*
X151460476Y-79253390D01*
X151460476Y-79253390D02*
X151508095Y-79301009D01*
X151508095Y-79301009D02*
X151603333Y-79348628D01*
X151603333Y-79348628D02*
X151984285Y-79348628D01*
X150460476Y-79824819D02*
X151031904Y-79824819D01*
X150746190Y-79824819D02*
X150746190Y-78824819D01*
X150746190Y-78824819D02*
X150841428Y-78967676D01*
X150841428Y-78967676D02*
X150936666Y-79062914D01*
X150936666Y-79062914D02*
X151031904Y-79110533D01*
X149555714Y-78824819D02*
X150031904Y-78824819D01*
X150031904Y-78824819D02*
X150079523Y-79301009D01*
X150079523Y-79301009D02*
X150031904Y-79253390D01*
X150031904Y-79253390D02*
X149936666Y-79205771D01*
X149936666Y-79205771D02*
X149698571Y-79205771D01*
X149698571Y-79205771D02*
X149603333Y-79253390D01*
X149603333Y-79253390D02*
X149555714Y-79301009D01*
X149555714Y-79301009D02*
X149508095Y-79396247D01*
X149508095Y-79396247D02*
X149508095Y-79634342D01*
X149508095Y-79634342D02*
X149555714Y-79729580D01*
X149555714Y-79729580D02*
X149603333Y-79777200D01*
X149603333Y-79777200D02*
X149698571Y-79824819D01*
X149698571Y-79824819D02*
X149936666Y-79824819D01*
X149936666Y-79824819D02*
X150031904Y-79777200D01*
X150031904Y-79777200D02*
X150079523Y-79729580D01*
X124282857Y-69054819D02*
X124616190Y-68578628D01*
X124854285Y-69054819D02*
X124854285Y-68054819D01*
X124854285Y-68054819D02*
X124473333Y-68054819D01*
X124473333Y-68054819D02*
X124378095Y-68102438D01*
X124378095Y-68102438D02*
X124330476Y-68150057D01*
X124330476Y-68150057D02*
X124282857Y-68245295D01*
X124282857Y-68245295D02*
X124282857Y-68388152D01*
X124282857Y-68388152D02*
X124330476Y-68483390D01*
X124330476Y-68483390D02*
X124378095Y-68531009D01*
X124378095Y-68531009D02*
X124473333Y-68578628D01*
X124473333Y-68578628D02*
X124854285Y-68578628D01*
X123949523Y-68054819D02*
X123330476Y-68054819D01*
X123330476Y-68054819D02*
X123663809Y-68435771D01*
X123663809Y-68435771D02*
X123520952Y-68435771D01*
X123520952Y-68435771D02*
X123425714Y-68483390D01*
X123425714Y-68483390D02*
X123378095Y-68531009D01*
X123378095Y-68531009D02*
X123330476Y-68626247D01*
X123330476Y-68626247D02*
X123330476Y-68864342D01*
X123330476Y-68864342D02*
X123378095Y-68959580D01*
X123378095Y-68959580D02*
X123425714Y-69007200D01*
X123425714Y-69007200D02*
X123520952Y-69054819D01*
X123520952Y-69054819D02*
X123806666Y-69054819D01*
X123806666Y-69054819D02*
X123901904Y-69007200D01*
X123901904Y-69007200D02*
X123949523Y-68959580D01*
X122378095Y-69054819D02*
X122949523Y-69054819D01*
X122663809Y-69054819D02*
X122663809Y-68054819D01*
X122663809Y-68054819D02*
X122759047Y-68197676D01*
X122759047Y-68197676D02*
X122854285Y-68292914D01*
X122854285Y-68292914D02*
X122949523Y-68340533D01*
X178488094Y-108844819D02*
X178488094Y-107844819D01*
X178488094Y-107844819D02*
X178249999Y-107844819D01*
X178249999Y-107844819D02*
X178107142Y-107892438D01*
X178107142Y-107892438D02*
X178011904Y-107987676D01*
X178011904Y-107987676D02*
X177964285Y-108082914D01*
X177964285Y-108082914D02*
X177916666Y-108273390D01*
X177916666Y-108273390D02*
X177916666Y-108416247D01*
X177916666Y-108416247D02*
X177964285Y-108606723D01*
X177964285Y-108606723D02*
X178011904Y-108701961D01*
X178011904Y-108701961D02*
X178107142Y-108797200D01*
X178107142Y-108797200D02*
X178249999Y-108844819D01*
X178249999Y-108844819D02*
X178488094Y-108844819D01*
X176964285Y-108844819D02*
X177535713Y-108844819D01*
X177249999Y-108844819D02*
X177249999Y-107844819D01*
X177249999Y-107844819D02*
X177345237Y-107987676D01*
X177345237Y-107987676D02*
X177440475Y-108082914D01*
X177440475Y-108082914D02*
X177535713Y-108130533D01*
X170394819Y-82297142D02*
X169918628Y-81963809D01*
X170394819Y-81725714D02*
X169394819Y-81725714D01*
X169394819Y-81725714D02*
X169394819Y-82106666D01*
X169394819Y-82106666D02*
X169442438Y-82201904D01*
X169442438Y-82201904D02*
X169490057Y-82249523D01*
X169490057Y-82249523D02*
X169585295Y-82297142D01*
X169585295Y-82297142D02*
X169728152Y-82297142D01*
X169728152Y-82297142D02*
X169823390Y-82249523D01*
X169823390Y-82249523D02*
X169871009Y-82201904D01*
X169871009Y-82201904D02*
X169918628Y-82106666D01*
X169918628Y-82106666D02*
X169918628Y-81725714D01*
X170394819Y-83249523D02*
X170394819Y-82678095D01*
X170394819Y-82963809D02*
X169394819Y-82963809D01*
X169394819Y-82963809D02*
X169537676Y-82868571D01*
X169537676Y-82868571D02*
X169632914Y-82773333D01*
X169632914Y-82773333D02*
X169680533Y-82678095D01*
X169394819Y-83868571D02*
X169394819Y-83963809D01*
X169394819Y-83963809D02*
X169442438Y-84059047D01*
X169442438Y-84059047D02*
X169490057Y-84106666D01*
X169490057Y-84106666D02*
X169585295Y-84154285D01*
X169585295Y-84154285D02*
X169775771Y-84201904D01*
X169775771Y-84201904D02*
X170013866Y-84201904D01*
X170013866Y-84201904D02*
X170204342Y-84154285D01*
X170204342Y-84154285D02*
X170299580Y-84106666D01*
X170299580Y-84106666D02*
X170347200Y-84059047D01*
X170347200Y-84059047D02*
X170394819Y-83963809D01*
X170394819Y-83963809D02*
X170394819Y-83868571D01*
X170394819Y-83868571D02*
X170347200Y-83773333D01*
X170347200Y-83773333D02*
X170299580Y-83725714D01*
X170299580Y-83725714D02*
X170204342Y-83678095D01*
X170204342Y-83678095D02*
X170013866Y-83630476D01*
X170013866Y-83630476D02*
X169775771Y-83630476D01*
X169775771Y-83630476D02*
X169585295Y-83678095D01*
X169585295Y-83678095D02*
X169490057Y-83725714D01*
X169490057Y-83725714D02*
X169442438Y-83773333D01*
X169442438Y-83773333D02*
X169394819Y-83868571D01*
X120482857Y-69104819D02*
X120816190Y-68628628D01*
X121054285Y-69104819D02*
X121054285Y-68104819D01*
X121054285Y-68104819D02*
X120673333Y-68104819D01*
X120673333Y-68104819D02*
X120578095Y-68152438D01*
X120578095Y-68152438D02*
X120530476Y-68200057D01*
X120530476Y-68200057D02*
X120482857Y-68295295D01*
X120482857Y-68295295D02*
X120482857Y-68438152D01*
X120482857Y-68438152D02*
X120530476Y-68533390D01*
X120530476Y-68533390D02*
X120578095Y-68581009D01*
X120578095Y-68581009D02*
X120673333Y-68628628D01*
X120673333Y-68628628D02*
X121054285Y-68628628D01*
X120149523Y-68104819D02*
X119530476Y-68104819D01*
X119530476Y-68104819D02*
X119863809Y-68485771D01*
X119863809Y-68485771D02*
X119720952Y-68485771D01*
X119720952Y-68485771D02*
X119625714Y-68533390D01*
X119625714Y-68533390D02*
X119578095Y-68581009D01*
X119578095Y-68581009D02*
X119530476Y-68676247D01*
X119530476Y-68676247D02*
X119530476Y-68914342D01*
X119530476Y-68914342D02*
X119578095Y-69009580D01*
X119578095Y-69009580D02*
X119625714Y-69057200D01*
X119625714Y-69057200D02*
X119720952Y-69104819D01*
X119720952Y-69104819D02*
X120006666Y-69104819D01*
X120006666Y-69104819D02*
X120101904Y-69057200D01*
X120101904Y-69057200D02*
X120149523Y-69009580D01*
X119197142Y-68104819D02*
X118578095Y-68104819D01*
X118578095Y-68104819D02*
X118911428Y-68485771D01*
X118911428Y-68485771D02*
X118768571Y-68485771D01*
X118768571Y-68485771D02*
X118673333Y-68533390D01*
X118673333Y-68533390D02*
X118625714Y-68581009D01*
X118625714Y-68581009D02*
X118578095Y-68676247D01*
X118578095Y-68676247D02*
X118578095Y-68914342D01*
X118578095Y-68914342D02*
X118625714Y-69009580D01*
X118625714Y-69009580D02*
X118673333Y-69057200D01*
X118673333Y-69057200D02*
X118768571Y-69104819D01*
X118768571Y-69104819D02*
X119054285Y-69104819D01*
X119054285Y-69104819D02*
X119149523Y-69057200D01*
X119149523Y-69057200D02*
X119197142Y-69009580D01*
X127752857Y-68979580D02*
X127800476Y-69027200D01*
X127800476Y-69027200D02*
X127943333Y-69074819D01*
X127943333Y-69074819D02*
X128038571Y-69074819D01*
X128038571Y-69074819D02*
X128181428Y-69027200D01*
X128181428Y-69027200D02*
X128276666Y-68931961D01*
X128276666Y-68931961D02*
X128324285Y-68836723D01*
X128324285Y-68836723D02*
X128371904Y-68646247D01*
X128371904Y-68646247D02*
X128371904Y-68503390D01*
X128371904Y-68503390D02*
X128324285Y-68312914D01*
X128324285Y-68312914D02*
X128276666Y-68217676D01*
X128276666Y-68217676D02*
X128181428Y-68122438D01*
X128181428Y-68122438D02*
X128038571Y-68074819D01*
X128038571Y-68074819D02*
X127943333Y-68074819D01*
X127943333Y-68074819D02*
X127800476Y-68122438D01*
X127800476Y-68122438D02*
X127752857Y-68170057D01*
X127371904Y-68170057D02*
X127324285Y-68122438D01*
X127324285Y-68122438D02*
X127229047Y-68074819D01*
X127229047Y-68074819D02*
X126990952Y-68074819D01*
X126990952Y-68074819D02*
X126895714Y-68122438D01*
X126895714Y-68122438D02*
X126848095Y-68170057D01*
X126848095Y-68170057D02*
X126800476Y-68265295D01*
X126800476Y-68265295D02*
X126800476Y-68360533D01*
X126800476Y-68360533D02*
X126848095Y-68503390D01*
X126848095Y-68503390D02*
X127419523Y-69074819D01*
X127419523Y-69074819D02*
X126800476Y-69074819D01*
X126467142Y-68074819D02*
X125848095Y-68074819D01*
X125848095Y-68074819D02*
X126181428Y-68455771D01*
X126181428Y-68455771D02*
X126038571Y-68455771D01*
X126038571Y-68455771D02*
X125943333Y-68503390D01*
X125943333Y-68503390D02*
X125895714Y-68551009D01*
X125895714Y-68551009D02*
X125848095Y-68646247D01*
X125848095Y-68646247D02*
X125848095Y-68884342D01*
X125848095Y-68884342D02*
X125895714Y-68979580D01*
X125895714Y-68979580D02*
X125943333Y-69027200D01*
X125943333Y-69027200D02*
X126038571Y-69074819D01*
X126038571Y-69074819D02*
X126324285Y-69074819D01*
X126324285Y-69074819D02*
X126419523Y-69027200D01*
X126419523Y-69027200D02*
X126467142Y-68979580D01*
X178993333Y-102561009D02*
X179326666Y-102561009D01*
X179326666Y-103084819D02*
X179326666Y-102084819D01*
X179326666Y-102084819D02*
X178850476Y-102084819D01*
X178136190Y-102561009D02*
X177993333Y-102608628D01*
X177993333Y-102608628D02*
X177945714Y-102656247D01*
X177945714Y-102656247D02*
X177898095Y-102751485D01*
X177898095Y-102751485D02*
X177898095Y-102894342D01*
X177898095Y-102894342D02*
X177945714Y-102989580D01*
X177945714Y-102989580D02*
X177993333Y-103037200D01*
X177993333Y-103037200D02*
X178088571Y-103084819D01*
X178088571Y-103084819D02*
X178469523Y-103084819D01*
X178469523Y-103084819D02*
X178469523Y-102084819D01*
X178469523Y-102084819D02*
X178136190Y-102084819D01*
X178136190Y-102084819D02*
X178040952Y-102132438D01*
X178040952Y-102132438D02*
X177993333Y-102180057D01*
X177993333Y-102180057D02*
X177945714Y-102275295D01*
X177945714Y-102275295D02*
X177945714Y-102370533D01*
X177945714Y-102370533D02*
X177993333Y-102465771D01*
X177993333Y-102465771D02*
X178040952Y-102513390D01*
X178040952Y-102513390D02*
X178136190Y-102561009D01*
X178136190Y-102561009D02*
X178469523Y-102561009D01*
X176945714Y-103084819D02*
X177517142Y-103084819D01*
X177231428Y-103084819D02*
X177231428Y-102084819D01*
X177231428Y-102084819D02*
X177326666Y-102227676D01*
X177326666Y-102227676D02*
X177421904Y-102322914D01*
X177421904Y-102322914D02*
X177517142Y-102370533D01*
X154992857Y-80539580D02*
X155040476Y-80587200D01*
X155040476Y-80587200D02*
X155183333Y-80634819D01*
X155183333Y-80634819D02*
X155278571Y-80634819D01*
X155278571Y-80634819D02*
X155421428Y-80587200D01*
X155421428Y-80587200D02*
X155516666Y-80491961D01*
X155516666Y-80491961D02*
X155564285Y-80396723D01*
X155564285Y-80396723D02*
X155611904Y-80206247D01*
X155611904Y-80206247D02*
X155611904Y-80063390D01*
X155611904Y-80063390D02*
X155564285Y-79872914D01*
X155564285Y-79872914D02*
X155516666Y-79777676D01*
X155516666Y-79777676D02*
X155421428Y-79682438D01*
X155421428Y-79682438D02*
X155278571Y-79634819D01*
X155278571Y-79634819D02*
X155183333Y-79634819D01*
X155183333Y-79634819D02*
X155040476Y-79682438D01*
X155040476Y-79682438D02*
X154992857Y-79730057D01*
X154611904Y-79730057D02*
X154564285Y-79682438D01*
X154564285Y-79682438D02*
X154469047Y-79634819D01*
X154469047Y-79634819D02*
X154230952Y-79634819D01*
X154230952Y-79634819D02*
X154135714Y-79682438D01*
X154135714Y-79682438D02*
X154088095Y-79730057D01*
X154088095Y-79730057D02*
X154040476Y-79825295D01*
X154040476Y-79825295D02*
X154040476Y-79920533D01*
X154040476Y-79920533D02*
X154088095Y-80063390D01*
X154088095Y-80063390D02*
X154659523Y-80634819D01*
X154659523Y-80634819D02*
X154040476Y-80634819D01*
X153183333Y-79634819D02*
X153373809Y-79634819D01*
X153373809Y-79634819D02*
X153469047Y-79682438D01*
X153469047Y-79682438D02*
X153516666Y-79730057D01*
X153516666Y-79730057D02*
X153611904Y-79872914D01*
X153611904Y-79872914D02*
X153659523Y-80063390D01*
X153659523Y-80063390D02*
X153659523Y-80444342D01*
X153659523Y-80444342D02*
X153611904Y-80539580D01*
X153611904Y-80539580D02*
X153564285Y-80587200D01*
X153564285Y-80587200D02*
X153469047Y-80634819D01*
X153469047Y-80634819D02*
X153278571Y-80634819D01*
X153278571Y-80634819D02*
X153183333Y-80587200D01*
X153183333Y-80587200D02*
X153135714Y-80539580D01*
X153135714Y-80539580D02*
X153088095Y-80444342D01*
X153088095Y-80444342D02*
X153088095Y-80206247D01*
X153088095Y-80206247D02*
X153135714Y-80111009D01*
X153135714Y-80111009D02*
X153183333Y-80063390D01*
X153183333Y-80063390D02*
X153278571Y-80015771D01*
X153278571Y-80015771D02*
X153469047Y-80015771D01*
X153469047Y-80015771D02*
X153564285Y-80063390D01*
X153564285Y-80063390D02*
X153611904Y-80111009D01*
X153611904Y-80111009D02*
X153659523Y-80206247D01*
X142740476Y-101584819D02*
X143073809Y-101108628D01*
X143311904Y-101584819D02*
X143311904Y-100584819D01*
X143311904Y-100584819D02*
X142930952Y-100584819D01*
X142930952Y-100584819D02*
X142835714Y-100632438D01*
X142835714Y-100632438D02*
X142788095Y-100680057D01*
X142788095Y-100680057D02*
X142740476Y-100775295D01*
X142740476Y-100775295D02*
X142740476Y-100918152D01*
X142740476Y-100918152D02*
X142788095Y-101013390D01*
X142788095Y-101013390D02*
X142835714Y-101061009D01*
X142835714Y-101061009D02*
X142930952Y-101108628D01*
X142930952Y-101108628D02*
X143311904Y-101108628D01*
X142311904Y-101584819D02*
X142311904Y-100584819D01*
X142311904Y-100584819D02*
X141740476Y-101584819D01*
X141740476Y-101584819D02*
X141740476Y-100584819D01*
X140788095Y-100584819D02*
X141264285Y-100584819D01*
X141264285Y-100584819D02*
X141311904Y-101061009D01*
X141311904Y-101061009D02*
X141264285Y-101013390D01*
X141264285Y-101013390D02*
X141169047Y-100965771D01*
X141169047Y-100965771D02*
X140930952Y-100965771D01*
X140930952Y-100965771D02*
X140835714Y-101013390D01*
X140835714Y-101013390D02*
X140788095Y-101061009D01*
X140788095Y-101061009D02*
X140740476Y-101156247D01*
X140740476Y-101156247D02*
X140740476Y-101394342D01*
X140740476Y-101394342D02*
X140788095Y-101489580D01*
X140788095Y-101489580D02*
X140835714Y-101537200D01*
X140835714Y-101537200D02*
X140930952Y-101584819D01*
X140930952Y-101584819D02*
X141169047Y-101584819D01*
X141169047Y-101584819D02*
X141264285Y-101537200D01*
X141264285Y-101537200D02*
X141311904Y-101489580D01*
X157113438Y-71264731D02*
X157446771Y-70788540D01*
X157684866Y-71264731D02*
X157684866Y-70264731D01*
X157684866Y-70264731D02*
X157303914Y-70264731D01*
X157303914Y-70264731D02*
X157208676Y-70312350D01*
X157208676Y-70312350D02*
X157161057Y-70359969D01*
X157161057Y-70359969D02*
X157113438Y-70455207D01*
X157113438Y-70455207D02*
X157113438Y-70598064D01*
X157113438Y-70598064D02*
X157161057Y-70693302D01*
X157161057Y-70693302D02*
X157208676Y-70740921D01*
X157208676Y-70740921D02*
X157303914Y-70788540D01*
X157303914Y-70788540D02*
X157684866Y-70788540D01*
X156161057Y-71264731D02*
X156732485Y-71264731D01*
X156446771Y-71264731D02*
X156446771Y-70264731D01*
X156446771Y-70264731D02*
X156542009Y-70407588D01*
X156542009Y-70407588D02*
X156637247Y-70502826D01*
X156637247Y-70502826D02*
X156732485Y-70550445D01*
X155208676Y-71264731D02*
X155780104Y-71264731D01*
X155494390Y-71264731D02*
X155494390Y-70264731D01*
X155494390Y-70264731D02*
X155589628Y-70407588D01*
X155589628Y-70407588D02*
X155684866Y-70502826D01*
X155684866Y-70502826D02*
X155780104Y-70550445D01*
X174264819Y-69163333D02*
X173788628Y-68830000D01*
X174264819Y-68591905D02*
X173264819Y-68591905D01*
X173264819Y-68591905D02*
X173264819Y-68972857D01*
X173264819Y-68972857D02*
X173312438Y-69068095D01*
X173312438Y-69068095D02*
X173360057Y-69115714D01*
X173360057Y-69115714D02*
X173455295Y-69163333D01*
X173455295Y-69163333D02*
X173598152Y-69163333D01*
X173598152Y-69163333D02*
X173693390Y-69115714D01*
X173693390Y-69115714D02*
X173741009Y-69068095D01*
X173741009Y-69068095D02*
X173788628Y-68972857D01*
X173788628Y-68972857D02*
X173788628Y-68591905D01*
X173598152Y-70020476D02*
X174264819Y-70020476D01*
X173217200Y-69782381D02*
X173931485Y-69544286D01*
X173931485Y-69544286D02*
X173931485Y-70163333D01*
X138412857Y-79064819D02*
X138746190Y-78588628D01*
X138984285Y-79064819D02*
X138984285Y-78064819D01*
X138984285Y-78064819D02*
X138603333Y-78064819D01*
X138603333Y-78064819D02*
X138508095Y-78112438D01*
X138508095Y-78112438D02*
X138460476Y-78160057D01*
X138460476Y-78160057D02*
X138412857Y-78255295D01*
X138412857Y-78255295D02*
X138412857Y-78398152D01*
X138412857Y-78398152D02*
X138460476Y-78493390D01*
X138460476Y-78493390D02*
X138508095Y-78541009D01*
X138508095Y-78541009D02*
X138603333Y-78588628D01*
X138603333Y-78588628D02*
X138984285Y-78588628D01*
X137460476Y-79064819D02*
X138031904Y-79064819D01*
X137746190Y-79064819D02*
X137746190Y-78064819D01*
X137746190Y-78064819D02*
X137841428Y-78207676D01*
X137841428Y-78207676D02*
X137936666Y-78302914D01*
X137936666Y-78302914D02*
X138031904Y-78350533D01*
X136984285Y-79064819D02*
X136793809Y-79064819D01*
X136793809Y-79064819D02*
X136698571Y-79017200D01*
X136698571Y-79017200D02*
X136650952Y-78969580D01*
X136650952Y-78969580D02*
X136555714Y-78826723D01*
X136555714Y-78826723D02*
X136508095Y-78636247D01*
X136508095Y-78636247D02*
X136508095Y-78255295D01*
X136508095Y-78255295D02*
X136555714Y-78160057D01*
X136555714Y-78160057D02*
X136603333Y-78112438D01*
X136603333Y-78112438D02*
X136698571Y-78064819D01*
X136698571Y-78064819D02*
X136889047Y-78064819D01*
X136889047Y-78064819D02*
X136984285Y-78112438D01*
X136984285Y-78112438D02*
X137031904Y-78160057D01*
X137031904Y-78160057D02*
X137079523Y-78255295D01*
X137079523Y-78255295D02*
X137079523Y-78493390D01*
X137079523Y-78493390D02*
X137031904Y-78588628D01*
X137031904Y-78588628D02*
X136984285Y-78636247D01*
X136984285Y-78636247D02*
X136889047Y-78683866D01*
X136889047Y-78683866D02*
X136698571Y-78683866D01*
X136698571Y-78683866D02*
X136603333Y-78636247D01*
X136603333Y-78636247D02*
X136555714Y-78588628D01*
X136555714Y-78588628D02*
X136508095Y-78493390D01*
X161882857Y-100089580D02*
X161930476Y-100137200D01*
X161930476Y-100137200D02*
X162073333Y-100184819D01*
X162073333Y-100184819D02*
X162168571Y-100184819D01*
X162168571Y-100184819D02*
X162311428Y-100137200D01*
X162311428Y-100137200D02*
X162406666Y-100041961D01*
X162406666Y-100041961D02*
X162454285Y-99946723D01*
X162454285Y-99946723D02*
X162501904Y-99756247D01*
X162501904Y-99756247D02*
X162501904Y-99613390D01*
X162501904Y-99613390D02*
X162454285Y-99422914D01*
X162454285Y-99422914D02*
X162406666Y-99327676D01*
X162406666Y-99327676D02*
X162311428Y-99232438D01*
X162311428Y-99232438D02*
X162168571Y-99184819D01*
X162168571Y-99184819D02*
X162073333Y-99184819D01*
X162073333Y-99184819D02*
X161930476Y-99232438D01*
X161930476Y-99232438D02*
X161882857Y-99280057D01*
X161501904Y-99280057D02*
X161454285Y-99232438D01*
X161454285Y-99232438D02*
X161359047Y-99184819D01*
X161359047Y-99184819D02*
X161120952Y-99184819D01*
X161120952Y-99184819D02*
X161025714Y-99232438D01*
X161025714Y-99232438D02*
X160978095Y-99280057D01*
X160978095Y-99280057D02*
X160930476Y-99375295D01*
X160930476Y-99375295D02*
X160930476Y-99470533D01*
X160930476Y-99470533D02*
X160978095Y-99613390D01*
X160978095Y-99613390D02*
X161549523Y-100184819D01*
X161549523Y-100184819D02*
X160930476Y-100184819D01*
X160311428Y-99184819D02*
X160216190Y-99184819D01*
X160216190Y-99184819D02*
X160120952Y-99232438D01*
X160120952Y-99232438D02*
X160073333Y-99280057D01*
X160073333Y-99280057D02*
X160025714Y-99375295D01*
X160025714Y-99375295D02*
X159978095Y-99565771D01*
X159978095Y-99565771D02*
X159978095Y-99803866D01*
X159978095Y-99803866D02*
X160025714Y-99994342D01*
X160025714Y-99994342D02*
X160073333Y-100089580D01*
X160073333Y-100089580D02*
X160120952Y-100137200D01*
X160120952Y-100137200D02*
X160216190Y-100184819D01*
X160216190Y-100184819D02*
X160311428Y-100184819D01*
X160311428Y-100184819D02*
X160406666Y-100137200D01*
X160406666Y-100137200D02*
X160454285Y-100089580D01*
X160454285Y-100089580D02*
X160501904Y-99994342D01*
X160501904Y-99994342D02*
X160549523Y-99803866D01*
X160549523Y-99803866D02*
X160549523Y-99565771D01*
X160549523Y-99565771D02*
X160501904Y-99375295D01*
X160501904Y-99375295D02*
X160454285Y-99280057D01*
X160454285Y-99280057D02*
X160406666Y-99232438D01*
X160406666Y-99232438D02*
X160311428Y-99184819D01*
X150074285Y-76762295D02*
X150340952Y-76381342D01*
X150531428Y-76762295D02*
X150531428Y-75962295D01*
X150531428Y-75962295D02*
X150226666Y-75962295D01*
X150226666Y-75962295D02*
X150150476Y-76000390D01*
X150150476Y-76000390D02*
X150112381Y-76038485D01*
X150112381Y-76038485D02*
X150074285Y-76114676D01*
X150074285Y-76114676D02*
X150074285Y-76228961D01*
X150074285Y-76228961D02*
X150112381Y-76305152D01*
X150112381Y-76305152D02*
X150150476Y-76343247D01*
X150150476Y-76343247D02*
X150226666Y-76381342D01*
X150226666Y-76381342D02*
X150531428Y-76381342D01*
X149312381Y-76762295D02*
X149769524Y-76762295D01*
X149540952Y-76762295D02*
X149540952Y-75962295D01*
X149540952Y-75962295D02*
X149617143Y-76076580D01*
X149617143Y-76076580D02*
X149693333Y-76152771D01*
X149693333Y-76152771D02*
X149769524Y-76190866D01*
X148626666Y-76228961D02*
X148626666Y-76762295D01*
X148817142Y-75924200D02*
X149007619Y-76495628D01*
X149007619Y-76495628D02*
X148512380Y-76495628D01*
X172056666Y-99394819D02*
X172389999Y-98918628D01*
X172628094Y-99394819D02*
X172628094Y-98394819D01*
X172628094Y-98394819D02*
X172247142Y-98394819D01*
X172247142Y-98394819D02*
X172151904Y-98442438D01*
X172151904Y-98442438D02*
X172104285Y-98490057D01*
X172104285Y-98490057D02*
X172056666Y-98585295D01*
X172056666Y-98585295D02*
X172056666Y-98728152D01*
X172056666Y-98728152D02*
X172104285Y-98823390D01*
X172104285Y-98823390D02*
X172151904Y-98871009D01*
X172151904Y-98871009D02*
X172247142Y-98918628D01*
X172247142Y-98918628D02*
X172628094Y-98918628D01*
X171675713Y-98490057D02*
X171628094Y-98442438D01*
X171628094Y-98442438D02*
X171532856Y-98394819D01*
X171532856Y-98394819D02*
X171294761Y-98394819D01*
X171294761Y-98394819D02*
X171199523Y-98442438D01*
X171199523Y-98442438D02*
X171151904Y-98490057D01*
X171151904Y-98490057D02*
X171104285Y-98585295D01*
X171104285Y-98585295D02*
X171104285Y-98680533D01*
X171104285Y-98680533D02*
X171151904Y-98823390D01*
X171151904Y-98823390D02*
X171723332Y-99394819D01*
X171723332Y-99394819D02*
X171104285Y-99394819D01*
X164366666Y-101649580D02*
X164414285Y-101697200D01*
X164414285Y-101697200D02*
X164557142Y-101744819D01*
X164557142Y-101744819D02*
X164652380Y-101744819D01*
X164652380Y-101744819D02*
X164795237Y-101697200D01*
X164795237Y-101697200D02*
X164890475Y-101601961D01*
X164890475Y-101601961D02*
X164938094Y-101506723D01*
X164938094Y-101506723D02*
X164985713Y-101316247D01*
X164985713Y-101316247D02*
X164985713Y-101173390D01*
X164985713Y-101173390D02*
X164938094Y-100982914D01*
X164938094Y-100982914D02*
X164890475Y-100887676D01*
X164890475Y-100887676D02*
X164795237Y-100792438D01*
X164795237Y-100792438D02*
X164652380Y-100744819D01*
X164652380Y-100744819D02*
X164557142Y-100744819D01*
X164557142Y-100744819D02*
X164414285Y-100792438D01*
X164414285Y-100792438D02*
X164366666Y-100840057D01*
X163890475Y-101744819D02*
X163699999Y-101744819D01*
X163699999Y-101744819D02*
X163604761Y-101697200D01*
X163604761Y-101697200D02*
X163557142Y-101649580D01*
X163557142Y-101649580D02*
X163461904Y-101506723D01*
X163461904Y-101506723D02*
X163414285Y-101316247D01*
X163414285Y-101316247D02*
X163414285Y-100935295D01*
X163414285Y-100935295D02*
X163461904Y-100840057D01*
X163461904Y-100840057D02*
X163509523Y-100792438D01*
X163509523Y-100792438D02*
X163604761Y-100744819D01*
X163604761Y-100744819D02*
X163795237Y-100744819D01*
X163795237Y-100744819D02*
X163890475Y-100792438D01*
X163890475Y-100792438D02*
X163938094Y-100840057D01*
X163938094Y-100840057D02*
X163985713Y-100935295D01*
X163985713Y-100935295D02*
X163985713Y-101173390D01*
X163985713Y-101173390D02*
X163938094Y-101268628D01*
X163938094Y-101268628D02*
X163890475Y-101316247D01*
X163890475Y-101316247D02*
X163795237Y-101363866D01*
X163795237Y-101363866D02*
X163604761Y-101363866D01*
X163604761Y-101363866D02*
X163509523Y-101316247D01*
X163509523Y-101316247D02*
X163461904Y-101268628D01*
X163461904Y-101268628D02*
X163414285Y-101173390D01*
X129871904Y-110734819D02*
X129871904Y-111544342D01*
X129871904Y-111544342D02*
X129824285Y-111639580D01*
X129824285Y-111639580D02*
X129776666Y-111687200D01*
X129776666Y-111687200D02*
X129681428Y-111734819D01*
X129681428Y-111734819D02*
X129490952Y-111734819D01*
X129490952Y-111734819D02*
X129395714Y-111687200D01*
X129395714Y-111687200D02*
X129348095Y-111639580D01*
X129348095Y-111639580D02*
X129300476Y-111544342D01*
X129300476Y-111544342D02*
X129300476Y-110734819D01*
X128395714Y-110734819D02*
X128586190Y-110734819D01*
X128586190Y-110734819D02*
X128681428Y-110782438D01*
X128681428Y-110782438D02*
X128729047Y-110830057D01*
X128729047Y-110830057D02*
X128824285Y-110972914D01*
X128824285Y-110972914D02*
X128871904Y-111163390D01*
X128871904Y-111163390D02*
X128871904Y-111544342D01*
X128871904Y-111544342D02*
X128824285Y-111639580D01*
X128824285Y-111639580D02*
X128776666Y-111687200D01*
X128776666Y-111687200D02*
X128681428Y-111734819D01*
X128681428Y-111734819D02*
X128490952Y-111734819D01*
X128490952Y-111734819D02*
X128395714Y-111687200D01*
X128395714Y-111687200D02*
X128348095Y-111639580D01*
X128348095Y-111639580D02*
X128300476Y-111544342D01*
X128300476Y-111544342D02*
X128300476Y-111306247D01*
X128300476Y-111306247D02*
X128348095Y-111211009D01*
X128348095Y-111211009D02*
X128395714Y-111163390D01*
X128395714Y-111163390D02*
X128490952Y-111115771D01*
X128490952Y-111115771D02*
X128681428Y-111115771D01*
X128681428Y-111115771D02*
X128776666Y-111163390D01*
X128776666Y-111163390D02*
X128824285Y-111211009D01*
X128824285Y-111211009D02*
X128871904Y-111306247D01*
X120862857Y-101449580D02*
X120910476Y-101497200D01*
X120910476Y-101497200D02*
X121053333Y-101544819D01*
X121053333Y-101544819D02*
X121148571Y-101544819D01*
X121148571Y-101544819D02*
X121291428Y-101497200D01*
X121291428Y-101497200D02*
X121386666Y-101401961D01*
X121386666Y-101401961D02*
X121434285Y-101306723D01*
X121434285Y-101306723D02*
X121481904Y-101116247D01*
X121481904Y-101116247D02*
X121481904Y-100973390D01*
X121481904Y-100973390D02*
X121434285Y-100782914D01*
X121434285Y-100782914D02*
X121386666Y-100687676D01*
X121386666Y-100687676D02*
X121291428Y-100592438D01*
X121291428Y-100592438D02*
X121148571Y-100544819D01*
X121148571Y-100544819D02*
X121053333Y-100544819D01*
X121053333Y-100544819D02*
X120910476Y-100592438D01*
X120910476Y-100592438D02*
X120862857Y-100640057D01*
X119910476Y-101544819D02*
X120481904Y-101544819D01*
X120196190Y-101544819D02*
X120196190Y-100544819D01*
X120196190Y-100544819D02*
X120291428Y-100687676D01*
X120291428Y-100687676D02*
X120386666Y-100782914D01*
X120386666Y-100782914D02*
X120481904Y-100830533D01*
X119434285Y-101544819D02*
X119243809Y-101544819D01*
X119243809Y-101544819D02*
X119148571Y-101497200D01*
X119148571Y-101497200D02*
X119100952Y-101449580D01*
X119100952Y-101449580D02*
X119005714Y-101306723D01*
X119005714Y-101306723D02*
X118958095Y-101116247D01*
X118958095Y-101116247D02*
X118958095Y-100735295D01*
X118958095Y-100735295D02*
X119005714Y-100640057D01*
X119005714Y-100640057D02*
X119053333Y-100592438D01*
X119053333Y-100592438D02*
X119148571Y-100544819D01*
X119148571Y-100544819D02*
X119339047Y-100544819D01*
X119339047Y-100544819D02*
X119434285Y-100592438D01*
X119434285Y-100592438D02*
X119481904Y-100640057D01*
X119481904Y-100640057D02*
X119529523Y-100735295D01*
X119529523Y-100735295D02*
X119529523Y-100973390D01*
X119529523Y-100973390D02*
X119481904Y-101068628D01*
X119481904Y-101068628D02*
X119434285Y-101116247D01*
X119434285Y-101116247D02*
X119339047Y-101163866D01*
X119339047Y-101163866D02*
X119148571Y-101163866D01*
X119148571Y-101163866D02*
X119053333Y-101116247D01*
X119053333Y-101116247D02*
X119005714Y-101068628D01*
X119005714Y-101068628D02*
X118958095Y-100973390D01*
X147999523Y-75882295D02*
X147999523Y-76529914D01*
X147999523Y-76529914D02*
X147961428Y-76606104D01*
X147961428Y-76606104D02*
X147923333Y-76644200D01*
X147923333Y-76644200D02*
X147847142Y-76682295D01*
X147847142Y-76682295D02*
X147694761Y-76682295D01*
X147694761Y-76682295D02*
X147618571Y-76644200D01*
X147618571Y-76644200D02*
X147580476Y-76606104D01*
X147580476Y-76606104D02*
X147542380Y-76529914D01*
X147542380Y-76529914D02*
X147542380Y-75882295D01*
X147047143Y-76225152D02*
X147123333Y-76187057D01*
X147123333Y-76187057D02*
X147161428Y-76148961D01*
X147161428Y-76148961D02*
X147199524Y-76072771D01*
X147199524Y-76072771D02*
X147199524Y-76034676D01*
X147199524Y-76034676D02*
X147161428Y-75958485D01*
X147161428Y-75958485D02*
X147123333Y-75920390D01*
X147123333Y-75920390D02*
X147047143Y-75882295D01*
X147047143Y-75882295D02*
X146894762Y-75882295D01*
X146894762Y-75882295D02*
X146818571Y-75920390D01*
X146818571Y-75920390D02*
X146780476Y-75958485D01*
X146780476Y-75958485D02*
X146742381Y-76034676D01*
X146742381Y-76034676D02*
X146742381Y-76072771D01*
X146742381Y-76072771D02*
X146780476Y-76148961D01*
X146780476Y-76148961D02*
X146818571Y-76187057D01*
X146818571Y-76187057D02*
X146894762Y-76225152D01*
X146894762Y-76225152D02*
X147047143Y-76225152D01*
X147047143Y-76225152D02*
X147123333Y-76263247D01*
X147123333Y-76263247D02*
X147161428Y-76301342D01*
X147161428Y-76301342D02*
X147199524Y-76377533D01*
X147199524Y-76377533D02*
X147199524Y-76529914D01*
X147199524Y-76529914D02*
X147161428Y-76606104D01*
X147161428Y-76606104D02*
X147123333Y-76644200D01*
X147123333Y-76644200D02*
X147047143Y-76682295D01*
X147047143Y-76682295D02*
X146894762Y-76682295D01*
X146894762Y-76682295D02*
X146818571Y-76644200D01*
X146818571Y-76644200D02*
X146780476Y-76606104D01*
X146780476Y-76606104D02*
X146742381Y-76529914D01*
X146742381Y-76529914D02*
X146742381Y-76377533D01*
X146742381Y-76377533D02*
X146780476Y-76301342D01*
X146780476Y-76301342D02*
X146818571Y-76263247D01*
X146818571Y-76263247D02*
X146894762Y-76225152D01*
X162962857Y-73559580D02*
X163010476Y-73607200D01*
X163010476Y-73607200D02*
X163153333Y-73654819D01*
X163153333Y-73654819D02*
X163248571Y-73654819D01*
X163248571Y-73654819D02*
X163391428Y-73607200D01*
X163391428Y-73607200D02*
X163486666Y-73511961D01*
X163486666Y-73511961D02*
X163534285Y-73416723D01*
X163534285Y-73416723D02*
X163581904Y-73226247D01*
X163581904Y-73226247D02*
X163581904Y-73083390D01*
X163581904Y-73083390D02*
X163534285Y-72892914D01*
X163534285Y-72892914D02*
X163486666Y-72797676D01*
X163486666Y-72797676D02*
X163391428Y-72702438D01*
X163391428Y-72702438D02*
X163248571Y-72654819D01*
X163248571Y-72654819D02*
X163153333Y-72654819D01*
X163153333Y-72654819D02*
X163010476Y-72702438D01*
X163010476Y-72702438D02*
X162962857Y-72750057D01*
X162581904Y-72750057D02*
X162534285Y-72702438D01*
X162534285Y-72702438D02*
X162439047Y-72654819D01*
X162439047Y-72654819D02*
X162200952Y-72654819D01*
X162200952Y-72654819D02*
X162105714Y-72702438D01*
X162105714Y-72702438D02*
X162058095Y-72750057D01*
X162058095Y-72750057D02*
X162010476Y-72845295D01*
X162010476Y-72845295D02*
X162010476Y-72940533D01*
X162010476Y-72940533D02*
X162058095Y-73083390D01*
X162058095Y-73083390D02*
X162629523Y-73654819D01*
X162629523Y-73654819D02*
X162010476Y-73654819D01*
X161153333Y-72988152D02*
X161153333Y-73654819D01*
X161391428Y-72607200D02*
X161629523Y-73321485D01*
X161629523Y-73321485D02*
X161010476Y-73321485D01*
X117032857Y-104614819D02*
X117366190Y-104138628D01*
X117604285Y-104614819D02*
X117604285Y-103614819D01*
X117604285Y-103614819D02*
X117223333Y-103614819D01*
X117223333Y-103614819D02*
X117128095Y-103662438D01*
X117128095Y-103662438D02*
X117080476Y-103710057D01*
X117080476Y-103710057D02*
X117032857Y-103805295D01*
X117032857Y-103805295D02*
X117032857Y-103948152D01*
X117032857Y-103948152D02*
X117080476Y-104043390D01*
X117080476Y-104043390D02*
X117128095Y-104091009D01*
X117128095Y-104091009D02*
X117223333Y-104138628D01*
X117223333Y-104138628D02*
X117604285Y-104138628D01*
X116128095Y-103614819D02*
X116604285Y-103614819D01*
X116604285Y-103614819D02*
X116651904Y-104091009D01*
X116651904Y-104091009D02*
X116604285Y-104043390D01*
X116604285Y-104043390D02*
X116509047Y-103995771D01*
X116509047Y-103995771D02*
X116270952Y-103995771D01*
X116270952Y-103995771D02*
X116175714Y-104043390D01*
X116175714Y-104043390D02*
X116128095Y-104091009D01*
X116128095Y-104091009D02*
X116080476Y-104186247D01*
X116080476Y-104186247D02*
X116080476Y-104424342D01*
X116080476Y-104424342D02*
X116128095Y-104519580D01*
X116128095Y-104519580D02*
X116175714Y-104567200D01*
X116175714Y-104567200D02*
X116270952Y-104614819D01*
X116270952Y-104614819D02*
X116509047Y-104614819D01*
X116509047Y-104614819D02*
X116604285Y-104567200D01*
X116604285Y-104567200D02*
X116651904Y-104519580D01*
X115604285Y-104614819D02*
X115413809Y-104614819D01*
X115413809Y-104614819D02*
X115318571Y-104567200D01*
X115318571Y-104567200D02*
X115270952Y-104519580D01*
X115270952Y-104519580D02*
X115175714Y-104376723D01*
X115175714Y-104376723D02*
X115128095Y-104186247D01*
X115128095Y-104186247D02*
X115128095Y-103805295D01*
X115128095Y-103805295D02*
X115175714Y-103710057D01*
X115175714Y-103710057D02*
X115223333Y-103662438D01*
X115223333Y-103662438D02*
X115318571Y-103614819D01*
X115318571Y-103614819D02*
X115509047Y-103614819D01*
X115509047Y-103614819D02*
X115604285Y-103662438D01*
X115604285Y-103662438D02*
X115651904Y-103710057D01*
X115651904Y-103710057D02*
X115699523Y-103805295D01*
X115699523Y-103805295D02*
X115699523Y-104043390D01*
X115699523Y-104043390D02*
X115651904Y-104138628D01*
X115651904Y-104138628D02*
X115604285Y-104186247D01*
X115604285Y-104186247D02*
X115509047Y-104233866D01*
X115509047Y-104233866D02*
X115318571Y-104233866D01*
X115318571Y-104233866D02*
X115223333Y-104186247D01*
X115223333Y-104186247D02*
X115175714Y-104138628D01*
X115175714Y-104138628D02*
X115128095Y-104043390D01*
X169314819Y-68433333D02*
X168838628Y-68100000D01*
X169314819Y-67861905D02*
X168314819Y-67861905D01*
X168314819Y-67861905D02*
X168314819Y-68242857D01*
X168314819Y-68242857D02*
X168362438Y-68338095D01*
X168362438Y-68338095D02*
X168410057Y-68385714D01*
X168410057Y-68385714D02*
X168505295Y-68433333D01*
X168505295Y-68433333D02*
X168648152Y-68433333D01*
X168648152Y-68433333D02*
X168743390Y-68385714D01*
X168743390Y-68385714D02*
X168791009Y-68338095D01*
X168791009Y-68338095D02*
X168838628Y-68242857D01*
X168838628Y-68242857D02*
X168838628Y-67861905D01*
X168314819Y-69290476D02*
X168314819Y-69100000D01*
X168314819Y-69100000D02*
X168362438Y-69004762D01*
X168362438Y-69004762D02*
X168410057Y-68957143D01*
X168410057Y-68957143D02*
X168552914Y-68861905D01*
X168552914Y-68861905D02*
X168743390Y-68814286D01*
X168743390Y-68814286D02*
X169124342Y-68814286D01*
X169124342Y-68814286D02*
X169219580Y-68861905D01*
X169219580Y-68861905D02*
X169267200Y-68909524D01*
X169267200Y-68909524D02*
X169314819Y-69004762D01*
X169314819Y-69004762D02*
X169314819Y-69195238D01*
X169314819Y-69195238D02*
X169267200Y-69290476D01*
X169267200Y-69290476D02*
X169219580Y-69338095D01*
X169219580Y-69338095D02*
X169124342Y-69385714D01*
X169124342Y-69385714D02*
X168886247Y-69385714D01*
X168886247Y-69385714D02*
X168791009Y-69338095D01*
X168791009Y-69338095D02*
X168743390Y-69290476D01*
X168743390Y-69290476D02*
X168695771Y-69195238D01*
X168695771Y-69195238D02*
X168695771Y-69004762D01*
X168695771Y-69004762D02*
X168743390Y-68909524D01*
X168743390Y-68909524D02*
X168791009Y-68861905D01*
X168791009Y-68861905D02*
X168886247Y-68814286D01*
X170206666Y-108314819D02*
X170682856Y-108314819D01*
X170682856Y-108314819D02*
X170682856Y-107314819D01*
X169349523Y-108314819D02*
X169920951Y-108314819D01*
X169635237Y-108314819D02*
X169635237Y-107314819D01*
X169635237Y-107314819D02*
X169730475Y-107457676D01*
X169730475Y-107457676D02*
X169825713Y-107552914D01*
X169825713Y-107552914D02*
X169920951Y-107600533D01*
X116612857Y-80644819D02*
X116946190Y-80168628D01*
X117184285Y-80644819D02*
X117184285Y-79644819D01*
X117184285Y-79644819D02*
X116803333Y-79644819D01*
X116803333Y-79644819D02*
X116708095Y-79692438D01*
X116708095Y-79692438D02*
X116660476Y-79740057D01*
X116660476Y-79740057D02*
X116612857Y-79835295D01*
X116612857Y-79835295D02*
X116612857Y-79978152D01*
X116612857Y-79978152D02*
X116660476Y-80073390D01*
X116660476Y-80073390D02*
X116708095Y-80121009D01*
X116708095Y-80121009D02*
X116803333Y-80168628D01*
X116803333Y-80168628D02*
X117184285Y-80168628D01*
X116279523Y-79644819D02*
X115660476Y-79644819D01*
X115660476Y-79644819D02*
X115993809Y-80025771D01*
X115993809Y-80025771D02*
X115850952Y-80025771D01*
X115850952Y-80025771D02*
X115755714Y-80073390D01*
X115755714Y-80073390D02*
X115708095Y-80121009D01*
X115708095Y-80121009D02*
X115660476Y-80216247D01*
X115660476Y-80216247D02*
X115660476Y-80454342D01*
X115660476Y-80454342D02*
X115708095Y-80549580D01*
X115708095Y-80549580D02*
X115755714Y-80597200D01*
X115755714Y-80597200D02*
X115850952Y-80644819D01*
X115850952Y-80644819D02*
X116136666Y-80644819D01*
X116136666Y-80644819D02*
X116231904Y-80597200D01*
X116231904Y-80597200D02*
X116279523Y-80549580D01*
X115041428Y-79644819D02*
X114946190Y-79644819D01*
X114946190Y-79644819D02*
X114850952Y-79692438D01*
X114850952Y-79692438D02*
X114803333Y-79740057D01*
X114803333Y-79740057D02*
X114755714Y-79835295D01*
X114755714Y-79835295D02*
X114708095Y-80025771D01*
X114708095Y-80025771D02*
X114708095Y-80263866D01*
X114708095Y-80263866D02*
X114755714Y-80454342D01*
X114755714Y-80454342D02*
X114803333Y-80549580D01*
X114803333Y-80549580D02*
X114850952Y-80597200D01*
X114850952Y-80597200D02*
X114946190Y-80644819D01*
X114946190Y-80644819D02*
X115041428Y-80644819D01*
X115041428Y-80644819D02*
X115136666Y-80597200D01*
X115136666Y-80597200D02*
X115184285Y-80549580D01*
X115184285Y-80549580D02*
X115231904Y-80454342D01*
X115231904Y-80454342D02*
X115279523Y-80263866D01*
X115279523Y-80263866D02*
X115279523Y-80025771D01*
X115279523Y-80025771D02*
X115231904Y-79835295D01*
X115231904Y-79835295D02*
X115184285Y-79740057D01*
X115184285Y-79740057D02*
X115136666Y-79692438D01*
X115136666Y-79692438D02*
X115041428Y-79644819D01*
X164006666Y-99744819D02*
X164339999Y-99268628D01*
X164578094Y-99744819D02*
X164578094Y-98744819D01*
X164578094Y-98744819D02*
X164197142Y-98744819D01*
X164197142Y-98744819D02*
X164101904Y-98792438D01*
X164101904Y-98792438D02*
X164054285Y-98840057D01*
X164054285Y-98840057D02*
X164006666Y-98935295D01*
X164006666Y-98935295D02*
X164006666Y-99078152D01*
X164006666Y-99078152D02*
X164054285Y-99173390D01*
X164054285Y-99173390D02*
X164101904Y-99221009D01*
X164101904Y-99221009D02*
X164197142Y-99268628D01*
X164197142Y-99268628D02*
X164578094Y-99268628D01*
X163054285Y-99744819D02*
X163625713Y-99744819D01*
X163339999Y-99744819D02*
X163339999Y-98744819D01*
X163339999Y-98744819D02*
X163435237Y-98887676D01*
X163435237Y-98887676D02*
X163530475Y-98982914D01*
X163530475Y-98982914D02*
X163625713Y-99030533D01*
X151920476Y-97184819D02*
X152253809Y-96708628D01*
X152491904Y-97184819D02*
X152491904Y-96184819D01*
X152491904Y-96184819D02*
X152110952Y-96184819D01*
X152110952Y-96184819D02*
X152015714Y-96232438D01*
X152015714Y-96232438D02*
X151968095Y-96280057D01*
X151968095Y-96280057D02*
X151920476Y-96375295D01*
X151920476Y-96375295D02*
X151920476Y-96518152D01*
X151920476Y-96518152D02*
X151968095Y-96613390D01*
X151968095Y-96613390D02*
X152015714Y-96661009D01*
X152015714Y-96661009D02*
X152110952Y-96708628D01*
X152110952Y-96708628D02*
X152491904Y-96708628D01*
X151491904Y-97184819D02*
X151491904Y-96184819D01*
X151491904Y-96184819D02*
X150920476Y-97184819D01*
X150920476Y-97184819D02*
X150920476Y-96184819D01*
X150015714Y-96184819D02*
X150206190Y-96184819D01*
X150206190Y-96184819D02*
X150301428Y-96232438D01*
X150301428Y-96232438D02*
X150349047Y-96280057D01*
X150349047Y-96280057D02*
X150444285Y-96422914D01*
X150444285Y-96422914D02*
X150491904Y-96613390D01*
X150491904Y-96613390D02*
X150491904Y-96994342D01*
X150491904Y-96994342D02*
X150444285Y-97089580D01*
X150444285Y-97089580D02*
X150396666Y-97137200D01*
X150396666Y-97137200D02*
X150301428Y-97184819D01*
X150301428Y-97184819D02*
X150110952Y-97184819D01*
X150110952Y-97184819D02*
X150015714Y-97137200D01*
X150015714Y-97137200D02*
X149968095Y-97089580D01*
X149968095Y-97089580D02*
X149920476Y-96994342D01*
X149920476Y-96994342D02*
X149920476Y-96756247D01*
X149920476Y-96756247D02*
X149968095Y-96661009D01*
X149968095Y-96661009D02*
X150015714Y-96613390D01*
X150015714Y-96613390D02*
X150110952Y-96565771D01*
X150110952Y-96565771D02*
X150301428Y-96565771D01*
X150301428Y-96565771D02*
X150396666Y-96613390D01*
X150396666Y-96613390D02*
X150444285Y-96661009D01*
X150444285Y-96661009D02*
X150491904Y-96756247D01*
X175436666Y-114279580D02*
X175484285Y-114327200D01*
X175484285Y-114327200D02*
X175627142Y-114374819D01*
X175627142Y-114374819D02*
X175722380Y-114374819D01*
X175722380Y-114374819D02*
X175865237Y-114327200D01*
X175865237Y-114327200D02*
X175960475Y-114231961D01*
X175960475Y-114231961D02*
X176008094Y-114136723D01*
X176008094Y-114136723D02*
X176055713Y-113946247D01*
X176055713Y-113946247D02*
X176055713Y-113803390D01*
X176055713Y-113803390D02*
X176008094Y-113612914D01*
X176008094Y-113612914D02*
X175960475Y-113517676D01*
X175960475Y-113517676D02*
X175865237Y-113422438D01*
X175865237Y-113422438D02*
X175722380Y-113374819D01*
X175722380Y-113374819D02*
X175627142Y-113374819D01*
X175627142Y-113374819D02*
X175484285Y-113422438D01*
X175484285Y-113422438D02*
X175436666Y-113470057D01*
X175055713Y-113470057D02*
X175008094Y-113422438D01*
X175008094Y-113422438D02*
X174912856Y-113374819D01*
X174912856Y-113374819D02*
X174674761Y-113374819D01*
X174674761Y-113374819D02*
X174579523Y-113422438D01*
X174579523Y-113422438D02*
X174531904Y-113470057D01*
X174531904Y-113470057D02*
X174484285Y-113565295D01*
X174484285Y-113565295D02*
X174484285Y-113660533D01*
X174484285Y-113660533D02*
X174531904Y-113803390D01*
X174531904Y-113803390D02*
X175103332Y-114374819D01*
X175103332Y-114374819D02*
X174484285Y-114374819D01*
X142950476Y-90194819D02*
X143283809Y-89718628D01*
X143521904Y-90194819D02*
X143521904Y-89194819D01*
X143521904Y-89194819D02*
X143140952Y-89194819D01*
X143140952Y-89194819D02*
X143045714Y-89242438D01*
X143045714Y-89242438D02*
X142998095Y-89290057D01*
X142998095Y-89290057D02*
X142950476Y-89385295D01*
X142950476Y-89385295D02*
X142950476Y-89528152D01*
X142950476Y-89528152D02*
X142998095Y-89623390D01*
X142998095Y-89623390D02*
X143045714Y-89671009D01*
X143045714Y-89671009D02*
X143140952Y-89718628D01*
X143140952Y-89718628D02*
X143521904Y-89718628D01*
X142521904Y-90194819D02*
X142521904Y-89194819D01*
X142521904Y-89194819D02*
X141950476Y-90194819D01*
X141950476Y-90194819D02*
X141950476Y-89194819D01*
X141521904Y-89290057D02*
X141474285Y-89242438D01*
X141474285Y-89242438D02*
X141379047Y-89194819D01*
X141379047Y-89194819D02*
X141140952Y-89194819D01*
X141140952Y-89194819D02*
X141045714Y-89242438D01*
X141045714Y-89242438D02*
X140998095Y-89290057D01*
X140998095Y-89290057D02*
X140950476Y-89385295D01*
X140950476Y-89385295D02*
X140950476Y-89480533D01*
X140950476Y-89480533D02*
X140998095Y-89623390D01*
X140998095Y-89623390D02*
X141569523Y-90194819D01*
X141569523Y-90194819D02*
X140950476Y-90194819D01*
X117032857Y-108164819D02*
X117366190Y-107688628D01*
X117604285Y-108164819D02*
X117604285Y-107164819D01*
X117604285Y-107164819D02*
X117223333Y-107164819D01*
X117223333Y-107164819D02*
X117128095Y-107212438D01*
X117128095Y-107212438D02*
X117080476Y-107260057D01*
X117080476Y-107260057D02*
X117032857Y-107355295D01*
X117032857Y-107355295D02*
X117032857Y-107498152D01*
X117032857Y-107498152D02*
X117080476Y-107593390D01*
X117080476Y-107593390D02*
X117128095Y-107641009D01*
X117128095Y-107641009D02*
X117223333Y-107688628D01*
X117223333Y-107688628D02*
X117604285Y-107688628D01*
X116175714Y-107164819D02*
X116366190Y-107164819D01*
X116366190Y-107164819D02*
X116461428Y-107212438D01*
X116461428Y-107212438D02*
X116509047Y-107260057D01*
X116509047Y-107260057D02*
X116604285Y-107402914D01*
X116604285Y-107402914D02*
X116651904Y-107593390D01*
X116651904Y-107593390D02*
X116651904Y-107974342D01*
X116651904Y-107974342D02*
X116604285Y-108069580D01*
X116604285Y-108069580D02*
X116556666Y-108117200D01*
X116556666Y-108117200D02*
X116461428Y-108164819D01*
X116461428Y-108164819D02*
X116270952Y-108164819D01*
X116270952Y-108164819D02*
X116175714Y-108117200D01*
X116175714Y-108117200D02*
X116128095Y-108069580D01*
X116128095Y-108069580D02*
X116080476Y-107974342D01*
X116080476Y-107974342D02*
X116080476Y-107736247D01*
X116080476Y-107736247D02*
X116128095Y-107641009D01*
X116128095Y-107641009D02*
X116175714Y-107593390D01*
X116175714Y-107593390D02*
X116270952Y-107545771D01*
X116270952Y-107545771D02*
X116461428Y-107545771D01*
X116461428Y-107545771D02*
X116556666Y-107593390D01*
X116556666Y-107593390D02*
X116604285Y-107641009D01*
X116604285Y-107641009D02*
X116651904Y-107736247D01*
X115699523Y-107260057D02*
X115651904Y-107212438D01*
X115651904Y-107212438D02*
X115556666Y-107164819D01*
X115556666Y-107164819D02*
X115318571Y-107164819D01*
X115318571Y-107164819D02*
X115223333Y-107212438D01*
X115223333Y-107212438D02*
X115175714Y-107260057D01*
X115175714Y-107260057D02*
X115128095Y-107355295D01*
X115128095Y-107355295D02*
X115128095Y-107450533D01*
X115128095Y-107450533D02*
X115175714Y-107593390D01*
X115175714Y-107593390D02*
X115747142Y-108164819D01*
X115747142Y-108164819D02*
X115128095Y-108164819D01*
X128682857Y-82569580D02*
X128730476Y-82617200D01*
X128730476Y-82617200D02*
X128873333Y-82664819D01*
X128873333Y-82664819D02*
X128968571Y-82664819D01*
X128968571Y-82664819D02*
X129111428Y-82617200D01*
X129111428Y-82617200D02*
X129206666Y-82521961D01*
X129206666Y-82521961D02*
X129254285Y-82426723D01*
X129254285Y-82426723D02*
X129301904Y-82236247D01*
X129301904Y-82236247D02*
X129301904Y-82093390D01*
X129301904Y-82093390D02*
X129254285Y-81902914D01*
X129254285Y-81902914D02*
X129206666Y-81807676D01*
X129206666Y-81807676D02*
X129111428Y-81712438D01*
X129111428Y-81712438D02*
X128968571Y-81664819D01*
X128968571Y-81664819D02*
X128873333Y-81664819D01*
X128873333Y-81664819D02*
X128730476Y-81712438D01*
X128730476Y-81712438D02*
X128682857Y-81760057D01*
X128349523Y-81664819D02*
X127730476Y-81664819D01*
X127730476Y-81664819D02*
X128063809Y-82045771D01*
X128063809Y-82045771D02*
X127920952Y-82045771D01*
X127920952Y-82045771D02*
X127825714Y-82093390D01*
X127825714Y-82093390D02*
X127778095Y-82141009D01*
X127778095Y-82141009D02*
X127730476Y-82236247D01*
X127730476Y-82236247D02*
X127730476Y-82474342D01*
X127730476Y-82474342D02*
X127778095Y-82569580D01*
X127778095Y-82569580D02*
X127825714Y-82617200D01*
X127825714Y-82617200D02*
X127920952Y-82664819D01*
X127920952Y-82664819D02*
X128206666Y-82664819D01*
X128206666Y-82664819D02*
X128301904Y-82617200D01*
X128301904Y-82617200D02*
X128349523Y-82569580D01*
X127349523Y-81760057D02*
X127301904Y-81712438D01*
X127301904Y-81712438D02*
X127206666Y-81664819D01*
X127206666Y-81664819D02*
X126968571Y-81664819D01*
X126968571Y-81664819D02*
X126873333Y-81712438D01*
X126873333Y-81712438D02*
X126825714Y-81760057D01*
X126825714Y-81760057D02*
X126778095Y-81855295D01*
X126778095Y-81855295D02*
X126778095Y-81950533D01*
X126778095Y-81950533D02*
X126825714Y-82093390D01*
X126825714Y-82093390D02*
X127397142Y-82664819D01*
X127397142Y-82664819D02*
X126778095Y-82664819D01*
X116340357Y-74627319D02*
X116673690Y-74151128D01*
X116911785Y-74627319D02*
X116911785Y-73627319D01*
X116911785Y-73627319D02*
X116530833Y-73627319D01*
X116530833Y-73627319D02*
X116435595Y-73674938D01*
X116435595Y-73674938D02*
X116387976Y-73722557D01*
X116387976Y-73722557D02*
X116340357Y-73817795D01*
X116340357Y-73817795D02*
X116340357Y-73960652D01*
X116340357Y-73960652D02*
X116387976Y-74055890D01*
X116387976Y-74055890D02*
X116435595Y-74103509D01*
X116435595Y-74103509D02*
X116530833Y-74151128D01*
X116530833Y-74151128D02*
X116911785Y-74151128D01*
X115959404Y-73722557D02*
X115911785Y-73674938D01*
X115911785Y-73674938D02*
X115816547Y-73627319D01*
X115816547Y-73627319D02*
X115578452Y-73627319D01*
X115578452Y-73627319D02*
X115483214Y-73674938D01*
X115483214Y-73674938D02*
X115435595Y-73722557D01*
X115435595Y-73722557D02*
X115387976Y-73817795D01*
X115387976Y-73817795D02*
X115387976Y-73913033D01*
X115387976Y-73913033D02*
X115435595Y-74055890D01*
X115435595Y-74055890D02*
X116007023Y-74627319D01*
X116007023Y-74627319D02*
X115387976Y-74627319D01*
X114911785Y-74627319D02*
X114721309Y-74627319D01*
X114721309Y-74627319D02*
X114626071Y-74579700D01*
X114626071Y-74579700D02*
X114578452Y-74532080D01*
X114578452Y-74532080D02*
X114483214Y-74389223D01*
X114483214Y-74389223D02*
X114435595Y-74198747D01*
X114435595Y-74198747D02*
X114435595Y-73817795D01*
X114435595Y-73817795D02*
X114483214Y-73722557D01*
X114483214Y-73722557D02*
X114530833Y-73674938D01*
X114530833Y-73674938D02*
X114626071Y-73627319D01*
X114626071Y-73627319D02*
X114816547Y-73627319D01*
X114816547Y-73627319D02*
X114911785Y-73674938D01*
X114911785Y-73674938D02*
X114959404Y-73722557D01*
X114959404Y-73722557D02*
X115007023Y-73817795D01*
X115007023Y-73817795D02*
X115007023Y-74055890D01*
X115007023Y-74055890D02*
X114959404Y-74151128D01*
X114959404Y-74151128D02*
X114911785Y-74198747D01*
X114911785Y-74198747D02*
X114816547Y-74246366D01*
X114816547Y-74246366D02*
X114626071Y-74246366D01*
X114626071Y-74246366D02*
X114530833Y-74198747D01*
X114530833Y-74198747D02*
X114483214Y-74151128D01*
X114483214Y-74151128D02*
X114435595Y-74055890D01*
X136632857Y-102199580D02*
X136680476Y-102247200D01*
X136680476Y-102247200D02*
X136823333Y-102294819D01*
X136823333Y-102294819D02*
X136918571Y-102294819D01*
X136918571Y-102294819D02*
X137061428Y-102247200D01*
X137061428Y-102247200D02*
X137156666Y-102151961D01*
X137156666Y-102151961D02*
X137204285Y-102056723D01*
X137204285Y-102056723D02*
X137251904Y-101866247D01*
X137251904Y-101866247D02*
X137251904Y-101723390D01*
X137251904Y-101723390D02*
X137204285Y-101532914D01*
X137204285Y-101532914D02*
X137156666Y-101437676D01*
X137156666Y-101437676D02*
X137061428Y-101342438D01*
X137061428Y-101342438D02*
X136918571Y-101294819D01*
X136918571Y-101294819D02*
X136823333Y-101294819D01*
X136823333Y-101294819D02*
X136680476Y-101342438D01*
X136680476Y-101342438D02*
X136632857Y-101390057D01*
X136251904Y-101390057D02*
X136204285Y-101342438D01*
X136204285Y-101342438D02*
X136109047Y-101294819D01*
X136109047Y-101294819D02*
X135870952Y-101294819D01*
X135870952Y-101294819D02*
X135775714Y-101342438D01*
X135775714Y-101342438D02*
X135728095Y-101390057D01*
X135728095Y-101390057D02*
X135680476Y-101485295D01*
X135680476Y-101485295D02*
X135680476Y-101580533D01*
X135680476Y-101580533D02*
X135728095Y-101723390D01*
X135728095Y-101723390D02*
X136299523Y-102294819D01*
X136299523Y-102294819D02*
X135680476Y-102294819D01*
X135299523Y-101390057D02*
X135251904Y-101342438D01*
X135251904Y-101342438D02*
X135156666Y-101294819D01*
X135156666Y-101294819D02*
X134918571Y-101294819D01*
X134918571Y-101294819D02*
X134823333Y-101342438D01*
X134823333Y-101342438D02*
X134775714Y-101390057D01*
X134775714Y-101390057D02*
X134728095Y-101485295D01*
X134728095Y-101485295D02*
X134728095Y-101580533D01*
X134728095Y-101580533D02*
X134775714Y-101723390D01*
X134775714Y-101723390D02*
X135347142Y-102294819D01*
X135347142Y-102294819D02*
X134728095Y-102294819D01*
X120592857Y-80369580D02*
X120640476Y-80417200D01*
X120640476Y-80417200D02*
X120783333Y-80464819D01*
X120783333Y-80464819D02*
X120878571Y-80464819D01*
X120878571Y-80464819D02*
X121021428Y-80417200D01*
X121021428Y-80417200D02*
X121116666Y-80321961D01*
X121116666Y-80321961D02*
X121164285Y-80226723D01*
X121164285Y-80226723D02*
X121211904Y-80036247D01*
X121211904Y-80036247D02*
X121211904Y-79893390D01*
X121211904Y-79893390D02*
X121164285Y-79702914D01*
X121164285Y-79702914D02*
X121116666Y-79607676D01*
X121116666Y-79607676D02*
X121021428Y-79512438D01*
X121021428Y-79512438D02*
X120878571Y-79464819D01*
X120878571Y-79464819D02*
X120783333Y-79464819D01*
X120783333Y-79464819D02*
X120640476Y-79512438D01*
X120640476Y-79512438D02*
X120592857Y-79560057D01*
X120259523Y-79464819D02*
X119640476Y-79464819D01*
X119640476Y-79464819D02*
X119973809Y-79845771D01*
X119973809Y-79845771D02*
X119830952Y-79845771D01*
X119830952Y-79845771D02*
X119735714Y-79893390D01*
X119735714Y-79893390D02*
X119688095Y-79941009D01*
X119688095Y-79941009D02*
X119640476Y-80036247D01*
X119640476Y-80036247D02*
X119640476Y-80274342D01*
X119640476Y-80274342D02*
X119688095Y-80369580D01*
X119688095Y-80369580D02*
X119735714Y-80417200D01*
X119735714Y-80417200D02*
X119830952Y-80464819D01*
X119830952Y-80464819D02*
X120116666Y-80464819D01*
X120116666Y-80464819D02*
X120211904Y-80417200D01*
X120211904Y-80417200D02*
X120259523Y-80369580D01*
X118735714Y-79464819D02*
X119211904Y-79464819D01*
X119211904Y-79464819D02*
X119259523Y-79941009D01*
X119259523Y-79941009D02*
X119211904Y-79893390D01*
X119211904Y-79893390D02*
X119116666Y-79845771D01*
X119116666Y-79845771D02*
X118878571Y-79845771D01*
X118878571Y-79845771D02*
X118783333Y-79893390D01*
X118783333Y-79893390D02*
X118735714Y-79941009D01*
X118735714Y-79941009D02*
X118688095Y-80036247D01*
X118688095Y-80036247D02*
X118688095Y-80274342D01*
X118688095Y-80274342D02*
X118735714Y-80369580D01*
X118735714Y-80369580D02*
X118783333Y-80417200D01*
X118783333Y-80417200D02*
X118878571Y-80464819D01*
X118878571Y-80464819D02*
X119116666Y-80464819D01*
X119116666Y-80464819D02*
X119211904Y-80417200D01*
X119211904Y-80417200D02*
X119259523Y-80369580D01*
X124601904Y-76454819D02*
X124601904Y-77264342D01*
X124601904Y-77264342D02*
X124554285Y-77359580D01*
X124554285Y-77359580D02*
X124506666Y-77407200D01*
X124506666Y-77407200D02*
X124411428Y-77454819D01*
X124411428Y-77454819D02*
X124220952Y-77454819D01*
X124220952Y-77454819D02*
X124125714Y-77407200D01*
X124125714Y-77407200D02*
X124078095Y-77359580D01*
X124078095Y-77359580D02*
X124030476Y-77264342D01*
X124030476Y-77264342D02*
X124030476Y-76454819D01*
X123506666Y-77454819D02*
X123316190Y-77454819D01*
X123316190Y-77454819D02*
X123220952Y-77407200D01*
X123220952Y-77407200D02*
X123173333Y-77359580D01*
X123173333Y-77359580D02*
X123078095Y-77216723D01*
X123078095Y-77216723D02*
X123030476Y-77026247D01*
X123030476Y-77026247D02*
X123030476Y-76645295D01*
X123030476Y-76645295D02*
X123078095Y-76550057D01*
X123078095Y-76550057D02*
X123125714Y-76502438D01*
X123125714Y-76502438D02*
X123220952Y-76454819D01*
X123220952Y-76454819D02*
X123411428Y-76454819D01*
X123411428Y-76454819D02*
X123506666Y-76502438D01*
X123506666Y-76502438D02*
X123554285Y-76550057D01*
X123554285Y-76550057D02*
X123601904Y-76645295D01*
X123601904Y-76645295D02*
X123601904Y-76883390D01*
X123601904Y-76883390D02*
X123554285Y-76978628D01*
X123554285Y-76978628D02*
X123506666Y-77026247D01*
X123506666Y-77026247D02*
X123411428Y-77073866D01*
X123411428Y-77073866D02*
X123220952Y-77073866D01*
X123220952Y-77073866D02*
X123125714Y-77026247D01*
X123125714Y-77026247D02*
X123078095Y-76978628D01*
X123078095Y-76978628D02*
X123030476Y-76883390D01*
X127282857Y-94099580D02*
X127330476Y-94147200D01*
X127330476Y-94147200D02*
X127473333Y-94194819D01*
X127473333Y-94194819D02*
X127568571Y-94194819D01*
X127568571Y-94194819D02*
X127711428Y-94147200D01*
X127711428Y-94147200D02*
X127806666Y-94051961D01*
X127806666Y-94051961D02*
X127854285Y-93956723D01*
X127854285Y-93956723D02*
X127901904Y-93766247D01*
X127901904Y-93766247D02*
X127901904Y-93623390D01*
X127901904Y-93623390D02*
X127854285Y-93432914D01*
X127854285Y-93432914D02*
X127806666Y-93337676D01*
X127806666Y-93337676D02*
X127711428Y-93242438D01*
X127711428Y-93242438D02*
X127568571Y-93194819D01*
X127568571Y-93194819D02*
X127473333Y-93194819D01*
X127473333Y-93194819D02*
X127330476Y-93242438D01*
X127330476Y-93242438D02*
X127282857Y-93290057D01*
X126949523Y-93194819D02*
X126330476Y-93194819D01*
X126330476Y-93194819D02*
X126663809Y-93575771D01*
X126663809Y-93575771D02*
X126520952Y-93575771D01*
X126520952Y-93575771D02*
X126425714Y-93623390D01*
X126425714Y-93623390D02*
X126378095Y-93671009D01*
X126378095Y-93671009D02*
X126330476Y-93766247D01*
X126330476Y-93766247D02*
X126330476Y-94004342D01*
X126330476Y-94004342D02*
X126378095Y-94099580D01*
X126378095Y-94099580D02*
X126425714Y-94147200D01*
X126425714Y-94147200D02*
X126520952Y-94194819D01*
X126520952Y-94194819D02*
X126806666Y-94194819D01*
X126806666Y-94194819D02*
X126901904Y-94147200D01*
X126901904Y-94147200D02*
X126949523Y-94099580D01*
X125473333Y-93194819D02*
X125663809Y-93194819D01*
X125663809Y-93194819D02*
X125759047Y-93242438D01*
X125759047Y-93242438D02*
X125806666Y-93290057D01*
X125806666Y-93290057D02*
X125901904Y-93432914D01*
X125901904Y-93432914D02*
X125949523Y-93623390D01*
X125949523Y-93623390D02*
X125949523Y-94004342D01*
X125949523Y-94004342D02*
X125901904Y-94099580D01*
X125901904Y-94099580D02*
X125854285Y-94147200D01*
X125854285Y-94147200D02*
X125759047Y-94194819D01*
X125759047Y-94194819D02*
X125568571Y-94194819D01*
X125568571Y-94194819D02*
X125473333Y-94147200D01*
X125473333Y-94147200D02*
X125425714Y-94099580D01*
X125425714Y-94099580D02*
X125378095Y-94004342D01*
X125378095Y-94004342D02*
X125378095Y-93766247D01*
X125378095Y-93766247D02*
X125425714Y-93671009D01*
X125425714Y-93671009D02*
X125473333Y-93623390D01*
X125473333Y-93623390D02*
X125568571Y-93575771D01*
X125568571Y-93575771D02*
X125759047Y-93575771D01*
X125759047Y-93575771D02*
X125854285Y-93623390D01*
X125854285Y-93623390D02*
X125901904Y-93671009D01*
X125901904Y-93671009D02*
X125949523Y-93766247D01*
X135350476Y-96904819D02*
X135683809Y-96428628D01*
X135921904Y-96904819D02*
X135921904Y-95904819D01*
X135921904Y-95904819D02*
X135540952Y-95904819D01*
X135540952Y-95904819D02*
X135445714Y-95952438D01*
X135445714Y-95952438D02*
X135398095Y-96000057D01*
X135398095Y-96000057D02*
X135350476Y-96095295D01*
X135350476Y-96095295D02*
X135350476Y-96238152D01*
X135350476Y-96238152D02*
X135398095Y-96333390D01*
X135398095Y-96333390D02*
X135445714Y-96381009D01*
X135445714Y-96381009D02*
X135540952Y-96428628D01*
X135540952Y-96428628D02*
X135921904Y-96428628D01*
X134921904Y-96904819D02*
X134921904Y-95904819D01*
X134921904Y-95904819D02*
X134350476Y-96904819D01*
X134350476Y-96904819D02*
X134350476Y-95904819D01*
X133445714Y-96238152D02*
X133445714Y-96904819D01*
X133683809Y-95857200D02*
X133921904Y-96571485D01*
X133921904Y-96571485D02*
X133302857Y-96571485D01*
X127752857Y-71559580D02*
X127800476Y-71607200D01*
X127800476Y-71607200D02*
X127943333Y-71654819D01*
X127943333Y-71654819D02*
X128038571Y-71654819D01*
X128038571Y-71654819D02*
X128181428Y-71607200D01*
X128181428Y-71607200D02*
X128276666Y-71511961D01*
X128276666Y-71511961D02*
X128324285Y-71416723D01*
X128324285Y-71416723D02*
X128371904Y-71226247D01*
X128371904Y-71226247D02*
X128371904Y-71083390D01*
X128371904Y-71083390D02*
X128324285Y-70892914D01*
X128324285Y-70892914D02*
X128276666Y-70797676D01*
X128276666Y-70797676D02*
X128181428Y-70702438D01*
X128181428Y-70702438D02*
X128038571Y-70654819D01*
X128038571Y-70654819D02*
X127943333Y-70654819D01*
X127943333Y-70654819D02*
X127800476Y-70702438D01*
X127800476Y-70702438D02*
X127752857Y-70750057D01*
X127419523Y-70654819D02*
X126800476Y-70654819D01*
X126800476Y-70654819D02*
X127133809Y-71035771D01*
X127133809Y-71035771D02*
X126990952Y-71035771D01*
X126990952Y-71035771D02*
X126895714Y-71083390D01*
X126895714Y-71083390D02*
X126848095Y-71131009D01*
X126848095Y-71131009D02*
X126800476Y-71226247D01*
X126800476Y-71226247D02*
X126800476Y-71464342D01*
X126800476Y-71464342D02*
X126848095Y-71559580D01*
X126848095Y-71559580D02*
X126895714Y-71607200D01*
X126895714Y-71607200D02*
X126990952Y-71654819D01*
X126990952Y-71654819D02*
X127276666Y-71654819D01*
X127276666Y-71654819D02*
X127371904Y-71607200D01*
X127371904Y-71607200D02*
X127419523Y-71559580D01*
X126467142Y-70654819D02*
X125848095Y-70654819D01*
X125848095Y-70654819D02*
X126181428Y-71035771D01*
X126181428Y-71035771D02*
X126038571Y-71035771D01*
X126038571Y-71035771D02*
X125943333Y-71083390D01*
X125943333Y-71083390D02*
X125895714Y-71131009D01*
X125895714Y-71131009D02*
X125848095Y-71226247D01*
X125848095Y-71226247D02*
X125848095Y-71464342D01*
X125848095Y-71464342D02*
X125895714Y-71559580D01*
X125895714Y-71559580D02*
X125943333Y-71607200D01*
X125943333Y-71607200D02*
X126038571Y-71654819D01*
X126038571Y-71654819D02*
X126324285Y-71654819D01*
X126324285Y-71654819D02*
X126419523Y-71607200D01*
X126419523Y-71607200D02*
X126467142Y-71559580D01*
X117032857Y-106964819D02*
X117366190Y-106488628D01*
X117604285Y-106964819D02*
X117604285Y-105964819D01*
X117604285Y-105964819D02*
X117223333Y-105964819D01*
X117223333Y-105964819D02*
X117128095Y-106012438D01*
X117128095Y-106012438D02*
X117080476Y-106060057D01*
X117080476Y-106060057D02*
X117032857Y-106155295D01*
X117032857Y-106155295D02*
X117032857Y-106298152D01*
X117032857Y-106298152D02*
X117080476Y-106393390D01*
X117080476Y-106393390D02*
X117128095Y-106441009D01*
X117128095Y-106441009D02*
X117223333Y-106488628D01*
X117223333Y-106488628D02*
X117604285Y-106488628D01*
X116175714Y-105964819D02*
X116366190Y-105964819D01*
X116366190Y-105964819D02*
X116461428Y-106012438D01*
X116461428Y-106012438D02*
X116509047Y-106060057D01*
X116509047Y-106060057D02*
X116604285Y-106202914D01*
X116604285Y-106202914D02*
X116651904Y-106393390D01*
X116651904Y-106393390D02*
X116651904Y-106774342D01*
X116651904Y-106774342D02*
X116604285Y-106869580D01*
X116604285Y-106869580D02*
X116556666Y-106917200D01*
X116556666Y-106917200D02*
X116461428Y-106964819D01*
X116461428Y-106964819D02*
X116270952Y-106964819D01*
X116270952Y-106964819D02*
X116175714Y-106917200D01*
X116175714Y-106917200D02*
X116128095Y-106869580D01*
X116128095Y-106869580D02*
X116080476Y-106774342D01*
X116080476Y-106774342D02*
X116080476Y-106536247D01*
X116080476Y-106536247D02*
X116128095Y-106441009D01*
X116128095Y-106441009D02*
X116175714Y-106393390D01*
X116175714Y-106393390D02*
X116270952Y-106345771D01*
X116270952Y-106345771D02*
X116461428Y-106345771D01*
X116461428Y-106345771D02*
X116556666Y-106393390D01*
X116556666Y-106393390D02*
X116604285Y-106441009D01*
X116604285Y-106441009D02*
X116651904Y-106536247D01*
X115128095Y-106964819D02*
X115699523Y-106964819D01*
X115413809Y-106964819D02*
X115413809Y-105964819D01*
X115413809Y-105964819D02*
X115509047Y-106107676D01*
X115509047Y-106107676D02*
X115604285Y-106202914D01*
X115604285Y-106202914D02*
X115699523Y-106250533D01*
X132672857Y-71169580D02*
X132720476Y-71217200D01*
X132720476Y-71217200D02*
X132863333Y-71264819D01*
X132863333Y-71264819D02*
X132958571Y-71264819D01*
X132958571Y-71264819D02*
X133101428Y-71217200D01*
X133101428Y-71217200D02*
X133196666Y-71121961D01*
X133196666Y-71121961D02*
X133244285Y-71026723D01*
X133244285Y-71026723D02*
X133291904Y-70836247D01*
X133291904Y-70836247D02*
X133291904Y-70693390D01*
X133291904Y-70693390D02*
X133244285Y-70502914D01*
X133244285Y-70502914D02*
X133196666Y-70407676D01*
X133196666Y-70407676D02*
X133101428Y-70312438D01*
X133101428Y-70312438D02*
X132958571Y-70264819D01*
X132958571Y-70264819D02*
X132863333Y-70264819D01*
X132863333Y-70264819D02*
X132720476Y-70312438D01*
X132720476Y-70312438D02*
X132672857Y-70360057D01*
X132339523Y-70264819D02*
X131720476Y-70264819D01*
X131720476Y-70264819D02*
X132053809Y-70645771D01*
X132053809Y-70645771D02*
X131910952Y-70645771D01*
X131910952Y-70645771D02*
X131815714Y-70693390D01*
X131815714Y-70693390D02*
X131768095Y-70741009D01*
X131768095Y-70741009D02*
X131720476Y-70836247D01*
X131720476Y-70836247D02*
X131720476Y-71074342D01*
X131720476Y-71074342D02*
X131768095Y-71169580D01*
X131768095Y-71169580D02*
X131815714Y-71217200D01*
X131815714Y-71217200D02*
X131910952Y-71264819D01*
X131910952Y-71264819D02*
X132196666Y-71264819D01*
X132196666Y-71264819D02*
X132291904Y-71217200D01*
X132291904Y-71217200D02*
X132339523Y-71169580D01*
X130863333Y-70598152D02*
X130863333Y-71264819D01*
X131101428Y-70217200D02*
X131339523Y-70931485D01*
X131339523Y-70931485D02*
X130720476Y-70931485D01*
X171914819Y-66153333D02*
X171438628Y-65820000D01*
X171914819Y-65581905D02*
X170914819Y-65581905D01*
X170914819Y-65581905D02*
X170914819Y-65962857D01*
X170914819Y-65962857D02*
X170962438Y-66058095D01*
X170962438Y-66058095D02*
X171010057Y-66105714D01*
X171010057Y-66105714D02*
X171105295Y-66153333D01*
X171105295Y-66153333D02*
X171248152Y-66153333D01*
X171248152Y-66153333D02*
X171343390Y-66105714D01*
X171343390Y-66105714D02*
X171391009Y-66058095D01*
X171391009Y-66058095D02*
X171438628Y-65962857D01*
X171438628Y-65962857D02*
X171438628Y-65581905D01*
X170914819Y-67058095D02*
X170914819Y-66581905D01*
X170914819Y-66581905D02*
X171391009Y-66534286D01*
X171391009Y-66534286D02*
X171343390Y-66581905D01*
X171343390Y-66581905D02*
X171295771Y-66677143D01*
X171295771Y-66677143D02*
X171295771Y-66915238D01*
X171295771Y-66915238D02*
X171343390Y-67010476D01*
X171343390Y-67010476D02*
X171391009Y-67058095D01*
X171391009Y-67058095D02*
X171486247Y-67105714D01*
X171486247Y-67105714D02*
X171724342Y-67105714D01*
X171724342Y-67105714D02*
X171819580Y-67058095D01*
X171819580Y-67058095D02*
X171867200Y-67010476D01*
X171867200Y-67010476D02*
X171914819Y-66915238D01*
X171914819Y-66915238D02*
X171914819Y-66677143D01*
X171914819Y-66677143D02*
X171867200Y-66581905D01*
X171867200Y-66581905D02*
X171819580Y-66534286D01*
X143412857Y-78919580D02*
X143460476Y-78967200D01*
X143460476Y-78967200D02*
X143603333Y-79014819D01*
X143603333Y-79014819D02*
X143698571Y-79014819D01*
X143698571Y-79014819D02*
X143841428Y-78967200D01*
X143841428Y-78967200D02*
X143936666Y-78871961D01*
X143936666Y-78871961D02*
X143984285Y-78776723D01*
X143984285Y-78776723D02*
X144031904Y-78586247D01*
X144031904Y-78586247D02*
X144031904Y-78443390D01*
X144031904Y-78443390D02*
X143984285Y-78252914D01*
X143984285Y-78252914D02*
X143936666Y-78157676D01*
X143936666Y-78157676D02*
X143841428Y-78062438D01*
X143841428Y-78062438D02*
X143698571Y-78014819D01*
X143698571Y-78014819D02*
X143603333Y-78014819D01*
X143603333Y-78014819D02*
X143460476Y-78062438D01*
X143460476Y-78062438D02*
X143412857Y-78110057D01*
X143031904Y-78110057D02*
X142984285Y-78062438D01*
X142984285Y-78062438D02*
X142889047Y-78014819D01*
X142889047Y-78014819D02*
X142650952Y-78014819D01*
X142650952Y-78014819D02*
X142555714Y-78062438D01*
X142555714Y-78062438D02*
X142508095Y-78110057D01*
X142508095Y-78110057D02*
X142460476Y-78205295D01*
X142460476Y-78205295D02*
X142460476Y-78300533D01*
X142460476Y-78300533D02*
X142508095Y-78443390D01*
X142508095Y-78443390D02*
X143079523Y-79014819D01*
X143079523Y-79014819D02*
X142460476Y-79014819D01*
X141984285Y-79014819D02*
X141793809Y-79014819D01*
X141793809Y-79014819D02*
X141698571Y-78967200D01*
X141698571Y-78967200D02*
X141650952Y-78919580D01*
X141650952Y-78919580D02*
X141555714Y-78776723D01*
X141555714Y-78776723D02*
X141508095Y-78586247D01*
X141508095Y-78586247D02*
X141508095Y-78205295D01*
X141508095Y-78205295D02*
X141555714Y-78110057D01*
X141555714Y-78110057D02*
X141603333Y-78062438D01*
X141603333Y-78062438D02*
X141698571Y-78014819D01*
X141698571Y-78014819D02*
X141889047Y-78014819D01*
X141889047Y-78014819D02*
X141984285Y-78062438D01*
X141984285Y-78062438D02*
X142031904Y-78110057D01*
X142031904Y-78110057D02*
X142079523Y-78205295D01*
X142079523Y-78205295D02*
X142079523Y-78443390D01*
X142079523Y-78443390D02*
X142031904Y-78538628D01*
X142031904Y-78538628D02*
X141984285Y-78586247D01*
X141984285Y-78586247D02*
X141889047Y-78633866D01*
X141889047Y-78633866D02*
X141698571Y-78633866D01*
X141698571Y-78633866D02*
X141603333Y-78586247D01*
X141603333Y-78586247D02*
X141555714Y-78538628D01*
X141555714Y-78538628D02*
X141508095Y-78443390D01*
X170476666Y-114279580D02*
X170524285Y-114327200D01*
X170524285Y-114327200D02*
X170667142Y-114374819D01*
X170667142Y-114374819D02*
X170762380Y-114374819D01*
X170762380Y-114374819D02*
X170905237Y-114327200D01*
X170905237Y-114327200D02*
X171000475Y-114231961D01*
X171000475Y-114231961D02*
X171048094Y-114136723D01*
X171048094Y-114136723D02*
X171095713Y-113946247D01*
X171095713Y-113946247D02*
X171095713Y-113803390D01*
X171095713Y-113803390D02*
X171048094Y-113612914D01*
X171048094Y-113612914D02*
X171000475Y-113517676D01*
X171000475Y-113517676D02*
X170905237Y-113422438D01*
X170905237Y-113422438D02*
X170762380Y-113374819D01*
X170762380Y-113374819D02*
X170667142Y-113374819D01*
X170667142Y-113374819D02*
X170524285Y-113422438D01*
X170524285Y-113422438D02*
X170476666Y-113470057D01*
X169619523Y-113708152D02*
X169619523Y-114374819D01*
X169857618Y-113327200D02*
X170095713Y-114041485D01*
X170095713Y-114041485D02*
X169476666Y-114041485D01*
X125102857Y-82594819D02*
X125436190Y-82118628D01*
X125674285Y-82594819D02*
X125674285Y-81594819D01*
X125674285Y-81594819D02*
X125293333Y-81594819D01*
X125293333Y-81594819D02*
X125198095Y-81642438D01*
X125198095Y-81642438D02*
X125150476Y-81690057D01*
X125150476Y-81690057D02*
X125102857Y-81785295D01*
X125102857Y-81785295D02*
X125102857Y-81928152D01*
X125102857Y-81928152D02*
X125150476Y-82023390D01*
X125150476Y-82023390D02*
X125198095Y-82071009D01*
X125198095Y-82071009D02*
X125293333Y-82118628D01*
X125293333Y-82118628D02*
X125674285Y-82118628D01*
X124721904Y-81690057D02*
X124674285Y-81642438D01*
X124674285Y-81642438D02*
X124579047Y-81594819D01*
X124579047Y-81594819D02*
X124340952Y-81594819D01*
X124340952Y-81594819D02*
X124245714Y-81642438D01*
X124245714Y-81642438D02*
X124198095Y-81690057D01*
X124198095Y-81690057D02*
X124150476Y-81785295D01*
X124150476Y-81785295D02*
X124150476Y-81880533D01*
X124150476Y-81880533D02*
X124198095Y-82023390D01*
X124198095Y-82023390D02*
X124769523Y-82594819D01*
X124769523Y-82594819D02*
X124150476Y-82594819D01*
X123293333Y-81594819D02*
X123483809Y-81594819D01*
X123483809Y-81594819D02*
X123579047Y-81642438D01*
X123579047Y-81642438D02*
X123626666Y-81690057D01*
X123626666Y-81690057D02*
X123721904Y-81832914D01*
X123721904Y-81832914D02*
X123769523Y-82023390D01*
X123769523Y-82023390D02*
X123769523Y-82404342D01*
X123769523Y-82404342D02*
X123721904Y-82499580D01*
X123721904Y-82499580D02*
X123674285Y-82547200D01*
X123674285Y-82547200D02*
X123579047Y-82594819D01*
X123579047Y-82594819D02*
X123388571Y-82594819D01*
X123388571Y-82594819D02*
X123293333Y-82547200D01*
X123293333Y-82547200D02*
X123245714Y-82499580D01*
X123245714Y-82499580D02*
X123198095Y-82404342D01*
X123198095Y-82404342D02*
X123198095Y-82166247D01*
X123198095Y-82166247D02*
X123245714Y-82071009D01*
X123245714Y-82071009D02*
X123293333Y-82023390D01*
X123293333Y-82023390D02*
X123388571Y-81975771D01*
X123388571Y-81975771D02*
X123579047Y-81975771D01*
X123579047Y-81975771D02*
X123674285Y-82023390D01*
X123674285Y-82023390D02*
X123721904Y-82071009D01*
X123721904Y-82071009D02*
X123769523Y-82166247D01*
X143311904Y-110694819D02*
X143311904Y-111504342D01*
X143311904Y-111504342D02*
X143264285Y-111599580D01*
X143264285Y-111599580D02*
X143216666Y-111647200D01*
X143216666Y-111647200D02*
X143121428Y-111694819D01*
X143121428Y-111694819D02*
X142930952Y-111694819D01*
X142930952Y-111694819D02*
X142835714Y-111647200D01*
X142835714Y-111647200D02*
X142788095Y-111599580D01*
X142788095Y-111599580D02*
X142740476Y-111504342D01*
X142740476Y-111504342D02*
X142740476Y-110694819D01*
X141788095Y-110694819D02*
X142264285Y-110694819D01*
X142264285Y-110694819D02*
X142311904Y-111171009D01*
X142311904Y-111171009D02*
X142264285Y-111123390D01*
X142264285Y-111123390D02*
X142169047Y-111075771D01*
X142169047Y-111075771D02*
X141930952Y-111075771D01*
X141930952Y-111075771D02*
X141835714Y-111123390D01*
X141835714Y-111123390D02*
X141788095Y-111171009D01*
X141788095Y-111171009D02*
X141740476Y-111266247D01*
X141740476Y-111266247D02*
X141740476Y-111504342D01*
X141740476Y-111504342D02*
X141788095Y-111599580D01*
X141788095Y-111599580D02*
X141835714Y-111647200D01*
X141835714Y-111647200D02*
X141930952Y-111694819D01*
X141930952Y-111694819D02*
X142169047Y-111694819D01*
X142169047Y-111694819D02*
X142264285Y-111647200D01*
X142264285Y-111647200D02*
X142311904Y-111599580D01*
X162095357Y-77164819D02*
X162428690Y-76688628D01*
X162666785Y-77164819D02*
X162666785Y-76164819D01*
X162666785Y-76164819D02*
X162285833Y-76164819D01*
X162285833Y-76164819D02*
X162190595Y-76212438D01*
X162190595Y-76212438D02*
X162142976Y-76260057D01*
X162142976Y-76260057D02*
X162095357Y-76355295D01*
X162095357Y-76355295D02*
X162095357Y-76498152D01*
X162095357Y-76498152D02*
X162142976Y-76593390D01*
X162142976Y-76593390D02*
X162190595Y-76641009D01*
X162190595Y-76641009D02*
X162285833Y-76688628D01*
X162285833Y-76688628D02*
X162666785Y-76688628D01*
X161142976Y-77164819D02*
X161714404Y-77164819D01*
X161428690Y-77164819D02*
X161428690Y-76164819D01*
X161428690Y-76164819D02*
X161523928Y-76307676D01*
X161523928Y-76307676D02*
X161619166Y-76402914D01*
X161619166Y-76402914D02*
X161714404Y-76450533D01*
X160762023Y-76260057D02*
X160714404Y-76212438D01*
X160714404Y-76212438D02*
X160619166Y-76164819D01*
X160619166Y-76164819D02*
X160381071Y-76164819D01*
X160381071Y-76164819D02*
X160285833Y-76212438D01*
X160285833Y-76212438D02*
X160238214Y-76260057D01*
X160238214Y-76260057D02*
X160190595Y-76355295D01*
X160190595Y-76355295D02*
X160190595Y-76450533D01*
X160190595Y-76450533D02*
X160238214Y-76593390D01*
X160238214Y-76593390D02*
X160809642Y-77164819D01*
X160809642Y-77164819D02*
X160190595Y-77164819D01*
X121434284Y-102824819D02*
X121434284Y-101824819D01*
X121434284Y-101824819D02*
X121196189Y-101824819D01*
X121196189Y-101824819D02*
X121053332Y-101872438D01*
X121053332Y-101872438D02*
X120958094Y-101967676D01*
X120958094Y-101967676D02*
X120910475Y-102062914D01*
X120910475Y-102062914D02*
X120862856Y-102253390D01*
X120862856Y-102253390D02*
X120862856Y-102396247D01*
X120862856Y-102396247D02*
X120910475Y-102586723D01*
X120910475Y-102586723D02*
X120958094Y-102681961D01*
X120958094Y-102681961D02*
X121053332Y-102777200D01*
X121053332Y-102777200D02*
X121196189Y-102824819D01*
X121196189Y-102824819D02*
X121434284Y-102824819D01*
X120005713Y-102158152D02*
X120005713Y-102824819D01*
X120243808Y-101777200D02*
X120481903Y-102491485D01*
X120481903Y-102491485D02*
X119862856Y-102491485D01*
X150600476Y-90854819D02*
X150933809Y-90378628D01*
X151171904Y-90854819D02*
X151171904Y-89854819D01*
X151171904Y-89854819D02*
X150790952Y-89854819D01*
X150790952Y-89854819D02*
X150695714Y-89902438D01*
X150695714Y-89902438D02*
X150648095Y-89950057D01*
X150648095Y-89950057D02*
X150600476Y-90045295D01*
X150600476Y-90045295D02*
X150600476Y-90188152D01*
X150600476Y-90188152D02*
X150648095Y-90283390D01*
X150648095Y-90283390D02*
X150695714Y-90331009D01*
X150695714Y-90331009D02*
X150790952Y-90378628D01*
X150790952Y-90378628D02*
X151171904Y-90378628D01*
X150171904Y-90854819D02*
X150171904Y-89854819D01*
X150171904Y-89854819D02*
X149600476Y-90854819D01*
X149600476Y-90854819D02*
X149600476Y-89854819D01*
X149219523Y-89854819D02*
X148600476Y-89854819D01*
X148600476Y-89854819D02*
X148933809Y-90235771D01*
X148933809Y-90235771D02*
X148790952Y-90235771D01*
X148790952Y-90235771D02*
X148695714Y-90283390D01*
X148695714Y-90283390D02*
X148648095Y-90331009D01*
X148648095Y-90331009D02*
X148600476Y-90426247D01*
X148600476Y-90426247D02*
X148600476Y-90664342D01*
X148600476Y-90664342D02*
X148648095Y-90759580D01*
X148648095Y-90759580D02*
X148695714Y-90807200D01*
X148695714Y-90807200D02*
X148790952Y-90854819D01*
X148790952Y-90854819D02*
X149076666Y-90854819D01*
X149076666Y-90854819D02*
X149171904Y-90807200D01*
X149171904Y-90807200D02*
X149219523Y-90759580D01*
X166781904Y-104144819D02*
X166781904Y-104954342D01*
X166781904Y-104954342D02*
X166734285Y-105049580D01*
X166734285Y-105049580D02*
X166686666Y-105097200D01*
X166686666Y-105097200D02*
X166591428Y-105144819D01*
X166591428Y-105144819D02*
X166400952Y-105144819D01*
X166400952Y-105144819D02*
X166305714Y-105097200D01*
X166305714Y-105097200D02*
X166258095Y-105049580D01*
X166258095Y-105049580D02*
X166210476Y-104954342D01*
X166210476Y-104954342D02*
X166210476Y-104144819D01*
X165781904Y-104240057D02*
X165734285Y-104192438D01*
X165734285Y-104192438D02*
X165639047Y-104144819D01*
X165639047Y-104144819D02*
X165400952Y-104144819D01*
X165400952Y-104144819D02*
X165305714Y-104192438D01*
X165305714Y-104192438D02*
X165258095Y-104240057D01*
X165258095Y-104240057D02*
X165210476Y-104335295D01*
X165210476Y-104335295D02*
X165210476Y-104430533D01*
X165210476Y-104430533D02*
X165258095Y-104573390D01*
X165258095Y-104573390D02*
X165829523Y-105144819D01*
X165829523Y-105144819D02*
X165210476Y-105144819D01*
X153622857Y-71869580D02*
X153670476Y-71917200D01*
X153670476Y-71917200D02*
X153813333Y-71964819D01*
X153813333Y-71964819D02*
X153908571Y-71964819D01*
X153908571Y-71964819D02*
X154051428Y-71917200D01*
X154051428Y-71917200D02*
X154146666Y-71821961D01*
X154146666Y-71821961D02*
X154194285Y-71726723D01*
X154194285Y-71726723D02*
X154241904Y-71536247D01*
X154241904Y-71536247D02*
X154241904Y-71393390D01*
X154241904Y-71393390D02*
X154194285Y-71202914D01*
X154194285Y-71202914D02*
X154146666Y-71107676D01*
X154146666Y-71107676D02*
X154051428Y-71012438D01*
X154051428Y-71012438D02*
X153908571Y-70964819D01*
X153908571Y-70964819D02*
X153813333Y-70964819D01*
X153813333Y-70964819D02*
X153670476Y-71012438D01*
X153670476Y-71012438D02*
X153622857Y-71060057D01*
X153241904Y-71060057D02*
X153194285Y-71012438D01*
X153194285Y-71012438D02*
X153099047Y-70964819D01*
X153099047Y-70964819D02*
X152860952Y-70964819D01*
X152860952Y-70964819D02*
X152765714Y-71012438D01*
X152765714Y-71012438D02*
X152718095Y-71060057D01*
X152718095Y-71060057D02*
X152670476Y-71155295D01*
X152670476Y-71155295D02*
X152670476Y-71250533D01*
X152670476Y-71250533D02*
X152718095Y-71393390D01*
X152718095Y-71393390D02*
X153289523Y-71964819D01*
X153289523Y-71964819D02*
X152670476Y-71964819D01*
X151765714Y-70964819D02*
X152241904Y-70964819D01*
X152241904Y-70964819D02*
X152289523Y-71441009D01*
X152289523Y-71441009D02*
X152241904Y-71393390D01*
X152241904Y-71393390D02*
X152146666Y-71345771D01*
X152146666Y-71345771D02*
X151908571Y-71345771D01*
X151908571Y-71345771D02*
X151813333Y-71393390D01*
X151813333Y-71393390D02*
X151765714Y-71441009D01*
X151765714Y-71441009D02*
X151718095Y-71536247D01*
X151718095Y-71536247D02*
X151718095Y-71774342D01*
X151718095Y-71774342D02*
X151765714Y-71869580D01*
X151765714Y-71869580D02*
X151813333Y-71917200D01*
X151813333Y-71917200D02*
X151908571Y-71964819D01*
X151908571Y-71964819D02*
X152146666Y-71964819D01*
X152146666Y-71964819D02*
X152241904Y-71917200D01*
X152241904Y-71917200D02*
X152289523Y-71869580D01*
X161076666Y-111819580D02*
X161124285Y-111867200D01*
X161124285Y-111867200D02*
X161267142Y-111914819D01*
X161267142Y-111914819D02*
X161362380Y-111914819D01*
X161362380Y-111914819D02*
X161505237Y-111867200D01*
X161505237Y-111867200D02*
X161600475Y-111771961D01*
X161600475Y-111771961D02*
X161648094Y-111676723D01*
X161648094Y-111676723D02*
X161695713Y-111486247D01*
X161695713Y-111486247D02*
X161695713Y-111343390D01*
X161695713Y-111343390D02*
X161648094Y-111152914D01*
X161648094Y-111152914D02*
X161600475Y-111057676D01*
X161600475Y-111057676D02*
X161505237Y-110962438D01*
X161505237Y-110962438D02*
X161362380Y-110914819D01*
X161362380Y-110914819D02*
X161267142Y-110914819D01*
X161267142Y-110914819D02*
X161124285Y-110962438D01*
X161124285Y-110962438D02*
X161076666Y-111010057D01*
X160219523Y-110914819D02*
X160409999Y-110914819D01*
X160409999Y-110914819D02*
X160505237Y-110962438D01*
X160505237Y-110962438D02*
X160552856Y-111010057D01*
X160552856Y-111010057D02*
X160648094Y-111152914D01*
X160648094Y-111152914D02*
X160695713Y-111343390D01*
X160695713Y-111343390D02*
X160695713Y-111724342D01*
X160695713Y-111724342D02*
X160648094Y-111819580D01*
X160648094Y-111819580D02*
X160600475Y-111867200D01*
X160600475Y-111867200D02*
X160505237Y-111914819D01*
X160505237Y-111914819D02*
X160314761Y-111914819D01*
X160314761Y-111914819D02*
X160219523Y-111867200D01*
X160219523Y-111867200D02*
X160171904Y-111819580D01*
X160171904Y-111819580D02*
X160124285Y-111724342D01*
X160124285Y-111724342D02*
X160124285Y-111486247D01*
X160124285Y-111486247D02*
X160171904Y-111391009D01*
X160171904Y-111391009D02*
X160219523Y-111343390D01*
X160219523Y-111343390D02*
X160314761Y-111295771D01*
X160314761Y-111295771D02*
X160505237Y-111295771D01*
X160505237Y-111295771D02*
X160600475Y-111343390D01*
X160600475Y-111343390D02*
X160648094Y-111391009D01*
X160648094Y-111391009D02*
X160695713Y-111486247D01*
X162486666Y-113189580D02*
X162534285Y-113237200D01*
X162534285Y-113237200D02*
X162677142Y-113284819D01*
X162677142Y-113284819D02*
X162772380Y-113284819D01*
X162772380Y-113284819D02*
X162915237Y-113237200D01*
X162915237Y-113237200D02*
X163010475Y-113141961D01*
X163010475Y-113141961D02*
X163058094Y-113046723D01*
X163058094Y-113046723D02*
X163105713Y-112856247D01*
X163105713Y-112856247D02*
X163105713Y-112713390D01*
X163105713Y-112713390D02*
X163058094Y-112522914D01*
X163058094Y-112522914D02*
X163010475Y-112427676D01*
X163010475Y-112427676D02*
X162915237Y-112332438D01*
X162915237Y-112332438D02*
X162772380Y-112284819D01*
X162772380Y-112284819D02*
X162677142Y-112284819D01*
X162677142Y-112284819D02*
X162534285Y-112332438D01*
X162534285Y-112332438D02*
X162486666Y-112380057D01*
X161581904Y-112284819D02*
X162058094Y-112284819D01*
X162058094Y-112284819D02*
X162105713Y-112761009D01*
X162105713Y-112761009D02*
X162058094Y-112713390D01*
X162058094Y-112713390D02*
X161962856Y-112665771D01*
X161962856Y-112665771D02*
X161724761Y-112665771D01*
X161724761Y-112665771D02*
X161629523Y-112713390D01*
X161629523Y-112713390D02*
X161581904Y-112761009D01*
X161581904Y-112761009D02*
X161534285Y-112856247D01*
X161534285Y-112856247D02*
X161534285Y-113094342D01*
X161534285Y-113094342D02*
X161581904Y-113189580D01*
X161581904Y-113189580D02*
X161629523Y-113237200D01*
X161629523Y-113237200D02*
X161724761Y-113284819D01*
X161724761Y-113284819D02*
X161962856Y-113284819D01*
X161962856Y-113284819D02*
X162058094Y-113237200D01*
X162058094Y-113237200D02*
X162105713Y-113189580D01*
X158202857Y-75734819D02*
X158536190Y-75258628D01*
X158774285Y-75734819D02*
X158774285Y-74734819D01*
X158774285Y-74734819D02*
X158393333Y-74734819D01*
X158393333Y-74734819D02*
X158298095Y-74782438D01*
X158298095Y-74782438D02*
X158250476Y-74830057D01*
X158250476Y-74830057D02*
X158202857Y-74925295D01*
X158202857Y-74925295D02*
X158202857Y-75068152D01*
X158202857Y-75068152D02*
X158250476Y-75163390D01*
X158250476Y-75163390D02*
X158298095Y-75211009D01*
X158298095Y-75211009D02*
X158393333Y-75258628D01*
X158393333Y-75258628D02*
X158774285Y-75258628D01*
X157250476Y-75734819D02*
X157821904Y-75734819D01*
X157536190Y-75734819D02*
X157536190Y-74734819D01*
X157536190Y-74734819D02*
X157631428Y-74877676D01*
X157631428Y-74877676D02*
X157726666Y-74972914D01*
X157726666Y-74972914D02*
X157821904Y-75020533D01*
X156917142Y-74734819D02*
X156298095Y-74734819D01*
X156298095Y-74734819D02*
X156631428Y-75115771D01*
X156631428Y-75115771D02*
X156488571Y-75115771D01*
X156488571Y-75115771D02*
X156393333Y-75163390D01*
X156393333Y-75163390D02*
X156345714Y-75211009D01*
X156345714Y-75211009D02*
X156298095Y-75306247D01*
X156298095Y-75306247D02*
X156298095Y-75544342D01*
X156298095Y-75544342D02*
X156345714Y-75639580D01*
X156345714Y-75639580D02*
X156393333Y-75687200D01*
X156393333Y-75687200D02*
X156488571Y-75734819D01*
X156488571Y-75734819D02*
X156774285Y-75734819D01*
X156774285Y-75734819D02*
X156869523Y-75687200D01*
X156869523Y-75687200D02*
X156917142Y-75639580D01*
X130802857Y-77359580D02*
X130850476Y-77407200D01*
X130850476Y-77407200D02*
X130993333Y-77454819D01*
X130993333Y-77454819D02*
X131088571Y-77454819D01*
X131088571Y-77454819D02*
X131231428Y-77407200D01*
X131231428Y-77407200D02*
X131326666Y-77311961D01*
X131326666Y-77311961D02*
X131374285Y-77216723D01*
X131374285Y-77216723D02*
X131421904Y-77026247D01*
X131421904Y-77026247D02*
X131421904Y-76883390D01*
X131421904Y-76883390D02*
X131374285Y-76692914D01*
X131374285Y-76692914D02*
X131326666Y-76597676D01*
X131326666Y-76597676D02*
X131231428Y-76502438D01*
X131231428Y-76502438D02*
X131088571Y-76454819D01*
X131088571Y-76454819D02*
X130993333Y-76454819D01*
X130993333Y-76454819D02*
X130850476Y-76502438D01*
X130850476Y-76502438D02*
X130802857Y-76550057D01*
X130469523Y-76454819D02*
X129850476Y-76454819D01*
X129850476Y-76454819D02*
X130183809Y-76835771D01*
X130183809Y-76835771D02*
X130040952Y-76835771D01*
X130040952Y-76835771D02*
X129945714Y-76883390D01*
X129945714Y-76883390D02*
X129898095Y-76931009D01*
X129898095Y-76931009D02*
X129850476Y-77026247D01*
X129850476Y-77026247D02*
X129850476Y-77264342D01*
X129850476Y-77264342D02*
X129898095Y-77359580D01*
X129898095Y-77359580D02*
X129945714Y-77407200D01*
X129945714Y-77407200D02*
X130040952Y-77454819D01*
X130040952Y-77454819D02*
X130326666Y-77454819D01*
X130326666Y-77454819D02*
X130421904Y-77407200D01*
X130421904Y-77407200D02*
X130469523Y-77359580D01*
X128898095Y-77454819D02*
X129469523Y-77454819D01*
X129183809Y-77454819D02*
X129183809Y-76454819D01*
X129183809Y-76454819D02*
X129279047Y-76597676D01*
X129279047Y-76597676D02*
X129374285Y-76692914D01*
X129374285Y-76692914D02*
X129469523Y-76740533D01*
X134552857Y-72364819D02*
X134886190Y-71888628D01*
X135124285Y-72364819D02*
X135124285Y-71364819D01*
X135124285Y-71364819D02*
X134743333Y-71364819D01*
X134743333Y-71364819D02*
X134648095Y-71412438D01*
X134648095Y-71412438D02*
X134600476Y-71460057D01*
X134600476Y-71460057D02*
X134552857Y-71555295D01*
X134552857Y-71555295D02*
X134552857Y-71698152D01*
X134552857Y-71698152D02*
X134600476Y-71793390D01*
X134600476Y-71793390D02*
X134648095Y-71841009D01*
X134648095Y-71841009D02*
X134743333Y-71888628D01*
X134743333Y-71888628D02*
X135124285Y-71888628D01*
X134171904Y-71460057D02*
X134124285Y-71412438D01*
X134124285Y-71412438D02*
X134029047Y-71364819D01*
X134029047Y-71364819D02*
X133790952Y-71364819D01*
X133790952Y-71364819D02*
X133695714Y-71412438D01*
X133695714Y-71412438D02*
X133648095Y-71460057D01*
X133648095Y-71460057D02*
X133600476Y-71555295D01*
X133600476Y-71555295D02*
X133600476Y-71650533D01*
X133600476Y-71650533D02*
X133648095Y-71793390D01*
X133648095Y-71793390D02*
X134219523Y-72364819D01*
X134219523Y-72364819D02*
X133600476Y-72364819D01*
X132743333Y-71698152D02*
X132743333Y-72364819D01*
X132981428Y-71317200D02*
X133219523Y-72031485D01*
X133219523Y-72031485D02*
X132600476Y-72031485D01*
X140022857Y-73054819D02*
X140356190Y-72578628D01*
X140594285Y-73054819D02*
X140594285Y-72054819D01*
X140594285Y-72054819D02*
X140213333Y-72054819D01*
X140213333Y-72054819D02*
X140118095Y-72102438D01*
X140118095Y-72102438D02*
X140070476Y-72150057D01*
X140070476Y-72150057D02*
X140022857Y-72245295D01*
X140022857Y-72245295D02*
X140022857Y-72388152D01*
X140022857Y-72388152D02*
X140070476Y-72483390D01*
X140070476Y-72483390D02*
X140118095Y-72531009D01*
X140118095Y-72531009D02*
X140213333Y-72578628D01*
X140213333Y-72578628D02*
X140594285Y-72578628D01*
X139070476Y-73054819D02*
X139641904Y-73054819D01*
X139356190Y-73054819D02*
X139356190Y-72054819D01*
X139356190Y-72054819D02*
X139451428Y-72197676D01*
X139451428Y-72197676D02*
X139546666Y-72292914D01*
X139546666Y-72292914D02*
X139641904Y-72340533D01*
X138737142Y-72054819D02*
X138070476Y-72054819D01*
X138070476Y-72054819D02*
X138499047Y-73054819D01*
X147872857Y-69064819D02*
X148206190Y-68588628D01*
X148444285Y-69064819D02*
X148444285Y-68064819D01*
X148444285Y-68064819D02*
X148063333Y-68064819D01*
X148063333Y-68064819D02*
X147968095Y-68112438D01*
X147968095Y-68112438D02*
X147920476Y-68160057D01*
X147920476Y-68160057D02*
X147872857Y-68255295D01*
X147872857Y-68255295D02*
X147872857Y-68398152D01*
X147872857Y-68398152D02*
X147920476Y-68493390D01*
X147920476Y-68493390D02*
X147968095Y-68541009D01*
X147968095Y-68541009D02*
X148063333Y-68588628D01*
X148063333Y-68588628D02*
X148444285Y-68588628D01*
X147491904Y-68160057D02*
X147444285Y-68112438D01*
X147444285Y-68112438D02*
X147349047Y-68064819D01*
X147349047Y-68064819D02*
X147110952Y-68064819D01*
X147110952Y-68064819D02*
X147015714Y-68112438D01*
X147015714Y-68112438D02*
X146968095Y-68160057D01*
X146968095Y-68160057D02*
X146920476Y-68255295D01*
X146920476Y-68255295D02*
X146920476Y-68350533D01*
X146920476Y-68350533D02*
X146968095Y-68493390D01*
X146968095Y-68493390D02*
X147539523Y-69064819D01*
X147539523Y-69064819D02*
X146920476Y-69064819D01*
X146301428Y-68064819D02*
X146206190Y-68064819D01*
X146206190Y-68064819D02*
X146110952Y-68112438D01*
X146110952Y-68112438D02*
X146063333Y-68160057D01*
X146063333Y-68160057D02*
X146015714Y-68255295D01*
X146015714Y-68255295D02*
X145968095Y-68445771D01*
X145968095Y-68445771D02*
X145968095Y-68683866D01*
X145968095Y-68683866D02*
X146015714Y-68874342D01*
X146015714Y-68874342D02*
X146063333Y-68969580D01*
X146063333Y-68969580D02*
X146110952Y-69017200D01*
X146110952Y-69017200D02*
X146206190Y-69064819D01*
X146206190Y-69064819D02*
X146301428Y-69064819D01*
X146301428Y-69064819D02*
X146396666Y-69017200D01*
X146396666Y-69017200D02*
X146444285Y-68969580D01*
X146444285Y-68969580D02*
X146491904Y-68874342D01*
X146491904Y-68874342D02*
X146539523Y-68683866D01*
X146539523Y-68683866D02*
X146539523Y-68445771D01*
X146539523Y-68445771D02*
X146491904Y-68255295D01*
X146491904Y-68255295D02*
X146444285Y-68160057D01*
X146444285Y-68160057D02*
X146396666Y-68112438D01*
X146396666Y-68112438D02*
X146301428Y-68064819D01*
X146812857Y-80404819D02*
X147146190Y-79928628D01*
X147384285Y-80404819D02*
X147384285Y-79404819D01*
X147384285Y-79404819D02*
X147003333Y-79404819D01*
X147003333Y-79404819D02*
X146908095Y-79452438D01*
X146908095Y-79452438D02*
X146860476Y-79500057D01*
X146860476Y-79500057D02*
X146812857Y-79595295D01*
X146812857Y-79595295D02*
X146812857Y-79738152D01*
X146812857Y-79738152D02*
X146860476Y-79833390D01*
X146860476Y-79833390D02*
X146908095Y-79881009D01*
X146908095Y-79881009D02*
X147003333Y-79928628D01*
X147003333Y-79928628D02*
X147384285Y-79928628D01*
X145860476Y-80404819D02*
X146431904Y-80404819D01*
X146146190Y-80404819D02*
X146146190Y-79404819D01*
X146146190Y-79404819D02*
X146241428Y-79547676D01*
X146241428Y-79547676D02*
X146336666Y-79642914D01*
X146336666Y-79642914D02*
X146431904Y-79690533D01*
X145003333Y-79404819D02*
X145193809Y-79404819D01*
X145193809Y-79404819D02*
X145289047Y-79452438D01*
X145289047Y-79452438D02*
X145336666Y-79500057D01*
X145336666Y-79500057D02*
X145431904Y-79642914D01*
X145431904Y-79642914D02*
X145479523Y-79833390D01*
X145479523Y-79833390D02*
X145479523Y-80214342D01*
X145479523Y-80214342D02*
X145431904Y-80309580D01*
X145431904Y-80309580D02*
X145384285Y-80357200D01*
X145384285Y-80357200D02*
X145289047Y-80404819D01*
X145289047Y-80404819D02*
X145098571Y-80404819D01*
X145098571Y-80404819D02*
X145003333Y-80357200D01*
X145003333Y-80357200D02*
X144955714Y-80309580D01*
X144955714Y-80309580D02*
X144908095Y-80214342D01*
X144908095Y-80214342D02*
X144908095Y-79976247D01*
X144908095Y-79976247D02*
X144955714Y-79881009D01*
X144955714Y-79881009D02*
X145003333Y-79833390D01*
X145003333Y-79833390D02*
X145098571Y-79785771D01*
X145098571Y-79785771D02*
X145289047Y-79785771D01*
X145289047Y-79785771D02*
X145384285Y-79833390D01*
X145384285Y-79833390D02*
X145431904Y-79881009D01*
X145431904Y-79881009D02*
X145479523Y-79976247D01*
X117032857Y-110544819D02*
X117366190Y-110068628D01*
X117604285Y-110544819D02*
X117604285Y-109544819D01*
X117604285Y-109544819D02*
X117223333Y-109544819D01*
X117223333Y-109544819D02*
X117128095Y-109592438D01*
X117128095Y-109592438D02*
X117080476Y-109640057D01*
X117080476Y-109640057D02*
X117032857Y-109735295D01*
X117032857Y-109735295D02*
X117032857Y-109878152D01*
X117032857Y-109878152D02*
X117080476Y-109973390D01*
X117080476Y-109973390D02*
X117128095Y-110021009D01*
X117128095Y-110021009D02*
X117223333Y-110068628D01*
X117223333Y-110068628D02*
X117604285Y-110068628D01*
X116175714Y-109544819D02*
X116366190Y-109544819D01*
X116366190Y-109544819D02*
X116461428Y-109592438D01*
X116461428Y-109592438D02*
X116509047Y-109640057D01*
X116509047Y-109640057D02*
X116604285Y-109782914D01*
X116604285Y-109782914D02*
X116651904Y-109973390D01*
X116651904Y-109973390D02*
X116651904Y-110354342D01*
X116651904Y-110354342D02*
X116604285Y-110449580D01*
X116604285Y-110449580D02*
X116556666Y-110497200D01*
X116556666Y-110497200D02*
X116461428Y-110544819D01*
X116461428Y-110544819D02*
X116270952Y-110544819D01*
X116270952Y-110544819D02*
X116175714Y-110497200D01*
X116175714Y-110497200D02*
X116128095Y-110449580D01*
X116128095Y-110449580D02*
X116080476Y-110354342D01*
X116080476Y-110354342D02*
X116080476Y-110116247D01*
X116080476Y-110116247D02*
X116128095Y-110021009D01*
X116128095Y-110021009D02*
X116175714Y-109973390D01*
X116175714Y-109973390D02*
X116270952Y-109925771D01*
X116270952Y-109925771D02*
X116461428Y-109925771D01*
X116461428Y-109925771D02*
X116556666Y-109973390D01*
X116556666Y-109973390D02*
X116604285Y-110021009D01*
X116604285Y-110021009D02*
X116651904Y-110116247D01*
X115223333Y-109878152D02*
X115223333Y-110544819D01*
X115461428Y-109497200D02*
X115699523Y-110211485D01*
X115699523Y-110211485D02*
X115080476Y-110211485D01*
X117032857Y-111744819D02*
X117366190Y-111268628D01*
X117604285Y-111744819D02*
X117604285Y-110744819D01*
X117604285Y-110744819D02*
X117223333Y-110744819D01*
X117223333Y-110744819D02*
X117128095Y-110792438D01*
X117128095Y-110792438D02*
X117080476Y-110840057D01*
X117080476Y-110840057D02*
X117032857Y-110935295D01*
X117032857Y-110935295D02*
X117032857Y-111078152D01*
X117032857Y-111078152D02*
X117080476Y-111173390D01*
X117080476Y-111173390D02*
X117128095Y-111221009D01*
X117128095Y-111221009D02*
X117223333Y-111268628D01*
X117223333Y-111268628D02*
X117604285Y-111268628D01*
X116175714Y-110744819D02*
X116366190Y-110744819D01*
X116366190Y-110744819D02*
X116461428Y-110792438D01*
X116461428Y-110792438D02*
X116509047Y-110840057D01*
X116509047Y-110840057D02*
X116604285Y-110982914D01*
X116604285Y-110982914D02*
X116651904Y-111173390D01*
X116651904Y-111173390D02*
X116651904Y-111554342D01*
X116651904Y-111554342D02*
X116604285Y-111649580D01*
X116604285Y-111649580D02*
X116556666Y-111697200D01*
X116556666Y-111697200D02*
X116461428Y-111744819D01*
X116461428Y-111744819D02*
X116270952Y-111744819D01*
X116270952Y-111744819D02*
X116175714Y-111697200D01*
X116175714Y-111697200D02*
X116128095Y-111649580D01*
X116128095Y-111649580D02*
X116080476Y-111554342D01*
X116080476Y-111554342D02*
X116080476Y-111316247D01*
X116080476Y-111316247D02*
X116128095Y-111221009D01*
X116128095Y-111221009D02*
X116175714Y-111173390D01*
X116175714Y-111173390D02*
X116270952Y-111125771D01*
X116270952Y-111125771D02*
X116461428Y-111125771D01*
X116461428Y-111125771D02*
X116556666Y-111173390D01*
X116556666Y-111173390D02*
X116604285Y-111221009D01*
X116604285Y-111221009D02*
X116651904Y-111316247D01*
X115175714Y-110744819D02*
X115651904Y-110744819D01*
X115651904Y-110744819D02*
X115699523Y-111221009D01*
X115699523Y-111221009D02*
X115651904Y-111173390D01*
X115651904Y-111173390D02*
X115556666Y-111125771D01*
X115556666Y-111125771D02*
X115318571Y-111125771D01*
X115318571Y-111125771D02*
X115223333Y-111173390D01*
X115223333Y-111173390D02*
X115175714Y-111221009D01*
X115175714Y-111221009D02*
X115128095Y-111316247D01*
X115128095Y-111316247D02*
X115128095Y-111554342D01*
X115128095Y-111554342D02*
X115175714Y-111649580D01*
X115175714Y-111649580D02*
X115223333Y-111697200D01*
X115223333Y-111697200D02*
X115318571Y-111744819D01*
X115318571Y-111744819D02*
X115556666Y-111744819D01*
X115556666Y-111744819D02*
X115651904Y-111697200D01*
X115651904Y-111697200D02*
X115699523Y-111649580D01*
X162766666Y-70354819D02*
X163099999Y-69878628D01*
X163338094Y-70354819D02*
X163338094Y-69354819D01*
X163338094Y-69354819D02*
X162957142Y-69354819D01*
X162957142Y-69354819D02*
X162861904Y-69402438D01*
X162861904Y-69402438D02*
X162814285Y-69450057D01*
X162814285Y-69450057D02*
X162766666Y-69545295D01*
X162766666Y-69545295D02*
X162766666Y-69688152D01*
X162766666Y-69688152D02*
X162814285Y-69783390D01*
X162814285Y-69783390D02*
X162861904Y-69831009D01*
X162861904Y-69831009D02*
X162957142Y-69878628D01*
X162957142Y-69878628D02*
X163338094Y-69878628D01*
X162433332Y-69354819D02*
X161814285Y-69354819D01*
X161814285Y-69354819D02*
X162147618Y-69735771D01*
X162147618Y-69735771D02*
X162004761Y-69735771D01*
X162004761Y-69735771D02*
X161909523Y-69783390D01*
X161909523Y-69783390D02*
X161861904Y-69831009D01*
X161861904Y-69831009D02*
X161814285Y-69926247D01*
X161814285Y-69926247D02*
X161814285Y-70164342D01*
X161814285Y-70164342D02*
X161861904Y-70259580D01*
X161861904Y-70259580D02*
X161909523Y-70307200D01*
X161909523Y-70307200D02*
X162004761Y-70354819D01*
X162004761Y-70354819D02*
X162290475Y-70354819D01*
X162290475Y-70354819D02*
X162385713Y-70307200D01*
X162385713Y-70307200D02*
X162433332Y-70259580D01*
X166552857Y-87919580D02*
X166600476Y-87967200D01*
X166600476Y-87967200D02*
X166743333Y-88014819D01*
X166743333Y-88014819D02*
X166838571Y-88014819D01*
X166838571Y-88014819D02*
X166981428Y-87967200D01*
X166981428Y-87967200D02*
X167076666Y-87871961D01*
X167076666Y-87871961D02*
X167124285Y-87776723D01*
X167124285Y-87776723D02*
X167171904Y-87586247D01*
X167171904Y-87586247D02*
X167171904Y-87443390D01*
X167171904Y-87443390D02*
X167124285Y-87252914D01*
X167124285Y-87252914D02*
X167076666Y-87157676D01*
X167076666Y-87157676D02*
X166981428Y-87062438D01*
X166981428Y-87062438D02*
X166838571Y-87014819D01*
X166838571Y-87014819D02*
X166743333Y-87014819D01*
X166743333Y-87014819D02*
X166600476Y-87062438D01*
X166600476Y-87062438D02*
X166552857Y-87110057D01*
X166219523Y-87014819D02*
X165600476Y-87014819D01*
X165600476Y-87014819D02*
X165933809Y-87395771D01*
X165933809Y-87395771D02*
X165790952Y-87395771D01*
X165790952Y-87395771D02*
X165695714Y-87443390D01*
X165695714Y-87443390D02*
X165648095Y-87491009D01*
X165648095Y-87491009D02*
X165600476Y-87586247D01*
X165600476Y-87586247D02*
X165600476Y-87824342D01*
X165600476Y-87824342D02*
X165648095Y-87919580D01*
X165648095Y-87919580D02*
X165695714Y-87967200D01*
X165695714Y-87967200D02*
X165790952Y-88014819D01*
X165790952Y-88014819D02*
X166076666Y-88014819D01*
X166076666Y-88014819D02*
X166171904Y-87967200D01*
X166171904Y-87967200D02*
X166219523Y-87919580D01*
X165029047Y-87443390D02*
X165124285Y-87395771D01*
X165124285Y-87395771D02*
X165171904Y-87348152D01*
X165171904Y-87348152D02*
X165219523Y-87252914D01*
X165219523Y-87252914D02*
X165219523Y-87205295D01*
X165219523Y-87205295D02*
X165171904Y-87110057D01*
X165171904Y-87110057D02*
X165124285Y-87062438D01*
X165124285Y-87062438D02*
X165029047Y-87014819D01*
X165029047Y-87014819D02*
X164838571Y-87014819D01*
X164838571Y-87014819D02*
X164743333Y-87062438D01*
X164743333Y-87062438D02*
X164695714Y-87110057D01*
X164695714Y-87110057D02*
X164648095Y-87205295D01*
X164648095Y-87205295D02*
X164648095Y-87252914D01*
X164648095Y-87252914D02*
X164695714Y-87348152D01*
X164695714Y-87348152D02*
X164743333Y-87395771D01*
X164743333Y-87395771D02*
X164838571Y-87443390D01*
X164838571Y-87443390D02*
X165029047Y-87443390D01*
X165029047Y-87443390D02*
X165124285Y-87491009D01*
X165124285Y-87491009D02*
X165171904Y-87538628D01*
X165171904Y-87538628D02*
X165219523Y-87633866D01*
X165219523Y-87633866D02*
X165219523Y-87824342D01*
X165219523Y-87824342D02*
X165171904Y-87919580D01*
X165171904Y-87919580D02*
X165124285Y-87967200D01*
X165124285Y-87967200D02*
X165029047Y-88014819D01*
X165029047Y-88014819D02*
X164838571Y-88014819D01*
X164838571Y-88014819D02*
X164743333Y-87967200D01*
X164743333Y-87967200D02*
X164695714Y-87919580D01*
X164695714Y-87919580D02*
X164648095Y-87824342D01*
X164648095Y-87824342D02*
X164648095Y-87633866D01*
X164648095Y-87633866D02*
X164695714Y-87538628D01*
X164695714Y-87538628D02*
X164743333Y-87491009D01*
X164743333Y-87491009D02*
X164838571Y-87443390D01*
X166946666Y-97199580D02*
X166994285Y-97247200D01*
X166994285Y-97247200D02*
X167137142Y-97294819D01*
X167137142Y-97294819D02*
X167232380Y-97294819D01*
X167232380Y-97294819D02*
X167375237Y-97247200D01*
X167375237Y-97247200D02*
X167470475Y-97151961D01*
X167470475Y-97151961D02*
X167518094Y-97056723D01*
X167518094Y-97056723D02*
X167565713Y-96866247D01*
X167565713Y-96866247D02*
X167565713Y-96723390D01*
X167565713Y-96723390D02*
X167518094Y-96532914D01*
X167518094Y-96532914D02*
X167470475Y-96437676D01*
X167470475Y-96437676D02*
X167375237Y-96342438D01*
X167375237Y-96342438D02*
X167232380Y-96294819D01*
X167232380Y-96294819D02*
X167137142Y-96294819D01*
X167137142Y-96294819D02*
X166994285Y-96342438D01*
X166994285Y-96342438D02*
X166946666Y-96390057D01*
X166375237Y-96723390D02*
X166470475Y-96675771D01*
X166470475Y-96675771D02*
X166518094Y-96628152D01*
X166518094Y-96628152D02*
X166565713Y-96532914D01*
X166565713Y-96532914D02*
X166565713Y-96485295D01*
X166565713Y-96485295D02*
X166518094Y-96390057D01*
X166518094Y-96390057D02*
X166470475Y-96342438D01*
X166470475Y-96342438D02*
X166375237Y-96294819D01*
X166375237Y-96294819D02*
X166184761Y-96294819D01*
X166184761Y-96294819D02*
X166089523Y-96342438D01*
X166089523Y-96342438D02*
X166041904Y-96390057D01*
X166041904Y-96390057D02*
X165994285Y-96485295D01*
X165994285Y-96485295D02*
X165994285Y-96532914D01*
X165994285Y-96532914D02*
X166041904Y-96628152D01*
X166041904Y-96628152D02*
X166089523Y-96675771D01*
X166089523Y-96675771D02*
X166184761Y-96723390D01*
X166184761Y-96723390D02*
X166375237Y-96723390D01*
X166375237Y-96723390D02*
X166470475Y-96771009D01*
X166470475Y-96771009D02*
X166518094Y-96818628D01*
X166518094Y-96818628D02*
X166565713Y-96913866D01*
X166565713Y-96913866D02*
X166565713Y-97104342D01*
X166565713Y-97104342D02*
X166518094Y-97199580D01*
X166518094Y-97199580D02*
X166470475Y-97247200D01*
X166470475Y-97247200D02*
X166375237Y-97294819D01*
X166375237Y-97294819D02*
X166184761Y-97294819D01*
X166184761Y-97294819D02*
X166089523Y-97247200D01*
X166089523Y-97247200D02*
X166041904Y-97199580D01*
X166041904Y-97199580D02*
X165994285Y-97104342D01*
X165994285Y-97104342D02*
X165994285Y-96913866D01*
X165994285Y-96913866D02*
X166041904Y-96818628D01*
X166041904Y-96818628D02*
X166089523Y-96771009D01*
X166089523Y-96771009D02*
X166184761Y-96723390D01*
X117032857Y-103394819D02*
X117366190Y-102918628D01*
X117604285Y-103394819D02*
X117604285Y-102394819D01*
X117604285Y-102394819D02*
X117223333Y-102394819D01*
X117223333Y-102394819D02*
X117128095Y-102442438D01*
X117128095Y-102442438D02*
X117080476Y-102490057D01*
X117080476Y-102490057D02*
X117032857Y-102585295D01*
X117032857Y-102585295D02*
X117032857Y-102728152D01*
X117032857Y-102728152D02*
X117080476Y-102823390D01*
X117080476Y-102823390D02*
X117128095Y-102871009D01*
X117128095Y-102871009D02*
X117223333Y-102918628D01*
X117223333Y-102918628D02*
X117604285Y-102918628D01*
X116128095Y-102394819D02*
X116604285Y-102394819D01*
X116604285Y-102394819D02*
X116651904Y-102871009D01*
X116651904Y-102871009D02*
X116604285Y-102823390D01*
X116604285Y-102823390D02*
X116509047Y-102775771D01*
X116509047Y-102775771D02*
X116270952Y-102775771D01*
X116270952Y-102775771D02*
X116175714Y-102823390D01*
X116175714Y-102823390D02*
X116128095Y-102871009D01*
X116128095Y-102871009D02*
X116080476Y-102966247D01*
X116080476Y-102966247D02*
X116080476Y-103204342D01*
X116080476Y-103204342D02*
X116128095Y-103299580D01*
X116128095Y-103299580D02*
X116175714Y-103347200D01*
X116175714Y-103347200D02*
X116270952Y-103394819D01*
X116270952Y-103394819D02*
X116509047Y-103394819D01*
X116509047Y-103394819D02*
X116604285Y-103347200D01*
X116604285Y-103347200D02*
X116651904Y-103299580D01*
X115509047Y-102823390D02*
X115604285Y-102775771D01*
X115604285Y-102775771D02*
X115651904Y-102728152D01*
X115651904Y-102728152D02*
X115699523Y-102632914D01*
X115699523Y-102632914D02*
X115699523Y-102585295D01*
X115699523Y-102585295D02*
X115651904Y-102490057D01*
X115651904Y-102490057D02*
X115604285Y-102442438D01*
X115604285Y-102442438D02*
X115509047Y-102394819D01*
X115509047Y-102394819D02*
X115318571Y-102394819D01*
X115318571Y-102394819D02*
X115223333Y-102442438D01*
X115223333Y-102442438D02*
X115175714Y-102490057D01*
X115175714Y-102490057D02*
X115128095Y-102585295D01*
X115128095Y-102585295D02*
X115128095Y-102632914D01*
X115128095Y-102632914D02*
X115175714Y-102728152D01*
X115175714Y-102728152D02*
X115223333Y-102775771D01*
X115223333Y-102775771D02*
X115318571Y-102823390D01*
X115318571Y-102823390D02*
X115509047Y-102823390D01*
X115509047Y-102823390D02*
X115604285Y-102871009D01*
X115604285Y-102871009D02*
X115651904Y-102918628D01*
X115651904Y-102918628D02*
X115699523Y-103013866D01*
X115699523Y-103013866D02*
X115699523Y-103204342D01*
X115699523Y-103204342D02*
X115651904Y-103299580D01*
X115651904Y-103299580D02*
X115604285Y-103347200D01*
X115604285Y-103347200D02*
X115509047Y-103394819D01*
X115509047Y-103394819D02*
X115318571Y-103394819D01*
X115318571Y-103394819D02*
X115223333Y-103347200D01*
X115223333Y-103347200D02*
X115175714Y-103299580D01*
X115175714Y-103299580D02*
X115128095Y-103204342D01*
X115128095Y-103204342D02*
X115128095Y-103013866D01*
X115128095Y-103013866D02*
X115175714Y-102918628D01*
X115175714Y-102918628D02*
X115223333Y-102871009D01*
X115223333Y-102871009D02*
X115318571Y-102823390D01*
X177221904Y-68584819D02*
X177221904Y-69394342D01*
X177221904Y-69394342D02*
X177174285Y-69489580D01*
X177174285Y-69489580D02*
X177126666Y-69537200D01*
X177126666Y-69537200D02*
X177031428Y-69584819D01*
X177031428Y-69584819D02*
X176840952Y-69584819D01*
X176840952Y-69584819D02*
X176745714Y-69537200D01*
X176745714Y-69537200D02*
X176698095Y-69489580D01*
X176698095Y-69489580D02*
X176650476Y-69394342D01*
X176650476Y-69394342D02*
X176650476Y-68584819D01*
X176269523Y-68584819D02*
X175650476Y-68584819D01*
X175650476Y-68584819D02*
X175983809Y-68965771D01*
X175983809Y-68965771D02*
X175840952Y-68965771D01*
X175840952Y-68965771D02*
X175745714Y-69013390D01*
X175745714Y-69013390D02*
X175698095Y-69061009D01*
X175698095Y-69061009D02*
X175650476Y-69156247D01*
X175650476Y-69156247D02*
X175650476Y-69394342D01*
X175650476Y-69394342D02*
X175698095Y-69489580D01*
X175698095Y-69489580D02*
X175745714Y-69537200D01*
X175745714Y-69537200D02*
X175840952Y-69584819D01*
X175840952Y-69584819D02*
X176126666Y-69584819D01*
X176126666Y-69584819D02*
X176221904Y-69537200D01*
X176221904Y-69537200D02*
X176269523Y-69489580D01*
X121152857Y-81784819D02*
X121486190Y-81308628D01*
X121724285Y-81784819D02*
X121724285Y-80784819D01*
X121724285Y-80784819D02*
X121343333Y-80784819D01*
X121343333Y-80784819D02*
X121248095Y-80832438D01*
X121248095Y-80832438D02*
X121200476Y-80880057D01*
X121200476Y-80880057D02*
X121152857Y-80975295D01*
X121152857Y-80975295D02*
X121152857Y-81118152D01*
X121152857Y-81118152D02*
X121200476Y-81213390D01*
X121200476Y-81213390D02*
X121248095Y-81261009D01*
X121248095Y-81261009D02*
X121343333Y-81308628D01*
X121343333Y-81308628D02*
X121724285Y-81308628D01*
X120771904Y-80880057D02*
X120724285Y-80832438D01*
X120724285Y-80832438D02*
X120629047Y-80784819D01*
X120629047Y-80784819D02*
X120390952Y-80784819D01*
X120390952Y-80784819D02*
X120295714Y-80832438D01*
X120295714Y-80832438D02*
X120248095Y-80880057D01*
X120248095Y-80880057D02*
X120200476Y-80975295D01*
X120200476Y-80975295D02*
X120200476Y-81070533D01*
X120200476Y-81070533D02*
X120248095Y-81213390D01*
X120248095Y-81213390D02*
X120819523Y-81784819D01*
X120819523Y-81784819D02*
X120200476Y-81784819D01*
X119867142Y-80784819D02*
X119200476Y-80784819D01*
X119200476Y-80784819D02*
X119629047Y-81784819D01*
X177906666Y-100489580D02*
X177954285Y-100537200D01*
X177954285Y-100537200D02*
X178097142Y-100584819D01*
X178097142Y-100584819D02*
X178192380Y-100584819D01*
X178192380Y-100584819D02*
X178335237Y-100537200D01*
X178335237Y-100537200D02*
X178430475Y-100441961D01*
X178430475Y-100441961D02*
X178478094Y-100346723D01*
X178478094Y-100346723D02*
X178525713Y-100156247D01*
X178525713Y-100156247D02*
X178525713Y-100013390D01*
X178525713Y-100013390D02*
X178478094Y-99822914D01*
X178478094Y-99822914D02*
X178430475Y-99727676D01*
X178430475Y-99727676D02*
X178335237Y-99632438D01*
X178335237Y-99632438D02*
X178192380Y-99584819D01*
X178192380Y-99584819D02*
X178097142Y-99584819D01*
X178097142Y-99584819D02*
X177954285Y-99632438D01*
X177954285Y-99632438D02*
X177906666Y-99680057D01*
X176954285Y-100584819D02*
X177525713Y-100584819D01*
X177239999Y-100584819D02*
X177239999Y-99584819D01*
X177239999Y-99584819D02*
X177335237Y-99727676D01*
X177335237Y-99727676D02*
X177430475Y-99822914D01*
X177430475Y-99822914D02*
X177525713Y-99870533D01*
X172956666Y-114279580D02*
X173004285Y-114327200D01*
X173004285Y-114327200D02*
X173147142Y-114374819D01*
X173147142Y-114374819D02*
X173242380Y-114374819D01*
X173242380Y-114374819D02*
X173385237Y-114327200D01*
X173385237Y-114327200D02*
X173480475Y-114231961D01*
X173480475Y-114231961D02*
X173528094Y-114136723D01*
X173528094Y-114136723D02*
X173575713Y-113946247D01*
X173575713Y-113946247D02*
X173575713Y-113803390D01*
X173575713Y-113803390D02*
X173528094Y-113612914D01*
X173528094Y-113612914D02*
X173480475Y-113517676D01*
X173480475Y-113517676D02*
X173385237Y-113422438D01*
X173385237Y-113422438D02*
X173242380Y-113374819D01*
X173242380Y-113374819D02*
X173147142Y-113374819D01*
X173147142Y-113374819D02*
X173004285Y-113422438D01*
X173004285Y-113422438D02*
X172956666Y-113470057D01*
X172623332Y-113374819D02*
X172004285Y-113374819D01*
X172004285Y-113374819D02*
X172337618Y-113755771D01*
X172337618Y-113755771D02*
X172194761Y-113755771D01*
X172194761Y-113755771D02*
X172099523Y-113803390D01*
X172099523Y-113803390D02*
X172051904Y-113851009D01*
X172051904Y-113851009D02*
X172004285Y-113946247D01*
X172004285Y-113946247D02*
X172004285Y-114184342D01*
X172004285Y-114184342D02*
X172051904Y-114279580D01*
X172051904Y-114279580D02*
X172099523Y-114327200D01*
X172099523Y-114327200D02*
X172194761Y-114374819D01*
X172194761Y-114374819D02*
X172480475Y-114374819D01*
X172480475Y-114374819D02*
X172575713Y-114327200D01*
X172575713Y-114327200D02*
X172623332Y-114279580D01*
X173066666Y-106369580D02*
X173114285Y-106417200D01*
X173114285Y-106417200D02*
X173257142Y-106464819D01*
X173257142Y-106464819D02*
X173352380Y-106464819D01*
X173352380Y-106464819D02*
X173495237Y-106417200D01*
X173495237Y-106417200D02*
X173590475Y-106321961D01*
X173590475Y-106321961D02*
X173638094Y-106226723D01*
X173638094Y-106226723D02*
X173685713Y-106036247D01*
X173685713Y-106036247D02*
X173685713Y-105893390D01*
X173685713Y-105893390D02*
X173638094Y-105702914D01*
X173638094Y-105702914D02*
X173590475Y-105607676D01*
X173590475Y-105607676D02*
X173495237Y-105512438D01*
X173495237Y-105512438D02*
X173352380Y-105464819D01*
X173352380Y-105464819D02*
X173257142Y-105464819D01*
X173257142Y-105464819D02*
X173114285Y-105512438D01*
X173114285Y-105512438D02*
X173066666Y-105560057D01*
X172733332Y-105464819D02*
X172066666Y-105464819D01*
X172066666Y-105464819D02*
X172495237Y-106464819D01*
X117032857Y-109314819D02*
X117366190Y-108838628D01*
X117604285Y-109314819D02*
X117604285Y-108314819D01*
X117604285Y-108314819D02*
X117223333Y-108314819D01*
X117223333Y-108314819D02*
X117128095Y-108362438D01*
X117128095Y-108362438D02*
X117080476Y-108410057D01*
X117080476Y-108410057D02*
X117032857Y-108505295D01*
X117032857Y-108505295D02*
X117032857Y-108648152D01*
X117032857Y-108648152D02*
X117080476Y-108743390D01*
X117080476Y-108743390D02*
X117128095Y-108791009D01*
X117128095Y-108791009D02*
X117223333Y-108838628D01*
X117223333Y-108838628D02*
X117604285Y-108838628D01*
X116175714Y-108314819D02*
X116366190Y-108314819D01*
X116366190Y-108314819D02*
X116461428Y-108362438D01*
X116461428Y-108362438D02*
X116509047Y-108410057D01*
X116509047Y-108410057D02*
X116604285Y-108552914D01*
X116604285Y-108552914D02*
X116651904Y-108743390D01*
X116651904Y-108743390D02*
X116651904Y-109124342D01*
X116651904Y-109124342D02*
X116604285Y-109219580D01*
X116604285Y-109219580D02*
X116556666Y-109267200D01*
X116556666Y-109267200D02*
X116461428Y-109314819D01*
X116461428Y-109314819D02*
X116270952Y-109314819D01*
X116270952Y-109314819D02*
X116175714Y-109267200D01*
X116175714Y-109267200D02*
X116128095Y-109219580D01*
X116128095Y-109219580D02*
X116080476Y-109124342D01*
X116080476Y-109124342D02*
X116080476Y-108886247D01*
X116080476Y-108886247D02*
X116128095Y-108791009D01*
X116128095Y-108791009D02*
X116175714Y-108743390D01*
X116175714Y-108743390D02*
X116270952Y-108695771D01*
X116270952Y-108695771D02*
X116461428Y-108695771D01*
X116461428Y-108695771D02*
X116556666Y-108743390D01*
X116556666Y-108743390D02*
X116604285Y-108791009D01*
X116604285Y-108791009D02*
X116651904Y-108886247D01*
X115747142Y-108314819D02*
X115128095Y-108314819D01*
X115128095Y-108314819D02*
X115461428Y-108695771D01*
X115461428Y-108695771D02*
X115318571Y-108695771D01*
X115318571Y-108695771D02*
X115223333Y-108743390D01*
X115223333Y-108743390D02*
X115175714Y-108791009D01*
X115175714Y-108791009D02*
X115128095Y-108886247D01*
X115128095Y-108886247D02*
X115128095Y-109124342D01*
X115128095Y-109124342D02*
X115175714Y-109219580D01*
X115175714Y-109219580D02*
X115223333Y-109267200D01*
X115223333Y-109267200D02*
X115318571Y-109314819D01*
X115318571Y-109314819D02*
X115604285Y-109314819D01*
X115604285Y-109314819D02*
X115699523Y-109267200D01*
X115699523Y-109267200D02*
X115747142Y-109219580D01*
X156041904Y-110744819D02*
X156041904Y-111554342D01*
X156041904Y-111554342D02*
X155994285Y-111649580D01*
X155994285Y-111649580D02*
X155946666Y-111697200D01*
X155946666Y-111697200D02*
X155851428Y-111744819D01*
X155851428Y-111744819D02*
X155660952Y-111744819D01*
X155660952Y-111744819D02*
X155565714Y-111697200D01*
X155565714Y-111697200D02*
X155518095Y-111649580D01*
X155518095Y-111649580D02*
X155470476Y-111554342D01*
X155470476Y-111554342D02*
X155470476Y-110744819D01*
X154565714Y-111078152D02*
X154565714Y-111744819D01*
X154803809Y-110697200D02*
X155041904Y-111411485D01*
X155041904Y-111411485D02*
X154422857Y-111411485D01*
X167788094Y-91084819D02*
X167788094Y-91894342D01*
X167788094Y-91894342D02*
X167740475Y-91989580D01*
X167740475Y-91989580D02*
X167692856Y-92037200D01*
X167692856Y-92037200D02*
X167597618Y-92084819D01*
X167597618Y-92084819D02*
X167407142Y-92084819D01*
X167407142Y-92084819D02*
X167311904Y-92037200D01*
X167311904Y-92037200D02*
X167264285Y-91989580D01*
X167264285Y-91989580D02*
X167216666Y-91894342D01*
X167216666Y-91894342D02*
X167216666Y-91084819D01*
X166216666Y-92084819D02*
X166788094Y-92084819D01*
X166502380Y-92084819D02*
X166502380Y-91084819D01*
X166502380Y-91084819D02*
X166597618Y-91227676D01*
X166597618Y-91227676D02*
X166692856Y-91322914D01*
X166692856Y-91322914D02*
X166788094Y-91370533D01*
X165597618Y-91084819D02*
X165502380Y-91084819D01*
X165502380Y-91084819D02*
X165407142Y-91132438D01*
X165407142Y-91132438D02*
X165359523Y-91180057D01*
X165359523Y-91180057D02*
X165311904Y-91275295D01*
X165311904Y-91275295D02*
X165264285Y-91465771D01*
X165264285Y-91465771D02*
X165264285Y-91703866D01*
X165264285Y-91703866D02*
X165311904Y-91894342D01*
X165311904Y-91894342D02*
X165359523Y-91989580D01*
X165359523Y-91989580D02*
X165407142Y-92037200D01*
X165407142Y-92037200D02*
X165502380Y-92084819D01*
X165502380Y-92084819D02*
X165597618Y-92084819D01*
X165597618Y-92084819D02*
X165692856Y-92037200D01*
X165692856Y-92037200D02*
X165740475Y-91989580D01*
X165740475Y-91989580D02*
X165788094Y-91894342D01*
X165788094Y-91894342D02*
X165835713Y-91703866D01*
X165835713Y-91703866D02*
X165835713Y-91465771D01*
X165835713Y-91465771D02*
X165788094Y-91275295D01*
X165788094Y-91275295D02*
X165740475Y-91180057D01*
X165740475Y-91180057D02*
X165692856Y-91132438D01*
X165692856Y-91132438D02*
X165597618Y-91084819D01*
X165888094Y-108324819D02*
X165888094Y-107324819D01*
X165888094Y-107324819D02*
X165649999Y-107324819D01*
X165649999Y-107324819D02*
X165507142Y-107372438D01*
X165507142Y-107372438D02*
X165411904Y-107467676D01*
X165411904Y-107467676D02*
X165364285Y-107562914D01*
X165364285Y-107562914D02*
X165316666Y-107753390D01*
X165316666Y-107753390D02*
X165316666Y-107896247D01*
X165316666Y-107896247D02*
X165364285Y-108086723D01*
X165364285Y-108086723D02*
X165411904Y-108181961D01*
X165411904Y-108181961D02*
X165507142Y-108277200D01*
X165507142Y-108277200D02*
X165649999Y-108324819D01*
X165649999Y-108324819D02*
X165888094Y-108324819D01*
X164983332Y-107324819D02*
X164364285Y-107324819D01*
X164364285Y-107324819D02*
X164697618Y-107705771D01*
X164697618Y-107705771D02*
X164554761Y-107705771D01*
X164554761Y-107705771D02*
X164459523Y-107753390D01*
X164459523Y-107753390D02*
X164411904Y-107801009D01*
X164411904Y-107801009D02*
X164364285Y-107896247D01*
X164364285Y-107896247D02*
X164364285Y-108134342D01*
X164364285Y-108134342D02*
X164411904Y-108229580D01*
X164411904Y-108229580D02*
X164459523Y-108277200D01*
X164459523Y-108277200D02*
X164554761Y-108324819D01*
X164554761Y-108324819D02*
X164840475Y-108324819D01*
X164840475Y-108324819D02*
X164935713Y-108277200D01*
X164935713Y-108277200D02*
X164983332Y-108229580D01*
X173274819Y-82443333D02*
X172798628Y-82110000D01*
X173274819Y-81871905D02*
X172274819Y-81871905D01*
X172274819Y-81871905D02*
X172274819Y-82252857D01*
X172274819Y-82252857D02*
X172322438Y-82348095D01*
X172322438Y-82348095D02*
X172370057Y-82395714D01*
X172370057Y-82395714D02*
X172465295Y-82443333D01*
X172465295Y-82443333D02*
X172608152Y-82443333D01*
X172608152Y-82443333D02*
X172703390Y-82395714D01*
X172703390Y-82395714D02*
X172751009Y-82348095D01*
X172751009Y-82348095D02*
X172798628Y-82252857D01*
X172798628Y-82252857D02*
X172798628Y-81871905D01*
X172703390Y-83014762D02*
X172655771Y-82919524D01*
X172655771Y-82919524D02*
X172608152Y-82871905D01*
X172608152Y-82871905D02*
X172512914Y-82824286D01*
X172512914Y-82824286D02*
X172465295Y-82824286D01*
X172465295Y-82824286D02*
X172370057Y-82871905D01*
X172370057Y-82871905D02*
X172322438Y-82919524D01*
X172322438Y-82919524D02*
X172274819Y-83014762D01*
X172274819Y-83014762D02*
X172274819Y-83205238D01*
X172274819Y-83205238D02*
X172322438Y-83300476D01*
X172322438Y-83300476D02*
X172370057Y-83348095D01*
X172370057Y-83348095D02*
X172465295Y-83395714D01*
X172465295Y-83395714D02*
X172512914Y-83395714D01*
X172512914Y-83395714D02*
X172608152Y-83348095D01*
X172608152Y-83348095D02*
X172655771Y-83300476D01*
X172655771Y-83300476D02*
X172703390Y-83205238D01*
X172703390Y-83205238D02*
X172703390Y-83014762D01*
X172703390Y-83014762D02*
X172751009Y-82919524D01*
X172751009Y-82919524D02*
X172798628Y-82871905D01*
X172798628Y-82871905D02*
X172893866Y-82824286D01*
X172893866Y-82824286D02*
X173084342Y-82824286D01*
X173084342Y-82824286D02*
X173179580Y-82871905D01*
X173179580Y-82871905D02*
X173227200Y-82919524D01*
X173227200Y-82919524D02*
X173274819Y-83014762D01*
X173274819Y-83014762D02*
X173274819Y-83205238D01*
X173274819Y-83205238D02*
X173227200Y-83300476D01*
X173227200Y-83300476D02*
X173179580Y-83348095D01*
X173179580Y-83348095D02*
X173084342Y-83395714D01*
X173084342Y-83395714D02*
X172893866Y-83395714D01*
X172893866Y-83395714D02*
X172798628Y-83348095D01*
X172798628Y-83348095D02*
X172751009Y-83300476D01*
X172751009Y-83300476D02*
X172703390Y-83205238D01*
X132112857Y-81194819D02*
X132446190Y-80718628D01*
X132684285Y-81194819D02*
X132684285Y-80194819D01*
X132684285Y-80194819D02*
X132303333Y-80194819D01*
X132303333Y-80194819D02*
X132208095Y-80242438D01*
X132208095Y-80242438D02*
X132160476Y-80290057D01*
X132160476Y-80290057D02*
X132112857Y-80385295D01*
X132112857Y-80385295D02*
X132112857Y-80528152D01*
X132112857Y-80528152D02*
X132160476Y-80623390D01*
X132160476Y-80623390D02*
X132208095Y-80671009D01*
X132208095Y-80671009D02*
X132303333Y-80718628D01*
X132303333Y-80718628D02*
X132684285Y-80718628D01*
X131731904Y-80290057D02*
X131684285Y-80242438D01*
X131684285Y-80242438D02*
X131589047Y-80194819D01*
X131589047Y-80194819D02*
X131350952Y-80194819D01*
X131350952Y-80194819D02*
X131255714Y-80242438D01*
X131255714Y-80242438D02*
X131208095Y-80290057D01*
X131208095Y-80290057D02*
X131160476Y-80385295D01*
X131160476Y-80385295D02*
X131160476Y-80480533D01*
X131160476Y-80480533D02*
X131208095Y-80623390D01*
X131208095Y-80623390D02*
X131779523Y-81194819D01*
X131779523Y-81194819D02*
X131160476Y-81194819D01*
X130827142Y-80194819D02*
X130208095Y-80194819D01*
X130208095Y-80194819D02*
X130541428Y-80575771D01*
X130541428Y-80575771D02*
X130398571Y-80575771D01*
X130398571Y-80575771D02*
X130303333Y-80623390D01*
X130303333Y-80623390D02*
X130255714Y-80671009D01*
X130255714Y-80671009D02*
X130208095Y-80766247D01*
X130208095Y-80766247D02*
X130208095Y-81004342D01*
X130208095Y-81004342D02*
X130255714Y-81099580D01*
X130255714Y-81099580D02*
X130303333Y-81147200D01*
X130303333Y-81147200D02*
X130398571Y-81194819D01*
X130398571Y-81194819D02*
X130684285Y-81194819D01*
X130684285Y-81194819D02*
X130779523Y-81147200D01*
X130779523Y-81147200D02*
X130827142Y-81099580D01*
X151342857Y-68929580D02*
X151390476Y-68977200D01*
X151390476Y-68977200D02*
X151533333Y-69024819D01*
X151533333Y-69024819D02*
X151628571Y-69024819D01*
X151628571Y-69024819D02*
X151771428Y-68977200D01*
X151771428Y-68977200D02*
X151866666Y-68881961D01*
X151866666Y-68881961D02*
X151914285Y-68786723D01*
X151914285Y-68786723D02*
X151961904Y-68596247D01*
X151961904Y-68596247D02*
X151961904Y-68453390D01*
X151961904Y-68453390D02*
X151914285Y-68262914D01*
X151914285Y-68262914D02*
X151866666Y-68167676D01*
X151866666Y-68167676D02*
X151771428Y-68072438D01*
X151771428Y-68072438D02*
X151628571Y-68024819D01*
X151628571Y-68024819D02*
X151533333Y-68024819D01*
X151533333Y-68024819D02*
X151390476Y-68072438D01*
X151390476Y-68072438D02*
X151342857Y-68120057D01*
X150961904Y-68120057D02*
X150914285Y-68072438D01*
X150914285Y-68072438D02*
X150819047Y-68024819D01*
X150819047Y-68024819D02*
X150580952Y-68024819D01*
X150580952Y-68024819D02*
X150485714Y-68072438D01*
X150485714Y-68072438D02*
X150438095Y-68120057D01*
X150438095Y-68120057D02*
X150390476Y-68215295D01*
X150390476Y-68215295D02*
X150390476Y-68310533D01*
X150390476Y-68310533D02*
X150438095Y-68453390D01*
X150438095Y-68453390D02*
X151009523Y-69024819D01*
X151009523Y-69024819D02*
X150390476Y-69024819D01*
X149819047Y-68453390D02*
X149914285Y-68405771D01*
X149914285Y-68405771D02*
X149961904Y-68358152D01*
X149961904Y-68358152D02*
X150009523Y-68262914D01*
X150009523Y-68262914D02*
X150009523Y-68215295D01*
X150009523Y-68215295D02*
X149961904Y-68120057D01*
X149961904Y-68120057D02*
X149914285Y-68072438D01*
X149914285Y-68072438D02*
X149819047Y-68024819D01*
X149819047Y-68024819D02*
X149628571Y-68024819D01*
X149628571Y-68024819D02*
X149533333Y-68072438D01*
X149533333Y-68072438D02*
X149485714Y-68120057D01*
X149485714Y-68120057D02*
X149438095Y-68215295D01*
X149438095Y-68215295D02*
X149438095Y-68262914D01*
X149438095Y-68262914D02*
X149485714Y-68358152D01*
X149485714Y-68358152D02*
X149533333Y-68405771D01*
X149533333Y-68405771D02*
X149628571Y-68453390D01*
X149628571Y-68453390D02*
X149819047Y-68453390D01*
X149819047Y-68453390D02*
X149914285Y-68501009D01*
X149914285Y-68501009D02*
X149961904Y-68548628D01*
X149961904Y-68548628D02*
X150009523Y-68643866D01*
X150009523Y-68643866D02*
X150009523Y-68834342D01*
X150009523Y-68834342D02*
X149961904Y-68929580D01*
X149961904Y-68929580D02*
X149914285Y-68977200D01*
X149914285Y-68977200D02*
X149819047Y-69024819D01*
X149819047Y-69024819D02*
X149628571Y-69024819D01*
X149628571Y-69024819D02*
X149533333Y-68977200D01*
X149533333Y-68977200D02*
X149485714Y-68929580D01*
X149485714Y-68929580D02*
X149438095Y-68834342D01*
X149438095Y-68834342D02*
X149438095Y-68643866D01*
X149438095Y-68643866D02*
X149485714Y-68548628D01*
X149485714Y-68548628D02*
X149533333Y-68501009D01*
X149533333Y-68501009D02*
X149628571Y-68453390D01*
X175422857Y-86309580D02*
X175470476Y-86357200D01*
X175470476Y-86357200D02*
X175613333Y-86404819D01*
X175613333Y-86404819D02*
X175708571Y-86404819D01*
X175708571Y-86404819D02*
X175851428Y-86357200D01*
X175851428Y-86357200D02*
X175946666Y-86261961D01*
X175946666Y-86261961D02*
X175994285Y-86166723D01*
X175994285Y-86166723D02*
X176041904Y-85976247D01*
X176041904Y-85976247D02*
X176041904Y-85833390D01*
X176041904Y-85833390D02*
X175994285Y-85642914D01*
X175994285Y-85642914D02*
X175946666Y-85547676D01*
X175946666Y-85547676D02*
X175851428Y-85452438D01*
X175851428Y-85452438D02*
X175708571Y-85404819D01*
X175708571Y-85404819D02*
X175613333Y-85404819D01*
X175613333Y-85404819D02*
X175470476Y-85452438D01*
X175470476Y-85452438D02*
X175422857Y-85500057D01*
X175089523Y-85404819D02*
X174470476Y-85404819D01*
X174470476Y-85404819D02*
X174803809Y-85785771D01*
X174803809Y-85785771D02*
X174660952Y-85785771D01*
X174660952Y-85785771D02*
X174565714Y-85833390D01*
X174565714Y-85833390D02*
X174518095Y-85881009D01*
X174518095Y-85881009D02*
X174470476Y-85976247D01*
X174470476Y-85976247D02*
X174470476Y-86214342D01*
X174470476Y-86214342D02*
X174518095Y-86309580D01*
X174518095Y-86309580D02*
X174565714Y-86357200D01*
X174565714Y-86357200D02*
X174660952Y-86404819D01*
X174660952Y-86404819D02*
X174946666Y-86404819D01*
X174946666Y-86404819D02*
X175041904Y-86357200D01*
X175041904Y-86357200D02*
X175089523Y-86309580D01*
X174137142Y-85404819D02*
X173470476Y-85404819D01*
X173470476Y-85404819D02*
X173899047Y-86404819D01*
X127362857Y-77434819D02*
X127696190Y-76958628D01*
X127934285Y-77434819D02*
X127934285Y-76434819D01*
X127934285Y-76434819D02*
X127553333Y-76434819D01*
X127553333Y-76434819D02*
X127458095Y-76482438D01*
X127458095Y-76482438D02*
X127410476Y-76530057D01*
X127410476Y-76530057D02*
X127362857Y-76625295D01*
X127362857Y-76625295D02*
X127362857Y-76768152D01*
X127362857Y-76768152D02*
X127410476Y-76863390D01*
X127410476Y-76863390D02*
X127458095Y-76911009D01*
X127458095Y-76911009D02*
X127553333Y-76958628D01*
X127553333Y-76958628D02*
X127934285Y-76958628D01*
X126981904Y-76530057D02*
X126934285Y-76482438D01*
X126934285Y-76482438D02*
X126839047Y-76434819D01*
X126839047Y-76434819D02*
X126600952Y-76434819D01*
X126600952Y-76434819D02*
X126505714Y-76482438D01*
X126505714Y-76482438D02*
X126458095Y-76530057D01*
X126458095Y-76530057D02*
X126410476Y-76625295D01*
X126410476Y-76625295D02*
X126410476Y-76720533D01*
X126410476Y-76720533D02*
X126458095Y-76863390D01*
X126458095Y-76863390D02*
X127029523Y-77434819D01*
X127029523Y-77434819D02*
X126410476Y-77434819D01*
X125505714Y-76434819D02*
X125981904Y-76434819D01*
X125981904Y-76434819D02*
X126029523Y-76911009D01*
X126029523Y-76911009D02*
X125981904Y-76863390D01*
X125981904Y-76863390D02*
X125886666Y-76815771D01*
X125886666Y-76815771D02*
X125648571Y-76815771D01*
X125648571Y-76815771D02*
X125553333Y-76863390D01*
X125553333Y-76863390D02*
X125505714Y-76911009D01*
X125505714Y-76911009D02*
X125458095Y-77006247D01*
X125458095Y-77006247D02*
X125458095Y-77244342D01*
X125458095Y-77244342D02*
X125505714Y-77339580D01*
X125505714Y-77339580D02*
X125553333Y-77387200D01*
X125553333Y-77387200D02*
X125648571Y-77434819D01*
X125648571Y-77434819D02*
X125886666Y-77434819D01*
X125886666Y-77434819D02*
X125981904Y-77387200D01*
X125981904Y-77387200D02*
X126029523Y-77339580D01*
X168282857Y-81109580D02*
X168330476Y-81157200D01*
X168330476Y-81157200D02*
X168473333Y-81204819D01*
X168473333Y-81204819D02*
X168568571Y-81204819D01*
X168568571Y-81204819D02*
X168711428Y-81157200D01*
X168711428Y-81157200D02*
X168806666Y-81061961D01*
X168806666Y-81061961D02*
X168854285Y-80966723D01*
X168854285Y-80966723D02*
X168901904Y-80776247D01*
X168901904Y-80776247D02*
X168901904Y-80633390D01*
X168901904Y-80633390D02*
X168854285Y-80442914D01*
X168854285Y-80442914D02*
X168806666Y-80347676D01*
X168806666Y-80347676D02*
X168711428Y-80252438D01*
X168711428Y-80252438D02*
X168568571Y-80204819D01*
X168568571Y-80204819D02*
X168473333Y-80204819D01*
X168473333Y-80204819D02*
X168330476Y-80252438D01*
X168330476Y-80252438D02*
X168282857Y-80300057D01*
X167330476Y-81204819D02*
X167901904Y-81204819D01*
X167616190Y-81204819D02*
X167616190Y-80204819D01*
X167616190Y-80204819D02*
X167711428Y-80347676D01*
X167711428Y-80347676D02*
X167806666Y-80442914D01*
X167806666Y-80442914D02*
X167901904Y-80490533D01*
X166711428Y-80204819D02*
X166616190Y-80204819D01*
X166616190Y-80204819D02*
X166520952Y-80252438D01*
X166520952Y-80252438D02*
X166473333Y-80300057D01*
X166473333Y-80300057D02*
X166425714Y-80395295D01*
X166425714Y-80395295D02*
X166378095Y-80585771D01*
X166378095Y-80585771D02*
X166378095Y-80823866D01*
X166378095Y-80823866D02*
X166425714Y-81014342D01*
X166425714Y-81014342D02*
X166473333Y-81109580D01*
X166473333Y-81109580D02*
X166520952Y-81157200D01*
X166520952Y-81157200D02*
X166616190Y-81204819D01*
X166616190Y-81204819D02*
X166711428Y-81204819D01*
X166711428Y-81204819D02*
X166806666Y-81157200D01*
X166806666Y-81157200D02*
X166854285Y-81109580D01*
X166854285Y-81109580D02*
X166901904Y-81014342D01*
X166901904Y-81014342D02*
X166949523Y-80823866D01*
X166949523Y-80823866D02*
X166949523Y-80585771D01*
X166949523Y-80585771D02*
X166901904Y-80395295D01*
X166901904Y-80395295D02*
X166854285Y-80300057D01*
X166854285Y-80300057D02*
X166806666Y-80252438D01*
X166806666Y-80252438D02*
X166711428Y-80204819D01*
X151052857Y-102729580D02*
X151100476Y-102777200D01*
X151100476Y-102777200D02*
X151243333Y-102824819D01*
X151243333Y-102824819D02*
X151338571Y-102824819D01*
X151338571Y-102824819D02*
X151481428Y-102777200D01*
X151481428Y-102777200D02*
X151576666Y-102681961D01*
X151576666Y-102681961D02*
X151624285Y-102586723D01*
X151624285Y-102586723D02*
X151671904Y-102396247D01*
X151671904Y-102396247D02*
X151671904Y-102253390D01*
X151671904Y-102253390D02*
X151624285Y-102062914D01*
X151624285Y-102062914D02*
X151576666Y-101967676D01*
X151576666Y-101967676D02*
X151481428Y-101872438D01*
X151481428Y-101872438D02*
X151338571Y-101824819D01*
X151338571Y-101824819D02*
X151243333Y-101824819D01*
X151243333Y-101824819D02*
X151100476Y-101872438D01*
X151100476Y-101872438D02*
X151052857Y-101920057D01*
X150671904Y-101920057D02*
X150624285Y-101872438D01*
X150624285Y-101872438D02*
X150529047Y-101824819D01*
X150529047Y-101824819D02*
X150290952Y-101824819D01*
X150290952Y-101824819D02*
X150195714Y-101872438D01*
X150195714Y-101872438D02*
X150148095Y-101920057D01*
X150148095Y-101920057D02*
X150100476Y-102015295D01*
X150100476Y-102015295D02*
X150100476Y-102110533D01*
X150100476Y-102110533D02*
X150148095Y-102253390D01*
X150148095Y-102253390D02*
X150719523Y-102824819D01*
X150719523Y-102824819D02*
X150100476Y-102824819D01*
X149148095Y-102824819D02*
X149719523Y-102824819D01*
X149433809Y-102824819D02*
X149433809Y-101824819D01*
X149433809Y-101824819D02*
X149529047Y-101967676D01*
X149529047Y-101967676D02*
X149624285Y-102062914D01*
X149624285Y-102062914D02*
X149719523Y-102110533D01*
X175484819Y-80853333D02*
X175008628Y-80520000D01*
X175484819Y-80281905D02*
X174484819Y-80281905D01*
X174484819Y-80281905D02*
X174484819Y-80662857D01*
X174484819Y-80662857D02*
X174532438Y-80758095D01*
X174532438Y-80758095D02*
X174580057Y-80805714D01*
X174580057Y-80805714D02*
X174675295Y-80853333D01*
X174675295Y-80853333D02*
X174818152Y-80853333D01*
X174818152Y-80853333D02*
X174913390Y-80805714D01*
X174913390Y-80805714D02*
X174961009Y-80758095D01*
X174961009Y-80758095D02*
X175008628Y-80662857D01*
X175008628Y-80662857D02*
X175008628Y-80281905D01*
X174484819Y-81186667D02*
X174484819Y-81853333D01*
X174484819Y-81853333D02*
X175484819Y-81424762D01*
X166311904Y-112414819D02*
X166311904Y-113224342D01*
X166311904Y-113224342D02*
X166264285Y-113319580D01*
X166264285Y-113319580D02*
X166216666Y-113367200D01*
X166216666Y-113367200D02*
X166121428Y-113414819D01*
X166121428Y-113414819D02*
X165930952Y-113414819D01*
X165930952Y-113414819D02*
X165835714Y-113367200D01*
X165835714Y-113367200D02*
X165788095Y-113319580D01*
X165788095Y-113319580D02*
X165740476Y-113224342D01*
X165740476Y-113224342D02*
X165740476Y-112414819D01*
X164740476Y-113414819D02*
X165311904Y-113414819D01*
X165026190Y-113414819D02*
X165026190Y-112414819D01*
X165026190Y-112414819D02*
X165121428Y-112557676D01*
X165121428Y-112557676D02*
X165216666Y-112652914D01*
X165216666Y-112652914D02*
X165311904Y-112700533D01*
%TO.C,U7*%
X112635000Y-82460000D02*
X112635000Y-65140000D01*
X112638036Y-82463036D02*
X116065000Y-85890000D01*
X112885000Y-64890000D02*
X165515000Y-64890000D01*
X112885893Y-64890179D02*
X112635893Y-65140179D01*
X116065000Y-85890000D02*
X165515000Y-85890000D01*
D11*
X122365000Y-64890000D02*
X122615000Y-64890000D01*
X124915000Y-64890000D02*
X125165000Y-64890000D01*
D10*
X165765000Y-65140000D02*
X165515000Y-64890000D01*
X165765000Y-65140000D02*
X165765000Y-85640000D01*
X165765000Y-85640000D02*
X165515000Y-85890000D01*
D11*
%TO.C,R22*%
X142462936Y-69365000D02*
X142917064Y-69365000D01*
X142462936Y-70835000D02*
X142917064Y-70835000D01*
%TO.C,RN1*%
X136800000Y-92460000D02*
X136800000Y-91460000D01*
X140160000Y-92460000D02*
X140160000Y-91460000D01*
%TO.C,R9*%
X170957500Y-79240000D02*
X170957500Y-79420000D01*
X171717500Y-79250000D02*
X171717500Y-79430000D01*
%TO.C,R21*%
X142472936Y-71265000D02*
X142927064Y-71265000D01*
X142472936Y-72735000D02*
X142927064Y-72735000D01*
%TO.C,R18*%
X139137064Y-74185000D02*
X138682936Y-74185000D01*
X139137064Y-75655000D02*
X138682936Y-75655000D01*
%TO.C,C30*%
X134106483Y-76744077D02*
X133583979Y-76744077D01*
X134106483Y-78214077D02*
X133583979Y-78214077D01*
%TO.C,C27*%
X150720000Y-70270000D02*
X150720000Y-70360000D01*
X151440000Y-70270000D02*
X151440000Y-70350000D01*
%TO.C,R28*%
X119912936Y-74955000D02*
X120367064Y-74955000D01*
X119912936Y-76425000D02*
X120367064Y-76425000D01*
%TO.C,D2*%
X124290000Y-62250000D02*
X121030000Y-62250000D01*
X124290000Y-62250000D02*
X124290000Y-63950000D01*
X124290000Y-63950000D02*
X121030000Y-63950000D01*
%TO.C,R32*%
X119952936Y-71675000D02*
X120407064Y-71675000D01*
X119952936Y-73145000D02*
X120407064Y-73145000D01*
%TO.C,R60*%
X119240000Y-105980000D02*
X119060000Y-105980000D01*
X119250000Y-105220000D02*
X119070000Y-105220000D01*
%TO.C,R15*%
X150599564Y-77005000D02*
X150145436Y-77005000D01*
X150599564Y-78475000D02*
X150145436Y-78475000D01*
%TO.C,R31*%
X123422936Y-69385000D02*
X123877064Y-69385000D01*
X123422936Y-70855000D02*
X123877064Y-70855000D01*
%TO.C,D1*%
X174930000Y-109240000D02*
X174930000Y-105980000D01*
X176630000Y-109240000D02*
X174930000Y-109240000D01*
X176630000Y-109240000D02*
X176630000Y-105980000D01*
%TO.C,R10*%
X169717500Y-79310000D02*
X169717500Y-79490000D01*
X170477500Y-79320000D02*
X170477500Y-79500000D01*
%TO.C,R33*%
X119632936Y-69405000D02*
X120087064Y-69405000D01*
X119632936Y-70875000D02*
X120087064Y-70875000D01*
%TO.C,C23*%
X126690000Y-69440000D02*
X126770000Y-69440000D01*
X126690000Y-70160000D02*
X126780000Y-70160000D01*
%TO.C,FB1*%
X175050000Y-102891252D02*
X175050000Y-102368748D01*
X176470000Y-102891252D02*
X176470000Y-102368748D01*
%TO.C,C26*%
X154513752Y-77035000D02*
X153991248Y-77035000D01*
X154513752Y-78505000D02*
X153991248Y-78505000D01*
%TO.C,RN5*%
X140810000Y-97050000D02*
X140810000Y-96050000D01*
X144170000Y-97050000D02*
X144170000Y-96050000D01*
%TO.C,R11*%
X158090000Y-70320000D02*
X158090000Y-70500000D01*
X158850000Y-70330000D02*
X158850000Y-70510000D01*
%TO.C,R4*%
X172250000Y-69360000D02*
X172250000Y-69180000D01*
X173010000Y-69370000D02*
X173010000Y-69190000D01*
%TO.C,R19*%
X139077064Y-76195000D02*
X138622936Y-76195000D01*
X139077064Y-77665000D02*
X138622936Y-77665000D01*
%TO.C,C20*%
X160300000Y-101640000D02*
X160300000Y-101560000D01*
X161020000Y-101640000D02*
X161020000Y-101550000D01*
%TO.C,R14*%
X149015000Y-73872936D02*
X149015000Y-74327064D01*
X150485000Y-73872936D02*
X150485000Y-74327064D01*
%TO.C,R2*%
X169585000Y-99014724D02*
X169585000Y-98505276D01*
X170630000Y-99014724D02*
X170630000Y-98505276D01*
%TO.C,C9*%
X164286248Y-102032500D02*
X164808752Y-102032500D01*
X164286248Y-103502500D02*
X164808752Y-103502500D01*
%TO.C,U6*%
X124917500Y-104785000D02*
X124917500Y-108905000D01*
X124917500Y-108905000D02*
X124972500Y-108905000D01*
X124972500Y-104785000D02*
X124917500Y-104785000D01*
X134982500Y-108905000D02*
X135037500Y-108905000D01*
X135037500Y-104785000D02*
X134982500Y-104785000D01*
X135037500Y-108905000D02*
X135037500Y-104785000D01*
X135317500Y-109685000D02*
X134987500Y-109445000D01*
X135317500Y-109205000D01*
X135317500Y-109685000D01*
G36*
X135317500Y-109685000D02*
G01*
X134987500Y-109445000D01*
X135317500Y-109205000D01*
X135317500Y-109685000D01*
G37*
%TO.C,C19*%
X124000000Y-100910000D02*
X124080000Y-100910000D01*
X124000000Y-101630000D02*
X124090000Y-101630000D01*
%TO.C,U8*%
X144887500Y-74340000D02*
X144887500Y-72540000D01*
X148107500Y-73340000D02*
X148107500Y-72540000D01*
X148107500Y-73340000D02*
X148107500Y-74140000D01*
X148387500Y-74880000D02*
X148057500Y-74640000D01*
X148387500Y-74400000D01*
X148387500Y-74880000D01*
G36*
X148387500Y-74880000D02*
G01*
X148057500Y-74640000D01*
X148387500Y-74400000D01*
X148387500Y-74880000D01*
G37*
%TO.C,C24*%
X158618748Y-72505000D02*
X159141252Y-72505000D01*
X158618748Y-73975000D02*
X159141252Y-73975000D01*
%TO.C,R59*%
X119240000Y-105000000D02*
X119060000Y-105000000D01*
X119250000Y-104240000D02*
X119070000Y-104240000D01*
%TO.C,R6*%
X169750000Y-69360000D02*
X169750000Y-69180000D01*
X170510000Y-69370000D02*
X170510000Y-69190000D01*
%TO.C,L1*%
X170308752Y-105480000D02*
X169786248Y-105480000D01*
X170308752Y-106900000D02*
X169786248Y-106900000D01*
%TO.C,R30*%
X116257064Y-77795000D02*
X115802936Y-77795000D01*
X116257064Y-79265000D02*
X115802936Y-79265000D01*
%TO.C,R1*%
X166612776Y-99067500D02*
X167122224Y-99067500D01*
X166612776Y-100112500D02*
X167122224Y-100112500D01*
%TO.C,RN6*%
X146080000Y-97200000D02*
X146080000Y-96200000D01*
X149440000Y-97200000D02*
X149440000Y-96200000D01*
%TO.C,C2*%
X173625000Y-110937500D02*
X173625000Y-111027500D01*
X174345000Y-110937500D02*
X174345000Y-111017500D01*
%TO.C,RN2*%
X140610000Y-92460000D02*
X140610000Y-91460000D01*
X143970000Y-92460000D02*
X143970000Y-91460000D01*
%TO.C,R62*%
X119240000Y-107940000D02*
X119060000Y-107940000D01*
X119250000Y-107180000D02*
X119070000Y-107180000D01*
%TO.C,C32*%
X126305000Y-79811252D02*
X126305000Y-79288748D01*
X127775000Y-79811252D02*
X127775000Y-79288748D01*
%TO.C,R29*%
X116367064Y-74955000D02*
X115912936Y-74955000D01*
X116367064Y-76425000D02*
X115912936Y-76425000D01*
%TO.C,C22*%
X135580000Y-103940000D02*
X135580000Y-103860000D01*
X136300000Y-103940000D02*
X136300000Y-103850000D01*
%TO.C,C35*%
X120171252Y-77715000D02*
X119648748Y-77715000D01*
X120171252Y-79185000D02*
X119648748Y-79185000D01*
%TO.C,U9*%
X122390000Y-74830000D02*
X122390000Y-73030000D01*
X125610000Y-73830000D02*
X125610000Y-73030000D01*
X125610000Y-73830000D02*
X125610000Y-74630000D01*
X125890000Y-75370000D02*
X125560000Y-75130000D01*
X125890000Y-74890000D01*
X125890000Y-75370000D01*
G36*
X125890000Y-75370000D02*
G01*
X125560000Y-75130000D01*
X125890000Y-74890000D01*
X125890000Y-75370000D01*
G37*
%TO.C,C36*%
X129390000Y-93360000D02*
X129470000Y-93360000D01*
X129390000Y-94080000D02*
X129480000Y-94080000D01*
%TO.C,RN4*%
X136600000Y-96800000D02*
X136600000Y-95800000D01*
X139960000Y-96800000D02*
X139960000Y-95800000D01*
%TO.C,C33*%
X128660000Y-70500000D02*
X128660000Y-70590000D01*
X129380000Y-70500000D02*
X129380000Y-70580000D01*
%TO.C,R61*%
X119240000Y-106960000D02*
X119060000Y-106960000D01*
X119250000Y-106200000D02*
X119070000Y-106200000D01*
%TO.C,C34*%
X129790000Y-70520000D02*
X129790000Y-70610000D01*
X130510000Y-70520000D02*
X130510000Y-70600000D01*
%TO.C,R5*%
X171010000Y-69360000D02*
X171010000Y-69180000D01*
X171770000Y-69370000D02*
X171770000Y-69190000D01*
%TO.C,C29*%
X142961252Y-76195000D02*
X142438748Y-76195000D01*
X142961252Y-77665000D02*
X142438748Y-77665000D01*
%TO.C,C4*%
X171295000Y-110917500D02*
X171295000Y-111007500D01*
X172015000Y-110917500D02*
X172015000Y-110997500D01*
%TO.C,R26*%
X124295000Y-79292936D02*
X124295000Y-79747064D01*
X125765000Y-79292936D02*
X125765000Y-79747064D01*
%TO.C,U5*%
X137187500Y-104795000D02*
X137187500Y-108915000D01*
X137187500Y-108915000D02*
X137242500Y-108915000D01*
X137242500Y-104795000D02*
X137187500Y-104795000D01*
X147252500Y-108915000D02*
X147307500Y-108915000D01*
X147307500Y-104795000D02*
X147252500Y-104795000D01*
X147307500Y-108915000D02*
X147307500Y-104795000D01*
X147587500Y-109695000D02*
X147257500Y-109455000D01*
X147587500Y-109215000D01*
X147587500Y-109695000D01*
G36*
X147587500Y-109695000D02*
G01*
X147257500Y-109455000D01*
X147587500Y-109215000D01*
X147587500Y-109695000D01*
G37*
%TO.C,R12*%
X158329564Y-77025000D02*
X157875436Y-77025000D01*
X158329564Y-78495000D02*
X157875436Y-78495000D01*
%TO.C,D4*%
X122590000Y-102160000D02*
X122590000Y-105420000D01*
X122590000Y-102160000D02*
X124290000Y-102160000D01*
X124290000Y-102160000D02*
X124290000Y-105420000D01*
%TO.C,RN3*%
X149430000Y-91250000D02*
X150430000Y-91250000D01*
X149430000Y-94610000D02*
X150430000Y-94610000D01*
%TO.C,U2*%
X168417500Y-101187500D02*
X170217500Y-101187500D01*
X169417500Y-104407500D02*
X168617500Y-104407500D01*
X169417500Y-104407500D02*
X170217500Y-104407500D01*
X168357500Y-104687500D02*
X167877500Y-104687500D01*
X168117500Y-104357500D01*
X168357500Y-104687500D01*
G36*
X168357500Y-104687500D02*
G01*
X167877500Y-104687500D01*
X168117500Y-104357500D01*
X168357500Y-104687500D01*
G37*
%TO.C,C25*%
X151725000Y-74361252D02*
X151725000Y-73838748D01*
X153195000Y-74361252D02*
X153195000Y-73838748D01*
%TO.C,C6*%
X161950000Y-109650000D02*
X161950000Y-109740000D01*
X162670000Y-109650000D02*
X162670000Y-109730000D01*
%TO.C,C5*%
X163180000Y-110243733D02*
X163180000Y-110536267D01*
X164200000Y-110243733D02*
X164200000Y-110536267D01*
%TO.C,R13*%
X154435000Y-73682936D02*
X154435000Y-74137064D01*
X155905000Y-73682936D02*
X155905000Y-74137064D01*
%TO.C,C31*%
X129245000Y-74681252D02*
X129245000Y-74158748D01*
X130715000Y-74681252D02*
X130715000Y-74158748D01*
%TO.C,R24*%
X131955000Y-74122936D02*
X131955000Y-74577064D01*
X133425000Y-74122936D02*
X133425000Y-74577064D01*
%TO.C,R17*%
X142522936Y-74165000D02*
X142977064Y-74165000D01*
X142522936Y-75635000D02*
X142977064Y-75635000D01*
%TO.C,R20*%
X146362936Y-69345000D02*
X146817064Y-69345000D01*
X146362936Y-70815000D02*
X146817064Y-70815000D01*
%TO.C,R16*%
X146255436Y-76975000D02*
X146709564Y-76975000D01*
X146255436Y-78445000D02*
X146709564Y-78445000D01*
%TO.C,R64*%
X119240000Y-109900000D02*
X119060000Y-109900000D01*
X119250000Y-109140000D02*
X119070000Y-109140000D01*
%TO.C,R65*%
X119240000Y-110880000D02*
X119060000Y-110880000D01*
X119250000Y-110120000D02*
X119070000Y-110120000D01*
%TO.C,R3*%
X160322500Y-71010000D02*
X160142500Y-71010000D01*
X160332500Y-70250000D02*
X160152500Y-70250000D01*
%TO.C,C38*%
X169380000Y-86670000D02*
X169290000Y-86670000D01*
X169380000Y-87390000D02*
X169300000Y-87390000D01*
%TO.C,C8*%
X166947500Y-97660000D02*
X167027500Y-97660000D01*
X166947500Y-98380000D02*
X167037500Y-98380000D01*
%TO.C,R58*%
X119240000Y-104020000D02*
X119060000Y-104020000D01*
X119250000Y-103260000D02*
X119070000Y-103260000D01*
%TO.C,U3*%
X166987500Y-72360000D02*
X166987500Y-76480000D01*
X166987500Y-76480000D02*
X167042500Y-76480000D01*
X167042500Y-72360000D02*
X166987500Y-72360000D01*
X177052500Y-76480000D02*
X177107500Y-76480000D01*
X177107500Y-72360000D02*
X177052500Y-72360000D01*
X177107500Y-76480000D02*
X177107500Y-72360000D01*
X167037500Y-71820000D02*
X166707500Y-72060000D01*
X166707500Y-71580000D01*
X167037500Y-71820000D01*
G36*
X167037500Y-71820000D02*
G01*
X166707500Y-72060000D01*
X166707500Y-71580000D01*
X167037500Y-71820000D01*
G37*
%TO.C,R27*%
X122195000Y-79282936D02*
X122195000Y-79737064D01*
X123665000Y-79282936D02*
X123665000Y-79737064D01*
%TO.C,C1*%
X175230000Y-99820000D02*
X175140000Y-99820000D01*
X175230000Y-100540000D02*
X175150000Y-100540000D01*
%TO.C,C3*%
X172405000Y-110927500D02*
X172405000Y-111017500D01*
X173125000Y-110927500D02*
X173125000Y-111007500D01*
%TO.C,C7*%
X172650000Y-103473733D02*
X172650000Y-103766267D01*
X173670000Y-103473733D02*
X173670000Y-103766267D01*
%TO.C,R63*%
X119240000Y-108920000D02*
X119060000Y-108920000D01*
X119250000Y-108160000D02*
X119070000Y-108160000D01*
%TO.C,U4*%
X150220000Y-104670000D02*
X150220000Y-108790000D01*
X150220000Y-108790000D02*
X150275000Y-108790000D01*
X150275000Y-104670000D02*
X150220000Y-104670000D01*
X160285000Y-108790000D02*
X160340000Y-108790000D01*
X160340000Y-104670000D02*
X160285000Y-104670000D01*
X160340000Y-108790000D02*
X160340000Y-104670000D01*
X160620000Y-109570000D02*
X160290000Y-109330000D01*
X160620000Y-109090000D01*
X160620000Y-109570000D01*
G36*
X160620000Y-109570000D02*
G01*
X160290000Y-109330000D01*
X160620000Y-109090000D01*
X160620000Y-109570000D01*
G37*
D10*
%TO.C,U10*%
X169625000Y-95915000D02*
X174245000Y-95915000D01*
X174245000Y-87845000D02*
X169625000Y-87845000D01*
X176125000Y-88540000D02*
X175795000Y-88300000D01*
X176125000Y-88060000D01*
X176125000Y-88540000D01*
G36*
X176125000Y-88540000D02*
G01*
X175795000Y-88300000D01*
X176125000Y-88060000D01*
X176125000Y-88540000D01*
G37*
D11*
%TO.C,D3*%
X163167500Y-105450000D02*
X166427500Y-105450000D01*
X163167500Y-107150000D02*
X163167500Y-105450000D01*
X163167500Y-107150000D02*
X166427500Y-107150000D01*
%TO.C,R8*%
X172207500Y-79210000D02*
X172207500Y-79390000D01*
X172967500Y-79220000D02*
X172967500Y-79400000D01*
%TO.C,R23*%
X128365000Y-79282936D02*
X128365000Y-79737064D01*
X129835000Y-79282936D02*
X129835000Y-79737064D01*
%TO.C,C28*%
X149540000Y-70350000D02*
X149540000Y-70270000D01*
X150260000Y-70350000D02*
X150260000Y-70260000D01*
%TO.C,C37*%
X174725000Y-86770000D02*
X174635000Y-86770000D01*
X174725000Y-87490000D02*
X174645000Y-87490000D01*
%TO.C,R25*%
X126545000Y-74152936D02*
X126545000Y-74607064D01*
X128015000Y-74152936D02*
X128015000Y-74607064D01*
%TO.C,C10*%
X168167500Y-78270000D02*
X168247500Y-78270000D01*
X168167500Y-78990000D02*
X168257500Y-78990000D01*
%TO.C,C21*%
X148100000Y-103910000D02*
X148100000Y-103830000D01*
X148820000Y-103910000D02*
X148820000Y-103820000D01*
%TO.C,R7*%
X173557500Y-79150000D02*
X173557500Y-79330000D01*
X174317500Y-79160000D02*
X174317500Y-79340000D01*
%TO.C,U1*%
X167330000Y-111850000D02*
X166530000Y-111850000D01*
X167330000Y-111850000D02*
X168130000Y-111850000D01*
X168130000Y-108690000D02*
X166670000Y-108690000D01*
X168130000Y-108690000D02*
X168130000Y-109620000D01*
X168130000Y-111850000D02*
X168130000Y-110920000D01*
X166270000Y-112210000D02*
X165790000Y-112210000D01*
X166030000Y-111880000D01*
X166270000Y-112210000D01*
G36*
X166270000Y-112210000D02*
G01*
X165790000Y-112210000D01*
X166030000Y-111880000D01*
X166270000Y-112210000D01*
G37*
%TD*%
%LPC*%
D12*
%TO.C,U7*%
X116135000Y-84280000D03*
X118675000Y-84280000D03*
X121215000Y-84280000D03*
X123755000Y-84280000D03*
X126295000Y-84280000D03*
D13*
X128835000Y-84280000D03*
D12*
X131375000Y-84280000D03*
X133915000Y-84280000D03*
X136455000Y-84280000D03*
X138995000Y-84280000D03*
X141535000Y-84280000D03*
X144075000Y-84280000D03*
X146615000Y-84280000D03*
X149155000Y-84280000D03*
D13*
X151695000Y-84280000D03*
D12*
X154235000Y-84280000D03*
X156775000Y-84280000D03*
X159315000Y-84280000D03*
X161855000Y-84280000D03*
X164395000Y-84280000D03*
X164395000Y-66500000D03*
X161855000Y-66500000D03*
X159315000Y-66500000D03*
X156775000Y-66500000D03*
X154235000Y-66500000D03*
X151695000Y-66500000D03*
X149155000Y-66500000D03*
X146615000Y-66500000D03*
D13*
X144075000Y-66500000D03*
D12*
X141535000Y-66500000D03*
X138995000Y-66500000D03*
X136455000Y-66500000D03*
X133915000Y-66500000D03*
X131375000Y-66500000D03*
D13*
X128835000Y-66500000D03*
D12*
X126295000Y-66500000D03*
X123755000Y-66500000D03*
D13*
X121215000Y-66500000D03*
D12*
X118675000Y-66500000D03*
X116135000Y-66500000D03*
X164390000Y-79220000D03*
D13*
X164390000Y-76680000D03*
D12*
X164390000Y-74140000D03*
X164390000Y-71600000D03*
%TD*%
D14*
%TO.C,MHP2*%
X187650000Y-112820000D03*
%TD*%
%TO.C,MHP1*%
X113980000Y-62630000D03*
%TD*%
D15*
%TO.C,J1*%
X131425000Y-112930000D03*
X131425000Y-98430000D03*
D16*
X125465000Y-112930000D03*
X125465000Y-98430000D03*
%TD*%
D17*
%TO.C,R22*%
X141690000Y-70100000D03*
X143690000Y-70100000D03*
%TD*%
D18*
%TO.C,RN1*%
X137280000Y-91060000D03*
D19*
X138080000Y-91060000D03*
X138880000Y-91060000D03*
D18*
X139680000Y-91060000D03*
X139680000Y-92860000D03*
D19*
X138880000Y-92860000D03*
X138080000Y-92860000D03*
D18*
X137280000Y-92860000D03*
%TD*%
D20*
%TO.C,R9*%
X171337500Y-78732500D03*
X171337500Y-79927500D03*
%TD*%
D17*
%TO.C,R21*%
X141700000Y-72000000D03*
X143700000Y-72000000D03*
%TD*%
D21*
%TO.C,R18*%
X139910000Y-74920000D03*
X137910000Y-74920000D03*
%TD*%
D22*
%TO.C,C30*%
X134882731Y-77479077D03*
X132807731Y-77479077D03*
%TD*%
D23*
%TO.C,C27*%
X151080000Y-69742500D03*
X151080000Y-70877500D03*
%TD*%
D17*
%TO.C,R28*%
X119140000Y-75690000D03*
X121140000Y-75690000D03*
%TD*%
D24*
%TO.C,D2*%
X123530000Y-63100000D03*
X121030000Y-63100000D03*
%TD*%
D17*
%TO.C,R32*%
X119180000Y-72410000D03*
X121180000Y-72410000D03*
%TD*%
D25*
%TO.C,R60*%
X119757500Y-105600000D03*
X118562500Y-105600000D03*
%TD*%
D21*
%TO.C,R15*%
X151372500Y-77740000D03*
X149372500Y-77740000D03*
%TD*%
D17*
%TO.C,R31*%
X122650000Y-70120000D03*
X124650000Y-70120000D03*
%TD*%
D26*
%TO.C,D1*%
X175780000Y-108480000D03*
X175780000Y-105980000D03*
%TD*%
D20*
%TO.C,R10*%
X170097500Y-78802500D03*
X170097500Y-79997500D03*
%TD*%
D17*
%TO.C,R33*%
X118860000Y-70140000D03*
X120860000Y-70140000D03*
%TD*%
D27*
%TO.C,C23*%
X126162500Y-69800000D03*
X127297500Y-69800000D03*
%TD*%
D28*
%TO.C,FB1*%
X175760000Y-103655000D03*
X175760000Y-101605000D03*
%TD*%
D22*
%TO.C,C26*%
X155290000Y-77770000D03*
X153215000Y-77770000D03*
%TD*%
D18*
%TO.C,RN5*%
X141290000Y-95650000D03*
D19*
X142090000Y-95650000D03*
X142890000Y-95650000D03*
D18*
X143690000Y-95650000D03*
X143690000Y-97450000D03*
D19*
X142890000Y-97450000D03*
X142090000Y-97450000D03*
D18*
X141290000Y-97450000D03*
%TD*%
D20*
%TO.C,R11*%
X158470000Y-69812500D03*
X158470000Y-71007500D03*
%TD*%
D29*
%TO.C,R4*%
X172630000Y-69877500D03*
X172630000Y-68682500D03*
%TD*%
D21*
%TO.C,R19*%
X139850000Y-76930000D03*
X137850000Y-76930000D03*
%TD*%
D30*
%TO.C,C20*%
X160660000Y-102167500D03*
X160660000Y-101032500D03*
%TD*%
D31*
%TO.C,R14*%
X149750000Y-73100000D03*
X149750000Y-75100000D03*
%TD*%
D32*
%TO.C,R2*%
X170107500Y-99672500D03*
X170107500Y-97847500D03*
%TD*%
D33*
%TO.C,C9*%
X163510000Y-102767500D03*
X165585000Y-102767500D03*
%TD*%
D34*
%TO.C,U6*%
X134422500Y-109420000D03*
X133152500Y-109420000D03*
X131882500Y-109420000D03*
X130612500Y-109420000D03*
X129342500Y-109420000D03*
X128072500Y-109420000D03*
X126802500Y-109420000D03*
X125532500Y-109420000D03*
X125532500Y-104270000D03*
X126802500Y-104270000D03*
X128072500Y-104270000D03*
X129342500Y-104270000D03*
X130612500Y-104270000D03*
X131882500Y-104270000D03*
X133152500Y-104270000D03*
X134422500Y-104270000D03*
%TD*%
D27*
%TO.C,C19*%
X123472500Y-101270000D03*
X124607500Y-101270000D03*
%TD*%
D35*
%TO.C,U8*%
X147447500Y-74790000D03*
X146497500Y-74790000D03*
X145547500Y-74790000D03*
X145547500Y-72090000D03*
X147447500Y-72090000D03*
%TD*%
D33*
%TO.C,C24*%
X157842500Y-73240000D03*
X159917500Y-73240000D03*
%TD*%
D25*
%TO.C,R59*%
X119757500Y-104620000D03*
X118562500Y-104620000D03*
%TD*%
D29*
%TO.C,R6*%
X170130000Y-69877500D03*
X170130000Y-68682500D03*
%TD*%
D36*
%TO.C,L1*%
X171072500Y-106190000D03*
X169022500Y-106190000D03*
%TD*%
D21*
%TO.C,R30*%
X117030000Y-78530000D03*
X115030000Y-78530000D03*
%TD*%
D37*
%TO.C,R1*%
X165955000Y-99590000D03*
X167780000Y-99590000D03*
%TD*%
D18*
%TO.C,RN6*%
X146560000Y-95800000D03*
D19*
X147360000Y-95800000D03*
X148160000Y-95800000D03*
D18*
X148960000Y-95800000D03*
X148960000Y-97600000D03*
D19*
X148160000Y-97600000D03*
X147360000Y-97600000D03*
D18*
X146560000Y-97600000D03*
%TD*%
D23*
%TO.C,C2*%
X173985000Y-110410000D03*
X173985000Y-111545000D03*
%TD*%
D18*
%TO.C,RN2*%
X141090000Y-91060000D03*
D19*
X141890000Y-91060000D03*
X142690000Y-91060000D03*
D18*
X143490000Y-91060000D03*
X143490000Y-92860000D03*
D19*
X142690000Y-92860000D03*
X141890000Y-92860000D03*
D18*
X141090000Y-92860000D03*
%TD*%
D25*
%TO.C,R62*%
X119757500Y-107560000D03*
X118562500Y-107560000D03*
%TD*%
D38*
%TO.C,C32*%
X127040000Y-80587500D03*
X127040000Y-78512500D03*
%TD*%
D21*
%TO.C,R29*%
X117140000Y-75690000D03*
X115140000Y-75690000D03*
%TD*%
D30*
%TO.C,C22*%
X135940000Y-104467500D03*
X135940000Y-103332500D03*
%TD*%
D22*
%TO.C,C35*%
X120947500Y-78450000D03*
X118872500Y-78450000D03*
%TD*%
D35*
%TO.C,U9*%
X124950000Y-75280000D03*
X124000000Y-75280000D03*
X123050000Y-75280000D03*
X123050000Y-72580000D03*
X124950000Y-72580000D03*
%TD*%
D27*
%TO.C,C36*%
X128862500Y-93720000D03*
X129997500Y-93720000D03*
%TD*%
D18*
%TO.C,RN4*%
X137080000Y-95400000D03*
D19*
X137880000Y-95400000D03*
X138680000Y-95400000D03*
D18*
X139480000Y-95400000D03*
X139480000Y-97200000D03*
D19*
X138680000Y-97200000D03*
X137880000Y-97200000D03*
D18*
X137080000Y-97200000D03*
%TD*%
D23*
%TO.C,C33*%
X129020000Y-69972500D03*
X129020000Y-71107500D03*
%TD*%
D25*
%TO.C,R61*%
X119757500Y-106580000D03*
X118562500Y-106580000D03*
%TD*%
D23*
%TO.C,C34*%
X130150000Y-69992500D03*
X130150000Y-71127500D03*
%TD*%
D29*
%TO.C,R5*%
X171390000Y-69877500D03*
X171390000Y-68682500D03*
%TD*%
D22*
%TO.C,C29*%
X143737500Y-76930000D03*
X141662500Y-76930000D03*
%TD*%
D23*
%TO.C,C4*%
X171655000Y-110390000D03*
X171655000Y-111525000D03*
%TD*%
D31*
%TO.C,R26*%
X125030000Y-78520000D03*
X125030000Y-80520000D03*
%TD*%
D34*
%TO.C,U5*%
X146692500Y-109430000D03*
X145422500Y-109430000D03*
X144152500Y-109430000D03*
X142882500Y-109430000D03*
X141612500Y-109430000D03*
X140342500Y-109430000D03*
X139072500Y-109430000D03*
X137802500Y-109430000D03*
X137802500Y-104280000D03*
X139072500Y-104280000D03*
X140342500Y-104280000D03*
X141612500Y-104280000D03*
X142882500Y-104280000D03*
X144152500Y-104280000D03*
X145422500Y-104280000D03*
X146692500Y-104280000D03*
%TD*%
D21*
%TO.C,R12*%
X159102500Y-77760000D03*
X157102500Y-77760000D03*
%TD*%
D39*
%TO.C,D4*%
X123440000Y-102920000D03*
X123440000Y-105420000D03*
%TD*%
D40*
%TO.C,RN3*%
X150830000Y-91730000D03*
D41*
X150830000Y-92530000D03*
X150830000Y-93330000D03*
D40*
X150830000Y-94130000D03*
X149030000Y-94130000D03*
D41*
X149030000Y-93330000D03*
X149030000Y-92530000D03*
D40*
X149030000Y-91730000D03*
%TD*%
D42*
%TO.C,U2*%
X167967500Y-103747500D03*
X167967500Y-102797500D03*
X167967500Y-101847500D03*
X170667500Y-101847500D03*
X170667500Y-103747500D03*
%TD*%
D38*
%TO.C,C25*%
X152460000Y-75137500D03*
X152460000Y-73062500D03*
%TD*%
D23*
%TO.C,C6*%
X162310000Y-109122500D03*
X162310000Y-110257500D03*
%TD*%
D43*
%TO.C,C5*%
X163690000Y-109527500D03*
X163690000Y-111252500D03*
%TD*%
D31*
%TO.C,R13*%
X155170000Y-72910000D03*
X155170000Y-74910000D03*
%TD*%
D38*
%TO.C,C31*%
X129980000Y-75457500D03*
X129980000Y-73382500D03*
%TD*%
D31*
%TO.C,R24*%
X132690000Y-73350000D03*
X132690000Y-75350000D03*
%TD*%
D17*
%TO.C,R17*%
X141750000Y-74900000D03*
X143750000Y-74900000D03*
%TD*%
%TO.C,R20*%
X145590000Y-70080000D03*
X147590000Y-70080000D03*
%TD*%
%TO.C,R16*%
X145482500Y-77710000D03*
X147482500Y-77710000D03*
%TD*%
D25*
%TO.C,R64*%
X119757500Y-109520000D03*
X118562500Y-109520000D03*
%TD*%
%TO.C,R65*%
X119757500Y-110500000D03*
X118562500Y-110500000D03*
%TD*%
%TO.C,R3*%
X160840000Y-70630000D03*
X159645000Y-70630000D03*
%TD*%
D44*
%TO.C,C38*%
X169907500Y-87030000D03*
X168772500Y-87030000D03*
%TD*%
D27*
%TO.C,C8*%
X166420000Y-98020000D03*
X167555000Y-98020000D03*
%TD*%
D25*
%TO.C,R58*%
X119757500Y-103640000D03*
X118562500Y-103640000D03*
%TD*%
D45*
%TO.C,U3*%
X167602500Y-71845000D03*
X168872500Y-71845000D03*
X170142500Y-71845000D03*
X171412500Y-71845000D03*
X172682500Y-71845000D03*
X173952500Y-71845000D03*
X175222500Y-71845000D03*
X176492500Y-71845000D03*
X176492500Y-76995000D03*
X175222500Y-76995000D03*
X173952500Y-76995000D03*
X172682500Y-76995000D03*
X171412500Y-76995000D03*
X170142500Y-76995000D03*
X168872500Y-76995000D03*
X167602500Y-76995000D03*
%TD*%
D31*
%TO.C,R27*%
X122930000Y-78510000D03*
X122930000Y-80510000D03*
%TD*%
D44*
%TO.C,C1*%
X175757500Y-100180000D03*
X174622500Y-100180000D03*
%TD*%
D23*
%TO.C,C3*%
X172765000Y-110400000D03*
X172765000Y-111535000D03*
%TD*%
D43*
%TO.C,C7*%
X173160000Y-102757500D03*
X173160000Y-104482500D03*
%TD*%
D25*
%TO.C,R63*%
X119757500Y-108540000D03*
X118562500Y-108540000D03*
%TD*%
D34*
%TO.C,U4*%
X159725000Y-109305000D03*
X158455000Y-109305000D03*
X157185000Y-109305000D03*
X155915000Y-109305000D03*
X154645000Y-109305000D03*
X153375000Y-109305000D03*
X152105000Y-109305000D03*
X150835000Y-109305000D03*
X150835000Y-104155000D03*
X152105000Y-104155000D03*
X153375000Y-104155000D03*
X154645000Y-104155000D03*
X155915000Y-104155000D03*
X157185000Y-104155000D03*
X158455000Y-104155000D03*
X159725000Y-104155000D03*
%TD*%
D46*
%TO.C,U10*%
X174797500Y-88305000D03*
X174797500Y-88955000D03*
X174797500Y-89605000D03*
X174797500Y-90255000D03*
X174797500Y-90905000D03*
X174797500Y-91555000D03*
X174797500Y-92205000D03*
X174797500Y-92855000D03*
X174797500Y-93505000D03*
X174797500Y-94155000D03*
X174797500Y-94805000D03*
X174797500Y-95455000D03*
X169072500Y-95455000D03*
X169072500Y-94805000D03*
X169072500Y-94155000D03*
X169072500Y-93505000D03*
X169072500Y-92855000D03*
X169072500Y-92205000D03*
X169072500Y-91555000D03*
X169072500Y-90905000D03*
X169072500Y-90255000D03*
X169072500Y-89605000D03*
X169072500Y-88955000D03*
X169072500Y-88305000D03*
%TD*%
D47*
%TO.C,D3*%
X163927500Y-106300000D03*
X166427500Y-106300000D03*
%TD*%
D20*
%TO.C,R8*%
X172587500Y-78702500D03*
X172587500Y-79897500D03*
%TD*%
D31*
%TO.C,R23*%
X129100000Y-78510000D03*
X129100000Y-80510000D03*
%TD*%
D30*
%TO.C,C28*%
X149900000Y-70877500D03*
X149900000Y-69742500D03*
%TD*%
D44*
%TO.C,C37*%
X175252500Y-87130000D03*
X174117500Y-87130000D03*
%TD*%
D31*
%TO.C,R25*%
X127280000Y-73380000D03*
X127280000Y-75380000D03*
%TD*%
D27*
%TO.C,C10*%
X167640000Y-78630000D03*
X168775000Y-78630000D03*
%TD*%
D30*
%TO.C,C21*%
X148460000Y-104437500D03*
X148460000Y-103302500D03*
%TD*%
D20*
%TO.C,R7*%
X173937500Y-78642500D03*
X173937500Y-79837500D03*
%TD*%
D48*
%TO.C,U1*%
X165870000Y-111220000D03*
X165870000Y-109320000D03*
X168870000Y-110270000D03*
%TD*%
%LPD*%
M02*
