%TF.GenerationSoftware,KiCad,Pcbnew,9.0.6*%
%TF.CreationDate,2025-12-19T16:30:06+00:00*%
%TF.ProjectId,GG_LCD_DIY,47475f4c-4344-45f4-9449-592e6b696361,rev?*%
%TF.SameCoordinates,Original*%
%TF.FileFunction,Legend,Top*%
%TF.FilePolarity,Positive*%
%FSLAX46Y46*%
G04 Gerber Fmt 4.6, Leading zero omitted, Abs format (unit mm)*
G04 Created by KiCad (PCBNEW 9.0.6) date 2025-12-19 16:30:06*
%MOMM*%
%LPD*%
G01*
G04 APERTURE LIST*
G04 Aperture macros list*
%AMRoundRect*
0 Rectangle with rounded corners*
0 $1 Rounding radius*
0 $2 $3 $4 $5 $6 $7 $8 $9 X,Y pos of 4 corners*
0 Add a 4 corners polygon primitive as box body*
4,1,4,$2,$3,$4,$5,$6,$7,$8,$9,$2,$3,0*
0 Add four circle primitives for the rounded corners*
1,1,$1+$1,$2,$3*
1,1,$1+$1,$4,$5*
1,1,$1+$1,$6,$7*
1,1,$1+$1,$8,$9*
0 Add four rect primitives between the rounded corners*
20,1,$1+$1,$2,$3,$4,$5,0*
20,1,$1+$1,$4,$5,$6,$7,0*
20,1,$1+$1,$6,$7,$8,$9,0*
20,1,$1+$1,$8,$9,$2,$3,0*%
%AMFreePoly0*
4,1,5,1.100000,-2.190000,-1.550000,-2.190000,-1.550000,1.600000,1.100000,1.600000,1.100000,-2.190000,1.100000,-2.190000,$1*%
%AMFreePoly1*
4,1,5,1.479392,-2.660000,-3.980000,-2.660000,-3.980000,1.180000,1.480354,1.180000,1.479392,-2.660000,1.479392,-2.660000,$1*%
G04 Aperture macros list end*
%ADD10C,0.150000*%
%ADD11C,0.600000*%
%ADD12C,0.120000*%
%ADD13C,0.151000*%
%ADD14C,0.300000*%
%ADD15O,1.700000X1.700000*%
%ADD16R,1.700000X1.700000*%
%ADD17C,1.500000*%
%ADD18R,1.100000X0.300000*%
%ADD19R,3.100000X2.300000*%
%ADD20C,1.524000*%
%ADD21C,1.300000*%
%ADD22RoundRect,0.075000X0.075000X0.475000X-0.075000X0.475000X-0.075000X-0.475000X0.075000X-0.475000X0*%
%ADD23FreePoly0,180.000000*%
%ADD24FreePoly1,180.000000*%
G04 APERTURE END LIST*
D10*
X128207381Y-99621116D02*
X127971481Y-99857016D01*
X128207102Y-100320000D02*
X128207381Y-99621116D01*
X128207381Y-99621116D02*
X128443281Y-99857016D01*
D11*
X108365714Y-96541741D02*
X108365714Y-93541741D01*
X108365714Y-93541741D02*
X109508571Y-93541741D01*
X109508571Y-93541741D02*
X109794286Y-93684598D01*
X109794286Y-93684598D02*
X109937143Y-93827455D01*
X109937143Y-93827455D02*
X110080000Y-94113169D01*
X110080000Y-94113169D02*
X110080000Y-94541741D01*
X110080000Y-94541741D02*
X109937143Y-94827455D01*
X109937143Y-94827455D02*
X109794286Y-94970312D01*
X109794286Y-94970312D02*
X109508571Y-95113169D01*
X109508571Y-95113169D02*
X108365714Y-95113169D01*
X111365714Y-96541741D02*
X111365714Y-93541741D01*
X114508571Y-96256026D02*
X114365714Y-96398884D01*
X114365714Y-96398884D02*
X113937142Y-96541741D01*
X113937142Y-96541741D02*
X113651428Y-96541741D01*
X113651428Y-96541741D02*
X113222857Y-96398884D01*
X113222857Y-96398884D02*
X112937142Y-96113169D01*
X112937142Y-96113169D02*
X112794285Y-95827455D01*
X112794285Y-95827455D02*
X112651428Y-95256026D01*
X112651428Y-95256026D02*
X112651428Y-94827455D01*
X112651428Y-94827455D02*
X112794285Y-94256026D01*
X112794285Y-94256026D02*
X112937142Y-93970312D01*
X112937142Y-93970312D02*
X113222857Y-93684598D01*
X113222857Y-93684598D02*
X113651428Y-93541741D01*
X113651428Y-93541741D02*
X113937142Y-93541741D01*
X113937142Y-93541741D02*
X114365714Y-93684598D01*
X114365714Y-93684598D02*
X114508571Y-93827455D01*
X116365714Y-93541741D02*
X116937142Y-93541741D01*
X116937142Y-93541741D02*
X117222857Y-93684598D01*
X117222857Y-93684598D02*
X117508571Y-93970312D01*
X117508571Y-93970312D02*
X117651428Y-94541741D01*
X117651428Y-94541741D02*
X117651428Y-95541741D01*
X117651428Y-95541741D02*
X117508571Y-96113169D01*
X117508571Y-96113169D02*
X117222857Y-96398884D01*
X117222857Y-96398884D02*
X116937142Y-96541741D01*
X116937142Y-96541741D02*
X116365714Y-96541741D01*
X116365714Y-96541741D02*
X116080000Y-96398884D01*
X116080000Y-96398884D02*
X115794285Y-96113169D01*
X115794285Y-96113169D02*
X115651428Y-95541741D01*
X115651428Y-95541741D02*
X115651428Y-94541741D01*
X115651428Y-94541741D02*
X115794285Y-93970312D01*
X115794285Y-93970312D02*
X116080000Y-93684598D01*
X116080000Y-93684598D02*
X116365714Y-93541741D01*
X108008572Y-98514430D02*
X107722858Y-98371573D01*
X107722858Y-98371573D02*
X107294286Y-98371573D01*
X107294286Y-98371573D02*
X106865715Y-98514430D01*
X106865715Y-98514430D02*
X106580000Y-98800144D01*
X106580000Y-98800144D02*
X106437143Y-99085858D01*
X106437143Y-99085858D02*
X106294286Y-99657287D01*
X106294286Y-99657287D02*
X106294286Y-100085858D01*
X106294286Y-100085858D02*
X106437143Y-100657287D01*
X106437143Y-100657287D02*
X106580000Y-100943001D01*
X106580000Y-100943001D02*
X106865715Y-101228716D01*
X106865715Y-101228716D02*
X107294286Y-101371573D01*
X107294286Y-101371573D02*
X107580000Y-101371573D01*
X107580000Y-101371573D02*
X108008572Y-101228716D01*
X108008572Y-101228716D02*
X108151429Y-101085858D01*
X108151429Y-101085858D02*
X108151429Y-100085858D01*
X108151429Y-100085858D02*
X107580000Y-100085858D01*
X111008572Y-98514430D02*
X110722858Y-98371573D01*
X110722858Y-98371573D02*
X110294286Y-98371573D01*
X110294286Y-98371573D02*
X109865715Y-98514430D01*
X109865715Y-98514430D02*
X109580000Y-98800144D01*
X109580000Y-98800144D02*
X109437143Y-99085858D01*
X109437143Y-99085858D02*
X109294286Y-99657287D01*
X109294286Y-99657287D02*
X109294286Y-100085858D01*
X109294286Y-100085858D02*
X109437143Y-100657287D01*
X109437143Y-100657287D02*
X109580000Y-100943001D01*
X109580000Y-100943001D02*
X109865715Y-101228716D01*
X109865715Y-101228716D02*
X110294286Y-101371573D01*
X110294286Y-101371573D02*
X110580000Y-101371573D01*
X110580000Y-101371573D02*
X111008572Y-101228716D01*
X111008572Y-101228716D02*
X111151429Y-101085858D01*
X111151429Y-101085858D02*
X111151429Y-100085858D01*
X111151429Y-100085858D02*
X110580000Y-100085858D01*
X116151429Y-101371573D02*
X114722857Y-101371573D01*
X114722857Y-101371573D02*
X114722857Y-98371573D01*
X118865714Y-101085858D02*
X118722857Y-101228716D01*
X118722857Y-101228716D02*
X118294285Y-101371573D01*
X118294285Y-101371573D02*
X118008571Y-101371573D01*
X118008571Y-101371573D02*
X117580000Y-101228716D01*
X117580000Y-101228716D02*
X117294285Y-100943001D01*
X117294285Y-100943001D02*
X117151428Y-100657287D01*
X117151428Y-100657287D02*
X117008571Y-100085858D01*
X117008571Y-100085858D02*
X117008571Y-99657287D01*
X117008571Y-99657287D02*
X117151428Y-99085858D01*
X117151428Y-99085858D02*
X117294285Y-98800144D01*
X117294285Y-98800144D02*
X117580000Y-98514430D01*
X117580000Y-98514430D02*
X118008571Y-98371573D01*
X118008571Y-98371573D02*
X118294285Y-98371573D01*
X118294285Y-98371573D02*
X118722857Y-98514430D01*
X118722857Y-98514430D02*
X118865714Y-98657287D01*
X120151428Y-101371573D02*
X120151428Y-98371573D01*
X120151428Y-98371573D02*
X120865714Y-98371573D01*
X120865714Y-98371573D02*
X121294285Y-98514430D01*
X121294285Y-98514430D02*
X121580000Y-98800144D01*
X121580000Y-98800144D02*
X121722857Y-99085858D01*
X121722857Y-99085858D02*
X121865714Y-99657287D01*
X121865714Y-99657287D02*
X121865714Y-100085858D01*
X121865714Y-100085858D02*
X121722857Y-100657287D01*
X121722857Y-100657287D02*
X121580000Y-100943001D01*
X121580000Y-100943001D02*
X121294285Y-101228716D01*
X121294285Y-101228716D02*
X120865714Y-101371573D01*
X120865714Y-101371573D02*
X120151428Y-101371573D01*
D10*
X156610588Y-99619819D02*
X156039160Y-99619819D01*
X156324874Y-99619819D02*
X156324874Y-98619819D01*
X156324874Y-98619819D02*
X156229636Y-98762676D01*
X156229636Y-98762676D02*
X156134398Y-98857914D01*
X156134398Y-98857914D02*
X156039160Y-98905533D01*
X127942969Y-100509819D02*
X127466779Y-100509819D01*
X127466779Y-100509819D02*
X127419160Y-100986009D01*
X127419160Y-100986009D02*
X127466779Y-100938390D01*
X127466779Y-100938390D02*
X127562017Y-100890771D01*
X127562017Y-100890771D02*
X127800112Y-100890771D01*
X127800112Y-100890771D02*
X127895350Y-100938390D01*
X127895350Y-100938390D02*
X127942969Y-100986009D01*
X127942969Y-100986009D02*
X127990588Y-101081247D01*
X127990588Y-101081247D02*
X127990588Y-101319342D01*
X127990588Y-101319342D02*
X127942969Y-101414580D01*
X127942969Y-101414580D02*
X127895350Y-101462200D01*
X127895350Y-101462200D02*
X127800112Y-101509819D01*
X127800112Y-101509819D02*
X127562017Y-101509819D01*
X127562017Y-101509819D02*
X127466779Y-101462200D01*
X127466779Y-101462200D02*
X127419160Y-101414580D01*
X128847731Y-100843152D02*
X128847731Y-101509819D01*
X128609636Y-100462200D02*
X128371541Y-101176485D01*
X128371541Y-101176485D02*
X128990588Y-101176485D01*
X132857438Y-69229411D02*
X132809819Y-69324649D01*
X132809819Y-69324649D02*
X132809819Y-69467506D01*
X132809819Y-69467506D02*
X132857438Y-69610363D01*
X132857438Y-69610363D02*
X132952676Y-69705601D01*
X132952676Y-69705601D02*
X133047914Y-69753220D01*
X133047914Y-69753220D02*
X133238390Y-69800839D01*
X133238390Y-69800839D02*
X133381247Y-69800839D01*
X133381247Y-69800839D02*
X133571723Y-69753220D01*
X133571723Y-69753220D02*
X133666961Y-69705601D01*
X133666961Y-69705601D02*
X133762200Y-69610363D01*
X133762200Y-69610363D02*
X133809819Y-69467506D01*
X133809819Y-69467506D02*
X133809819Y-69372268D01*
X133809819Y-69372268D02*
X133762200Y-69229411D01*
X133762200Y-69229411D02*
X133714580Y-69181792D01*
X133714580Y-69181792D02*
X133381247Y-69181792D01*
X133381247Y-69181792D02*
X133381247Y-69372268D01*
X133809819Y-68753220D02*
X132809819Y-68753220D01*
X132809819Y-68753220D02*
X133809819Y-68181792D01*
X133809819Y-68181792D02*
X132809819Y-68181792D01*
X133809819Y-67705601D02*
X132809819Y-67705601D01*
X132809819Y-67705601D02*
X132809819Y-67467506D01*
X132809819Y-67467506D02*
X132857438Y-67324649D01*
X132857438Y-67324649D02*
X132952676Y-67229411D01*
X132952676Y-67229411D02*
X133047914Y-67181792D01*
X133047914Y-67181792D02*
X133238390Y-67134173D01*
X133238390Y-67134173D02*
X133381247Y-67134173D01*
X133381247Y-67134173D02*
X133571723Y-67181792D01*
X133571723Y-67181792D02*
X133666961Y-67229411D01*
X133666961Y-67229411D02*
X133762200Y-67324649D01*
X133762200Y-67324649D02*
X133809819Y-67467506D01*
X133809819Y-67467506D02*
X133809819Y-67705601D01*
X155757438Y-82029411D02*
X155709819Y-82124649D01*
X155709819Y-82124649D02*
X155709819Y-82267506D01*
X155709819Y-82267506D02*
X155757438Y-82410363D01*
X155757438Y-82410363D02*
X155852676Y-82505601D01*
X155852676Y-82505601D02*
X155947914Y-82553220D01*
X155947914Y-82553220D02*
X156138390Y-82600839D01*
X156138390Y-82600839D02*
X156281247Y-82600839D01*
X156281247Y-82600839D02*
X156471723Y-82553220D01*
X156471723Y-82553220D02*
X156566961Y-82505601D01*
X156566961Y-82505601D02*
X156662200Y-82410363D01*
X156662200Y-82410363D02*
X156709819Y-82267506D01*
X156709819Y-82267506D02*
X156709819Y-82172268D01*
X156709819Y-82172268D02*
X156662200Y-82029411D01*
X156662200Y-82029411D02*
X156614580Y-81981792D01*
X156614580Y-81981792D02*
X156281247Y-81981792D01*
X156281247Y-81981792D02*
X156281247Y-82172268D01*
X156709819Y-81553220D02*
X155709819Y-81553220D01*
X155709819Y-81553220D02*
X156709819Y-80981792D01*
X156709819Y-80981792D02*
X155709819Y-80981792D01*
X156709819Y-80505601D02*
X155709819Y-80505601D01*
X155709819Y-80505601D02*
X155709819Y-80267506D01*
X155709819Y-80267506D02*
X155757438Y-80124649D01*
X155757438Y-80124649D02*
X155852676Y-80029411D01*
X155852676Y-80029411D02*
X155947914Y-79981792D01*
X155947914Y-79981792D02*
X156138390Y-79934173D01*
X156138390Y-79934173D02*
X156281247Y-79934173D01*
X156281247Y-79934173D02*
X156471723Y-79981792D01*
X156471723Y-79981792D02*
X156566961Y-80029411D01*
X156566961Y-80029411D02*
X156662200Y-80124649D01*
X156662200Y-80124649D02*
X156709819Y-80267506D01*
X156709819Y-80267506D02*
X156709819Y-80505601D01*
X132877438Y-82029411D02*
X132829819Y-82124649D01*
X132829819Y-82124649D02*
X132829819Y-82267506D01*
X132829819Y-82267506D02*
X132877438Y-82410363D01*
X132877438Y-82410363D02*
X132972676Y-82505601D01*
X132972676Y-82505601D02*
X133067914Y-82553220D01*
X133067914Y-82553220D02*
X133258390Y-82600839D01*
X133258390Y-82600839D02*
X133401247Y-82600839D01*
X133401247Y-82600839D02*
X133591723Y-82553220D01*
X133591723Y-82553220D02*
X133686961Y-82505601D01*
X133686961Y-82505601D02*
X133782200Y-82410363D01*
X133782200Y-82410363D02*
X133829819Y-82267506D01*
X133829819Y-82267506D02*
X133829819Y-82172268D01*
X133829819Y-82172268D02*
X133782200Y-82029411D01*
X133782200Y-82029411D02*
X133734580Y-81981792D01*
X133734580Y-81981792D02*
X133401247Y-81981792D01*
X133401247Y-81981792D02*
X133401247Y-82172268D01*
X133829819Y-81553220D02*
X132829819Y-81553220D01*
X132829819Y-81553220D02*
X133829819Y-80981792D01*
X133829819Y-80981792D02*
X132829819Y-80981792D01*
X133829819Y-80505601D02*
X132829819Y-80505601D01*
X132829819Y-80505601D02*
X132829819Y-80267506D01*
X132829819Y-80267506D02*
X132877438Y-80124649D01*
X132877438Y-80124649D02*
X132972676Y-80029411D01*
X132972676Y-80029411D02*
X133067914Y-79981792D01*
X133067914Y-79981792D02*
X133258390Y-79934173D01*
X133258390Y-79934173D02*
X133401247Y-79934173D01*
X133401247Y-79934173D02*
X133591723Y-79981792D01*
X133591723Y-79981792D02*
X133686961Y-80029411D01*
X133686961Y-80029411D02*
X133782200Y-80124649D01*
X133782200Y-80124649D02*
X133829819Y-80267506D01*
X133829819Y-80267506D02*
X133829819Y-80505601D01*
X125257438Y-69229411D02*
X125209819Y-69324649D01*
X125209819Y-69324649D02*
X125209819Y-69467506D01*
X125209819Y-69467506D02*
X125257438Y-69610363D01*
X125257438Y-69610363D02*
X125352676Y-69705601D01*
X125352676Y-69705601D02*
X125447914Y-69753220D01*
X125447914Y-69753220D02*
X125638390Y-69800839D01*
X125638390Y-69800839D02*
X125781247Y-69800839D01*
X125781247Y-69800839D02*
X125971723Y-69753220D01*
X125971723Y-69753220D02*
X126066961Y-69705601D01*
X126066961Y-69705601D02*
X126162200Y-69610363D01*
X126162200Y-69610363D02*
X126209819Y-69467506D01*
X126209819Y-69467506D02*
X126209819Y-69372268D01*
X126209819Y-69372268D02*
X126162200Y-69229411D01*
X126162200Y-69229411D02*
X126114580Y-69181792D01*
X126114580Y-69181792D02*
X125781247Y-69181792D01*
X125781247Y-69181792D02*
X125781247Y-69372268D01*
X126209819Y-68753220D02*
X125209819Y-68753220D01*
X125209819Y-68753220D02*
X126209819Y-68181792D01*
X126209819Y-68181792D02*
X125209819Y-68181792D01*
X126209819Y-67705601D02*
X125209819Y-67705601D01*
X125209819Y-67705601D02*
X125209819Y-67467506D01*
X125209819Y-67467506D02*
X125257438Y-67324649D01*
X125257438Y-67324649D02*
X125352676Y-67229411D01*
X125352676Y-67229411D02*
X125447914Y-67181792D01*
X125447914Y-67181792D02*
X125638390Y-67134173D01*
X125638390Y-67134173D02*
X125781247Y-67134173D01*
X125781247Y-67134173D02*
X125971723Y-67181792D01*
X125971723Y-67181792D02*
X126066961Y-67229411D01*
X126066961Y-67229411D02*
X126162200Y-67324649D01*
X126162200Y-67324649D02*
X126209819Y-67467506D01*
X126209819Y-67467506D02*
X126209819Y-67705601D01*
X120197438Y-82049411D02*
X120149819Y-82144649D01*
X120149819Y-82144649D02*
X120149819Y-82287506D01*
X120149819Y-82287506D02*
X120197438Y-82430363D01*
X120197438Y-82430363D02*
X120292676Y-82525601D01*
X120292676Y-82525601D02*
X120387914Y-82573220D01*
X120387914Y-82573220D02*
X120578390Y-82620839D01*
X120578390Y-82620839D02*
X120721247Y-82620839D01*
X120721247Y-82620839D02*
X120911723Y-82573220D01*
X120911723Y-82573220D02*
X121006961Y-82525601D01*
X121006961Y-82525601D02*
X121102200Y-82430363D01*
X121102200Y-82430363D02*
X121149819Y-82287506D01*
X121149819Y-82287506D02*
X121149819Y-82192268D01*
X121149819Y-82192268D02*
X121102200Y-82049411D01*
X121102200Y-82049411D02*
X121054580Y-82001792D01*
X121054580Y-82001792D02*
X120721247Y-82001792D01*
X120721247Y-82001792D02*
X120721247Y-82192268D01*
X121149819Y-81573220D02*
X120149819Y-81573220D01*
X120149819Y-81573220D02*
X120149819Y-81192268D01*
X120149819Y-81192268D02*
X120197438Y-81097030D01*
X120197438Y-81097030D02*
X120245057Y-81049411D01*
X120245057Y-81049411D02*
X120340295Y-81001792D01*
X120340295Y-81001792D02*
X120483152Y-81001792D01*
X120483152Y-81001792D02*
X120578390Y-81049411D01*
X120578390Y-81049411D02*
X120626009Y-81097030D01*
X120626009Y-81097030D02*
X120673628Y-81192268D01*
X120673628Y-81192268D02*
X120673628Y-81573220D01*
X120149819Y-80382744D02*
X120149819Y-80287506D01*
X120149819Y-80287506D02*
X120197438Y-80192268D01*
X120197438Y-80192268D02*
X120245057Y-80144649D01*
X120245057Y-80144649D02*
X120340295Y-80097030D01*
X120340295Y-80097030D02*
X120530771Y-80049411D01*
X120530771Y-80049411D02*
X120768866Y-80049411D01*
X120768866Y-80049411D02*
X120959342Y-80097030D01*
X120959342Y-80097030D02*
X121054580Y-80144649D01*
X121054580Y-80144649D02*
X121102200Y-80192268D01*
X121102200Y-80192268D02*
X121149819Y-80287506D01*
X121149819Y-80287506D02*
X121149819Y-80382744D01*
X121149819Y-80382744D02*
X121102200Y-80477982D01*
X121102200Y-80477982D02*
X121054580Y-80525601D01*
X121054580Y-80525601D02*
X120959342Y-80573220D01*
X120959342Y-80573220D02*
X120768866Y-80620839D01*
X120768866Y-80620839D02*
X120530771Y-80620839D01*
X120530771Y-80620839D02*
X120340295Y-80573220D01*
X120340295Y-80573220D02*
X120245057Y-80525601D01*
X120245057Y-80525601D02*
X120197438Y-80477982D01*
X120197438Y-80477982D02*
X120149819Y-80382744D01*
X122639819Y-69396077D02*
X123639819Y-69062744D01*
X123639819Y-69062744D02*
X122639819Y-68729411D01*
X123639819Y-68396077D02*
X122639819Y-68396077D01*
X123639819Y-67919887D02*
X122639819Y-67919887D01*
X122639819Y-67919887D02*
X123639819Y-67348459D01*
X123639819Y-67348459D02*
X122639819Y-67348459D01*
X148087438Y-69209411D02*
X148039819Y-69304649D01*
X148039819Y-69304649D02*
X148039819Y-69447506D01*
X148039819Y-69447506D02*
X148087438Y-69590363D01*
X148087438Y-69590363D02*
X148182676Y-69685601D01*
X148182676Y-69685601D02*
X148277914Y-69733220D01*
X148277914Y-69733220D02*
X148468390Y-69780839D01*
X148468390Y-69780839D02*
X148611247Y-69780839D01*
X148611247Y-69780839D02*
X148801723Y-69733220D01*
X148801723Y-69733220D02*
X148896961Y-69685601D01*
X148896961Y-69685601D02*
X148992200Y-69590363D01*
X148992200Y-69590363D02*
X149039819Y-69447506D01*
X149039819Y-69447506D02*
X149039819Y-69352268D01*
X149039819Y-69352268D02*
X148992200Y-69209411D01*
X148992200Y-69209411D02*
X148944580Y-69161792D01*
X148944580Y-69161792D02*
X148611247Y-69161792D01*
X148611247Y-69161792D02*
X148611247Y-69352268D01*
X149039819Y-68733220D02*
X148039819Y-68733220D01*
X148039819Y-68733220D02*
X149039819Y-68161792D01*
X149039819Y-68161792D02*
X148039819Y-68161792D01*
X149039819Y-67685601D02*
X148039819Y-67685601D01*
X148039819Y-67685601D02*
X148039819Y-67447506D01*
X148039819Y-67447506D02*
X148087438Y-67304649D01*
X148087438Y-67304649D02*
X148182676Y-67209411D01*
X148182676Y-67209411D02*
X148277914Y-67161792D01*
X148277914Y-67161792D02*
X148468390Y-67114173D01*
X148468390Y-67114173D02*
X148611247Y-67114173D01*
X148611247Y-67114173D02*
X148801723Y-67161792D01*
X148801723Y-67161792D02*
X148896961Y-67209411D01*
X148896961Y-67209411D02*
X148992200Y-67304649D01*
X148992200Y-67304649D02*
X149039819Y-67447506D01*
X149039819Y-67447506D02*
X149039819Y-67685601D01*
X105402262Y-107590526D02*
X104926072Y-107590526D01*
X104926072Y-107590526D02*
X104878453Y-108066716D01*
X104878453Y-108066716D02*
X104926072Y-108019097D01*
X104926072Y-108019097D02*
X105021310Y-107971478D01*
X105021310Y-107971478D02*
X105259405Y-107971478D01*
X105259405Y-107971478D02*
X105354643Y-108019097D01*
X105354643Y-108019097D02*
X105402262Y-108066716D01*
X105402262Y-108066716D02*
X105449881Y-108161954D01*
X105449881Y-108161954D02*
X105449881Y-108400049D01*
X105449881Y-108400049D02*
X105402262Y-108495287D01*
X105402262Y-108495287D02*
X105354643Y-108542907D01*
X105354643Y-108542907D02*
X105259405Y-108590526D01*
X105259405Y-108590526D02*
X105021310Y-108590526D01*
X105021310Y-108590526D02*
X104926072Y-108542907D01*
X104926072Y-108542907D02*
X104878453Y-108495287D01*
X106307024Y-107923859D02*
X106307024Y-108590526D01*
X106068929Y-107542907D02*
X105830834Y-108257192D01*
X105830834Y-108257192D02*
X106449881Y-108257192D01*
X105402262Y-110270526D02*
X104926072Y-110270526D01*
X104926072Y-110270526D02*
X104878453Y-110746716D01*
X104878453Y-110746716D02*
X104926072Y-110699097D01*
X104926072Y-110699097D02*
X105021310Y-110651478D01*
X105021310Y-110651478D02*
X105259405Y-110651478D01*
X105259405Y-110651478D02*
X105354643Y-110699097D01*
X105354643Y-110699097D02*
X105402262Y-110746716D01*
X105402262Y-110746716D02*
X105449881Y-110841954D01*
X105449881Y-110841954D02*
X105449881Y-111080049D01*
X105449881Y-111080049D02*
X105402262Y-111175287D01*
X105402262Y-111175287D02*
X105354643Y-111222907D01*
X105354643Y-111222907D02*
X105259405Y-111270526D01*
X105259405Y-111270526D02*
X105021310Y-111270526D01*
X105021310Y-111270526D02*
X104926072Y-111222907D01*
X104926072Y-111222907D02*
X104878453Y-111175287D01*
X105783215Y-110270526D02*
X106402262Y-110270526D01*
X106402262Y-110270526D02*
X106068929Y-110651478D01*
X106068929Y-110651478D02*
X106211786Y-110651478D01*
X106211786Y-110651478D02*
X106307024Y-110699097D01*
X106307024Y-110699097D02*
X106354643Y-110746716D01*
X106354643Y-110746716D02*
X106402262Y-110841954D01*
X106402262Y-110841954D02*
X106402262Y-111080049D01*
X106402262Y-111080049D02*
X106354643Y-111175287D01*
X106354643Y-111175287D02*
X106307024Y-111222907D01*
X106307024Y-111222907D02*
X106211786Y-111270526D01*
X106211786Y-111270526D02*
X105926072Y-111270526D01*
X105926072Y-111270526D02*
X105830834Y-111222907D01*
X105830834Y-111222907D02*
X105783215Y-111175287D01*
X175678453Y-107595764D02*
X175726072Y-107548145D01*
X175726072Y-107548145D02*
X175821310Y-107500526D01*
X175821310Y-107500526D02*
X176059405Y-107500526D01*
X176059405Y-107500526D02*
X176154643Y-107548145D01*
X176154643Y-107548145D02*
X176202262Y-107595764D01*
X176202262Y-107595764D02*
X176249881Y-107691002D01*
X176249881Y-107691002D02*
X176249881Y-107786240D01*
X176249881Y-107786240D02*
X176202262Y-107929097D01*
X176202262Y-107929097D02*
X175630834Y-108500526D01*
X175630834Y-108500526D02*
X176249881Y-108500526D01*
X176309881Y-111490526D02*
X175738453Y-111490526D01*
X176024167Y-111490526D02*
X176024167Y-110490526D01*
X176024167Y-110490526D02*
X175928929Y-110633383D01*
X175928929Y-110633383D02*
X175833691Y-110728621D01*
X175833691Y-110728621D02*
X175738453Y-110776240D01*
%TO.C,U1*%
X117140000Y-81960000D02*
X117140000Y-64640000D01*
X117143036Y-81963036D02*
X120570000Y-85390000D01*
X117390000Y-64390000D02*
X170020000Y-64390000D01*
X117390893Y-64390179D02*
X117140893Y-64640179D01*
X120570000Y-85390000D02*
X170020000Y-85390000D01*
D12*
X126870000Y-64390000D02*
X127120000Y-64390000D01*
X129420000Y-64390000D02*
X129670000Y-64390000D01*
D10*
X170270000Y-64640000D02*
X170020000Y-64390000D01*
X170270000Y-64640000D02*
X170270000Y-85140000D01*
X170270000Y-85140000D02*
X170020000Y-85390000D01*
D13*
X117610000Y-72495000D02*
X121110000Y-72495000D01*
X121110000Y-69985000D01*
X117610000Y-69985000D01*
X117610000Y-72495000D01*
G36*
X117610000Y-72495000D02*
G01*
X121110000Y-72495000D01*
X121110000Y-69985000D01*
X117610000Y-69985000D01*
X117610000Y-72495000D01*
G37*
X117650000Y-79855000D02*
X121150000Y-79855000D01*
X121150000Y-77345000D01*
X117650000Y-77345000D01*
X117650000Y-79855000D01*
G36*
X117650000Y-79855000D02*
G01*
X121150000Y-79855000D01*
X121150000Y-77345000D01*
X117650000Y-77345000D01*
X117650000Y-79855000D01*
G37*
X122100000Y-72525000D02*
X125600000Y-72525000D01*
X125600000Y-70015000D01*
X122100000Y-70015000D01*
X122100000Y-72525000D01*
G36*
X122100000Y-72525000D02*
G01*
X125600000Y-72525000D01*
X125600000Y-70015000D01*
X122100000Y-70015000D01*
X122100000Y-72525000D01*
G37*
X122140000Y-79885000D02*
X125640000Y-79885000D01*
X125640000Y-77375000D01*
X122140000Y-77375000D01*
X122140000Y-79885000D01*
G36*
X122140000Y-79885000D02*
G01*
X125640000Y-79885000D01*
X125640000Y-77375000D01*
X122140000Y-77375000D01*
X122140000Y-79885000D01*
G37*
%TO.C,T18*%
X182490000Y-106750000D02*
G75*
G02*
X180490000Y-106750000I-1000000J0D01*
G01*
X180490000Y-106750000D02*
G75*
G02*
X182490000Y-106750000I1000000J0D01*
G01*
%TO.C,T17*%
X182490000Y-110800000D02*
G75*
G02*
X180490000Y-110800000I-1000000J0D01*
G01*
X180490000Y-110800000D02*
G75*
G02*
X182490000Y-110800000I1000000J0D01*
G01*
%TO.C,T4*%
X110970000Y-73920000D02*
G75*
G02*
X108970000Y-73920000I-1000000J0D01*
G01*
X108970000Y-73920000D02*
G75*
G02*
X110970000Y-73920000I1000000J0D01*
G01*
%TO.C,T14*%
X186020000Y-98650000D02*
G75*
G02*
X184020000Y-98650000I-1000000J0D01*
G01*
X184020000Y-98650000D02*
G75*
G02*
X186020000Y-98650000I1000000J0D01*
G01*
D12*
%TO.C,J3*%
X181070000Y-91590000D02*
X181070000Y-91990000D01*
X181070000Y-91990000D02*
X181470000Y-91790000D01*
X181470000Y-91790000D02*
X181070000Y-91590000D01*
X183680000Y-79215000D02*
X184280000Y-79215000D01*
X183680000Y-79325000D02*
X183680000Y-79215000D01*
X183680000Y-94755000D02*
X183680000Y-94865000D01*
X183680000Y-94865000D02*
X184280000Y-94865000D01*
D13*
%TO.C,T19*%
X182490000Y-102700000D02*
G75*
G02*
X180490000Y-102700000I-1000000J0D01*
G01*
X180490000Y-102700000D02*
G75*
G02*
X182490000Y-102700000I1000000J0D01*
G01*
%TO.C,J1*%
X103989293Y-89130707D02*
X107449293Y-89130707D01*
X103989293Y-113130707D02*
X103989293Y-89130707D01*
X116549293Y-89130707D02*
X148439293Y-89130707D01*
X164969293Y-89130707D02*
X177979293Y-89130707D01*
X177989293Y-105970707D02*
X177989293Y-113130707D01*
X177989293Y-113130707D02*
X103989293Y-113130707D01*
X106764293Y-107005707D02*
X175089293Y-107005707D01*
X175089293Y-111855707D01*
X106764293Y-111855707D01*
X106764293Y-107005707D01*
X172839293Y-109605707D02*
X175089293Y-109605707D01*
X175089293Y-111855707D01*
X172839293Y-111855707D01*
X172839293Y-109605707D01*
%TO.C,T15*%
X186020000Y-102700000D02*
G75*
G02*
X184020000Y-102700000I-1000000J0D01*
G01*
X184020000Y-102700000D02*
G75*
G02*
X186020000Y-102700000I1000000J0D01*
G01*
%TO.C,T1*%
X178780000Y-98650000D02*
G75*
G02*
X176780000Y-98650000I-1000000J0D01*
G01*
X176780000Y-98650000D02*
G75*
G02*
X178780000Y-98650000I1000000J0D01*
G01*
D10*
%TO.C,J2*%
X121990000Y-91785000D02*
X158040000Y-91785000D01*
X121990000Y-92585000D02*
X121990000Y-91790000D01*
X122310000Y-98045000D02*
X122310000Y-97105000D01*
X122350000Y-92585000D02*
X121990000Y-92585000D01*
X124785000Y-98045000D02*
X122310000Y-98045000D01*
X157640000Y-97165000D02*
X157640000Y-98045000D01*
X157640000Y-98045000D02*
X156100000Y-98045000D01*
X158040000Y-91790000D02*
X158040000Y-92665000D01*
X158040000Y-92665000D02*
X157680000Y-92665000D01*
X125269994Y-98825000D02*
X125110000Y-98825000D01*
X125110000Y-97865000D01*
X125269994Y-97865000D01*
X125269994Y-98825000D01*
G36*
X125269994Y-98825000D02*
G01*
X125110000Y-98825000D01*
X125110000Y-97865000D01*
X125269994Y-97865000D01*
X125269994Y-98825000D01*
G37*
X125769997Y-98825000D02*
X125610003Y-98825000D01*
X125610003Y-97865000D01*
X125769997Y-97865000D01*
X125769997Y-98825000D01*
G36*
X125769997Y-98825000D02*
G01*
X125610003Y-98825000D01*
X125610003Y-97865000D01*
X125769997Y-97865000D01*
X125769997Y-98825000D01*
G37*
X126269994Y-98825000D02*
X126110000Y-98825000D01*
X126110000Y-97865000D01*
X126269994Y-97865000D01*
X126269994Y-98825000D01*
G36*
X126269994Y-98825000D02*
G01*
X126110000Y-98825000D01*
X126110000Y-97865000D01*
X126269994Y-97865000D01*
X126269994Y-98825000D01*
G37*
X126769994Y-98825000D02*
X126610000Y-98825000D01*
X126610000Y-97865000D01*
X126769994Y-97865000D01*
X126769994Y-98825000D01*
G36*
X126769994Y-98825000D02*
G01*
X126610000Y-98825000D01*
X126610000Y-97865000D01*
X126769994Y-97865000D01*
X126769994Y-98825000D01*
G37*
X127269994Y-98825000D02*
X127110000Y-98825000D01*
X127110000Y-97865000D01*
X127269994Y-97865000D01*
X127269994Y-98825000D01*
G36*
X127269994Y-98825000D02*
G01*
X127110000Y-98825000D01*
X127110000Y-97865000D01*
X127269994Y-97865000D01*
X127269994Y-98825000D01*
G37*
X127769994Y-98825000D02*
X127610000Y-98825000D01*
X127610000Y-97865000D01*
X127769994Y-97865000D01*
X127769994Y-98825000D01*
G36*
X127769994Y-98825000D02*
G01*
X127610000Y-98825000D01*
X127610000Y-97865000D01*
X127769994Y-97865000D01*
X127769994Y-98825000D01*
G37*
D14*
X155580000Y-98285000D02*
X155250000Y-98045000D01*
X155580000Y-97805000D01*
X155580000Y-98285000D01*
G36*
X155580000Y-98285000D02*
G01*
X155250000Y-98045000D01*
X155580000Y-97805000D01*
X155580000Y-98285000D01*
G37*
D13*
%TO.C,T2*%
X110970000Y-66560000D02*
G75*
G02*
X108970000Y-66560000I-1000000J0D01*
G01*
X108970000Y-66560000D02*
G75*
G02*
X110970000Y-66560000I1000000J0D01*
G01*
%TO.C,T13*%
X186020000Y-106750000D02*
G75*
G02*
X184020000Y-106750000I-1000000J0D01*
G01*
X184020000Y-106750000D02*
G75*
G02*
X186020000Y-106750000I1000000J0D01*
G01*
%TO.C,T20*%
X182490000Y-98650000D02*
G75*
G02*
X180490000Y-98650000I-1000000J0D01*
G01*
X180490000Y-98650000D02*
G75*
G02*
X182490000Y-98650000I1000000J0D01*
G01*
%TO.C,T16*%
X186020000Y-110800000D02*
G75*
G02*
X184020000Y-110800000I-1000000J0D01*
G01*
X184020000Y-110800000D02*
G75*
G02*
X186020000Y-110800000I1000000J0D01*
G01*
%TO.C,T5*%
X114510000Y-73920000D02*
G75*
G02*
X112510000Y-73920000I-1000000J0D01*
G01*
X112510000Y-73920000D02*
G75*
G02*
X114510000Y-73920000I1000000J0D01*
G01*
%TO.C,T2*%
X178930000Y-102700000D02*
G75*
G02*
X176930000Y-102700000I-1000000J0D01*
G01*
X176930000Y-102700000D02*
G75*
G02*
X178930000Y-102700000I1000000J0D01*
G01*
D12*
%TO.C,J4*%
X108050000Y-82175000D02*
X107450000Y-82175000D01*
X108050000Y-82285000D02*
X108050000Y-82175000D01*
X108050000Y-91715000D02*
X108050000Y-91825000D01*
X108050000Y-91825000D02*
X107450000Y-91825000D01*
X110260000Y-85250000D02*
X110660000Y-85450000D01*
X110660000Y-85050000D02*
X110260000Y-85250000D01*
X110660000Y-85450000D02*
X110660000Y-85050000D01*
D13*
%TO.C,T10*%
X110970000Y-70240000D02*
G75*
G02*
X108970000Y-70240000I-1000000J0D01*
G01*
X108970000Y-70240000D02*
G75*
G02*
X110970000Y-70240000I1000000J0D01*
G01*
D12*
%TO.C,J5*%
X181080000Y-75090000D02*
X181080000Y-75490000D01*
X181080000Y-75490000D02*
X181480000Y-75290000D01*
X181480000Y-75290000D02*
X181080000Y-75090000D01*
X183690000Y-62715000D02*
X184290000Y-62715000D01*
X183690000Y-62825000D02*
X183690000Y-62715000D01*
X183700000Y-78255000D02*
X183700000Y-78365000D01*
X183700000Y-78365000D02*
X184300000Y-78365000D01*
D13*
%TO.C,T12*%
X176170000Y-76970000D02*
G75*
G02*
X174170000Y-76970000I-1000000J0D01*
G01*
X174170000Y-76970000D02*
G75*
G02*
X176170000Y-76970000I1000000J0D01*
G01*
%TO.C,T11*%
X176120000Y-80010000D02*
G75*
G02*
X174120000Y-80010000I-1000000J0D01*
G01*
X174120000Y-80010000D02*
G75*
G02*
X176120000Y-80010000I1000000J0D01*
G01*
%TO.C,T3*%
X114510000Y-70240000D02*
G75*
G02*
X112510000Y-70240000I-1000000J0D01*
G01*
X112510000Y-70240000D02*
G75*
G02*
X114510000Y-70240000I1000000J0D01*
G01*
%TD*%
%LPC*%
D15*
%TO.C,U1*%
X120640000Y-83780000D03*
X123180000Y-83780000D03*
X125720000Y-83780000D03*
X128260000Y-83780000D03*
X130800000Y-83780000D03*
D16*
X133340000Y-83780000D03*
D15*
X135880000Y-83780000D03*
X138420000Y-83780000D03*
X140960000Y-83780000D03*
X143500000Y-83780000D03*
X146040000Y-83780000D03*
X148580000Y-83780000D03*
X151120000Y-83780000D03*
X153660000Y-83780000D03*
D16*
X156200000Y-83780000D03*
D15*
X158740000Y-83780000D03*
X161280000Y-83780000D03*
X163820000Y-83780000D03*
X166360000Y-83780000D03*
X168900000Y-83780000D03*
X168900000Y-66000000D03*
X166360000Y-66000000D03*
X163820000Y-66000000D03*
X161280000Y-66000000D03*
X158740000Y-66000000D03*
X156200000Y-66000000D03*
X153660000Y-66000000D03*
X151120000Y-66000000D03*
D16*
X148580000Y-66000000D03*
D15*
X146040000Y-66000000D03*
X143500000Y-66000000D03*
X140960000Y-66000000D03*
X138420000Y-66000000D03*
X135880000Y-66000000D03*
D16*
X133340000Y-66000000D03*
D15*
X130800000Y-66000000D03*
X128260000Y-66000000D03*
D16*
X125720000Y-66000000D03*
D15*
X123180000Y-66000000D03*
X120640000Y-66000000D03*
X168895000Y-78720000D03*
D16*
X168895000Y-76180000D03*
D15*
X168895000Y-73640000D03*
X168895000Y-71100000D03*
%TD*%
D17*
%TO.C,T18*%
X181490000Y-106750000D03*
%TD*%
%TO.C,T17*%
X181490000Y-110800000D03*
%TD*%
%TO.C,T4*%
X109970000Y-73920000D03*
%TD*%
%TO.C,T14*%
X185020000Y-98650000D03*
%TD*%
D18*
%TO.C,J3*%
X180270000Y-91790000D03*
X180270000Y-91290000D03*
X180270000Y-90790000D03*
X180270000Y-90290000D03*
X180270000Y-89790000D03*
X180270000Y-89290000D03*
X180270000Y-88790000D03*
X180270000Y-88290000D03*
X180270000Y-87790000D03*
X180270000Y-87290000D03*
X180270000Y-86790000D03*
X180270000Y-86290000D03*
X180270000Y-85790000D03*
X180270000Y-85290000D03*
X180270000Y-84790000D03*
X180270000Y-84290000D03*
X180270000Y-83790000D03*
X180270000Y-83290000D03*
X180270000Y-82790000D03*
X180270000Y-82290000D03*
D19*
X181970000Y-93460000D03*
X181970000Y-80620000D03*
%TD*%
D17*
%TO.C,T19*%
X181490000Y-102700000D03*
%TD*%
D20*
%TO.C,J1*%
X174009293Y-110720707D03*
X174009293Y-108180707D03*
X171469293Y-110720707D03*
X171469293Y-108180707D03*
X168929293Y-110720707D03*
X168929293Y-108180707D03*
X166389293Y-110720707D03*
X166389293Y-108180707D03*
X163849293Y-110720707D03*
X163849293Y-108180707D03*
X161309293Y-110720707D03*
X161309293Y-108180707D03*
X158769293Y-110720707D03*
X158769293Y-108180707D03*
X156229293Y-110720707D03*
X156229293Y-108180707D03*
X153689293Y-110720707D03*
X153689293Y-108180707D03*
X151149293Y-110720707D03*
X151149293Y-108180707D03*
X148609293Y-110720707D03*
X148609293Y-108180707D03*
X146069293Y-110720707D03*
X146069293Y-108180707D03*
X143529293Y-110720707D03*
X143529293Y-108180707D03*
X140989293Y-110720707D03*
X140989293Y-108180707D03*
X138449293Y-110720707D03*
X138449293Y-108180707D03*
X135909293Y-110720707D03*
X135909293Y-108180707D03*
X133369293Y-110720707D03*
X133369293Y-108180707D03*
X130829293Y-110720707D03*
X130829293Y-108180707D03*
X128289293Y-110720707D03*
X128289293Y-108180707D03*
X125749293Y-110720707D03*
X125749293Y-108180707D03*
X123209293Y-110720707D03*
X123209293Y-108180707D03*
X120669293Y-110720707D03*
X120669293Y-108180707D03*
X118129293Y-110720707D03*
X118129293Y-108180707D03*
X115589293Y-110720707D03*
X115589293Y-108180707D03*
X113049293Y-110720707D03*
X113049293Y-108180707D03*
X110509293Y-110720707D03*
X110509293Y-108180707D03*
X107969293Y-110720707D03*
X107969293Y-108180707D03*
%TD*%
D21*
%TO.C,MHP1*%
X106480000Y-62630000D03*
%TD*%
D17*
%TO.C,T15*%
X185020000Y-102700000D03*
%TD*%
%TO.C,T1*%
X177780000Y-98650000D03*
%TD*%
D22*
%TO.C,J2*%
X154690000Y-98345000D03*
X154190000Y-98345000D03*
X153690000Y-98345000D03*
X153190000Y-98345000D03*
X152690000Y-98345000D03*
X152190000Y-98345000D03*
X151690000Y-98345000D03*
X151190000Y-98345000D03*
X150690000Y-98345000D03*
X150190000Y-98345000D03*
X149690000Y-98345000D03*
X149190000Y-98345000D03*
X148690000Y-98345000D03*
X148190000Y-98345000D03*
X147690000Y-98345000D03*
X147190000Y-98345000D03*
X146690000Y-98345000D03*
X146190000Y-98345000D03*
X145690000Y-98345000D03*
X145190000Y-98345000D03*
X144690000Y-98345000D03*
X144190000Y-98345000D03*
X143690000Y-98345000D03*
X143190000Y-98345000D03*
X142690000Y-98345000D03*
X142190000Y-98345000D03*
X141690000Y-98345000D03*
X141190000Y-98345000D03*
X140690000Y-98345000D03*
X140190000Y-98345000D03*
X139690000Y-98345000D03*
X139190000Y-98345000D03*
X138690000Y-98345000D03*
X138190000Y-98345000D03*
X137690000Y-98345000D03*
X137190000Y-98345000D03*
X136690000Y-98345000D03*
X136190000Y-98345000D03*
X135690000Y-98345000D03*
X135190000Y-98345000D03*
X134690000Y-98345000D03*
X134190000Y-98345000D03*
X133690000Y-98345000D03*
X133190000Y-98345000D03*
X132690000Y-98345000D03*
X132190000Y-98345000D03*
X131690000Y-98345000D03*
X131190000Y-98345000D03*
X130690000Y-98345000D03*
X130190000Y-98345000D03*
X129690000Y-98345000D03*
X129190000Y-98345000D03*
X128690000Y-98345000D03*
X128190000Y-98345000D03*
D23*
X156540000Y-95235000D03*
D24*
X123460000Y-95605000D03*
%TD*%
D17*
%TO.C,T2*%
X109970000Y-66560000D03*
%TD*%
%TO.C,T13*%
X185020000Y-106750000D03*
%TD*%
%TO.C,T20*%
X181490000Y-98650000D03*
%TD*%
%TO.C,T16*%
X185020000Y-110800000D03*
%TD*%
%TO.C,T5*%
X113510000Y-73920000D03*
%TD*%
%TO.C,T2*%
X177930000Y-102700000D03*
%TD*%
D18*
%TO.C,J4*%
X111460000Y-85250000D03*
X111460000Y-85750000D03*
X111460000Y-86250000D03*
X111460000Y-86750000D03*
X111460000Y-87250000D03*
X111460000Y-87750000D03*
X111460000Y-88250000D03*
X111460000Y-88750000D03*
D19*
X109760000Y-83580000D03*
X109760000Y-90420000D03*
%TD*%
D17*
%TO.C,T10*%
X109970000Y-70240000D03*
%TD*%
D18*
%TO.C,J5*%
X180280000Y-75290000D03*
X180280000Y-74790000D03*
X180280000Y-74290000D03*
X180280000Y-73790000D03*
X180280000Y-73290000D03*
X180280000Y-72790000D03*
X180280000Y-72290000D03*
X180280000Y-71790000D03*
X180280000Y-71290000D03*
X180280000Y-70790000D03*
X180280000Y-70290000D03*
X180280000Y-69790000D03*
X180280000Y-69290000D03*
X180280000Y-68790000D03*
X180280000Y-68290000D03*
X180280000Y-67790000D03*
X180280000Y-67290000D03*
X180280000Y-66790000D03*
X180280000Y-66290000D03*
X180280000Y-65790000D03*
D19*
X181980000Y-76960000D03*
X181980000Y-64120000D03*
%TD*%
D17*
%TO.C,T12*%
X175170000Y-76970000D03*
%TD*%
D21*
%TO.C,MHP3*%
X186650000Y-112620000D03*
%TD*%
D17*
%TO.C,T11*%
X175120000Y-80010000D03*
%TD*%
%TO.C,T3*%
X113510000Y-70240000D03*
%TD*%
%LPD*%
M02*
