%TF.GenerationSoftware,KiCad,Pcbnew,9.0.6*%
%TF.CreationDate,2026-01-25T16:52:47+00:00*%
%TF.ProjectId,GG_LCD_DIY,47475f4c-4344-45f4-9449-592e6b696361,rev?*%
%TF.SameCoordinates,Original*%
%TF.FileFunction,Legend,Top*%
%TF.FilePolarity,Positive*%
%FSLAX46Y46*%
G04 Gerber Fmt 4.6, Leading zero omitted, Abs format (unit mm)*
G04 Created by KiCad (PCBNEW 9.0.6) date 2026-01-25 16:52:47*
%MOMM*%
%LPD*%
G01*
G04 APERTURE LIST*
G04 Aperture macros list*
%AMRoundRect*
0 Rectangle with rounded corners*
0 $1 Rounding radius*
0 $2 $3 $4 $5 $6 $7 $8 $9 X,Y pos of 4 corners*
0 Add a 4 corners polygon primitive as box body*
4,1,4,$2,$3,$4,$5,$6,$7,$8,$9,$2,$3,0*
0 Add four circle primitives for the rounded corners*
1,1,$1+$1,$2,$3*
1,1,$1+$1,$4,$5*
1,1,$1+$1,$6,$7*
1,1,$1+$1,$8,$9*
0 Add four rect primitives between the rounded corners*
20,1,$1+$1,$2,$3,$4,$5,0*
20,1,$1+$1,$4,$5,$6,$7,0*
20,1,$1+$1,$6,$7,$8,$9,0*
20,1,$1+$1,$8,$9,$2,$3,0*%
%AMFreePoly0*
4,1,5,1.100000,-2.190000,-2.550000,-2.190000,-2.550000,1.600000,1.100000,1.600000,1.100000,-2.190000,1.100000,-2.190000,$1*%
%AMFreePoly1*
4,1,5,1.479392,-2.660000,-3.980000,-2.660000,-3.980000,1.180000,1.480354,1.180000,1.479392,-2.660000,1.479392,-2.660000,$1*%
G04 Aperture macros list end*
%ADD10C,0.150000*%
%ADD11C,0.500000*%
%ADD12C,0.120000*%
%ADD13C,0.151000*%
%ADD14C,0.300000*%
%ADD15C,0.000000*%
%ADD16O,1.700000X1.700000*%
%ADD17R,1.700000X1.700000*%
%ADD18C,1.000000*%
%ADD19R,1.300000X0.300000*%
%ADD20R,3.000000X3.000000*%
%ADD21C,1.300000*%
%ADD22RoundRect,0.075000X0.075000X0.475000X-0.075000X0.475000X-0.075000X-0.475000X0.075000X-0.475000X0*%
%ADD23FreePoly0,180.000000*%
%ADD24FreePoly1,180.000000*%
%ADD25R,2.600000X0.300000*%
%ADD26O,3.300000X1.500000*%
%ADD27O,2.300000X1.500000*%
G04 APERTURE END LIST*
D10*
X180200000Y-92810000D02*
X179964100Y-92574100D01*
X180200000Y-92810000D02*
X179964100Y-93045900D01*
X128157381Y-99641116D02*
X127921481Y-99877016D01*
X179501116Y-92809721D02*
X180200000Y-92810000D01*
X128157102Y-100340000D02*
X128157381Y-99641116D01*
X174600000Y-69100000D02*
X187400000Y-69100000D01*
X128157381Y-99641116D02*
X128393281Y-99877016D01*
X179170588Y-93069819D02*
X178599160Y-93069819D01*
X178884874Y-93069819D02*
X178884874Y-92069819D01*
X178884874Y-92069819D02*
X178789636Y-92212676D01*
X178789636Y-92212676D02*
X178694398Y-92307914D01*
X178694398Y-92307914D02*
X178599160Y-92355533D01*
D11*
X177190476Y-65429294D02*
X177190476Y-63429294D01*
X177190476Y-63429294D02*
X178142857Y-63429294D01*
X178142857Y-63429294D02*
X178380952Y-63524532D01*
X178380952Y-63524532D02*
X178499999Y-63619770D01*
X178499999Y-63619770D02*
X178619047Y-63810246D01*
X178619047Y-63810246D02*
X178619047Y-64095960D01*
X178619047Y-64095960D02*
X178499999Y-64286436D01*
X178499999Y-64286436D02*
X178380952Y-64381675D01*
X178380952Y-64381675D02*
X178142857Y-64476913D01*
X178142857Y-64476913D02*
X177190476Y-64476913D01*
X179690476Y-65429294D02*
X179690476Y-63429294D01*
X182309523Y-65238817D02*
X182190475Y-65334056D01*
X182190475Y-65334056D02*
X181833333Y-65429294D01*
X181833333Y-65429294D02*
X181595237Y-65429294D01*
X181595237Y-65429294D02*
X181238094Y-65334056D01*
X181238094Y-65334056D02*
X180999999Y-65143579D01*
X180999999Y-65143579D02*
X180880952Y-64953103D01*
X180880952Y-64953103D02*
X180761904Y-64572151D01*
X180761904Y-64572151D02*
X180761904Y-64286436D01*
X180761904Y-64286436D02*
X180880952Y-63905484D01*
X180880952Y-63905484D02*
X180999999Y-63715008D01*
X180999999Y-63715008D02*
X181238094Y-63524532D01*
X181238094Y-63524532D02*
X181595237Y-63429294D01*
X181595237Y-63429294D02*
X181833333Y-63429294D01*
X181833333Y-63429294D02*
X182190475Y-63524532D01*
X182190475Y-63524532D02*
X182309523Y-63619770D01*
X183857142Y-63429294D02*
X184333333Y-63429294D01*
X184333333Y-63429294D02*
X184571428Y-63524532D01*
X184571428Y-63524532D02*
X184809523Y-63715008D01*
X184809523Y-63715008D02*
X184928571Y-64095960D01*
X184928571Y-64095960D02*
X184928571Y-64762627D01*
X184928571Y-64762627D02*
X184809523Y-65143579D01*
X184809523Y-65143579D02*
X184571428Y-65334056D01*
X184571428Y-65334056D02*
X184333333Y-65429294D01*
X184333333Y-65429294D02*
X183857142Y-65429294D01*
X183857142Y-65429294D02*
X183619047Y-65334056D01*
X183619047Y-65334056D02*
X183380952Y-65143579D01*
X183380952Y-65143579D02*
X183261904Y-64762627D01*
X183261904Y-64762627D02*
X183261904Y-64095960D01*
X183261904Y-64095960D02*
X183380952Y-63715008D01*
X183380952Y-63715008D02*
X183619047Y-63524532D01*
X183619047Y-63524532D02*
X183857142Y-63429294D01*
X175940475Y-66744420D02*
X175702380Y-66649182D01*
X175702380Y-66649182D02*
X175345237Y-66649182D01*
X175345237Y-66649182D02*
X174988094Y-66744420D01*
X174988094Y-66744420D02*
X174749999Y-66934896D01*
X174749999Y-66934896D02*
X174630952Y-67125372D01*
X174630952Y-67125372D02*
X174511904Y-67506324D01*
X174511904Y-67506324D02*
X174511904Y-67792039D01*
X174511904Y-67792039D02*
X174630952Y-68172991D01*
X174630952Y-68172991D02*
X174749999Y-68363467D01*
X174749999Y-68363467D02*
X174988094Y-68553944D01*
X174988094Y-68553944D02*
X175345237Y-68649182D01*
X175345237Y-68649182D02*
X175583333Y-68649182D01*
X175583333Y-68649182D02*
X175940475Y-68553944D01*
X175940475Y-68553944D02*
X176059523Y-68458705D01*
X176059523Y-68458705D02*
X176059523Y-67792039D01*
X176059523Y-67792039D02*
X175583333Y-67792039D01*
X178440475Y-66744420D02*
X178202380Y-66649182D01*
X178202380Y-66649182D02*
X177845237Y-66649182D01*
X177845237Y-66649182D02*
X177488094Y-66744420D01*
X177488094Y-66744420D02*
X177249999Y-66934896D01*
X177249999Y-66934896D02*
X177130952Y-67125372D01*
X177130952Y-67125372D02*
X177011904Y-67506324D01*
X177011904Y-67506324D02*
X177011904Y-67792039D01*
X177011904Y-67792039D02*
X177130952Y-68172991D01*
X177130952Y-68172991D02*
X177249999Y-68363467D01*
X177249999Y-68363467D02*
X177488094Y-68553944D01*
X177488094Y-68553944D02*
X177845237Y-68649182D01*
X177845237Y-68649182D02*
X178083333Y-68649182D01*
X178083333Y-68649182D02*
X178440475Y-68553944D01*
X178440475Y-68553944D02*
X178559523Y-68458705D01*
X178559523Y-68458705D02*
X178559523Y-67792039D01*
X178559523Y-67792039D02*
X178083333Y-67792039D01*
X182726190Y-68649182D02*
X181535714Y-68649182D01*
X181535714Y-68649182D02*
X181535714Y-66649182D01*
X184988095Y-68458705D02*
X184869047Y-68553944D01*
X184869047Y-68553944D02*
X184511905Y-68649182D01*
X184511905Y-68649182D02*
X184273809Y-68649182D01*
X184273809Y-68649182D02*
X183916666Y-68553944D01*
X183916666Y-68553944D02*
X183678571Y-68363467D01*
X183678571Y-68363467D02*
X183559524Y-68172991D01*
X183559524Y-68172991D02*
X183440476Y-67792039D01*
X183440476Y-67792039D02*
X183440476Y-67506324D01*
X183440476Y-67506324D02*
X183559524Y-67125372D01*
X183559524Y-67125372D02*
X183678571Y-66934896D01*
X183678571Y-66934896D02*
X183916666Y-66744420D01*
X183916666Y-66744420D02*
X184273809Y-66649182D01*
X184273809Y-66649182D02*
X184511905Y-66649182D01*
X184511905Y-66649182D02*
X184869047Y-66744420D01*
X184869047Y-66744420D02*
X184988095Y-66839658D01*
X186059524Y-68649182D02*
X186059524Y-66649182D01*
X186059524Y-66649182D02*
X186654762Y-66649182D01*
X186654762Y-66649182D02*
X187011905Y-66744420D01*
X187011905Y-66744420D02*
X187250000Y-66934896D01*
X187250000Y-66934896D02*
X187369047Y-67125372D01*
X187369047Y-67125372D02*
X187488095Y-67506324D01*
X187488095Y-67506324D02*
X187488095Y-67792039D01*
X187488095Y-67792039D02*
X187369047Y-68172991D01*
X187369047Y-68172991D02*
X187250000Y-68363467D01*
X187250000Y-68363467D02*
X187011905Y-68553944D01*
X187011905Y-68553944D02*
X186654762Y-68649182D01*
X186654762Y-68649182D02*
X186059524Y-68649182D01*
D10*
X156610588Y-99619819D02*
X156039160Y-99619819D01*
X156324874Y-99619819D02*
X156324874Y-98619819D01*
X156324874Y-98619819D02*
X156229636Y-98762676D01*
X156229636Y-98762676D02*
X156134398Y-98857914D01*
X156134398Y-98857914D02*
X156039160Y-98905533D01*
X105973922Y-84259875D02*
X106307255Y-85259875D01*
X106307255Y-85259875D02*
X106640588Y-84259875D01*
X106973922Y-85259875D02*
X106973922Y-84593208D01*
X106973922Y-84259875D02*
X106926303Y-84307494D01*
X106926303Y-84307494D02*
X106973922Y-84355113D01*
X106973922Y-84355113D02*
X107021541Y-84307494D01*
X107021541Y-84307494D02*
X106973922Y-84259875D01*
X106973922Y-84259875D02*
X106973922Y-84355113D01*
X107878683Y-85259875D02*
X107878683Y-84259875D01*
X107878683Y-85212256D02*
X107783445Y-85259875D01*
X107783445Y-85259875D02*
X107592969Y-85259875D01*
X107592969Y-85259875D02*
X107497731Y-85212256D01*
X107497731Y-85212256D02*
X107450112Y-85164636D01*
X107450112Y-85164636D02*
X107402493Y-85069398D01*
X107402493Y-85069398D02*
X107402493Y-84783684D01*
X107402493Y-84783684D02*
X107450112Y-84688446D01*
X107450112Y-84688446D02*
X107497731Y-84640827D01*
X107497731Y-84640827D02*
X107592969Y-84593208D01*
X107592969Y-84593208D02*
X107783445Y-84593208D01*
X107783445Y-84593208D02*
X107878683Y-84640827D01*
X108735826Y-85212256D02*
X108640588Y-85259875D01*
X108640588Y-85259875D02*
X108450112Y-85259875D01*
X108450112Y-85259875D02*
X108354874Y-85212256D01*
X108354874Y-85212256D02*
X108307255Y-85117017D01*
X108307255Y-85117017D02*
X108307255Y-84736065D01*
X108307255Y-84736065D02*
X108354874Y-84640827D01*
X108354874Y-84640827D02*
X108450112Y-84593208D01*
X108450112Y-84593208D02*
X108640588Y-84593208D01*
X108640588Y-84593208D02*
X108735826Y-84640827D01*
X108735826Y-84640827D02*
X108783445Y-84736065D01*
X108783445Y-84736065D02*
X108783445Y-84831303D01*
X108783445Y-84831303D02*
X108307255Y-84926541D01*
X109354874Y-85259875D02*
X109259636Y-85212256D01*
X109259636Y-85212256D02*
X109212017Y-85164636D01*
X109212017Y-85164636D02*
X109164398Y-85069398D01*
X109164398Y-85069398D02*
X109164398Y-84783684D01*
X109164398Y-84783684D02*
X109212017Y-84688446D01*
X109212017Y-84688446D02*
X109259636Y-84640827D01*
X109259636Y-84640827D02*
X109354874Y-84593208D01*
X109354874Y-84593208D02*
X109497731Y-84593208D01*
X109497731Y-84593208D02*
X109592969Y-84640827D01*
X109592969Y-84640827D02*
X109640588Y-84688446D01*
X109640588Y-84688446D02*
X109688207Y-84783684D01*
X109688207Y-84783684D02*
X109688207Y-85069398D01*
X109688207Y-85069398D02*
X109640588Y-85164636D01*
X109640588Y-85164636D02*
X109592969Y-85212256D01*
X109592969Y-85212256D02*
X109497731Y-85259875D01*
X109497731Y-85259875D02*
X109354874Y-85259875D01*
X111069160Y-84259875D02*
X111259636Y-84259875D01*
X111259636Y-84259875D02*
X111354874Y-84307494D01*
X111354874Y-84307494D02*
X111450112Y-84402732D01*
X111450112Y-84402732D02*
X111497731Y-84593208D01*
X111497731Y-84593208D02*
X111497731Y-84926541D01*
X111497731Y-84926541D02*
X111450112Y-85117017D01*
X111450112Y-85117017D02*
X111354874Y-85212256D01*
X111354874Y-85212256D02*
X111259636Y-85259875D01*
X111259636Y-85259875D02*
X111069160Y-85259875D01*
X111069160Y-85259875D02*
X110973922Y-85212256D01*
X110973922Y-85212256D02*
X110878684Y-85117017D01*
X110878684Y-85117017D02*
X110831065Y-84926541D01*
X110831065Y-84926541D02*
X110831065Y-84593208D01*
X110831065Y-84593208D02*
X110878684Y-84402732D01*
X110878684Y-84402732D02*
X110973922Y-84307494D01*
X110973922Y-84307494D02*
X111069160Y-84259875D01*
X112354874Y-84593208D02*
X112354874Y-85259875D01*
X111926303Y-84593208D02*
X111926303Y-85117017D01*
X111926303Y-85117017D02*
X111973922Y-85212256D01*
X111973922Y-85212256D02*
X112069160Y-85259875D01*
X112069160Y-85259875D02*
X112212017Y-85259875D01*
X112212017Y-85259875D02*
X112307255Y-85212256D01*
X112307255Y-85212256D02*
X112354874Y-85164636D01*
X112688208Y-84593208D02*
X113069160Y-84593208D01*
X112831065Y-84259875D02*
X112831065Y-85117017D01*
X112831065Y-85117017D02*
X112878684Y-85212256D01*
X112878684Y-85212256D02*
X112973922Y-85259875D01*
X112973922Y-85259875D02*
X113069160Y-85259875D01*
X105973922Y-85869819D02*
X106545350Y-85869819D01*
X106259636Y-86869819D02*
X106259636Y-85869819D01*
X106783446Y-86203152D02*
X107021541Y-86869819D01*
X107259636Y-86203152D02*
X107021541Y-86869819D01*
X107021541Y-86869819D02*
X106926303Y-87107914D01*
X106926303Y-87107914D02*
X106878684Y-87155533D01*
X106878684Y-87155533D02*
X106783446Y-87203152D01*
X107640589Y-86203152D02*
X107640589Y-87203152D01*
X107640589Y-86250771D02*
X107735827Y-86203152D01*
X107735827Y-86203152D02*
X107926303Y-86203152D01*
X107926303Y-86203152D02*
X108021541Y-86250771D01*
X108021541Y-86250771D02*
X108069160Y-86298390D01*
X108069160Y-86298390D02*
X108116779Y-86393628D01*
X108116779Y-86393628D02*
X108116779Y-86679342D01*
X108116779Y-86679342D02*
X108069160Y-86774580D01*
X108069160Y-86774580D02*
X108021541Y-86822200D01*
X108021541Y-86822200D02*
X107926303Y-86869819D01*
X107926303Y-86869819D02*
X107735827Y-86869819D01*
X107735827Y-86869819D02*
X107640589Y-86822200D01*
X108926303Y-86822200D02*
X108831065Y-86869819D01*
X108831065Y-86869819D02*
X108640589Y-86869819D01*
X108640589Y-86869819D02*
X108545351Y-86822200D01*
X108545351Y-86822200D02*
X108497732Y-86726961D01*
X108497732Y-86726961D02*
X108497732Y-86346009D01*
X108497732Y-86346009D02*
X108545351Y-86250771D01*
X108545351Y-86250771D02*
X108640589Y-86203152D01*
X108640589Y-86203152D02*
X108831065Y-86203152D01*
X108831065Y-86203152D02*
X108926303Y-86250771D01*
X108926303Y-86250771D02*
X108973922Y-86346009D01*
X108973922Y-86346009D02*
X108973922Y-86441247D01*
X108973922Y-86441247D02*
X108497732Y-86536485D01*
X110116780Y-86584104D02*
X110592970Y-86584104D01*
X110021542Y-86869819D02*
X110354875Y-85869819D01*
X110354875Y-85869819D02*
X110688208Y-86869819D01*
X127892969Y-100529819D02*
X127416779Y-100529819D01*
X127416779Y-100529819D02*
X127369160Y-101006009D01*
X127369160Y-101006009D02*
X127416779Y-100958390D01*
X127416779Y-100958390D02*
X127512017Y-100910771D01*
X127512017Y-100910771D02*
X127750112Y-100910771D01*
X127750112Y-100910771D02*
X127845350Y-100958390D01*
X127845350Y-100958390D02*
X127892969Y-101006009D01*
X127892969Y-101006009D02*
X127940588Y-101101247D01*
X127940588Y-101101247D02*
X127940588Y-101339342D01*
X127940588Y-101339342D02*
X127892969Y-101434580D01*
X127892969Y-101434580D02*
X127845350Y-101482200D01*
X127845350Y-101482200D02*
X127750112Y-101529819D01*
X127750112Y-101529819D02*
X127512017Y-101529819D01*
X127512017Y-101529819D02*
X127416779Y-101482200D01*
X127416779Y-101482200D02*
X127369160Y-101434580D01*
X128797731Y-100863152D02*
X128797731Y-101529819D01*
X128559636Y-100482200D02*
X128321541Y-101196485D01*
X128321541Y-101196485D02*
X128940588Y-101196485D01*
X119236779Y-87329819D02*
X119236779Y-88139342D01*
X119236779Y-88139342D02*
X119284398Y-88234580D01*
X119284398Y-88234580D02*
X119332017Y-88282200D01*
X119332017Y-88282200D02*
X119427255Y-88329819D01*
X119427255Y-88329819D02*
X119617731Y-88329819D01*
X119617731Y-88329819D02*
X119712969Y-88282200D01*
X119712969Y-88282200D02*
X119760588Y-88234580D01*
X119760588Y-88234580D02*
X119808207Y-88139342D01*
X119808207Y-88139342D02*
X119808207Y-87329819D01*
X120427255Y-88329819D02*
X120332017Y-88282200D01*
X120332017Y-88282200D02*
X120284398Y-88186961D01*
X120284398Y-88186961D02*
X120284398Y-87329819D01*
X120665351Y-87663152D02*
X121046303Y-87663152D01*
X120808208Y-87329819D02*
X120808208Y-88186961D01*
X120808208Y-88186961D02*
X120855827Y-88282200D01*
X120855827Y-88282200D02*
X120951065Y-88329819D01*
X120951065Y-88329819D02*
X121046303Y-88329819D01*
X121379637Y-88329819D02*
X121379637Y-87663152D01*
X121379637Y-87329819D02*
X121332018Y-87377438D01*
X121332018Y-87377438D02*
X121379637Y-87425057D01*
X121379637Y-87425057D02*
X121427256Y-87377438D01*
X121427256Y-87377438D02*
X121379637Y-87329819D01*
X121379637Y-87329819D02*
X121379637Y-87425057D01*
X121855827Y-88329819D02*
X121855827Y-87663152D01*
X121855827Y-87758390D02*
X121903446Y-87710771D01*
X121903446Y-87710771D02*
X121998684Y-87663152D01*
X121998684Y-87663152D02*
X122141541Y-87663152D01*
X122141541Y-87663152D02*
X122236779Y-87710771D01*
X122236779Y-87710771D02*
X122284398Y-87806009D01*
X122284398Y-87806009D02*
X122284398Y-88329819D01*
X122284398Y-87806009D02*
X122332017Y-87710771D01*
X122332017Y-87710771D02*
X122427255Y-87663152D01*
X122427255Y-87663152D02*
X122570112Y-87663152D01*
X122570112Y-87663152D02*
X122665351Y-87710771D01*
X122665351Y-87710771D02*
X122712970Y-87806009D01*
X122712970Y-87806009D02*
X122712970Y-88329819D01*
X123617731Y-88329819D02*
X123617731Y-87806009D01*
X123617731Y-87806009D02*
X123570112Y-87710771D01*
X123570112Y-87710771D02*
X123474874Y-87663152D01*
X123474874Y-87663152D02*
X123284398Y-87663152D01*
X123284398Y-87663152D02*
X123189160Y-87710771D01*
X123617731Y-88282200D02*
X123522493Y-88329819D01*
X123522493Y-88329819D02*
X123284398Y-88329819D01*
X123284398Y-88329819D02*
X123189160Y-88282200D01*
X123189160Y-88282200D02*
X123141541Y-88186961D01*
X123141541Y-88186961D02*
X123141541Y-88091723D01*
X123141541Y-88091723D02*
X123189160Y-87996485D01*
X123189160Y-87996485D02*
X123284398Y-87948866D01*
X123284398Y-87948866D02*
X123522493Y-87948866D01*
X123522493Y-87948866D02*
X123617731Y-87901247D01*
X123951065Y-87663152D02*
X124332017Y-87663152D01*
X124093922Y-87329819D02*
X124093922Y-88186961D01*
X124093922Y-88186961D02*
X124141541Y-88282200D01*
X124141541Y-88282200D02*
X124236779Y-88329819D01*
X124236779Y-88329819D02*
X124332017Y-88329819D01*
X125046303Y-88282200D02*
X124951065Y-88329819D01*
X124951065Y-88329819D02*
X124760589Y-88329819D01*
X124760589Y-88329819D02*
X124665351Y-88282200D01*
X124665351Y-88282200D02*
X124617732Y-88186961D01*
X124617732Y-88186961D02*
X124617732Y-87806009D01*
X124617732Y-87806009D02*
X124665351Y-87710771D01*
X124665351Y-87710771D02*
X124760589Y-87663152D01*
X124760589Y-87663152D02*
X124951065Y-87663152D01*
X124951065Y-87663152D02*
X125046303Y-87710771D01*
X125046303Y-87710771D02*
X125093922Y-87806009D01*
X125093922Y-87806009D02*
X125093922Y-87901247D01*
X125093922Y-87901247D02*
X124617732Y-87996485D01*
X126284399Y-88329819D02*
X126284399Y-87329819D01*
X126284399Y-87329819D02*
X126665351Y-87329819D01*
X126665351Y-87329819D02*
X126760589Y-87377438D01*
X126760589Y-87377438D02*
X126808208Y-87425057D01*
X126808208Y-87425057D02*
X126855827Y-87520295D01*
X126855827Y-87520295D02*
X126855827Y-87663152D01*
X126855827Y-87663152D02*
X126808208Y-87758390D01*
X126808208Y-87758390D02*
X126760589Y-87806009D01*
X126760589Y-87806009D02*
X126665351Y-87853628D01*
X126665351Y-87853628D02*
X126284399Y-87853628D01*
X127284399Y-88329819D02*
X127284399Y-87663152D01*
X127284399Y-87329819D02*
X127236780Y-87377438D01*
X127236780Y-87377438D02*
X127284399Y-87425057D01*
X127284399Y-87425057D02*
X127332018Y-87377438D01*
X127332018Y-87377438D02*
X127284399Y-87329819D01*
X127284399Y-87329819D02*
X127284399Y-87425057D01*
X128189160Y-88282200D02*
X128093922Y-88329819D01*
X128093922Y-88329819D02*
X127903446Y-88329819D01*
X127903446Y-88329819D02*
X127808208Y-88282200D01*
X127808208Y-88282200D02*
X127760589Y-88234580D01*
X127760589Y-88234580D02*
X127712970Y-88139342D01*
X127712970Y-88139342D02*
X127712970Y-87853628D01*
X127712970Y-87853628D02*
X127760589Y-87758390D01*
X127760589Y-87758390D02*
X127808208Y-87710771D01*
X127808208Y-87710771D02*
X127903446Y-87663152D01*
X127903446Y-87663152D02*
X128093922Y-87663152D01*
X128093922Y-87663152D02*
X128189160Y-87710771D01*
X128760589Y-88329819D02*
X128665351Y-88282200D01*
X128665351Y-88282200D02*
X128617732Y-88234580D01*
X128617732Y-88234580D02*
X128570113Y-88139342D01*
X128570113Y-88139342D02*
X128570113Y-87853628D01*
X128570113Y-87853628D02*
X128617732Y-87758390D01*
X128617732Y-87758390D02*
X128665351Y-87710771D01*
X128665351Y-87710771D02*
X128760589Y-87663152D01*
X128760589Y-87663152D02*
X128903446Y-87663152D01*
X128903446Y-87663152D02*
X128998684Y-87710771D01*
X128998684Y-87710771D02*
X129046303Y-87758390D01*
X129046303Y-87758390D02*
X129093922Y-87853628D01*
X129093922Y-87853628D02*
X129093922Y-88139342D01*
X129093922Y-88139342D02*
X129046303Y-88234580D01*
X129046303Y-88234580D02*
X128998684Y-88282200D01*
X128998684Y-88282200D02*
X128903446Y-88329819D01*
X128903446Y-88329819D02*
X128760589Y-88329819D01*
X132250475Y-101219819D02*
X131774285Y-101219819D01*
X131774285Y-101219819D02*
X131726666Y-101696009D01*
X131726666Y-101696009D02*
X131774285Y-101648390D01*
X131774285Y-101648390D02*
X131869523Y-101600771D01*
X131869523Y-101600771D02*
X132107618Y-101600771D01*
X132107618Y-101600771D02*
X132202856Y-101648390D01*
X132202856Y-101648390D02*
X132250475Y-101696009D01*
X132250475Y-101696009D02*
X132298094Y-101791247D01*
X132298094Y-101791247D02*
X132298094Y-102029342D01*
X132298094Y-102029342D02*
X132250475Y-102124580D01*
X132250475Y-102124580D02*
X132202856Y-102172200D01*
X132202856Y-102172200D02*
X132107618Y-102219819D01*
X132107618Y-102219819D02*
X131869523Y-102219819D01*
X131869523Y-102219819D02*
X131774285Y-102172200D01*
X131774285Y-102172200D02*
X131726666Y-102124580D01*
X133155237Y-101553152D02*
X133155237Y-102219819D01*
X132917142Y-101172200D02*
X132679047Y-101886485D01*
X132679047Y-101886485D02*
X133298094Y-101886485D01*
X133679047Y-101838866D02*
X134440952Y-101838866D01*
X135345713Y-101219819D02*
X135155237Y-101219819D01*
X135155237Y-101219819D02*
X135059999Y-101267438D01*
X135059999Y-101267438D02*
X135012380Y-101315057D01*
X135012380Y-101315057D02*
X134917142Y-101457914D01*
X134917142Y-101457914D02*
X134869523Y-101648390D01*
X134869523Y-101648390D02*
X134869523Y-102029342D01*
X134869523Y-102029342D02*
X134917142Y-102124580D01*
X134917142Y-102124580D02*
X134964761Y-102172200D01*
X134964761Y-102172200D02*
X135059999Y-102219819D01*
X135059999Y-102219819D02*
X135250475Y-102219819D01*
X135250475Y-102219819D02*
X135345713Y-102172200D01*
X135345713Y-102172200D02*
X135393332Y-102124580D01*
X135393332Y-102124580D02*
X135440951Y-102029342D01*
X135440951Y-102029342D02*
X135440951Y-101791247D01*
X135440951Y-101791247D02*
X135393332Y-101696009D01*
X135393332Y-101696009D02*
X135345713Y-101648390D01*
X135345713Y-101648390D02*
X135250475Y-101600771D01*
X135250475Y-101600771D02*
X135059999Y-101600771D01*
X135059999Y-101600771D02*
X134964761Y-101648390D01*
X134964761Y-101648390D02*
X134917142Y-101696009D01*
X134917142Y-101696009D02*
X134869523Y-101791247D01*
X136059999Y-101219819D02*
X136155237Y-101219819D01*
X136155237Y-101219819D02*
X136250475Y-101267438D01*
X136250475Y-101267438D02*
X136298094Y-101315057D01*
X136298094Y-101315057D02*
X136345713Y-101410295D01*
X136345713Y-101410295D02*
X136393332Y-101600771D01*
X136393332Y-101600771D02*
X136393332Y-101838866D01*
X136393332Y-101838866D02*
X136345713Y-102029342D01*
X136345713Y-102029342D02*
X136298094Y-102124580D01*
X136298094Y-102124580D02*
X136250475Y-102172200D01*
X136250475Y-102172200D02*
X136155237Y-102219819D01*
X136155237Y-102219819D02*
X136059999Y-102219819D01*
X136059999Y-102219819D02*
X135964761Y-102172200D01*
X135964761Y-102172200D02*
X135917142Y-102124580D01*
X135917142Y-102124580D02*
X135869523Y-102029342D01*
X135869523Y-102029342D02*
X135821904Y-101838866D01*
X135821904Y-101838866D02*
X135821904Y-101600771D01*
X135821904Y-101600771D02*
X135869523Y-101410295D01*
X135869523Y-101410295D02*
X135917142Y-101315057D01*
X135917142Y-101315057D02*
X135964761Y-101267438D01*
X135964761Y-101267438D02*
X136059999Y-101219819D01*
X137583809Y-102219819D02*
X137583809Y-101219819D01*
X137583809Y-101219819D02*
X137964761Y-101219819D01*
X137964761Y-101219819D02*
X138059999Y-101267438D01*
X138059999Y-101267438D02*
X138107618Y-101315057D01*
X138107618Y-101315057D02*
X138155237Y-101410295D01*
X138155237Y-101410295D02*
X138155237Y-101553152D01*
X138155237Y-101553152D02*
X138107618Y-101648390D01*
X138107618Y-101648390D02*
X138059999Y-101696009D01*
X138059999Y-101696009D02*
X137964761Y-101743628D01*
X137964761Y-101743628D02*
X137583809Y-101743628D01*
X138583809Y-102219819D02*
X138583809Y-101553152D01*
X138583809Y-101219819D02*
X138536190Y-101267438D01*
X138536190Y-101267438D02*
X138583809Y-101315057D01*
X138583809Y-101315057D02*
X138631428Y-101267438D01*
X138631428Y-101267438D02*
X138583809Y-101219819D01*
X138583809Y-101219819D02*
X138583809Y-101315057D01*
X139059999Y-101553152D02*
X139059999Y-102219819D01*
X139059999Y-101648390D02*
X139107618Y-101600771D01*
X139107618Y-101600771D02*
X139202856Y-101553152D01*
X139202856Y-101553152D02*
X139345713Y-101553152D01*
X139345713Y-101553152D02*
X139440951Y-101600771D01*
X139440951Y-101600771D02*
X139488570Y-101696009D01*
X139488570Y-101696009D02*
X139488570Y-102219819D01*
X141202856Y-102219819D02*
X140726666Y-102219819D01*
X140726666Y-102219819D02*
X140726666Y-101219819D01*
X142107618Y-102124580D02*
X142059999Y-102172200D01*
X142059999Y-102172200D02*
X141917142Y-102219819D01*
X141917142Y-102219819D02*
X141821904Y-102219819D01*
X141821904Y-102219819D02*
X141679047Y-102172200D01*
X141679047Y-102172200D02*
X141583809Y-102076961D01*
X141583809Y-102076961D02*
X141536190Y-101981723D01*
X141536190Y-101981723D02*
X141488571Y-101791247D01*
X141488571Y-101791247D02*
X141488571Y-101648390D01*
X141488571Y-101648390D02*
X141536190Y-101457914D01*
X141536190Y-101457914D02*
X141583809Y-101362676D01*
X141583809Y-101362676D02*
X141679047Y-101267438D01*
X141679047Y-101267438D02*
X141821904Y-101219819D01*
X141821904Y-101219819D02*
X141917142Y-101219819D01*
X141917142Y-101219819D02*
X142059999Y-101267438D01*
X142059999Y-101267438D02*
X142107618Y-101315057D01*
X142536190Y-102219819D02*
X142536190Y-101219819D01*
X142536190Y-101219819D02*
X142774285Y-101219819D01*
X142774285Y-101219819D02*
X142917142Y-101267438D01*
X142917142Y-101267438D02*
X143012380Y-101362676D01*
X143012380Y-101362676D02*
X143059999Y-101457914D01*
X143059999Y-101457914D02*
X143107618Y-101648390D01*
X143107618Y-101648390D02*
X143107618Y-101791247D01*
X143107618Y-101791247D02*
X143059999Y-101981723D01*
X143059999Y-101981723D02*
X143012380Y-102076961D01*
X143012380Y-102076961D02*
X142917142Y-102172200D01*
X142917142Y-102172200D02*
X142774285Y-102219819D01*
X142774285Y-102219819D02*
X142536190Y-102219819D01*
X144869523Y-102124580D02*
X144821904Y-102172200D01*
X144821904Y-102172200D02*
X144679047Y-102219819D01*
X144679047Y-102219819D02*
X144583809Y-102219819D01*
X144583809Y-102219819D02*
X144440952Y-102172200D01*
X144440952Y-102172200D02*
X144345714Y-102076961D01*
X144345714Y-102076961D02*
X144298095Y-101981723D01*
X144298095Y-101981723D02*
X144250476Y-101791247D01*
X144250476Y-101791247D02*
X144250476Y-101648390D01*
X144250476Y-101648390D02*
X144298095Y-101457914D01*
X144298095Y-101457914D02*
X144345714Y-101362676D01*
X144345714Y-101362676D02*
X144440952Y-101267438D01*
X144440952Y-101267438D02*
X144583809Y-101219819D01*
X144583809Y-101219819D02*
X144679047Y-101219819D01*
X144679047Y-101219819D02*
X144821904Y-101267438D01*
X144821904Y-101267438D02*
X144869523Y-101315057D01*
X145440952Y-102219819D02*
X145345714Y-102172200D01*
X145345714Y-102172200D02*
X145298095Y-102124580D01*
X145298095Y-102124580D02*
X145250476Y-102029342D01*
X145250476Y-102029342D02*
X145250476Y-101743628D01*
X145250476Y-101743628D02*
X145298095Y-101648390D01*
X145298095Y-101648390D02*
X145345714Y-101600771D01*
X145345714Y-101600771D02*
X145440952Y-101553152D01*
X145440952Y-101553152D02*
X145583809Y-101553152D01*
X145583809Y-101553152D02*
X145679047Y-101600771D01*
X145679047Y-101600771D02*
X145726666Y-101648390D01*
X145726666Y-101648390D02*
X145774285Y-101743628D01*
X145774285Y-101743628D02*
X145774285Y-102029342D01*
X145774285Y-102029342D02*
X145726666Y-102124580D01*
X145726666Y-102124580D02*
X145679047Y-102172200D01*
X145679047Y-102172200D02*
X145583809Y-102219819D01*
X145583809Y-102219819D02*
X145440952Y-102219819D01*
X146202857Y-101553152D02*
X146202857Y-102219819D01*
X146202857Y-101648390D02*
X146250476Y-101600771D01*
X146250476Y-101600771D02*
X146345714Y-101553152D01*
X146345714Y-101553152D02*
X146488571Y-101553152D01*
X146488571Y-101553152D02*
X146583809Y-101600771D01*
X146583809Y-101600771D02*
X146631428Y-101696009D01*
X146631428Y-101696009D02*
X146631428Y-102219819D01*
X147107619Y-101553152D02*
X147107619Y-102219819D01*
X147107619Y-101648390D02*
X147155238Y-101600771D01*
X147155238Y-101600771D02*
X147250476Y-101553152D01*
X147250476Y-101553152D02*
X147393333Y-101553152D01*
X147393333Y-101553152D02*
X147488571Y-101600771D01*
X147488571Y-101600771D02*
X147536190Y-101696009D01*
X147536190Y-101696009D02*
X147536190Y-102219819D01*
X148393333Y-102172200D02*
X148298095Y-102219819D01*
X148298095Y-102219819D02*
X148107619Y-102219819D01*
X148107619Y-102219819D02*
X148012381Y-102172200D01*
X148012381Y-102172200D02*
X147964762Y-102076961D01*
X147964762Y-102076961D02*
X147964762Y-101696009D01*
X147964762Y-101696009D02*
X148012381Y-101600771D01*
X148012381Y-101600771D02*
X148107619Y-101553152D01*
X148107619Y-101553152D02*
X148298095Y-101553152D01*
X148298095Y-101553152D02*
X148393333Y-101600771D01*
X148393333Y-101600771D02*
X148440952Y-101696009D01*
X148440952Y-101696009D02*
X148440952Y-101791247D01*
X148440952Y-101791247D02*
X147964762Y-101886485D01*
X149298095Y-102172200D02*
X149202857Y-102219819D01*
X149202857Y-102219819D02*
X149012381Y-102219819D01*
X149012381Y-102219819D02*
X148917143Y-102172200D01*
X148917143Y-102172200D02*
X148869524Y-102124580D01*
X148869524Y-102124580D02*
X148821905Y-102029342D01*
X148821905Y-102029342D02*
X148821905Y-101743628D01*
X148821905Y-101743628D02*
X148869524Y-101648390D01*
X148869524Y-101648390D02*
X148917143Y-101600771D01*
X148917143Y-101600771D02*
X149012381Y-101553152D01*
X149012381Y-101553152D02*
X149202857Y-101553152D01*
X149202857Y-101553152D02*
X149298095Y-101600771D01*
X149583810Y-101553152D02*
X149964762Y-101553152D01*
X149726667Y-101219819D02*
X149726667Y-102076961D01*
X149726667Y-102076961D02*
X149774286Y-102172200D01*
X149774286Y-102172200D02*
X149869524Y-102219819D01*
X149869524Y-102219819D02*
X149964762Y-102219819D01*
X150440953Y-102219819D02*
X150345715Y-102172200D01*
X150345715Y-102172200D02*
X150298096Y-102124580D01*
X150298096Y-102124580D02*
X150250477Y-102029342D01*
X150250477Y-102029342D02*
X150250477Y-101743628D01*
X150250477Y-101743628D02*
X150298096Y-101648390D01*
X150298096Y-101648390D02*
X150345715Y-101600771D01*
X150345715Y-101600771D02*
X150440953Y-101553152D01*
X150440953Y-101553152D02*
X150583810Y-101553152D01*
X150583810Y-101553152D02*
X150679048Y-101600771D01*
X150679048Y-101600771D02*
X150726667Y-101648390D01*
X150726667Y-101648390D02*
X150774286Y-101743628D01*
X150774286Y-101743628D02*
X150774286Y-102029342D01*
X150774286Y-102029342D02*
X150726667Y-102124580D01*
X150726667Y-102124580D02*
X150679048Y-102172200D01*
X150679048Y-102172200D02*
X150583810Y-102219819D01*
X150583810Y-102219819D02*
X150440953Y-102219819D01*
X151202858Y-102219819D02*
X151202858Y-101553152D01*
X151202858Y-101743628D02*
X151250477Y-101648390D01*
X151250477Y-101648390D02*
X151298096Y-101600771D01*
X151298096Y-101600771D02*
X151393334Y-101553152D01*
X151393334Y-101553152D02*
X151488572Y-101553152D01*
X174742268Y-84145169D02*
X174789887Y-84097550D01*
X174789887Y-84097550D02*
X174885125Y-84049931D01*
X174885125Y-84049931D02*
X175123220Y-84049931D01*
X175123220Y-84049931D02*
X175218458Y-84097550D01*
X175218458Y-84097550D02*
X175266077Y-84145169D01*
X175266077Y-84145169D02*
X175313696Y-84240407D01*
X175313696Y-84240407D02*
X175313696Y-84335645D01*
X175313696Y-84335645D02*
X175266077Y-84478502D01*
X175266077Y-84478502D02*
X174694649Y-85049931D01*
X174694649Y-85049931D02*
X175313696Y-85049931D01*
X176170839Y-84383264D02*
X176170839Y-85049931D01*
X175932744Y-84002312D02*
X175694649Y-84716597D01*
X175694649Y-84716597D02*
X176313696Y-84716597D01*
X177456554Y-85049931D02*
X177456554Y-84049931D01*
X177456554Y-84049931D02*
X177837506Y-84049931D01*
X177837506Y-84049931D02*
X177932744Y-84097550D01*
X177932744Y-84097550D02*
X177980363Y-84145169D01*
X177980363Y-84145169D02*
X178027982Y-84240407D01*
X178027982Y-84240407D02*
X178027982Y-84383264D01*
X178027982Y-84383264D02*
X177980363Y-84478502D01*
X177980363Y-84478502D02*
X177932744Y-84526121D01*
X177932744Y-84526121D02*
X177837506Y-84573740D01*
X177837506Y-84573740D02*
X177456554Y-84573740D01*
X178456554Y-85049931D02*
X178456554Y-84383264D01*
X178456554Y-84049931D02*
X178408935Y-84097550D01*
X178408935Y-84097550D02*
X178456554Y-84145169D01*
X178456554Y-84145169D02*
X178504173Y-84097550D01*
X178504173Y-84097550D02*
X178456554Y-84049931D01*
X178456554Y-84049931D02*
X178456554Y-84145169D01*
X178932744Y-84383264D02*
X178932744Y-85049931D01*
X178932744Y-84478502D02*
X178980363Y-84430883D01*
X178980363Y-84430883D02*
X179075601Y-84383264D01*
X179075601Y-84383264D02*
X179218458Y-84383264D01*
X179218458Y-84383264D02*
X179313696Y-84430883D01*
X179313696Y-84430883D02*
X179361315Y-84526121D01*
X179361315Y-84526121D02*
X179361315Y-85049931D01*
X176456553Y-86659875D02*
X176456553Y-85659875D01*
X176456553Y-85659875D02*
X176694648Y-85659875D01*
X176694648Y-85659875D02*
X176837505Y-85707494D01*
X176837505Y-85707494D02*
X176932743Y-85802732D01*
X176932743Y-85802732D02*
X176980362Y-85897970D01*
X176980362Y-85897970D02*
X177027981Y-86088446D01*
X177027981Y-86088446D02*
X177027981Y-86231303D01*
X177027981Y-86231303D02*
X176980362Y-86421779D01*
X176980362Y-86421779D02*
X176932743Y-86517017D01*
X176932743Y-86517017D02*
X176837505Y-86612256D01*
X176837505Y-86612256D02*
X176694648Y-86659875D01*
X176694648Y-86659875D02*
X176456553Y-86659875D01*
X177885124Y-86659875D02*
X177885124Y-86136065D01*
X177885124Y-86136065D02*
X177837505Y-86040827D01*
X177837505Y-86040827D02*
X177742267Y-85993208D01*
X177742267Y-85993208D02*
X177551791Y-85993208D01*
X177551791Y-85993208D02*
X177456553Y-86040827D01*
X177885124Y-86612256D02*
X177789886Y-86659875D01*
X177789886Y-86659875D02*
X177551791Y-86659875D01*
X177551791Y-86659875D02*
X177456553Y-86612256D01*
X177456553Y-86612256D02*
X177408934Y-86517017D01*
X177408934Y-86517017D02*
X177408934Y-86421779D01*
X177408934Y-86421779D02*
X177456553Y-86326541D01*
X177456553Y-86326541D02*
X177551791Y-86278922D01*
X177551791Y-86278922D02*
X177789886Y-86278922D01*
X177789886Y-86278922D02*
X177885124Y-86231303D01*
X178218458Y-85993208D02*
X178599410Y-85993208D01*
X178361315Y-85659875D02*
X178361315Y-86517017D01*
X178361315Y-86517017D02*
X178408934Y-86612256D01*
X178408934Y-86612256D02*
X178504172Y-86659875D01*
X178504172Y-86659875D02*
X178599410Y-86659875D01*
X179361315Y-86659875D02*
X179361315Y-86136065D01*
X179361315Y-86136065D02*
X179313696Y-86040827D01*
X179313696Y-86040827D02*
X179218458Y-85993208D01*
X179218458Y-85993208D02*
X179027982Y-85993208D01*
X179027982Y-85993208D02*
X178932744Y-86040827D01*
X179361315Y-86612256D02*
X179266077Y-86659875D01*
X179266077Y-86659875D02*
X179027982Y-86659875D01*
X179027982Y-86659875D02*
X178932744Y-86612256D01*
X178932744Y-86612256D02*
X178885125Y-86517017D01*
X178885125Y-86517017D02*
X178885125Y-86421779D01*
X178885125Y-86421779D02*
X178932744Y-86326541D01*
X178932744Y-86326541D02*
X179027982Y-86278922D01*
X179027982Y-86278922D02*
X179266077Y-86278922D01*
X179266077Y-86278922D02*
X179361315Y-86231303D01*
X173647028Y-88174580D02*
X173599409Y-88222200D01*
X173599409Y-88222200D02*
X173456552Y-88269819D01*
X173456552Y-88269819D02*
X173361314Y-88269819D01*
X173361314Y-88269819D02*
X173218457Y-88222200D01*
X173218457Y-88222200D02*
X173123219Y-88126961D01*
X173123219Y-88126961D02*
X173075600Y-88031723D01*
X173075600Y-88031723D02*
X173027981Y-87841247D01*
X173027981Y-87841247D02*
X173027981Y-87698390D01*
X173027981Y-87698390D02*
X173075600Y-87507914D01*
X173075600Y-87507914D02*
X173123219Y-87412676D01*
X173123219Y-87412676D02*
X173218457Y-87317438D01*
X173218457Y-87317438D02*
X173361314Y-87269819D01*
X173361314Y-87269819D02*
X173456552Y-87269819D01*
X173456552Y-87269819D02*
X173599409Y-87317438D01*
X173599409Y-87317438D02*
X173647028Y-87365057D01*
X174218457Y-88269819D02*
X174123219Y-88222200D01*
X174123219Y-88222200D02*
X174075600Y-88174580D01*
X174075600Y-88174580D02*
X174027981Y-88079342D01*
X174027981Y-88079342D02*
X174027981Y-87793628D01*
X174027981Y-87793628D02*
X174075600Y-87698390D01*
X174075600Y-87698390D02*
X174123219Y-87650771D01*
X174123219Y-87650771D02*
X174218457Y-87603152D01*
X174218457Y-87603152D02*
X174361314Y-87603152D01*
X174361314Y-87603152D02*
X174456552Y-87650771D01*
X174456552Y-87650771D02*
X174504171Y-87698390D01*
X174504171Y-87698390D02*
X174551790Y-87793628D01*
X174551790Y-87793628D02*
X174551790Y-88079342D01*
X174551790Y-88079342D02*
X174504171Y-88174580D01*
X174504171Y-88174580D02*
X174456552Y-88222200D01*
X174456552Y-88222200D02*
X174361314Y-88269819D01*
X174361314Y-88269819D02*
X174218457Y-88269819D01*
X174980362Y-87603152D02*
X174980362Y-88269819D01*
X174980362Y-87698390D02*
X175027981Y-87650771D01*
X175027981Y-87650771D02*
X175123219Y-87603152D01*
X175123219Y-87603152D02*
X175266076Y-87603152D01*
X175266076Y-87603152D02*
X175361314Y-87650771D01*
X175361314Y-87650771D02*
X175408933Y-87746009D01*
X175408933Y-87746009D02*
X175408933Y-88269819D01*
X175885124Y-87603152D02*
X175885124Y-88269819D01*
X175885124Y-87698390D02*
X175932743Y-87650771D01*
X175932743Y-87650771D02*
X176027981Y-87603152D01*
X176027981Y-87603152D02*
X176170838Y-87603152D01*
X176170838Y-87603152D02*
X176266076Y-87650771D01*
X176266076Y-87650771D02*
X176313695Y-87746009D01*
X176313695Y-87746009D02*
X176313695Y-88269819D01*
X177170838Y-88222200D02*
X177075600Y-88269819D01*
X177075600Y-88269819D02*
X176885124Y-88269819D01*
X176885124Y-88269819D02*
X176789886Y-88222200D01*
X176789886Y-88222200D02*
X176742267Y-88126961D01*
X176742267Y-88126961D02*
X176742267Y-87746009D01*
X176742267Y-87746009D02*
X176789886Y-87650771D01*
X176789886Y-87650771D02*
X176885124Y-87603152D01*
X176885124Y-87603152D02*
X177075600Y-87603152D01*
X177075600Y-87603152D02*
X177170838Y-87650771D01*
X177170838Y-87650771D02*
X177218457Y-87746009D01*
X177218457Y-87746009D02*
X177218457Y-87841247D01*
X177218457Y-87841247D02*
X176742267Y-87936485D01*
X178075600Y-88222200D02*
X177980362Y-88269819D01*
X177980362Y-88269819D02*
X177789886Y-88269819D01*
X177789886Y-88269819D02*
X177694648Y-88222200D01*
X177694648Y-88222200D02*
X177647029Y-88174580D01*
X177647029Y-88174580D02*
X177599410Y-88079342D01*
X177599410Y-88079342D02*
X177599410Y-87793628D01*
X177599410Y-87793628D02*
X177647029Y-87698390D01*
X177647029Y-87698390D02*
X177694648Y-87650771D01*
X177694648Y-87650771D02*
X177789886Y-87603152D01*
X177789886Y-87603152D02*
X177980362Y-87603152D01*
X177980362Y-87603152D02*
X178075600Y-87650771D01*
X178361315Y-87603152D02*
X178742267Y-87603152D01*
X178504172Y-87269819D02*
X178504172Y-88126961D01*
X178504172Y-88126961D02*
X178551791Y-88222200D01*
X178551791Y-88222200D02*
X178647029Y-88269819D01*
X178647029Y-88269819D02*
X178742267Y-88269819D01*
X179218458Y-88269819D02*
X179123220Y-88222200D01*
X179123220Y-88222200D02*
X179075601Y-88174580D01*
X179075601Y-88174580D02*
X179027982Y-88079342D01*
X179027982Y-88079342D02*
X179027982Y-87793628D01*
X179027982Y-87793628D02*
X179075601Y-87698390D01*
X179075601Y-87698390D02*
X179123220Y-87650771D01*
X179123220Y-87650771D02*
X179218458Y-87603152D01*
X179218458Y-87603152D02*
X179361315Y-87603152D01*
X179361315Y-87603152D02*
X179456553Y-87650771D01*
X179456553Y-87650771D02*
X179504172Y-87698390D01*
X179504172Y-87698390D02*
X179551791Y-87793628D01*
X179551791Y-87793628D02*
X179551791Y-88079342D01*
X179551791Y-88079342D02*
X179504172Y-88174580D01*
X179504172Y-88174580D02*
X179456553Y-88222200D01*
X179456553Y-88222200D02*
X179361315Y-88269819D01*
X179361315Y-88269819D02*
X179218458Y-88269819D01*
X179980363Y-88269819D02*
X179980363Y-87603152D01*
X179980363Y-87793628D02*
X180027982Y-87698390D01*
X180027982Y-87698390D02*
X180075601Y-87650771D01*
X180075601Y-87650771D02*
X180170839Y-87603152D01*
X180170839Y-87603152D02*
X180266077Y-87603152D01*
X110558095Y-74854819D02*
X110558095Y-75664342D01*
X110558095Y-75664342D02*
X110605714Y-75759580D01*
X110605714Y-75759580D02*
X110653333Y-75807200D01*
X110653333Y-75807200D02*
X110748571Y-75854819D01*
X110748571Y-75854819D02*
X110939047Y-75854819D01*
X110939047Y-75854819D02*
X111034285Y-75807200D01*
X111034285Y-75807200D02*
X111081904Y-75759580D01*
X111081904Y-75759580D02*
X111129523Y-75664342D01*
X111129523Y-75664342D02*
X111129523Y-74854819D01*
X111510476Y-74854819D02*
X112177142Y-74854819D01*
X112177142Y-74854819D02*
X111748571Y-75854819D01*
X128352438Y-69729411D02*
X128304819Y-69824649D01*
X128304819Y-69824649D02*
X128304819Y-69967506D01*
X128304819Y-69967506D02*
X128352438Y-70110363D01*
X128352438Y-70110363D02*
X128447676Y-70205601D01*
X128447676Y-70205601D02*
X128542914Y-70253220D01*
X128542914Y-70253220D02*
X128733390Y-70300839D01*
X128733390Y-70300839D02*
X128876247Y-70300839D01*
X128876247Y-70300839D02*
X129066723Y-70253220D01*
X129066723Y-70253220D02*
X129161961Y-70205601D01*
X129161961Y-70205601D02*
X129257200Y-70110363D01*
X129257200Y-70110363D02*
X129304819Y-69967506D01*
X129304819Y-69967506D02*
X129304819Y-69872268D01*
X129304819Y-69872268D02*
X129257200Y-69729411D01*
X129257200Y-69729411D02*
X129209580Y-69681792D01*
X129209580Y-69681792D02*
X128876247Y-69681792D01*
X128876247Y-69681792D02*
X128876247Y-69872268D01*
X129304819Y-69253220D02*
X128304819Y-69253220D01*
X128304819Y-69253220D02*
X129304819Y-68681792D01*
X129304819Y-68681792D02*
X128304819Y-68681792D01*
X129304819Y-68205601D02*
X128304819Y-68205601D01*
X128304819Y-68205601D02*
X128304819Y-67967506D01*
X128304819Y-67967506D02*
X128352438Y-67824649D01*
X128352438Y-67824649D02*
X128447676Y-67729411D01*
X128447676Y-67729411D02*
X128542914Y-67681792D01*
X128542914Y-67681792D02*
X128733390Y-67634173D01*
X128733390Y-67634173D02*
X128876247Y-67634173D01*
X128876247Y-67634173D02*
X129066723Y-67681792D01*
X129066723Y-67681792D02*
X129161961Y-67729411D01*
X129161961Y-67729411D02*
X129257200Y-67824649D01*
X129257200Y-67824649D02*
X129304819Y-67967506D01*
X129304819Y-67967506D02*
X129304819Y-68205601D01*
X151252438Y-82529411D02*
X151204819Y-82624649D01*
X151204819Y-82624649D02*
X151204819Y-82767506D01*
X151204819Y-82767506D02*
X151252438Y-82910363D01*
X151252438Y-82910363D02*
X151347676Y-83005601D01*
X151347676Y-83005601D02*
X151442914Y-83053220D01*
X151442914Y-83053220D02*
X151633390Y-83100839D01*
X151633390Y-83100839D02*
X151776247Y-83100839D01*
X151776247Y-83100839D02*
X151966723Y-83053220D01*
X151966723Y-83053220D02*
X152061961Y-83005601D01*
X152061961Y-83005601D02*
X152157200Y-82910363D01*
X152157200Y-82910363D02*
X152204819Y-82767506D01*
X152204819Y-82767506D02*
X152204819Y-82672268D01*
X152204819Y-82672268D02*
X152157200Y-82529411D01*
X152157200Y-82529411D02*
X152109580Y-82481792D01*
X152109580Y-82481792D02*
X151776247Y-82481792D01*
X151776247Y-82481792D02*
X151776247Y-82672268D01*
X152204819Y-82053220D02*
X151204819Y-82053220D01*
X151204819Y-82053220D02*
X152204819Y-81481792D01*
X152204819Y-81481792D02*
X151204819Y-81481792D01*
X152204819Y-81005601D02*
X151204819Y-81005601D01*
X151204819Y-81005601D02*
X151204819Y-80767506D01*
X151204819Y-80767506D02*
X151252438Y-80624649D01*
X151252438Y-80624649D02*
X151347676Y-80529411D01*
X151347676Y-80529411D02*
X151442914Y-80481792D01*
X151442914Y-80481792D02*
X151633390Y-80434173D01*
X151633390Y-80434173D02*
X151776247Y-80434173D01*
X151776247Y-80434173D02*
X151966723Y-80481792D01*
X151966723Y-80481792D02*
X152061961Y-80529411D01*
X152061961Y-80529411D02*
X152157200Y-80624649D01*
X152157200Y-80624649D02*
X152204819Y-80767506D01*
X152204819Y-80767506D02*
X152204819Y-81005601D01*
X128372438Y-82529411D02*
X128324819Y-82624649D01*
X128324819Y-82624649D02*
X128324819Y-82767506D01*
X128324819Y-82767506D02*
X128372438Y-82910363D01*
X128372438Y-82910363D02*
X128467676Y-83005601D01*
X128467676Y-83005601D02*
X128562914Y-83053220D01*
X128562914Y-83053220D02*
X128753390Y-83100839D01*
X128753390Y-83100839D02*
X128896247Y-83100839D01*
X128896247Y-83100839D02*
X129086723Y-83053220D01*
X129086723Y-83053220D02*
X129181961Y-83005601D01*
X129181961Y-83005601D02*
X129277200Y-82910363D01*
X129277200Y-82910363D02*
X129324819Y-82767506D01*
X129324819Y-82767506D02*
X129324819Y-82672268D01*
X129324819Y-82672268D02*
X129277200Y-82529411D01*
X129277200Y-82529411D02*
X129229580Y-82481792D01*
X129229580Y-82481792D02*
X128896247Y-82481792D01*
X128896247Y-82481792D02*
X128896247Y-82672268D01*
X129324819Y-82053220D02*
X128324819Y-82053220D01*
X128324819Y-82053220D02*
X129324819Y-81481792D01*
X129324819Y-81481792D02*
X128324819Y-81481792D01*
X129324819Y-81005601D02*
X128324819Y-81005601D01*
X128324819Y-81005601D02*
X128324819Y-80767506D01*
X128324819Y-80767506D02*
X128372438Y-80624649D01*
X128372438Y-80624649D02*
X128467676Y-80529411D01*
X128467676Y-80529411D02*
X128562914Y-80481792D01*
X128562914Y-80481792D02*
X128753390Y-80434173D01*
X128753390Y-80434173D02*
X128896247Y-80434173D01*
X128896247Y-80434173D02*
X129086723Y-80481792D01*
X129086723Y-80481792D02*
X129181961Y-80529411D01*
X129181961Y-80529411D02*
X129277200Y-80624649D01*
X129277200Y-80624649D02*
X129324819Y-80767506D01*
X129324819Y-80767506D02*
X129324819Y-81005601D01*
X120752438Y-69729411D02*
X120704819Y-69824649D01*
X120704819Y-69824649D02*
X120704819Y-69967506D01*
X120704819Y-69967506D02*
X120752438Y-70110363D01*
X120752438Y-70110363D02*
X120847676Y-70205601D01*
X120847676Y-70205601D02*
X120942914Y-70253220D01*
X120942914Y-70253220D02*
X121133390Y-70300839D01*
X121133390Y-70300839D02*
X121276247Y-70300839D01*
X121276247Y-70300839D02*
X121466723Y-70253220D01*
X121466723Y-70253220D02*
X121561961Y-70205601D01*
X121561961Y-70205601D02*
X121657200Y-70110363D01*
X121657200Y-70110363D02*
X121704819Y-69967506D01*
X121704819Y-69967506D02*
X121704819Y-69872268D01*
X121704819Y-69872268D02*
X121657200Y-69729411D01*
X121657200Y-69729411D02*
X121609580Y-69681792D01*
X121609580Y-69681792D02*
X121276247Y-69681792D01*
X121276247Y-69681792D02*
X121276247Y-69872268D01*
X121704819Y-69253220D02*
X120704819Y-69253220D01*
X120704819Y-69253220D02*
X121704819Y-68681792D01*
X121704819Y-68681792D02*
X120704819Y-68681792D01*
X121704819Y-68205601D02*
X120704819Y-68205601D01*
X120704819Y-68205601D02*
X120704819Y-67967506D01*
X120704819Y-67967506D02*
X120752438Y-67824649D01*
X120752438Y-67824649D02*
X120847676Y-67729411D01*
X120847676Y-67729411D02*
X120942914Y-67681792D01*
X120942914Y-67681792D02*
X121133390Y-67634173D01*
X121133390Y-67634173D02*
X121276247Y-67634173D01*
X121276247Y-67634173D02*
X121466723Y-67681792D01*
X121466723Y-67681792D02*
X121561961Y-67729411D01*
X121561961Y-67729411D02*
X121657200Y-67824649D01*
X121657200Y-67824649D02*
X121704819Y-67967506D01*
X121704819Y-67967506D02*
X121704819Y-68205601D01*
X115692438Y-82549411D02*
X115644819Y-82644649D01*
X115644819Y-82644649D02*
X115644819Y-82787506D01*
X115644819Y-82787506D02*
X115692438Y-82930363D01*
X115692438Y-82930363D02*
X115787676Y-83025601D01*
X115787676Y-83025601D02*
X115882914Y-83073220D01*
X115882914Y-83073220D02*
X116073390Y-83120839D01*
X116073390Y-83120839D02*
X116216247Y-83120839D01*
X116216247Y-83120839D02*
X116406723Y-83073220D01*
X116406723Y-83073220D02*
X116501961Y-83025601D01*
X116501961Y-83025601D02*
X116597200Y-82930363D01*
X116597200Y-82930363D02*
X116644819Y-82787506D01*
X116644819Y-82787506D02*
X116644819Y-82692268D01*
X116644819Y-82692268D02*
X116597200Y-82549411D01*
X116597200Y-82549411D02*
X116549580Y-82501792D01*
X116549580Y-82501792D02*
X116216247Y-82501792D01*
X116216247Y-82501792D02*
X116216247Y-82692268D01*
X116644819Y-82073220D02*
X115644819Y-82073220D01*
X115644819Y-82073220D02*
X115644819Y-81692268D01*
X115644819Y-81692268D02*
X115692438Y-81597030D01*
X115692438Y-81597030D02*
X115740057Y-81549411D01*
X115740057Y-81549411D02*
X115835295Y-81501792D01*
X115835295Y-81501792D02*
X115978152Y-81501792D01*
X115978152Y-81501792D02*
X116073390Y-81549411D01*
X116073390Y-81549411D02*
X116121009Y-81597030D01*
X116121009Y-81597030D02*
X116168628Y-81692268D01*
X116168628Y-81692268D02*
X116168628Y-82073220D01*
X115644819Y-80882744D02*
X115644819Y-80787506D01*
X115644819Y-80787506D02*
X115692438Y-80692268D01*
X115692438Y-80692268D02*
X115740057Y-80644649D01*
X115740057Y-80644649D02*
X115835295Y-80597030D01*
X115835295Y-80597030D02*
X116025771Y-80549411D01*
X116025771Y-80549411D02*
X116263866Y-80549411D01*
X116263866Y-80549411D02*
X116454342Y-80597030D01*
X116454342Y-80597030D02*
X116549580Y-80644649D01*
X116549580Y-80644649D02*
X116597200Y-80692268D01*
X116597200Y-80692268D02*
X116644819Y-80787506D01*
X116644819Y-80787506D02*
X116644819Y-80882744D01*
X116644819Y-80882744D02*
X116597200Y-80977982D01*
X116597200Y-80977982D02*
X116549580Y-81025601D01*
X116549580Y-81025601D02*
X116454342Y-81073220D01*
X116454342Y-81073220D02*
X116263866Y-81120839D01*
X116263866Y-81120839D02*
X116025771Y-81120839D01*
X116025771Y-81120839D02*
X115835295Y-81073220D01*
X115835295Y-81073220D02*
X115740057Y-81025601D01*
X115740057Y-81025601D02*
X115692438Y-80977982D01*
X115692438Y-80977982D02*
X115644819Y-80882744D01*
X118134819Y-69896077D02*
X119134819Y-69562744D01*
X119134819Y-69562744D02*
X118134819Y-69229411D01*
X119134819Y-68896077D02*
X118134819Y-68896077D01*
X119134819Y-68419887D02*
X118134819Y-68419887D01*
X118134819Y-68419887D02*
X119134819Y-67848459D01*
X119134819Y-67848459D02*
X118134819Y-67848459D01*
X143582438Y-69709411D02*
X143534819Y-69804649D01*
X143534819Y-69804649D02*
X143534819Y-69947506D01*
X143534819Y-69947506D02*
X143582438Y-70090363D01*
X143582438Y-70090363D02*
X143677676Y-70185601D01*
X143677676Y-70185601D02*
X143772914Y-70233220D01*
X143772914Y-70233220D02*
X143963390Y-70280839D01*
X143963390Y-70280839D02*
X144106247Y-70280839D01*
X144106247Y-70280839D02*
X144296723Y-70233220D01*
X144296723Y-70233220D02*
X144391961Y-70185601D01*
X144391961Y-70185601D02*
X144487200Y-70090363D01*
X144487200Y-70090363D02*
X144534819Y-69947506D01*
X144534819Y-69947506D02*
X144534819Y-69852268D01*
X144534819Y-69852268D02*
X144487200Y-69709411D01*
X144487200Y-69709411D02*
X144439580Y-69661792D01*
X144439580Y-69661792D02*
X144106247Y-69661792D01*
X144106247Y-69661792D02*
X144106247Y-69852268D01*
X144534819Y-69233220D02*
X143534819Y-69233220D01*
X143534819Y-69233220D02*
X144534819Y-68661792D01*
X144534819Y-68661792D02*
X143534819Y-68661792D01*
X144534819Y-68185601D02*
X143534819Y-68185601D01*
X143534819Y-68185601D02*
X143534819Y-67947506D01*
X143534819Y-67947506D02*
X143582438Y-67804649D01*
X143582438Y-67804649D02*
X143677676Y-67709411D01*
X143677676Y-67709411D02*
X143772914Y-67661792D01*
X143772914Y-67661792D02*
X143963390Y-67614173D01*
X143963390Y-67614173D02*
X144106247Y-67614173D01*
X144106247Y-67614173D02*
X144296723Y-67661792D01*
X144296723Y-67661792D02*
X144391961Y-67709411D01*
X144391961Y-67709411D02*
X144487200Y-67804649D01*
X144487200Y-67804649D02*
X144534819Y-67947506D01*
X144534819Y-67947506D02*
X144534819Y-68185601D01*
X184806667Y-107487200D02*
X184949524Y-107534819D01*
X184949524Y-107534819D02*
X185187619Y-107534819D01*
X185187619Y-107534819D02*
X185282857Y-107487200D01*
X185282857Y-107487200D02*
X185330476Y-107439580D01*
X185330476Y-107439580D02*
X185378095Y-107344342D01*
X185378095Y-107344342D02*
X185378095Y-107249104D01*
X185378095Y-107249104D02*
X185330476Y-107153866D01*
X185330476Y-107153866D02*
X185282857Y-107106247D01*
X185282857Y-107106247D02*
X185187619Y-107058628D01*
X185187619Y-107058628D02*
X184997143Y-107011009D01*
X184997143Y-107011009D02*
X184901905Y-106963390D01*
X184901905Y-106963390D02*
X184854286Y-106915771D01*
X184854286Y-106915771D02*
X184806667Y-106820533D01*
X184806667Y-106820533D02*
X184806667Y-106725295D01*
X184806667Y-106725295D02*
X184854286Y-106630057D01*
X184854286Y-106630057D02*
X184901905Y-106582438D01*
X184901905Y-106582438D02*
X184997143Y-106534819D01*
X184997143Y-106534819D02*
X185235238Y-106534819D01*
X185235238Y-106534819D02*
X185378095Y-106582438D01*
X185806667Y-107534819D02*
X185806667Y-106534819D01*
X185806667Y-106534819D02*
X186140000Y-107249104D01*
X186140000Y-107249104D02*
X186473333Y-106534819D01*
X186473333Y-106534819D02*
X186473333Y-107534819D01*
X186901905Y-107487200D02*
X187044762Y-107534819D01*
X187044762Y-107534819D02*
X187282857Y-107534819D01*
X187282857Y-107534819D02*
X187378095Y-107487200D01*
X187378095Y-107487200D02*
X187425714Y-107439580D01*
X187425714Y-107439580D02*
X187473333Y-107344342D01*
X187473333Y-107344342D02*
X187473333Y-107249104D01*
X187473333Y-107249104D02*
X187425714Y-107153866D01*
X187425714Y-107153866D02*
X187378095Y-107106247D01*
X187378095Y-107106247D02*
X187282857Y-107058628D01*
X187282857Y-107058628D02*
X187092381Y-107011009D01*
X187092381Y-107011009D02*
X186997143Y-106963390D01*
X186997143Y-106963390D02*
X186949524Y-106915771D01*
X186949524Y-106915771D02*
X186901905Y-106820533D01*
X186901905Y-106820533D02*
X186901905Y-106725295D01*
X186901905Y-106725295D02*
X186949524Y-106630057D01*
X186949524Y-106630057D02*
X186997143Y-106582438D01*
X186997143Y-106582438D02*
X187092381Y-106534819D01*
X187092381Y-106534819D02*
X187330476Y-106534819D01*
X187330476Y-106534819D02*
X187473333Y-106582438D01*
X169223809Y-83037200D02*
X169366666Y-83084819D01*
X169366666Y-83084819D02*
X169604761Y-83084819D01*
X169604761Y-83084819D02*
X169699999Y-83037200D01*
X169699999Y-83037200D02*
X169747618Y-82989580D01*
X169747618Y-82989580D02*
X169795237Y-82894342D01*
X169795237Y-82894342D02*
X169795237Y-82799104D01*
X169795237Y-82799104D02*
X169747618Y-82703866D01*
X169747618Y-82703866D02*
X169699999Y-82656247D01*
X169699999Y-82656247D02*
X169604761Y-82608628D01*
X169604761Y-82608628D02*
X169414285Y-82561009D01*
X169414285Y-82561009D02*
X169319047Y-82513390D01*
X169319047Y-82513390D02*
X169271428Y-82465771D01*
X169271428Y-82465771D02*
X169223809Y-82370533D01*
X169223809Y-82370533D02*
X169223809Y-82275295D01*
X169223809Y-82275295D02*
X169271428Y-82180057D01*
X169271428Y-82180057D02*
X169319047Y-82132438D01*
X169319047Y-82132438D02*
X169414285Y-82084819D01*
X169414285Y-82084819D02*
X169652380Y-82084819D01*
X169652380Y-82084819D02*
X169795237Y-82132438D01*
X170080952Y-82084819D02*
X170652380Y-82084819D01*
X170366666Y-83084819D02*
X170366666Y-82084819D01*
X170938095Y-82799104D02*
X171414285Y-82799104D01*
X170842857Y-83084819D02*
X171176190Y-82084819D01*
X171176190Y-82084819D02*
X171509523Y-83084819D01*
X172414285Y-83084819D02*
X172080952Y-82608628D01*
X171842857Y-83084819D02*
X171842857Y-82084819D01*
X171842857Y-82084819D02*
X172223809Y-82084819D01*
X172223809Y-82084819D02*
X172319047Y-82132438D01*
X172319047Y-82132438D02*
X172366666Y-82180057D01*
X172366666Y-82180057D02*
X172414285Y-82275295D01*
X172414285Y-82275295D02*
X172414285Y-82418152D01*
X172414285Y-82418152D02*
X172366666Y-82513390D01*
X172366666Y-82513390D02*
X172319047Y-82561009D01*
X172319047Y-82561009D02*
X172223809Y-82608628D01*
X172223809Y-82608628D02*
X171842857Y-82608628D01*
X172700000Y-82084819D02*
X173271428Y-82084819D01*
X172985714Y-83084819D02*
X172985714Y-82084819D01*
X185464761Y-99019580D02*
X185417142Y-99067200D01*
X185417142Y-99067200D02*
X185274285Y-99114819D01*
X185274285Y-99114819D02*
X185179047Y-99114819D01*
X185179047Y-99114819D02*
X185036190Y-99067200D01*
X185036190Y-99067200D02*
X184940952Y-98971961D01*
X184940952Y-98971961D02*
X184893333Y-98876723D01*
X184893333Y-98876723D02*
X184845714Y-98686247D01*
X184845714Y-98686247D02*
X184845714Y-98543390D01*
X184845714Y-98543390D02*
X184893333Y-98352914D01*
X184893333Y-98352914D02*
X184940952Y-98257676D01*
X184940952Y-98257676D02*
X185036190Y-98162438D01*
X185036190Y-98162438D02*
X185179047Y-98114819D01*
X185179047Y-98114819D02*
X185274285Y-98114819D01*
X185274285Y-98114819D02*
X185417142Y-98162438D01*
X185417142Y-98162438D02*
X185464761Y-98210057D01*
X186369523Y-99114819D02*
X185893333Y-99114819D01*
X185893333Y-99114819D02*
X185893333Y-98114819D01*
X186702857Y-99114819D02*
X186702857Y-98114819D01*
X187274285Y-99114819D02*
X186845714Y-98543390D01*
X187274285Y-98114819D02*
X186702857Y-98686247D01*
X178646666Y-89574819D02*
X178646666Y-90289104D01*
X178646666Y-90289104D02*
X178599047Y-90431961D01*
X178599047Y-90431961D02*
X178503809Y-90527200D01*
X178503809Y-90527200D02*
X178360952Y-90574819D01*
X178360952Y-90574819D02*
X178265714Y-90574819D01*
X179027619Y-89574819D02*
X179646666Y-89574819D01*
X179646666Y-89574819D02*
X179313333Y-89955771D01*
X179313333Y-89955771D02*
X179456190Y-89955771D01*
X179456190Y-89955771D02*
X179551428Y-90003390D01*
X179551428Y-90003390D02*
X179599047Y-90051009D01*
X179599047Y-90051009D02*
X179646666Y-90146247D01*
X179646666Y-90146247D02*
X179646666Y-90384342D01*
X179646666Y-90384342D02*
X179599047Y-90479580D01*
X179599047Y-90479580D02*
X179551428Y-90527200D01*
X179551428Y-90527200D02*
X179456190Y-90574819D01*
X179456190Y-90574819D02*
X179170476Y-90574819D01*
X179170476Y-90574819D02*
X179075238Y-90527200D01*
X179075238Y-90527200D02*
X179027619Y-90479580D01*
X179601905Y-75014819D02*
X179601905Y-74014819D01*
X179601905Y-74014819D02*
X179840000Y-74014819D01*
X179840000Y-74014819D02*
X179982857Y-74062438D01*
X179982857Y-74062438D02*
X180078095Y-74157676D01*
X180078095Y-74157676D02*
X180125714Y-74252914D01*
X180125714Y-74252914D02*
X180173333Y-74443390D01*
X180173333Y-74443390D02*
X180173333Y-74586247D01*
X180173333Y-74586247D02*
X180125714Y-74776723D01*
X180125714Y-74776723D02*
X180078095Y-74871961D01*
X180078095Y-74871961D02*
X179982857Y-74967200D01*
X179982857Y-74967200D02*
X179840000Y-75014819D01*
X179840000Y-75014819D02*
X179601905Y-75014819D01*
X180506667Y-74014819D02*
X181125714Y-74014819D01*
X181125714Y-74014819D02*
X180792381Y-74395771D01*
X180792381Y-74395771D02*
X180935238Y-74395771D01*
X180935238Y-74395771D02*
X181030476Y-74443390D01*
X181030476Y-74443390D02*
X181078095Y-74491009D01*
X181078095Y-74491009D02*
X181125714Y-74586247D01*
X181125714Y-74586247D02*
X181125714Y-74824342D01*
X181125714Y-74824342D02*
X181078095Y-74919580D01*
X181078095Y-74919580D02*
X181030476Y-74967200D01*
X181030476Y-74967200D02*
X180935238Y-75014819D01*
X180935238Y-75014819D02*
X180649524Y-75014819D01*
X180649524Y-75014819D02*
X180554286Y-74967200D01*
X180554286Y-74967200D02*
X180506667Y-74919580D01*
X170170476Y-79371009D02*
X170313333Y-79418628D01*
X170313333Y-79418628D02*
X170360952Y-79466247D01*
X170360952Y-79466247D02*
X170408571Y-79561485D01*
X170408571Y-79561485D02*
X170408571Y-79704342D01*
X170408571Y-79704342D02*
X170360952Y-79799580D01*
X170360952Y-79799580D02*
X170313333Y-79847200D01*
X170313333Y-79847200D02*
X170218095Y-79894819D01*
X170218095Y-79894819D02*
X169837143Y-79894819D01*
X169837143Y-79894819D02*
X169837143Y-78894819D01*
X169837143Y-78894819D02*
X170170476Y-78894819D01*
X170170476Y-78894819D02*
X170265714Y-78942438D01*
X170265714Y-78942438D02*
X170313333Y-78990057D01*
X170313333Y-78990057D02*
X170360952Y-79085295D01*
X170360952Y-79085295D02*
X170360952Y-79180533D01*
X170360952Y-79180533D02*
X170313333Y-79275771D01*
X170313333Y-79275771D02*
X170265714Y-79323390D01*
X170265714Y-79323390D02*
X170170476Y-79371009D01*
X170170476Y-79371009D02*
X169837143Y-79371009D01*
X170694286Y-78894819D02*
X171265714Y-78894819D01*
X170980000Y-79894819D02*
X170980000Y-78894819D01*
X171599048Y-79894819D02*
X171599048Y-78894819D01*
X171599048Y-78894819D02*
X172170476Y-79894819D01*
X172170476Y-79894819D02*
X172170476Y-78894819D01*
X172599048Y-78990057D02*
X172646667Y-78942438D01*
X172646667Y-78942438D02*
X172741905Y-78894819D01*
X172741905Y-78894819D02*
X172980000Y-78894819D01*
X172980000Y-78894819D02*
X173075238Y-78942438D01*
X173075238Y-78942438D02*
X173122857Y-78990057D01*
X173122857Y-78990057D02*
X173170476Y-79085295D01*
X173170476Y-79085295D02*
X173170476Y-79180533D01*
X173170476Y-79180533D02*
X173122857Y-79323390D01*
X173122857Y-79323390D02*
X172551429Y-79894819D01*
X172551429Y-79894819D02*
X173170476Y-79894819D01*
X185418571Y-104679580D02*
X185370952Y-104727200D01*
X185370952Y-104727200D02*
X185228095Y-104774819D01*
X185228095Y-104774819D02*
X185132857Y-104774819D01*
X185132857Y-104774819D02*
X184990000Y-104727200D01*
X184990000Y-104727200D02*
X184894762Y-104631961D01*
X184894762Y-104631961D02*
X184847143Y-104536723D01*
X184847143Y-104536723D02*
X184799524Y-104346247D01*
X184799524Y-104346247D02*
X184799524Y-104203390D01*
X184799524Y-104203390D02*
X184847143Y-104012914D01*
X184847143Y-104012914D02*
X184894762Y-103917676D01*
X184894762Y-103917676D02*
X184990000Y-103822438D01*
X184990000Y-103822438D02*
X185132857Y-103774819D01*
X185132857Y-103774819D02*
X185228095Y-103774819D01*
X185228095Y-103774819D02*
X185370952Y-103822438D01*
X185370952Y-103822438D02*
X185418571Y-103870057D01*
X186323333Y-104774819D02*
X185847143Y-104774819D01*
X185847143Y-104774819D02*
X185847143Y-103774819D01*
X186609048Y-103870057D02*
X186656667Y-103822438D01*
X186656667Y-103822438D02*
X186751905Y-103774819D01*
X186751905Y-103774819D02*
X186990000Y-103774819D01*
X186990000Y-103774819D02*
X187085238Y-103822438D01*
X187085238Y-103822438D02*
X187132857Y-103870057D01*
X187132857Y-103870057D02*
X187180476Y-103965295D01*
X187180476Y-103965295D02*
X187180476Y-104060533D01*
X187180476Y-104060533D02*
X187132857Y-104203390D01*
X187132857Y-104203390D02*
X186561429Y-104774819D01*
X186561429Y-104774819D02*
X187180476Y-104774819D01*
X179848095Y-96712438D02*
X179752857Y-96664819D01*
X179752857Y-96664819D02*
X179610000Y-96664819D01*
X179610000Y-96664819D02*
X179467143Y-96712438D01*
X179467143Y-96712438D02*
X179371905Y-96807676D01*
X179371905Y-96807676D02*
X179324286Y-96902914D01*
X179324286Y-96902914D02*
X179276667Y-97093390D01*
X179276667Y-97093390D02*
X179276667Y-97236247D01*
X179276667Y-97236247D02*
X179324286Y-97426723D01*
X179324286Y-97426723D02*
X179371905Y-97521961D01*
X179371905Y-97521961D02*
X179467143Y-97617200D01*
X179467143Y-97617200D02*
X179610000Y-97664819D01*
X179610000Y-97664819D02*
X179705238Y-97664819D01*
X179705238Y-97664819D02*
X179848095Y-97617200D01*
X179848095Y-97617200D02*
X179895714Y-97569580D01*
X179895714Y-97569580D02*
X179895714Y-97236247D01*
X179895714Y-97236247D02*
X179705238Y-97236247D01*
X180324286Y-97664819D02*
X180324286Y-96664819D01*
X180324286Y-96664819D02*
X180895714Y-97664819D01*
X180895714Y-97664819D02*
X180895714Y-96664819D01*
X181371905Y-97664819D02*
X181371905Y-96664819D01*
X181371905Y-96664819D02*
X181610000Y-96664819D01*
X181610000Y-96664819D02*
X181752857Y-96712438D01*
X181752857Y-96712438D02*
X181848095Y-96807676D01*
X181848095Y-96807676D02*
X181895714Y-96902914D01*
X181895714Y-96902914D02*
X181943333Y-97093390D01*
X181943333Y-97093390D02*
X181943333Y-97236247D01*
X181943333Y-97236247D02*
X181895714Y-97426723D01*
X181895714Y-97426723D02*
X181848095Y-97521961D01*
X181848095Y-97521961D02*
X181752857Y-97617200D01*
X181752857Y-97617200D02*
X181610000Y-97664819D01*
X181610000Y-97664819D02*
X181371905Y-97664819D01*
X175637142Y-99702438D02*
X175541904Y-99654819D01*
X175541904Y-99654819D02*
X175399047Y-99654819D01*
X175399047Y-99654819D02*
X175256190Y-99702438D01*
X175256190Y-99702438D02*
X175160952Y-99797676D01*
X175160952Y-99797676D02*
X175113333Y-99892914D01*
X175113333Y-99892914D02*
X175065714Y-100083390D01*
X175065714Y-100083390D02*
X175065714Y-100226247D01*
X175065714Y-100226247D02*
X175113333Y-100416723D01*
X175113333Y-100416723D02*
X175160952Y-100511961D01*
X175160952Y-100511961D02*
X175256190Y-100607200D01*
X175256190Y-100607200D02*
X175399047Y-100654819D01*
X175399047Y-100654819D02*
X175494285Y-100654819D01*
X175494285Y-100654819D02*
X175637142Y-100607200D01*
X175637142Y-100607200D02*
X175684761Y-100559580D01*
X175684761Y-100559580D02*
X175684761Y-100226247D01*
X175684761Y-100226247D02*
X175494285Y-100226247D01*
X176637142Y-99702438D02*
X176541904Y-99654819D01*
X176541904Y-99654819D02*
X176399047Y-99654819D01*
X176399047Y-99654819D02*
X176256190Y-99702438D01*
X176256190Y-99702438D02*
X176160952Y-99797676D01*
X176160952Y-99797676D02*
X176113333Y-99892914D01*
X176113333Y-99892914D02*
X176065714Y-100083390D01*
X176065714Y-100083390D02*
X176065714Y-100226247D01*
X176065714Y-100226247D02*
X176113333Y-100416723D01*
X176113333Y-100416723D02*
X176160952Y-100511961D01*
X176160952Y-100511961D02*
X176256190Y-100607200D01*
X176256190Y-100607200D02*
X176399047Y-100654819D01*
X176399047Y-100654819D02*
X176494285Y-100654819D01*
X176494285Y-100654819D02*
X176637142Y-100607200D01*
X176637142Y-100607200D02*
X176684761Y-100559580D01*
X176684761Y-100559580D02*
X176684761Y-100226247D01*
X176684761Y-100226247D02*
X176494285Y-100226247D01*
X177875238Y-100273866D02*
X178637143Y-100273866D01*
X178256190Y-100654819D02*
X178256190Y-99892914D01*
X179589523Y-99654819D02*
X179113333Y-99654819D01*
X179113333Y-99654819D02*
X179065714Y-100131009D01*
X179065714Y-100131009D02*
X179113333Y-100083390D01*
X179113333Y-100083390D02*
X179208571Y-100035771D01*
X179208571Y-100035771D02*
X179446666Y-100035771D01*
X179446666Y-100035771D02*
X179541904Y-100083390D01*
X179541904Y-100083390D02*
X179589523Y-100131009D01*
X179589523Y-100131009D02*
X179637142Y-100226247D01*
X179637142Y-100226247D02*
X179637142Y-100464342D01*
X179637142Y-100464342D02*
X179589523Y-100559580D01*
X179589523Y-100559580D02*
X179541904Y-100607200D01*
X179541904Y-100607200D02*
X179446666Y-100654819D01*
X179446666Y-100654819D02*
X179208571Y-100654819D01*
X179208571Y-100654819D02*
X179113333Y-100607200D01*
X179113333Y-100607200D02*
X179065714Y-100559580D01*
X179922857Y-99654819D02*
X180256190Y-100654819D01*
X180256190Y-100654819D02*
X180589523Y-99654819D01*
X166390476Y-76231009D02*
X166533333Y-76278628D01*
X166533333Y-76278628D02*
X166580952Y-76326247D01*
X166580952Y-76326247D02*
X166628571Y-76421485D01*
X166628571Y-76421485D02*
X166628571Y-76564342D01*
X166628571Y-76564342D02*
X166580952Y-76659580D01*
X166580952Y-76659580D02*
X166533333Y-76707200D01*
X166533333Y-76707200D02*
X166438095Y-76754819D01*
X166438095Y-76754819D02*
X166057143Y-76754819D01*
X166057143Y-76754819D02*
X166057143Y-75754819D01*
X166057143Y-75754819D02*
X166390476Y-75754819D01*
X166390476Y-75754819D02*
X166485714Y-75802438D01*
X166485714Y-75802438D02*
X166533333Y-75850057D01*
X166533333Y-75850057D02*
X166580952Y-75945295D01*
X166580952Y-75945295D02*
X166580952Y-76040533D01*
X166580952Y-76040533D02*
X166533333Y-76135771D01*
X166533333Y-76135771D02*
X166485714Y-76183390D01*
X166485714Y-76183390D02*
X166390476Y-76231009D01*
X166390476Y-76231009D02*
X166057143Y-76231009D01*
X166914286Y-75754819D02*
X167485714Y-75754819D01*
X167200000Y-76754819D02*
X167200000Y-75754819D01*
X167819048Y-76754819D02*
X167819048Y-75754819D01*
X167819048Y-75754819D02*
X168390476Y-76754819D01*
X168390476Y-76754819D02*
X168390476Y-75754819D01*
X169390476Y-76754819D02*
X168819048Y-76754819D01*
X169104762Y-76754819D02*
X169104762Y-75754819D01*
X169104762Y-75754819D02*
X169009524Y-75897676D01*
X169009524Y-75897676D02*
X168914286Y-75992914D01*
X168914286Y-75992914D02*
X168819048Y-76040533D01*
X124596666Y-99534819D02*
X124596666Y-100249104D01*
X124596666Y-100249104D02*
X124549047Y-100391961D01*
X124549047Y-100391961D02*
X124453809Y-100487200D01*
X124453809Y-100487200D02*
X124310952Y-100534819D01*
X124310952Y-100534819D02*
X124215714Y-100534819D01*
X125025238Y-99630057D02*
X125072857Y-99582438D01*
X125072857Y-99582438D02*
X125168095Y-99534819D01*
X125168095Y-99534819D02*
X125406190Y-99534819D01*
X125406190Y-99534819D02*
X125501428Y-99582438D01*
X125501428Y-99582438D02*
X125549047Y-99630057D01*
X125549047Y-99630057D02*
X125596666Y-99725295D01*
X125596666Y-99725295D02*
X125596666Y-99820533D01*
X125596666Y-99820533D02*
X125549047Y-99963390D01*
X125549047Y-99963390D02*
X124977619Y-100534819D01*
X124977619Y-100534819D02*
X125596666Y-100534819D01*
X184866667Y-101984819D02*
X184866667Y-100984819D01*
X184866667Y-100984819D02*
X185104762Y-100984819D01*
X185104762Y-100984819D02*
X185247619Y-101032438D01*
X185247619Y-101032438D02*
X185342857Y-101127676D01*
X185342857Y-101127676D02*
X185390476Y-101222914D01*
X185390476Y-101222914D02*
X185438095Y-101413390D01*
X185438095Y-101413390D02*
X185438095Y-101556247D01*
X185438095Y-101556247D02*
X185390476Y-101746723D01*
X185390476Y-101746723D02*
X185342857Y-101841961D01*
X185342857Y-101841961D02*
X185247619Y-101937200D01*
X185247619Y-101937200D02*
X185104762Y-101984819D01*
X185104762Y-101984819D02*
X184866667Y-101984819D01*
X185771429Y-100984819D02*
X186009524Y-101984819D01*
X186009524Y-101984819D02*
X186200000Y-101270533D01*
X186200000Y-101270533D02*
X186390476Y-101984819D01*
X186390476Y-101984819D02*
X186628572Y-100984819D01*
X185941905Y-75014819D02*
X185941905Y-74014819D01*
X185941905Y-74014819D02*
X186180000Y-74014819D01*
X186180000Y-74014819D02*
X186322857Y-74062438D01*
X186322857Y-74062438D02*
X186418095Y-74157676D01*
X186418095Y-74157676D02*
X186465714Y-74252914D01*
X186465714Y-74252914D02*
X186513333Y-74443390D01*
X186513333Y-74443390D02*
X186513333Y-74586247D01*
X186513333Y-74586247D02*
X186465714Y-74776723D01*
X186465714Y-74776723D02*
X186418095Y-74871961D01*
X186418095Y-74871961D02*
X186322857Y-74967200D01*
X186322857Y-74967200D02*
X186180000Y-75014819D01*
X186180000Y-75014819D02*
X185941905Y-75014819D01*
X187370476Y-74348152D02*
X187370476Y-75014819D01*
X187132381Y-73967200D02*
X186894286Y-74681485D01*
X186894286Y-74681485D02*
X187513333Y-74681485D01*
X167098571Y-70781009D02*
X167241428Y-70828628D01*
X167241428Y-70828628D02*
X167289047Y-70876247D01*
X167289047Y-70876247D02*
X167336666Y-70971485D01*
X167336666Y-70971485D02*
X167336666Y-71114342D01*
X167336666Y-71114342D02*
X167289047Y-71209580D01*
X167289047Y-71209580D02*
X167241428Y-71257200D01*
X167241428Y-71257200D02*
X167146190Y-71304819D01*
X167146190Y-71304819D02*
X166765238Y-71304819D01*
X166765238Y-71304819D02*
X166765238Y-70304819D01*
X166765238Y-70304819D02*
X167098571Y-70304819D01*
X167098571Y-70304819D02*
X167193809Y-70352438D01*
X167193809Y-70352438D02*
X167241428Y-70400057D01*
X167241428Y-70400057D02*
X167289047Y-70495295D01*
X167289047Y-70495295D02*
X167289047Y-70590533D01*
X167289047Y-70590533D02*
X167241428Y-70685771D01*
X167241428Y-70685771D02*
X167193809Y-70733390D01*
X167193809Y-70733390D02*
X167098571Y-70781009D01*
X167098571Y-70781009D02*
X166765238Y-70781009D01*
X168336666Y-71304819D02*
X168003333Y-70828628D01*
X167765238Y-71304819D02*
X167765238Y-70304819D01*
X167765238Y-70304819D02*
X168146190Y-70304819D01*
X168146190Y-70304819D02*
X168241428Y-70352438D01*
X168241428Y-70352438D02*
X168289047Y-70400057D01*
X168289047Y-70400057D02*
X168336666Y-70495295D01*
X168336666Y-70495295D02*
X168336666Y-70638152D01*
X168336666Y-70638152D02*
X168289047Y-70733390D01*
X168289047Y-70733390D02*
X168241428Y-70781009D01*
X168241428Y-70781009D02*
X168146190Y-70828628D01*
X168146190Y-70828628D02*
X167765238Y-70828628D01*
X168765238Y-71304819D02*
X168765238Y-70304819D01*
X169765237Y-70352438D02*
X169669999Y-70304819D01*
X169669999Y-70304819D02*
X169527142Y-70304819D01*
X169527142Y-70304819D02*
X169384285Y-70352438D01*
X169384285Y-70352438D02*
X169289047Y-70447676D01*
X169289047Y-70447676D02*
X169241428Y-70542914D01*
X169241428Y-70542914D02*
X169193809Y-70733390D01*
X169193809Y-70733390D02*
X169193809Y-70876247D01*
X169193809Y-70876247D02*
X169241428Y-71066723D01*
X169241428Y-71066723D02*
X169289047Y-71161961D01*
X169289047Y-71161961D02*
X169384285Y-71257200D01*
X169384285Y-71257200D02*
X169527142Y-71304819D01*
X169527142Y-71304819D02*
X169622380Y-71304819D01*
X169622380Y-71304819D02*
X169765237Y-71257200D01*
X169765237Y-71257200D02*
X169812856Y-71209580D01*
X169812856Y-71209580D02*
X169812856Y-70876247D01*
X169812856Y-70876247D02*
X169622380Y-70876247D01*
X170241428Y-71304819D02*
X170241428Y-70304819D01*
X170241428Y-70781009D02*
X170812856Y-70781009D01*
X170812856Y-71304819D02*
X170812856Y-70304819D01*
X171146190Y-70304819D02*
X171717618Y-70304819D01*
X171431904Y-71304819D02*
X171431904Y-70304819D01*
X110851666Y-104064819D02*
X110851666Y-104779104D01*
X110851666Y-104779104D02*
X110804047Y-104921961D01*
X110804047Y-104921961D02*
X110708809Y-105017200D01*
X110708809Y-105017200D02*
X110565952Y-105064819D01*
X110565952Y-105064819D02*
X110470714Y-105064819D01*
X111851666Y-105064819D02*
X111280238Y-105064819D01*
X111565952Y-105064819D02*
X111565952Y-104064819D01*
X111565952Y-104064819D02*
X111470714Y-104207676D01*
X111470714Y-104207676D02*
X111375476Y-104302914D01*
X111375476Y-104302914D02*
X111280238Y-104350533D01*
X171190476Y-73189104D02*
X171666666Y-73189104D01*
X171095238Y-73474819D02*
X171428571Y-72474819D01*
X171428571Y-72474819D02*
X171761904Y-73474819D01*
X172095238Y-72474819D02*
X172095238Y-73284342D01*
X172095238Y-73284342D02*
X172142857Y-73379580D01*
X172142857Y-73379580D02*
X172190476Y-73427200D01*
X172190476Y-73427200D02*
X172285714Y-73474819D01*
X172285714Y-73474819D02*
X172476190Y-73474819D01*
X172476190Y-73474819D02*
X172571428Y-73427200D01*
X172571428Y-73427200D02*
X172619047Y-73379580D01*
X172619047Y-73379580D02*
X172666666Y-73284342D01*
X172666666Y-73284342D02*
X172666666Y-72474819D01*
X173142857Y-73474819D02*
X173142857Y-72474819D01*
X173142857Y-72474819D02*
X173380952Y-72474819D01*
X173380952Y-72474819D02*
X173523809Y-72522438D01*
X173523809Y-72522438D02*
X173619047Y-72617676D01*
X173619047Y-72617676D02*
X173666666Y-72712914D01*
X173666666Y-72712914D02*
X173714285Y-72903390D01*
X173714285Y-72903390D02*
X173714285Y-73046247D01*
X173714285Y-73046247D02*
X173666666Y-73236723D01*
X173666666Y-73236723D02*
X173619047Y-73331961D01*
X173619047Y-73331961D02*
X173523809Y-73427200D01*
X173523809Y-73427200D02*
X173380952Y-73474819D01*
X173380952Y-73474819D02*
X173142857Y-73474819D01*
X174142857Y-73474819D02*
X174142857Y-72474819D01*
X174809523Y-72474819D02*
X174999999Y-72474819D01*
X174999999Y-72474819D02*
X175095237Y-72522438D01*
X175095237Y-72522438D02*
X175190475Y-72617676D01*
X175190475Y-72617676D02*
X175238094Y-72808152D01*
X175238094Y-72808152D02*
X175238094Y-73141485D01*
X175238094Y-73141485D02*
X175190475Y-73331961D01*
X175190475Y-73331961D02*
X175095237Y-73427200D01*
X175095237Y-73427200D02*
X174999999Y-73474819D01*
X174999999Y-73474819D02*
X174809523Y-73474819D01*
X174809523Y-73474819D02*
X174714285Y-73427200D01*
X174714285Y-73427200D02*
X174619047Y-73331961D01*
X174619047Y-73331961D02*
X174571428Y-73141485D01*
X174571428Y-73141485D02*
X174571428Y-72808152D01*
X174571428Y-72808152D02*
X174619047Y-72617676D01*
X174619047Y-72617676D02*
X174714285Y-72522438D01*
X174714285Y-72522438D02*
X174809523Y-72474819D01*
X176904761Y-73474819D02*
X176428571Y-73474819D01*
X176428571Y-73474819D02*
X176428571Y-72474819D01*
X179751905Y-72024819D02*
X179751905Y-71024819D01*
X179751905Y-71024819D02*
X179990000Y-71024819D01*
X179990000Y-71024819D02*
X180132857Y-71072438D01*
X180132857Y-71072438D02*
X180228095Y-71167676D01*
X180228095Y-71167676D02*
X180275714Y-71262914D01*
X180275714Y-71262914D02*
X180323333Y-71453390D01*
X180323333Y-71453390D02*
X180323333Y-71596247D01*
X180323333Y-71596247D02*
X180275714Y-71786723D01*
X180275714Y-71786723D02*
X180228095Y-71881961D01*
X180228095Y-71881961D02*
X180132857Y-71977200D01*
X180132857Y-71977200D02*
X179990000Y-72024819D01*
X179990000Y-72024819D02*
X179751905Y-72024819D01*
X181275714Y-72024819D02*
X180704286Y-72024819D01*
X180990000Y-72024819D02*
X180990000Y-71024819D01*
X180990000Y-71024819D02*
X180894762Y-71167676D01*
X180894762Y-71167676D02*
X180799524Y-71262914D01*
X180799524Y-71262914D02*
X180704286Y-71310533D01*
X173725238Y-77509104D02*
X174201428Y-77509104D01*
X173630000Y-77794819D02*
X173963333Y-76794819D01*
X173963333Y-76794819D02*
X174296666Y-77794819D01*
X174630000Y-76794819D02*
X174630000Y-77604342D01*
X174630000Y-77604342D02*
X174677619Y-77699580D01*
X174677619Y-77699580D02*
X174725238Y-77747200D01*
X174725238Y-77747200D02*
X174820476Y-77794819D01*
X174820476Y-77794819D02*
X175010952Y-77794819D01*
X175010952Y-77794819D02*
X175106190Y-77747200D01*
X175106190Y-77747200D02*
X175153809Y-77699580D01*
X175153809Y-77699580D02*
X175201428Y-77604342D01*
X175201428Y-77604342D02*
X175201428Y-76794819D01*
X175677619Y-77794819D02*
X175677619Y-76794819D01*
X175677619Y-76794819D02*
X175915714Y-76794819D01*
X175915714Y-76794819D02*
X176058571Y-76842438D01*
X176058571Y-76842438D02*
X176153809Y-76937676D01*
X176153809Y-76937676D02*
X176201428Y-77032914D01*
X176201428Y-77032914D02*
X176249047Y-77223390D01*
X176249047Y-77223390D02*
X176249047Y-77366247D01*
X176249047Y-77366247D02*
X176201428Y-77556723D01*
X176201428Y-77556723D02*
X176153809Y-77651961D01*
X176153809Y-77651961D02*
X176058571Y-77747200D01*
X176058571Y-77747200D02*
X175915714Y-77794819D01*
X175915714Y-77794819D02*
X175677619Y-77794819D01*
X176677619Y-77794819D02*
X176677619Y-76794819D01*
X177344285Y-76794819D02*
X177534761Y-76794819D01*
X177534761Y-76794819D02*
X177629999Y-76842438D01*
X177629999Y-76842438D02*
X177725237Y-76937676D01*
X177725237Y-76937676D02*
X177772856Y-77128152D01*
X177772856Y-77128152D02*
X177772856Y-77461485D01*
X177772856Y-77461485D02*
X177725237Y-77651961D01*
X177725237Y-77651961D02*
X177629999Y-77747200D01*
X177629999Y-77747200D02*
X177534761Y-77794819D01*
X177534761Y-77794819D02*
X177344285Y-77794819D01*
X177344285Y-77794819D02*
X177249047Y-77747200D01*
X177249047Y-77747200D02*
X177153809Y-77651961D01*
X177153809Y-77651961D02*
X177106190Y-77461485D01*
X177106190Y-77461485D02*
X177106190Y-77128152D01*
X177106190Y-77128152D02*
X177153809Y-76937676D01*
X177153809Y-76937676D02*
X177249047Y-76842438D01*
X177249047Y-76842438D02*
X177344285Y-76794819D01*
X179534761Y-77794819D02*
X179201428Y-77318628D01*
X178963333Y-77794819D02*
X178963333Y-76794819D01*
X178963333Y-76794819D02*
X179344285Y-76794819D01*
X179344285Y-76794819D02*
X179439523Y-76842438D01*
X179439523Y-76842438D02*
X179487142Y-76890057D01*
X179487142Y-76890057D02*
X179534761Y-76985295D01*
X179534761Y-76985295D02*
X179534761Y-77128152D01*
X179534761Y-77128152D02*
X179487142Y-77223390D01*
X179487142Y-77223390D02*
X179439523Y-77271009D01*
X179439523Y-77271009D02*
X179344285Y-77318628D01*
X179344285Y-77318628D02*
X178963333Y-77318628D01*
X166224286Y-63223866D02*
X166986191Y-63223866D01*
X166605238Y-63604819D02*
X166605238Y-62842914D01*
X167938571Y-62604819D02*
X167462381Y-62604819D01*
X167462381Y-62604819D02*
X167414762Y-63081009D01*
X167414762Y-63081009D02*
X167462381Y-63033390D01*
X167462381Y-63033390D02*
X167557619Y-62985771D01*
X167557619Y-62985771D02*
X167795714Y-62985771D01*
X167795714Y-62985771D02*
X167890952Y-63033390D01*
X167890952Y-63033390D02*
X167938571Y-63081009D01*
X167938571Y-63081009D02*
X167986190Y-63176247D01*
X167986190Y-63176247D02*
X167986190Y-63414342D01*
X167986190Y-63414342D02*
X167938571Y-63509580D01*
X167938571Y-63509580D02*
X167890952Y-63557200D01*
X167890952Y-63557200D02*
X167795714Y-63604819D01*
X167795714Y-63604819D02*
X167557619Y-63604819D01*
X167557619Y-63604819D02*
X167462381Y-63557200D01*
X167462381Y-63557200D02*
X167414762Y-63509580D01*
X168271905Y-62604819D02*
X168605238Y-63604819D01*
X168605238Y-63604819D02*
X168938571Y-62604819D01*
X159478095Y-92973866D02*
X160240000Y-92973866D01*
X159859047Y-93354819D02*
X159859047Y-92592914D01*
X160620952Y-92354819D02*
X161239999Y-92354819D01*
X161239999Y-92354819D02*
X160906666Y-92735771D01*
X160906666Y-92735771D02*
X161049523Y-92735771D01*
X161049523Y-92735771D02*
X161144761Y-92783390D01*
X161144761Y-92783390D02*
X161192380Y-92831009D01*
X161192380Y-92831009D02*
X161239999Y-92926247D01*
X161239999Y-92926247D02*
X161239999Y-93164342D01*
X161239999Y-93164342D02*
X161192380Y-93259580D01*
X161192380Y-93259580D02*
X161144761Y-93307200D01*
X161144761Y-93307200D02*
X161049523Y-93354819D01*
X161049523Y-93354819D02*
X160763809Y-93354819D01*
X160763809Y-93354819D02*
X160668571Y-93307200D01*
X160668571Y-93307200D02*
X160620952Y-93259580D01*
X161525714Y-92354819D02*
X161859047Y-93354819D01*
X161859047Y-93354819D02*
X162192380Y-92354819D01*
X162430476Y-92354819D02*
X163049523Y-92354819D01*
X163049523Y-92354819D02*
X162716190Y-92735771D01*
X162716190Y-92735771D02*
X162859047Y-92735771D01*
X162859047Y-92735771D02*
X162954285Y-92783390D01*
X162954285Y-92783390D02*
X163001904Y-92831009D01*
X163001904Y-92831009D02*
X163049523Y-92926247D01*
X163049523Y-92926247D02*
X163049523Y-93164342D01*
X163049523Y-93164342D02*
X163001904Y-93259580D01*
X163001904Y-93259580D02*
X162954285Y-93307200D01*
X162954285Y-93307200D02*
X162859047Y-93354819D01*
X162859047Y-93354819D02*
X162573333Y-93354819D01*
X162573333Y-93354819D02*
X162478095Y-93307200D01*
X162478095Y-93307200D02*
X162430476Y-93259580D01*
X185971905Y-72164819D02*
X185971905Y-71164819D01*
X185971905Y-71164819D02*
X186210000Y-71164819D01*
X186210000Y-71164819D02*
X186352857Y-71212438D01*
X186352857Y-71212438D02*
X186448095Y-71307676D01*
X186448095Y-71307676D02*
X186495714Y-71402914D01*
X186495714Y-71402914D02*
X186543333Y-71593390D01*
X186543333Y-71593390D02*
X186543333Y-71736247D01*
X186543333Y-71736247D02*
X186495714Y-71926723D01*
X186495714Y-71926723D02*
X186448095Y-72021961D01*
X186448095Y-72021961D02*
X186352857Y-72117200D01*
X186352857Y-72117200D02*
X186210000Y-72164819D01*
X186210000Y-72164819D02*
X185971905Y-72164819D01*
X186924286Y-71260057D02*
X186971905Y-71212438D01*
X186971905Y-71212438D02*
X187067143Y-71164819D01*
X187067143Y-71164819D02*
X187305238Y-71164819D01*
X187305238Y-71164819D02*
X187400476Y-71212438D01*
X187400476Y-71212438D02*
X187448095Y-71260057D01*
X187448095Y-71260057D02*
X187495714Y-71355295D01*
X187495714Y-71355295D02*
X187495714Y-71450533D01*
X187495714Y-71450533D02*
X187448095Y-71593390D01*
X187448095Y-71593390D02*
X186876667Y-72164819D01*
X186876667Y-72164819D02*
X187495714Y-72164819D01*
X160138095Y-96413866D02*
X160900000Y-96413866D01*
X160519047Y-96794819D02*
X160519047Y-96032914D01*
X161328571Y-95890057D02*
X161376190Y-95842438D01*
X161376190Y-95842438D02*
X161471428Y-95794819D01*
X161471428Y-95794819D02*
X161709523Y-95794819D01*
X161709523Y-95794819D02*
X161804761Y-95842438D01*
X161804761Y-95842438D02*
X161852380Y-95890057D01*
X161852380Y-95890057D02*
X161899999Y-95985295D01*
X161899999Y-95985295D02*
X161899999Y-96080533D01*
X161899999Y-96080533D02*
X161852380Y-96223390D01*
X161852380Y-96223390D02*
X161280952Y-96794819D01*
X161280952Y-96794819D02*
X161899999Y-96794819D01*
X162519047Y-95794819D02*
X162614285Y-95794819D01*
X162614285Y-95794819D02*
X162709523Y-95842438D01*
X162709523Y-95842438D02*
X162757142Y-95890057D01*
X162757142Y-95890057D02*
X162804761Y-95985295D01*
X162804761Y-95985295D02*
X162852380Y-96175771D01*
X162852380Y-96175771D02*
X162852380Y-96413866D01*
X162852380Y-96413866D02*
X162804761Y-96604342D01*
X162804761Y-96604342D02*
X162757142Y-96699580D01*
X162757142Y-96699580D02*
X162709523Y-96747200D01*
X162709523Y-96747200D02*
X162614285Y-96794819D01*
X162614285Y-96794819D02*
X162519047Y-96794819D01*
X162519047Y-96794819D02*
X162423809Y-96747200D01*
X162423809Y-96747200D02*
X162376190Y-96699580D01*
X162376190Y-96699580D02*
X162328571Y-96604342D01*
X162328571Y-96604342D02*
X162280952Y-96413866D01*
X162280952Y-96413866D02*
X162280952Y-96175771D01*
X162280952Y-96175771D02*
X162328571Y-95985295D01*
X162328571Y-95985295D02*
X162376190Y-95890057D01*
X162376190Y-95890057D02*
X162423809Y-95842438D01*
X162423809Y-95842438D02*
X162519047Y-95794819D01*
X163138095Y-95794819D02*
X163471428Y-96794819D01*
X163471428Y-96794819D02*
X163804761Y-95794819D01*
%TO.C,U7*%
X112635000Y-82460000D02*
X112635000Y-65140000D01*
X112638036Y-82463036D02*
X116065000Y-85890000D01*
X112885000Y-64890000D02*
X165515000Y-64890000D01*
X112885893Y-64890179D02*
X112635893Y-65140179D01*
X116065000Y-85890000D02*
X165515000Y-85890000D01*
D12*
X122365000Y-64890000D02*
X122615000Y-64890000D01*
X124915000Y-64890000D02*
X125165000Y-64890000D01*
D10*
X165765000Y-65140000D02*
X165515000Y-64890000D01*
X165765000Y-65140000D02*
X165765000Y-85640000D01*
X165765000Y-85640000D02*
X165515000Y-85890000D01*
D13*
X113105000Y-72995000D02*
X116605000Y-72995000D01*
X116605000Y-70485000D01*
X113105000Y-70485000D01*
X113105000Y-72995000D01*
G36*
X113105000Y-72995000D02*
G01*
X116605000Y-72995000D01*
X116605000Y-70485000D01*
X113105000Y-70485000D01*
X113105000Y-72995000D01*
G37*
X113145000Y-80355000D02*
X116645000Y-80355000D01*
X116645000Y-77845000D01*
X113145000Y-77845000D01*
X113145000Y-80355000D01*
G36*
X113145000Y-80355000D02*
G01*
X116645000Y-80355000D01*
X116645000Y-77845000D01*
X113145000Y-77845000D01*
X113145000Y-80355000D01*
G37*
X117595000Y-73025000D02*
X121095000Y-73025000D01*
X121095000Y-70515000D01*
X117595000Y-70515000D01*
X117595000Y-73025000D01*
G36*
X117595000Y-73025000D02*
G01*
X121095000Y-73025000D01*
X121095000Y-70515000D01*
X117595000Y-70515000D01*
X117595000Y-73025000D01*
G37*
X117635000Y-80385000D02*
X121135000Y-80385000D01*
X121135000Y-77875000D01*
X117635000Y-77875000D01*
X117635000Y-80385000D01*
G36*
X117635000Y-80385000D02*
G01*
X121135000Y-80385000D01*
X121135000Y-77875000D01*
X117635000Y-77875000D01*
X117635000Y-80385000D01*
G37*
D10*
%TO.C,T14*%
X184450000Y-107060000D02*
G75*
G02*
X182850000Y-107060000I-800000J0D01*
G01*
X182850000Y-107060000D02*
G75*
G02*
X184450000Y-107060000I800000J0D01*
G01*
%TO.C,T4*%
X174960000Y-82530000D02*
G75*
G02*
X173360000Y-82530000I-800000J0D01*
G01*
X173360000Y-82530000D02*
G75*
G02*
X174960000Y-82530000I800000J0D01*
G01*
%TO.C,T13*%
X184430000Y-98650000D02*
G75*
G02*
X182830000Y-98650000I-800000J0D01*
G01*
X182830000Y-98650000D02*
G75*
G02*
X184430000Y-98650000I800000J0D01*
G01*
%TO.C,J3*%
X182610000Y-80880000D02*
X181380000Y-80880000D01*
X182610000Y-80880000D02*
X182610000Y-78640000D01*
X182610000Y-93200000D02*
X181370000Y-93200000D01*
X182610000Y-93200000D02*
X182610000Y-95440000D01*
X186130000Y-95410000D02*
X186750000Y-95410000D01*
X186140000Y-78670000D02*
X186750000Y-78670000D01*
X186750000Y-78265000D02*
X187400000Y-78265000D01*
X186750000Y-78670000D02*
X186750000Y-78265000D01*
X186750000Y-95410000D02*
X186750000Y-95820000D01*
X186750000Y-95820000D02*
X187400000Y-95820000D01*
X187400000Y-95820000D02*
X187400000Y-78265000D01*
%TO.C,T18*%
X182990000Y-74540000D02*
G75*
G02*
X181390000Y-74540000I-800000J0D01*
G01*
X181390000Y-74540000D02*
G75*
G02*
X182990000Y-74540000I800000J0D01*
G01*
%TO.C,T5*%
X171720000Y-77870000D02*
G75*
G02*
X170120000Y-77870000I-800000J0D01*
G01*
X170120000Y-77870000D02*
G75*
G02*
X171720000Y-77870000I800000J0D01*
G01*
%TO.C,T16*%
X184430000Y-104250000D02*
G75*
G02*
X182830000Y-104250000I-800000J0D01*
G01*
X182830000Y-104250000D02*
G75*
G02*
X184430000Y-104250000I800000J0D01*
G01*
%TO.C,T2*%
X181460000Y-98650000D02*
G75*
G02*
X179860000Y-98650000I-800000J0D01*
G01*
X179860000Y-98650000D02*
G75*
G02*
X181460000Y-98650000I800000J0D01*
G01*
%TO.C,T1*%
X178580000Y-98650000D02*
G75*
G02*
X176980000Y-98650000I-800000J0D01*
G01*
X176980000Y-98650000D02*
G75*
G02*
X178580000Y-98650000I800000J0D01*
G01*
%TO.C,T6*%
X168940000Y-77690000D02*
G75*
G02*
X167340000Y-77690000I-800000J0D01*
G01*
X167340000Y-77690000D02*
G75*
G02*
X168940000Y-77690000I800000J0D01*
G01*
%TO.C,J2*%
X121990000Y-91785000D02*
X158040000Y-91785000D01*
X121990000Y-92585000D02*
X121990000Y-91790000D01*
X122310000Y-98045000D02*
X122310000Y-97105000D01*
X122350000Y-92585000D02*
X121990000Y-92585000D01*
X124785000Y-98045000D02*
X122310000Y-98045000D01*
X157640000Y-97165000D02*
X157640000Y-98045000D01*
X157640000Y-98045000D02*
X156100000Y-98045000D01*
X158040000Y-91790000D02*
X158040000Y-92665000D01*
X158040000Y-92665000D02*
X157680000Y-92665000D01*
X125269994Y-98825000D02*
X125110000Y-98825000D01*
X125110000Y-97865000D01*
X125269994Y-97865000D01*
X125269994Y-98825000D01*
G36*
X125269994Y-98825000D02*
G01*
X125110000Y-98825000D01*
X125110000Y-97865000D01*
X125269994Y-97865000D01*
X125269994Y-98825000D01*
G37*
X125769997Y-98825000D02*
X125610003Y-98825000D01*
X125610003Y-97865000D01*
X125769997Y-97865000D01*
X125769997Y-98825000D01*
G36*
X125769997Y-98825000D02*
G01*
X125610003Y-98825000D01*
X125610003Y-97865000D01*
X125769997Y-97865000D01*
X125769997Y-98825000D01*
G37*
X126269994Y-98825000D02*
X126110000Y-98825000D01*
X126110000Y-97865000D01*
X126269994Y-97865000D01*
X126269994Y-98825000D01*
G36*
X126269994Y-98825000D02*
G01*
X126110000Y-98825000D01*
X126110000Y-97865000D01*
X126269994Y-97865000D01*
X126269994Y-98825000D01*
G37*
X126769994Y-98825000D02*
X126610000Y-98825000D01*
X126610000Y-97865000D01*
X126769994Y-97865000D01*
X126769994Y-98825000D01*
G36*
X126769994Y-98825000D02*
G01*
X126610000Y-98825000D01*
X126610000Y-97865000D01*
X126769994Y-97865000D01*
X126769994Y-98825000D01*
G37*
X127269994Y-98825000D02*
X127110000Y-98825000D01*
X127110000Y-97865000D01*
X127269994Y-97865000D01*
X127269994Y-98825000D01*
G36*
X127269994Y-98825000D02*
G01*
X127110000Y-98825000D01*
X127110000Y-97865000D01*
X127269994Y-97865000D01*
X127269994Y-98825000D01*
G37*
X127769994Y-98825000D02*
X127610000Y-98825000D01*
X127610000Y-97865000D01*
X127769994Y-97865000D01*
X127769994Y-98825000D01*
G36*
X127769994Y-98825000D02*
G01*
X127610000Y-98825000D01*
X127610000Y-97865000D01*
X127769994Y-97865000D01*
X127769994Y-98825000D01*
G37*
D14*
X155580000Y-98285000D02*
X155250000Y-98045000D01*
X155580000Y-97805000D01*
X155580000Y-98285000D01*
G36*
X155580000Y-98285000D02*
G01*
X155250000Y-98045000D01*
X155580000Y-97805000D01*
X155580000Y-98285000D01*
G37*
D10*
%TO.C,T15*%
X184430000Y-101470000D02*
G75*
G02*
X182830000Y-101470000I-800000J0D01*
G01*
X182830000Y-101470000D02*
G75*
G02*
X184430000Y-101470000I800000J0D01*
G01*
%TO.C,T17*%
X185650000Y-74540000D02*
G75*
G02*
X184050000Y-74540000I-800000J0D01*
G01*
X184050000Y-74540000D02*
G75*
G02*
X185650000Y-74540000I800000J0D01*
G01*
%TO.C,T3*%
X168490000Y-69090000D02*
G75*
G02*
X166890000Y-69090000I-800000J0D01*
G01*
X166890000Y-69090000D02*
G75*
G02*
X168490000Y-69090000I800000J0D01*
G01*
%TO.C,J1*%
X107970000Y-88000000D02*
X105985000Y-88000000D01*
X108030000Y-103220000D02*
X105985000Y-103220000D01*
X113500000Y-88000000D02*
X110860000Y-88000000D01*
X113530000Y-103220000D02*
X110840000Y-103220000D01*
X117135000Y-88990000D02*
X117135000Y-90650000D01*
X117140000Y-100530000D02*
X117139852Y-102179016D01*
X117885000Y-100530000D02*
X117140000Y-100530000D01*
%TO.C,T11*%
X178670000Y-73010000D02*
G75*
G02*
X177070000Y-73010000I-800000J0D01*
G01*
X177070000Y-73010000D02*
G75*
G02*
X178670000Y-73010000I800000J0D01*
G01*
%TO.C,T20*%
X182990000Y-71720000D02*
G75*
G02*
X181390000Y-71720000I-800000J0D01*
G01*
X181390000Y-71720000D02*
G75*
G02*
X182990000Y-71720000I800000J0D01*
G01*
%TO.C,T12*%
X179550000Y-75750000D02*
G75*
G02*
X177950000Y-75750000I-800000J0D01*
G01*
X177950000Y-75750000D02*
G75*
G02*
X179550000Y-75750000I800000J0D01*
G01*
%TO.C,TP17*%
X171120000Y-63120000D02*
G75*
G02*
X169520000Y-63120000I-800000J0D01*
G01*
X169520000Y-63120000D02*
G75*
G02*
X171120000Y-63120000I800000J0D01*
G01*
%TO.C,TP15*%
X162080000Y-91250000D02*
G75*
G02*
X160480000Y-91250000I-800000J0D01*
G01*
X160480000Y-91250000D02*
G75*
G02*
X162080000Y-91250000I800000J0D01*
G01*
%TO.C,T19*%
X185650000Y-71720000D02*
G75*
G02*
X184050000Y-71720000I-800000J0D01*
G01*
X184050000Y-71720000D02*
G75*
G02*
X185650000Y-71720000I800000J0D01*
G01*
%TO.C,TP16*%
X161300000Y-98020000D02*
G75*
G02*
X159700000Y-98020000I-800000J0D01*
G01*
X159700000Y-98020000D02*
G75*
G02*
X161300000Y-98020000I800000J0D01*
G01*
%TD*%
%LPC*%
D15*
G36*
X178316087Y-63338352D02*
G01*
X178318636Y-63338321D01*
X178320108Y-63338748D01*
X178321630Y-63338898D01*
X178323978Y-63339870D01*
X178365705Y-63351975D01*
X178603800Y-63447213D01*
X178620121Y-63455683D01*
X178626040Y-63457398D01*
X178636367Y-63464113D01*
X178647300Y-63469787D01*
X178651709Y-63474089D01*
X178667126Y-63484115D01*
X178786173Y-63579353D01*
X178791034Y-63584094D01*
X178806890Y-63599559D01*
X178812075Y-63603257D01*
X178816300Y-63608737D01*
X178821258Y-63613573D01*
X178824332Y-63619155D01*
X178841998Y-63642070D01*
X178961047Y-63832546D01*
X178982822Y-63876452D01*
X178986264Y-63897011D01*
X178994243Y-63916273D01*
X178999047Y-63965046D01*
X178999047Y-64250760D01*
X178994243Y-64299533D01*
X178986264Y-64318794D01*
X178982822Y-64339354D01*
X178961047Y-64383260D01*
X178841998Y-64573736D01*
X178824332Y-64596650D01*
X178821258Y-64602233D01*
X178816300Y-64607068D01*
X178812075Y-64612549D01*
X178806890Y-64616246D01*
X178786174Y-64636452D01*
X178667127Y-64731691D01*
X178651710Y-64741716D01*
X178647300Y-64746020D01*
X178636364Y-64751694D01*
X178626041Y-64758408D01*
X178620124Y-64760122D01*
X178603800Y-64768594D01*
X178365705Y-64863832D01*
X178323978Y-64875936D01*
X178321630Y-64876909D01*
X178320108Y-64877058D01*
X178318636Y-64877486D01*
X178316087Y-64877454D01*
X178272857Y-64881713D01*
X177570476Y-64881713D01*
X177570476Y-65584094D01*
X177565672Y-65632867D01*
X177528343Y-65722987D01*
X177459369Y-65791961D01*
X177369249Y-65829290D01*
X177271703Y-65829290D01*
X177181583Y-65791961D01*
X177112609Y-65722987D01*
X177075280Y-65632867D01*
X177070476Y-65584094D01*
X177070476Y-64381713D01*
X177070476Y-63834094D01*
X177570476Y-63834094D01*
X177570476Y-64381713D01*
X178224711Y-64381713D01*
X178383706Y-64318114D01*
X178440570Y-64272623D01*
X178499047Y-64179061D01*
X178499047Y-64036744D01*
X178440571Y-63943183D01*
X178383706Y-63897692D01*
X178224712Y-63834094D01*
X177570476Y-63834094D01*
X177070476Y-63834094D01*
X177070476Y-63584094D01*
X177075280Y-63535321D01*
X177112609Y-63445201D01*
X177181583Y-63376227D01*
X177271703Y-63338898D01*
X177320476Y-63334094D01*
X178272857Y-63334094D01*
X178316087Y-63338352D01*
G37*
G36*
X184653353Y-66555109D02*
G01*
X184657957Y-66554498D01*
X184674251Y-66557168D01*
X184690678Y-66558786D01*
X184694966Y-66560562D01*
X184706321Y-66562423D01*
X185063462Y-66657661D01*
X185109351Y-66674870D01*
X185111516Y-66676527D01*
X185114134Y-66677286D01*
X185155220Y-66704002D01*
X185274269Y-66799241D01*
X185279130Y-66803982D01*
X185309353Y-66833460D01*
X185356406Y-66918907D01*
X185367178Y-67015854D01*
X185340030Y-67109545D01*
X185279093Y-67185716D01*
X185193647Y-67232769D01*
X185096700Y-67243541D01*
X185003008Y-67216393D01*
X184961922Y-67189676D01*
X184883885Y-67127246D01*
X184609143Y-67053982D01*
X184436570Y-67053982D01*
X184161826Y-67127247D01*
X183997999Y-67258309D01*
X183918557Y-67385416D01*
X183820476Y-67699277D01*
X183820476Y-67908685D01*
X183918557Y-68222546D01*
X183997999Y-68349654D01*
X184161828Y-68480717D01*
X184436570Y-68553982D01*
X184609143Y-68553982D01*
X184883884Y-68480717D01*
X184961920Y-68418288D01*
X185003007Y-68391571D01*
X185096698Y-68364423D01*
X185193645Y-68375194D01*
X185279092Y-68422247D01*
X185340029Y-68498417D01*
X185367177Y-68592108D01*
X185356406Y-68689055D01*
X185309353Y-68774502D01*
X185274269Y-68808722D01*
X185155221Y-68903961D01*
X185114135Y-68930678D01*
X185111515Y-68931436D01*
X185109351Y-68933094D01*
X185063462Y-68950303D01*
X184706321Y-69045541D01*
X184694966Y-69047401D01*
X184690678Y-69049178D01*
X184674251Y-69050795D01*
X184657957Y-69053466D01*
X184653353Y-69052854D01*
X184641905Y-69053982D01*
X184403809Y-69053982D01*
X184392360Y-69052854D01*
X184387757Y-69053466D01*
X184371462Y-69050795D01*
X184355036Y-69049178D01*
X184350747Y-69047401D01*
X184339393Y-69045541D01*
X183982250Y-68950303D01*
X183936362Y-68933094D01*
X183934197Y-68931436D01*
X183931578Y-68930678D01*
X183890492Y-68903961D01*
X183652397Y-68713484D01*
X183631684Y-68693281D01*
X183626494Y-68689580D01*
X183622263Y-68684092D01*
X183617313Y-68679264D01*
X183614242Y-68673688D01*
X183596571Y-68650766D01*
X183477524Y-68460290D01*
X183472829Y-68450825D01*
X183470037Y-68447480D01*
X183463355Y-68431722D01*
X183455748Y-68416385D01*
X183455028Y-68412085D01*
X183450904Y-68402360D01*
X183331856Y-68021408D01*
X183327727Y-68001520D01*
X183325280Y-67995612D01*
X183324177Y-67984423D01*
X183321894Y-67973422D01*
X183322467Y-67967055D01*
X183320476Y-67946839D01*
X183320476Y-67661124D01*
X183322467Y-67640907D01*
X183321894Y-67634541D01*
X183324177Y-67623539D01*
X183325280Y-67612351D01*
X183327727Y-67606442D01*
X183331856Y-67586555D01*
X183450904Y-67205603D01*
X183455028Y-67195877D01*
X183455748Y-67191578D01*
X183463355Y-67176240D01*
X183470037Y-67160483D01*
X183472829Y-67157137D01*
X183477524Y-67147673D01*
X183596571Y-66957197D01*
X183614240Y-66934276D01*
X183617313Y-66928698D01*
X183622266Y-66923866D01*
X183626494Y-66918383D01*
X183631682Y-66914683D01*
X183652397Y-66894479D01*
X183890492Y-66704003D01*
X183931578Y-66677286D01*
X183934197Y-66676527D01*
X183936362Y-66674870D01*
X183982250Y-66657661D01*
X184339393Y-66562423D01*
X184350747Y-66560562D01*
X184355036Y-66558786D01*
X184371462Y-66557168D01*
X184387757Y-66554498D01*
X184392360Y-66555109D01*
X184403809Y-66553982D01*
X184641905Y-66553982D01*
X184653353Y-66555109D01*
G37*
G36*
X186796210Y-66555109D02*
G01*
X186800814Y-66554498D01*
X186817108Y-66557168D01*
X186833535Y-66558786D01*
X186837823Y-66560562D01*
X186849178Y-66562423D01*
X187206320Y-66657661D01*
X187252209Y-66674870D01*
X187254374Y-66676527D01*
X187256992Y-66677286D01*
X187298079Y-66704003D01*
X187536173Y-66894479D01*
X187556889Y-66914684D01*
X187562076Y-66918383D01*
X187566301Y-66923863D01*
X187571258Y-66928698D01*
X187574331Y-66934279D01*
X187592000Y-66957197D01*
X187711047Y-67147673D01*
X187715741Y-67157137D01*
X187718534Y-67160483D01*
X187725215Y-67176240D01*
X187732823Y-67191578D01*
X187733542Y-67195877D01*
X187737667Y-67205603D01*
X187800000Y-67405067D01*
X187800000Y-68202895D01*
X187737667Y-68402360D01*
X187733542Y-68412085D01*
X187732823Y-68416385D01*
X187725215Y-68431722D01*
X187718534Y-68447480D01*
X187715741Y-68450825D01*
X187711047Y-68460290D01*
X187592000Y-68650766D01*
X187574329Y-68673685D01*
X187571258Y-68679264D01*
X187566303Y-68684096D01*
X187562076Y-68689580D01*
X187556889Y-68693279D01*
X187536174Y-68713484D01*
X187298079Y-68903961D01*
X187256993Y-68930678D01*
X187254373Y-68931436D01*
X187252209Y-68933094D01*
X187206320Y-68950303D01*
X186849178Y-69045541D01*
X186837823Y-69047401D01*
X186833535Y-69049178D01*
X186817108Y-69050795D01*
X186800814Y-69053466D01*
X186796210Y-69052854D01*
X186784762Y-69053982D01*
X186189524Y-69053982D01*
X186140751Y-69049178D01*
X186050631Y-69011849D01*
X185981657Y-68942875D01*
X185944328Y-68852755D01*
X185939524Y-68803982D01*
X185939524Y-68553982D01*
X185939524Y-67053982D01*
X186439524Y-67053982D01*
X186439524Y-68553982D01*
X186752000Y-68553982D01*
X187026742Y-68480717D01*
X187190571Y-68349654D01*
X187270013Y-68222546D01*
X187368095Y-67908685D01*
X187368095Y-67699277D01*
X187270013Y-67385416D01*
X187190571Y-67258309D01*
X187026743Y-67127246D01*
X186752000Y-67053982D01*
X186439524Y-67053982D01*
X185939524Y-67053982D01*
X185939524Y-66803982D01*
X185944328Y-66755209D01*
X185981657Y-66665089D01*
X186050631Y-66596115D01*
X186140751Y-66558786D01*
X186189524Y-66553982D01*
X186784762Y-66553982D01*
X186796210Y-66555109D01*
G37*
D10*
X174700000Y-69200000D02*
X187500000Y-69200000D01*
D15*
G36*
X178375610Y-66558240D02*
G01*
X178378159Y-66558209D01*
X178379631Y-66558636D01*
X178381153Y-66558786D01*
X178383501Y-66559758D01*
X178425228Y-66571863D01*
X178663323Y-66667101D01*
X178706823Y-66689675D01*
X178776634Y-66757804D01*
X178796424Y-66803982D01*
X178815058Y-66847461D01*
X178816247Y-66944999D01*
X178780020Y-67035568D01*
X178711891Y-67105379D01*
X178622234Y-67143803D01*
X178524696Y-67144993D01*
X178477627Y-67131339D01*
X178284235Y-67053982D01*
X178007998Y-67053982D01*
X177733254Y-67127247D01*
X177569427Y-67258309D01*
X177489985Y-67385416D01*
X177391904Y-67699277D01*
X177391904Y-67908685D01*
X177489985Y-68222546D01*
X177569427Y-68349654D01*
X177733256Y-68480717D01*
X178007998Y-68553982D01*
X178180571Y-68553982D01*
X178439523Y-68484927D01*
X178439523Y-68196839D01*
X178213333Y-68196839D01*
X178164560Y-68192035D01*
X178074440Y-68154706D01*
X178005466Y-68085732D01*
X177968137Y-67995612D01*
X177968137Y-67898066D01*
X178005466Y-67807946D01*
X178074440Y-67738972D01*
X178164560Y-67701643D01*
X178213333Y-67696839D01*
X178689523Y-67696839D01*
X178738296Y-67701643D01*
X178828416Y-67738972D01*
X178897390Y-67807946D01*
X178934719Y-67898066D01*
X178939523Y-67946839D01*
X178939523Y-68613505D01*
X178934719Y-68662278D01*
X178929375Y-68675177D01*
X178927834Y-68689055D01*
X178910858Y-68719881D01*
X178897390Y-68752398D01*
X178887515Y-68762272D01*
X178880781Y-68774502D01*
X178845697Y-68808722D01*
X178726649Y-68903961D01*
X178685563Y-68930678D01*
X178682943Y-68931436D01*
X178680779Y-68933094D01*
X178634890Y-68950303D01*
X178277749Y-69045541D01*
X178266394Y-69047401D01*
X178262106Y-69049178D01*
X178245679Y-69050795D01*
X178229385Y-69053466D01*
X178224781Y-69052854D01*
X178213333Y-69053982D01*
X177975237Y-69053982D01*
X177963788Y-69052854D01*
X177959185Y-69053466D01*
X177942890Y-69050795D01*
X177926464Y-69049178D01*
X177922175Y-69047401D01*
X177910821Y-69045541D01*
X177553678Y-68950303D01*
X177507790Y-68933094D01*
X177505625Y-68931436D01*
X177503006Y-68930678D01*
X177461920Y-68903961D01*
X177223825Y-68713484D01*
X177203112Y-68693281D01*
X177197922Y-68689580D01*
X177193691Y-68684092D01*
X177188741Y-68679264D01*
X177185670Y-68673688D01*
X177167999Y-68650766D01*
X177048952Y-68460290D01*
X177044257Y-68450825D01*
X177041465Y-68447480D01*
X177034783Y-68431722D01*
X177027176Y-68416385D01*
X177026456Y-68412085D01*
X177022332Y-68402360D01*
X176903284Y-68021408D01*
X176899155Y-68001520D01*
X176896708Y-67995612D01*
X176895605Y-67984423D01*
X176893322Y-67973422D01*
X176893895Y-67967055D01*
X176891904Y-67946839D01*
X176891904Y-67661124D01*
X176893895Y-67640907D01*
X176893322Y-67634541D01*
X176895605Y-67623539D01*
X176896708Y-67612351D01*
X176899155Y-67606442D01*
X176903284Y-67586555D01*
X177022332Y-67205603D01*
X177026456Y-67195877D01*
X177027176Y-67191578D01*
X177034783Y-67176240D01*
X177041465Y-67160483D01*
X177044257Y-67157137D01*
X177048952Y-67147673D01*
X177167999Y-66957197D01*
X177185668Y-66934276D01*
X177188741Y-66928698D01*
X177193694Y-66923866D01*
X177197922Y-66918383D01*
X177203110Y-66914683D01*
X177223825Y-66894479D01*
X177461920Y-66704003D01*
X177503006Y-66677286D01*
X177505625Y-66676527D01*
X177507790Y-66674870D01*
X177553678Y-66657661D01*
X177910821Y-66562423D01*
X177922175Y-66560562D01*
X177926464Y-66558786D01*
X177942890Y-66557168D01*
X177959185Y-66554498D01*
X177963788Y-66555109D01*
X177975237Y-66553982D01*
X178332380Y-66553982D01*
X178375610Y-66558240D01*
G37*
G36*
X179959369Y-63376227D02*
G01*
X180028343Y-63445201D01*
X180065672Y-63535321D01*
X180070476Y-63584094D01*
X180070476Y-64441236D01*
X180070476Y-65584094D01*
X180065672Y-65632867D01*
X180028343Y-65722987D01*
X179959369Y-65791961D01*
X179869249Y-65829290D01*
X179771703Y-65829290D01*
X179681583Y-65791961D01*
X179612609Y-65722987D01*
X179575280Y-65632867D01*
X179570476Y-65584094D01*
X179570476Y-63584094D01*
X179575280Y-63535321D01*
X179612609Y-63445201D01*
X179681583Y-63376227D01*
X179771703Y-63338898D01*
X179869249Y-63338898D01*
X179959369Y-63376227D01*
G37*
G36*
X181974781Y-63335221D02*
G01*
X181979385Y-63334610D01*
X181995679Y-63337280D01*
X182012106Y-63338898D01*
X182016394Y-63340674D01*
X182027749Y-63342535D01*
X182384890Y-63437773D01*
X182430779Y-63454982D01*
X182432944Y-63456639D01*
X182435562Y-63457398D01*
X182476648Y-63484114D01*
X182595697Y-63579353D01*
X182630781Y-63613572D01*
X182677834Y-63699019D01*
X182688606Y-63795966D01*
X182661458Y-63889657D01*
X182600521Y-63965828D01*
X182515075Y-64012881D01*
X182418128Y-64023653D01*
X182324436Y-63996505D01*
X182283350Y-63969788D01*
X182205313Y-63907358D01*
X181930571Y-63834094D01*
X181757998Y-63834094D01*
X181483254Y-63907359D01*
X181319427Y-64038421D01*
X181239985Y-64165528D01*
X181213350Y-64250760D01*
X181141904Y-64479389D01*
X181141904Y-64688797D01*
X181239985Y-65002658D01*
X181319427Y-65129766D01*
X181483256Y-65260829D01*
X181757998Y-65334094D01*
X181930571Y-65334094D01*
X182205312Y-65260829D01*
X182283348Y-65198400D01*
X182324435Y-65171683D01*
X182418126Y-65144535D01*
X182515073Y-65155306D01*
X182600520Y-65202359D01*
X182661457Y-65278529D01*
X182688605Y-65372220D01*
X182677834Y-65469167D01*
X182630781Y-65554614D01*
X182595697Y-65588834D01*
X182476649Y-65684073D01*
X182435563Y-65710790D01*
X182432943Y-65711548D01*
X182430779Y-65713206D01*
X182384890Y-65730415D01*
X182027749Y-65825653D01*
X182016394Y-65827513D01*
X182012106Y-65829290D01*
X181995679Y-65830907D01*
X181979385Y-65833578D01*
X181974781Y-65832966D01*
X181963333Y-65834094D01*
X181725237Y-65834094D01*
X181713788Y-65832966D01*
X181709185Y-65833578D01*
X181692890Y-65830907D01*
X181676464Y-65829290D01*
X181672175Y-65827513D01*
X181660821Y-65825653D01*
X181303678Y-65730415D01*
X181257790Y-65713206D01*
X181255625Y-65711548D01*
X181253006Y-65710790D01*
X181211920Y-65684073D01*
X180973825Y-65493596D01*
X180953112Y-65473393D01*
X180947922Y-65469692D01*
X180943691Y-65464204D01*
X180938741Y-65459376D01*
X180935670Y-65453800D01*
X180917999Y-65430878D01*
X180798952Y-65240402D01*
X180794257Y-65230937D01*
X180791465Y-65227592D01*
X180784783Y-65211834D01*
X180777176Y-65196497D01*
X180776456Y-65192197D01*
X180772332Y-65182472D01*
X180653284Y-64801520D01*
X180649155Y-64781632D01*
X180646708Y-64775724D01*
X180645605Y-64764535D01*
X180643322Y-64753534D01*
X180643895Y-64747167D01*
X180641904Y-64726951D01*
X180641904Y-64441236D01*
X180643895Y-64421019D01*
X180643322Y-64414653D01*
X180645605Y-64403651D01*
X180646708Y-64392463D01*
X180649155Y-64386554D01*
X180653284Y-64366667D01*
X180772332Y-63985715D01*
X180776456Y-63975989D01*
X180777176Y-63971690D01*
X180784783Y-63956352D01*
X180791465Y-63940595D01*
X180794257Y-63937249D01*
X180798952Y-63927785D01*
X180917999Y-63737309D01*
X180935668Y-63714388D01*
X180938741Y-63708810D01*
X180943694Y-63703978D01*
X180947922Y-63698495D01*
X180953110Y-63694795D01*
X180973825Y-63674591D01*
X181211920Y-63484115D01*
X181253006Y-63457398D01*
X181255625Y-63456639D01*
X181257790Y-63454982D01*
X181303678Y-63437773D01*
X181660821Y-63342535D01*
X181672175Y-63340674D01*
X181676464Y-63338898D01*
X181692890Y-63337280D01*
X181709185Y-63334610D01*
X181713788Y-63335221D01*
X181725237Y-63334094D01*
X181963333Y-63334094D01*
X181974781Y-63335221D01*
G37*
G36*
X181804607Y-66596115D02*
G01*
X181873581Y-66665089D01*
X181910910Y-66755209D01*
X181915714Y-66803982D01*
X181915714Y-67661124D01*
X181915714Y-68553982D01*
X182856190Y-68553982D01*
X182904963Y-68558786D01*
X182995083Y-68596115D01*
X183064057Y-68665089D01*
X183101386Y-68755209D01*
X183101386Y-68852755D01*
X183064057Y-68942875D01*
X182995083Y-69011849D01*
X182904963Y-69049178D01*
X182856190Y-69053982D01*
X181665714Y-69053982D01*
X181616941Y-69049178D01*
X181526821Y-69011849D01*
X181457847Y-68942875D01*
X181420518Y-68852755D01*
X181415714Y-68803982D01*
X181415714Y-66803982D01*
X181420518Y-66755209D01*
X181457847Y-66665089D01*
X181526821Y-66596115D01*
X181616941Y-66558786D01*
X181714487Y-66558786D01*
X181804607Y-66596115D01*
G37*
G36*
X175875610Y-66558240D02*
G01*
X175878159Y-66558209D01*
X175879631Y-66558636D01*
X175881153Y-66558786D01*
X175883501Y-66559758D01*
X175925228Y-66571863D01*
X176163323Y-66667101D01*
X176206823Y-66689675D01*
X176276634Y-66757804D01*
X176315058Y-66847461D01*
X176316247Y-66944999D01*
X176280020Y-67035568D01*
X176211891Y-67105379D01*
X176122234Y-67143803D01*
X176024696Y-67144993D01*
X175977627Y-67131339D01*
X175784235Y-67053982D01*
X175507998Y-67053982D01*
X175233254Y-67127247D01*
X175069427Y-67258309D01*
X174989985Y-67385416D01*
X174903827Y-67661124D01*
X174891904Y-67699277D01*
X174891904Y-67908685D01*
X174989985Y-68222546D01*
X175069427Y-68349654D01*
X175233256Y-68480717D01*
X175507998Y-68553982D01*
X175680571Y-68553982D01*
X175939523Y-68484927D01*
X175939523Y-68196839D01*
X175713333Y-68196839D01*
X175664560Y-68192035D01*
X175574440Y-68154706D01*
X175505466Y-68085732D01*
X175468137Y-67995612D01*
X175468137Y-67898066D01*
X175505466Y-67807946D01*
X175574440Y-67738972D01*
X175664560Y-67701643D01*
X175713333Y-67696839D01*
X176189523Y-67696839D01*
X176238296Y-67701643D01*
X176328416Y-67738972D01*
X176397390Y-67807946D01*
X176434719Y-67898066D01*
X176439523Y-67946839D01*
X176439523Y-68613505D01*
X176434719Y-68662278D01*
X176429375Y-68675177D01*
X176427834Y-68689055D01*
X176410858Y-68719881D01*
X176397390Y-68752398D01*
X176387515Y-68762272D01*
X176380781Y-68774502D01*
X176345697Y-68808722D01*
X176226649Y-68903961D01*
X176185563Y-68930678D01*
X176182943Y-68931436D01*
X176180779Y-68933094D01*
X176134890Y-68950303D01*
X175777749Y-69045541D01*
X175766394Y-69047401D01*
X175762106Y-69049178D01*
X175745679Y-69050795D01*
X175729385Y-69053466D01*
X175724781Y-69052854D01*
X175713333Y-69053982D01*
X175475237Y-69053982D01*
X175463788Y-69052854D01*
X175459185Y-69053466D01*
X175442890Y-69050795D01*
X175426464Y-69049178D01*
X175422175Y-69047401D01*
X175410821Y-69045541D01*
X175053678Y-68950303D01*
X175007790Y-68933094D01*
X175005625Y-68931436D01*
X175003006Y-68930678D01*
X174961920Y-68903961D01*
X174723825Y-68713484D01*
X174703112Y-68693281D01*
X174697922Y-68689580D01*
X174693691Y-68684092D01*
X174688741Y-68679264D01*
X174685670Y-68673688D01*
X174667999Y-68650766D01*
X174548952Y-68460290D01*
X174544257Y-68450825D01*
X174541465Y-68447480D01*
X174534783Y-68431722D01*
X174527176Y-68416385D01*
X174526456Y-68412085D01*
X174522332Y-68402360D01*
X174403284Y-68021408D01*
X174399155Y-68001520D01*
X174396708Y-67995612D01*
X174395605Y-67984423D01*
X174393322Y-67973422D01*
X174393895Y-67967055D01*
X174391904Y-67946839D01*
X174391904Y-67661124D01*
X174393895Y-67640907D01*
X174393322Y-67634541D01*
X174395605Y-67623539D01*
X174396708Y-67612351D01*
X174399155Y-67606442D01*
X174403284Y-67586555D01*
X174522332Y-67205603D01*
X174526456Y-67195877D01*
X174527176Y-67191578D01*
X174534783Y-67176240D01*
X174541465Y-67160483D01*
X174544257Y-67157137D01*
X174548952Y-67147673D01*
X174667999Y-66957197D01*
X174685668Y-66934276D01*
X174688741Y-66928698D01*
X174693694Y-66923866D01*
X174697922Y-66918383D01*
X174703110Y-66914683D01*
X174723825Y-66894479D01*
X174961920Y-66704003D01*
X175003006Y-66677286D01*
X175005625Y-66676527D01*
X175007790Y-66674870D01*
X175053678Y-66657661D01*
X175410821Y-66562423D01*
X175422175Y-66560562D01*
X175426464Y-66558786D01*
X175442890Y-66557168D01*
X175459185Y-66554498D01*
X175463788Y-66555109D01*
X175475237Y-66553982D01*
X175832380Y-66553982D01*
X175875610Y-66558240D01*
G37*
G36*
X184506563Y-63338352D02*
G01*
X184509112Y-63338321D01*
X184510584Y-63338748D01*
X184512106Y-63338898D01*
X184514454Y-63339870D01*
X184556181Y-63351975D01*
X184794276Y-63447213D01*
X184810599Y-63455683D01*
X184816515Y-63457398D01*
X184826839Y-63464111D01*
X184837776Y-63469787D01*
X184842185Y-63474090D01*
X184857602Y-63484115D01*
X185095696Y-63674591D01*
X185096192Y-63675075D01*
X185096499Y-63675236D01*
X185097119Y-63675979D01*
X185130781Y-63708810D01*
X185142903Y-63730825D01*
X185159010Y-63750119D01*
X185177370Y-63793416D01*
X185177833Y-63794257D01*
X185177870Y-63794597D01*
X185178143Y-63795239D01*
X185297191Y-64176191D01*
X185301319Y-64196078D01*
X185303767Y-64201987D01*
X185304869Y-64213175D01*
X185307153Y-64224177D01*
X185306579Y-64230543D01*
X185308571Y-64250760D01*
X185308571Y-64917427D01*
X185306579Y-64937643D01*
X185307153Y-64944010D01*
X185304869Y-64955011D01*
X185303767Y-64966200D01*
X185301319Y-64972108D01*
X185297191Y-64991996D01*
X185178143Y-65372948D01*
X185177871Y-65373587D01*
X185177834Y-65373929D01*
X185177368Y-65374773D01*
X185159010Y-65418068D01*
X185142902Y-65437363D01*
X185130781Y-65459376D01*
X185097115Y-65492212D01*
X185096499Y-65492951D01*
X185096195Y-65493110D01*
X185095697Y-65493596D01*
X184857602Y-65684073D01*
X184842185Y-65694098D01*
X184837776Y-65698401D01*
X184826843Y-65704074D01*
X184816516Y-65710790D01*
X184810597Y-65712504D01*
X184794276Y-65720975D01*
X184556181Y-65816213D01*
X184514454Y-65828317D01*
X184512106Y-65829290D01*
X184510584Y-65829439D01*
X184509112Y-65829867D01*
X184506563Y-65829835D01*
X184463333Y-65834094D01*
X183987142Y-65834094D01*
X183943911Y-65829835D01*
X183941363Y-65829867D01*
X183939890Y-65829439D01*
X183938369Y-65829290D01*
X183936020Y-65828317D01*
X183894294Y-65816213D01*
X183656199Y-65720975D01*
X183639877Y-65712504D01*
X183633959Y-65710790D01*
X183623631Y-65704074D01*
X183612699Y-65698401D01*
X183608289Y-65694098D01*
X183592873Y-65684073D01*
X183354778Y-65493596D01*
X183354279Y-65493110D01*
X183353976Y-65492951D01*
X183353359Y-65492212D01*
X183319694Y-65459376D01*
X183307572Y-65437363D01*
X183291465Y-65418068D01*
X183273106Y-65374773D01*
X183272641Y-65373929D01*
X183272603Y-65373587D01*
X183272332Y-65372948D01*
X183153284Y-64991996D01*
X183149155Y-64972108D01*
X183146708Y-64966200D01*
X183145605Y-64955011D01*
X183143322Y-64944010D01*
X183143895Y-64937643D01*
X183141904Y-64917427D01*
X183141904Y-64879273D01*
X183641904Y-64879273D01*
X183726783Y-65150888D01*
X183876292Y-65270495D01*
X184035288Y-65334094D01*
X184415187Y-65334094D01*
X184574182Y-65270495D01*
X184723691Y-65150888D01*
X184808571Y-64879273D01*
X184808571Y-64288913D01*
X184723691Y-64017298D01*
X184574183Y-63897692D01*
X184415188Y-63834094D01*
X184035287Y-63834094D01*
X183876290Y-63897692D01*
X183726783Y-64017298D01*
X183641904Y-64288913D01*
X183641904Y-64879273D01*
X183141904Y-64879273D01*
X183141904Y-64288913D01*
X183141904Y-64250760D01*
X183143895Y-64230543D01*
X183143322Y-64224177D01*
X183145605Y-64213175D01*
X183146708Y-64201987D01*
X183149155Y-64196078D01*
X183153284Y-64176191D01*
X183272332Y-63795239D01*
X183272602Y-63794600D01*
X183272641Y-63794257D01*
X183273108Y-63793408D01*
X183291465Y-63750119D01*
X183307570Y-63730825D01*
X183319694Y-63708810D01*
X183353359Y-63675974D01*
X183353976Y-63675236D01*
X183354279Y-63675076D01*
X183354778Y-63674591D01*
X183592873Y-63484115D01*
X183608289Y-63474089D01*
X183612699Y-63469787D01*
X183623631Y-63464113D01*
X183633959Y-63457398D01*
X183639876Y-63455683D01*
X183656199Y-63447213D01*
X183894294Y-63351975D01*
X183936020Y-63339870D01*
X183938369Y-63338898D01*
X183939890Y-63338748D01*
X183941363Y-63338321D01*
X183943911Y-63338352D01*
X183987142Y-63334094D01*
X184463333Y-63334094D01*
X184506563Y-63338352D01*
G37*
D16*
%TO.C,U7*%
X116135000Y-84280000D03*
X118675000Y-84280000D03*
X121215000Y-84280000D03*
X123755000Y-84280000D03*
X126295000Y-84280000D03*
D17*
X128835000Y-84280000D03*
D16*
X131375000Y-84280000D03*
X133915000Y-84280000D03*
X136455000Y-84280000D03*
X138995000Y-84280000D03*
X141535000Y-84280000D03*
X144075000Y-84280000D03*
X146615000Y-84280000D03*
X149155000Y-84280000D03*
D17*
X151695000Y-84280000D03*
D16*
X154235000Y-84280000D03*
X156775000Y-84280000D03*
X159315000Y-84280000D03*
X161855000Y-84280000D03*
X164395000Y-84280000D03*
X164395000Y-66500000D03*
X161855000Y-66500000D03*
X159315000Y-66500000D03*
X156775000Y-66500000D03*
X154235000Y-66500000D03*
X151695000Y-66500000D03*
X149155000Y-66500000D03*
X146615000Y-66500000D03*
D17*
X144075000Y-66500000D03*
D16*
X141535000Y-66500000D03*
X138995000Y-66500000D03*
X136455000Y-66500000D03*
X133915000Y-66500000D03*
X131375000Y-66500000D03*
D17*
X128835000Y-66500000D03*
D16*
X126295000Y-66500000D03*
X123755000Y-66500000D03*
D17*
X121215000Y-66500000D03*
D16*
X118675000Y-66500000D03*
X116135000Y-66500000D03*
X164390000Y-79220000D03*
D17*
X164390000Y-76680000D03*
D16*
X164390000Y-74140000D03*
X164390000Y-71600000D03*
%TD*%
D18*
%TO.C,T14*%
X183650000Y-107060000D03*
%TD*%
%TO.C,T4*%
X174160000Y-82530000D03*
%TD*%
%TO.C,T13*%
X183630000Y-98650000D03*
%TD*%
D19*
%TO.C,J3*%
X182020000Y-92790000D03*
X182020000Y-92290000D03*
X182020000Y-91790000D03*
X182020000Y-91290000D03*
X182020000Y-90790000D03*
X182020000Y-90290000D03*
X182020000Y-89790000D03*
X182020000Y-89290000D03*
X182020000Y-88790000D03*
X182020000Y-88290000D03*
X182020000Y-87790000D03*
X182020000Y-87290000D03*
X182020000Y-86790000D03*
X182020000Y-86290000D03*
X182020000Y-85790000D03*
X182020000Y-85290000D03*
X182020000Y-84790000D03*
X182020000Y-84290000D03*
X182020000Y-83790000D03*
X182020000Y-83290000D03*
X182020000Y-82790000D03*
X182020000Y-82290000D03*
X182020000Y-81790000D03*
X182020000Y-81290000D03*
D20*
X184370000Y-94940000D03*
X184370000Y-79140000D03*
%TD*%
D18*
%TO.C,T18*%
X182190000Y-74540000D03*
%TD*%
%TO.C,T5*%
X170920000Y-77870000D03*
%TD*%
%TO.C,T16*%
X183630000Y-104250000D03*
%TD*%
%TO.C,T2*%
X180660000Y-98650000D03*
%TD*%
D21*
%TO.C,MHP2*%
X187650000Y-112820000D03*
%TD*%
D18*
%TO.C,T1*%
X177780000Y-98650000D03*
%TD*%
%TO.C,T6*%
X168140000Y-77690000D03*
%TD*%
D22*
%TO.C,J2*%
X154690000Y-98345000D03*
X154190000Y-98345000D03*
X153690000Y-98345000D03*
X153190000Y-98345000D03*
X152690000Y-98345000D03*
X152190000Y-98345000D03*
X151690000Y-98345000D03*
X151190000Y-98345000D03*
X150690000Y-98345000D03*
X150190000Y-98345000D03*
X149690000Y-98345000D03*
X149190000Y-98345000D03*
X148690000Y-98345000D03*
X148190000Y-98345000D03*
X147690000Y-98345000D03*
X147190000Y-98345000D03*
X146690000Y-98345000D03*
X146190000Y-98345000D03*
X145690000Y-98345000D03*
X145190000Y-98345000D03*
X144690000Y-98345000D03*
X144190000Y-98345000D03*
X143690000Y-98345000D03*
X143190000Y-98345000D03*
X142690000Y-98345000D03*
X142190000Y-98345000D03*
X141690000Y-98345000D03*
X141190000Y-98345000D03*
X140690000Y-98345000D03*
X140190000Y-98345000D03*
X139690000Y-98345000D03*
X139190000Y-98345000D03*
X138690000Y-98345000D03*
X138190000Y-98345000D03*
X137690000Y-98345000D03*
X137190000Y-98345000D03*
X136690000Y-98345000D03*
X136190000Y-98345000D03*
X135690000Y-98345000D03*
X135190000Y-98345000D03*
X134690000Y-98345000D03*
X134190000Y-98345000D03*
X133690000Y-98345000D03*
X133190000Y-98345000D03*
X132690000Y-98345000D03*
X132190000Y-98345000D03*
X131690000Y-98345000D03*
X131190000Y-98345000D03*
X130690000Y-98345000D03*
X130190000Y-98345000D03*
X129690000Y-98345000D03*
X129190000Y-98345000D03*
X128690000Y-98345000D03*
X128190000Y-98345000D03*
D23*
X156540000Y-95235000D03*
D24*
X123460000Y-95605000D03*
%TD*%
D21*
%TO.C,MHP1*%
X106480000Y-62630000D03*
%TD*%
D18*
%TO.C,T15*%
X183630000Y-101470000D03*
%TD*%
%TO.C,T17*%
X184850000Y-74540000D03*
%TD*%
%TO.C,T3*%
X167690000Y-69090000D03*
%TD*%
D25*
%TO.C,J1*%
X116185000Y-100110000D03*
X116185000Y-99610000D03*
X116185000Y-99110000D03*
X116185000Y-98610000D03*
X116185000Y-98110000D03*
X116185000Y-97610000D03*
X116185000Y-97110000D03*
X116185000Y-96610000D03*
X116185000Y-96110000D03*
X116185000Y-95610000D03*
X116185000Y-95110000D03*
X116185000Y-94610000D03*
X116185000Y-94110000D03*
X116185000Y-93610000D03*
X116185000Y-93110000D03*
X116185000Y-92610000D03*
X116185000Y-92110000D03*
X116185000Y-91610000D03*
X116185000Y-91110000D03*
D26*
X115425000Y-102860000D03*
X115425000Y-88360000D03*
D27*
X109465000Y-102860000D03*
X109465000Y-88360000D03*
%TD*%
D18*
%TO.C,T11*%
X177870000Y-73010000D03*
%TD*%
%TO.C,T20*%
X182190000Y-71720000D03*
%TD*%
%TO.C,T12*%
X178750000Y-75750000D03*
%TD*%
%TO.C,TP17*%
X170320000Y-63120000D03*
%TD*%
%TO.C,TP15*%
X161280000Y-91250000D03*
%TD*%
%TO.C,T19*%
X184850000Y-71720000D03*
%TD*%
%TO.C,TP16*%
X160500000Y-98020000D03*
%TD*%
%LPD*%
M02*
