M48
; DRILL file {KiCad 9.0.5} date 2025-11-09T20:04:02+0000
; FORMAT={-:-/ absolute / inch / decimal}
; #@! TF.CreationDate,2025-11-09T20:04:02+00:00
; #@! TF.GenerationSoftware,Kicad,Pcbnew,9.0.5
; #@! TF.FileFunction,Plated,1,2,PTH
FMAT,2
INCH
; #@! TA.AperFunction,Plated,PTH,ViaDrill
T1C0.0157
; #@! TA.AperFunction,Plated,PTH,ViaDrill
T2C0.0236
; #@! TA.AperFunction,Plated,PTH,ComponentDrill
T3C0.0394
; #@! TA.AperFunction,Plated,PTH,ComponentDrill
T4C0.0402
; #@! TA.AperFunction,Plated,PTH,ViaDrill
T5C0.0787
%
G90
G05
T1
X4.2512Y-4.1764
X4.3374Y-3.2937
X4.4252Y-2.9488
X4.4516Y-4.426
X4.5291Y-3.7406
X4.5508Y-4.194
X4.7225Y-3.2791
X4.7228Y-2.9469
X4.7461Y-3.5303
X4.7516Y-3.6854
X4.8154Y-3.9327
X4.9268Y-2.485
X4.9327Y-2.7724
X5.039Y-3.7917
X5.1031Y-3.5374
X5.1339Y-3.9575
X5.1488Y-4.1717
X5.1516Y-4.0276
X5.1933Y-3.5409
X5.2031Y-3.1795
X5.2854Y-4.1669
X5.3173Y-3.5409
X5.3189Y-3.8012
X5.348Y-3.6055
X5.4634Y-2.898
X5.4661Y-2.6791
X5.6028Y-3.4705
X5.6047Y-3.5315
X5.6228Y-3.3461
X5.7291Y-3.7965
X5.7469Y-4.011
X5.7492Y-4.1815
X5.7799Y-3.4539
X5.8559Y-3.6311
X5.9102Y-2.9071
X5.9496Y-3.4094
X5.9641Y-3.5304
X5.9646Y-3.3516
X6.0693Y-3.3476
X6.0835Y-3.5815
X6.1094Y-2.4248
X6.1768Y-3.4213
X6.2075Y-3.3476
X6.2343Y-3.4028
X6.2689Y-3.8287
X6.2898Y-3.3476
X6.2906Y-3.4106
X6.311Y-3.5634
X6.3413Y-2.9126
X6.3677Y-3.9236
X6.3809Y-3.727
X6.3945Y-3.4693
X6.424Y-3.4374
X6.4485Y-3.4045
X6.4717Y-2.6705
X6.4774Y-3.6244
X6.4898Y-3.8657
X6.501Y-3.4766
X6.5228Y-3.3535
X6.5626Y-3.8961
X6.5724Y-2.6618
X6.6217Y-3.0169
X6.6266Y-3.8904
X6.6701Y-3.8706
X6.6858Y-2.8138
X6.7465Y-3.5681
X6.813Y-3.389
X6.8181Y-3.0213
X6.8181Y-3.6768
X6.8244Y-4.0248
X6.8744Y-3.4583
X6.8803Y-3.6457
X6.9197Y-3.0102
X6.9244Y-4.3059
X6.925Y-3.623
X6.9303Y-3.4654
X6.9677Y-3.35
X7.0157Y-3.4181
X7.0323Y-3.1598
X7.0366Y-2.6614
X7.0874Y-3.3819
X7.1098Y-3.8012
T2
X4.4134Y-3.537
X4.4919Y-3.4781
X4.5632Y-3.3081
X4.6431Y-3.4785
X4.7602Y-2.2453
X4.9028Y-4.0807
X5.3508Y-4.4284
X6.0417Y-3.9965
X6.2504Y-4.4256
X6.3512Y-4.1764
X7.1736Y-2.5894
X7.2453Y-4.0335
T3
X4.2508Y-4.2591
X4.2508Y-4.3591
X4.3228Y-3.0417
X4.3228Y-3.1417
X4.3508Y-4.2591
X4.3508Y-4.3591
X4.4228Y-3.0417
X4.4228Y-3.1417
X4.4508Y-4.2591
X4.4508Y-4.3591
X4.5228Y-3.0417
X4.5228Y-3.1417
X4.5508Y-4.2591
X4.5508Y-4.3591
X4.6228Y-3.0417
X4.6228Y-3.1417
X4.6508Y-4.2591
X4.6508Y-4.3591
X4.7228Y-3.0417
X4.7228Y-3.1417
X4.7508Y-4.2591
X4.7508Y-4.3591
X4.8228Y-3.0417
X4.8228Y-3.1417
X4.8508Y-4.2591
X4.8508Y-4.3591
X4.9508Y-4.2591
X4.9508Y-4.3591
X5.0508Y-4.2591
X5.0508Y-4.3591
X5.1508Y-4.2591
X5.1508Y-4.3591
X5.2508Y-4.2591
X5.2508Y-4.3591
X5.3508Y-4.2591
X5.3508Y-4.3591
X5.4508Y-4.2591
X5.4508Y-4.3591
X5.5508Y-4.2591
X5.5508Y-4.3591
X5.6508Y-4.2591
X5.6508Y-4.3591
X5.7508Y-4.2591
X5.7508Y-4.3591
X5.8508Y-4.2591
X5.8508Y-4.3591
X5.9508Y-4.2591
X5.9508Y-4.3591
X6.0508Y-4.2591
X6.0508Y-4.3591
X6.1508Y-4.2591
X6.1508Y-4.3591
X6.2508Y-4.2591
X6.2508Y-4.3591
X6.3508Y-4.2591
X6.3508Y-4.3591
X6.4508Y-4.2591
X6.4508Y-4.3591
X6.5508Y-4.2591
X6.5508Y-4.3591
X6.6508Y-4.2591
X6.6508Y-4.3591
X6.7508Y-4.2591
X6.7508Y-4.3591
X6.8508Y-4.2591
X6.8508Y-4.3591
T4
X5.1228Y-2.5634
X5.1228Y-3.2634
X5.2228Y-2.5634
X5.2228Y-3.2634
X5.3228Y-2.5634
X5.3228Y-3.2634
X5.4228Y-2.5634
X5.4228Y-3.2634
X5.5228Y-2.5634
X5.5228Y-3.2634
X5.6228Y-2.5634
X5.6228Y-3.2634
X5.7228Y-2.5634
X5.7228Y-3.2634
X5.8228Y-2.5634
X5.8228Y-3.2634
X5.9228Y-2.5634
X5.9228Y-3.2634
X6.0228Y-2.5634
X6.0228Y-3.2634
X6.1228Y-2.5634
X6.1228Y-3.2634
X6.2228Y-2.5634
X6.2228Y-3.2634
X6.3228Y-2.5634
X6.3228Y-3.2634
X6.4228Y-2.5634
X6.4228Y-3.2634
X6.5228Y-2.5634
X6.5228Y-3.2634
X6.6228Y-2.5634
X6.6228Y-3.2634
X6.7228Y-2.5634
X6.7228Y-3.2634
X6.8228Y-2.5634
X6.8228Y-3.2634
X6.9228Y-2.5634
X6.9228Y-3.2634
X7.0226Y-2.7642
X7.0226Y-2.8642
X7.0226Y-2.9642
X7.0226Y-3.0642
X7.0228Y-2.5634
X7.0228Y-3.2634
T5
X3.9626Y-4.315
X4.3366Y-2.2476
X7.4764Y-2.5531
X7.4764Y-4.315
M30
