%TF.GenerationSoftware,KiCad,Pcbnew,9.0.6*%
%TF.CreationDate,2025-12-23T23:13:00+00:00*%
%TF.ProjectId,GG_LCD_DIY,47475f4c-4344-45f4-9449-592e6b696361,rev?*%
%TF.SameCoordinates,Original*%
%TF.FileFunction,Legend,Bot*%
%TF.FilePolarity,Positive*%
%FSLAX46Y46*%
G04 Gerber Fmt 4.6, Leading zero omitted, Abs format (unit mm)*
G04 Created by KiCad (PCBNEW 9.0.6) date 2025-12-23 23:13:00*
%MOMM*%
%LPD*%
G01*
G04 APERTURE LIST*
G04 Aperture macros list*
%AMRoundRect*
0 Rectangle with rounded corners*
0 $1 Rounding radius*
0 $2 $3 $4 $5 $6 $7 $8 $9 X,Y pos of 4 corners*
0 Add a 4 corners polygon primitive as box body*
4,1,4,$2,$3,$4,$5,$6,$7,$8,$9,$2,$3,0*
0 Add four circle primitives for the rounded corners*
1,1,$1+$1,$2,$3*
1,1,$1+$1,$4,$5*
1,1,$1+$1,$6,$7*
1,1,$1+$1,$8,$9*
0 Add four rect primitives between the rounded corners*
20,1,$1+$1,$2,$3,$4,$5,0*
20,1,$1+$1,$4,$5,$6,$7,0*
20,1,$1+$1,$6,$7,$8,$9,0*
20,1,$1+$1,$8,$9,$2,$3,0*%
G04 Aperture macros list end*
%ADD10C,0.120000*%
%ADD11C,0.150000*%
%ADD12C,0.151000*%
%ADD13RoundRect,0.150000X0.150000X-0.512500X0.150000X0.512500X-0.150000X0.512500X-0.150000X-0.512500X0*%
%ADD14RoundRect,0.160000X-0.197500X-0.160000X0.197500X-0.160000X0.197500X0.160000X-0.197500X0.160000X0*%
%ADD15RoundRect,0.155000X0.212500X0.155000X-0.212500X0.155000X-0.212500X-0.155000X0.212500X-0.155000X0*%
%ADD16RoundRect,0.155000X-0.212500X-0.155000X0.212500X-0.155000X0.212500X0.155000X-0.212500X0.155000X0*%
%ADD17RoundRect,0.155000X0.155000X-0.212500X0.155000X0.212500X-0.155000X0.212500X-0.155000X-0.212500X0*%
%ADD18RoundRect,0.160000X0.197500X0.160000X-0.197500X0.160000X-0.197500X-0.160000X0.197500X-0.160000X0*%
%ADD19RoundRect,0.160000X-0.160000X0.197500X-0.160000X-0.197500X0.160000X-0.197500X0.160000X0.197500X0*%
%ADD20RoundRect,0.225000X-0.225000X-0.375000X0.225000X-0.375000X0.225000X0.375000X-0.225000X0.375000X0*%
%ADD21RoundRect,0.100000X0.100000X-0.637500X0.100000X0.637500X-0.100000X0.637500X-0.100000X-0.637500X0*%
%ADD22RoundRect,0.150000X0.150000X-0.725000X0.150000X0.725000X-0.150000X0.725000X-0.150000X-0.725000X0*%
%ADD23RoundRect,0.237500X0.300000X0.237500X-0.300000X0.237500X-0.300000X-0.237500X0.300000X-0.237500X0*%
%ADD24RoundRect,0.155000X-0.155000X0.212500X-0.155000X-0.212500X0.155000X-0.212500X0.155000X0.212500X0*%
%ADD25RoundRect,0.150000X-0.725000X-0.150000X0.725000X-0.150000X0.725000X0.150000X-0.725000X0.150000X0*%
%ADD26RoundRect,0.237500X-0.237500X0.300000X-0.237500X-0.300000X0.237500X-0.300000X0.237500X0.300000X0*%
%ADD27RoundRect,0.225000X0.225000X0.375000X-0.225000X0.375000X-0.225000X-0.375000X0.225000X-0.375000X0*%
%ADD28RoundRect,0.237500X0.237500X-0.300000X0.237500X0.300000X-0.237500X0.300000X-0.237500X-0.300000X0*%
%ADD29RoundRect,0.150000X0.825000X0.150000X-0.825000X0.150000X-0.825000X-0.150000X0.825000X-0.150000X0*%
%ADD30RoundRect,0.237500X-0.250000X-0.237500X0.250000X-0.237500X0.250000X0.237500X-0.250000X0.237500X0*%
%ADD31RoundRect,0.250000X-0.475000X0.337500X-0.475000X-0.337500X0.475000X-0.337500X0.475000X0.337500X0*%
%ADD32RoundRect,0.250000X-0.450000X0.325000X-0.450000X-0.325000X0.450000X-0.325000X0.450000X0.325000X0*%
%ADD33RoundRect,0.250000X0.337500X0.475000X-0.337500X0.475000X-0.337500X-0.475000X0.337500X-0.475000X0*%
%ADD34RoundRect,0.237500X0.250000X0.237500X-0.250000X0.237500X-0.250000X-0.237500X0.250000X-0.237500X0*%
%ADD35RoundRect,0.160000X0.160000X-0.197500X0.160000X0.197500X-0.160000X0.197500X-0.160000X-0.197500X0*%
%ADD36RoundRect,0.250000X0.450000X-0.325000X0.450000X0.325000X-0.450000X0.325000X-0.450000X-0.325000X0*%
%ADD37RoundRect,0.225000X0.375000X-0.225000X0.375000X0.225000X-0.375000X0.225000X-0.375000X-0.225000X0*%
%ADD38C,1.524000*%
%ADD39O,1.700000X1.700000*%
%ADD40R,1.700000X1.700000*%
%ADD41C,1.300000*%
G04 APERTURE END LIST*
D10*
X107560000Y-65640000D02*
X115560000Y-65640000D01*
X115560000Y-73640000D01*
X107560000Y-73640000D01*
X107560000Y-65640000D01*
G36*
X107560000Y-65640000D02*
G01*
X115560000Y-65640000D01*
X115560000Y-73640000D01*
X107560000Y-73640000D01*
X107560000Y-65640000D01*
G37*
D11*
X167121904Y-92204819D02*
X167121904Y-93014342D01*
X167121904Y-93014342D02*
X167074285Y-93109580D01*
X167074285Y-93109580D02*
X167026666Y-93157200D01*
X167026666Y-93157200D02*
X166931428Y-93204819D01*
X166931428Y-93204819D02*
X166740952Y-93204819D01*
X166740952Y-93204819D02*
X166645714Y-93157200D01*
X166645714Y-93157200D02*
X166598095Y-93109580D01*
X166598095Y-93109580D02*
X166550476Y-93014342D01*
X166550476Y-93014342D02*
X166550476Y-92204819D01*
X166121904Y-92300057D02*
X166074285Y-92252438D01*
X166074285Y-92252438D02*
X165979047Y-92204819D01*
X165979047Y-92204819D02*
X165740952Y-92204819D01*
X165740952Y-92204819D02*
X165645714Y-92252438D01*
X165645714Y-92252438D02*
X165598095Y-92300057D01*
X165598095Y-92300057D02*
X165550476Y-92395295D01*
X165550476Y-92395295D02*
X165550476Y-92490533D01*
X165550476Y-92490533D02*
X165598095Y-92633390D01*
X165598095Y-92633390D02*
X166169523Y-93204819D01*
X166169523Y-93204819D02*
X165550476Y-93204819D01*
X136086666Y-74394819D02*
X136419999Y-73918628D01*
X136658094Y-74394819D02*
X136658094Y-73394819D01*
X136658094Y-73394819D02*
X136277142Y-73394819D01*
X136277142Y-73394819D02*
X136181904Y-73442438D01*
X136181904Y-73442438D02*
X136134285Y-73490057D01*
X136134285Y-73490057D02*
X136086666Y-73585295D01*
X136086666Y-73585295D02*
X136086666Y-73728152D01*
X136086666Y-73728152D02*
X136134285Y-73823390D01*
X136134285Y-73823390D02*
X136181904Y-73871009D01*
X136181904Y-73871009D02*
X136277142Y-73918628D01*
X136277142Y-73918628D02*
X136658094Y-73918628D01*
X135229523Y-73394819D02*
X135419999Y-73394819D01*
X135419999Y-73394819D02*
X135515237Y-73442438D01*
X135515237Y-73442438D02*
X135562856Y-73490057D01*
X135562856Y-73490057D02*
X135658094Y-73632914D01*
X135658094Y-73632914D02*
X135705713Y-73823390D01*
X135705713Y-73823390D02*
X135705713Y-74204342D01*
X135705713Y-74204342D02*
X135658094Y-74299580D01*
X135658094Y-74299580D02*
X135610475Y-74347200D01*
X135610475Y-74347200D02*
X135515237Y-74394819D01*
X135515237Y-74394819D02*
X135324761Y-74394819D01*
X135324761Y-74394819D02*
X135229523Y-74347200D01*
X135229523Y-74347200D02*
X135181904Y-74299580D01*
X135181904Y-74299580D02*
X135134285Y-74204342D01*
X135134285Y-74204342D02*
X135134285Y-73966247D01*
X135134285Y-73966247D02*
X135181904Y-73871009D01*
X135181904Y-73871009D02*
X135229523Y-73823390D01*
X135229523Y-73823390D02*
X135324761Y-73775771D01*
X135324761Y-73775771D02*
X135515237Y-73775771D01*
X135515237Y-73775771D02*
X135610475Y-73823390D01*
X135610475Y-73823390D02*
X135658094Y-73871009D01*
X135658094Y-73871009D02*
X135705713Y-73966247D01*
X179642857Y-71419580D02*
X179690476Y-71467200D01*
X179690476Y-71467200D02*
X179833333Y-71514819D01*
X179833333Y-71514819D02*
X179928571Y-71514819D01*
X179928571Y-71514819D02*
X180071428Y-71467200D01*
X180071428Y-71467200D02*
X180166666Y-71371961D01*
X180166666Y-71371961D02*
X180214285Y-71276723D01*
X180214285Y-71276723D02*
X180261904Y-71086247D01*
X180261904Y-71086247D02*
X180261904Y-70943390D01*
X180261904Y-70943390D02*
X180214285Y-70752914D01*
X180214285Y-70752914D02*
X180166666Y-70657676D01*
X180166666Y-70657676D02*
X180071428Y-70562438D01*
X180071428Y-70562438D02*
X179928571Y-70514819D01*
X179928571Y-70514819D02*
X179833333Y-70514819D01*
X179833333Y-70514819D02*
X179690476Y-70562438D01*
X179690476Y-70562438D02*
X179642857Y-70610057D01*
X179261904Y-70610057D02*
X179214285Y-70562438D01*
X179214285Y-70562438D02*
X179119047Y-70514819D01*
X179119047Y-70514819D02*
X178880952Y-70514819D01*
X178880952Y-70514819D02*
X178785714Y-70562438D01*
X178785714Y-70562438D02*
X178738095Y-70610057D01*
X178738095Y-70610057D02*
X178690476Y-70705295D01*
X178690476Y-70705295D02*
X178690476Y-70800533D01*
X178690476Y-70800533D02*
X178738095Y-70943390D01*
X178738095Y-70943390D02*
X179309523Y-71514819D01*
X179309523Y-71514819D02*
X178690476Y-71514819D01*
X178309523Y-70610057D02*
X178261904Y-70562438D01*
X178261904Y-70562438D02*
X178166666Y-70514819D01*
X178166666Y-70514819D02*
X177928571Y-70514819D01*
X177928571Y-70514819D02*
X177833333Y-70562438D01*
X177833333Y-70562438D02*
X177785714Y-70610057D01*
X177785714Y-70610057D02*
X177738095Y-70705295D01*
X177738095Y-70705295D02*
X177738095Y-70800533D01*
X177738095Y-70800533D02*
X177785714Y-70943390D01*
X177785714Y-70943390D02*
X178357142Y-71514819D01*
X178357142Y-71514819D02*
X177738095Y-71514819D01*
X150702857Y-97799580D02*
X150750476Y-97847200D01*
X150750476Y-97847200D02*
X150893333Y-97894819D01*
X150893333Y-97894819D02*
X150988571Y-97894819D01*
X150988571Y-97894819D02*
X151131428Y-97847200D01*
X151131428Y-97847200D02*
X151226666Y-97751961D01*
X151226666Y-97751961D02*
X151274285Y-97656723D01*
X151274285Y-97656723D02*
X151321904Y-97466247D01*
X151321904Y-97466247D02*
X151321904Y-97323390D01*
X151321904Y-97323390D02*
X151274285Y-97132914D01*
X151274285Y-97132914D02*
X151226666Y-97037676D01*
X151226666Y-97037676D02*
X151131428Y-96942438D01*
X151131428Y-96942438D02*
X150988571Y-96894819D01*
X150988571Y-96894819D02*
X150893333Y-96894819D01*
X150893333Y-96894819D02*
X150750476Y-96942438D01*
X150750476Y-96942438D02*
X150702857Y-96990057D01*
X149750476Y-97894819D02*
X150321904Y-97894819D01*
X150036190Y-97894819D02*
X150036190Y-96894819D01*
X150036190Y-96894819D02*
X150131428Y-97037676D01*
X150131428Y-97037676D02*
X150226666Y-97132914D01*
X150226666Y-97132914D02*
X150321904Y-97180533D01*
X149131428Y-96894819D02*
X149036190Y-96894819D01*
X149036190Y-96894819D02*
X148940952Y-96942438D01*
X148940952Y-96942438D02*
X148893333Y-96990057D01*
X148893333Y-96990057D02*
X148845714Y-97085295D01*
X148845714Y-97085295D02*
X148798095Y-97275771D01*
X148798095Y-97275771D02*
X148798095Y-97513866D01*
X148798095Y-97513866D02*
X148845714Y-97704342D01*
X148845714Y-97704342D02*
X148893333Y-97799580D01*
X148893333Y-97799580D02*
X148940952Y-97847200D01*
X148940952Y-97847200D02*
X149036190Y-97894819D01*
X149036190Y-97894819D02*
X149131428Y-97894819D01*
X149131428Y-97894819D02*
X149226666Y-97847200D01*
X149226666Y-97847200D02*
X149274285Y-97799580D01*
X149274285Y-97799580D02*
X149321904Y-97704342D01*
X149321904Y-97704342D02*
X149369523Y-97513866D01*
X149369523Y-97513866D02*
X149369523Y-97275771D01*
X149369523Y-97275771D02*
X149321904Y-97085295D01*
X149321904Y-97085295D02*
X149274285Y-96990057D01*
X149274285Y-96990057D02*
X149226666Y-96942438D01*
X149226666Y-96942438D02*
X149131428Y-96894819D01*
X135502857Y-80639580D02*
X135550476Y-80687200D01*
X135550476Y-80687200D02*
X135693333Y-80734819D01*
X135693333Y-80734819D02*
X135788571Y-80734819D01*
X135788571Y-80734819D02*
X135931428Y-80687200D01*
X135931428Y-80687200D02*
X136026666Y-80591961D01*
X136026666Y-80591961D02*
X136074285Y-80496723D01*
X136074285Y-80496723D02*
X136121904Y-80306247D01*
X136121904Y-80306247D02*
X136121904Y-80163390D01*
X136121904Y-80163390D02*
X136074285Y-79972914D01*
X136074285Y-79972914D02*
X136026666Y-79877676D01*
X136026666Y-79877676D02*
X135931428Y-79782438D01*
X135931428Y-79782438D02*
X135788571Y-79734819D01*
X135788571Y-79734819D02*
X135693333Y-79734819D01*
X135693333Y-79734819D02*
X135550476Y-79782438D01*
X135550476Y-79782438D02*
X135502857Y-79830057D01*
X134550476Y-80734819D02*
X135121904Y-80734819D01*
X134836190Y-80734819D02*
X134836190Y-79734819D01*
X134836190Y-79734819D02*
X134931428Y-79877676D01*
X134931428Y-79877676D02*
X135026666Y-79972914D01*
X135026666Y-79972914D02*
X135121904Y-80020533D01*
X134074285Y-80734819D02*
X133883809Y-80734819D01*
X133883809Y-80734819D02*
X133788571Y-80687200D01*
X133788571Y-80687200D02*
X133740952Y-80639580D01*
X133740952Y-80639580D02*
X133645714Y-80496723D01*
X133645714Y-80496723D02*
X133598095Y-80306247D01*
X133598095Y-80306247D02*
X133598095Y-79925295D01*
X133598095Y-79925295D02*
X133645714Y-79830057D01*
X133645714Y-79830057D02*
X133693333Y-79782438D01*
X133693333Y-79782438D02*
X133788571Y-79734819D01*
X133788571Y-79734819D02*
X133979047Y-79734819D01*
X133979047Y-79734819D02*
X134074285Y-79782438D01*
X134074285Y-79782438D02*
X134121904Y-79830057D01*
X134121904Y-79830057D02*
X134169523Y-79925295D01*
X134169523Y-79925295D02*
X134169523Y-80163390D01*
X134169523Y-80163390D02*
X134121904Y-80258628D01*
X134121904Y-80258628D02*
X134074285Y-80306247D01*
X134074285Y-80306247D02*
X133979047Y-80353866D01*
X133979047Y-80353866D02*
X133788571Y-80353866D01*
X133788571Y-80353866D02*
X133693333Y-80306247D01*
X133693333Y-80306247D02*
X133645714Y-80258628D01*
X133645714Y-80258628D02*
X133598095Y-80163390D01*
X164052857Y-95569580D02*
X164100476Y-95617200D01*
X164100476Y-95617200D02*
X164243333Y-95664819D01*
X164243333Y-95664819D02*
X164338571Y-95664819D01*
X164338571Y-95664819D02*
X164481428Y-95617200D01*
X164481428Y-95617200D02*
X164576666Y-95521961D01*
X164576666Y-95521961D02*
X164624285Y-95426723D01*
X164624285Y-95426723D02*
X164671904Y-95236247D01*
X164671904Y-95236247D02*
X164671904Y-95093390D01*
X164671904Y-95093390D02*
X164624285Y-94902914D01*
X164624285Y-94902914D02*
X164576666Y-94807676D01*
X164576666Y-94807676D02*
X164481428Y-94712438D01*
X164481428Y-94712438D02*
X164338571Y-94664819D01*
X164338571Y-94664819D02*
X164243333Y-94664819D01*
X164243333Y-94664819D02*
X164100476Y-94712438D01*
X164100476Y-94712438D02*
X164052857Y-94760057D01*
X163100476Y-95664819D02*
X163671904Y-95664819D01*
X163386190Y-95664819D02*
X163386190Y-94664819D01*
X163386190Y-94664819D02*
X163481428Y-94807676D01*
X163481428Y-94807676D02*
X163576666Y-94902914D01*
X163576666Y-94902914D02*
X163671904Y-94950533D01*
X162767142Y-94664819D02*
X162100476Y-94664819D01*
X162100476Y-94664819D02*
X162529047Y-95664819D01*
X180002857Y-79424819D02*
X180336190Y-78948628D01*
X180574285Y-79424819D02*
X180574285Y-78424819D01*
X180574285Y-78424819D02*
X180193333Y-78424819D01*
X180193333Y-78424819D02*
X180098095Y-78472438D01*
X180098095Y-78472438D02*
X180050476Y-78520057D01*
X180050476Y-78520057D02*
X180002857Y-78615295D01*
X180002857Y-78615295D02*
X180002857Y-78758152D01*
X180002857Y-78758152D02*
X180050476Y-78853390D01*
X180050476Y-78853390D02*
X180098095Y-78901009D01*
X180098095Y-78901009D02*
X180193333Y-78948628D01*
X180193333Y-78948628D02*
X180574285Y-78948628D01*
X179050476Y-79424819D02*
X179621904Y-79424819D01*
X179336190Y-79424819D02*
X179336190Y-78424819D01*
X179336190Y-78424819D02*
X179431428Y-78567676D01*
X179431428Y-78567676D02*
X179526666Y-78662914D01*
X179526666Y-78662914D02*
X179621904Y-78710533D01*
X178669523Y-78520057D02*
X178621904Y-78472438D01*
X178621904Y-78472438D02*
X178526666Y-78424819D01*
X178526666Y-78424819D02*
X178288571Y-78424819D01*
X178288571Y-78424819D02*
X178193333Y-78472438D01*
X178193333Y-78472438D02*
X178145714Y-78520057D01*
X178145714Y-78520057D02*
X178098095Y-78615295D01*
X178098095Y-78615295D02*
X178098095Y-78710533D01*
X178098095Y-78710533D02*
X178145714Y-78853390D01*
X178145714Y-78853390D02*
X178717142Y-79424819D01*
X178717142Y-79424819D02*
X178098095Y-79424819D01*
X179022857Y-84074819D02*
X179356190Y-83598628D01*
X179594285Y-84074819D02*
X179594285Y-83074819D01*
X179594285Y-83074819D02*
X179213333Y-83074819D01*
X179213333Y-83074819D02*
X179118095Y-83122438D01*
X179118095Y-83122438D02*
X179070476Y-83170057D01*
X179070476Y-83170057D02*
X179022857Y-83265295D01*
X179022857Y-83265295D02*
X179022857Y-83408152D01*
X179022857Y-83408152D02*
X179070476Y-83503390D01*
X179070476Y-83503390D02*
X179118095Y-83551009D01*
X179118095Y-83551009D02*
X179213333Y-83598628D01*
X179213333Y-83598628D02*
X179594285Y-83598628D01*
X178070476Y-84074819D02*
X178641904Y-84074819D01*
X178356190Y-84074819D02*
X178356190Y-83074819D01*
X178356190Y-83074819D02*
X178451428Y-83217676D01*
X178451428Y-83217676D02*
X178546666Y-83312914D01*
X178546666Y-83312914D02*
X178641904Y-83360533D01*
X177213333Y-83408152D02*
X177213333Y-84074819D01*
X177451428Y-83027200D02*
X177689523Y-83741485D01*
X177689523Y-83741485D02*
X177070476Y-83741485D01*
X136086666Y-75638152D02*
X136419999Y-75161961D01*
X136658094Y-75638152D02*
X136658094Y-74638152D01*
X136658094Y-74638152D02*
X136277142Y-74638152D01*
X136277142Y-74638152D02*
X136181904Y-74685771D01*
X136181904Y-74685771D02*
X136134285Y-74733390D01*
X136134285Y-74733390D02*
X136086666Y-74828628D01*
X136086666Y-74828628D02*
X136086666Y-74971485D01*
X136086666Y-74971485D02*
X136134285Y-75066723D01*
X136134285Y-75066723D02*
X136181904Y-75114342D01*
X136181904Y-75114342D02*
X136277142Y-75161961D01*
X136277142Y-75161961D02*
X136658094Y-75161961D01*
X135753332Y-74638152D02*
X135086666Y-74638152D01*
X135086666Y-74638152D02*
X135515237Y-75638152D01*
X150652857Y-77294819D02*
X150986190Y-76818628D01*
X151224285Y-77294819D02*
X151224285Y-76294819D01*
X151224285Y-76294819D02*
X150843333Y-76294819D01*
X150843333Y-76294819D02*
X150748095Y-76342438D01*
X150748095Y-76342438D02*
X150700476Y-76390057D01*
X150700476Y-76390057D02*
X150652857Y-76485295D01*
X150652857Y-76485295D02*
X150652857Y-76628152D01*
X150652857Y-76628152D02*
X150700476Y-76723390D01*
X150700476Y-76723390D02*
X150748095Y-76771009D01*
X150748095Y-76771009D02*
X150843333Y-76818628D01*
X150843333Y-76818628D02*
X151224285Y-76818628D01*
X150319523Y-76294819D02*
X149700476Y-76294819D01*
X149700476Y-76294819D02*
X150033809Y-76675771D01*
X150033809Y-76675771D02*
X149890952Y-76675771D01*
X149890952Y-76675771D02*
X149795714Y-76723390D01*
X149795714Y-76723390D02*
X149748095Y-76771009D01*
X149748095Y-76771009D02*
X149700476Y-76866247D01*
X149700476Y-76866247D02*
X149700476Y-77104342D01*
X149700476Y-77104342D02*
X149748095Y-77199580D01*
X149748095Y-77199580D02*
X149795714Y-77247200D01*
X149795714Y-77247200D02*
X149890952Y-77294819D01*
X149890952Y-77294819D02*
X150176666Y-77294819D01*
X150176666Y-77294819D02*
X150271904Y-77247200D01*
X150271904Y-77247200D02*
X150319523Y-77199580D01*
X148843333Y-76628152D02*
X148843333Y-77294819D01*
X149081428Y-76247200D02*
X149319523Y-76961485D01*
X149319523Y-76961485D02*
X148700476Y-76961485D01*
X172612857Y-72379580D02*
X172660476Y-72427200D01*
X172660476Y-72427200D02*
X172803333Y-72474819D01*
X172803333Y-72474819D02*
X172898571Y-72474819D01*
X172898571Y-72474819D02*
X173041428Y-72427200D01*
X173041428Y-72427200D02*
X173136666Y-72331961D01*
X173136666Y-72331961D02*
X173184285Y-72236723D01*
X173184285Y-72236723D02*
X173231904Y-72046247D01*
X173231904Y-72046247D02*
X173231904Y-71903390D01*
X173231904Y-71903390D02*
X173184285Y-71712914D01*
X173184285Y-71712914D02*
X173136666Y-71617676D01*
X173136666Y-71617676D02*
X173041428Y-71522438D01*
X173041428Y-71522438D02*
X172898571Y-71474819D01*
X172898571Y-71474819D02*
X172803333Y-71474819D01*
X172803333Y-71474819D02*
X172660476Y-71522438D01*
X172660476Y-71522438D02*
X172612857Y-71570057D01*
X172231904Y-71570057D02*
X172184285Y-71522438D01*
X172184285Y-71522438D02*
X172089047Y-71474819D01*
X172089047Y-71474819D02*
X171850952Y-71474819D01*
X171850952Y-71474819D02*
X171755714Y-71522438D01*
X171755714Y-71522438D02*
X171708095Y-71570057D01*
X171708095Y-71570057D02*
X171660476Y-71665295D01*
X171660476Y-71665295D02*
X171660476Y-71760533D01*
X171660476Y-71760533D02*
X171708095Y-71903390D01*
X171708095Y-71903390D02*
X172279523Y-72474819D01*
X172279523Y-72474819D02*
X171660476Y-72474819D01*
X170755714Y-71474819D02*
X171231904Y-71474819D01*
X171231904Y-71474819D02*
X171279523Y-71951009D01*
X171279523Y-71951009D02*
X171231904Y-71903390D01*
X171231904Y-71903390D02*
X171136666Y-71855771D01*
X171136666Y-71855771D02*
X170898571Y-71855771D01*
X170898571Y-71855771D02*
X170803333Y-71903390D01*
X170803333Y-71903390D02*
X170755714Y-71951009D01*
X170755714Y-71951009D02*
X170708095Y-72046247D01*
X170708095Y-72046247D02*
X170708095Y-72284342D01*
X170708095Y-72284342D02*
X170755714Y-72379580D01*
X170755714Y-72379580D02*
X170803333Y-72427200D01*
X170803333Y-72427200D02*
X170898571Y-72474819D01*
X170898571Y-72474819D02*
X171136666Y-72474819D01*
X171136666Y-72474819D02*
X171231904Y-72427200D01*
X171231904Y-72427200D02*
X171279523Y-72379580D01*
X176178094Y-105674819D02*
X176178094Y-104674819D01*
X176178094Y-104674819D02*
X175939999Y-104674819D01*
X175939999Y-104674819D02*
X175797142Y-104722438D01*
X175797142Y-104722438D02*
X175701904Y-104817676D01*
X175701904Y-104817676D02*
X175654285Y-104912914D01*
X175654285Y-104912914D02*
X175606666Y-105103390D01*
X175606666Y-105103390D02*
X175606666Y-105246247D01*
X175606666Y-105246247D02*
X175654285Y-105436723D01*
X175654285Y-105436723D02*
X175701904Y-105531961D01*
X175701904Y-105531961D02*
X175797142Y-105627200D01*
X175797142Y-105627200D02*
X175939999Y-105674819D01*
X175939999Y-105674819D02*
X176178094Y-105674819D01*
X175225713Y-104770057D02*
X175178094Y-104722438D01*
X175178094Y-104722438D02*
X175082856Y-104674819D01*
X175082856Y-104674819D02*
X174844761Y-104674819D01*
X174844761Y-104674819D02*
X174749523Y-104722438D01*
X174749523Y-104722438D02*
X174701904Y-104770057D01*
X174701904Y-104770057D02*
X174654285Y-104865295D01*
X174654285Y-104865295D02*
X174654285Y-104960533D01*
X174654285Y-104960533D02*
X174701904Y-105103390D01*
X174701904Y-105103390D02*
X175273332Y-105674819D01*
X175273332Y-105674819D02*
X174654285Y-105674819D01*
X153621904Y-90124819D02*
X153621904Y-90934342D01*
X153621904Y-90934342D02*
X153574285Y-91029580D01*
X153574285Y-91029580D02*
X153526666Y-91077200D01*
X153526666Y-91077200D02*
X153431428Y-91124819D01*
X153431428Y-91124819D02*
X153240952Y-91124819D01*
X153240952Y-91124819D02*
X153145714Y-91077200D01*
X153145714Y-91077200D02*
X153098095Y-91029580D01*
X153098095Y-91029580D02*
X153050476Y-90934342D01*
X153050476Y-90934342D02*
X153050476Y-90124819D01*
X152669523Y-90124819D02*
X152002857Y-90124819D01*
X152002857Y-90124819D02*
X152431428Y-91124819D01*
X159424819Y-103078095D02*
X160234342Y-103078095D01*
X160234342Y-103078095D02*
X160329580Y-103125714D01*
X160329580Y-103125714D02*
X160377200Y-103173333D01*
X160377200Y-103173333D02*
X160424819Y-103268571D01*
X160424819Y-103268571D02*
X160424819Y-103459047D01*
X160424819Y-103459047D02*
X160377200Y-103554285D01*
X160377200Y-103554285D02*
X160329580Y-103601904D01*
X160329580Y-103601904D02*
X160234342Y-103649523D01*
X160234342Y-103649523D02*
X159424819Y-103649523D01*
X159758152Y-104554285D02*
X160424819Y-104554285D01*
X159377200Y-104316190D02*
X160091485Y-104078095D01*
X160091485Y-104078095D02*
X160091485Y-104697142D01*
X176626666Y-97549580D02*
X176674285Y-97597200D01*
X176674285Y-97597200D02*
X176817142Y-97644819D01*
X176817142Y-97644819D02*
X176912380Y-97644819D01*
X176912380Y-97644819D02*
X177055237Y-97597200D01*
X177055237Y-97597200D02*
X177150475Y-97501961D01*
X177150475Y-97501961D02*
X177198094Y-97406723D01*
X177198094Y-97406723D02*
X177245713Y-97216247D01*
X177245713Y-97216247D02*
X177245713Y-97073390D01*
X177245713Y-97073390D02*
X177198094Y-96882914D01*
X177198094Y-96882914D02*
X177150475Y-96787676D01*
X177150475Y-96787676D02*
X177055237Y-96692438D01*
X177055237Y-96692438D02*
X176912380Y-96644819D01*
X176912380Y-96644819D02*
X176817142Y-96644819D01*
X176817142Y-96644819D02*
X176674285Y-96692438D01*
X176674285Y-96692438D02*
X176626666Y-96740057D01*
X175721904Y-96644819D02*
X176198094Y-96644819D01*
X176198094Y-96644819D02*
X176245713Y-97121009D01*
X176245713Y-97121009D02*
X176198094Y-97073390D01*
X176198094Y-97073390D02*
X176102856Y-97025771D01*
X176102856Y-97025771D02*
X175864761Y-97025771D01*
X175864761Y-97025771D02*
X175769523Y-97073390D01*
X175769523Y-97073390D02*
X175721904Y-97121009D01*
X175721904Y-97121009D02*
X175674285Y-97216247D01*
X175674285Y-97216247D02*
X175674285Y-97454342D01*
X175674285Y-97454342D02*
X175721904Y-97549580D01*
X175721904Y-97549580D02*
X175769523Y-97597200D01*
X175769523Y-97597200D02*
X175864761Y-97644819D01*
X175864761Y-97644819D02*
X176102856Y-97644819D01*
X176102856Y-97644819D02*
X176198094Y-97597200D01*
X176198094Y-97597200D02*
X176245713Y-97549580D01*
X170476666Y-94469580D02*
X170524285Y-94517200D01*
X170524285Y-94517200D02*
X170667142Y-94564819D01*
X170667142Y-94564819D02*
X170762380Y-94564819D01*
X170762380Y-94564819D02*
X170905237Y-94517200D01*
X170905237Y-94517200D02*
X171000475Y-94421961D01*
X171000475Y-94421961D02*
X171048094Y-94326723D01*
X171048094Y-94326723D02*
X171095713Y-94136247D01*
X171095713Y-94136247D02*
X171095713Y-93993390D01*
X171095713Y-93993390D02*
X171048094Y-93802914D01*
X171048094Y-93802914D02*
X171000475Y-93707676D01*
X171000475Y-93707676D02*
X170905237Y-93612438D01*
X170905237Y-93612438D02*
X170762380Y-93564819D01*
X170762380Y-93564819D02*
X170667142Y-93564819D01*
X170667142Y-93564819D02*
X170524285Y-93612438D01*
X170524285Y-93612438D02*
X170476666Y-93660057D01*
X170095713Y-93660057D02*
X170048094Y-93612438D01*
X170048094Y-93612438D02*
X169952856Y-93564819D01*
X169952856Y-93564819D02*
X169714761Y-93564819D01*
X169714761Y-93564819D02*
X169619523Y-93612438D01*
X169619523Y-93612438D02*
X169571904Y-93660057D01*
X169571904Y-93660057D02*
X169524285Y-93755295D01*
X169524285Y-93755295D02*
X169524285Y-93850533D01*
X169524285Y-93850533D02*
X169571904Y-93993390D01*
X169571904Y-93993390D02*
X170143332Y-94564819D01*
X170143332Y-94564819D02*
X169524285Y-94564819D01*
X179642857Y-69489580D02*
X179690476Y-69537200D01*
X179690476Y-69537200D02*
X179833333Y-69584819D01*
X179833333Y-69584819D02*
X179928571Y-69584819D01*
X179928571Y-69584819D02*
X180071428Y-69537200D01*
X180071428Y-69537200D02*
X180166666Y-69441961D01*
X180166666Y-69441961D02*
X180214285Y-69346723D01*
X180214285Y-69346723D02*
X180261904Y-69156247D01*
X180261904Y-69156247D02*
X180261904Y-69013390D01*
X180261904Y-69013390D02*
X180214285Y-68822914D01*
X180214285Y-68822914D02*
X180166666Y-68727676D01*
X180166666Y-68727676D02*
X180071428Y-68632438D01*
X180071428Y-68632438D02*
X179928571Y-68584819D01*
X179928571Y-68584819D02*
X179833333Y-68584819D01*
X179833333Y-68584819D02*
X179690476Y-68632438D01*
X179690476Y-68632438D02*
X179642857Y-68680057D01*
X179261904Y-68680057D02*
X179214285Y-68632438D01*
X179214285Y-68632438D02*
X179119047Y-68584819D01*
X179119047Y-68584819D02*
X178880952Y-68584819D01*
X178880952Y-68584819D02*
X178785714Y-68632438D01*
X178785714Y-68632438D02*
X178738095Y-68680057D01*
X178738095Y-68680057D02*
X178690476Y-68775295D01*
X178690476Y-68775295D02*
X178690476Y-68870533D01*
X178690476Y-68870533D02*
X178738095Y-69013390D01*
X178738095Y-69013390D02*
X179309523Y-69584819D01*
X179309523Y-69584819D02*
X178690476Y-69584819D01*
X178071428Y-68584819D02*
X177976190Y-68584819D01*
X177976190Y-68584819D02*
X177880952Y-68632438D01*
X177880952Y-68632438D02*
X177833333Y-68680057D01*
X177833333Y-68680057D02*
X177785714Y-68775295D01*
X177785714Y-68775295D02*
X177738095Y-68965771D01*
X177738095Y-68965771D02*
X177738095Y-69203866D01*
X177738095Y-69203866D02*
X177785714Y-69394342D01*
X177785714Y-69394342D02*
X177833333Y-69489580D01*
X177833333Y-69489580D02*
X177880952Y-69537200D01*
X177880952Y-69537200D02*
X177976190Y-69584819D01*
X177976190Y-69584819D02*
X178071428Y-69584819D01*
X178071428Y-69584819D02*
X178166666Y-69537200D01*
X178166666Y-69537200D02*
X178214285Y-69489580D01*
X178214285Y-69489580D02*
X178261904Y-69394342D01*
X178261904Y-69394342D02*
X178309523Y-69203866D01*
X178309523Y-69203866D02*
X178309523Y-68965771D01*
X178309523Y-68965771D02*
X178261904Y-68775295D01*
X178261904Y-68775295D02*
X178214285Y-68680057D01*
X178214285Y-68680057D02*
X178166666Y-68632438D01*
X178166666Y-68632438D02*
X178071428Y-68584819D01*
X129551904Y-69364819D02*
X129551904Y-70174342D01*
X129551904Y-70174342D02*
X129504285Y-70269580D01*
X129504285Y-70269580D02*
X129456666Y-70317200D01*
X129456666Y-70317200D02*
X129361428Y-70364819D01*
X129361428Y-70364819D02*
X129170952Y-70364819D01*
X129170952Y-70364819D02*
X129075714Y-70317200D01*
X129075714Y-70317200D02*
X129028095Y-70269580D01*
X129028095Y-70269580D02*
X128980476Y-70174342D01*
X128980476Y-70174342D02*
X128980476Y-69364819D01*
X128361428Y-69793390D02*
X128456666Y-69745771D01*
X128456666Y-69745771D02*
X128504285Y-69698152D01*
X128504285Y-69698152D02*
X128551904Y-69602914D01*
X128551904Y-69602914D02*
X128551904Y-69555295D01*
X128551904Y-69555295D02*
X128504285Y-69460057D01*
X128504285Y-69460057D02*
X128456666Y-69412438D01*
X128456666Y-69412438D02*
X128361428Y-69364819D01*
X128361428Y-69364819D02*
X128170952Y-69364819D01*
X128170952Y-69364819D02*
X128075714Y-69412438D01*
X128075714Y-69412438D02*
X128028095Y-69460057D01*
X128028095Y-69460057D02*
X127980476Y-69555295D01*
X127980476Y-69555295D02*
X127980476Y-69602914D01*
X127980476Y-69602914D02*
X128028095Y-69698152D01*
X128028095Y-69698152D02*
X128075714Y-69745771D01*
X128075714Y-69745771D02*
X128170952Y-69793390D01*
X128170952Y-69793390D02*
X128361428Y-69793390D01*
X128361428Y-69793390D02*
X128456666Y-69841009D01*
X128456666Y-69841009D02*
X128504285Y-69888628D01*
X128504285Y-69888628D02*
X128551904Y-69983866D01*
X128551904Y-69983866D02*
X128551904Y-70174342D01*
X128551904Y-70174342D02*
X128504285Y-70269580D01*
X128504285Y-70269580D02*
X128456666Y-70317200D01*
X128456666Y-70317200D02*
X128361428Y-70364819D01*
X128361428Y-70364819D02*
X128170952Y-70364819D01*
X128170952Y-70364819D02*
X128075714Y-70317200D01*
X128075714Y-70317200D02*
X128028095Y-70269580D01*
X128028095Y-70269580D02*
X127980476Y-70174342D01*
X127980476Y-70174342D02*
X127980476Y-69983866D01*
X127980476Y-69983866D02*
X128028095Y-69888628D01*
X128028095Y-69888628D02*
X128075714Y-69841009D01*
X128075714Y-69841009D02*
X128170952Y-69793390D01*
X165686666Y-101419580D02*
X165734285Y-101467200D01*
X165734285Y-101467200D02*
X165877142Y-101514819D01*
X165877142Y-101514819D02*
X165972380Y-101514819D01*
X165972380Y-101514819D02*
X166115237Y-101467200D01*
X166115237Y-101467200D02*
X166210475Y-101371961D01*
X166210475Y-101371961D02*
X166258094Y-101276723D01*
X166258094Y-101276723D02*
X166305713Y-101086247D01*
X166305713Y-101086247D02*
X166305713Y-100943390D01*
X166305713Y-100943390D02*
X166258094Y-100752914D01*
X166258094Y-100752914D02*
X166210475Y-100657676D01*
X166210475Y-100657676D02*
X166115237Y-100562438D01*
X166115237Y-100562438D02*
X165972380Y-100514819D01*
X165972380Y-100514819D02*
X165877142Y-100514819D01*
X165877142Y-100514819D02*
X165734285Y-100562438D01*
X165734285Y-100562438D02*
X165686666Y-100610057D01*
X164829523Y-100514819D02*
X165019999Y-100514819D01*
X165019999Y-100514819D02*
X165115237Y-100562438D01*
X165115237Y-100562438D02*
X165162856Y-100610057D01*
X165162856Y-100610057D02*
X165258094Y-100752914D01*
X165258094Y-100752914D02*
X165305713Y-100943390D01*
X165305713Y-100943390D02*
X165305713Y-101324342D01*
X165305713Y-101324342D02*
X165258094Y-101419580D01*
X165258094Y-101419580D02*
X165210475Y-101467200D01*
X165210475Y-101467200D02*
X165115237Y-101514819D01*
X165115237Y-101514819D02*
X164924761Y-101514819D01*
X164924761Y-101514819D02*
X164829523Y-101467200D01*
X164829523Y-101467200D02*
X164781904Y-101419580D01*
X164781904Y-101419580D02*
X164734285Y-101324342D01*
X164734285Y-101324342D02*
X164734285Y-101086247D01*
X164734285Y-101086247D02*
X164781904Y-100991009D01*
X164781904Y-100991009D02*
X164829523Y-100943390D01*
X164829523Y-100943390D02*
X164924761Y-100895771D01*
X164924761Y-100895771D02*
X165115237Y-100895771D01*
X165115237Y-100895771D02*
X165210475Y-100943390D01*
X165210475Y-100943390D02*
X165258094Y-100991009D01*
X165258094Y-100991009D02*
X165305713Y-101086247D01*
X164182857Y-86579580D02*
X164230476Y-86627200D01*
X164230476Y-86627200D02*
X164373333Y-86674819D01*
X164373333Y-86674819D02*
X164468571Y-86674819D01*
X164468571Y-86674819D02*
X164611428Y-86627200D01*
X164611428Y-86627200D02*
X164706666Y-86531961D01*
X164706666Y-86531961D02*
X164754285Y-86436723D01*
X164754285Y-86436723D02*
X164801904Y-86246247D01*
X164801904Y-86246247D02*
X164801904Y-86103390D01*
X164801904Y-86103390D02*
X164754285Y-85912914D01*
X164754285Y-85912914D02*
X164706666Y-85817676D01*
X164706666Y-85817676D02*
X164611428Y-85722438D01*
X164611428Y-85722438D02*
X164468571Y-85674819D01*
X164468571Y-85674819D02*
X164373333Y-85674819D01*
X164373333Y-85674819D02*
X164230476Y-85722438D01*
X164230476Y-85722438D02*
X164182857Y-85770057D01*
X163230476Y-86674819D02*
X163801904Y-86674819D01*
X163516190Y-86674819D02*
X163516190Y-85674819D01*
X163516190Y-85674819D02*
X163611428Y-85817676D01*
X163611428Y-85817676D02*
X163706666Y-85912914D01*
X163706666Y-85912914D02*
X163801904Y-85960533D01*
X162659047Y-86103390D02*
X162754285Y-86055771D01*
X162754285Y-86055771D02*
X162801904Y-86008152D01*
X162801904Y-86008152D02*
X162849523Y-85912914D01*
X162849523Y-85912914D02*
X162849523Y-85865295D01*
X162849523Y-85865295D02*
X162801904Y-85770057D01*
X162801904Y-85770057D02*
X162754285Y-85722438D01*
X162754285Y-85722438D02*
X162659047Y-85674819D01*
X162659047Y-85674819D02*
X162468571Y-85674819D01*
X162468571Y-85674819D02*
X162373333Y-85722438D01*
X162373333Y-85722438D02*
X162325714Y-85770057D01*
X162325714Y-85770057D02*
X162278095Y-85865295D01*
X162278095Y-85865295D02*
X162278095Y-85912914D01*
X162278095Y-85912914D02*
X162325714Y-86008152D01*
X162325714Y-86008152D02*
X162373333Y-86055771D01*
X162373333Y-86055771D02*
X162468571Y-86103390D01*
X162468571Y-86103390D02*
X162659047Y-86103390D01*
X162659047Y-86103390D02*
X162754285Y-86151009D01*
X162754285Y-86151009D02*
X162801904Y-86198628D01*
X162801904Y-86198628D02*
X162849523Y-86293866D01*
X162849523Y-86293866D02*
X162849523Y-86484342D01*
X162849523Y-86484342D02*
X162801904Y-86579580D01*
X162801904Y-86579580D02*
X162754285Y-86627200D01*
X162754285Y-86627200D02*
X162659047Y-86674819D01*
X162659047Y-86674819D02*
X162468571Y-86674819D01*
X162468571Y-86674819D02*
X162373333Y-86627200D01*
X162373333Y-86627200D02*
X162325714Y-86579580D01*
X162325714Y-86579580D02*
X162278095Y-86484342D01*
X162278095Y-86484342D02*
X162278095Y-86293866D01*
X162278095Y-86293866D02*
X162325714Y-86198628D01*
X162325714Y-86198628D02*
X162373333Y-86151009D01*
X162373333Y-86151009D02*
X162468571Y-86103390D01*
X163292857Y-77294819D02*
X163626190Y-76818628D01*
X163864285Y-77294819D02*
X163864285Y-76294819D01*
X163864285Y-76294819D02*
X163483333Y-76294819D01*
X163483333Y-76294819D02*
X163388095Y-76342438D01*
X163388095Y-76342438D02*
X163340476Y-76390057D01*
X163340476Y-76390057D02*
X163292857Y-76485295D01*
X163292857Y-76485295D02*
X163292857Y-76628152D01*
X163292857Y-76628152D02*
X163340476Y-76723390D01*
X163340476Y-76723390D02*
X163388095Y-76771009D01*
X163388095Y-76771009D02*
X163483333Y-76818628D01*
X163483333Y-76818628D02*
X163864285Y-76818628D01*
X162959523Y-76294819D02*
X162340476Y-76294819D01*
X162340476Y-76294819D02*
X162673809Y-76675771D01*
X162673809Y-76675771D02*
X162530952Y-76675771D01*
X162530952Y-76675771D02*
X162435714Y-76723390D01*
X162435714Y-76723390D02*
X162388095Y-76771009D01*
X162388095Y-76771009D02*
X162340476Y-76866247D01*
X162340476Y-76866247D02*
X162340476Y-77104342D01*
X162340476Y-77104342D02*
X162388095Y-77199580D01*
X162388095Y-77199580D02*
X162435714Y-77247200D01*
X162435714Y-77247200D02*
X162530952Y-77294819D01*
X162530952Y-77294819D02*
X162816666Y-77294819D01*
X162816666Y-77294819D02*
X162911904Y-77247200D01*
X162911904Y-77247200D02*
X162959523Y-77199580D01*
X161959523Y-76390057D02*
X161911904Y-76342438D01*
X161911904Y-76342438D02*
X161816666Y-76294819D01*
X161816666Y-76294819D02*
X161578571Y-76294819D01*
X161578571Y-76294819D02*
X161483333Y-76342438D01*
X161483333Y-76342438D02*
X161435714Y-76390057D01*
X161435714Y-76390057D02*
X161388095Y-76485295D01*
X161388095Y-76485295D02*
X161388095Y-76580533D01*
X161388095Y-76580533D02*
X161435714Y-76723390D01*
X161435714Y-76723390D02*
X162007142Y-77294819D01*
X162007142Y-77294819D02*
X161388095Y-77294819D01*
X163056666Y-101329580D02*
X163104285Y-101377200D01*
X163104285Y-101377200D02*
X163247142Y-101424819D01*
X163247142Y-101424819D02*
X163342380Y-101424819D01*
X163342380Y-101424819D02*
X163485237Y-101377200D01*
X163485237Y-101377200D02*
X163580475Y-101281961D01*
X163580475Y-101281961D02*
X163628094Y-101186723D01*
X163628094Y-101186723D02*
X163675713Y-100996247D01*
X163675713Y-100996247D02*
X163675713Y-100853390D01*
X163675713Y-100853390D02*
X163628094Y-100662914D01*
X163628094Y-100662914D02*
X163580475Y-100567676D01*
X163580475Y-100567676D02*
X163485237Y-100472438D01*
X163485237Y-100472438D02*
X163342380Y-100424819D01*
X163342380Y-100424819D02*
X163247142Y-100424819D01*
X163247142Y-100424819D02*
X163104285Y-100472438D01*
X163104285Y-100472438D02*
X163056666Y-100520057D01*
X162199523Y-100758152D02*
X162199523Y-101424819D01*
X162437618Y-100377200D02*
X162675713Y-101091485D01*
X162675713Y-101091485D02*
X162056666Y-101091485D01*
X155192857Y-71709580D02*
X155240476Y-71757200D01*
X155240476Y-71757200D02*
X155383333Y-71804819D01*
X155383333Y-71804819D02*
X155478571Y-71804819D01*
X155478571Y-71804819D02*
X155621428Y-71757200D01*
X155621428Y-71757200D02*
X155716666Y-71661961D01*
X155716666Y-71661961D02*
X155764285Y-71566723D01*
X155764285Y-71566723D02*
X155811904Y-71376247D01*
X155811904Y-71376247D02*
X155811904Y-71233390D01*
X155811904Y-71233390D02*
X155764285Y-71042914D01*
X155764285Y-71042914D02*
X155716666Y-70947676D01*
X155716666Y-70947676D02*
X155621428Y-70852438D01*
X155621428Y-70852438D02*
X155478571Y-70804819D01*
X155478571Y-70804819D02*
X155383333Y-70804819D01*
X155383333Y-70804819D02*
X155240476Y-70852438D01*
X155240476Y-70852438D02*
X155192857Y-70900057D01*
X154859523Y-70804819D02*
X154240476Y-70804819D01*
X154240476Y-70804819D02*
X154573809Y-71185771D01*
X154573809Y-71185771D02*
X154430952Y-71185771D01*
X154430952Y-71185771D02*
X154335714Y-71233390D01*
X154335714Y-71233390D02*
X154288095Y-71281009D01*
X154288095Y-71281009D02*
X154240476Y-71376247D01*
X154240476Y-71376247D02*
X154240476Y-71614342D01*
X154240476Y-71614342D02*
X154288095Y-71709580D01*
X154288095Y-71709580D02*
X154335714Y-71757200D01*
X154335714Y-71757200D02*
X154430952Y-71804819D01*
X154430952Y-71804819D02*
X154716666Y-71804819D01*
X154716666Y-71804819D02*
X154811904Y-71757200D01*
X154811904Y-71757200D02*
X154859523Y-71709580D01*
X153621428Y-70804819D02*
X153526190Y-70804819D01*
X153526190Y-70804819D02*
X153430952Y-70852438D01*
X153430952Y-70852438D02*
X153383333Y-70900057D01*
X153383333Y-70900057D02*
X153335714Y-70995295D01*
X153335714Y-70995295D02*
X153288095Y-71185771D01*
X153288095Y-71185771D02*
X153288095Y-71423866D01*
X153288095Y-71423866D02*
X153335714Y-71614342D01*
X153335714Y-71614342D02*
X153383333Y-71709580D01*
X153383333Y-71709580D02*
X153430952Y-71757200D01*
X153430952Y-71757200D02*
X153526190Y-71804819D01*
X153526190Y-71804819D02*
X153621428Y-71804819D01*
X153621428Y-71804819D02*
X153716666Y-71757200D01*
X153716666Y-71757200D02*
X153764285Y-71709580D01*
X153764285Y-71709580D02*
X153811904Y-71614342D01*
X153811904Y-71614342D02*
X153859523Y-71423866D01*
X153859523Y-71423866D02*
X153859523Y-71185771D01*
X153859523Y-71185771D02*
X153811904Y-70995295D01*
X153811904Y-70995295D02*
X153764285Y-70900057D01*
X153764285Y-70900057D02*
X153716666Y-70852438D01*
X153716666Y-70852438D02*
X153621428Y-70804819D01*
X173071904Y-97584819D02*
X173071904Y-98394342D01*
X173071904Y-98394342D02*
X173024285Y-98489580D01*
X173024285Y-98489580D02*
X172976666Y-98537200D01*
X172976666Y-98537200D02*
X172881428Y-98584819D01*
X172881428Y-98584819D02*
X172690952Y-98584819D01*
X172690952Y-98584819D02*
X172595714Y-98537200D01*
X172595714Y-98537200D02*
X172548095Y-98489580D01*
X172548095Y-98489580D02*
X172500476Y-98394342D01*
X172500476Y-98394342D02*
X172500476Y-97584819D01*
X172119523Y-97584819D02*
X171500476Y-97584819D01*
X171500476Y-97584819D02*
X171833809Y-97965771D01*
X171833809Y-97965771D02*
X171690952Y-97965771D01*
X171690952Y-97965771D02*
X171595714Y-98013390D01*
X171595714Y-98013390D02*
X171548095Y-98061009D01*
X171548095Y-98061009D02*
X171500476Y-98156247D01*
X171500476Y-98156247D02*
X171500476Y-98394342D01*
X171500476Y-98394342D02*
X171548095Y-98489580D01*
X171548095Y-98489580D02*
X171595714Y-98537200D01*
X171595714Y-98537200D02*
X171690952Y-98584819D01*
X171690952Y-98584819D02*
X171976666Y-98584819D01*
X171976666Y-98584819D02*
X172071904Y-98537200D01*
X172071904Y-98537200D02*
X172119523Y-98489580D01*
X153602857Y-80064819D02*
X153936190Y-79588628D01*
X154174285Y-80064819D02*
X154174285Y-79064819D01*
X154174285Y-79064819D02*
X153793333Y-79064819D01*
X153793333Y-79064819D02*
X153698095Y-79112438D01*
X153698095Y-79112438D02*
X153650476Y-79160057D01*
X153650476Y-79160057D02*
X153602857Y-79255295D01*
X153602857Y-79255295D02*
X153602857Y-79398152D01*
X153602857Y-79398152D02*
X153650476Y-79493390D01*
X153650476Y-79493390D02*
X153698095Y-79541009D01*
X153698095Y-79541009D02*
X153793333Y-79588628D01*
X153793333Y-79588628D02*
X154174285Y-79588628D01*
X153269523Y-79064819D02*
X152650476Y-79064819D01*
X152650476Y-79064819D02*
X152983809Y-79445771D01*
X152983809Y-79445771D02*
X152840952Y-79445771D01*
X152840952Y-79445771D02*
X152745714Y-79493390D01*
X152745714Y-79493390D02*
X152698095Y-79541009D01*
X152698095Y-79541009D02*
X152650476Y-79636247D01*
X152650476Y-79636247D02*
X152650476Y-79874342D01*
X152650476Y-79874342D02*
X152698095Y-79969580D01*
X152698095Y-79969580D02*
X152745714Y-80017200D01*
X152745714Y-80017200D02*
X152840952Y-80064819D01*
X152840952Y-80064819D02*
X153126666Y-80064819D01*
X153126666Y-80064819D02*
X153221904Y-80017200D01*
X153221904Y-80017200D02*
X153269523Y-79969580D01*
X151745714Y-79064819D02*
X152221904Y-79064819D01*
X152221904Y-79064819D02*
X152269523Y-79541009D01*
X152269523Y-79541009D02*
X152221904Y-79493390D01*
X152221904Y-79493390D02*
X152126666Y-79445771D01*
X152126666Y-79445771D02*
X151888571Y-79445771D01*
X151888571Y-79445771D02*
X151793333Y-79493390D01*
X151793333Y-79493390D02*
X151745714Y-79541009D01*
X151745714Y-79541009D02*
X151698095Y-79636247D01*
X151698095Y-79636247D02*
X151698095Y-79874342D01*
X151698095Y-79874342D02*
X151745714Y-79969580D01*
X151745714Y-79969580D02*
X151793333Y-80017200D01*
X151793333Y-80017200D02*
X151888571Y-80064819D01*
X151888571Y-80064819D02*
X152126666Y-80064819D01*
X152126666Y-80064819D02*
X152221904Y-80017200D01*
X152221904Y-80017200D02*
X152269523Y-79969580D01*
X172612857Y-68509580D02*
X172660476Y-68557200D01*
X172660476Y-68557200D02*
X172803333Y-68604819D01*
X172803333Y-68604819D02*
X172898571Y-68604819D01*
X172898571Y-68604819D02*
X173041428Y-68557200D01*
X173041428Y-68557200D02*
X173136666Y-68461961D01*
X173136666Y-68461961D02*
X173184285Y-68366723D01*
X173184285Y-68366723D02*
X173231904Y-68176247D01*
X173231904Y-68176247D02*
X173231904Y-68033390D01*
X173231904Y-68033390D02*
X173184285Y-67842914D01*
X173184285Y-67842914D02*
X173136666Y-67747676D01*
X173136666Y-67747676D02*
X173041428Y-67652438D01*
X173041428Y-67652438D02*
X172898571Y-67604819D01*
X172898571Y-67604819D02*
X172803333Y-67604819D01*
X172803333Y-67604819D02*
X172660476Y-67652438D01*
X172660476Y-67652438D02*
X172612857Y-67700057D01*
X172231904Y-67700057D02*
X172184285Y-67652438D01*
X172184285Y-67652438D02*
X172089047Y-67604819D01*
X172089047Y-67604819D02*
X171850952Y-67604819D01*
X171850952Y-67604819D02*
X171755714Y-67652438D01*
X171755714Y-67652438D02*
X171708095Y-67700057D01*
X171708095Y-67700057D02*
X171660476Y-67795295D01*
X171660476Y-67795295D02*
X171660476Y-67890533D01*
X171660476Y-67890533D02*
X171708095Y-68033390D01*
X171708095Y-68033390D02*
X172279523Y-68604819D01*
X172279523Y-68604819D02*
X171660476Y-68604819D01*
X170708095Y-68604819D02*
X171279523Y-68604819D01*
X170993809Y-68604819D02*
X170993809Y-67604819D01*
X170993809Y-67604819D02*
X171089047Y-67747676D01*
X171089047Y-67747676D02*
X171184285Y-67842914D01*
X171184285Y-67842914D02*
X171279523Y-67890533D01*
X175268094Y-63774819D02*
X175268094Y-62774819D01*
X175268094Y-62774819D02*
X175029999Y-62774819D01*
X175029999Y-62774819D02*
X174887142Y-62822438D01*
X174887142Y-62822438D02*
X174791904Y-62917676D01*
X174791904Y-62917676D02*
X174744285Y-63012914D01*
X174744285Y-63012914D02*
X174696666Y-63203390D01*
X174696666Y-63203390D02*
X174696666Y-63346247D01*
X174696666Y-63346247D02*
X174744285Y-63536723D01*
X174744285Y-63536723D02*
X174791904Y-63631961D01*
X174791904Y-63631961D02*
X174887142Y-63727200D01*
X174887142Y-63727200D02*
X175029999Y-63774819D01*
X175029999Y-63774819D02*
X175268094Y-63774819D01*
X174363332Y-62774819D02*
X173744285Y-62774819D01*
X173744285Y-62774819D02*
X174077618Y-63155771D01*
X174077618Y-63155771D02*
X173934761Y-63155771D01*
X173934761Y-63155771D02*
X173839523Y-63203390D01*
X173839523Y-63203390D02*
X173791904Y-63251009D01*
X173791904Y-63251009D02*
X173744285Y-63346247D01*
X173744285Y-63346247D02*
X173744285Y-63584342D01*
X173744285Y-63584342D02*
X173791904Y-63679580D01*
X173791904Y-63679580D02*
X173839523Y-63727200D01*
X173839523Y-63727200D02*
X173934761Y-63774819D01*
X173934761Y-63774819D02*
X174220475Y-63774819D01*
X174220475Y-63774819D02*
X174315713Y-63727200D01*
X174315713Y-63727200D02*
X174363332Y-63679580D01*
X147474819Y-102498095D02*
X148284342Y-102498095D01*
X148284342Y-102498095D02*
X148379580Y-102545714D01*
X148379580Y-102545714D02*
X148427200Y-102593333D01*
X148427200Y-102593333D02*
X148474819Y-102688571D01*
X148474819Y-102688571D02*
X148474819Y-102879047D01*
X148474819Y-102879047D02*
X148427200Y-102974285D01*
X148427200Y-102974285D02*
X148379580Y-103021904D01*
X148379580Y-103021904D02*
X148284342Y-103069523D01*
X148284342Y-103069523D02*
X147474819Y-103069523D01*
X147474819Y-104021904D02*
X147474819Y-103545714D01*
X147474819Y-103545714D02*
X147951009Y-103498095D01*
X147951009Y-103498095D02*
X147903390Y-103545714D01*
X147903390Y-103545714D02*
X147855771Y-103640952D01*
X147855771Y-103640952D02*
X147855771Y-103879047D01*
X147855771Y-103879047D02*
X147903390Y-103974285D01*
X147903390Y-103974285D02*
X147951009Y-104021904D01*
X147951009Y-104021904D02*
X148046247Y-104069523D01*
X148046247Y-104069523D02*
X148284342Y-104069523D01*
X148284342Y-104069523D02*
X148379580Y-104021904D01*
X148379580Y-104021904D02*
X148427200Y-103974285D01*
X148427200Y-103974285D02*
X148474819Y-103879047D01*
X148474819Y-103879047D02*
X148474819Y-103640952D01*
X148474819Y-103640952D02*
X148427200Y-103545714D01*
X148427200Y-103545714D02*
X148379580Y-103498095D01*
X173742857Y-78569580D02*
X173790476Y-78617200D01*
X173790476Y-78617200D02*
X173933333Y-78664819D01*
X173933333Y-78664819D02*
X174028571Y-78664819D01*
X174028571Y-78664819D02*
X174171428Y-78617200D01*
X174171428Y-78617200D02*
X174266666Y-78521961D01*
X174266666Y-78521961D02*
X174314285Y-78426723D01*
X174314285Y-78426723D02*
X174361904Y-78236247D01*
X174361904Y-78236247D02*
X174361904Y-78093390D01*
X174361904Y-78093390D02*
X174314285Y-77902914D01*
X174314285Y-77902914D02*
X174266666Y-77807676D01*
X174266666Y-77807676D02*
X174171428Y-77712438D01*
X174171428Y-77712438D02*
X174028571Y-77664819D01*
X174028571Y-77664819D02*
X173933333Y-77664819D01*
X173933333Y-77664819D02*
X173790476Y-77712438D01*
X173790476Y-77712438D02*
X173742857Y-77760057D01*
X172790476Y-78664819D02*
X173361904Y-78664819D01*
X173076190Y-78664819D02*
X173076190Y-77664819D01*
X173076190Y-77664819D02*
X173171428Y-77807676D01*
X173171428Y-77807676D02*
X173266666Y-77902914D01*
X173266666Y-77902914D02*
X173361904Y-77950533D01*
X171885714Y-77664819D02*
X172361904Y-77664819D01*
X172361904Y-77664819D02*
X172409523Y-78141009D01*
X172409523Y-78141009D02*
X172361904Y-78093390D01*
X172361904Y-78093390D02*
X172266666Y-78045771D01*
X172266666Y-78045771D02*
X172028571Y-78045771D01*
X172028571Y-78045771D02*
X171933333Y-78093390D01*
X171933333Y-78093390D02*
X171885714Y-78141009D01*
X171885714Y-78141009D02*
X171838095Y-78236247D01*
X171838095Y-78236247D02*
X171838095Y-78474342D01*
X171838095Y-78474342D02*
X171885714Y-78569580D01*
X171885714Y-78569580D02*
X171933333Y-78617200D01*
X171933333Y-78617200D02*
X172028571Y-78664819D01*
X172028571Y-78664819D02*
X172266666Y-78664819D01*
X172266666Y-78664819D02*
X172361904Y-78617200D01*
X172361904Y-78617200D02*
X172409523Y-78569580D01*
X168656666Y-94209580D02*
X168704285Y-94257200D01*
X168704285Y-94257200D02*
X168847142Y-94304819D01*
X168847142Y-94304819D02*
X168942380Y-94304819D01*
X168942380Y-94304819D02*
X169085237Y-94257200D01*
X169085237Y-94257200D02*
X169180475Y-94161961D01*
X169180475Y-94161961D02*
X169228094Y-94066723D01*
X169228094Y-94066723D02*
X169275713Y-93876247D01*
X169275713Y-93876247D02*
X169275713Y-93733390D01*
X169275713Y-93733390D02*
X169228094Y-93542914D01*
X169228094Y-93542914D02*
X169180475Y-93447676D01*
X169180475Y-93447676D02*
X169085237Y-93352438D01*
X169085237Y-93352438D02*
X168942380Y-93304819D01*
X168942380Y-93304819D02*
X168847142Y-93304819D01*
X168847142Y-93304819D02*
X168704285Y-93352438D01*
X168704285Y-93352438D02*
X168656666Y-93400057D01*
X168323332Y-93304819D02*
X167704285Y-93304819D01*
X167704285Y-93304819D02*
X168037618Y-93685771D01*
X168037618Y-93685771D02*
X167894761Y-93685771D01*
X167894761Y-93685771D02*
X167799523Y-93733390D01*
X167799523Y-93733390D02*
X167751904Y-93781009D01*
X167751904Y-93781009D02*
X167704285Y-93876247D01*
X167704285Y-93876247D02*
X167704285Y-94114342D01*
X167704285Y-94114342D02*
X167751904Y-94209580D01*
X167751904Y-94209580D02*
X167799523Y-94257200D01*
X167799523Y-94257200D02*
X167894761Y-94304819D01*
X167894761Y-94304819D02*
X168180475Y-94304819D01*
X168180475Y-94304819D02*
X168275713Y-94257200D01*
X168275713Y-94257200D02*
X168323332Y-94209580D01*
X172266666Y-93909580D02*
X172314285Y-93957200D01*
X172314285Y-93957200D02*
X172457142Y-94004819D01*
X172457142Y-94004819D02*
X172552380Y-94004819D01*
X172552380Y-94004819D02*
X172695237Y-93957200D01*
X172695237Y-93957200D02*
X172790475Y-93861961D01*
X172790475Y-93861961D02*
X172838094Y-93766723D01*
X172838094Y-93766723D02*
X172885713Y-93576247D01*
X172885713Y-93576247D02*
X172885713Y-93433390D01*
X172885713Y-93433390D02*
X172838094Y-93242914D01*
X172838094Y-93242914D02*
X172790475Y-93147676D01*
X172790475Y-93147676D02*
X172695237Y-93052438D01*
X172695237Y-93052438D02*
X172552380Y-93004819D01*
X172552380Y-93004819D02*
X172457142Y-93004819D01*
X172457142Y-93004819D02*
X172314285Y-93052438D01*
X172314285Y-93052438D02*
X172266666Y-93100057D01*
X171314285Y-94004819D02*
X171885713Y-94004819D01*
X171599999Y-94004819D02*
X171599999Y-93004819D01*
X171599999Y-93004819D02*
X171695237Y-93147676D01*
X171695237Y-93147676D02*
X171790475Y-93242914D01*
X171790475Y-93242914D02*
X171885713Y-93290533D01*
X110182857Y-80524819D02*
X110516190Y-80048628D01*
X110754285Y-80524819D02*
X110754285Y-79524819D01*
X110754285Y-79524819D02*
X110373333Y-79524819D01*
X110373333Y-79524819D02*
X110278095Y-79572438D01*
X110278095Y-79572438D02*
X110230476Y-79620057D01*
X110230476Y-79620057D02*
X110182857Y-79715295D01*
X110182857Y-79715295D02*
X110182857Y-79858152D01*
X110182857Y-79858152D02*
X110230476Y-79953390D01*
X110230476Y-79953390D02*
X110278095Y-80001009D01*
X110278095Y-80001009D02*
X110373333Y-80048628D01*
X110373333Y-80048628D02*
X110754285Y-80048628D01*
X109230476Y-80524819D02*
X109801904Y-80524819D01*
X109516190Y-80524819D02*
X109516190Y-79524819D01*
X109516190Y-79524819D02*
X109611428Y-79667676D01*
X109611428Y-79667676D02*
X109706666Y-79762914D01*
X109706666Y-79762914D02*
X109801904Y-79810533D01*
X108278095Y-80524819D02*
X108849523Y-80524819D01*
X108563809Y-80524819D02*
X108563809Y-79524819D01*
X108563809Y-79524819D02*
X108659047Y-79667676D01*
X108659047Y-79667676D02*
X108754285Y-79762914D01*
X108754285Y-79762914D02*
X108849523Y-79810533D01*
X121436666Y-76954819D02*
X121769999Y-76478628D01*
X122008094Y-76954819D02*
X122008094Y-75954819D01*
X122008094Y-75954819D02*
X121627142Y-75954819D01*
X121627142Y-75954819D02*
X121531904Y-76002438D01*
X121531904Y-76002438D02*
X121484285Y-76050057D01*
X121484285Y-76050057D02*
X121436666Y-76145295D01*
X121436666Y-76145295D02*
X121436666Y-76288152D01*
X121436666Y-76288152D02*
X121484285Y-76383390D01*
X121484285Y-76383390D02*
X121531904Y-76431009D01*
X121531904Y-76431009D02*
X121627142Y-76478628D01*
X121627142Y-76478628D02*
X122008094Y-76478628D01*
X120579523Y-76288152D02*
X120579523Y-76954819D01*
X120817618Y-75907200D02*
X121055713Y-76621485D01*
X121055713Y-76621485D02*
X120436666Y-76621485D01*
X172822857Y-80114819D02*
X173156190Y-79638628D01*
X173394285Y-80114819D02*
X173394285Y-79114819D01*
X173394285Y-79114819D02*
X173013333Y-79114819D01*
X173013333Y-79114819D02*
X172918095Y-79162438D01*
X172918095Y-79162438D02*
X172870476Y-79210057D01*
X172870476Y-79210057D02*
X172822857Y-79305295D01*
X172822857Y-79305295D02*
X172822857Y-79448152D01*
X172822857Y-79448152D02*
X172870476Y-79543390D01*
X172870476Y-79543390D02*
X172918095Y-79591009D01*
X172918095Y-79591009D02*
X173013333Y-79638628D01*
X173013333Y-79638628D02*
X173394285Y-79638628D01*
X171870476Y-80114819D02*
X172441904Y-80114819D01*
X172156190Y-80114819D02*
X172156190Y-79114819D01*
X172156190Y-79114819D02*
X172251428Y-79257676D01*
X172251428Y-79257676D02*
X172346666Y-79352914D01*
X172346666Y-79352914D02*
X172441904Y-79400533D01*
X171537142Y-79114819D02*
X170918095Y-79114819D01*
X170918095Y-79114819D02*
X171251428Y-79495771D01*
X171251428Y-79495771D02*
X171108571Y-79495771D01*
X171108571Y-79495771D02*
X171013333Y-79543390D01*
X171013333Y-79543390D02*
X170965714Y-79591009D01*
X170965714Y-79591009D02*
X170918095Y-79686247D01*
X170918095Y-79686247D02*
X170918095Y-79924342D01*
X170918095Y-79924342D02*
X170965714Y-80019580D01*
X170965714Y-80019580D02*
X171013333Y-80067200D01*
X171013333Y-80067200D02*
X171108571Y-80114819D01*
X171108571Y-80114819D02*
X171394285Y-80114819D01*
X171394285Y-80114819D02*
X171489523Y-80067200D01*
X171489523Y-80067200D02*
X171537142Y-80019580D01*
X172612857Y-70479580D02*
X172660476Y-70527200D01*
X172660476Y-70527200D02*
X172803333Y-70574819D01*
X172803333Y-70574819D02*
X172898571Y-70574819D01*
X172898571Y-70574819D02*
X173041428Y-70527200D01*
X173041428Y-70527200D02*
X173136666Y-70431961D01*
X173136666Y-70431961D02*
X173184285Y-70336723D01*
X173184285Y-70336723D02*
X173231904Y-70146247D01*
X173231904Y-70146247D02*
X173231904Y-70003390D01*
X173231904Y-70003390D02*
X173184285Y-69812914D01*
X173184285Y-69812914D02*
X173136666Y-69717676D01*
X173136666Y-69717676D02*
X173041428Y-69622438D01*
X173041428Y-69622438D02*
X172898571Y-69574819D01*
X172898571Y-69574819D02*
X172803333Y-69574819D01*
X172803333Y-69574819D02*
X172660476Y-69622438D01*
X172660476Y-69622438D02*
X172612857Y-69670057D01*
X172231904Y-69670057D02*
X172184285Y-69622438D01*
X172184285Y-69622438D02*
X172089047Y-69574819D01*
X172089047Y-69574819D02*
X171850952Y-69574819D01*
X171850952Y-69574819D02*
X171755714Y-69622438D01*
X171755714Y-69622438D02*
X171708095Y-69670057D01*
X171708095Y-69670057D02*
X171660476Y-69765295D01*
X171660476Y-69765295D02*
X171660476Y-69860533D01*
X171660476Y-69860533D02*
X171708095Y-70003390D01*
X171708095Y-70003390D02*
X172279523Y-70574819D01*
X172279523Y-70574819D02*
X171660476Y-70574819D01*
X171327142Y-69574819D02*
X170708095Y-69574819D01*
X170708095Y-69574819D02*
X171041428Y-69955771D01*
X171041428Y-69955771D02*
X170898571Y-69955771D01*
X170898571Y-69955771D02*
X170803333Y-70003390D01*
X170803333Y-70003390D02*
X170755714Y-70051009D01*
X170755714Y-70051009D02*
X170708095Y-70146247D01*
X170708095Y-70146247D02*
X170708095Y-70384342D01*
X170708095Y-70384342D02*
X170755714Y-70479580D01*
X170755714Y-70479580D02*
X170803333Y-70527200D01*
X170803333Y-70527200D02*
X170898571Y-70574819D01*
X170898571Y-70574819D02*
X171184285Y-70574819D01*
X171184285Y-70574819D02*
X171279523Y-70527200D01*
X171279523Y-70527200D02*
X171327142Y-70479580D01*
X176572857Y-85579580D02*
X176620476Y-85627200D01*
X176620476Y-85627200D02*
X176763333Y-85674819D01*
X176763333Y-85674819D02*
X176858571Y-85674819D01*
X176858571Y-85674819D02*
X177001428Y-85627200D01*
X177001428Y-85627200D02*
X177096666Y-85531961D01*
X177096666Y-85531961D02*
X177144285Y-85436723D01*
X177144285Y-85436723D02*
X177191904Y-85246247D01*
X177191904Y-85246247D02*
X177191904Y-85103390D01*
X177191904Y-85103390D02*
X177144285Y-84912914D01*
X177144285Y-84912914D02*
X177096666Y-84817676D01*
X177096666Y-84817676D02*
X177001428Y-84722438D01*
X177001428Y-84722438D02*
X176858571Y-84674819D01*
X176858571Y-84674819D02*
X176763333Y-84674819D01*
X176763333Y-84674819D02*
X176620476Y-84722438D01*
X176620476Y-84722438D02*
X176572857Y-84770057D01*
X175620476Y-85674819D02*
X176191904Y-85674819D01*
X175906190Y-85674819D02*
X175906190Y-84674819D01*
X175906190Y-84674819D02*
X176001428Y-84817676D01*
X176001428Y-84817676D02*
X176096666Y-84912914D01*
X176096666Y-84912914D02*
X176191904Y-84960533D01*
X174763333Y-84674819D02*
X174953809Y-84674819D01*
X174953809Y-84674819D02*
X175049047Y-84722438D01*
X175049047Y-84722438D02*
X175096666Y-84770057D01*
X175096666Y-84770057D02*
X175191904Y-84912914D01*
X175191904Y-84912914D02*
X175239523Y-85103390D01*
X175239523Y-85103390D02*
X175239523Y-85484342D01*
X175239523Y-85484342D02*
X175191904Y-85579580D01*
X175191904Y-85579580D02*
X175144285Y-85627200D01*
X175144285Y-85627200D02*
X175049047Y-85674819D01*
X175049047Y-85674819D02*
X174858571Y-85674819D01*
X174858571Y-85674819D02*
X174763333Y-85627200D01*
X174763333Y-85627200D02*
X174715714Y-85579580D01*
X174715714Y-85579580D02*
X174668095Y-85484342D01*
X174668095Y-85484342D02*
X174668095Y-85246247D01*
X174668095Y-85246247D02*
X174715714Y-85151009D01*
X174715714Y-85151009D02*
X174763333Y-85103390D01*
X174763333Y-85103390D02*
X174858571Y-85055771D01*
X174858571Y-85055771D02*
X175049047Y-85055771D01*
X175049047Y-85055771D02*
X175144285Y-85103390D01*
X175144285Y-85103390D02*
X175191904Y-85151009D01*
X175191904Y-85151009D02*
X175239523Y-85246247D01*
X131902857Y-97379580D02*
X131950476Y-97427200D01*
X131950476Y-97427200D02*
X132093333Y-97474819D01*
X132093333Y-97474819D02*
X132188571Y-97474819D01*
X132188571Y-97474819D02*
X132331428Y-97427200D01*
X132331428Y-97427200D02*
X132426666Y-97331961D01*
X132426666Y-97331961D02*
X132474285Y-97236723D01*
X132474285Y-97236723D02*
X132521904Y-97046247D01*
X132521904Y-97046247D02*
X132521904Y-96903390D01*
X132521904Y-96903390D02*
X132474285Y-96712914D01*
X132474285Y-96712914D02*
X132426666Y-96617676D01*
X132426666Y-96617676D02*
X132331428Y-96522438D01*
X132331428Y-96522438D02*
X132188571Y-96474819D01*
X132188571Y-96474819D02*
X132093333Y-96474819D01*
X132093333Y-96474819D02*
X131950476Y-96522438D01*
X131950476Y-96522438D02*
X131902857Y-96570057D01*
X130950476Y-97474819D02*
X131521904Y-97474819D01*
X131236190Y-97474819D02*
X131236190Y-96474819D01*
X131236190Y-96474819D02*
X131331428Y-96617676D01*
X131331428Y-96617676D02*
X131426666Y-96712914D01*
X131426666Y-96712914D02*
X131521904Y-96760533D01*
X129998095Y-97474819D02*
X130569523Y-97474819D01*
X130283809Y-97474819D02*
X130283809Y-96474819D01*
X130283809Y-96474819D02*
X130379047Y-96617676D01*
X130379047Y-96617676D02*
X130474285Y-96712914D01*
X130474285Y-96712914D02*
X130569523Y-96760533D01*
X107582857Y-82784819D02*
X107916190Y-82308628D01*
X108154285Y-82784819D02*
X108154285Y-81784819D01*
X108154285Y-81784819D02*
X107773333Y-81784819D01*
X107773333Y-81784819D02*
X107678095Y-81832438D01*
X107678095Y-81832438D02*
X107630476Y-81880057D01*
X107630476Y-81880057D02*
X107582857Y-81975295D01*
X107582857Y-81975295D02*
X107582857Y-82118152D01*
X107582857Y-82118152D02*
X107630476Y-82213390D01*
X107630476Y-82213390D02*
X107678095Y-82261009D01*
X107678095Y-82261009D02*
X107773333Y-82308628D01*
X107773333Y-82308628D02*
X108154285Y-82308628D01*
X106630476Y-82784819D02*
X107201904Y-82784819D01*
X106916190Y-82784819D02*
X106916190Y-81784819D01*
X106916190Y-81784819D02*
X107011428Y-81927676D01*
X107011428Y-81927676D02*
X107106666Y-82022914D01*
X107106666Y-82022914D02*
X107201904Y-82070533D01*
X106011428Y-81784819D02*
X105916190Y-81784819D01*
X105916190Y-81784819D02*
X105820952Y-81832438D01*
X105820952Y-81832438D02*
X105773333Y-81880057D01*
X105773333Y-81880057D02*
X105725714Y-81975295D01*
X105725714Y-81975295D02*
X105678095Y-82165771D01*
X105678095Y-82165771D02*
X105678095Y-82403866D01*
X105678095Y-82403866D02*
X105725714Y-82594342D01*
X105725714Y-82594342D02*
X105773333Y-82689580D01*
X105773333Y-82689580D02*
X105820952Y-82737200D01*
X105820952Y-82737200D02*
X105916190Y-82784819D01*
X105916190Y-82784819D02*
X106011428Y-82784819D01*
X106011428Y-82784819D02*
X106106666Y-82737200D01*
X106106666Y-82737200D02*
X106154285Y-82689580D01*
X106154285Y-82689580D02*
X106201904Y-82594342D01*
X106201904Y-82594342D02*
X106249523Y-82403866D01*
X106249523Y-82403866D02*
X106249523Y-82165771D01*
X106249523Y-82165771D02*
X106201904Y-81975295D01*
X106201904Y-81975295D02*
X106154285Y-81880057D01*
X106154285Y-81880057D02*
X106106666Y-81832438D01*
X106106666Y-81832438D02*
X106011428Y-81784819D01*
X137086666Y-96709580D02*
X137134285Y-96757200D01*
X137134285Y-96757200D02*
X137277142Y-96804819D01*
X137277142Y-96804819D02*
X137372380Y-96804819D01*
X137372380Y-96804819D02*
X137515237Y-96757200D01*
X137515237Y-96757200D02*
X137610475Y-96661961D01*
X137610475Y-96661961D02*
X137658094Y-96566723D01*
X137658094Y-96566723D02*
X137705713Y-96376247D01*
X137705713Y-96376247D02*
X137705713Y-96233390D01*
X137705713Y-96233390D02*
X137658094Y-96042914D01*
X137658094Y-96042914D02*
X137610475Y-95947676D01*
X137610475Y-95947676D02*
X137515237Y-95852438D01*
X137515237Y-95852438D02*
X137372380Y-95804819D01*
X137372380Y-95804819D02*
X137277142Y-95804819D01*
X137277142Y-95804819D02*
X137134285Y-95852438D01*
X137134285Y-95852438D02*
X137086666Y-95900057D01*
X136515237Y-96233390D02*
X136610475Y-96185771D01*
X136610475Y-96185771D02*
X136658094Y-96138152D01*
X136658094Y-96138152D02*
X136705713Y-96042914D01*
X136705713Y-96042914D02*
X136705713Y-95995295D01*
X136705713Y-95995295D02*
X136658094Y-95900057D01*
X136658094Y-95900057D02*
X136610475Y-95852438D01*
X136610475Y-95852438D02*
X136515237Y-95804819D01*
X136515237Y-95804819D02*
X136324761Y-95804819D01*
X136324761Y-95804819D02*
X136229523Y-95852438D01*
X136229523Y-95852438D02*
X136181904Y-95900057D01*
X136181904Y-95900057D02*
X136134285Y-95995295D01*
X136134285Y-95995295D02*
X136134285Y-96042914D01*
X136134285Y-96042914D02*
X136181904Y-96138152D01*
X136181904Y-96138152D02*
X136229523Y-96185771D01*
X136229523Y-96185771D02*
X136324761Y-96233390D01*
X136324761Y-96233390D02*
X136515237Y-96233390D01*
X136515237Y-96233390D02*
X136610475Y-96281009D01*
X136610475Y-96281009D02*
X136658094Y-96328628D01*
X136658094Y-96328628D02*
X136705713Y-96423866D01*
X136705713Y-96423866D02*
X136705713Y-96614342D01*
X136705713Y-96614342D02*
X136658094Y-96709580D01*
X136658094Y-96709580D02*
X136610475Y-96757200D01*
X136610475Y-96757200D02*
X136515237Y-96804819D01*
X136515237Y-96804819D02*
X136324761Y-96804819D01*
X136324761Y-96804819D02*
X136229523Y-96757200D01*
X136229523Y-96757200D02*
X136181904Y-96709580D01*
X136181904Y-96709580D02*
X136134285Y-96614342D01*
X136134285Y-96614342D02*
X136134285Y-96423866D01*
X136134285Y-96423866D02*
X136181904Y-96328628D01*
X136181904Y-96328628D02*
X136229523Y-96281009D01*
X136229523Y-96281009D02*
X136324761Y-96233390D01*
X157921904Y-72404819D02*
X157921904Y-73214342D01*
X157921904Y-73214342D02*
X157874285Y-73309580D01*
X157874285Y-73309580D02*
X157826666Y-73357200D01*
X157826666Y-73357200D02*
X157731428Y-73404819D01*
X157731428Y-73404819D02*
X157540952Y-73404819D01*
X157540952Y-73404819D02*
X157445714Y-73357200D01*
X157445714Y-73357200D02*
X157398095Y-73309580D01*
X157398095Y-73309580D02*
X157350476Y-73214342D01*
X157350476Y-73214342D02*
X157350476Y-72404819D01*
X156826666Y-73404819D02*
X156636190Y-73404819D01*
X156636190Y-73404819D02*
X156540952Y-73357200D01*
X156540952Y-73357200D02*
X156493333Y-73309580D01*
X156493333Y-73309580D02*
X156398095Y-73166723D01*
X156398095Y-73166723D02*
X156350476Y-72976247D01*
X156350476Y-72976247D02*
X156350476Y-72595295D01*
X156350476Y-72595295D02*
X156398095Y-72500057D01*
X156398095Y-72500057D02*
X156445714Y-72452438D01*
X156445714Y-72452438D02*
X156540952Y-72404819D01*
X156540952Y-72404819D02*
X156731428Y-72404819D01*
X156731428Y-72404819D02*
X156826666Y-72452438D01*
X156826666Y-72452438D02*
X156874285Y-72500057D01*
X156874285Y-72500057D02*
X156921904Y-72595295D01*
X156921904Y-72595295D02*
X156921904Y-72833390D01*
X156921904Y-72833390D02*
X156874285Y-72928628D01*
X156874285Y-72928628D02*
X156826666Y-72976247D01*
X156826666Y-72976247D02*
X156731428Y-73023866D01*
X156731428Y-73023866D02*
X156540952Y-73023866D01*
X156540952Y-73023866D02*
X156445714Y-72976247D01*
X156445714Y-72976247D02*
X156398095Y-72928628D01*
X156398095Y-72928628D02*
X156350476Y-72833390D01*
X165496666Y-103004819D02*
X165829999Y-102528628D01*
X166068094Y-103004819D02*
X166068094Y-102004819D01*
X166068094Y-102004819D02*
X165687142Y-102004819D01*
X165687142Y-102004819D02*
X165591904Y-102052438D01*
X165591904Y-102052438D02*
X165544285Y-102100057D01*
X165544285Y-102100057D02*
X165496666Y-102195295D01*
X165496666Y-102195295D02*
X165496666Y-102338152D01*
X165496666Y-102338152D02*
X165544285Y-102433390D01*
X165544285Y-102433390D02*
X165591904Y-102481009D01*
X165591904Y-102481009D02*
X165687142Y-102528628D01*
X165687142Y-102528628D02*
X166068094Y-102528628D01*
X164544285Y-103004819D02*
X165115713Y-103004819D01*
X164829999Y-103004819D02*
X164829999Y-102004819D01*
X164829999Y-102004819D02*
X164925237Y-102147676D01*
X164925237Y-102147676D02*
X165020475Y-102242914D01*
X165020475Y-102242914D02*
X165115713Y-102290533D01*
X150932857Y-95369580D02*
X150980476Y-95417200D01*
X150980476Y-95417200D02*
X151123333Y-95464819D01*
X151123333Y-95464819D02*
X151218571Y-95464819D01*
X151218571Y-95464819D02*
X151361428Y-95417200D01*
X151361428Y-95417200D02*
X151456666Y-95321961D01*
X151456666Y-95321961D02*
X151504285Y-95226723D01*
X151504285Y-95226723D02*
X151551904Y-95036247D01*
X151551904Y-95036247D02*
X151551904Y-94893390D01*
X151551904Y-94893390D02*
X151504285Y-94702914D01*
X151504285Y-94702914D02*
X151456666Y-94607676D01*
X151456666Y-94607676D02*
X151361428Y-94512438D01*
X151361428Y-94512438D02*
X151218571Y-94464819D01*
X151218571Y-94464819D02*
X151123333Y-94464819D01*
X151123333Y-94464819D02*
X150980476Y-94512438D01*
X150980476Y-94512438D02*
X150932857Y-94560057D01*
X149980476Y-95464819D02*
X150551904Y-95464819D01*
X150266190Y-95464819D02*
X150266190Y-94464819D01*
X150266190Y-94464819D02*
X150361428Y-94607676D01*
X150361428Y-94607676D02*
X150456666Y-94702914D01*
X150456666Y-94702914D02*
X150551904Y-94750533D01*
X149647142Y-94464819D02*
X149028095Y-94464819D01*
X149028095Y-94464819D02*
X149361428Y-94845771D01*
X149361428Y-94845771D02*
X149218571Y-94845771D01*
X149218571Y-94845771D02*
X149123333Y-94893390D01*
X149123333Y-94893390D02*
X149075714Y-94941009D01*
X149075714Y-94941009D02*
X149028095Y-95036247D01*
X149028095Y-95036247D02*
X149028095Y-95274342D01*
X149028095Y-95274342D02*
X149075714Y-95369580D01*
X149075714Y-95369580D02*
X149123333Y-95417200D01*
X149123333Y-95417200D02*
X149218571Y-95464819D01*
X149218571Y-95464819D02*
X149504285Y-95464819D01*
X149504285Y-95464819D02*
X149599523Y-95417200D01*
X149599523Y-95417200D02*
X149647142Y-95369580D01*
X179122857Y-81879580D02*
X179170476Y-81927200D01*
X179170476Y-81927200D02*
X179313333Y-81974819D01*
X179313333Y-81974819D02*
X179408571Y-81974819D01*
X179408571Y-81974819D02*
X179551428Y-81927200D01*
X179551428Y-81927200D02*
X179646666Y-81831961D01*
X179646666Y-81831961D02*
X179694285Y-81736723D01*
X179694285Y-81736723D02*
X179741904Y-81546247D01*
X179741904Y-81546247D02*
X179741904Y-81403390D01*
X179741904Y-81403390D02*
X179694285Y-81212914D01*
X179694285Y-81212914D02*
X179646666Y-81117676D01*
X179646666Y-81117676D02*
X179551428Y-81022438D01*
X179551428Y-81022438D02*
X179408571Y-80974819D01*
X179408571Y-80974819D02*
X179313333Y-80974819D01*
X179313333Y-80974819D02*
X179170476Y-81022438D01*
X179170476Y-81022438D02*
X179122857Y-81070057D01*
X178170476Y-81974819D02*
X178741904Y-81974819D01*
X178456190Y-81974819D02*
X178456190Y-80974819D01*
X178456190Y-80974819D02*
X178551428Y-81117676D01*
X178551428Y-81117676D02*
X178646666Y-81212914D01*
X178646666Y-81212914D02*
X178741904Y-81260533D01*
X177313333Y-81308152D02*
X177313333Y-81974819D01*
X177551428Y-80927200D02*
X177789523Y-81641485D01*
X177789523Y-81641485D02*
X177170476Y-81641485D01*
X178346666Y-102834819D02*
X178822856Y-102834819D01*
X178822856Y-102834819D02*
X178822856Y-101834819D01*
X177489523Y-102834819D02*
X178060951Y-102834819D01*
X177775237Y-102834819D02*
X177775237Y-101834819D01*
X177775237Y-101834819D02*
X177870475Y-101977676D01*
X177870475Y-101977676D02*
X177965713Y-102072914D01*
X177965713Y-102072914D02*
X178060951Y-102120533D01*
X123504166Y-80144819D02*
X123837499Y-79668628D01*
X124075594Y-80144819D02*
X124075594Y-79144819D01*
X124075594Y-79144819D02*
X123694642Y-79144819D01*
X123694642Y-79144819D02*
X123599404Y-79192438D01*
X123599404Y-79192438D02*
X123551785Y-79240057D01*
X123551785Y-79240057D02*
X123504166Y-79335295D01*
X123504166Y-79335295D02*
X123504166Y-79478152D01*
X123504166Y-79478152D02*
X123551785Y-79573390D01*
X123551785Y-79573390D02*
X123599404Y-79621009D01*
X123599404Y-79621009D02*
X123694642Y-79668628D01*
X123694642Y-79668628D02*
X124075594Y-79668628D01*
X122599404Y-79144819D02*
X123075594Y-79144819D01*
X123075594Y-79144819D02*
X123123213Y-79621009D01*
X123123213Y-79621009D02*
X123075594Y-79573390D01*
X123075594Y-79573390D02*
X122980356Y-79525771D01*
X122980356Y-79525771D02*
X122742261Y-79525771D01*
X122742261Y-79525771D02*
X122647023Y-79573390D01*
X122647023Y-79573390D02*
X122599404Y-79621009D01*
X122599404Y-79621009D02*
X122551785Y-79716247D01*
X122551785Y-79716247D02*
X122551785Y-79954342D01*
X122551785Y-79954342D02*
X122599404Y-80049580D01*
X122599404Y-80049580D02*
X122647023Y-80097200D01*
X122647023Y-80097200D02*
X122742261Y-80144819D01*
X122742261Y-80144819D02*
X122980356Y-80144819D01*
X122980356Y-80144819D02*
X123075594Y-80097200D01*
X123075594Y-80097200D02*
X123123213Y-80049580D01*
X176132857Y-76799580D02*
X176180476Y-76847200D01*
X176180476Y-76847200D02*
X176323333Y-76894819D01*
X176323333Y-76894819D02*
X176418571Y-76894819D01*
X176418571Y-76894819D02*
X176561428Y-76847200D01*
X176561428Y-76847200D02*
X176656666Y-76751961D01*
X176656666Y-76751961D02*
X176704285Y-76656723D01*
X176704285Y-76656723D02*
X176751904Y-76466247D01*
X176751904Y-76466247D02*
X176751904Y-76323390D01*
X176751904Y-76323390D02*
X176704285Y-76132914D01*
X176704285Y-76132914D02*
X176656666Y-76037676D01*
X176656666Y-76037676D02*
X176561428Y-75942438D01*
X176561428Y-75942438D02*
X176418571Y-75894819D01*
X176418571Y-75894819D02*
X176323333Y-75894819D01*
X176323333Y-75894819D02*
X176180476Y-75942438D01*
X176180476Y-75942438D02*
X176132857Y-75990057D01*
X175751904Y-75990057D02*
X175704285Y-75942438D01*
X175704285Y-75942438D02*
X175609047Y-75894819D01*
X175609047Y-75894819D02*
X175370952Y-75894819D01*
X175370952Y-75894819D02*
X175275714Y-75942438D01*
X175275714Y-75942438D02*
X175228095Y-75990057D01*
X175228095Y-75990057D02*
X175180476Y-76085295D01*
X175180476Y-76085295D02*
X175180476Y-76180533D01*
X175180476Y-76180533D02*
X175228095Y-76323390D01*
X175228095Y-76323390D02*
X175799523Y-76894819D01*
X175799523Y-76894819D02*
X175180476Y-76894819D01*
X174323333Y-75894819D02*
X174513809Y-75894819D01*
X174513809Y-75894819D02*
X174609047Y-75942438D01*
X174609047Y-75942438D02*
X174656666Y-75990057D01*
X174656666Y-75990057D02*
X174751904Y-76132914D01*
X174751904Y-76132914D02*
X174799523Y-76323390D01*
X174799523Y-76323390D02*
X174799523Y-76704342D01*
X174799523Y-76704342D02*
X174751904Y-76799580D01*
X174751904Y-76799580D02*
X174704285Y-76847200D01*
X174704285Y-76847200D02*
X174609047Y-76894819D01*
X174609047Y-76894819D02*
X174418571Y-76894819D01*
X174418571Y-76894819D02*
X174323333Y-76847200D01*
X174323333Y-76847200D02*
X174275714Y-76799580D01*
X174275714Y-76799580D02*
X174228095Y-76704342D01*
X174228095Y-76704342D02*
X174228095Y-76466247D01*
X174228095Y-76466247D02*
X174275714Y-76371009D01*
X174275714Y-76371009D02*
X174323333Y-76323390D01*
X174323333Y-76323390D02*
X174418571Y-76275771D01*
X174418571Y-76275771D02*
X174609047Y-76275771D01*
X174609047Y-76275771D02*
X174704285Y-76323390D01*
X174704285Y-76323390D02*
X174751904Y-76371009D01*
X174751904Y-76371009D02*
X174799523Y-76466247D01*
X180152857Y-80629580D02*
X180200476Y-80677200D01*
X180200476Y-80677200D02*
X180343333Y-80724819D01*
X180343333Y-80724819D02*
X180438571Y-80724819D01*
X180438571Y-80724819D02*
X180581428Y-80677200D01*
X180581428Y-80677200D02*
X180676666Y-80581961D01*
X180676666Y-80581961D02*
X180724285Y-80486723D01*
X180724285Y-80486723D02*
X180771904Y-80296247D01*
X180771904Y-80296247D02*
X180771904Y-80153390D01*
X180771904Y-80153390D02*
X180724285Y-79962914D01*
X180724285Y-79962914D02*
X180676666Y-79867676D01*
X180676666Y-79867676D02*
X180581428Y-79772438D01*
X180581428Y-79772438D02*
X180438571Y-79724819D01*
X180438571Y-79724819D02*
X180343333Y-79724819D01*
X180343333Y-79724819D02*
X180200476Y-79772438D01*
X180200476Y-79772438D02*
X180152857Y-79820057D01*
X179200476Y-80724819D02*
X179771904Y-80724819D01*
X179486190Y-80724819D02*
X179486190Y-79724819D01*
X179486190Y-79724819D02*
X179581428Y-79867676D01*
X179581428Y-79867676D02*
X179676666Y-79962914D01*
X179676666Y-79962914D02*
X179771904Y-80010533D01*
X178819523Y-79820057D02*
X178771904Y-79772438D01*
X178771904Y-79772438D02*
X178676666Y-79724819D01*
X178676666Y-79724819D02*
X178438571Y-79724819D01*
X178438571Y-79724819D02*
X178343333Y-79772438D01*
X178343333Y-79772438D02*
X178295714Y-79820057D01*
X178295714Y-79820057D02*
X178248095Y-79915295D01*
X178248095Y-79915295D02*
X178248095Y-80010533D01*
X178248095Y-80010533D02*
X178295714Y-80153390D01*
X178295714Y-80153390D02*
X178867142Y-80724819D01*
X178867142Y-80724819D02*
X178248095Y-80724819D01*
X178872857Y-63939580D02*
X178920476Y-63987200D01*
X178920476Y-63987200D02*
X179063333Y-64034819D01*
X179063333Y-64034819D02*
X179158571Y-64034819D01*
X179158571Y-64034819D02*
X179301428Y-63987200D01*
X179301428Y-63987200D02*
X179396666Y-63891961D01*
X179396666Y-63891961D02*
X179444285Y-63796723D01*
X179444285Y-63796723D02*
X179491904Y-63606247D01*
X179491904Y-63606247D02*
X179491904Y-63463390D01*
X179491904Y-63463390D02*
X179444285Y-63272914D01*
X179444285Y-63272914D02*
X179396666Y-63177676D01*
X179396666Y-63177676D02*
X179301428Y-63082438D01*
X179301428Y-63082438D02*
X179158571Y-63034819D01*
X179158571Y-63034819D02*
X179063333Y-63034819D01*
X179063333Y-63034819D02*
X178920476Y-63082438D01*
X178920476Y-63082438D02*
X178872857Y-63130057D01*
X178491904Y-63130057D02*
X178444285Y-63082438D01*
X178444285Y-63082438D02*
X178349047Y-63034819D01*
X178349047Y-63034819D02*
X178110952Y-63034819D01*
X178110952Y-63034819D02*
X178015714Y-63082438D01*
X178015714Y-63082438D02*
X177968095Y-63130057D01*
X177968095Y-63130057D02*
X177920476Y-63225295D01*
X177920476Y-63225295D02*
X177920476Y-63320533D01*
X177920476Y-63320533D02*
X177968095Y-63463390D01*
X177968095Y-63463390D02*
X178539523Y-64034819D01*
X178539523Y-64034819D02*
X177920476Y-64034819D01*
X177349047Y-63463390D02*
X177444285Y-63415771D01*
X177444285Y-63415771D02*
X177491904Y-63368152D01*
X177491904Y-63368152D02*
X177539523Y-63272914D01*
X177539523Y-63272914D02*
X177539523Y-63225295D01*
X177539523Y-63225295D02*
X177491904Y-63130057D01*
X177491904Y-63130057D02*
X177444285Y-63082438D01*
X177444285Y-63082438D02*
X177349047Y-63034819D01*
X177349047Y-63034819D02*
X177158571Y-63034819D01*
X177158571Y-63034819D02*
X177063333Y-63082438D01*
X177063333Y-63082438D02*
X177015714Y-63130057D01*
X177015714Y-63130057D02*
X176968095Y-63225295D01*
X176968095Y-63225295D02*
X176968095Y-63272914D01*
X176968095Y-63272914D02*
X177015714Y-63368152D01*
X177015714Y-63368152D02*
X177063333Y-63415771D01*
X177063333Y-63415771D02*
X177158571Y-63463390D01*
X177158571Y-63463390D02*
X177349047Y-63463390D01*
X177349047Y-63463390D02*
X177444285Y-63511009D01*
X177444285Y-63511009D02*
X177491904Y-63558628D01*
X177491904Y-63558628D02*
X177539523Y-63653866D01*
X177539523Y-63653866D02*
X177539523Y-63844342D01*
X177539523Y-63844342D02*
X177491904Y-63939580D01*
X177491904Y-63939580D02*
X177444285Y-63987200D01*
X177444285Y-63987200D02*
X177349047Y-64034819D01*
X177349047Y-64034819D02*
X177158571Y-64034819D01*
X177158571Y-64034819D02*
X177063333Y-63987200D01*
X177063333Y-63987200D02*
X177015714Y-63939580D01*
X177015714Y-63939580D02*
X176968095Y-63844342D01*
X176968095Y-63844342D02*
X176968095Y-63653866D01*
X176968095Y-63653866D02*
X177015714Y-63558628D01*
X177015714Y-63558628D02*
X177063333Y-63511009D01*
X177063333Y-63511009D02*
X177158571Y-63463390D01*
X135444819Y-102558095D02*
X136254342Y-102558095D01*
X136254342Y-102558095D02*
X136349580Y-102605714D01*
X136349580Y-102605714D02*
X136397200Y-102653333D01*
X136397200Y-102653333D02*
X136444819Y-102748571D01*
X136444819Y-102748571D02*
X136444819Y-102939047D01*
X136444819Y-102939047D02*
X136397200Y-103034285D01*
X136397200Y-103034285D02*
X136349580Y-103081904D01*
X136349580Y-103081904D02*
X136254342Y-103129523D01*
X136254342Y-103129523D02*
X135444819Y-103129523D01*
X135444819Y-104034285D02*
X135444819Y-103843809D01*
X135444819Y-103843809D02*
X135492438Y-103748571D01*
X135492438Y-103748571D02*
X135540057Y-103700952D01*
X135540057Y-103700952D02*
X135682914Y-103605714D01*
X135682914Y-103605714D02*
X135873390Y-103558095D01*
X135873390Y-103558095D02*
X136254342Y-103558095D01*
X136254342Y-103558095D02*
X136349580Y-103605714D01*
X136349580Y-103605714D02*
X136397200Y-103653333D01*
X136397200Y-103653333D02*
X136444819Y-103748571D01*
X136444819Y-103748571D02*
X136444819Y-103939047D01*
X136444819Y-103939047D02*
X136397200Y-104034285D01*
X136397200Y-104034285D02*
X136349580Y-104081904D01*
X136349580Y-104081904D02*
X136254342Y-104129523D01*
X136254342Y-104129523D02*
X136016247Y-104129523D01*
X136016247Y-104129523D02*
X135921009Y-104081904D01*
X135921009Y-104081904D02*
X135873390Y-104034285D01*
X135873390Y-104034285D02*
X135825771Y-103939047D01*
X135825771Y-103939047D02*
X135825771Y-103748571D01*
X135825771Y-103748571D02*
X135873390Y-103653333D01*
X135873390Y-103653333D02*
X135921009Y-103605714D01*
X135921009Y-103605714D02*
X136016247Y-103558095D01*
X163836666Y-104719580D02*
X163884285Y-104767200D01*
X163884285Y-104767200D02*
X164027142Y-104814819D01*
X164027142Y-104814819D02*
X164122380Y-104814819D01*
X164122380Y-104814819D02*
X164265237Y-104767200D01*
X164265237Y-104767200D02*
X164360475Y-104671961D01*
X164360475Y-104671961D02*
X164408094Y-104576723D01*
X164408094Y-104576723D02*
X164455713Y-104386247D01*
X164455713Y-104386247D02*
X164455713Y-104243390D01*
X164455713Y-104243390D02*
X164408094Y-104052914D01*
X164408094Y-104052914D02*
X164360475Y-103957676D01*
X164360475Y-103957676D02*
X164265237Y-103862438D01*
X164265237Y-103862438D02*
X164122380Y-103814819D01*
X164122380Y-103814819D02*
X164027142Y-103814819D01*
X164027142Y-103814819D02*
X163884285Y-103862438D01*
X163884285Y-103862438D02*
X163836666Y-103910057D01*
X163503332Y-103814819D02*
X162836666Y-103814819D01*
X162836666Y-103814819D02*
X163265237Y-104814819D01*
X167236666Y-98664819D02*
X167569999Y-98188628D01*
X167808094Y-98664819D02*
X167808094Y-97664819D01*
X167808094Y-97664819D02*
X167427142Y-97664819D01*
X167427142Y-97664819D02*
X167331904Y-97712438D01*
X167331904Y-97712438D02*
X167284285Y-97760057D01*
X167284285Y-97760057D02*
X167236666Y-97855295D01*
X167236666Y-97855295D02*
X167236666Y-97998152D01*
X167236666Y-97998152D02*
X167284285Y-98093390D01*
X167284285Y-98093390D02*
X167331904Y-98141009D01*
X167331904Y-98141009D02*
X167427142Y-98188628D01*
X167427142Y-98188628D02*
X167808094Y-98188628D01*
X166855713Y-97760057D02*
X166808094Y-97712438D01*
X166808094Y-97712438D02*
X166712856Y-97664819D01*
X166712856Y-97664819D02*
X166474761Y-97664819D01*
X166474761Y-97664819D02*
X166379523Y-97712438D01*
X166379523Y-97712438D02*
X166331904Y-97760057D01*
X166331904Y-97760057D02*
X166284285Y-97855295D01*
X166284285Y-97855295D02*
X166284285Y-97950533D01*
X166284285Y-97950533D02*
X166331904Y-98093390D01*
X166331904Y-98093390D02*
X166903332Y-98664819D01*
X166903332Y-98664819D02*
X166284285Y-98664819D01*
X161216666Y-100589580D02*
X161264285Y-100637200D01*
X161264285Y-100637200D02*
X161407142Y-100684819D01*
X161407142Y-100684819D02*
X161502380Y-100684819D01*
X161502380Y-100684819D02*
X161645237Y-100637200D01*
X161645237Y-100637200D02*
X161740475Y-100541961D01*
X161740475Y-100541961D02*
X161788094Y-100446723D01*
X161788094Y-100446723D02*
X161835713Y-100256247D01*
X161835713Y-100256247D02*
X161835713Y-100113390D01*
X161835713Y-100113390D02*
X161788094Y-99922914D01*
X161788094Y-99922914D02*
X161740475Y-99827676D01*
X161740475Y-99827676D02*
X161645237Y-99732438D01*
X161645237Y-99732438D02*
X161502380Y-99684819D01*
X161502380Y-99684819D02*
X161407142Y-99684819D01*
X161407142Y-99684819D02*
X161264285Y-99732438D01*
X161264285Y-99732438D02*
X161216666Y-99780057D01*
X160740475Y-100684819D02*
X160549999Y-100684819D01*
X160549999Y-100684819D02*
X160454761Y-100637200D01*
X160454761Y-100637200D02*
X160407142Y-100589580D01*
X160407142Y-100589580D02*
X160311904Y-100446723D01*
X160311904Y-100446723D02*
X160264285Y-100256247D01*
X160264285Y-100256247D02*
X160264285Y-99875295D01*
X160264285Y-99875295D02*
X160311904Y-99780057D01*
X160311904Y-99780057D02*
X160359523Y-99732438D01*
X160359523Y-99732438D02*
X160454761Y-99684819D01*
X160454761Y-99684819D02*
X160645237Y-99684819D01*
X160645237Y-99684819D02*
X160740475Y-99732438D01*
X160740475Y-99732438D02*
X160788094Y-99780057D01*
X160788094Y-99780057D02*
X160835713Y-99875295D01*
X160835713Y-99875295D02*
X160835713Y-100113390D01*
X160835713Y-100113390D02*
X160788094Y-100208628D01*
X160788094Y-100208628D02*
X160740475Y-100256247D01*
X160740475Y-100256247D02*
X160645237Y-100303866D01*
X160645237Y-100303866D02*
X160454761Y-100303866D01*
X160454761Y-100303866D02*
X160359523Y-100256247D01*
X160359523Y-100256247D02*
X160311904Y-100208628D01*
X160311904Y-100208628D02*
X160264285Y-100113390D01*
X173002857Y-82814819D02*
X173336190Y-82338628D01*
X173574285Y-82814819D02*
X173574285Y-81814819D01*
X173574285Y-81814819D02*
X173193333Y-81814819D01*
X173193333Y-81814819D02*
X173098095Y-81862438D01*
X173098095Y-81862438D02*
X173050476Y-81910057D01*
X173050476Y-81910057D02*
X173002857Y-82005295D01*
X173002857Y-82005295D02*
X173002857Y-82148152D01*
X173002857Y-82148152D02*
X173050476Y-82243390D01*
X173050476Y-82243390D02*
X173098095Y-82291009D01*
X173098095Y-82291009D02*
X173193333Y-82338628D01*
X173193333Y-82338628D02*
X173574285Y-82338628D01*
X172050476Y-82814819D02*
X172621904Y-82814819D01*
X172336190Y-82814819D02*
X172336190Y-81814819D01*
X172336190Y-81814819D02*
X172431428Y-81957676D01*
X172431428Y-81957676D02*
X172526666Y-82052914D01*
X172526666Y-82052914D02*
X172621904Y-82100533D01*
X171145714Y-81814819D02*
X171621904Y-81814819D01*
X171621904Y-81814819D02*
X171669523Y-82291009D01*
X171669523Y-82291009D02*
X171621904Y-82243390D01*
X171621904Y-82243390D02*
X171526666Y-82195771D01*
X171526666Y-82195771D02*
X171288571Y-82195771D01*
X171288571Y-82195771D02*
X171193333Y-82243390D01*
X171193333Y-82243390D02*
X171145714Y-82291009D01*
X171145714Y-82291009D02*
X171098095Y-82386247D01*
X171098095Y-82386247D02*
X171098095Y-82624342D01*
X171098095Y-82624342D02*
X171145714Y-82719580D01*
X171145714Y-82719580D02*
X171193333Y-82767200D01*
X171193333Y-82767200D02*
X171288571Y-82814819D01*
X171288571Y-82814819D02*
X171526666Y-82814819D01*
X171526666Y-82814819D02*
X171621904Y-82767200D01*
X171621904Y-82767200D02*
X171669523Y-82719580D01*
X173552857Y-74859580D02*
X173600476Y-74907200D01*
X173600476Y-74907200D02*
X173743333Y-74954819D01*
X173743333Y-74954819D02*
X173838571Y-74954819D01*
X173838571Y-74954819D02*
X173981428Y-74907200D01*
X173981428Y-74907200D02*
X174076666Y-74811961D01*
X174076666Y-74811961D02*
X174124285Y-74716723D01*
X174124285Y-74716723D02*
X174171904Y-74526247D01*
X174171904Y-74526247D02*
X174171904Y-74383390D01*
X174171904Y-74383390D02*
X174124285Y-74192914D01*
X174124285Y-74192914D02*
X174076666Y-74097676D01*
X174076666Y-74097676D02*
X173981428Y-74002438D01*
X173981428Y-74002438D02*
X173838571Y-73954819D01*
X173838571Y-73954819D02*
X173743333Y-73954819D01*
X173743333Y-73954819D02*
X173600476Y-74002438D01*
X173600476Y-74002438D02*
X173552857Y-74050057D01*
X173171904Y-74050057D02*
X173124285Y-74002438D01*
X173124285Y-74002438D02*
X173029047Y-73954819D01*
X173029047Y-73954819D02*
X172790952Y-73954819D01*
X172790952Y-73954819D02*
X172695714Y-74002438D01*
X172695714Y-74002438D02*
X172648095Y-74050057D01*
X172648095Y-74050057D02*
X172600476Y-74145295D01*
X172600476Y-74145295D02*
X172600476Y-74240533D01*
X172600476Y-74240533D02*
X172648095Y-74383390D01*
X172648095Y-74383390D02*
X173219523Y-74954819D01*
X173219523Y-74954819D02*
X172600476Y-74954819D01*
X172267142Y-73954819D02*
X171600476Y-73954819D01*
X171600476Y-73954819D02*
X172029047Y-74954819D01*
X151442857Y-73664819D02*
X151776190Y-73188628D01*
X152014285Y-73664819D02*
X152014285Y-72664819D01*
X152014285Y-72664819D02*
X151633333Y-72664819D01*
X151633333Y-72664819D02*
X151538095Y-72712438D01*
X151538095Y-72712438D02*
X151490476Y-72760057D01*
X151490476Y-72760057D02*
X151442857Y-72855295D01*
X151442857Y-72855295D02*
X151442857Y-72998152D01*
X151442857Y-72998152D02*
X151490476Y-73093390D01*
X151490476Y-73093390D02*
X151538095Y-73141009D01*
X151538095Y-73141009D02*
X151633333Y-73188628D01*
X151633333Y-73188628D02*
X152014285Y-73188628D01*
X151109523Y-72664819D02*
X150490476Y-72664819D01*
X150490476Y-72664819D02*
X150823809Y-73045771D01*
X150823809Y-73045771D02*
X150680952Y-73045771D01*
X150680952Y-73045771D02*
X150585714Y-73093390D01*
X150585714Y-73093390D02*
X150538095Y-73141009D01*
X150538095Y-73141009D02*
X150490476Y-73236247D01*
X150490476Y-73236247D02*
X150490476Y-73474342D01*
X150490476Y-73474342D02*
X150538095Y-73569580D01*
X150538095Y-73569580D02*
X150585714Y-73617200D01*
X150585714Y-73617200D02*
X150680952Y-73664819D01*
X150680952Y-73664819D02*
X150966666Y-73664819D01*
X150966666Y-73664819D02*
X151061904Y-73617200D01*
X151061904Y-73617200D02*
X151109523Y-73569580D01*
X150157142Y-72664819D02*
X149490476Y-72664819D01*
X149490476Y-72664819D02*
X149919047Y-73664819D01*
X163432857Y-74644819D02*
X163766190Y-74168628D01*
X164004285Y-74644819D02*
X164004285Y-73644819D01*
X164004285Y-73644819D02*
X163623333Y-73644819D01*
X163623333Y-73644819D02*
X163528095Y-73692438D01*
X163528095Y-73692438D02*
X163480476Y-73740057D01*
X163480476Y-73740057D02*
X163432857Y-73835295D01*
X163432857Y-73835295D02*
X163432857Y-73978152D01*
X163432857Y-73978152D02*
X163480476Y-74073390D01*
X163480476Y-74073390D02*
X163528095Y-74121009D01*
X163528095Y-74121009D02*
X163623333Y-74168628D01*
X163623333Y-74168628D02*
X164004285Y-74168628D01*
X163099523Y-73644819D02*
X162480476Y-73644819D01*
X162480476Y-73644819D02*
X162813809Y-74025771D01*
X162813809Y-74025771D02*
X162670952Y-74025771D01*
X162670952Y-74025771D02*
X162575714Y-74073390D01*
X162575714Y-74073390D02*
X162528095Y-74121009D01*
X162528095Y-74121009D02*
X162480476Y-74216247D01*
X162480476Y-74216247D02*
X162480476Y-74454342D01*
X162480476Y-74454342D02*
X162528095Y-74549580D01*
X162528095Y-74549580D02*
X162575714Y-74597200D01*
X162575714Y-74597200D02*
X162670952Y-74644819D01*
X162670952Y-74644819D02*
X162956666Y-74644819D01*
X162956666Y-74644819D02*
X163051904Y-74597200D01*
X163051904Y-74597200D02*
X163099523Y-74549580D01*
X162147142Y-73644819D02*
X161528095Y-73644819D01*
X161528095Y-73644819D02*
X161861428Y-74025771D01*
X161861428Y-74025771D02*
X161718571Y-74025771D01*
X161718571Y-74025771D02*
X161623333Y-74073390D01*
X161623333Y-74073390D02*
X161575714Y-74121009D01*
X161575714Y-74121009D02*
X161528095Y-74216247D01*
X161528095Y-74216247D02*
X161528095Y-74454342D01*
X161528095Y-74454342D02*
X161575714Y-74549580D01*
X161575714Y-74549580D02*
X161623333Y-74597200D01*
X161623333Y-74597200D02*
X161718571Y-74644819D01*
X161718571Y-74644819D02*
X162004285Y-74644819D01*
X162004285Y-74644819D02*
X162099523Y-74597200D01*
X162099523Y-74597200D02*
X162147142Y-74549580D01*
X161562857Y-71144819D02*
X161896190Y-70668628D01*
X162134285Y-71144819D02*
X162134285Y-70144819D01*
X162134285Y-70144819D02*
X161753333Y-70144819D01*
X161753333Y-70144819D02*
X161658095Y-70192438D01*
X161658095Y-70192438D02*
X161610476Y-70240057D01*
X161610476Y-70240057D02*
X161562857Y-70335295D01*
X161562857Y-70335295D02*
X161562857Y-70478152D01*
X161562857Y-70478152D02*
X161610476Y-70573390D01*
X161610476Y-70573390D02*
X161658095Y-70621009D01*
X161658095Y-70621009D02*
X161753333Y-70668628D01*
X161753333Y-70668628D02*
X162134285Y-70668628D01*
X161229523Y-70144819D02*
X160610476Y-70144819D01*
X160610476Y-70144819D02*
X160943809Y-70525771D01*
X160943809Y-70525771D02*
X160800952Y-70525771D01*
X160800952Y-70525771D02*
X160705714Y-70573390D01*
X160705714Y-70573390D02*
X160658095Y-70621009D01*
X160658095Y-70621009D02*
X160610476Y-70716247D01*
X160610476Y-70716247D02*
X160610476Y-70954342D01*
X160610476Y-70954342D02*
X160658095Y-71049580D01*
X160658095Y-71049580D02*
X160705714Y-71097200D01*
X160705714Y-71097200D02*
X160800952Y-71144819D01*
X160800952Y-71144819D02*
X161086666Y-71144819D01*
X161086666Y-71144819D02*
X161181904Y-71097200D01*
X161181904Y-71097200D02*
X161229523Y-71049580D01*
X159753333Y-70144819D02*
X159943809Y-70144819D01*
X159943809Y-70144819D02*
X160039047Y-70192438D01*
X160039047Y-70192438D02*
X160086666Y-70240057D01*
X160086666Y-70240057D02*
X160181904Y-70382914D01*
X160181904Y-70382914D02*
X160229523Y-70573390D01*
X160229523Y-70573390D02*
X160229523Y-70954342D01*
X160229523Y-70954342D02*
X160181904Y-71049580D01*
X160181904Y-71049580D02*
X160134285Y-71097200D01*
X160134285Y-71097200D02*
X160039047Y-71144819D01*
X160039047Y-71144819D02*
X159848571Y-71144819D01*
X159848571Y-71144819D02*
X159753333Y-71097200D01*
X159753333Y-71097200D02*
X159705714Y-71049580D01*
X159705714Y-71049580D02*
X159658095Y-70954342D01*
X159658095Y-70954342D02*
X159658095Y-70716247D01*
X159658095Y-70716247D02*
X159705714Y-70621009D01*
X159705714Y-70621009D02*
X159753333Y-70573390D01*
X159753333Y-70573390D02*
X159848571Y-70525771D01*
X159848571Y-70525771D02*
X160039047Y-70525771D01*
X160039047Y-70525771D02*
X160134285Y-70573390D01*
X160134285Y-70573390D02*
X160181904Y-70621009D01*
X160181904Y-70621009D02*
X160229523Y-70716247D01*
X123584166Y-73764819D02*
X123917499Y-73288628D01*
X124155594Y-73764819D02*
X124155594Y-72764819D01*
X124155594Y-72764819D02*
X123774642Y-72764819D01*
X123774642Y-72764819D02*
X123679404Y-72812438D01*
X123679404Y-72812438D02*
X123631785Y-72860057D01*
X123631785Y-72860057D02*
X123584166Y-72955295D01*
X123584166Y-72955295D02*
X123584166Y-73098152D01*
X123584166Y-73098152D02*
X123631785Y-73193390D01*
X123631785Y-73193390D02*
X123679404Y-73241009D01*
X123679404Y-73241009D02*
X123774642Y-73288628D01*
X123774642Y-73288628D02*
X124155594Y-73288628D01*
X123250832Y-72764819D02*
X122631785Y-72764819D01*
X122631785Y-72764819D02*
X122965118Y-73145771D01*
X122965118Y-73145771D02*
X122822261Y-73145771D01*
X122822261Y-73145771D02*
X122727023Y-73193390D01*
X122727023Y-73193390D02*
X122679404Y-73241009D01*
X122679404Y-73241009D02*
X122631785Y-73336247D01*
X122631785Y-73336247D02*
X122631785Y-73574342D01*
X122631785Y-73574342D02*
X122679404Y-73669580D01*
X122679404Y-73669580D02*
X122727023Y-73717200D01*
X122727023Y-73717200D02*
X122822261Y-73764819D01*
X122822261Y-73764819D02*
X123107975Y-73764819D01*
X123107975Y-73764819D02*
X123203213Y-73717200D01*
X123203213Y-73717200D02*
X123250832Y-73669580D01*
X177753333Y-90781009D02*
X178086666Y-90781009D01*
X178086666Y-91304819D02*
X178086666Y-90304819D01*
X178086666Y-90304819D02*
X177610476Y-90304819D01*
X176896190Y-90781009D02*
X176753333Y-90828628D01*
X176753333Y-90828628D02*
X176705714Y-90876247D01*
X176705714Y-90876247D02*
X176658095Y-90971485D01*
X176658095Y-90971485D02*
X176658095Y-91114342D01*
X176658095Y-91114342D02*
X176705714Y-91209580D01*
X176705714Y-91209580D02*
X176753333Y-91257200D01*
X176753333Y-91257200D02*
X176848571Y-91304819D01*
X176848571Y-91304819D02*
X177229523Y-91304819D01*
X177229523Y-91304819D02*
X177229523Y-90304819D01*
X177229523Y-90304819D02*
X176896190Y-90304819D01*
X176896190Y-90304819D02*
X176800952Y-90352438D01*
X176800952Y-90352438D02*
X176753333Y-90400057D01*
X176753333Y-90400057D02*
X176705714Y-90495295D01*
X176705714Y-90495295D02*
X176705714Y-90590533D01*
X176705714Y-90590533D02*
X176753333Y-90685771D01*
X176753333Y-90685771D02*
X176800952Y-90733390D01*
X176800952Y-90733390D02*
X176896190Y-90781009D01*
X176896190Y-90781009D02*
X177229523Y-90781009D01*
X175705714Y-91304819D02*
X176277142Y-91304819D01*
X175991428Y-91304819D02*
X175991428Y-90304819D01*
X175991428Y-90304819D02*
X176086666Y-90447676D01*
X176086666Y-90447676D02*
X176181904Y-90542914D01*
X176181904Y-90542914D02*
X176277142Y-90590533D01*
X135242857Y-70039580D02*
X135290476Y-70087200D01*
X135290476Y-70087200D02*
X135433333Y-70134819D01*
X135433333Y-70134819D02*
X135528571Y-70134819D01*
X135528571Y-70134819D02*
X135671428Y-70087200D01*
X135671428Y-70087200D02*
X135766666Y-69991961D01*
X135766666Y-69991961D02*
X135814285Y-69896723D01*
X135814285Y-69896723D02*
X135861904Y-69706247D01*
X135861904Y-69706247D02*
X135861904Y-69563390D01*
X135861904Y-69563390D02*
X135814285Y-69372914D01*
X135814285Y-69372914D02*
X135766666Y-69277676D01*
X135766666Y-69277676D02*
X135671428Y-69182438D01*
X135671428Y-69182438D02*
X135528571Y-69134819D01*
X135528571Y-69134819D02*
X135433333Y-69134819D01*
X135433333Y-69134819D02*
X135290476Y-69182438D01*
X135290476Y-69182438D02*
X135242857Y-69230057D01*
X134861904Y-69230057D02*
X134814285Y-69182438D01*
X134814285Y-69182438D02*
X134719047Y-69134819D01*
X134719047Y-69134819D02*
X134480952Y-69134819D01*
X134480952Y-69134819D02*
X134385714Y-69182438D01*
X134385714Y-69182438D02*
X134338095Y-69230057D01*
X134338095Y-69230057D02*
X134290476Y-69325295D01*
X134290476Y-69325295D02*
X134290476Y-69420533D01*
X134290476Y-69420533D02*
X134338095Y-69563390D01*
X134338095Y-69563390D02*
X134909523Y-70134819D01*
X134909523Y-70134819D02*
X134290476Y-70134819D01*
X133814285Y-70134819D02*
X133623809Y-70134819D01*
X133623809Y-70134819D02*
X133528571Y-70087200D01*
X133528571Y-70087200D02*
X133480952Y-70039580D01*
X133480952Y-70039580D02*
X133385714Y-69896723D01*
X133385714Y-69896723D02*
X133338095Y-69706247D01*
X133338095Y-69706247D02*
X133338095Y-69325295D01*
X133338095Y-69325295D02*
X133385714Y-69230057D01*
X133385714Y-69230057D02*
X133433333Y-69182438D01*
X133433333Y-69182438D02*
X133528571Y-69134819D01*
X133528571Y-69134819D02*
X133719047Y-69134819D01*
X133719047Y-69134819D02*
X133814285Y-69182438D01*
X133814285Y-69182438D02*
X133861904Y-69230057D01*
X133861904Y-69230057D02*
X133909523Y-69325295D01*
X133909523Y-69325295D02*
X133909523Y-69563390D01*
X133909523Y-69563390D02*
X133861904Y-69658628D01*
X133861904Y-69658628D02*
X133814285Y-69706247D01*
X133814285Y-69706247D02*
X133719047Y-69753866D01*
X133719047Y-69753866D02*
X133528571Y-69753866D01*
X133528571Y-69753866D02*
X133433333Y-69706247D01*
X133433333Y-69706247D02*
X133385714Y-69658628D01*
X133385714Y-69658628D02*
X133338095Y-69563390D01*
X136086666Y-78124819D02*
X136419999Y-77648628D01*
X136658094Y-78124819D02*
X136658094Y-77124819D01*
X136658094Y-77124819D02*
X136277142Y-77124819D01*
X136277142Y-77124819D02*
X136181904Y-77172438D01*
X136181904Y-77172438D02*
X136134285Y-77220057D01*
X136134285Y-77220057D02*
X136086666Y-77315295D01*
X136086666Y-77315295D02*
X136086666Y-77458152D01*
X136086666Y-77458152D02*
X136134285Y-77553390D01*
X136134285Y-77553390D02*
X136181904Y-77601009D01*
X136181904Y-77601009D02*
X136277142Y-77648628D01*
X136277142Y-77648628D02*
X136658094Y-77648628D01*
X135610475Y-78124819D02*
X135419999Y-78124819D01*
X135419999Y-78124819D02*
X135324761Y-78077200D01*
X135324761Y-78077200D02*
X135277142Y-78029580D01*
X135277142Y-78029580D02*
X135181904Y-77886723D01*
X135181904Y-77886723D02*
X135134285Y-77696247D01*
X135134285Y-77696247D02*
X135134285Y-77315295D01*
X135134285Y-77315295D02*
X135181904Y-77220057D01*
X135181904Y-77220057D02*
X135229523Y-77172438D01*
X135229523Y-77172438D02*
X135324761Y-77124819D01*
X135324761Y-77124819D02*
X135515237Y-77124819D01*
X135515237Y-77124819D02*
X135610475Y-77172438D01*
X135610475Y-77172438D02*
X135658094Y-77220057D01*
X135658094Y-77220057D02*
X135705713Y-77315295D01*
X135705713Y-77315295D02*
X135705713Y-77553390D01*
X135705713Y-77553390D02*
X135658094Y-77648628D01*
X135658094Y-77648628D02*
X135610475Y-77696247D01*
X135610475Y-77696247D02*
X135515237Y-77743866D01*
X135515237Y-77743866D02*
X135324761Y-77743866D01*
X135324761Y-77743866D02*
X135229523Y-77696247D01*
X135229523Y-77696247D02*
X135181904Y-77648628D01*
X135181904Y-77648628D02*
X135134285Y-77553390D01*
X174848094Y-92414819D02*
X174848094Y-91414819D01*
X174848094Y-91414819D02*
X174609999Y-91414819D01*
X174609999Y-91414819D02*
X174467142Y-91462438D01*
X174467142Y-91462438D02*
X174371904Y-91557676D01*
X174371904Y-91557676D02*
X174324285Y-91652914D01*
X174324285Y-91652914D02*
X174276666Y-91843390D01*
X174276666Y-91843390D02*
X174276666Y-91986247D01*
X174276666Y-91986247D02*
X174324285Y-92176723D01*
X174324285Y-92176723D02*
X174371904Y-92271961D01*
X174371904Y-92271961D02*
X174467142Y-92367200D01*
X174467142Y-92367200D02*
X174609999Y-92414819D01*
X174609999Y-92414819D02*
X174848094Y-92414819D01*
X173324285Y-92414819D02*
X173895713Y-92414819D01*
X173609999Y-92414819D02*
X173609999Y-91414819D01*
X173609999Y-91414819D02*
X173705237Y-91557676D01*
X173705237Y-91557676D02*
X173800475Y-91652914D01*
X173800475Y-91652914D02*
X173895713Y-91700533D01*
X179642857Y-73499580D02*
X179690476Y-73547200D01*
X179690476Y-73547200D02*
X179833333Y-73594819D01*
X179833333Y-73594819D02*
X179928571Y-73594819D01*
X179928571Y-73594819D02*
X180071428Y-73547200D01*
X180071428Y-73547200D02*
X180166666Y-73451961D01*
X180166666Y-73451961D02*
X180214285Y-73356723D01*
X180214285Y-73356723D02*
X180261904Y-73166247D01*
X180261904Y-73166247D02*
X180261904Y-73023390D01*
X180261904Y-73023390D02*
X180214285Y-72832914D01*
X180214285Y-72832914D02*
X180166666Y-72737676D01*
X180166666Y-72737676D02*
X180071428Y-72642438D01*
X180071428Y-72642438D02*
X179928571Y-72594819D01*
X179928571Y-72594819D02*
X179833333Y-72594819D01*
X179833333Y-72594819D02*
X179690476Y-72642438D01*
X179690476Y-72642438D02*
X179642857Y-72690057D01*
X179261904Y-72690057D02*
X179214285Y-72642438D01*
X179214285Y-72642438D02*
X179119047Y-72594819D01*
X179119047Y-72594819D02*
X178880952Y-72594819D01*
X178880952Y-72594819D02*
X178785714Y-72642438D01*
X178785714Y-72642438D02*
X178738095Y-72690057D01*
X178738095Y-72690057D02*
X178690476Y-72785295D01*
X178690476Y-72785295D02*
X178690476Y-72880533D01*
X178690476Y-72880533D02*
X178738095Y-73023390D01*
X178738095Y-73023390D02*
X179309523Y-73594819D01*
X179309523Y-73594819D02*
X178690476Y-73594819D01*
X177833333Y-72928152D02*
X177833333Y-73594819D01*
X178071428Y-72547200D02*
X178309523Y-73261485D01*
X178309523Y-73261485D02*
X177690476Y-73261485D01*
X136086666Y-76881486D02*
X136419999Y-76405295D01*
X136658094Y-76881486D02*
X136658094Y-75881486D01*
X136658094Y-75881486D02*
X136277142Y-75881486D01*
X136277142Y-75881486D02*
X136181904Y-75929105D01*
X136181904Y-75929105D02*
X136134285Y-75976724D01*
X136134285Y-75976724D02*
X136086666Y-76071962D01*
X136086666Y-76071962D02*
X136086666Y-76214819D01*
X136086666Y-76214819D02*
X136134285Y-76310057D01*
X136134285Y-76310057D02*
X136181904Y-76357676D01*
X136181904Y-76357676D02*
X136277142Y-76405295D01*
X136277142Y-76405295D02*
X136658094Y-76405295D01*
X135515237Y-76310057D02*
X135610475Y-76262438D01*
X135610475Y-76262438D02*
X135658094Y-76214819D01*
X135658094Y-76214819D02*
X135705713Y-76119581D01*
X135705713Y-76119581D02*
X135705713Y-76071962D01*
X135705713Y-76071962D02*
X135658094Y-75976724D01*
X135658094Y-75976724D02*
X135610475Y-75929105D01*
X135610475Y-75929105D02*
X135515237Y-75881486D01*
X135515237Y-75881486D02*
X135324761Y-75881486D01*
X135324761Y-75881486D02*
X135229523Y-75929105D01*
X135229523Y-75929105D02*
X135181904Y-75976724D01*
X135181904Y-75976724D02*
X135134285Y-76071962D01*
X135134285Y-76071962D02*
X135134285Y-76119581D01*
X135134285Y-76119581D02*
X135181904Y-76214819D01*
X135181904Y-76214819D02*
X135229523Y-76262438D01*
X135229523Y-76262438D02*
X135324761Y-76310057D01*
X135324761Y-76310057D02*
X135515237Y-76310057D01*
X135515237Y-76310057D02*
X135610475Y-76357676D01*
X135610475Y-76357676D02*
X135658094Y-76405295D01*
X135658094Y-76405295D02*
X135705713Y-76500533D01*
X135705713Y-76500533D02*
X135705713Y-76691009D01*
X135705713Y-76691009D02*
X135658094Y-76786247D01*
X135658094Y-76786247D02*
X135610475Y-76833867D01*
X135610475Y-76833867D02*
X135515237Y-76881486D01*
X135515237Y-76881486D02*
X135324761Y-76881486D01*
X135324761Y-76881486D02*
X135229523Y-76833867D01*
X135229523Y-76833867D02*
X135181904Y-76786247D01*
X135181904Y-76786247D02*
X135134285Y-76691009D01*
X135134285Y-76691009D02*
X135134285Y-76500533D01*
X135134285Y-76500533D02*
X135181904Y-76405295D01*
X135181904Y-76405295D02*
X135229523Y-76357676D01*
X135229523Y-76357676D02*
X135324761Y-76310057D01*
D10*
%TO.C,U2*%
X166750000Y-96890000D02*
X166420000Y-97130000D01*
X166420000Y-96650000D01*
X166750000Y-96890000D01*
G36*
X166750000Y-96890000D02*
G01*
X166420000Y-97130000D01*
X166420000Y-96650000D01*
X166750000Y-96890000D01*
G37*
X167930000Y-96350000D02*
X167930000Y-94530000D01*
X167930000Y-94530000D02*
X166930000Y-94530000D01*
X167880000Y-96350000D02*
X167930000Y-96350000D01*
X165980000Y-96350000D02*
X166760000Y-96350000D01*
X165810000Y-94530000D02*
X164810000Y-94530000D01*
X164810000Y-96350000D02*
X164860000Y-96350000D01*
X164810000Y-94530000D02*
X164810000Y-96350000D01*
%TO.C,R6*%
X133687500Y-73570000D02*
X133867500Y-73570000D01*
X133677500Y-74330000D02*
X133857500Y-74330000D01*
%TO.C,C22*%
X175530000Y-71430000D02*
X175450000Y-71430000D01*
X175530000Y-70710000D02*
X175440000Y-70710000D01*
%TO.C,C10*%
X147370000Y-97840000D02*
X147460000Y-97840000D01*
X147370000Y-97120000D02*
X147450000Y-97120000D01*
%TO.C,C19*%
X133280000Y-79650000D02*
X133280000Y-79560000D01*
X132560000Y-79650000D02*
X132560000Y-79570000D01*
%TO.C,C17*%
X163240000Y-93360000D02*
X163240000Y-93270000D01*
X162520000Y-93360000D02*
X162520000Y-93280000D01*
%TO.C,R12*%
X176020000Y-79000000D02*
X175840000Y-79000000D01*
X176010000Y-79760000D02*
X175830000Y-79760000D01*
%TO.C,R14*%
X176027500Y-82660000D02*
X175847500Y-82660000D01*
X176017500Y-83420000D02*
X175837500Y-83420000D01*
%TO.C,R7*%
X133697500Y-74830000D02*
X133877500Y-74830000D01*
X133687500Y-75590000D02*
X133867500Y-75590000D01*
%TO.C,R34*%
X152410000Y-76150000D02*
X152410000Y-76330000D01*
X151650000Y-76140000D02*
X151650000Y-76320000D01*
%TO.C,C25*%
X175530000Y-72410000D02*
X175450000Y-72410000D01*
X175530000Y-71690000D02*
X175440000Y-71690000D01*
D11*
%TO.C,D2*%
X169730000Y-105740000D02*
X173740000Y-105740000D01*
X169730000Y-105740000D02*
X169730000Y-103740000D01*
X169730000Y-103740000D02*
X173740000Y-103740000D01*
%TO.C,U7*%
X162010000Y-94860000D02*
X161530000Y-94860000D01*
X161770000Y-94530000D01*
X162010000Y-94860000D01*
G36*
X162010000Y-94860000D02*
G01*
X161530000Y-94860000D01*
X161770000Y-94530000D01*
X162010000Y-94860000D01*
G37*
X162225000Y-92980000D02*
X162225000Y-88360000D01*
X154155000Y-88360000D02*
X154155000Y-92980000D01*
D10*
%TO.C,U4*%
X159067500Y-104740000D02*
X158737500Y-104500000D01*
X159067500Y-104260000D01*
X159067500Y-104740000D01*
G36*
X159067500Y-104740000D02*
G01*
X158737500Y-104500000D01*
X159067500Y-104260000D01*
X159067500Y-104740000D01*
G37*
X158787500Y-103960000D02*
X158787500Y-99840000D01*
X158787500Y-99840000D02*
X158732500Y-99840000D01*
X158732500Y-103960000D02*
X158787500Y-103960000D01*
X148722500Y-99840000D02*
X148667500Y-99840000D01*
X148667500Y-103960000D02*
X148722500Y-103960000D01*
X148667500Y-99840000D02*
X148667500Y-103960000D01*
%TO.C,C5*%
X176246267Y-99170000D02*
X175953733Y-99170000D01*
X176246267Y-98150000D02*
X175953733Y-98150000D01*
%TO.C,C2*%
X170520000Y-95840000D02*
X170520000Y-95920000D01*
X169800000Y-95840000D02*
X169800000Y-95930000D01*
%TO.C,C20*%
X175530000Y-69470000D02*
X175450000Y-69470000D01*
X175530000Y-68750000D02*
X175440000Y-68750000D01*
%TO.C,U8*%
X126355000Y-81155000D02*
X125875000Y-81155000D01*
X126115000Y-80825000D01*
X126355000Y-81155000D01*
G36*
X126355000Y-81155000D02*
G01*
X125875000Y-81155000D01*
X126115000Y-80825000D01*
X126355000Y-81155000D01*
G37*
X130775000Y-80875000D02*
X130775000Y-80820000D01*
X130775000Y-70810000D02*
X130775000Y-70755000D01*
X130775000Y-70755000D02*
X126655000Y-70755000D01*
X126655000Y-80875000D02*
X130775000Y-80875000D01*
X126655000Y-80820000D02*
X126655000Y-80875000D01*
X126655000Y-70755000D02*
X126655000Y-70810000D01*
%TO.C,C6*%
X167610000Y-101220000D02*
X167700000Y-101220000D01*
X167610000Y-100500000D02*
X167690000Y-100500000D01*
%TO.C,C18*%
X163580000Y-87740000D02*
X163500000Y-87740000D01*
X163580000Y-87020000D02*
X163490000Y-87020000D01*
%TO.C,R32*%
X162580000Y-75190000D02*
X162760000Y-75190000D01*
X162570000Y-75950000D02*
X162750000Y-75950000D01*
%TO.C,C4*%
X163920000Y-98473733D02*
X163920000Y-98766267D01*
X162900000Y-98473733D02*
X162900000Y-98766267D01*
%TO.C,C30*%
X154600000Y-73020000D02*
X154520000Y-73020000D01*
X154600000Y-72300000D02*
X154510000Y-72300000D01*
%TO.C,U3*%
X174410000Y-102440000D02*
X174080000Y-102200000D01*
X174410000Y-101960000D01*
X174410000Y-102440000D01*
G36*
X174410000Y-102440000D02*
G01*
X174080000Y-102200000D01*
X174410000Y-101960000D01*
X174410000Y-102440000D01*
G37*
X174130000Y-101660000D02*
X174130000Y-99840000D01*
X174130000Y-99840000D02*
X174080000Y-99840000D01*
X174080000Y-101660000D02*
X174130000Y-101660000D01*
X172960000Y-99840000D02*
X172180000Y-99840000D01*
X171060000Y-99840000D02*
X171010000Y-99840000D01*
X171010000Y-101660000D02*
X171060000Y-101660000D01*
X171010000Y-99840000D02*
X171010000Y-101660000D01*
%TO.C,R35*%
X151310000Y-78540000D02*
X151310000Y-78720000D01*
X150550000Y-78530000D02*
X150550000Y-78710000D01*
%TO.C,C21*%
X175530000Y-68490000D02*
X175450000Y-68490000D01*
X175530000Y-67770000D02*
X175440000Y-67770000D01*
D11*
%TO.C,D3*%
X176690000Y-66100000D02*
X172680000Y-66100000D01*
X176690000Y-64100000D02*
X176690000Y-66100000D01*
X176690000Y-64100000D02*
X172680000Y-64100000D01*
D10*
%TO.C,U5*%
X147565000Y-104715000D02*
X147235000Y-104475000D01*
X147565000Y-104235000D01*
X147565000Y-104715000D01*
G36*
X147565000Y-104715000D02*
G01*
X147235000Y-104475000D01*
X147565000Y-104235000D01*
X147565000Y-104715000D01*
G37*
X147285000Y-103935000D02*
X147285000Y-99815000D01*
X147285000Y-99815000D02*
X147230000Y-99815000D01*
X147230000Y-103935000D02*
X147285000Y-103935000D01*
X137220000Y-99815000D02*
X137165000Y-99815000D01*
X137165000Y-103935000D02*
X137220000Y-103935000D01*
X137165000Y-99815000D02*
X137165000Y-103935000D01*
%TO.C,C15*%
X175950000Y-78710000D02*
X175870000Y-78710000D01*
X175950000Y-77990000D02*
X175860000Y-77990000D01*
%TO.C,C3*%
X169410000Y-95830000D02*
X169410000Y-95910000D01*
X168690000Y-95830000D02*
X168690000Y-95920000D01*
%TO.C,C1*%
X172300000Y-95936267D02*
X172300000Y-95643733D01*
X171280000Y-95936267D02*
X171280000Y-95643733D01*
%TO.C,R11*%
X109627500Y-80900000D02*
X109447500Y-80900000D01*
X109617500Y-81660000D02*
X109437500Y-81660000D01*
%TO.C,R4*%
X123442500Y-76070000D02*
X123262500Y-76070000D01*
X123432500Y-76830000D02*
X123252500Y-76830000D01*
%TO.C,R13*%
X174590000Y-79940000D02*
X174590000Y-80120000D01*
X173830000Y-79930000D02*
X173830000Y-80110000D01*
%TO.C,C23*%
X175530000Y-70450000D02*
X175450000Y-70450000D01*
X175530000Y-69730000D02*
X175440000Y-69730000D01*
%TO.C,C16*%
X175977500Y-84400000D02*
X175897500Y-84400000D01*
X175977500Y-83680000D02*
X175887500Y-83680000D01*
%TO.C,C11*%
X133740000Y-97970000D02*
X133830000Y-97970000D01*
X133740000Y-97250000D02*
X133820000Y-97250000D01*
%TO.C,R10*%
X109447500Y-81950000D02*
X109627500Y-81950000D01*
X109437500Y-82710000D02*
X109617500Y-82710000D01*
%TO.C,C8*%
X136100000Y-98010000D02*
X136100000Y-97920000D01*
X135380000Y-98010000D02*
X135380000Y-97930000D01*
%TO.C,U9*%
X159000000Y-73757500D02*
X158760000Y-73427500D01*
X159240000Y-73427500D01*
X159000000Y-73757500D01*
G36*
X159000000Y-73757500D02*
G01*
X158760000Y-73427500D01*
X159240000Y-73427500D01*
X159000000Y-73757500D01*
G37*
X158460000Y-78787500D02*
X158460000Y-78692500D01*
X158460000Y-73762500D02*
X158460000Y-73667500D01*
X158460000Y-73667500D02*
X154340000Y-73667500D01*
X154340000Y-78787500D02*
X158460000Y-78787500D01*
X154340000Y-78692500D02*
X154340000Y-78787500D01*
X154340000Y-73667500D02*
X154340000Y-73762500D01*
%TO.C,R1*%
X167680644Y-102610768D02*
X168190092Y-102610768D01*
X167680644Y-101565768D02*
X168190092Y-101565768D01*
%TO.C,C13*%
X153285000Y-94718748D02*
X153285000Y-95241252D01*
X151815000Y-94718748D02*
X151815000Y-95241252D01*
%TO.C,C14*%
X176000000Y-82370000D02*
X175920000Y-82370000D01*
X176000000Y-81650000D02*
X175910000Y-81650000D01*
%TO.C,L1*%
X177130000Y-102108748D02*
X177130000Y-102631252D01*
X175710000Y-102108748D02*
X175710000Y-102631252D01*
%TO.C,R5*%
X123440000Y-78130000D02*
X123260000Y-78130000D01*
X123430000Y-78890000D02*
X123250000Y-78890000D01*
%TO.C,C26*%
X175530000Y-75350000D02*
X175450000Y-75350000D01*
X175530000Y-74630000D02*
X175440000Y-74630000D01*
%TO.C,C12*%
X175970000Y-80750000D02*
X175890000Y-80750000D01*
X175970000Y-80030000D02*
X175880000Y-80030000D01*
%TO.C,C28*%
X177700000Y-65430000D02*
X177700000Y-65340000D01*
X176980000Y-65430000D02*
X176980000Y-65350000D01*
%TO.C,U6*%
X135295000Y-104705000D02*
X134965000Y-104465000D01*
X135295000Y-104225000D01*
X135295000Y-104705000D01*
G36*
X135295000Y-104705000D02*
G01*
X134965000Y-104465000D01*
X135295000Y-104225000D01*
X135295000Y-104705000D01*
G37*
X135015000Y-103925000D02*
X135015000Y-99805000D01*
X135015000Y-99805000D02*
X134960000Y-99805000D01*
X134960000Y-103925000D02*
X135015000Y-103925000D01*
X124950000Y-99805000D02*
X124895000Y-99805000D01*
X124895000Y-103925000D02*
X124950000Y-103925000D01*
X124895000Y-99805000D02*
X124895000Y-103925000D01*
%TO.C,C7*%
X166981252Y-105045000D02*
X166458748Y-105045000D01*
X166981252Y-103575000D02*
X166458748Y-103575000D01*
%TO.C,R2*%
X167314724Y-100082500D02*
X166805276Y-100082500D01*
X167314724Y-99037500D02*
X166805276Y-99037500D01*
%TO.C,C9*%
X159840000Y-100190000D02*
X159840000Y-100270000D01*
X159120000Y-100190000D02*
X159120000Y-100280000D01*
%TO.C,R15*%
X174610000Y-82450000D02*
X174610000Y-82270000D01*
X173850000Y-82440000D02*
X173850000Y-82260000D01*
%TO.C,C27*%
X175530000Y-74370000D02*
X175450000Y-74370000D01*
X175530000Y-73650000D02*
X175440000Y-73650000D01*
%TO.C,R37*%
X151180000Y-74890000D02*
X151180000Y-75070000D01*
X150420000Y-74880000D02*
X150420000Y-75060000D01*
%TO.C,R33*%
X161300000Y-74890000D02*
X161300000Y-75070000D01*
X160540000Y-74880000D02*
X160540000Y-75060000D01*
%TO.C,R36*%
X161300000Y-72410000D02*
X161300000Y-72590000D01*
X160540000Y-72400000D02*
X160540000Y-72580000D01*
%TO.C,R3*%
X123450000Y-74010000D02*
X123270000Y-74010000D01*
X123440000Y-74770000D02*
X123260000Y-74770000D01*
%TO.C,FB1*%
X177310000Y-93661252D02*
X177310000Y-93138748D01*
X175890000Y-93661252D02*
X175890000Y-93138748D01*
%TO.C,C29*%
X131920000Y-69580000D02*
X132010000Y-69580000D01*
X131920000Y-68860000D02*
X132000000Y-68860000D01*
%TO.C,R9*%
X133737500Y-77310000D02*
X133917500Y-77310000D01*
X133727500Y-78070000D02*
X133907500Y-78070000D01*
D11*
%TO.C,D1*%
X175110000Y-97360000D02*
X175110000Y-93350000D01*
X175110000Y-97360000D02*
X173110000Y-97360000D01*
X173110000Y-97360000D02*
X173110000Y-93350000D01*
D10*
%TO.C,C24*%
X175530000Y-73390000D02*
X175450000Y-73390000D01*
X175530000Y-72670000D02*
X175440000Y-72670000D01*
%TO.C,R8*%
X133707500Y-76090000D02*
X133887500Y-76090000D01*
X133697500Y-76850000D02*
X133877500Y-76850000D01*
%TO.C,J1*%
D12*
X172839293Y-109605707D02*
X175089293Y-109605707D01*
X175089293Y-111855707D01*
X172839293Y-111855707D01*
X172839293Y-109605707D01*
X106764293Y-107005707D02*
X175089293Y-107005707D01*
X175089293Y-111855707D01*
X106764293Y-111855707D01*
X106764293Y-107005707D01*
D11*
%TO.C,U1*%
X170270000Y-85140000D02*
X170020000Y-85390000D01*
X170270000Y-64640000D02*
X170270000Y-85140000D01*
X170270000Y-64640000D02*
X170020000Y-64390000D01*
D10*
X129420000Y-64390000D02*
X129670000Y-64390000D01*
X126870000Y-64390000D02*
X127120000Y-64390000D01*
D11*
X120570000Y-85390000D02*
X170020000Y-85390000D01*
X117390893Y-64390179D02*
X117140893Y-64640179D01*
X117390000Y-64390000D02*
X170020000Y-64390000D01*
X117143036Y-81963036D02*
X120570000Y-85390000D01*
X117140000Y-81960000D02*
X117140000Y-64640000D01*
%TD*%
%LPC*%
D13*
%TO.C,U2*%
X166370000Y-94302500D03*
X165420000Y-96577500D03*
X167320000Y-96577500D03*
%TD*%
D14*
%TO.C,R6*%
X134365000Y-73950000D03*
X133170000Y-73950000D03*
%TD*%
D15*
%TO.C,C22*%
X174922500Y-71070000D03*
X176057500Y-71070000D03*
%TD*%
D16*
%TO.C,C10*%
X147977500Y-97480000D03*
X146842500Y-97480000D03*
%TD*%
D17*
%TO.C,C19*%
X132920000Y-79042500D03*
X132920000Y-80177500D03*
%TD*%
%TO.C,C17*%
X162880000Y-92752500D03*
X162880000Y-93887500D03*
%TD*%
D18*
%TO.C,R12*%
X175332500Y-79380000D03*
X176527500Y-79380000D03*
%TD*%
%TO.C,R14*%
X175340000Y-83040000D03*
X176535000Y-83040000D03*
%TD*%
D14*
%TO.C,R7*%
X134375000Y-75210000D03*
X133180000Y-75210000D03*
%TD*%
D19*
%TO.C,R34*%
X152030000Y-76827500D03*
X152030000Y-75632500D03*
%TD*%
D15*
%TO.C,C25*%
X174922500Y-72050000D03*
X176057500Y-72050000D03*
%TD*%
D20*
%TO.C,D2*%
X173740000Y-104740000D03*
X170440000Y-104740000D03*
%TD*%
D21*
%TO.C,U7*%
X161765000Y-87807500D03*
X161115000Y-87807500D03*
X160465000Y-87807500D03*
X159815000Y-87807500D03*
X159165000Y-87807500D03*
X158515000Y-87807500D03*
X157865000Y-87807500D03*
X157215000Y-87807500D03*
X156565000Y-87807500D03*
X155915000Y-87807500D03*
X155265000Y-87807500D03*
X154615000Y-87807500D03*
X154615000Y-93532500D03*
X155265000Y-93532500D03*
X155915000Y-93532500D03*
X156565000Y-93532500D03*
X157215000Y-93532500D03*
X157865000Y-93532500D03*
X158515000Y-93532500D03*
X159165000Y-93532500D03*
X159815000Y-93532500D03*
X160465000Y-93532500D03*
X161115000Y-93532500D03*
X161765000Y-93532500D03*
%TD*%
D22*
%TO.C,U4*%
X158172500Y-99325000D03*
X156902500Y-99325000D03*
X155632500Y-99325000D03*
X154362500Y-99325000D03*
X153092500Y-99325000D03*
X151822500Y-99325000D03*
X150552500Y-99325000D03*
X149282500Y-99325000D03*
X149282500Y-104475000D03*
X150552500Y-104475000D03*
X151822500Y-104475000D03*
X153092500Y-104475000D03*
X154362500Y-104475000D03*
X155632500Y-104475000D03*
X156902500Y-104475000D03*
X158172500Y-104475000D03*
%TD*%
D23*
%TO.C,C5*%
X175237500Y-98660000D03*
X176962500Y-98660000D03*
%TD*%
D24*
%TO.C,C2*%
X170160000Y-96447500D03*
X170160000Y-95312500D03*
%TD*%
D15*
%TO.C,C20*%
X174922500Y-69110000D03*
X176057500Y-69110000D03*
%TD*%
D25*
%TO.C,U8*%
X131290000Y-80260000D03*
X131290000Y-78990000D03*
X131290000Y-77720000D03*
X131290000Y-76450000D03*
X131290000Y-75180000D03*
X131290000Y-73910000D03*
X131290000Y-72640000D03*
X131290000Y-71370000D03*
X126140000Y-71370000D03*
X126140000Y-72640000D03*
X126140000Y-73910000D03*
X126140000Y-75180000D03*
X126140000Y-76450000D03*
X126140000Y-77720000D03*
X126140000Y-78990000D03*
X126140000Y-80260000D03*
%TD*%
D16*
%TO.C,C6*%
X168217500Y-100860000D03*
X167082500Y-100860000D03*
%TD*%
D15*
%TO.C,C18*%
X162972500Y-87380000D03*
X164107500Y-87380000D03*
%TD*%
D14*
%TO.C,R32*%
X163257500Y-75570000D03*
X162062500Y-75570000D03*
%TD*%
D26*
%TO.C,C4*%
X163410000Y-99482500D03*
X163410000Y-97757500D03*
%TD*%
D15*
%TO.C,C30*%
X153992500Y-72660000D03*
X155127500Y-72660000D03*
%TD*%
D13*
%TO.C,U3*%
X173520000Y-99612500D03*
X171620000Y-99612500D03*
X171620000Y-101887500D03*
X172570000Y-101887500D03*
X173520000Y-101887500D03*
%TD*%
D19*
%TO.C,R35*%
X150930000Y-79217500D03*
X150930000Y-78022500D03*
%TD*%
D15*
%TO.C,C21*%
X174922500Y-68130000D03*
X176057500Y-68130000D03*
%TD*%
D27*
%TO.C,D3*%
X172680000Y-65100000D03*
X175980000Y-65100000D03*
%TD*%
D22*
%TO.C,U5*%
X146670000Y-99300000D03*
X145400000Y-99300000D03*
X144130000Y-99300000D03*
X142860000Y-99300000D03*
X141590000Y-99300000D03*
X140320000Y-99300000D03*
X139050000Y-99300000D03*
X137780000Y-99300000D03*
X137780000Y-104450000D03*
X139050000Y-104450000D03*
X140320000Y-104450000D03*
X141590000Y-104450000D03*
X142860000Y-104450000D03*
X144130000Y-104450000D03*
X145400000Y-104450000D03*
X146670000Y-104450000D03*
%TD*%
D15*
%TO.C,C15*%
X175342500Y-78350000D03*
X176477500Y-78350000D03*
%TD*%
D24*
%TO.C,C3*%
X169050000Y-96437500D03*
X169050000Y-95302500D03*
%TD*%
D28*
%TO.C,C1*%
X171790000Y-94927500D03*
X171790000Y-96652500D03*
%TD*%
D18*
%TO.C,R11*%
X108940000Y-81280000D03*
X110135000Y-81280000D03*
%TD*%
%TO.C,R4*%
X122755000Y-76450000D03*
X123950000Y-76450000D03*
%TD*%
D19*
%TO.C,R13*%
X174210000Y-80617500D03*
X174210000Y-79422500D03*
%TD*%
D15*
%TO.C,C23*%
X174922500Y-70090000D03*
X176057500Y-70090000D03*
%TD*%
%TO.C,C16*%
X175370000Y-84040000D03*
X176505000Y-84040000D03*
%TD*%
D16*
%TO.C,C11*%
X134347500Y-97610000D03*
X133212500Y-97610000D03*
%TD*%
D14*
%TO.C,R10*%
X110125000Y-82330000D03*
X108930000Y-82330000D03*
%TD*%
D17*
%TO.C,C8*%
X135740000Y-97402500D03*
X135740000Y-98537500D03*
%TD*%
D29*
%TO.C,U9*%
X153925000Y-74322500D03*
X153925000Y-75592500D03*
X153925000Y-76862500D03*
X153925000Y-78132500D03*
X158875000Y-78132500D03*
X158875000Y-76862500D03*
X158875000Y-75592500D03*
X158875000Y-74322500D03*
%TD*%
D30*
%TO.C,R1*%
X168847868Y-102088268D03*
X167022868Y-102088268D03*
%TD*%
D31*
%TO.C,C13*%
X152550000Y-96017500D03*
X152550000Y-93942500D03*
%TD*%
D15*
%TO.C,C14*%
X175392500Y-82010000D03*
X176527500Y-82010000D03*
%TD*%
D32*
%TO.C,L1*%
X176420000Y-103395000D03*
X176420000Y-101345000D03*
%TD*%
D18*
%TO.C,R5*%
X122752500Y-78510000D03*
X123947500Y-78510000D03*
%TD*%
D15*
%TO.C,C26*%
X174922500Y-74990000D03*
X176057500Y-74990000D03*
%TD*%
%TO.C,C12*%
X175362500Y-80390000D03*
X176497500Y-80390000D03*
%TD*%
D17*
%TO.C,C28*%
X177340000Y-64822500D03*
X177340000Y-65957500D03*
%TD*%
D22*
%TO.C,U6*%
X134400000Y-99290000D03*
X133130000Y-99290000D03*
X131860000Y-99290000D03*
X130590000Y-99290000D03*
X129320000Y-99290000D03*
X128050000Y-99290000D03*
X126780000Y-99290000D03*
X125510000Y-99290000D03*
X125510000Y-104440000D03*
X126780000Y-104440000D03*
X128050000Y-104440000D03*
X129320000Y-104440000D03*
X130590000Y-104440000D03*
X131860000Y-104440000D03*
X133130000Y-104440000D03*
X134400000Y-104440000D03*
%TD*%
D33*
%TO.C,C7*%
X165682500Y-104310000D03*
X167757500Y-104310000D03*
%TD*%
D34*
%TO.C,R2*%
X166147500Y-99560000D03*
X167972500Y-99560000D03*
%TD*%
D24*
%TO.C,C9*%
X159480000Y-100797500D03*
X159480000Y-99662500D03*
%TD*%
D35*
%TO.C,R15*%
X174230000Y-81762500D03*
X174230000Y-82957500D03*
%TD*%
D15*
%TO.C,C27*%
X174922500Y-74010000D03*
X176057500Y-74010000D03*
%TD*%
D19*
%TO.C,R37*%
X150800000Y-75567500D03*
X150800000Y-74372500D03*
%TD*%
%TO.C,R33*%
X160920000Y-75567500D03*
X160920000Y-74372500D03*
%TD*%
%TO.C,R36*%
X160920000Y-73087500D03*
X160920000Y-71892500D03*
%TD*%
D18*
%TO.C,R3*%
X122762500Y-74390000D03*
X123957500Y-74390000D03*
%TD*%
D36*
%TO.C,FB1*%
X176600000Y-92375000D03*
X176600000Y-94425000D03*
%TD*%
D16*
%TO.C,C29*%
X132527500Y-69220000D03*
X131392500Y-69220000D03*
%TD*%
D14*
%TO.C,R9*%
X134415000Y-77690000D03*
X133220000Y-77690000D03*
%TD*%
D37*
%TO.C,D1*%
X174110000Y-93350000D03*
X174110000Y-96650000D03*
%TD*%
D15*
%TO.C,C24*%
X174922500Y-73030000D03*
X176057500Y-73030000D03*
%TD*%
D14*
%TO.C,R8*%
X134385000Y-76470000D03*
X133190000Y-76470000D03*
%TD*%
D38*
%TO.C,J1*%
X107969293Y-108180707D03*
X107969293Y-110720707D03*
X110509293Y-108180707D03*
X110509293Y-110720707D03*
X113049293Y-108180707D03*
X113049293Y-110720707D03*
X115589293Y-108180707D03*
X115589293Y-110720707D03*
X118129293Y-108180707D03*
X118129293Y-110720707D03*
X120669293Y-108180707D03*
X120669293Y-110720707D03*
X123209293Y-108180707D03*
X123209293Y-110720707D03*
X125749293Y-108180707D03*
X125749293Y-110720707D03*
X128289293Y-108180707D03*
X128289293Y-110720707D03*
X130829293Y-108180707D03*
X130829293Y-110720707D03*
X133369293Y-108180707D03*
X133369293Y-110720707D03*
X135909293Y-108180707D03*
X135909293Y-110720707D03*
X138449293Y-108180707D03*
X138449293Y-110720707D03*
X140989293Y-108180707D03*
X140989293Y-110720707D03*
X143529293Y-108180707D03*
X143529293Y-110720707D03*
X146069293Y-108180707D03*
X146069293Y-110720707D03*
X148609293Y-108180707D03*
X148609293Y-110720707D03*
X151149293Y-108180707D03*
X151149293Y-110720707D03*
X153689293Y-108180707D03*
X153689293Y-110720707D03*
X156229293Y-108180707D03*
X156229293Y-110720707D03*
X158769293Y-108180707D03*
X158769293Y-110720707D03*
X161309293Y-108180707D03*
X161309293Y-110720707D03*
X163849293Y-108180707D03*
X163849293Y-110720707D03*
X166389293Y-108180707D03*
X166389293Y-110720707D03*
X168929293Y-108180707D03*
X168929293Y-110720707D03*
X171469293Y-108180707D03*
X171469293Y-110720707D03*
X174009293Y-108180707D03*
X174009293Y-110720707D03*
%TD*%
D39*
%TO.C,U1*%
X168895000Y-71100000D03*
X168895000Y-73640000D03*
D40*
X168895000Y-76180000D03*
D39*
X168895000Y-78720000D03*
X120640000Y-66000000D03*
X123180000Y-66000000D03*
D40*
X125720000Y-66000000D03*
D39*
X128260000Y-66000000D03*
X130800000Y-66000000D03*
D40*
X133340000Y-66000000D03*
D39*
X135880000Y-66000000D03*
X138420000Y-66000000D03*
X140960000Y-66000000D03*
X143500000Y-66000000D03*
X146040000Y-66000000D03*
D40*
X148580000Y-66000000D03*
D39*
X151120000Y-66000000D03*
X153660000Y-66000000D03*
X156200000Y-66000000D03*
X158740000Y-66000000D03*
X161280000Y-66000000D03*
X163820000Y-66000000D03*
X166360000Y-66000000D03*
X168900000Y-66000000D03*
X168900000Y-83780000D03*
X166360000Y-83780000D03*
X163820000Y-83780000D03*
X161280000Y-83780000D03*
X158740000Y-83780000D03*
D40*
X156200000Y-83780000D03*
D39*
X153660000Y-83780000D03*
X151120000Y-83780000D03*
X148580000Y-83780000D03*
X146040000Y-83780000D03*
X143500000Y-83780000D03*
X140960000Y-83780000D03*
X138420000Y-83780000D03*
X135880000Y-83780000D03*
D40*
X133340000Y-83780000D03*
D39*
X130800000Y-83780000D03*
X128260000Y-83780000D03*
X125720000Y-83780000D03*
X123180000Y-83780000D03*
X120640000Y-83780000D03*
%TD*%
D41*
%TO.C,MHP1*%
X106480000Y-62630000D03*
%TD*%
%TO.C,MHP2*%
X186650000Y-112620000D03*
%TD*%
%LPD*%
M02*
