%TF.GenerationSoftware,KiCad,Pcbnew,9.0.7*%
%TF.CreationDate,2026-02-25T23:12:41+00:00*%
%TF.ProjectId,GG_LCD_DIY,47475f4c-4344-45f4-9449-592e6b696361,rev?*%
%TF.SameCoordinates,Original*%
%TF.FileFunction,Legend,Top*%
%TF.FilePolarity,Positive*%
%FSLAX46Y46*%
G04 Gerber Fmt 4.6, Leading zero omitted, Abs format (unit mm)*
G04 Created by KiCad (PCBNEW 9.0.7) date 2026-02-25 23:12:41*
%MOMM*%
%LPD*%
G01*
G04 APERTURE LIST*
G04 Aperture macros list*
%AMRoundRect*
0 Rectangle with rounded corners*
0 $1 Rounding radius*
0 $2 $3 $4 $5 $6 $7 $8 $9 X,Y pos of 4 corners*
0 Add a 4 corners polygon primitive as box body*
4,1,4,$2,$3,$4,$5,$6,$7,$8,$9,$2,$3,0*
0 Add four circle primitives for the rounded corners*
1,1,$1+$1,$2,$3*
1,1,$1+$1,$4,$5*
1,1,$1+$1,$6,$7*
1,1,$1+$1,$8,$9*
0 Add four rect primitives between the rounded corners*
20,1,$1+$1,$2,$3,$4,$5,0*
20,1,$1+$1,$4,$5,$6,$7,0*
20,1,$1+$1,$6,$7,$8,$9,0*
20,1,$1+$1,$8,$9,$2,$3,0*%
%AMFreePoly0*
4,1,5,1.100000,-2.190000,-2.550000,-2.190000,-2.550000,1.600000,1.100000,1.600000,1.100000,-2.190000,1.100000,-2.190000,$1*%
%AMFreePoly1*
4,1,5,1.079392,-2.580000,-1.380000,-2.580000,-1.380000,1.260000,1.080354,1.260000,1.079392,-2.580000,1.079392,-2.580000,$1*%
G04 Aperture macros list end*
%ADD10C,0.150000*%
%ADD11C,0.500000*%
%ADD12C,0.120000*%
%ADD13C,0.151000*%
%ADD14C,0.200000*%
%ADD15C,0.300000*%
%ADD16C,0.000000*%
%ADD17O,1.700000X1.700000*%
%ADD18R,1.700000X1.700000*%
%ADD19C,1.000000*%
%ADD20R,1.500000X0.300000*%
%ADD21R,3.000000X3.000000*%
%ADD22C,1.300000*%
%ADD23RoundRect,0.075000X0.075000X0.675000X-0.075000X0.675000X-0.075000X-0.675000X0.075000X-0.675000X0*%
%ADD24FreePoly0,180.000000*%
%ADD25FreePoly1,180.000000*%
%ADD26R,2.600000X0.300000*%
%ADD27O,3.300000X2.000000*%
%ADD28O,2.300000X2.000000*%
G04 APERTURE END LIST*
D10*
X180200000Y-92810000D02*
X179964100Y-92574100D01*
X180200000Y-92810000D02*
X179964100Y-93045900D01*
X127687950Y-95918250D02*
X127452050Y-95682350D01*
X179501116Y-92809721D02*
X180200000Y-92810000D01*
X126989066Y-95917971D02*
X127687950Y-95918250D01*
X174600000Y-69100000D02*
X187400000Y-69100000D01*
X127687950Y-95918250D02*
X127452050Y-96154150D01*
X179170588Y-93069819D02*
X178599160Y-93069819D01*
X178884874Y-93069819D02*
X178884874Y-92069819D01*
X178884874Y-92069819D02*
X178789636Y-92212676D01*
X178789636Y-92212676D02*
X178694398Y-92307914D01*
X178694398Y-92307914D02*
X178599160Y-92355533D01*
D11*
X177190476Y-65429294D02*
X177190476Y-63429294D01*
X177190476Y-63429294D02*
X178142857Y-63429294D01*
X178142857Y-63429294D02*
X178380952Y-63524532D01*
X178380952Y-63524532D02*
X178499999Y-63619770D01*
X178499999Y-63619770D02*
X178619047Y-63810246D01*
X178619047Y-63810246D02*
X178619047Y-64095960D01*
X178619047Y-64095960D02*
X178499999Y-64286436D01*
X178499999Y-64286436D02*
X178380952Y-64381675D01*
X178380952Y-64381675D02*
X178142857Y-64476913D01*
X178142857Y-64476913D02*
X177190476Y-64476913D01*
X179690476Y-65429294D02*
X179690476Y-63429294D01*
X182309523Y-65238817D02*
X182190475Y-65334056D01*
X182190475Y-65334056D02*
X181833333Y-65429294D01*
X181833333Y-65429294D02*
X181595237Y-65429294D01*
X181595237Y-65429294D02*
X181238094Y-65334056D01*
X181238094Y-65334056D02*
X180999999Y-65143579D01*
X180999999Y-65143579D02*
X180880952Y-64953103D01*
X180880952Y-64953103D02*
X180761904Y-64572151D01*
X180761904Y-64572151D02*
X180761904Y-64286436D01*
X180761904Y-64286436D02*
X180880952Y-63905484D01*
X180880952Y-63905484D02*
X180999999Y-63715008D01*
X180999999Y-63715008D02*
X181238094Y-63524532D01*
X181238094Y-63524532D02*
X181595237Y-63429294D01*
X181595237Y-63429294D02*
X181833333Y-63429294D01*
X181833333Y-63429294D02*
X182190475Y-63524532D01*
X182190475Y-63524532D02*
X182309523Y-63619770D01*
X183857142Y-63429294D02*
X184333333Y-63429294D01*
X184333333Y-63429294D02*
X184571428Y-63524532D01*
X184571428Y-63524532D02*
X184809523Y-63715008D01*
X184809523Y-63715008D02*
X184928571Y-64095960D01*
X184928571Y-64095960D02*
X184928571Y-64762627D01*
X184928571Y-64762627D02*
X184809523Y-65143579D01*
X184809523Y-65143579D02*
X184571428Y-65334056D01*
X184571428Y-65334056D02*
X184333333Y-65429294D01*
X184333333Y-65429294D02*
X183857142Y-65429294D01*
X183857142Y-65429294D02*
X183619047Y-65334056D01*
X183619047Y-65334056D02*
X183380952Y-65143579D01*
X183380952Y-65143579D02*
X183261904Y-64762627D01*
X183261904Y-64762627D02*
X183261904Y-64095960D01*
X183261904Y-64095960D02*
X183380952Y-63715008D01*
X183380952Y-63715008D02*
X183619047Y-63524532D01*
X183619047Y-63524532D02*
X183857142Y-63429294D01*
X175940475Y-66744420D02*
X175702380Y-66649182D01*
X175702380Y-66649182D02*
X175345237Y-66649182D01*
X175345237Y-66649182D02*
X174988094Y-66744420D01*
X174988094Y-66744420D02*
X174749999Y-66934896D01*
X174749999Y-66934896D02*
X174630952Y-67125372D01*
X174630952Y-67125372D02*
X174511904Y-67506324D01*
X174511904Y-67506324D02*
X174511904Y-67792039D01*
X174511904Y-67792039D02*
X174630952Y-68172991D01*
X174630952Y-68172991D02*
X174749999Y-68363467D01*
X174749999Y-68363467D02*
X174988094Y-68553944D01*
X174988094Y-68553944D02*
X175345237Y-68649182D01*
X175345237Y-68649182D02*
X175583333Y-68649182D01*
X175583333Y-68649182D02*
X175940475Y-68553944D01*
X175940475Y-68553944D02*
X176059523Y-68458705D01*
X176059523Y-68458705D02*
X176059523Y-67792039D01*
X176059523Y-67792039D02*
X175583333Y-67792039D01*
X178440475Y-66744420D02*
X178202380Y-66649182D01*
X178202380Y-66649182D02*
X177845237Y-66649182D01*
X177845237Y-66649182D02*
X177488094Y-66744420D01*
X177488094Y-66744420D02*
X177249999Y-66934896D01*
X177249999Y-66934896D02*
X177130952Y-67125372D01*
X177130952Y-67125372D02*
X177011904Y-67506324D01*
X177011904Y-67506324D02*
X177011904Y-67792039D01*
X177011904Y-67792039D02*
X177130952Y-68172991D01*
X177130952Y-68172991D02*
X177249999Y-68363467D01*
X177249999Y-68363467D02*
X177488094Y-68553944D01*
X177488094Y-68553944D02*
X177845237Y-68649182D01*
X177845237Y-68649182D02*
X178083333Y-68649182D01*
X178083333Y-68649182D02*
X178440475Y-68553944D01*
X178440475Y-68553944D02*
X178559523Y-68458705D01*
X178559523Y-68458705D02*
X178559523Y-67792039D01*
X178559523Y-67792039D02*
X178083333Y-67792039D01*
X182726190Y-68649182D02*
X181535714Y-68649182D01*
X181535714Y-68649182D02*
X181535714Y-66649182D01*
X184988095Y-68458705D02*
X184869047Y-68553944D01*
X184869047Y-68553944D02*
X184511905Y-68649182D01*
X184511905Y-68649182D02*
X184273809Y-68649182D01*
X184273809Y-68649182D02*
X183916666Y-68553944D01*
X183916666Y-68553944D02*
X183678571Y-68363467D01*
X183678571Y-68363467D02*
X183559524Y-68172991D01*
X183559524Y-68172991D02*
X183440476Y-67792039D01*
X183440476Y-67792039D02*
X183440476Y-67506324D01*
X183440476Y-67506324D02*
X183559524Y-67125372D01*
X183559524Y-67125372D02*
X183678571Y-66934896D01*
X183678571Y-66934896D02*
X183916666Y-66744420D01*
X183916666Y-66744420D02*
X184273809Y-66649182D01*
X184273809Y-66649182D02*
X184511905Y-66649182D01*
X184511905Y-66649182D02*
X184869047Y-66744420D01*
X184869047Y-66744420D02*
X184988095Y-66839658D01*
X186059524Y-68649182D02*
X186059524Y-66649182D01*
X186059524Y-66649182D02*
X186654762Y-66649182D01*
X186654762Y-66649182D02*
X187011905Y-66744420D01*
X187011905Y-66744420D02*
X187250000Y-66934896D01*
X187250000Y-66934896D02*
X187369047Y-67125372D01*
X187369047Y-67125372D02*
X187488095Y-67506324D01*
X187488095Y-67506324D02*
X187488095Y-67792039D01*
X187488095Y-67792039D02*
X187369047Y-68172991D01*
X187369047Y-68172991D02*
X187250000Y-68363467D01*
X187250000Y-68363467D02*
X187011905Y-68553944D01*
X187011905Y-68553944D02*
X186654762Y-68649182D01*
X186654762Y-68649182D02*
X186059524Y-68649182D01*
D10*
X156470588Y-96569819D02*
X155899160Y-96569819D01*
X156184874Y-96569819D02*
X156184874Y-95569819D01*
X156184874Y-95569819D02*
X156089636Y-95712676D01*
X156089636Y-95712676D02*
X155994398Y-95807914D01*
X155994398Y-95807914D02*
X155899160Y-95855533D01*
X115950839Y-94639875D02*
X116284172Y-95639875D01*
X116284172Y-95639875D02*
X116617505Y-94639875D01*
X116950839Y-95639875D02*
X116950839Y-94973208D01*
X116950839Y-94639875D02*
X116903220Y-94687494D01*
X116903220Y-94687494D02*
X116950839Y-94735113D01*
X116950839Y-94735113D02*
X116998458Y-94687494D01*
X116998458Y-94687494D02*
X116950839Y-94639875D01*
X116950839Y-94639875D02*
X116950839Y-94735113D01*
X117855600Y-95639875D02*
X117855600Y-94639875D01*
X117855600Y-95592256D02*
X117760362Y-95639875D01*
X117760362Y-95639875D02*
X117569886Y-95639875D01*
X117569886Y-95639875D02*
X117474648Y-95592256D01*
X117474648Y-95592256D02*
X117427029Y-95544636D01*
X117427029Y-95544636D02*
X117379410Y-95449398D01*
X117379410Y-95449398D02*
X117379410Y-95163684D01*
X117379410Y-95163684D02*
X117427029Y-95068446D01*
X117427029Y-95068446D02*
X117474648Y-95020827D01*
X117474648Y-95020827D02*
X117569886Y-94973208D01*
X117569886Y-94973208D02*
X117760362Y-94973208D01*
X117760362Y-94973208D02*
X117855600Y-95020827D01*
X118712743Y-95592256D02*
X118617505Y-95639875D01*
X118617505Y-95639875D02*
X118427029Y-95639875D01*
X118427029Y-95639875D02*
X118331791Y-95592256D01*
X118331791Y-95592256D02*
X118284172Y-95497017D01*
X118284172Y-95497017D02*
X118284172Y-95116065D01*
X118284172Y-95116065D02*
X118331791Y-95020827D01*
X118331791Y-95020827D02*
X118427029Y-94973208D01*
X118427029Y-94973208D02*
X118617505Y-94973208D01*
X118617505Y-94973208D02*
X118712743Y-95020827D01*
X118712743Y-95020827D02*
X118760362Y-95116065D01*
X118760362Y-95116065D02*
X118760362Y-95211303D01*
X118760362Y-95211303D02*
X118284172Y-95306541D01*
X119331791Y-95639875D02*
X119236553Y-95592256D01*
X119236553Y-95592256D02*
X119188934Y-95544636D01*
X119188934Y-95544636D02*
X119141315Y-95449398D01*
X119141315Y-95449398D02*
X119141315Y-95163684D01*
X119141315Y-95163684D02*
X119188934Y-95068446D01*
X119188934Y-95068446D02*
X119236553Y-95020827D01*
X119236553Y-95020827D02*
X119331791Y-94973208D01*
X119331791Y-94973208D02*
X119474648Y-94973208D01*
X119474648Y-94973208D02*
X119569886Y-95020827D01*
X119569886Y-95020827D02*
X119617505Y-95068446D01*
X119617505Y-95068446D02*
X119665124Y-95163684D01*
X119665124Y-95163684D02*
X119665124Y-95449398D01*
X119665124Y-95449398D02*
X119617505Y-95544636D01*
X119617505Y-95544636D02*
X119569886Y-95592256D01*
X119569886Y-95592256D02*
X119474648Y-95639875D01*
X119474648Y-95639875D02*
X119331791Y-95639875D01*
X121046077Y-94639875D02*
X121236553Y-94639875D01*
X121236553Y-94639875D02*
X121331791Y-94687494D01*
X121331791Y-94687494D02*
X121427029Y-94782732D01*
X121427029Y-94782732D02*
X121474648Y-94973208D01*
X121474648Y-94973208D02*
X121474648Y-95306541D01*
X121474648Y-95306541D02*
X121427029Y-95497017D01*
X121427029Y-95497017D02*
X121331791Y-95592256D01*
X121331791Y-95592256D02*
X121236553Y-95639875D01*
X121236553Y-95639875D02*
X121046077Y-95639875D01*
X121046077Y-95639875D02*
X120950839Y-95592256D01*
X120950839Y-95592256D02*
X120855601Y-95497017D01*
X120855601Y-95497017D02*
X120807982Y-95306541D01*
X120807982Y-95306541D02*
X120807982Y-94973208D01*
X120807982Y-94973208D02*
X120855601Y-94782732D01*
X120855601Y-94782732D02*
X120950839Y-94687494D01*
X120950839Y-94687494D02*
X121046077Y-94639875D01*
X122331791Y-94973208D02*
X122331791Y-95639875D01*
X121903220Y-94973208D02*
X121903220Y-95497017D01*
X121903220Y-95497017D02*
X121950839Y-95592256D01*
X121950839Y-95592256D02*
X122046077Y-95639875D01*
X122046077Y-95639875D02*
X122188934Y-95639875D01*
X122188934Y-95639875D02*
X122284172Y-95592256D01*
X122284172Y-95592256D02*
X122331791Y-95544636D01*
X122665125Y-94973208D02*
X123046077Y-94973208D01*
X122807982Y-94639875D02*
X122807982Y-95497017D01*
X122807982Y-95497017D02*
X122855601Y-95592256D01*
X122855601Y-95592256D02*
X122950839Y-95639875D01*
X122950839Y-95639875D02*
X123046077Y-95639875D01*
X118331791Y-96249819D02*
X118903219Y-96249819D01*
X118617505Y-97249819D02*
X118617505Y-96249819D01*
X119141315Y-96583152D02*
X119379410Y-97249819D01*
X119617505Y-96583152D02*
X119379410Y-97249819D01*
X119379410Y-97249819D02*
X119284172Y-97487914D01*
X119284172Y-97487914D02*
X119236553Y-97535533D01*
X119236553Y-97535533D02*
X119141315Y-97583152D01*
X119998458Y-96583152D02*
X119998458Y-97583152D01*
X119998458Y-96630771D02*
X120093696Y-96583152D01*
X120093696Y-96583152D02*
X120284172Y-96583152D01*
X120284172Y-96583152D02*
X120379410Y-96630771D01*
X120379410Y-96630771D02*
X120427029Y-96678390D01*
X120427029Y-96678390D02*
X120474648Y-96773628D01*
X120474648Y-96773628D02*
X120474648Y-97059342D01*
X120474648Y-97059342D02*
X120427029Y-97154580D01*
X120427029Y-97154580D02*
X120379410Y-97202200D01*
X120379410Y-97202200D02*
X120284172Y-97249819D01*
X120284172Y-97249819D02*
X120093696Y-97249819D01*
X120093696Y-97249819D02*
X119998458Y-97202200D01*
X121284172Y-97202200D02*
X121188934Y-97249819D01*
X121188934Y-97249819D02*
X120998458Y-97249819D01*
X120998458Y-97249819D02*
X120903220Y-97202200D01*
X120903220Y-97202200D02*
X120855601Y-97106961D01*
X120855601Y-97106961D02*
X120855601Y-96726009D01*
X120855601Y-96726009D02*
X120903220Y-96630771D01*
X120903220Y-96630771D02*
X120998458Y-96583152D01*
X120998458Y-96583152D02*
X121188934Y-96583152D01*
X121188934Y-96583152D02*
X121284172Y-96630771D01*
X121284172Y-96630771D02*
X121331791Y-96726009D01*
X121331791Y-96726009D02*
X121331791Y-96821247D01*
X121331791Y-96821247D02*
X120855601Y-96916485D01*
X122474649Y-96964104D02*
X122950839Y-96964104D01*
X122379411Y-97249819D02*
X122712744Y-96249819D01*
X122712744Y-96249819D02*
X123046077Y-97249819D01*
X125632969Y-95389819D02*
X125156779Y-95389819D01*
X125156779Y-95389819D02*
X125109160Y-95866009D01*
X125109160Y-95866009D02*
X125156779Y-95818390D01*
X125156779Y-95818390D02*
X125252017Y-95770771D01*
X125252017Y-95770771D02*
X125490112Y-95770771D01*
X125490112Y-95770771D02*
X125585350Y-95818390D01*
X125585350Y-95818390D02*
X125632969Y-95866009D01*
X125632969Y-95866009D02*
X125680588Y-95961247D01*
X125680588Y-95961247D02*
X125680588Y-96199342D01*
X125680588Y-96199342D02*
X125632969Y-96294580D01*
X125632969Y-96294580D02*
X125585350Y-96342200D01*
X125585350Y-96342200D02*
X125490112Y-96389819D01*
X125490112Y-96389819D02*
X125252017Y-96389819D01*
X125252017Y-96389819D02*
X125156779Y-96342200D01*
X125156779Y-96342200D02*
X125109160Y-96294580D01*
X126537731Y-95723152D02*
X126537731Y-96389819D01*
X126299636Y-95342200D02*
X126061541Y-96056485D01*
X126061541Y-96056485D02*
X126680588Y-96056485D01*
X118546779Y-62309819D02*
X118546779Y-63119342D01*
X118546779Y-63119342D02*
X118594398Y-63214580D01*
X118594398Y-63214580D02*
X118642017Y-63262200D01*
X118642017Y-63262200D02*
X118737255Y-63309819D01*
X118737255Y-63309819D02*
X118927731Y-63309819D01*
X118927731Y-63309819D02*
X119022969Y-63262200D01*
X119022969Y-63262200D02*
X119070588Y-63214580D01*
X119070588Y-63214580D02*
X119118207Y-63119342D01*
X119118207Y-63119342D02*
X119118207Y-62309819D01*
X119737255Y-63309819D02*
X119642017Y-63262200D01*
X119642017Y-63262200D02*
X119594398Y-63166961D01*
X119594398Y-63166961D02*
X119594398Y-62309819D01*
X119975351Y-62643152D02*
X120356303Y-62643152D01*
X120118208Y-62309819D02*
X120118208Y-63166961D01*
X120118208Y-63166961D02*
X120165827Y-63262200D01*
X120165827Y-63262200D02*
X120261065Y-63309819D01*
X120261065Y-63309819D02*
X120356303Y-63309819D01*
X120689637Y-63309819D02*
X120689637Y-62643152D01*
X120689637Y-62309819D02*
X120642018Y-62357438D01*
X120642018Y-62357438D02*
X120689637Y-62405057D01*
X120689637Y-62405057D02*
X120737256Y-62357438D01*
X120737256Y-62357438D02*
X120689637Y-62309819D01*
X120689637Y-62309819D02*
X120689637Y-62405057D01*
X121165827Y-63309819D02*
X121165827Y-62643152D01*
X121165827Y-62738390D02*
X121213446Y-62690771D01*
X121213446Y-62690771D02*
X121308684Y-62643152D01*
X121308684Y-62643152D02*
X121451541Y-62643152D01*
X121451541Y-62643152D02*
X121546779Y-62690771D01*
X121546779Y-62690771D02*
X121594398Y-62786009D01*
X121594398Y-62786009D02*
X121594398Y-63309819D01*
X121594398Y-62786009D02*
X121642017Y-62690771D01*
X121642017Y-62690771D02*
X121737255Y-62643152D01*
X121737255Y-62643152D02*
X121880112Y-62643152D01*
X121880112Y-62643152D02*
X121975351Y-62690771D01*
X121975351Y-62690771D02*
X122022970Y-62786009D01*
X122022970Y-62786009D02*
X122022970Y-63309819D01*
X122927731Y-63309819D02*
X122927731Y-62786009D01*
X122927731Y-62786009D02*
X122880112Y-62690771D01*
X122880112Y-62690771D02*
X122784874Y-62643152D01*
X122784874Y-62643152D02*
X122594398Y-62643152D01*
X122594398Y-62643152D02*
X122499160Y-62690771D01*
X122927731Y-63262200D02*
X122832493Y-63309819D01*
X122832493Y-63309819D02*
X122594398Y-63309819D01*
X122594398Y-63309819D02*
X122499160Y-63262200D01*
X122499160Y-63262200D02*
X122451541Y-63166961D01*
X122451541Y-63166961D02*
X122451541Y-63071723D01*
X122451541Y-63071723D02*
X122499160Y-62976485D01*
X122499160Y-62976485D02*
X122594398Y-62928866D01*
X122594398Y-62928866D02*
X122832493Y-62928866D01*
X122832493Y-62928866D02*
X122927731Y-62881247D01*
X123261065Y-62643152D02*
X123642017Y-62643152D01*
X123403922Y-62309819D02*
X123403922Y-63166961D01*
X123403922Y-63166961D02*
X123451541Y-63262200D01*
X123451541Y-63262200D02*
X123546779Y-63309819D01*
X123546779Y-63309819D02*
X123642017Y-63309819D01*
X124356303Y-63262200D02*
X124261065Y-63309819D01*
X124261065Y-63309819D02*
X124070589Y-63309819D01*
X124070589Y-63309819D02*
X123975351Y-63262200D01*
X123975351Y-63262200D02*
X123927732Y-63166961D01*
X123927732Y-63166961D02*
X123927732Y-62786009D01*
X123927732Y-62786009D02*
X123975351Y-62690771D01*
X123975351Y-62690771D02*
X124070589Y-62643152D01*
X124070589Y-62643152D02*
X124261065Y-62643152D01*
X124261065Y-62643152D02*
X124356303Y-62690771D01*
X124356303Y-62690771D02*
X124403922Y-62786009D01*
X124403922Y-62786009D02*
X124403922Y-62881247D01*
X124403922Y-62881247D02*
X123927732Y-62976485D01*
X125594399Y-63309819D02*
X125594399Y-62309819D01*
X125594399Y-62309819D02*
X125975351Y-62309819D01*
X125975351Y-62309819D02*
X126070589Y-62357438D01*
X126070589Y-62357438D02*
X126118208Y-62405057D01*
X126118208Y-62405057D02*
X126165827Y-62500295D01*
X126165827Y-62500295D02*
X126165827Y-62643152D01*
X126165827Y-62643152D02*
X126118208Y-62738390D01*
X126118208Y-62738390D02*
X126070589Y-62786009D01*
X126070589Y-62786009D02*
X125975351Y-62833628D01*
X125975351Y-62833628D02*
X125594399Y-62833628D01*
X126594399Y-63309819D02*
X126594399Y-62643152D01*
X126594399Y-62309819D02*
X126546780Y-62357438D01*
X126546780Y-62357438D02*
X126594399Y-62405057D01*
X126594399Y-62405057D02*
X126642018Y-62357438D01*
X126642018Y-62357438D02*
X126594399Y-62309819D01*
X126594399Y-62309819D02*
X126594399Y-62405057D01*
X127499160Y-63262200D02*
X127403922Y-63309819D01*
X127403922Y-63309819D02*
X127213446Y-63309819D01*
X127213446Y-63309819D02*
X127118208Y-63262200D01*
X127118208Y-63262200D02*
X127070589Y-63214580D01*
X127070589Y-63214580D02*
X127022970Y-63119342D01*
X127022970Y-63119342D02*
X127022970Y-62833628D01*
X127022970Y-62833628D02*
X127070589Y-62738390D01*
X127070589Y-62738390D02*
X127118208Y-62690771D01*
X127118208Y-62690771D02*
X127213446Y-62643152D01*
X127213446Y-62643152D02*
X127403922Y-62643152D01*
X127403922Y-62643152D02*
X127499160Y-62690771D01*
X128070589Y-63309819D02*
X127975351Y-63262200D01*
X127975351Y-63262200D02*
X127927732Y-63214580D01*
X127927732Y-63214580D02*
X127880113Y-63119342D01*
X127880113Y-63119342D02*
X127880113Y-62833628D01*
X127880113Y-62833628D02*
X127927732Y-62738390D01*
X127927732Y-62738390D02*
X127975351Y-62690771D01*
X127975351Y-62690771D02*
X128070589Y-62643152D01*
X128070589Y-62643152D02*
X128213446Y-62643152D01*
X128213446Y-62643152D02*
X128308684Y-62690771D01*
X128308684Y-62690771D02*
X128356303Y-62738390D01*
X128356303Y-62738390D02*
X128403922Y-62833628D01*
X128403922Y-62833628D02*
X128403922Y-63119342D01*
X128403922Y-63119342D02*
X128356303Y-63214580D01*
X128356303Y-63214580D02*
X128308684Y-63262200D01*
X128308684Y-63262200D02*
X128213446Y-63309819D01*
X128213446Y-63309819D02*
X128070589Y-63309819D01*
X135391903Y-96769819D02*
X134915713Y-96769819D01*
X134915713Y-96769819D02*
X134868094Y-97246009D01*
X134868094Y-97246009D02*
X134915713Y-97198390D01*
X134915713Y-97198390D02*
X135010951Y-97150771D01*
X135010951Y-97150771D02*
X135249046Y-97150771D01*
X135249046Y-97150771D02*
X135344284Y-97198390D01*
X135344284Y-97198390D02*
X135391903Y-97246009D01*
X135391903Y-97246009D02*
X135439522Y-97341247D01*
X135439522Y-97341247D02*
X135439522Y-97579342D01*
X135439522Y-97579342D02*
X135391903Y-97674580D01*
X135391903Y-97674580D02*
X135344284Y-97722200D01*
X135344284Y-97722200D02*
X135249046Y-97769819D01*
X135249046Y-97769819D02*
X135010951Y-97769819D01*
X135010951Y-97769819D02*
X134915713Y-97722200D01*
X134915713Y-97722200D02*
X134868094Y-97674580D01*
X136296665Y-97103152D02*
X136296665Y-97769819D01*
X136058570Y-96722200D02*
X135820475Y-97436485D01*
X135820475Y-97436485D02*
X136439522Y-97436485D01*
X137582380Y-97769819D02*
X137582380Y-96769819D01*
X137582380Y-96769819D02*
X137963332Y-96769819D01*
X137963332Y-96769819D02*
X138058570Y-96817438D01*
X138058570Y-96817438D02*
X138106189Y-96865057D01*
X138106189Y-96865057D02*
X138153808Y-96960295D01*
X138153808Y-96960295D02*
X138153808Y-97103152D01*
X138153808Y-97103152D02*
X138106189Y-97198390D01*
X138106189Y-97198390D02*
X138058570Y-97246009D01*
X138058570Y-97246009D02*
X137963332Y-97293628D01*
X137963332Y-97293628D02*
X137582380Y-97293628D01*
X138582380Y-97769819D02*
X138582380Y-97103152D01*
X138582380Y-96769819D02*
X138534761Y-96817438D01*
X138534761Y-96817438D02*
X138582380Y-96865057D01*
X138582380Y-96865057D02*
X138629999Y-96817438D01*
X138629999Y-96817438D02*
X138582380Y-96769819D01*
X138582380Y-96769819D02*
X138582380Y-96865057D01*
X139058570Y-97103152D02*
X139058570Y-97769819D01*
X139058570Y-97198390D02*
X139106189Y-97150771D01*
X139106189Y-97150771D02*
X139201427Y-97103152D01*
X139201427Y-97103152D02*
X139344284Y-97103152D01*
X139344284Y-97103152D02*
X139439522Y-97150771D01*
X139439522Y-97150771D02*
X139487141Y-97246009D01*
X139487141Y-97246009D02*
X139487141Y-97769819D01*
X141201427Y-97769819D02*
X140725237Y-97769819D01*
X140725237Y-97769819D02*
X140725237Y-96769819D01*
X142106189Y-97674580D02*
X142058570Y-97722200D01*
X142058570Y-97722200D02*
X141915713Y-97769819D01*
X141915713Y-97769819D02*
X141820475Y-97769819D01*
X141820475Y-97769819D02*
X141677618Y-97722200D01*
X141677618Y-97722200D02*
X141582380Y-97626961D01*
X141582380Y-97626961D02*
X141534761Y-97531723D01*
X141534761Y-97531723D02*
X141487142Y-97341247D01*
X141487142Y-97341247D02*
X141487142Y-97198390D01*
X141487142Y-97198390D02*
X141534761Y-97007914D01*
X141534761Y-97007914D02*
X141582380Y-96912676D01*
X141582380Y-96912676D02*
X141677618Y-96817438D01*
X141677618Y-96817438D02*
X141820475Y-96769819D01*
X141820475Y-96769819D02*
X141915713Y-96769819D01*
X141915713Y-96769819D02*
X142058570Y-96817438D01*
X142058570Y-96817438D02*
X142106189Y-96865057D01*
X142534761Y-97769819D02*
X142534761Y-96769819D01*
X142534761Y-96769819D02*
X142772856Y-96769819D01*
X142772856Y-96769819D02*
X142915713Y-96817438D01*
X142915713Y-96817438D02*
X143010951Y-96912676D01*
X143010951Y-96912676D02*
X143058570Y-97007914D01*
X143058570Y-97007914D02*
X143106189Y-97198390D01*
X143106189Y-97198390D02*
X143106189Y-97341247D01*
X143106189Y-97341247D02*
X143058570Y-97531723D01*
X143058570Y-97531723D02*
X143010951Y-97626961D01*
X143010951Y-97626961D02*
X142915713Y-97722200D01*
X142915713Y-97722200D02*
X142772856Y-97769819D01*
X142772856Y-97769819D02*
X142534761Y-97769819D01*
X144868094Y-97674580D02*
X144820475Y-97722200D01*
X144820475Y-97722200D02*
X144677618Y-97769819D01*
X144677618Y-97769819D02*
X144582380Y-97769819D01*
X144582380Y-97769819D02*
X144439523Y-97722200D01*
X144439523Y-97722200D02*
X144344285Y-97626961D01*
X144344285Y-97626961D02*
X144296666Y-97531723D01*
X144296666Y-97531723D02*
X144249047Y-97341247D01*
X144249047Y-97341247D02*
X144249047Y-97198390D01*
X144249047Y-97198390D02*
X144296666Y-97007914D01*
X144296666Y-97007914D02*
X144344285Y-96912676D01*
X144344285Y-96912676D02*
X144439523Y-96817438D01*
X144439523Y-96817438D02*
X144582380Y-96769819D01*
X144582380Y-96769819D02*
X144677618Y-96769819D01*
X144677618Y-96769819D02*
X144820475Y-96817438D01*
X144820475Y-96817438D02*
X144868094Y-96865057D01*
X145439523Y-97769819D02*
X145344285Y-97722200D01*
X145344285Y-97722200D02*
X145296666Y-97674580D01*
X145296666Y-97674580D02*
X145249047Y-97579342D01*
X145249047Y-97579342D02*
X145249047Y-97293628D01*
X145249047Y-97293628D02*
X145296666Y-97198390D01*
X145296666Y-97198390D02*
X145344285Y-97150771D01*
X145344285Y-97150771D02*
X145439523Y-97103152D01*
X145439523Y-97103152D02*
X145582380Y-97103152D01*
X145582380Y-97103152D02*
X145677618Y-97150771D01*
X145677618Y-97150771D02*
X145725237Y-97198390D01*
X145725237Y-97198390D02*
X145772856Y-97293628D01*
X145772856Y-97293628D02*
X145772856Y-97579342D01*
X145772856Y-97579342D02*
X145725237Y-97674580D01*
X145725237Y-97674580D02*
X145677618Y-97722200D01*
X145677618Y-97722200D02*
X145582380Y-97769819D01*
X145582380Y-97769819D02*
X145439523Y-97769819D01*
X146201428Y-97103152D02*
X146201428Y-97769819D01*
X146201428Y-97198390D02*
X146249047Y-97150771D01*
X146249047Y-97150771D02*
X146344285Y-97103152D01*
X146344285Y-97103152D02*
X146487142Y-97103152D01*
X146487142Y-97103152D02*
X146582380Y-97150771D01*
X146582380Y-97150771D02*
X146629999Y-97246009D01*
X146629999Y-97246009D02*
X146629999Y-97769819D01*
X147106190Y-97103152D02*
X147106190Y-97769819D01*
X147106190Y-97198390D02*
X147153809Y-97150771D01*
X147153809Y-97150771D02*
X147249047Y-97103152D01*
X147249047Y-97103152D02*
X147391904Y-97103152D01*
X147391904Y-97103152D02*
X147487142Y-97150771D01*
X147487142Y-97150771D02*
X147534761Y-97246009D01*
X147534761Y-97246009D02*
X147534761Y-97769819D01*
X148391904Y-97722200D02*
X148296666Y-97769819D01*
X148296666Y-97769819D02*
X148106190Y-97769819D01*
X148106190Y-97769819D02*
X148010952Y-97722200D01*
X148010952Y-97722200D02*
X147963333Y-97626961D01*
X147963333Y-97626961D02*
X147963333Y-97246009D01*
X147963333Y-97246009D02*
X148010952Y-97150771D01*
X148010952Y-97150771D02*
X148106190Y-97103152D01*
X148106190Y-97103152D02*
X148296666Y-97103152D01*
X148296666Y-97103152D02*
X148391904Y-97150771D01*
X148391904Y-97150771D02*
X148439523Y-97246009D01*
X148439523Y-97246009D02*
X148439523Y-97341247D01*
X148439523Y-97341247D02*
X147963333Y-97436485D01*
X149296666Y-97722200D02*
X149201428Y-97769819D01*
X149201428Y-97769819D02*
X149010952Y-97769819D01*
X149010952Y-97769819D02*
X148915714Y-97722200D01*
X148915714Y-97722200D02*
X148868095Y-97674580D01*
X148868095Y-97674580D02*
X148820476Y-97579342D01*
X148820476Y-97579342D02*
X148820476Y-97293628D01*
X148820476Y-97293628D02*
X148868095Y-97198390D01*
X148868095Y-97198390D02*
X148915714Y-97150771D01*
X148915714Y-97150771D02*
X149010952Y-97103152D01*
X149010952Y-97103152D02*
X149201428Y-97103152D01*
X149201428Y-97103152D02*
X149296666Y-97150771D01*
X149582381Y-97103152D02*
X149963333Y-97103152D01*
X149725238Y-96769819D02*
X149725238Y-97626961D01*
X149725238Y-97626961D02*
X149772857Y-97722200D01*
X149772857Y-97722200D02*
X149868095Y-97769819D01*
X149868095Y-97769819D02*
X149963333Y-97769819D01*
X150439524Y-97769819D02*
X150344286Y-97722200D01*
X150344286Y-97722200D02*
X150296667Y-97674580D01*
X150296667Y-97674580D02*
X150249048Y-97579342D01*
X150249048Y-97579342D02*
X150249048Y-97293628D01*
X150249048Y-97293628D02*
X150296667Y-97198390D01*
X150296667Y-97198390D02*
X150344286Y-97150771D01*
X150344286Y-97150771D02*
X150439524Y-97103152D01*
X150439524Y-97103152D02*
X150582381Y-97103152D01*
X150582381Y-97103152D02*
X150677619Y-97150771D01*
X150677619Y-97150771D02*
X150725238Y-97198390D01*
X150725238Y-97198390D02*
X150772857Y-97293628D01*
X150772857Y-97293628D02*
X150772857Y-97579342D01*
X150772857Y-97579342D02*
X150725238Y-97674580D01*
X150725238Y-97674580D02*
X150677619Y-97722200D01*
X150677619Y-97722200D02*
X150582381Y-97769819D01*
X150582381Y-97769819D02*
X150439524Y-97769819D01*
X151201429Y-97769819D02*
X151201429Y-97103152D01*
X151201429Y-97293628D02*
X151249048Y-97198390D01*
X151249048Y-97198390D02*
X151296667Y-97150771D01*
X151296667Y-97150771D02*
X151391905Y-97103152D01*
X151391905Y-97103152D02*
X151487143Y-97103152D01*
X174742268Y-84145169D02*
X174789887Y-84097550D01*
X174789887Y-84097550D02*
X174885125Y-84049931D01*
X174885125Y-84049931D02*
X175123220Y-84049931D01*
X175123220Y-84049931D02*
X175218458Y-84097550D01*
X175218458Y-84097550D02*
X175266077Y-84145169D01*
X175266077Y-84145169D02*
X175313696Y-84240407D01*
X175313696Y-84240407D02*
X175313696Y-84335645D01*
X175313696Y-84335645D02*
X175266077Y-84478502D01*
X175266077Y-84478502D02*
X174694649Y-85049931D01*
X174694649Y-85049931D02*
X175313696Y-85049931D01*
X176170839Y-84383264D02*
X176170839Y-85049931D01*
X175932744Y-84002312D02*
X175694649Y-84716597D01*
X175694649Y-84716597D02*
X176313696Y-84716597D01*
X177456554Y-85049931D02*
X177456554Y-84049931D01*
X177456554Y-84049931D02*
X177837506Y-84049931D01*
X177837506Y-84049931D02*
X177932744Y-84097550D01*
X177932744Y-84097550D02*
X177980363Y-84145169D01*
X177980363Y-84145169D02*
X178027982Y-84240407D01*
X178027982Y-84240407D02*
X178027982Y-84383264D01*
X178027982Y-84383264D02*
X177980363Y-84478502D01*
X177980363Y-84478502D02*
X177932744Y-84526121D01*
X177932744Y-84526121D02*
X177837506Y-84573740D01*
X177837506Y-84573740D02*
X177456554Y-84573740D01*
X178456554Y-85049931D02*
X178456554Y-84383264D01*
X178456554Y-84049931D02*
X178408935Y-84097550D01*
X178408935Y-84097550D02*
X178456554Y-84145169D01*
X178456554Y-84145169D02*
X178504173Y-84097550D01*
X178504173Y-84097550D02*
X178456554Y-84049931D01*
X178456554Y-84049931D02*
X178456554Y-84145169D01*
X178932744Y-84383264D02*
X178932744Y-85049931D01*
X178932744Y-84478502D02*
X178980363Y-84430883D01*
X178980363Y-84430883D02*
X179075601Y-84383264D01*
X179075601Y-84383264D02*
X179218458Y-84383264D01*
X179218458Y-84383264D02*
X179313696Y-84430883D01*
X179313696Y-84430883D02*
X179361315Y-84526121D01*
X179361315Y-84526121D02*
X179361315Y-85049931D01*
X176456553Y-86659875D02*
X176456553Y-85659875D01*
X176456553Y-85659875D02*
X176694648Y-85659875D01*
X176694648Y-85659875D02*
X176837505Y-85707494D01*
X176837505Y-85707494D02*
X176932743Y-85802732D01*
X176932743Y-85802732D02*
X176980362Y-85897970D01*
X176980362Y-85897970D02*
X177027981Y-86088446D01*
X177027981Y-86088446D02*
X177027981Y-86231303D01*
X177027981Y-86231303D02*
X176980362Y-86421779D01*
X176980362Y-86421779D02*
X176932743Y-86517017D01*
X176932743Y-86517017D02*
X176837505Y-86612256D01*
X176837505Y-86612256D02*
X176694648Y-86659875D01*
X176694648Y-86659875D02*
X176456553Y-86659875D01*
X177885124Y-86659875D02*
X177885124Y-86136065D01*
X177885124Y-86136065D02*
X177837505Y-86040827D01*
X177837505Y-86040827D02*
X177742267Y-85993208D01*
X177742267Y-85993208D02*
X177551791Y-85993208D01*
X177551791Y-85993208D02*
X177456553Y-86040827D01*
X177885124Y-86612256D02*
X177789886Y-86659875D01*
X177789886Y-86659875D02*
X177551791Y-86659875D01*
X177551791Y-86659875D02*
X177456553Y-86612256D01*
X177456553Y-86612256D02*
X177408934Y-86517017D01*
X177408934Y-86517017D02*
X177408934Y-86421779D01*
X177408934Y-86421779D02*
X177456553Y-86326541D01*
X177456553Y-86326541D02*
X177551791Y-86278922D01*
X177551791Y-86278922D02*
X177789886Y-86278922D01*
X177789886Y-86278922D02*
X177885124Y-86231303D01*
X178218458Y-85993208D02*
X178599410Y-85993208D01*
X178361315Y-85659875D02*
X178361315Y-86517017D01*
X178361315Y-86517017D02*
X178408934Y-86612256D01*
X178408934Y-86612256D02*
X178504172Y-86659875D01*
X178504172Y-86659875D02*
X178599410Y-86659875D01*
X179361315Y-86659875D02*
X179361315Y-86136065D01*
X179361315Y-86136065D02*
X179313696Y-86040827D01*
X179313696Y-86040827D02*
X179218458Y-85993208D01*
X179218458Y-85993208D02*
X179027982Y-85993208D01*
X179027982Y-85993208D02*
X178932744Y-86040827D01*
X179361315Y-86612256D02*
X179266077Y-86659875D01*
X179266077Y-86659875D02*
X179027982Y-86659875D01*
X179027982Y-86659875D02*
X178932744Y-86612256D01*
X178932744Y-86612256D02*
X178885125Y-86517017D01*
X178885125Y-86517017D02*
X178885125Y-86421779D01*
X178885125Y-86421779D02*
X178932744Y-86326541D01*
X178932744Y-86326541D02*
X179027982Y-86278922D01*
X179027982Y-86278922D02*
X179266077Y-86278922D01*
X179266077Y-86278922D02*
X179361315Y-86231303D01*
X173647028Y-88174580D02*
X173599409Y-88222200D01*
X173599409Y-88222200D02*
X173456552Y-88269819D01*
X173456552Y-88269819D02*
X173361314Y-88269819D01*
X173361314Y-88269819D02*
X173218457Y-88222200D01*
X173218457Y-88222200D02*
X173123219Y-88126961D01*
X173123219Y-88126961D02*
X173075600Y-88031723D01*
X173075600Y-88031723D02*
X173027981Y-87841247D01*
X173027981Y-87841247D02*
X173027981Y-87698390D01*
X173027981Y-87698390D02*
X173075600Y-87507914D01*
X173075600Y-87507914D02*
X173123219Y-87412676D01*
X173123219Y-87412676D02*
X173218457Y-87317438D01*
X173218457Y-87317438D02*
X173361314Y-87269819D01*
X173361314Y-87269819D02*
X173456552Y-87269819D01*
X173456552Y-87269819D02*
X173599409Y-87317438D01*
X173599409Y-87317438D02*
X173647028Y-87365057D01*
X174218457Y-88269819D02*
X174123219Y-88222200D01*
X174123219Y-88222200D02*
X174075600Y-88174580D01*
X174075600Y-88174580D02*
X174027981Y-88079342D01*
X174027981Y-88079342D02*
X174027981Y-87793628D01*
X174027981Y-87793628D02*
X174075600Y-87698390D01*
X174075600Y-87698390D02*
X174123219Y-87650771D01*
X174123219Y-87650771D02*
X174218457Y-87603152D01*
X174218457Y-87603152D02*
X174361314Y-87603152D01*
X174361314Y-87603152D02*
X174456552Y-87650771D01*
X174456552Y-87650771D02*
X174504171Y-87698390D01*
X174504171Y-87698390D02*
X174551790Y-87793628D01*
X174551790Y-87793628D02*
X174551790Y-88079342D01*
X174551790Y-88079342D02*
X174504171Y-88174580D01*
X174504171Y-88174580D02*
X174456552Y-88222200D01*
X174456552Y-88222200D02*
X174361314Y-88269819D01*
X174361314Y-88269819D02*
X174218457Y-88269819D01*
X174980362Y-87603152D02*
X174980362Y-88269819D01*
X174980362Y-87698390D02*
X175027981Y-87650771D01*
X175027981Y-87650771D02*
X175123219Y-87603152D01*
X175123219Y-87603152D02*
X175266076Y-87603152D01*
X175266076Y-87603152D02*
X175361314Y-87650771D01*
X175361314Y-87650771D02*
X175408933Y-87746009D01*
X175408933Y-87746009D02*
X175408933Y-88269819D01*
X175885124Y-87603152D02*
X175885124Y-88269819D01*
X175885124Y-87698390D02*
X175932743Y-87650771D01*
X175932743Y-87650771D02*
X176027981Y-87603152D01*
X176027981Y-87603152D02*
X176170838Y-87603152D01*
X176170838Y-87603152D02*
X176266076Y-87650771D01*
X176266076Y-87650771D02*
X176313695Y-87746009D01*
X176313695Y-87746009D02*
X176313695Y-88269819D01*
X177170838Y-88222200D02*
X177075600Y-88269819D01*
X177075600Y-88269819D02*
X176885124Y-88269819D01*
X176885124Y-88269819D02*
X176789886Y-88222200D01*
X176789886Y-88222200D02*
X176742267Y-88126961D01*
X176742267Y-88126961D02*
X176742267Y-87746009D01*
X176742267Y-87746009D02*
X176789886Y-87650771D01*
X176789886Y-87650771D02*
X176885124Y-87603152D01*
X176885124Y-87603152D02*
X177075600Y-87603152D01*
X177075600Y-87603152D02*
X177170838Y-87650771D01*
X177170838Y-87650771D02*
X177218457Y-87746009D01*
X177218457Y-87746009D02*
X177218457Y-87841247D01*
X177218457Y-87841247D02*
X176742267Y-87936485D01*
X178075600Y-88222200D02*
X177980362Y-88269819D01*
X177980362Y-88269819D02*
X177789886Y-88269819D01*
X177789886Y-88269819D02*
X177694648Y-88222200D01*
X177694648Y-88222200D02*
X177647029Y-88174580D01*
X177647029Y-88174580D02*
X177599410Y-88079342D01*
X177599410Y-88079342D02*
X177599410Y-87793628D01*
X177599410Y-87793628D02*
X177647029Y-87698390D01*
X177647029Y-87698390D02*
X177694648Y-87650771D01*
X177694648Y-87650771D02*
X177789886Y-87603152D01*
X177789886Y-87603152D02*
X177980362Y-87603152D01*
X177980362Y-87603152D02*
X178075600Y-87650771D01*
X178361315Y-87603152D02*
X178742267Y-87603152D01*
X178504172Y-87269819D02*
X178504172Y-88126961D01*
X178504172Y-88126961D02*
X178551791Y-88222200D01*
X178551791Y-88222200D02*
X178647029Y-88269819D01*
X178647029Y-88269819D02*
X178742267Y-88269819D01*
X179218458Y-88269819D02*
X179123220Y-88222200D01*
X179123220Y-88222200D02*
X179075601Y-88174580D01*
X179075601Y-88174580D02*
X179027982Y-88079342D01*
X179027982Y-88079342D02*
X179027982Y-87793628D01*
X179027982Y-87793628D02*
X179075601Y-87698390D01*
X179075601Y-87698390D02*
X179123220Y-87650771D01*
X179123220Y-87650771D02*
X179218458Y-87603152D01*
X179218458Y-87603152D02*
X179361315Y-87603152D01*
X179361315Y-87603152D02*
X179456553Y-87650771D01*
X179456553Y-87650771D02*
X179504172Y-87698390D01*
X179504172Y-87698390D02*
X179551791Y-87793628D01*
X179551791Y-87793628D02*
X179551791Y-88079342D01*
X179551791Y-88079342D02*
X179504172Y-88174580D01*
X179504172Y-88174580D02*
X179456553Y-88222200D01*
X179456553Y-88222200D02*
X179361315Y-88269819D01*
X179361315Y-88269819D02*
X179218458Y-88269819D01*
X179980363Y-88269819D02*
X179980363Y-87603152D01*
X179980363Y-87793628D02*
X180027982Y-87698390D01*
X180027982Y-87698390D02*
X180075601Y-87650771D01*
X180075601Y-87650771D02*
X180170839Y-87603152D01*
X180170839Y-87603152D02*
X180266077Y-87603152D01*
X139498095Y-62964819D02*
X139498095Y-63774342D01*
X139498095Y-63774342D02*
X139545714Y-63869580D01*
X139545714Y-63869580D02*
X139593333Y-63917200D01*
X139593333Y-63917200D02*
X139688571Y-63964819D01*
X139688571Y-63964819D02*
X139879047Y-63964819D01*
X139879047Y-63964819D02*
X139974285Y-63917200D01*
X139974285Y-63917200D02*
X140021904Y-63869580D01*
X140021904Y-63869580D02*
X140069523Y-63774342D01*
X140069523Y-63774342D02*
X140069523Y-62964819D01*
X140450476Y-62964819D02*
X141117142Y-62964819D01*
X141117142Y-62964819D02*
X140688571Y-63964819D01*
X128352438Y-69729411D02*
X128304819Y-69824649D01*
X128304819Y-69824649D02*
X128304819Y-69967506D01*
X128304819Y-69967506D02*
X128352438Y-70110363D01*
X128352438Y-70110363D02*
X128447676Y-70205601D01*
X128447676Y-70205601D02*
X128542914Y-70253220D01*
X128542914Y-70253220D02*
X128733390Y-70300839D01*
X128733390Y-70300839D02*
X128876247Y-70300839D01*
X128876247Y-70300839D02*
X129066723Y-70253220D01*
X129066723Y-70253220D02*
X129161961Y-70205601D01*
X129161961Y-70205601D02*
X129257200Y-70110363D01*
X129257200Y-70110363D02*
X129304819Y-69967506D01*
X129304819Y-69967506D02*
X129304819Y-69872268D01*
X129304819Y-69872268D02*
X129257200Y-69729411D01*
X129257200Y-69729411D02*
X129209580Y-69681792D01*
X129209580Y-69681792D02*
X128876247Y-69681792D01*
X128876247Y-69681792D02*
X128876247Y-69872268D01*
X129304819Y-69253220D02*
X128304819Y-69253220D01*
X128304819Y-69253220D02*
X129304819Y-68681792D01*
X129304819Y-68681792D02*
X128304819Y-68681792D01*
X129304819Y-68205601D02*
X128304819Y-68205601D01*
X128304819Y-68205601D02*
X128304819Y-67967506D01*
X128304819Y-67967506D02*
X128352438Y-67824649D01*
X128352438Y-67824649D02*
X128447676Y-67729411D01*
X128447676Y-67729411D02*
X128542914Y-67681792D01*
X128542914Y-67681792D02*
X128733390Y-67634173D01*
X128733390Y-67634173D02*
X128876247Y-67634173D01*
X128876247Y-67634173D02*
X129066723Y-67681792D01*
X129066723Y-67681792D02*
X129161961Y-67729411D01*
X129161961Y-67729411D02*
X129257200Y-67824649D01*
X129257200Y-67824649D02*
X129304819Y-67967506D01*
X129304819Y-67967506D02*
X129304819Y-68205601D01*
X151252438Y-82529411D02*
X151204819Y-82624649D01*
X151204819Y-82624649D02*
X151204819Y-82767506D01*
X151204819Y-82767506D02*
X151252438Y-82910363D01*
X151252438Y-82910363D02*
X151347676Y-83005601D01*
X151347676Y-83005601D02*
X151442914Y-83053220D01*
X151442914Y-83053220D02*
X151633390Y-83100839D01*
X151633390Y-83100839D02*
X151776247Y-83100839D01*
X151776247Y-83100839D02*
X151966723Y-83053220D01*
X151966723Y-83053220D02*
X152061961Y-83005601D01*
X152061961Y-83005601D02*
X152157200Y-82910363D01*
X152157200Y-82910363D02*
X152204819Y-82767506D01*
X152204819Y-82767506D02*
X152204819Y-82672268D01*
X152204819Y-82672268D02*
X152157200Y-82529411D01*
X152157200Y-82529411D02*
X152109580Y-82481792D01*
X152109580Y-82481792D02*
X151776247Y-82481792D01*
X151776247Y-82481792D02*
X151776247Y-82672268D01*
X152204819Y-82053220D02*
X151204819Y-82053220D01*
X151204819Y-82053220D02*
X152204819Y-81481792D01*
X152204819Y-81481792D02*
X151204819Y-81481792D01*
X152204819Y-81005601D02*
X151204819Y-81005601D01*
X151204819Y-81005601D02*
X151204819Y-80767506D01*
X151204819Y-80767506D02*
X151252438Y-80624649D01*
X151252438Y-80624649D02*
X151347676Y-80529411D01*
X151347676Y-80529411D02*
X151442914Y-80481792D01*
X151442914Y-80481792D02*
X151633390Y-80434173D01*
X151633390Y-80434173D02*
X151776247Y-80434173D01*
X151776247Y-80434173D02*
X151966723Y-80481792D01*
X151966723Y-80481792D02*
X152061961Y-80529411D01*
X152061961Y-80529411D02*
X152157200Y-80624649D01*
X152157200Y-80624649D02*
X152204819Y-80767506D01*
X152204819Y-80767506D02*
X152204819Y-81005601D01*
X128372438Y-82529411D02*
X128324819Y-82624649D01*
X128324819Y-82624649D02*
X128324819Y-82767506D01*
X128324819Y-82767506D02*
X128372438Y-82910363D01*
X128372438Y-82910363D02*
X128467676Y-83005601D01*
X128467676Y-83005601D02*
X128562914Y-83053220D01*
X128562914Y-83053220D02*
X128753390Y-83100839D01*
X128753390Y-83100839D02*
X128896247Y-83100839D01*
X128896247Y-83100839D02*
X129086723Y-83053220D01*
X129086723Y-83053220D02*
X129181961Y-83005601D01*
X129181961Y-83005601D02*
X129277200Y-82910363D01*
X129277200Y-82910363D02*
X129324819Y-82767506D01*
X129324819Y-82767506D02*
X129324819Y-82672268D01*
X129324819Y-82672268D02*
X129277200Y-82529411D01*
X129277200Y-82529411D02*
X129229580Y-82481792D01*
X129229580Y-82481792D02*
X128896247Y-82481792D01*
X128896247Y-82481792D02*
X128896247Y-82672268D01*
X129324819Y-82053220D02*
X128324819Y-82053220D01*
X128324819Y-82053220D02*
X129324819Y-81481792D01*
X129324819Y-81481792D02*
X128324819Y-81481792D01*
X129324819Y-81005601D02*
X128324819Y-81005601D01*
X128324819Y-81005601D02*
X128324819Y-80767506D01*
X128324819Y-80767506D02*
X128372438Y-80624649D01*
X128372438Y-80624649D02*
X128467676Y-80529411D01*
X128467676Y-80529411D02*
X128562914Y-80481792D01*
X128562914Y-80481792D02*
X128753390Y-80434173D01*
X128753390Y-80434173D02*
X128896247Y-80434173D01*
X128896247Y-80434173D02*
X129086723Y-80481792D01*
X129086723Y-80481792D02*
X129181961Y-80529411D01*
X129181961Y-80529411D02*
X129277200Y-80624649D01*
X129277200Y-80624649D02*
X129324819Y-80767506D01*
X129324819Y-80767506D02*
X129324819Y-81005601D01*
X120752438Y-69729411D02*
X120704819Y-69824649D01*
X120704819Y-69824649D02*
X120704819Y-69967506D01*
X120704819Y-69967506D02*
X120752438Y-70110363D01*
X120752438Y-70110363D02*
X120847676Y-70205601D01*
X120847676Y-70205601D02*
X120942914Y-70253220D01*
X120942914Y-70253220D02*
X121133390Y-70300839D01*
X121133390Y-70300839D02*
X121276247Y-70300839D01*
X121276247Y-70300839D02*
X121466723Y-70253220D01*
X121466723Y-70253220D02*
X121561961Y-70205601D01*
X121561961Y-70205601D02*
X121657200Y-70110363D01*
X121657200Y-70110363D02*
X121704819Y-69967506D01*
X121704819Y-69967506D02*
X121704819Y-69872268D01*
X121704819Y-69872268D02*
X121657200Y-69729411D01*
X121657200Y-69729411D02*
X121609580Y-69681792D01*
X121609580Y-69681792D02*
X121276247Y-69681792D01*
X121276247Y-69681792D02*
X121276247Y-69872268D01*
X121704819Y-69253220D02*
X120704819Y-69253220D01*
X120704819Y-69253220D02*
X121704819Y-68681792D01*
X121704819Y-68681792D02*
X120704819Y-68681792D01*
X121704819Y-68205601D02*
X120704819Y-68205601D01*
X120704819Y-68205601D02*
X120704819Y-67967506D01*
X120704819Y-67967506D02*
X120752438Y-67824649D01*
X120752438Y-67824649D02*
X120847676Y-67729411D01*
X120847676Y-67729411D02*
X120942914Y-67681792D01*
X120942914Y-67681792D02*
X121133390Y-67634173D01*
X121133390Y-67634173D02*
X121276247Y-67634173D01*
X121276247Y-67634173D02*
X121466723Y-67681792D01*
X121466723Y-67681792D02*
X121561961Y-67729411D01*
X121561961Y-67729411D02*
X121657200Y-67824649D01*
X121657200Y-67824649D02*
X121704819Y-67967506D01*
X121704819Y-67967506D02*
X121704819Y-68205601D01*
X115692438Y-82549411D02*
X115644819Y-82644649D01*
X115644819Y-82644649D02*
X115644819Y-82787506D01*
X115644819Y-82787506D02*
X115692438Y-82930363D01*
X115692438Y-82930363D02*
X115787676Y-83025601D01*
X115787676Y-83025601D02*
X115882914Y-83073220D01*
X115882914Y-83073220D02*
X116073390Y-83120839D01*
X116073390Y-83120839D02*
X116216247Y-83120839D01*
X116216247Y-83120839D02*
X116406723Y-83073220D01*
X116406723Y-83073220D02*
X116501961Y-83025601D01*
X116501961Y-83025601D02*
X116597200Y-82930363D01*
X116597200Y-82930363D02*
X116644819Y-82787506D01*
X116644819Y-82787506D02*
X116644819Y-82692268D01*
X116644819Y-82692268D02*
X116597200Y-82549411D01*
X116597200Y-82549411D02*
X116549580Y-82501792D01*
X116549580Y-82501792D02*
X116216247Y-82501792D01*
X116216247Y-82501792D02*
X116216247Y-82692268D01*
X116644819Y-82073220D02*
X115644819Y-82073220D01*
X115644819Y-82073220D02*
X115644819Y-81692268D01*
X115644819Y-81692268D02*
X115692438Y-81597030D01*
X115692438Y-81597030D02*
X115740057Y-81549411D01*
X115740057Y-81549411D02*
X115835295Y-81501792D01*
X115835295Y-81501792D02*
X115978152Y-81501792D01*
X115978152Y-81501792D02*
X116073390Y-81549411D01*
X116073390Y-81549411D02*
X116121009Y-81597030D01*
X116121009Y-81597030D02*
X116168628Y-81692268D01*
X116168628Y-81692268D02*
X116168628Y-82073220D01*
X115644819Y-80882744D02*
X115644819Y-80787506D01*
X115644819Y-80787506D02*
X115692438Y-80692268D01*
X115692438Y-80692268D02*
X115740057Y-80644649D01*
X115740057Y-80644649D02*
X115835295Y-80597030D01*
X115835295Y-80597030D02*
X116025771Y-80549411D01*
X116025771Y-80549411D02*
X116263866Y-80549411D01*
X116263866Y-80549411D02*
X116454342Y-80597030D01*
X116454342Y-80597030D02*
X116549580Y-80644649D01*
X116549580Y-80644649D02*
X116597200Y-80692268D01*
X116597200Y-80692268D02*
X116644819Y-80787506D01*
X116644819Y-80787506D02*
X116644819Y-80882744D01*
X116644819Y-80882744D02*
X116597200Y-80977982D01*
X116597200Y-80977982D02*
X116549580Y-81025601D01*
X116549580Y-81025601D02*
X116454342Y-81073220D01*
X116454342Y-81073220D02*
X116263866Y-81120839D01*
X116263866Y-81120839D02*
X116025771Y-81120839D01*
X116025771Y-81120839D02*
X115835295Y-81073220D01*
X115835295Y-81073220D02*
X115740057Y-81025601D01*
X115740057Y-81025601D02*
X115692438Y-80977982D01*
X115692438Y-80977982D02*
X115644819Y-80882744D01*
X118134819Y-69896077D02*
X119134819Y-69562744D01*
X119134819Y-69562744D02*
X118134819Y-69229411D01*
X119134819Y-68896077D02*
X118134819Y-68896077D01*
X119134819Y-68419887D02*
X118134819Y-68419887D01*
X118134819Y-68419887D02*
X119134819Y-67848459D01*
X119134819Y-67848459D02*
X118134819Y-67848459D01*
X143582438Y-69709411D02*
X143534819Y-69804649D01*
X143534819Y-69804649D02*
X143534819Y-69947506D01*
X143534819Y-69947506D02*
X143582438Y-70090363D01*
X143582438Y-70090363D02*
X143677676Y-70185601D01*
X143677676Y-70185601D02*
X143772914Y-70233220D01*
X143772914Y-70233220D02*
X143963390Y-70280839D01*
X143963390Y-70280839D02*
X144106247Y-70280839D01*
X144106247Y-70280839D02*
X144296723Y-70233220D01*
X144296723Y-70233220D02*
X144391961Y-70185601D01*
X144391961Y-70185601D02*
X144487200Y-70090363D01*
X144487200Y-70090363D02*
X144534819Y-69947506D01*
X144534819Y-69947506D02*
X144534819Y-69852268D01*
X144534819Y-69852268D02*
X144487200Y-69709411D01*
X144487200Y-69709411D02*
X144439580Y-69661792D01*
X144439580Y-69661792D02*
X144106247Y-69661792D01*
X144106247Y-69661792D02*
X144106247Y-69852268D01*
X144534819Y-69233220D02*
X143534819Y-69233220D01*
X143534819Y-69233220D02*
X144534819Y-68661792D01*
X144534819Y-68661792D02*
X143534819Y-68661792D01*
X144534819Y-68185601D02*
X143534819Y-68185601D01*
X143534819Y-68185601D02*
X143534819Y-67947506D01*
X143534819Y-67947506D02*
X143582438Y-67804649D01*
X143582438Y-67804649D02*
X143677676Y-67709411D01*
X143677676Y-67709411D02*
X143772914Y-67661792D01*
X143772914Y-67661792D02*
X143963390Y-67614173D01*
X143963390Y-67614173D02*
X144106247Y-67614173D01*
X144106247Y-67614173D02*
X144296723Y-67661792D01*
X144296723Y-67661792D02*
X144391961Y-67709411D01*
X144391961Y-67709411D02*
X144487200Y-67804649D01*
X144487200Y-67804649D02*
X144534819Y-67947506D01*
X144534819Y-67947506D02*
X144534819Y-68185601D01*
X184806667Y-107487200D02*
X184949524Y-107534819D01*
X184949524Y-107534819D02*
X185187619Y-107534819D01*
X185187619Y-107534819D02*
X185282857Y-107487200D01*
X185282857Y-107487200D02*
X185330476Y-107439580D01*
X185330476Y-107439580D02*
X185378095Y-107344342D01*
X185378095Y-107344342D02*
X185378095Y-107249104D01*
X185378095Y-107249104D02*
X185330476Y-107153866D01*
X185330476Y-107153866D02*
X185282857Y-107106247D01*
X185282857Y-107106247D02*
X185187619Y-107058628D01*
X185187619Y-107058628D02*
X184997143Y-107011009D01*
X184997143Y-107011009D02*
X184901905Y-106963390D01*
X184901905Y-106963390D02*
X184854286Y-106915771D01*
X184854286Y-106915771D02*
X184806667Y-106820533D01*
X184806667Y-106820533D02*
X184806667Y-106725295D01*
X184806667Y-106725295D02*
X184854286Y-106630057D01*
X184854286Y-106630057D02*
X184901905Y-106582438D01*
X184901905Y-106582438D02*
X184997143Y-106534819D01*
X184997143Y-106534819D02*
X185235238Y-106534819D01*
X185235238Y-106534819D02*
X185378095Y-106582438D01*
X185806667Y-107534819D02*
X185806667Y-106534819D01*
X185806667Y-106534819D02*
X186140000Y-107249104D01*
X186140000Y-107249104D02*
X186473333Y-106534819D01*
X186473333Y-106534819D02*
X186473333Y-107534819D01*
X186901905Y-107487200D02*
X187044762Y-107534819D01*
X187044762Y-107534819D02*
X187282857Y-107534819D01*
X187282857Y-107534819D02*
X187378095Y-107487200D01*
X187378095Y-107487200D02*
X187425714Y-107439580D01*
X187425714Y-107439580D02*
X187473333Y-107344342D01*
X187473333Y-107344342D02*
X187473333Y-107249104D01*
X187473333Y-107249104D02*
X187425714Y-107153866D01*
X187425714Y-107153866D02*
X187378095Y-107106247D01*
X187378095Y-107106247D02*
X187282857Y-107058628D01*
X187282857Y-107058628D02*
X187092381Y-107011009D01*
X187092381Y-107011009D02*
X186997143Y-106963390D01*
X186997143Y-106963390D02*
X186949524Y-106915771D01*
X186949524Y-106915771D02*
X186901905Y-106820533D01*
X186901905Y-106820533D02*
X186901905Y-106725295D01*
X186901905Y-106725295D02*
X186949524Y-106630057D01*
X186949524Y-106630057D02*
X186997143Y-106582438D01*
X186997143Y-106582438D02*
X187092381Y-106534819D01*
X187092381Y-106534819D02*
X187330476Y-106534819D01*
X187330476Y-106534819D02*
X187473333Y-106582438D01*
X169223809Y-83037200D02*
X169366666Y-83084819D01*
X169366666Y-83084819D02*
X169604761Y-83084819D01*
X169604761Y-83084819D02*
X169699999Y-83037200D01*
X169699999Y-83037200D02*
X169747618Y-82989580D01*
X169747618Y-82989580D02*
X169795237Y-82894342D01*
X169795237Y-82894342D02*
X169795237Y-82799104D01*
X169795237Y-82799104D02*
X169747618Y-82703866D01*
X169747618Y-82703866D02*
X169699999Y-82656247D01*
X169699999Y-82656247D02*
X169604761Y-82608628D01*
X169604761Y-82608628D02*
X169414285Y-82561009D01*
X169414285Y-82561009D02*
X169319047Y-82513390D01*
X169319047Y-82513390D02*
X169271428Y-82465771D01*
X169271428Y-82465771D02*
X169223809Y-82370533D01*
X169223809Y-82370533D02*
X169223809Y-82275295D01*
X169223809Y-82275295D02*
X169271428Y-82180057D01*
X169271428Y-82180057D02*
X169319047Y-82132438D01*
X169319047Y-82132438D02*
X169414285Y-82084819D01*
X169414285Y-82084819D02*
X169652380Y-82084819D01*
X169652380Y-82084819D02*
X169795237Y-82132438D01*
X170080952Y-82084819D02*
X170652380Y-82084819D01*
X170366666Y-83084819D02*
X170366666Y-82084819D01*
X170938095Y-82799104D02*
X171414285Y-82799104D01*
X170842857Y-83084819D02*
X171176190Y-82084819D01*
X171176190Y-82084819D02*
X171509523Y-83084819D01*
X172414285Y-83084819D02*
X172080952Y-82608628D01*
X171842857Y-83084819D02*
X171842857Y-82084819D01*
X171842857Y-82084819D02*
X172223809Y-82084819D01*
X172223809Y-82084819D02*
X172319047Y-82132438D01*
X172319047Y-82132438D02*
X172366666Y-82180057D01*
X172366666Y-82180057D02*
X172414285Y-82275295D01*
X172414285Y-82275295D02*
X172414285Y-82418152D01*
X172414285Y-82418152D02*
X172366666Y-82513390D01*
X172366666Y-82513390D02*
X172319047Y-82561009D01*
X172319047Y-82561009D02*
X172223809Y-82608628D01*
X172223809Y-82608628D02*
X171842857Y-82608628D01*
X172700000Y-82084819D02*
X173271428Y-82084819D01*
X172985714Y-83084819D02*
X172985714Y-82084819D01*
X185464761Y-99019580D02*
X185417142Y-99067200D01*
X185417142Y-99067200D02*
X185274285Y-99114819D01*
X185274285Y-99114819D02*
X185179047Y-99114819D01*
X185179047Y-99114819D02*
X185036190Y-99067200D01*
X185036190Y-99067200D02*
X184940952Y-98971961D01*
X184940952Y-98971961D02*
X184893333Y-98876723D01*
X184893333Y-98876723D02*
X184845714Y-98686247D01*
X184845714Y-98686247D02*
X184845714Y-98543390D01*
X184845714Y-98543390D02*
X184893333Y-98352914D01*
X184893333Y-98352914D02*
X184940952Y-98257676D01*
X184940952Y-98257676D02*
X185036190Y-98162438D01*
X185036190Y-98162438D02*
X185179047Y-98114819D01*
X185179047Y-98114819D02*
X185274285Y-98114819D01*
X185274285Y-98114819D02*
X185417142Y-98162438D01*
X185417142Y-98162438D02*
X185464761Y-98210057D01*
X186369523Y-99114819D02*
X185893333Y-99114819D01*
X185893333Y-99114819D02*
X185893333Y-98114819D01*
X186702857Y-99114819D02*
X186702857Y-98114819D01*
X187274285Y-99114819D02*
X186845714Y-98543390D01*
X187274285Y-98114819D02*
X186702857Y-98686247D01*
X178646666Y-89574819D02*
X178646666Y-90289104D01*
X178646666Y-90289104D02*
X178599047Y-90431961D01*
X178599047Y-90431961D02*
X178503809Y-90527200D01*
X178503809Y-90527200D02*
X178360952Y-90574819D01*
X178360952Y-90574819D02*
X178265714Y-90574819D01*
X179027619Y-89574819D02*
X179646666Y-89574819D01*
X179646666Y-89574819D02*
X179313333Y-89955771D01*
X179313333Y-89955771D02*
X179456190Y-89955771D01*
X179456190Y-89955771D02*
X179551428Y-90003390D01*
X179551428Y-90003390D02*
X179599047Y-90051009D01*
X179599047Y-90051009D02*
X179646666Y-90146247D01*
X179646666Y-90146247D02*
X179646666Y-90384342D01*
X179646666Y-90384342D02*
X179599047Y-90479580D01*
X179599047Y-90479580D02*
X179551428Y-90527200D01*
X179551428Y-90527200D02*
X179456190Y-90574819D01*
X179456190Y-90574819D02*
X179170476Y-90574819D01*
X179170476Y-90574819D02*
X179075238Y-90527200D01*
X179075238Y-90527200D02*
X179027619Y-90479580D01*
X179601905Y-75014819D02*
X179601905Y-74014819D01*
X179601905Y-74014819D02*
X179840000Y-74014819D01*
X179840000Y-74014819D02*
X179982857Y-74062438D01*
X179982857Y-74062438D02*
X180078095Y-74157676D01*
X180078095Y-74157676D02*
X180125714Y-74252914D01*
X180125714Y-74252914D02*
X180173333Y-74443390D01*
X180173333Y-74443390D02*
X180173333Y-74586247D01*
X180173333Y-74586247D02*
X180125714Y-74776723D01*
X180125714Y-74776723D02*
X180078095Y-74871961D01*
X180078095Y-74871961D02*
X179982857Y-74967200D01*
X179982857Y-74967200D02*
X179840000Y-75014819D01*
X179840000Y-75014819D02*
X179601905Y-75014819D01*
X180506667Y-74014819D02*
X181125714Y-74014819D01*
X181125714Y-74014819D02*
X180792381Y-74395771D01*
X180792381Y-74395771D02*
X180935238Y-74395771D01*
X180935238Y-74395771D02*
X181030476Y-74443390D01*
X181030476Y-74443390D02*
X181078095Y-74491009D01*
X181078095Y-74491009D02*
X181125714Y-74586247D01*
X181125714Y-74586247D02*
X181125714Y-74824342D01*
X181125714Y-74824342D02*
X181078095Y-74919580D01*
X181078095Y-74919580D02*
X181030476Y-74967200D01*
X181030476Y-74967200D02*
X180935238Y-75014819D01*
X180935238Y-75014819D02*
X180649524Y-75014819D01*
X180649524Y-75014819D02*
X180554286Y-74967200D01*
X180554286Y-74967200D02*
X180506667Y-74919580D01*
X170170476Y-79371009D02*
X170313333Y-79418628D01*
X170313333Y-79418628D02*
X170360952Y-79466247D01*
X170360952Y-79466247D02*
X170408571Y-79561485D01*
X170408571Y-79561485D02*
X170408571Y-79704342D01*
X170408571Y-79704342D02*
X170360952Y-79799580D01*
X170360952Y-79799580D02*
X170313333Y-79847200D01*
X170313333Y-79847200D02*
X170218095Y-79894819D01*
X170218095Y-79894819D02*
X169837143Y-79894819D01*
X169837143Y-79894819D02*
X169837143Y-78894819D01*
X169837143Y-78894819D02*
X170170476Y-78894819D01*
X170170476Y-78894819D02*
X170265714Y-78942438D01*
X170265714Y-78942438D02*
X170313333Y-78990057D01*
X170313333Y-78990057D02*
X170360952Y-79085295D01*
X170360952Y-79085295D02*
X170360952Y-79180533D01*
X170360952Y-79180533D02*
X170313333Y-79275771D01*
X170313333Y-79275771D02*
X170265714Y-79323390D01*
X170265714Y-79323390D02*
X170170476Y-79371009D01*
X170170476Y-79371009D02*
X169837143Y-79371009D01*
X170694286Y-78894819D02*
X171265714Y-78894819D01*
X170980000Y-79894819D02*
X170980000Y-78894819D01*
X171599048Y-79894819D02*
X171599048Y-78894819D01*
X171599048Y-78894819D02*
X172170476Y-79894819D01*
X172170476Y-79894819D02*
X172170476Y-78894819D01*
X172599048Y-78990057D02*
X172646667Y-78942438D01*
X172646667Y-78942438D02*
X172741905Y-78894819D01*
X172741905Y-78894819D02*
X172980000Y-78894819D01*
X172980000Y-78894819D02*
X173075238Y-78942438D01*
X173075238Y-78942438D02*
X173122857Y-78990057D01*
X173122857Y-78990057D02*
X173170476Y-79085295D01*
X173170476Y-79085295D02*
X173170476Y-79180533D01*
X173170476Y-79180533D02*
X173122857Y-79323390D01*
X173122857Y-79323390D02*
X172551429Y-79894819D01*
X172551429Y-79894819D02*
X173170476Y-79894819D01*
X185418571Y-104679580D02*
X185370952Y-104727200D01*
X185370952Y-104727200D02*
X185228095Y-104774819D01*
X185228095Y-104774819D02*
X185132857Y-104774819D01*
X185132857Y-104774819D02*
X184990000Y-104727200D01*
X184990000Y-104727200D02*
X184894762Y-104631961D01*
X184894762Y-104631961D02*
X184847143Y-104536723D01*
X184847143Y-104536723D02*
X184799524Y-104346247D01*
X184799524Y-104346247D02*
X184799524Y-104203390D01*
X184799524Y-104203390D02*
X184847143Y-104012914D01*
X184847143Y-104012914D02*
X184894762Y-103917676D01*
X184894762Y-103917676D02*
X184990000Y-103822438D01*
X184990000Y-103822438D02*
X185132857Y-103774819D01*
X185132857Y-103774819D02*
X185228095Y-103774819D01*
X185228095Y-103774819D02*
X185370952Y-103822438D01*
X185370952Y-103822438D02*
X185418571Y-103870057D01*
X186323333Y-104774819D02*
X185847143Y-104774819D01*
X185847143Y-104774819D02*
X185847143Y-103774819D01*
X186609048Y-103870057D02*
X186656667Y-103822438D01*
X186656667Y-103822438D02*
X186751905Y-103774819D01*
X186751905Y-103774819D02*
X186990000Y-103774819D01*
X186990000Y-103774819D02*
X187085238Y-103822438D01*
X187085238Y-103822438D02*
X187132857Y-103870057D01*
X187132857Y-103870057D02*
X187180476Y-103965295D01*
X187180476Y-103965295D02*
X187180476Y-104060533D01*
X187180476Y-104060533D02*
X187132857Y-104203390D01*
X187132857Y-104203390D02*
X186561429Y-104774819D01*
X186561429Y-104774819D02*
X187180476Y-104774819D01*
X179848095Y-96712438D02*
X179752857Y-96664819D01*
X179752857Y-96664819D02*
X179610000Y-96664819D01*
X179610000Y-96664819D02*
X179467143Y-96712438D01*
X179467143Y-96712438D02*
X179371905Y-96807676D01*
X179371905Y-96807676D02*
X179324286Y-96902914D01*
X179324286Y-96902914D02*
X179276667Y-97093390D01*
X179276667Y-97093390D02*
X179276667Y-97236247D01*
X179276667Y-97236247D02*
X179324286Y-97426723D01*
X179324286Y-97426723D02*
X179371905Y-97521961D01*
X179371905Y-97521961D02*
X179467143Y-97617200D01*
X179467143Y-97617200D02*
X179610000Y-97664819D01*
X179610000Y-97664819D02*
X179705238Y-97664819D01*
X179705238Y-97664819D02*
X179848095Y-97617200D01*
X179848095Y-97617200D02*
X179895714Y-97569580D01*
X179895714Y-97569580D02*
X179895714Y-97236247D01*
X179895714Y-97236247D02*
X179705238Y-97236247D01*
X180324286Y-97664819D02*
X180324286Y-96664819D01*
X180324286Y-96664819D02*
X180895714Y-97664819D01*
X180895714Y-97664819D02*
X180895714Y-96664819D01*
X181371905Y-97664819D02*
X181371905Y-96664819D01*
X181371905Y-96664819D02*
X181610000Y-96664819D01*
X181610000Y-96664819D02*
X181752857Y-96712438D01*
X181752857Y-96712438D02*
X181848095Y-96807676D01*
X181848095Y-96807676D02*
X181895714Y-96902914D01*
X181895714Y-96902914D02*
X181943333Y-97093390D01*
X181943333Y-97093390D02*
X181943333Y-97236247D01*
X181943333Y-97236247D02*
X181895714Y-97426723D01*
X181895714Y-97426723D02*
X181848095Y-97521961D01*
X181848095Y-97521961D02*
X181752857Y-97617200D01*
X181752857Y-97617200D02*
X181610000Y-97664819D01*
X181610000Y-97664819D02*
X181371905Y-97664819D01*
X175637142Y-99702438D02*
X175541904Y-99654819D01*
X175541904Y-99654819D02*
X175399047Y-99654819D01*
X175399047Y-99654819D02*
X175256190Y-99702438D01*
X175256190Y-99702438D02*
X175160952Y-99797676D01*
X175160952Y-99797676D02*
X175113333Y-99892914D01*
X175113333Y-99892914D02*
X175065714Y-100083390D01*
X175065714Y-100083390D02*
X175065714Y-100226247D01*
X175065714Y-100226247D02*
X175113333Y-100416723D01*
X175113333Y-100416723D02*
X175160952Y-100511961D01*
X175160952Y-100511961D02*
X175256190Y-100607200D01*
X175256190Y-100607200D02*
X175399047Y-100654819D01*
X175399047Y-100654819D02*
X175494285Y-100654819D01*
X175494285Y-100654819D02*
X175637142Y-100607200D01*
X175637142Y-100607200D02*
X175684761Y-100559580D01*
X175684761Y-100559580D02*
X175684761Y-100226247D01*
X175684761Y-100226247D02*
X175494285Y-100226247D01*
X176637142Y-99702438D02*
X176541904Y-99654819D01*
X176541904Y-99654819D02*
X176399047Y-99654819D01*
X176399047Y-99654819D02*
X176256190Y-99702438D01*
X176256190Y-99702438D02*
X176160952Y-99797676D01*
X176160952Y-99797676D02*
X176113333Y-99892914D01*
X176113333Y-99892914D02*
X176065714Y-100083390D01*
X176065714Y-100083390D02*
X176065714Y-100226247D01*
X176065714Y-100226247D02*
X176113333Y-100416723D01*
X176113333Y-100416723D02*
X176160952Y-100511961D01*
X176160952Y-100511961D02*
X176256190Y-100607200D01*
X176256190Y-100607200D02*
X176399047Y-100654819D01*
X176399047Y-100654819D02*
X176494285Y-100654819D01*
X176494285Y-100654819D02*
X176637142Y-100607200D01*
X176637142Y-100607200D02*
X176684761Y-100559580D01*
X176684761Y-100559580D02*
X176684761Y-100226247D01*
X176684761Y-100226247D02*
X176494285Y-100226247D01*
X177875238Y-100273866D02*
X178637143Y-100273866D01*
X178256190Y-100654819D02*
X178256190Y-99892914D01*
X179589523Y-99654819D02*
X179113333Y-99654819D01*
X179113333Y-99654819D02*
X179065714Y-100131009D01*
X179065714Y-100131009D02*
X179113333Y-100083390D01*
X179113333Y-100083390D02*
X179208571Y-100035771D01*
X179208571Y-100035771D02*
X179446666Y-100035771D01*
X179446666Y-100035771D02*
X179541904Y-100083390D01*
X179541904Y-100083390D02*
X179589523Y-100131009D01*
X179589523Y-100131009D02*
X179637142Y-100226247D01*
X179637142Y-100226247D02*
X179637142Y-100464342D01*
X179637142Y-100464342D02*
X179589523Y-100559580D01*
X179589523Y-100559580D02*
X179541904Y-100607200D01*
X179541904Y-100607200D02*
X179446666Y-100654819D01*
X179446666Y-100654819D02*
X179208571Y-100654819D01*
X179208571Y-100654819D02*
X179113333Y-100607200D01*
X179113333Y-100607200D02*
X179065714Y-100559580D01*
X179922857Y-99654819D02*
X180256190Y-100654819D01*
X180256190Y-100654819D02*
X180589523Y-99654819D01*
X166390476Y-76231009D02*
X166533333Y-76278628D01*
X166533333Y-76278628D02*
X166580952Y-76326247D01*
X166580952Y-76326247D02*
X166628571Y-76421485D01*
X166628571Y-76421485D02*
X166628571Y-76564342D01*
X166628571Y-76564342D02*
X166580952Y-76659580D01*
X166580952Y-76659580D02*
X166533333Y-76707200D01*
X166533333Y-76707200D02*
X166438095Y-76754819D01*
X166438095Y-76754819D02*
X166057143Y-76754819D01*
X166057143Y-76754819D02*
X166057143Y-75754819D01*
X166057143Y-75754819D02*
X166390476Y-75754819D01*
X166390476Y-75754819D02*
X166485714Y-75802438D01*
X166485714Y-75802438D02*
X166533333Y-75850057D01*
X166533333Y-75850057D02*
X166580952Y-75945295D01*
X166580952Y-75945295D02*
X166580952Y-76040533D01*
X166580952Y-76040533D02*
X166533333Y-76135771D01*
X166533333Y-76135771D02*
X166485714Y-76183390D01*
X166485714Y-76183390D02*
X166390476Y-76231009D01*
X166390476Y-76231009D02*
X166057143Y-76231009D01*
X166914286Y-75754819D02*
X167485714Y-75754819D01*
X167200000Y-76754819D02*
X167200000Y-75754819D01*
X167819048Y-76754819D02*
X167819048Y-75754819D01*
X167819048Y-75754819D02*
X168390476Y-76754819D01*
X168390476Y-76754819D02*
X168390476Y-75754819D01*
X169390476Y-76754819D02*
X168819048Y-76754819D01*
X169104762Y-76754819D02*
X169104762Y-75754819D01*
X169104762Y-75754819D02*
X169009524Y-75897676D01*
X169009524Y-75897676D02*
X168914286Y-75992914D01*
X168914286Y-75992914D02*
X168819048Y-76040533D01*
X139166666Y-87424819D02*
X139166666Y-88139104D01*
X139166666Y-88139104D02*
X139119047Y-88281961D01*
X139119047Y-88281961D02*
X139023809Y-88377200D01*
X139023809Y-88377200D02*
X138880952Y-88424819D01*
X138880952Y-88424819D02*
X138785714Y-88424819D01*
X139595238Y-87520057D02*
X139642857Y-87472438D01*
X139642857Y-87472438D02*
X139738095Y-87424819D01*
X139738095Y-87424819D02*
X139976190Y-87424819D01*
X139976190Y-87424819D02*
X140071428Y-87472438D01*
X140071428Y-87472438D02*
X140119047Y-87520057D01*
X140119047Y-87520057D02*
X140166666Y-87615295D01*
X140166666Y-87615295D02*
X140166666Y-87710533D01*
X140166666Y-87710533D02*
X140119047Y-87853390D01*
X140119047Y-87853390D02*
X139547619Y-88424819D01*
X139547619Y-88424819D02*
X140166666Y-88424819D01*
X184866667Y-101984819D02*
X184866667Y-100984819D01*
X184866667Y-100984819D02*
X185104762Y-100984819D01*
X185104762Y-100984819D02*
X185247619Y-101032438D01*
X185247619Y-101032438D02*
X185342857Y-101127676D01*
X185342857Y-101127676D02*
X185390476Y-101222914D01*
X185390476Y-101222914D02*
X185438095Y-101413390D01*
X185438095Y-101413390D02*
X185438095Y-101556247D01*
X185438095Y-101556247D02*
X185390476Y-101746723D01*
X185390476Y-101746723D02*
X185342857Y-101841961D01*
X185342857Y-101841961D02*
X185247619Y-101937200D01*
X185247619Y-101937200D02*
X185104762Y-101984819D01*
X185104762Y-101984819D02*
X184866667Y-101984819D01*
X185771429Y-100984819D02*
X186009524Y-101984819D01*
X186009524Y-101984819D02*
X186200000Y-101270533D01*
X186200000Y-101270533D02*
X186390476Y-101984819D01*
X186390476Y-101984819D02*
X186628572Y-100984819D01*
X185941905Y-75014819D02*
X185941905Y-74014819D01*
X185941905Y-74014819D02*
X186180000Y-74014819D01*
X186180000Y-74014819D02*
X186322857Y-74062438D01*
X186322857Y-74062438D02*
X186418095Y-74157676D01*
X186418095Y-74157676D02*
X186465714Y-74252914D01*
X186465714Y-74252914D02*
X186513333Y-74443390D01*
X186513333Y-74443390D02*
X186513333Y-74586247D01*
X186513333Y-74586247D02*
X186465714Y-74776723D01*
X186465714Y-74776723D02*
X186418095Y-74871961D01*
X186418095Y-74871961D02*
X186322857Y-74967200D01*
X186322857Y-74967200D02*
X186180000Y-75014819D01*
X186180000Y-75014819D02*
X185941905Y-75014819D01*
X187370476Y-74348152D02*
X187370476Y-75014819D01*
X187132381Y-73967200D02*
X186894286Y-74681485D01*
X186894286Y-74681485D02*
X187513333Y-74681485D01*
X167098571Y-70781009D02*
X167241428Y-70828628D01*
X167241428Y-70828628D02*
X167289047Y-70876247D01*
X167289047Y-70876247D02*
X167336666Y-70971485D01*
X167336666Y-70971485D02*
X167336666Y-71114342D01*
X167336666Y-71114342D02*
X167289047Y-71209580D01*
X167289047Y-71209580D02*
X167241428Y-71257200D01*
X167241428Y-71257200D02*
X167146190Y-71304819D01*
X167146190Y-71304819D02*
X166765238Y-71304819D01*
X166765238Y-71304819D02*
X166765238Y-70304819D01*
X166765238Y-70304819D02*
X167098571Y-70304819D01*
X167098571Y-70304819D02*
X167193809Y-70352438D01*
X167193809Y-70352438D02*
X167241428Y-70400057D01*
X167241428Y-70400057D02*
X167289047Y-70495295D01*
X167289047Y-70495295D02*
X167289047Y-70590533D01*
X167289047Y-70590533D02*
X167241428Y-70685771D01*
X167241428Y-70685771D02*
X167193809Y-70733390D01*
X167193809Y-70733390D02*
X167098571Y-70781009D01*
X167098571Y-70781009D02*
X166765238Y-70781009D01*
X168336666Y-71304819D02*
X168003333Y-70828628D01*
X167765238Y-71304819D02*
X167765238Y-70304819D01*
X167765238Y-70304819D02*
X168146190Y-70304819D01*
X168146190Y-70304819D02*
X168241428Y-70352438D01*
X168241428Y-70352438D02*
X168289047Y-70400057D01*
X168289047Y-70400057D02*
X168336666Y-70495295D01*
X168336666Y-70495295D02*
X168336666Y-70638152D01*
X168336666Y-70638152D02*
X168289047Y-70733390D01*
X168289047Y-70733390D02*
X168241428Y-70781009D01*
X168241428Y-70781009D02*
X168146190Y-70828628D01*
X168146190Y-70828628D02*
X167765238Y-70828628D01*
X168765238Y-71304819D02*
X168765238Y-70304819D01*
X169765237Y-70352438D02*
X169669999Y-70304819D01*
X169669999Y-70304819D02*
X169527142Y-70304819D01*
X169527142Y-70304819D02*
X169384285Y-70352438D01*
X169384285Y-70352438D02*
X169289047Y-70447676D01*
X169289047Y-70447676D02*
X169241428Y-70542914D01*
X169241428Y-70542914D02*
X169193809Y-70733390D01*
X169193809Y-70733390D02*
X169193809Y-70876247D01*
X169193809Y-70876247D02*
X169241428Y-71066723D01*
X169241428Y-71066723D02*
X169289047Y-71161961D01*
X169289047Y-71161961D02*
X169384285Y-71257200D01*
X169384285Y-71257200D02*
X169527142Y-71304819D01*
X169527142Y-71304819D02*
X169622380Y-71304819D01*
X169622380Y-71304819D02*
X169765237Y-71257200D01*
X169765237Y-71257200D02*
X169812856Y-71209580D01*
X169812856Y-71209580D02*
X169812856Y-70876247D01*
X169812856Y-70876247D02*
X169622380Y-70876247D01*
X170241428Y-71304819D02*
X170241428Y-70304819D01*
X170241428Y-70781009D02*
X170812856Y-70781009D01*
X170812856Y-71304819D02*
X170812856Y-70304819D01*
X171146190Y-70304819D02*
X171717618Y-70304819D01*
X171431904Y-71304819D02*
X171431904Y-70304819D01*
X118706666Y-104194819D02*
X118706666Y-104909104D01*
X118706666Y-104909104D02*
X118659047Y-105051961D01*
X118659047Y-105051961D02*
X118563809Y-105147200D01*
X118563809Y-105147200D02*
X118420952Y-105194819D01*
X118420952Y-105194819D02*
X118325714Y-105194819D01*
X119706666Y-105194819D02*
X119135238Y-105194819D01*
X119420952Y-105194819D02*
X119420952Y-104194819D01*
X119420952Y-104194819D02*
X119325714Y-104337676D01*
X119325714Y-104337676D02*
X119230476Y-104432914D01*
X119230476Y-104432914D02*
X119135238Y-104480533D01*
X171190476Y-73189104D02*
X171666666Y-73189104D01*
X171095238Y-73474819D02*
X171428571Y-72474819D01*
X171428571Y-72474819D02*
X171761904Y-73474819D01*
X172095238Y-72474819D02*
X172095238Y-73284342D01*
X172095238Y-73284342D02*
X172142857Y-73379580D01*
X172142857Y-73379580D02*
X172190476Y-73427200D01*
X172190476Y-73427200D02*
X172285714Y-73474819D01*
X172285714Y-73474819D02*
X172476190Y-73474819D01*
X172476190Y-73474819D02*
X172571428Y-73427200D01*
X172571428Y-73427200D02*
X172619047Y-73379580D01*
X172619047Y-73379580D02*
X172666666Y-73284342D01*
X172666666Y-73284342D02*
X172666666Y-72474819D01*
X173142857Y-73474819D02*
X173142857Y-72474819D01*
X173142857Y-72474819D02*
X173380952Y-72474819D01*
X173380952Y-72474819D02*
X173523809Y-72522438D01*
X173523809Y-72522438D02*
X173619047Y-72617676D01*
X173619047Y-72617676D02*
X173666666Y-72712914D01*
X173666666Y-72712914D02*
X173714285Y-72903390D01*
X173714285Y-72903390D02*
X173714285Y-73046247D01*
X173714285Y-73046247D02*
X173666666Y-73236723D01*
X173666666Y-73236723D02*
X173619047Y-73331961D01*
X173619047Y-73331961D02*
X173523809Y-73427200D01*
X173523809Y-73427200D02*
X173380952Y-73474819D01*
X173380952Y-73474819D02*
X173142857Y-73474819D01*
X174142857Y-73474819D02*
X174142857Y-72474819D01*
X174809523Y-72474819D02*
X174999999Y-72474819D01*
X174999999Y-72474819D02*
X175095237Y-72522438D01*
X175095237Y-72522438D02*
X175190475Y-72617676D01*
X175190475Y-72617676D02*
X175238094Y-72808152D01*
X175238094Y-72808152D02*
X175238094Y-73141485D01*
X175238094Y-73141485D02*
X175190475Y-73331961D01*
X175190475Y-73331961D02*
X175095237Y-73427200D01*
X175095237Y-73427200D02*
X174999999Y-73474819D01*
X174999999Y-73474819D02*
X174809523Y-73474819D01*
X174809523Y-73474819D02*
X174714285Y-73427200D01*
X174714285Y-73427200D02*
X174619047Y-73331961D01*
X174619047Y-73331961D02*
X174571428Y-73141485D01*
X174571428Y-73141485D02*
X174571428Y-72808152D01*
X174571428Y-72808152D02*
X174619047Y-72617676D01*
X174619047Y-72617676D02*
X174714285Y-72522438D01*
X174714285Y-72522438D02*
X174809523Y-72474819D01*
X176904761Y-73474819D02*
X176428571Y-73474819D01*
X176428571Y-73474819D02*
X176428571Y-72474819D01*
X179751905Y-72024819D02*
X179751905Y-71024819D01*
X179751905Y-71024819D02*
X179990000Y-71024819D01*
X179990000Y-71024819D02*
X180132857Y-71072438D01*
X180132857Y-71072438D02*
X180228095Y-71167676D01*
X180228095Y-71167676D02*
X180275714Y-71262914D01*
X180275714Y-71262914D02*
X180323333Y-71453390D01*
X180323333Y-71453390D02*
X180323333Y-71596247D01*
X180323333Y-71596247D02*
X180275714Y-71786723D01*
X180275714Y-71786723D02*
X180228095Y-71881961D01*
X180228095Y-71881961D02*
X180132857Y-71977200D01*
X180132857Y-71977200D02*
X179990000Y-72024819D01*
X179990000Y-72024819D02*
X179751905Y-72024819D01*
X181275714Y-72024819D02*
X180704286Y-72024819D01*
X180990000Y-72024819D02*
X180990000Y-71024819D01*
X180990000Y-71024819D02*
X180894762Y-71167676D01*
X180894762Y-71167676D02*
X180799524Y-71262914D01*
X180799524Y-71262914D02*
X180704286Y-71310533D01*
X173725238Y-77509104D02*
X174201428Y-77509104D01*
X173630000Y-77794819D02*
X173963333Y-76794819D01*
X173963333Y-76794819D02*
X174296666Y-77794819D01*
X174630000Y-76794819D02*
X174630000Y-77604342D01*
X174630000Y-77604342D02*
X174677619Y-77699580D01*
X174677619Y-77699580D02*
X174725238Y-77747200D01*
X174725238Y-77747200D02*
X174820476Y-77794819D01*
X174820476Y-77794819D02*
X175010952Y-77794819D01*
X175010952Y-77794819D02*
X175106190Y-77747200D01*
X175106190Y-77747200D02*
X175153809Y-77699580D01*
X175153809Y-77699580D02*
X175201428Y-77604342D01*
X175201428Y-77604342D02*
X175201428Y-76794819D01*
X175677619Y-77794819D02*
X175677619Y-76794819D01*
X175677619Y-76794819D02*
X175915714Y-76794819D01*
X175915714Y-76794819D02*
X176058571Y-76842438D01*
X176058571Y-76842438D02*
X176153809Y-76937676D01*
X176153809Y-76937676D02*
X176201428Y-77032914D01*
X176201428Y-77032914D02*
X176249047Y-77223390D01*
X176249047Y-77223390D02*
X176249047Y-77366247D01*
X176249047Y-77366247D02*
X176201428Y-77556723D01*
X176201428Y-77556723D02*
X176153809Y-77651961D01*
X176153809Y-77651961D02*
X176058571Y-77747200D01*
X176058571Y-77747200D02*
X175915714Y-77794819D01*
X175915714Y-77794819D02*
X175677619Y-77794819D01*
X176677619Y-77794819D02*
X176677619Y-76794819D01*
X177344285Y-76794819D02*
X177534761Y-76794819D01*
X177534761Y-76794819D02*
X177629999Y-76842438D01*
X177629999Y-76842438D02*
X177725237Y-76937676D01*
X177725237Y-76937676D02*
X177772856Y-77128152D01*
X177772856Y-77128152D02*
X177772856Y-77461485D01*
X177772856Y-77461485D02*
X177725237Y-77651961D01*
X177725237Y-77651961D02*
X177629999Y-77747200D01*
X177629999Y-77747200D02*
X177534761Y-77794819D01*
X177534761Y-77794819D02*
X177344285Y-77794819D01*
X177344285Y-77794819D02*
X177249047Y-77747200D01*
X177249047Y-77747200D02*
X177153809Y-77651961D01*
X177153809Y-77651961D02*
X177106190Y-77461485D01*
X177106190Y-77461485D02*
X177106190Y-77128152D01*
X177106190Y-77128152D02*
X177153809Y-76937676D01*
X177153809Y-76937676D02*
X177249047Y-76842438D01*
X177249047Y-76842438D02*
X177344285Y-76794819D01*
X179534761Y-77794819D02*
X179201428Y-77318628D01*
X178963333Y-77794819D02*
X178963333Y-76794819D01*
X178963333Y-76794819D02*
X179344285Y-76794819D01*
X179344285Y-76794819D02*
X179439523Y-76842438D01*
X179439523Y-76842438D02*
X179487142Y-76890057D01*
X179487142Y-76890057D02*
X179534761Y-76985295D01*
X179534761Y-76985295D02*
X179534761Y-77128152D01*
X179534761Y-77128152D02*
X179487142Y-77223390D01*
X179487142Y-77223390D02*
X179439523Y-77271009D01*
X179439523Y-77271009D02*
X179344285Y-77318628D01*
X179344285Y-77318628D02*
X178963333Y-77318628D01*
X166224286Y-63223866D02*
X166986191Y-63223866D01*
X166605238Y-63604819D02*
X166605238Y-62842914D01*
X167938571Y-62604819D02*
X167462381Y-62604819D01*
X167462381Y-62604819D02*
X167414762Y-63081009D01*
X167414762Y-63081009D02*
X167462381Y-63033390D01*
X167462381Y-63033390D02*
X167557619Y-62985771D01*
X167557619Y-62985771D02*
X167795714Y-62985771D01*
X167795714Y-62985771D02*
X167890952Y-63033390D01*
X167890952Y-63033390D02*
X167938571Y-63081009D01*
X167938571Y-63081009D02*
X167986190Y-63176247D01*
X167986190Y-63176247D02*
X167986190Y-63414342D01*
X167986190Y-63414342D02*
X167938571Y-63509580D01*
X167938571Y-63509580D02*
X167890952Y-63557200D01*
X167890952Y-63557200D02*
X167795714Y-63604819D01*
X167795714Y-63604819D02*
X167557619Y-63604819D01*
X167557619Y-63604819D02*
X167462381Y-63557200D01*
X167462381Y-63557200D02*
X167414762Y-63509580D01*
X168271905Y-62604819D02*
X168605238Y-63604819D01*
X168605238Y-63604819D02*
X168938571Y-62604819D01*
X159478095Y-92973866D02*
X160240000Y-92973866D01*
X159859047Y-93354819D02*
X159859047Y-92592914D01*
X160620952Y-92354819D02*
X161239999Y-92354819D01*
X161239999Y-92354819D02*
X160906666Y-92735771D01*
X160906666Y-92735771D02*
X161049523Y-92735771D01*
X161049523Y-92735771D02*
X161144761Y-92783390D01*
X161144761Y-92783390D02*
X161192380Y-92831009D01*
X161192380Y-92831009D02*
X161239999Y-92926247D01*
X161239999Y-92926247D02*
X161239999Y-93164342D01*
X161239999Y-93164342D02*
X161192380Y-93259580D01*
X161192380Y-93259580D02*
X161144761Y-93307200D01*
X161144761Y-93307200D02*
X161049523Y-93354819D01*
X161049523Y-93354819D02*
X160763809Y-93354819D01*
X160763809Y-93354819D02*
X160668571Y-93307200D01*
X160668571Y-93307200D02*
X160620952Y-93259580D01*
X161525714Y-92354819D02*
X161859047Y-93354819D01*
X161859047Y-93354819D02*
X162192380Y-92354819D01*
X162430476Y-92354819D02*
X163049523Y-92354819D01*
X163049523Y-92354819D02*
X162716190Y-92735771D01*
X162716190Y-92735771D02*
X162859047Y-92735771D01*
X162859047Y-92735771D02*
X162954285Y-92783390D01*
X162954285Y-92783390D02*
X163001904Y-92831009D01*
X163001904Y-92831009D02*
X163049523Y-92926247D01*
X163049523Y-92926247D02*
X163049523Y-93164342D01*
X163049523Y-93164342D02*
X163001904Y-93259580D01*
X163001904Y-93259580D02*
X162954285Y-93307200D01*
X162954285Y-93307200D02*
X162859047Y-93354819D01*
X162859047Y-93354819D02*
X162573333Y-93354819D01*
X162573333Y-93354819D02*
X162478095Y-93307200D01*
X162478095Y-93307200D02*
X162430476Y-93259580D01*
X185971905Y-72164819D02*
X185971905Y-71164819D01*
X185971905Y-71164819D02*
X186210000Y-71164819D01*
X186210000Y-71164819D02*
X186352857Y-71212438D01*
X186352857Y-71212438D02*
X186448095Y-71307676D01*
X186448095Y-71307676D02*
X186495714Y-71402914D01*
X186495714Y-71402914D02*
X186543333Y-71593390D01*
X186543333Y-71593390D02*
X186543333Y-71736247D01*
X186543333Y-71736247D02*
X186495714Y-71926723D01*
X186495714Y-71926723D02*
X186448095Y-72021961D01*
X186448095Y-72021961D02*
X186352857Y-72117200D01*
X186352857Y-72117200D02*
X186210000Y-72164819D01*
X186210000Y-72164819D02*
X185971905Y-72164819D01*
X186924286Y-71260057D02*
X186971905Y-71212438D01*
X186971905Y-71212438D02*
X187067143Y-71164819D01*
X187067143Y-71164819D02*
X187305238Y-71164819D01*
X187305238Y-71164819D02*
X187400476Y-71212438D01*
X187400476Y-71212438D02*
X187448095Y-71260057D01*
X187448095Y-71260057D02*
X187495714Y-71355295D01*
X187495714Y-71355295D02*
X187495714Y-71450533D01*
X187495714Y-71450533D02*
X187448095Y-71593390D01*
X187448095Y-71593390D02*
X186876667Y-72164819D01*
X186876667Y-72164819D02*
X187495714Y-72164819D01*
X160138095Y-96413866D02*
X160900000Y-96413866D01*
X160519047Y-96794819D02*
X160519047Y-96032914D01*
X161328571Y-95890057D02*
X161376190Y-95842438D01*
X161376190Y-95842438D02*
X161471428Y-95794819D01*
X161471428Y-95794819D02*
X161709523Y-95794819D01*
X161709523Y-95794819D02*
X161804761Y-95842438D01*
X161804761Y-95842438D02*
X161852380Y-95890057D01*
X161852380Y-95890057D02*
X161899999Y-95985295D01*
X161899999Y-95985295D02*
X161899999Y-96080533D01*
X161899999Y-96080533D02*
X161852380Y-96223390D01*
X161852380Y-96223390D02*
X161280952Y-96794819D01*
X161280952Y-96794819D02*
X161899999Y-96794819D01*
X162519047Y-95794819D02*
X162614285Y-95794819D01*
X162614285Y-95794819D02*
X162709523Y-95842438D01*
X162709523Y-95842438D02*
X162757142Y-95890057D01*
X162757142Y-95890057D02*
X162804761Y-95985295D01*
X162804761Y-95985295D02*
X162852380Y-96175771D01*
X162852380Y-96175771D02*
X162852380Y-96413866D01*
X162852380Y-96413866D02*
X162804761Y-96604342D01*
X162804761Y-96604342D02*
X162757142Y-96699580D01*
X162757142Y-96699580D02*
X162709523Y-96747200D01*
X162709523Y-96747200D02*
X162614285Y-96794819D01*
X162614285Y-96794819D02*
X162519047Y-96794819D01*
X162519047Y-96794819D02*
X162423809Y-96747200D01*
X162423809Y-96747200D02*
X162376190Y-96699580D01*
X162376190Y-96699580D02*
X162328571Y-96604342D01*
X162328571Y-96604342D02*
X162280952Y-96413866D01*
X162280952Y-96413866D02*
X162280952Y-96175771D01*
X162280952Y-96175771D02*
X162328571Y-95985295D01*
X162328571Y-95985295D02*
X162376190Y-95890057D01*
X162376190Y-95890057D02*
X162423809Y-95842438D01*
X162423809Y-95842438D02*
X162519047Y-95794819D01*
X163138095Y-95794819D02*
X163471428Y-96794819D01*
X163471428Y-96794819D02*
X163804761Y-95794819D01*
%TO.C,U7*%
X112635000Y-82460000D02*
X112635000Y-65140000D01*
X112638036Y-82463036D02*
X116065000Y-85890000D01*
X112885000Y-64890000D02*
X165515000Y-64890000D01*
X112885893Y-64890179D02*
X112635893Y-65140179D01*
X116065000Y-85890000D02*
X165515000Y-85890000D01*
D12*
X122365000Y-64890000D02*
X122615000Y-64890000D01*
X124915000Y-64890000D02*
X125165000Y-64890000D01*
D10*
X165765000Y-65140000D02*
X165515000Y-64890000D01*
X165765000Y-65140000D02*
X165765000Y-85640000D01*
X165765000Y-85640000D02*
X165515000Y-85890000D01*
D13*
X113105000Y-72995000D02*
X116605000Y-72995000D01*
X116605000Y-70485000D01*
X113105000Y-70485000D01*
X113105000Y-72995000D01*
G36*
X113105000Y-72995000D02*
G01*
X116605000Y-72995000D01*
X116605000Y-70485000D01*
X113105000Y-70485000D01*
X113105000Y-72995000D01*
G37*
X113145000Y-80355000D02*
X116645000Y-80355000D01*
X116645000Y-77845000D01*
X113145000Y-77845000D01*
X113145000Y-80355000D01*
G36*
X113145000Y-80355000D02*
G01*
X116645000Y-80355000D01*
X116645000Y-77845000D01*
X113145000Y-77845000D01*
X113145000Y-80355000D01*
G37*
X117595000Y-73025000D02*
X121095000Y-73025000D01*
X121095000Y-70515000D01*
X117595000Y-70515000D01*
X117595000Y-73025000D01*
G36*
X117595000Y-73025000D02*
G01*
X121095000Y-73025000D01*
X121095000Y-70515000D01*
X117595000Y-70515000D01*
X117595000Y-73025000D01*
G37*
X117635000Y-80385000D02*
X121135000Y-80385000D01*
X121135000Y-77875000D01*
X117635000Y-77875000D01*
X117635000Y-80385000D01*
G36*
X117635000Y-80385000D02*
G01*
X121135000Y-80385000D01*
X121135000Y-77875000D01*
X117635000Y-77875000D01*
X117635000Y-80385000D01*
G37*
D10*
%TO.C,T14*%
X184450000Y-107060000D02*
G75*
G02*
X182850000Y-107060000I-800000J0D01*
G01*
X182850000Y-107060000D02*
G75*
G02*
X184450000Y-107060000I800000J0D01*
G01*
%TO.C,T4*%
X174960000Y-82530000D02*
G75*
G02*
X173360000Y-82530000I-800000J0D01*
G01*
X173360000Y-82530000D02*
G75*
G02*
X174960000Y-82530000I800000J0D01*
G01*
%TO.C,T13*%
X184430000Y-98650000D02*
G75*
G02*
X182830000Y-98650000I-800000J0D01*
G01*
X182830000Y-98650000D02*
G75*
G02*
X184430000Y-98650000I800000J0D01*
G01*
D14*
%TO.C,J3*%
X182305000Y-93510000D02*
X182565000Y-93510000D01*
X182435000Y-93270000D02*
X182305000Y-93510000D01*
X182435000Y-93270000D02*
X182565000Y-93510000D01*
D10*
X182610000Y-80880000D02*
X182610000Y-78640000D01*
X182610000Y-93860000D02*
X182610000Y-95440000D01*
X186130000Y-95410000D02*
X186750000Y-95410000D01*
X186140000Y-78670000D02*
X186750000Y-78670000D01*
X186750000Y-78265000D02*
X187400000Y-78265000D01*
X186750000Y-78670000D02*
X186750000Y-78265000D01*
X186750000Y-95410000D02*
X186750000Y-95820000D01*
X186750000Y-95820000D02*
X187400000Y-95820000D01*
X187400000Y-95820000D02*
X187400000Y-78265000D01*
%TO.C,T18*%
X182990000Y-74540000D02*
G75*
G02*
X181390000Y-74540000I-800000J0D01*
G01*
X181390000Y-74540000D02*
G75*
G02*
X182990000Y-74540000I800000J0D01*
G01*
%TO.C,T5*%
X171720000Y-77870000D02*
G75*
G02*
X170120000Y-77870000I-800000J0D01*
G01*
X170120000Y-77870000D02*
G75*
G02*
X171720000Y-77870000I800000J0D01*
G01*
%TO.C,T16*%
X184430000Y-104250000D02*
G75*
G02*
X182830000Y-104250000I-800000J0D01*
G01*
X182830000Y-104250000D02*
G75*
G02*
X184430000Y-104250000I800000J0D01*
G01*
%TO.C,T2*%
X181460000Y-98650000D02*
G75*
G02*
X179860000Y-98650000I-800000J0D01*
G01*
X179860000Y-98650000D02*
G75*
G02*
X181460000Y-98650000I800000J0D01*
G01*
%TO.C,T1*%
X178580000Y-98650000D02*
G75*
G02*
X176980000Y-98650000I-800000J0D01*
G01*
X176980000Y-98650000D02*
G75*
G02*
X178580000Y-98650000I800000J0D01*
G01*
%TO.C,T6*%
X168940000Y-77690000D02*
G75*
G02*
X167340000Y-77690000I-800000J0D01*
G01*
X167340000Y-77690000D02*
G75*
G02*
X168940000Y-77690000I800000J0D01*
G01*
%TO.C,J2*%
X124990000Y-88785000D02*
X158040000Y-88785000D01*
X124990000Y-89585000D02*
X124990000Y-88790000D01*
X125310000Y-95045000D02*
X125310000Y-94105000D01*
X125350000Y-89585000D02*
X124990000Y-89585000D01*
X127785000Y-95045000D02*
X125310000Y-95045000D01*
X157640000Y-94165000D02*
X157640000Y-95045000D01*
X157640000Y-95045000D02*
X156100000Y-95045000D01*
X158040000Y-88790000D02*
X158040000Y-89665000D01*
X158040000Y-89665000D02*
X157680000Y-89665000D01*
D15*
X155580000Y-95285000D02*
X155250000Y-95045000D01*
X155580000Y-94805000D01*
X155580000Y-95285000D01*
G36*
X155580000Y-95285000D02*
G01*
X155250000Y-95045000D01*
X155580000Y-94805000D01*
X155580000Y-95285000D01*
G37*
D10*
%TO.C,T15*%
X184430000Y-101470000D02*
G75*
G02*
X182830000Y-101470000I-800000J0D01*
G01*
X182830000Y-101470000D02*
G75*
G02*
X184430000Y-101470000I800000J0D01*
G01*
%TO.C,T17*%
X185650000Y-74540000D02*
G75*
G02*
X184050000Y-74540000I-800000J0D01*
G01*
X184050000Y-74540000D02*
G75*
G02*
X185650000Y-74540000I800000J0D01*
G01*
%TO.C,T3*%
X168490000Y-69090000D02*
G75*
G02*
X166890000Y-69090000I-800000J0D01*
G01*
X166890000Y-69090000D02*
G75*
G02*
X168490000Y-69090000I800000J0D01*
G01*
%TO.C,J1*%
X123970000Y-98070000D02*
X121985000Y-98070000D01*
X124030000Y-113290000D02*
X121985000Y-113290000D01*
X129500000Y-98070000D02*
X126860000Y-98070000D01*
X129530000Y-113290000D02*
X126840000Y-113290000D01*
X133135000Y-99060000D02*
X133135000Y-100720000D01*
X133140000Y-110600000D02*
X133139852Y-112249016D01*
X133885000Y-110600000D02*
X133140000Y-110600000D01*
%TO.C,T11*%
X178670000Y-73010000D02*
G75*
G02*
X177070000Y-73010000I-800000J0D01*
G01*
X177070000Y-73010000D02*
G75*
G02*
X178670000Y-73010000I800000J0D01*
G01*
%TO.C,T20*%
X182990000Y-71720000D02*
G75*
G02*
X181390000Y-71720000I-800000J0D01*
G01*
X181390000Y-71720000D02*
G75*
G02*
X182990000Y-71720000I800000J0D01*
G01*
%TO.C,T12*%
X179550000Y-75750000D02*
G75*
G02*
X177950000Y-75750000I-800000J0D01*
G01*
X177950000Y-75750000D02*
G75*
G02*
X179550000Y-75750000I800000J0D01*
G01*
%TO.C,TP17*%
X171120000Y-63120000D02*
G75*
G02*
X169520000Y-63120000I-800000J0D01*
G01*
X169520000Y-63120000D02*
G75*
G02*
X171120000Y-63120000I800000J0D01*
G01*
%TO.C,TP15*%
X162080000Y-91250000D02*
G75*
G02*
X160480000Y-91250000I-800000J0D01*
G01*
X160480000Y-91250000D02*
G75*
G02*
X162080000Y-91250000I800000J0D01*
G01*
%TO.C,T19*%
X185650000Y-71720000D02*
G75*
G02*
X184050000Y-71720000I-800000J0D01*
G01*
X184050000Y-71720000D02*
G75*
G02*
X185650000Y-71720000I800000J0D01*
G01*
%TO.C,TP16*%
X161300000Y-98020000D02*
G75*
G02*
X159700000Y-98020000I-800000J0D01*
G01*
X159700000Y-98020000D02*
G75*
G02*
X161300000Y-98020000I800000J0D01*
G01*
%TD*%
%LPC*%
D16*
G36*
X186876743Y-66967246D02*
G01*
X187040571Y-67098309D01*
X187090570Y-67178308D01*
X187026743Y-67127246D01*
X186752000Y-67053982D01*
X186439524Y-67053982D01*
X186439524Y-68393982D01*
X186289524Y-68393982D01*
X186289524Y-66893982D01*
X186602000Y-66893982D01*
X186876743Y-66967246D01*
G37*
G36*
X185095696Y-63674591D02*
G01*
X185096192Y-63675075D01*
X185096499Y-63675236D01*
X185097119Y-63675979D01*
X185130781Y-63708810D01*
X185142903Y-63730825D01*
X185159010Y-63750119D01*
X185177370Y-63793416D01*
X185177833Y-63794257D01*
X185177870Y-63794597D01*
X185178143Y-63795239D01*
X185297191Y-64176191D01*
X185301319Y-64196078D01*
X185303767Y-64201987D01*
X185304869Y-64213175D01*
X185307153Y-64224177D01*
X185306579Y-64230543D01*
X185308571Y-64250760D01*
X185308571Y-64917427D01*
X185306579Y-64937643D01*
X185307153Y-64944010D01*
X185304869Y-64955011D01*
X185303767Y-64966200D01*
X185301319Y-64972108D01*
X185297191Y-64991996D01*
X185178143Y-65372948D01*
X185177871Y-65373587D01*
X185177834Y-65373929D01*
X185177368Y-65374773D01*
X185159010Y-65418068D01*
X185142902Y-65437363D01*
X185130781Y-65459376D01*
X185097115Y-65492212D01*
X185096499Y-65492951D01*
X185096195Y-65493110D01*
X185095697Y-65493596D01*
X184857602Y-65684073D01*
X184842185Y-65694098D01*
X184837776Y-65698401D01*
X184826843Y-65704074D01*
X184816516Y-65710790D01*
X184810597Y-65712504D01*
X184794276Y-65720975D01*
X184556181Y-65816213D01*
X184514454Y-65828317D01*
X184512106Y-65829290D01*
X184510584Y-65829439D01*
X184509112Y-65829867D01*
X184506563Y-65829835D01*
X184463333Y-65834094D01*
X183987142Y-65834094D01*
X183943911Y-65829835D01*
X183941363Y-65829867D01*
X183939890Y-65829439D01*
X183938369Y-65829290D01*
X183936020Y-65828317D01*
X183894294Y-65816213D01*
X183656199Y-65720975D01*
X183639877Y-65712504D01*
X183633959Y-65710790D01*
X183623631Y-65704074D01*
X183612699Y-65698401D01*
X183608289Y-65694098D01*
X183592873Y-65684073D01*
X183354778Y-65493596D01*
X183354279Y-65493110D01*
X183353976Y-65492951D01*
X183353359Y-65492212D01*
X183319694Y-65459376D01*
X183307572Y-65437363D01*
X183291465Y-65418068D01*
X183281760Y-65395182D01*
X183442873Y-65524073D01*
X183458289Y-65534098D01*
X183462699Y-65538401D01*
X183473631Y-65544074D01*
X183483959Y-65550790D01*
X183489877Y-65552504D01*
X183506199Y-65560975D01*
X183744294Y-65656213D01*
X183786020Y-65668317D01*
X183788369Y-65669290D01*
X183789890Y-65669439D01*
X183791363Y-65669867D01*
X183793911Y-65669835D01*
X183837142Y-65674094D01*
X184313333Y-65674094D01*
X184356563Y-65669835D01*
X184359112Y-65669867D01*
X184360584Y-65669439D01*
X184362106Y-65669290D01*
X184364454Y-65668317D01*
X184406181Y-65656213D01*
X184644276Y-65560975D01*
X184660597Y-65552504D01*
X184666516Y-65550790D01*
X184676843Y-65544074D01*
X184687776Y-65538401D01*
X184692185Y-65534098D01*
X184707602Y-65524073D01*
X184945697Y-65333596D01*
X184946195Y-65333110D01*
X184946499Y-65332951D01*
X184947115Y-65332212D01*
X184980781Y-65299376D01*
X184992902Y-65277363D01*
X185009010Y-65258068D01*
X185027368Y-65214773D01*
X185027834Y-65213929D01*
X185027871Y-65213587D01*
X185028143Y-65212948D01*
X185147191Y-64831996D01*
X185151319Y-64812108D01*
X185153767Y-64806200D01*
X185154869Y-64795011D01*
X185157153Y-64784010D01*
X185156579Y-64777643D01*
X185158571Y-64757427D01*
X185158571Y-64090760D01*
X185156579Y-64070543D01*
X185157153Y-64064177D01*
X185154869Y-64053175D01*
X185153767Y-64041987D01*
X185151319Y-64036078D01*
X185147191Y-64016191D01*
X185028143Y-63635239D01*
X185027870Y-63634597D01*
X185027833Y-63634257D01*
X185027370Y-63633416D01*
X185018715Y-63613006D01*
X185095696Y-63674591D01*
G37*
G36*
X178786173Y-63579353D02*
G01*
X178791034Y-63584094D01*
X178806890Y-63599559D01*
X178812075Y-63603257D01*
X178816300Y-63608737D01*
X178821258Y-63613573D01*
X178824332Y-63619155D01*
X178841998Y-63642070D01*
X178961047Y-63832546D01*
X178982822Y-63876452D01*
X178986264Y-63897011D01*
X178994243Y-63916273D01*
X178999047Y-63965046D01*
X178999047Y-64250760D01*
X178994243Y-64299533D01*
X178986264Y-64318794D01*
X178982822Y-64339354D01*
X178961047Y-64383260D01*
X178841998Y-64573736D01*
X178824332Y-64596650D01*
X178821258Y-64602233D01*
X178816300Y-64607068D01*
X178812075Y-64612549D01*
X178806890Y-64616246D01*
X178786174Y-64636452D01*
X178667127Y-64731691D01*
X178651710Y-64741716D01*
X178647300Y-64746020D01*
X178636364Y-64751694D01*
X178626041Y-64758408D01*
X178620124Y-64760122D01*
X178603800Y-64768594D01*
X178365705Y-64863832D01*
X178323978Y-64875936D01*
X178321630Y-64876909D01*
X178320108Y-64877058D01*
X178318636Y-64877486D01*
X178316087Y-64877454D01*
X178272857Y-64881713D01*
X177570476Y-64881713D01*
X177570476Y-65584094D01*
X177565672Y-65632867D01*
X177528343Y-65722987D01*
X177459369Y-65791961D01*
X177369249Y-65829290D01*
X177271703Y-65829290D01*
X177181583Y-65791961D01*
X177112609Y-65722987D01*
X177083876Y-65653621D01*
X177121703Y-65669290D01*
X177219249Y-65669290D01*
X177309369Y-65631961D01*
X177378343Y-65562987D01*
X177415672Y-65472867D01*
X177420476Y-65424094D01*
X177420476Y-64721713D01*
X178122857Y-64721713D01*
X178166087Y-64717454D01*
X178168636Y-64717486D01*
X178170108Y-64717058D01*
X178171630Y-64716909D01*
X178173978Y-64715936D01*
X178215705Y-64703832D01*
X178453800Y-64608594D01*
X178470124Y-64600122D01*
X178476041Y-64598408D01*
X178486364Y-64591694D01*
X178497300Y-64586020D01*
X178501710Y-64581716D01*
X178517127Y-64571691D01*
X178636174Y-64476452D01*
X178656890Y-64456246D01*
X178662075Y-64452549D01*
X178666300Y-64447068D01*
X178671258Y-64442233D01*
X178674332Y-64436650D01*
X178691998Y-64413736D01*
X178811047Y-64223260D01*
X178832822Y-64179354D01*
X178836264Y-64158794D01*
X178844243Y-64139533D01*
X178849047Y-64090760D01*
X178849047Y-63805046D01*
X178844243Y-63756273D01*
X178836264Y-63737011D01*
X178832822Y-63716452D01*
X178811047Y-63672546D01*
X178719427Y-63525956D01*
X178786173Y-63579353D01*
G37*
D10*
X174700000Y-69200000D02*
X187500000Y-69200000D01*
D16*
G36*
X178233706Y-63737692D02*
G01*
X178290571Y-63783183D01*
X178349047Y-63876744D01*
X178349047Y-63883828D01*
X178224712Y-63834094D01*
X177570476Y-63834094D01*
X177570476Y-64221713D01*
X177420476Y-64221713D01*
X177420476Y-63674094D01*
X178074712Y-63674094D01*
X178233706Y-63737692D01*
G37*
G36*
X178014560Y-68032035D02*
G01*
X178063333Y-68036839D01*
X178289523Y-68036839D01*
X178289523Y-68196839D01*
X178213333Y-68196839D01*
X178164560Y-68192035D01*
X178074440Y-68154706D01*
X178005466Y-68085732D01*
X177976733Y-68016366D01*
X178014560Y-68032035D01*
G37*
G36*
X185274269Y-66799241D02*
G01*
X185279130Y-66803982D01*
X185309353Y-66833460D01*
X185356406Y-66918907D01*
X185367178Y-67015854D01*
X185340030Y-67109545D01*
X185279093Y-67185716D01*
X185193647Y-67232769D01*
X185096700Y-67243541D01*
X185003008Y-67216393D01*
X184961922Y-67189676D01*
X184883885Y-67127246D01*
X184609143Y-67053982D01*
X184436570Y-67053982D01*
X184161826Y-67127247D01*
X183997999Y-67258309D01*
X183918557Y-67385416D01*
X183820476Y-67699277D01*
X183820476Y-67908685D01*
X183918557Y-68222546D01*
X183947999Y-68269654D01*
X183847999Y-68189654D01*
X183768557Y-68062546D01*
X183670476Y-67748685D01*
X183670476Y-67539277D01*
X183768557Y-67225416D01*
X183847999Y-67098309D01*
X184011826Y-66967247D01*
X184286570Y-66893982D01*
X184459143Y-66893982D01*
X184733885Y-66967246D01*
X184811922Y-67029676D01*
X184853008Y-67056393D01*
X184946700Y-67083541D01*
X185043647Y-67072769D01*
X185129093Y-67025716D01*
X185190030Y-66949545D01*
X185217178Y-66855854D01*
X185206406Y-66758907D01*
X185192669Y-66733961D01*
X185274269Y-66799241D01*
G37*
G36*
X178663323Y-66667101D02*
G01*
X178706823Y-66689675D01*
X178776634Y-66757804D01*
X178796424Y-66803982D01*
X178815058Y-66847461D01*
X178816247Y-66944999D01*
X178780020Y-67035568D01*
X178711891Y-67105379D01*
X178622234Y-67143803D01*
X178524696Y-67144993D01*
X178477627Y-67131339D01*
X178284235Y-67053982D01*
X178007998Y-67053982D01*
X177733254Y-67127247D01*
X177569427Y-67258309D01*
X177489985Y-67385416D01*
X177391904Y-67699277D01*
X177391904Y-67908685D01*
X177489985Y-68222546D01*
X177519427Y-68269654D01*
X177419427Y-68189654D01*
X177339985Y-68062546D01*
X177241904Y-67748685D01*
X177241904Y-67539277D01*
X177339985Y-67225416D01*
X177419427Y-67098309D01*
X177583254Y-66967247D01*
X177857998Y-66893982D01*
X178134235Y-66893982D01*
X178327627Y-66971339D01*
X178374696Y-66984993D01*
X178472234Y-66983803D01*
X178561891Y-66945379D01*
X178630020Y-66875568D01*
X178666247Y-66784999D01*
X178665058Y-66687461D01*
X178654886Y-66663726D01*
X178663323Y-66667101D01*
G37*
G36*
X175514560Y-68032035D02*
G01*
X175563333Y-68036839D01*
X175789523Y-68036839D01*
X175789523Y-68196839D01*
X175713333Y-68196839D01*
X175664560Y-68192035D01*
X175574440Y-68154706D01*
X175505466Y-68085732D01*
X175476733Y-68016366D01*
X175514560Y-68032035D01*
G37*
G36*
X182595697Y-63579353D02*
G01*
X182630781Y-63613572D01*
X182677834Y-63699019D01*
X182688606Y-63795966D01*
X182661458Y-63889657D01*
X182600521Y-63965828D01*
X182515075Y-64012881D01*
X182418128Y-64023653D01*
X182324436Y-63996505D01*
X182283350Y-63969788D01*
X182205313Y-63907358D01*
X181930571Y-63834094D01*
X181757998Y-63834094D01*
X181483254Y-63907359D01*
X181319427Y-64038421D01*
X181239985Y-64165528D01*
X181213350Y-64250760D01*
X181141904Y-64479389D01*
X181141904Y-64688797D01*
X181239985Y-65002658D01*
X181269427Y-65049766D01*
X181169427Y-64969766D01*
X181089985Y-64842658D01*
X180991904Y-64528797D01*
X180991904Y-64319389D01*
X181089985Y-64005528D01*
X181169427Y-63878421D01*
X181333254Y-63747359D01*
X181607998Y-63674094D01*
X181780571Y-63674094D01*
X182055313Y-63747358D01*
X182133350Y-63809788D01*
X182174436Y-63836505D01*
X182268128Y-63863653D01*
X182365075Y-63852881D01*
X182450521Y-63805828D01*
X182511458Y-63729657D01*
X182538606Y-63635966D01*
X182527834Y-63539019D01*
X182514097Y-63514073D01*
X182595697Y-63579353D01*
G37*
G36*
X185279092Y-68422247D02*
G01*
X185340029Y-68498417D01*
X185367177Y-68592108D01*
X185356406Y-68689055D01*
X185309353Y-68774502D01*
X185274269Y-68808722D01*
X185155221Y-68903961D01*
X185114135Y-68930678D01*
X185111515Y-68931436D01*
X185109351Y-68933094D01*
X185063462Y-68950303D01*
X184706321Y-69045541D01*
X184694966Y-69047401D01*
X184690678Y-69049178D01*
X184674251Y-69050795D01*
X184657957Y-69053466D01*
X184653353Y-69052854D01*
X184641905Y-69053982D01*
X184403809Y-69053982D01*
X184392360Y-69052854D01*
X184387757Y-69053466D01*
X184371462Y-69050795D01*
X184355036Y-69049178D01*
X184350747Y-69047401D01*
X184339393Y-69045541D01*
X183982250Y-68950303D01*
X183936362Y-68933094D01*
X183934197Y-68931436D01*
X183931578Y-68930678D01*
X183890492Y-68903961D01*
X183652397Y-68713484D01*
X183631684Y-68693281D01*
X183626494Y-68689580D01*
X183622263Y-68684092D01*
X183617313Y-68679264D01*
X183614242Y-68673688D01*
X183596571Y-68650766D01*
X183569143Y-68606881D01*
X183740492Y-68743961D01*
X183781578Y-68770678D01*
X183784197Y-68771436D01*
X183786362Y-68773094D01*
X183832250Y-68790303D01*
X184189393Y-68885541D01*
X184200747Y-68887401D01*
X184205036Y-68889178D01*
X184221462Y-68890795D01*
X184237757Y-68893466D01*
X184242360Y-68892854D01*
X184253809Y-68893982D01*
X184491905Y-68893982D01*
X184503353Y-68892854D01*
X184507957Y-68893466D01*
X184524251Y-68890795D01*
X184540678Y-68889178D01*
X184544966Y-68887401D01*
X184556321Y-68885541D01*
X184913462Y-68790303D01*
X184959351Y-68773094D01*
X184961515Y-68771436D01*
X184964135Y-68770678D01*
X185005221Y-68743961D01*
X185124269Y-68648722D01*
X185159353Y-68614502D01*
X185206406Y-68529055D01*
X185217177Y-68432108D01*
X185202022Y-68379807D01*
X185279092Y-68422247D01*
G37*
G36*
X179959369Y-63376227D02*
G01*
X180028343Y-63445201D01*
X180065672Y-63535321D01*
X180070476Y-63584094D01*
X180070476Y-64441236D01*
X180070476Y-65584094D01*
X180065672Y-65632867D01*
X180028343Y-65722987D01*
X179959369Y-65791961D01*
X179869249Y-65829290D01*
X179771703Y-65829290D01*
X179681583Y-65791961D01*
X179612609Y-65722987D01*
X179583876Y-65653621D01*
X179621703Y-65669290D01*
X179719249Y-65669290D01*
X179809369Y-65631961D01*
X179878343Y-65562987D01*
X179915672Y-65472867D01*
X179920476Y-65424094D01*
X179920476Y-63424094D01*
X179915672Y-63375321D01*
X179907075Y-63354566D01*
X179959369Y-63376227D01*
G37*
G36*
X182600520Y-65202359D02*
G01*
X182661457Y-65278529D01*
X182688605Y-65372220D01*
X182677834Y-65469167D01*
X182630781Y-65554614D01*
X182595697Y-65588834D01*
X182476649Y-65684073D01*
X182435563Y-65710790D01*
X182432943Y-65711548D01*
X182430779Y-65713206D01*
X182384890Y-65730415D01*
X182027749Y-65825653D01*
X182016394Y-65827513D01*
X182012106Y-65829290D01*
X181995679Y-65830907D01*
X181979385Y-65833578D01*
X181974781Y-65832966D01*
X181963333Y-65834094D01*
X181725237Y-65834094D01*
X181713788Y-65832966D01*
X181709185Y-65833578D01*
X181692890Y-65830907D01*
X181676464Y-65829290D01*
X181672175Y-65827513D01*
X181660821Y-65825653D01*
X181303678Y-65730415D01*
X181257790Y-65713206D01*
X181255625Y-65711548D01*
X181253006Y-65710790D01*
X181211920Y-65684073D01*
X180973825Y-65493596D01*
X180953112Y-65473393D01*
X180947922Y-65469692D01*
X180943691Y-65464204D01*
X180938741Y-65459376D01*
X180935670Y-65453800D01*
X180917999Y-65430878D01*
X180890571Y-65386993D01*
X181061920Y-65524073D01*
X181103006Y-65550790D01*
X181105625Y-65551548D01*
X181107790Y-65553206D01*
X181153678Y-65570415D01*
X181510821Y-65665653D01*
X181522175Y-65667513D01*
X181526464Y-65669290D01*
X181542890Y-65670907D01*
X181559185Y-65673578D01*
X181563788Y-65672966D01*
X181575237Y-65674094D01*
X181813333Y-65674094D01*
X181824781Y-65672966D01*
X181829385Y-65673578D01*
X181845679Y-65670907D01*
X181862106Y-65669290D01*
X181866394Y-65667513D01*
X181877749Y-65665653D01*
X182234890Y-65570415D01*
X182280779Y-65553206D01*
X182282943Y-65551548D01*
X182285563Y-65550790D01*
X182326649Y-65524073D01*
X182445697Y-65428834D01*
X182480781Y-65394614D01*
X182527834Y-65309167D01*
X182538605Y-65212220D01*
X182523450Y-65159919D01*
X182600520Y-65202359D01*
G37*
G36*
X178828416Y-67738972D02*
G01*
X178897390Y-67807946D01*
X178934719Y-67898066D01*
X178939523Y-67946839D01*
X178939523Y-68613505D01*
X178934719Y-68662278D01*
X178929375Y-68675177D01*
X178927834Y-68689055D01*
X178910858Y-68719881D01*
X178897390Y-68752398D01*
X178887515Y-68762272D01*
X178880781Y-68774502D01*
X178845697Y-68808722D01*
X178726649Y-68903961D01*
X178685563Y-68930678D01*
X178682943Y-68931436D01*
X178680779Y-68933094D01*
X178634890Y-68950303D01*
X178277749Y-69045541D01*
X178266394Y-69047401D01*
X178262106Y-69049178D01*
X178245679Y-69050795D01*
X178229385Y-69053466D01*
X178224781Y-69052854D01*
X178213333Y-69053982D01*
X177975237Y-69053982D01*
X177963788Y-69052854D01*
X177959185Y-69053466D01*
X177942890Y-69050795D01*
X177926464Y-69049178D01*
X177922175Y-69047401D01*
X177910821Y-69045541D01*
X177553678Y-68950303D01*
X177507790Y-68933094D01*
X177505625Y-68931436D01*
X177503006Y-68930678D01*
X177461920Y-68903961D01*
X177223825Y-68713484D01*
X177203112Y-68693281D01*
X177197922Y-68689580D01*
X177193691Y-68684092D01*
X177188741Y-68679264D01*
X177185670Y-68673688D01*
X177167999Y-68650766D01*
X177140571Y-68606881D01*
X177311920Y-68743961D01*
X177353006Y-68770678D01*
X177355625Y-68771436D01*
X177357790Y-68773094D01*
X177403678Y-68790303D01*
X177760821Y-68885541D01*
X177772175Y-68887401D01*
X177776464Y-68889178D01*
X177792890Y-68890795D01*
X177809185Y-68893466D01*
X177813788Y-68892854D01*
X177825237Y-68893982D01*
X178063333Y-68893982D01*
X178074781Y-68892854D01*
X178079385Y-68893466D01*
X178095679Y-68890795D01*
X178112106Y-68889178D01*
X178116394Y-68887401D01*
X178127749Y-68885541D01*
X178484890Y-68790303D01*
X178530779Y-68773094D01*
X178532943Y-68771436D01*
X178535563Y-68770678D01*
X178576649Y-68743961D01*
X178695697Y-68648722D01*
X178730781Y-68614502D01*
X178737515Y-68602272D01*
X178747390Y-68592398D01*
X178760858Y-68559881D01*
X178777834Y-68529055D01*
X178779375Y-68515177D01*
X178784719Y-68502278D01*
X178789523Y-68453505D01*
X178789523Y-67786839D01*
X178784719Y-67738066D01*
X178776122Y-67717311D01*
X178828416Y-67738972D01*
G37*
G36*
X184424183Y-63737692D02*
G01*
X184573691Y-63857298D01*
X184590357Y-63910631D01*
X184574183Y-63897692D01*
X184415188Y-63834094D01*
X184035287Y-63834094D01*
X183876290Y-63897692D01*
X183726783Y-64017298D01*
X183641904Y-64288913D01*
X183641904Y-64879273D01*
X183710116Y-65097554D01*
X183576783Y-64990888D01*
X183491904Y-64719273D01*
X183491904Y-64288913D01*
X183491904Y-64128913D01*
X183576783Y-63857298D01*
X183726290Y-63737692D01*
X183885287Y-63674094D01*
X184265188Y-63674094D01*
X184424183Y-63737692D01*
G37*
G36*
X176328416Y-67738972D02*
G01*
X176397390Y-67807946D01*
X176434719Y-67898066D01*
X176439523Y-67946839D01*
X176439523Y-68613505D01*
X176434719Y-68662278D01*
X176429375Y-68675177D01*
X176427834Y-68689055D01*
X176410858Y-68719881D01*
X176397390Y-68752398D01*
X176387515Y-68762272D01*
X176380781Y-68774502D01*
X176345697Y-68808722D01*
X176226649Y-68903961D01*
X176185563Y-68930678D01*
X176182943Y-68931436D01*
X176180779Y-68933094D01*
X176134890Y-68950303D01*
X175777749Y-69045541D01*
X175766394Y-69047401D01*
X175762106Y-69049178D01*
X175745679Y-69050795D01*
X175729385Y-69053466D01*
X175724781Y-69052854D01*
X175713333Y-69053982D01*
X175475237Y-69053982D01*
X175463788Y-69052854D01*
X175459185Y-69053466D01*
X175442890Y-69050795D01*
X175426464Y-69049178D01*
X175422175Y-69047401D01*
X175410821Y-69045541D01*
X175053678Y-68950303D01*
X175007790Y-68933094D01*
X175005625Y-68931436D01*
X175003006Y-68930678D01*
X174961920Y-68903961D01*
X174723825Y-68713484D01*
X174703112Y-68693281D01*
X174697922Y-68689580D01*
X174693691Y-68684092D01*
X174688741Y-68679264D01*
X174685670Y-68673688D01*
X174667999Y-68650766D01*
X174640571Y-68606881D01*
X174811920Y-68743961D01*
X174853006Y-68770678D01*
X174855625Y-68771436D01*
X174857790Y-68773094D01*
X174903678Y-68790303D01*
X175260821Y-68885541D01*
X175272175Y-68887401D01*
X175276464Y-68889178D01*
X175292890Y-68890795D01*
X175309185Y-68893466D01*
X175313788Y-68892854D01*
X175325237Y-68893982D01*
X175563333Y-68893982D01*
X175574781Y-68892854D01*
X175579385Y-68893466D01*
X175595679Y-68890795D01*
X175612106Y-68889178D01*
X175616394Y-68887401D01*
X175627749Y-68885541D01*
X175984890Y-68790303D01*
X176030779Y-68773094D01*
X176032943Y-68771436D01*
X176035563Y-68770678D01*
X176076649Y-68743961D01*
X176195697Y-68648722D01*
X176230781Y-68614502D01*
X176237515Y-68602272D01*
X176247390Y-68592398D01*
X176260858Y-68559881D01*
X176277834Y-68529055D01*
X176279375Y-68515177D01*
X176284719Y-68502278D01*
X176289523Y-68453505D01*
X176289523Y-67786839D01*
X176284719Y-67738066D01*
X176276122Y-67717311D01*
X176328416Y-67738972D01*
G37*
G36*
X176163323Y-66667101D02*
G01*
X176206823Y-66689675D01*
X176276634Y-66757804D01*
X176315058Y-66847461D01*
X176316247Y-66944999D01*
X176280020Y-67035568D01*
X176211891Y-67105379D01*
X176122234Y-67143803D01*
X176024696Y-67144993D01*
X175977627Y-67131339D01*
X175784235Y-67053982D01*
X175507998Y-67053982D01*
X175233254Y-67127247D01*
X175069427Y-67258309D01*
X174989985Y-67385416D01*
X174903827Y-67661124D01*
X174891904Y-67699277D01*
X174891904Y-67908685D01*
X174989985Y-68222546D01*
X175019427Y-68269654D01*
X174919427Y-68189654D01*
X174839985Y-68062546D01*
X174741904Y-67748685D01*
X174741904Y-67539277D01*
X174839985Y-67225416D01*
X174919427Y-67098309D01*
X175083254Y-66967247D01*
X175357998Y-66893982D01*
X175634235Y-66893982D01*
X175827627Y-66971339D01*
X175874696Y-66984993D01*
X175972234Y-66983803D01*
X176061891Y-66945379D01*
X176130020Y-66875568D01*
X176166247Y-66784999D01*
X176165058Y-66687461D01*
X176154886Y-66663726D01*
X176163323Y-66667101D01*
G37*
G36*
X182995083Y-68596115D02*
G01*
X183064057Y-68665089D01*
X183101386Y-68755209D01*
X183101386Y-68852755D01*
X183064057Y-68942875D01*
X182995083Y-69011849D01*
X182904963Y-69049178D01*
X182856190Y-69053982D01*
X181665714Y-69053982D01*
X181616941Y-69049178D01*
X181526821Y-69011849D01*
X181457847Y-68942875D01*
X181429114Y-68873509D01*
X181466941Y-68889178D01*
X181515714Y-68893982D01*
X182706190Y-68893982D01*
X182754963Y-68889178D01*
X182845083Y-68851849D01*
X182914057Y-68782875D01*
X182951386Y-68692755D01*
X182951386Y-68595209D01*
X182942789Y-68574454D01*
X182995083Y-68596115D01*
G37*
G36*
X187536173Y-66894479D02*
G01*
X187556889Y-66914684D01*
X187562076Y-66918383D01*
X187566301Y-66923863D01*
X187571258Y-66928698D01*
X187574331Y-66934279D01*
X187592000Y-66957197D01*
X187711047Y-67147673D01*
X187715741Y-67157137D01*
X187718534Y-67160483D01*
X187725215Y-67176240D01*
X187732823Y-67191578D01*
X187733542Y-67195877D01*
X187737667Y-67205603D01*
X187800000Y-67405067D01*
X187800000Y-68202895D01*
X187737667Y-68402360D01*
X187733542Y-68412085D01*
X187732823Y-68416385D01*
X187725215Y-68431722D01*
X187718534Y-68447480D01*
X187715741Y-68450825D01*
X187711047Y-68460290D01*
X187592000Y-68650766D01*
X187574329Y-68673685D01*
X187571258Y-68679264D01*
X187566303Y-68684096D01*
X187562076Y-68689580D01*
X187556889Y-68693279D01*
X187536174Y-68713484D01*
X187298079Y-68903961D01*
X187256993Y-68930678D01*
X187254373Y-68931436D01*
X187252209Y-68933094D01*
X187206320Y-68950303D01*
X186849178Y-69045541D01*
X186837823Y-69047401D01*
X186833535Y-69049178D01*
X186817108Y-69050795D01*
X186800814Y-69053466D01*
X186796210Y-69052854D01*
X186784762Y-69053982D01*
X186189524Y-69053982D01*
X186140751Y-69049178D01*
X186050631Y-69011849D01*
X185981657Y-68942875D01*
X185952924Y-68873509D01*
X185990751Y-68889178D01*
X186039524Y-68893982D01*
X186634762Y-68893982D01*
X186646210Y-68892854D01*
X186650814Y-68893466D01*
X186667108Y-68890795D01*
X186683535Y-68889178D01*
X186687823Y-68887401D01*
X186699178Y-68885541D01*
X187056320Y-68790303D01*
X187102209Y-68773094D01*
X187104373Y-68771436D01*
X187106993Y-68770678D01*
X187148079Y-68743961D01*
X187386174Y-68553484D01*
X187406889Y-68533279D01*
X187412076Y-68529580D01*
X187416303Y-68524096D01*
X187421258Y-68519264D01*
X187424329Y-68513685D01*
X187442000Y-68490766D01*
X187561047Y-68300290D01*
X187565741Y-68290825D01*
X187568534Y-68287480D01*
X187575215Y-68271722D01*
X187582823Y-68256385D01*
X187583542Y-68252085D01*
X187587667Y-68242360D01*
X187706715Y-67861408D01*
X187710843Y-67841520D01*
X187713291Y-67835612D01*
X187714393Y-67824423D01*
X187716677Y-67813422D01*
X187716103Y-67807055D01*
X187718095Y-67786839D01*
X187718095Y-67501124D01*
X187716103Y-67480907D01*
X187716677Y-67474541D01*
X187714393Y-67463539D01*
X187713291Y-67452351D01*
X187710843Y-67446442D01*
X187706715Y-67426555D01*
X187587667Y-67045603D01*
X187583542Y-67035877D01*
X187582823Y-67031578D01*
X187575215Y-67016240D01*
X187568534Y-67000483D01*
X187565741Y-66997137D01*
X187561047Y-66987673D01*
X187469428Y-66841083D01*
X187536173Y-66894479D01*
G37*
G36*
X181804607Y-66596115D02*
G01*
X181873581Y-66665089D01*
X181910910Y-66755209D01*
X181915714Y-66803982D01*
X181915714Y-67661124D01*
X181915714Y-68393982D01*
X181765714Y-68393982D01*
X181765714Y-66643982D01*
X181760910Y-66595209D01*
X181752313Y-66574454D01*
X181804607Y-66596115D01*
G37*
D17*
%TO.C,U7*%
X116135000Y-84280000D03*
X118675000Y-84280000D03*
X121215000Y-84280000D03*
X123755000Y-84280000D03*
X126295000Y-84280000D03*
D18*
X128835000Y-84280000D03*
D17*
X131375000Y-84280000D03*
X133915000Y-84280000D03*
X136455000Y-84280000D03*
X138995000Y-84280000D03*
X141535000Y-84280000D03*
X144075000Y-84280000D03*
X146615000Y-84280000D03*
X149155000Y-84280000D03*
D18*
X151695000Y-84280000D03*
D17*
X154235000Y-84280000D03*
X156775000Y-84280000D03*
X159315000Y-84280000D03*
X161855000Y-84280000D03*
X164395000Y-84280000D03*
X164395000Y-66500000D03*
X161855000Y-66500000D03*
X159315000Y-66500000D03*
X156775000Y-66500000D03*
X154235000Y-66500000D03*
X151695000Y-66500000D03*
X149155000Y-66500000D03*
X146615000Y-66500000D03*
D18*
X144075000Y-66500000D03*
D17*
X141535000Y-66500000D03*
X138995000Y-66500000D03*
X136455000Y-66500000D03*
X133915000Y-66500000D03*
X131375000Y-66500000D03*
D18*
X128835000Y-66500000D03*
D17*
X126295000Y-66500000D03*
X123755000Y-66500000D03*
D18*
X121215000Y-66500000D03*
D17*
X118675000Y-66500000D03*
X116135000Y-66500000D03*
X164390000Y-79220000D03*
D18*
X164390000Y-76680000D03*
D17*
X164390000Y-74140000D03*
X164390000Y-71600000D03*
%TD*%
D19*
%TO.C,T14*%
X183650000Y-107060000D03*
%TD*%
%TO.C,T4*%
X174160000Y-82530000D03*
%TD*%
%TO.C,T13*%
X183630000Y-98650000D03*
%TD*%
D20*
%TO.C,J3*%
X181920000Y-92790000D03*
X181920000Y-92290000D03*
X181920000Y-91790000D03*
X181920000Y-91290000D03*
X181920000Y-90790000D03*
X181920000Y-90290000D03*
X181920000Y-89790000D03*
X181920000Y-89290000D03*
X181920000Y-88790000D03*
X181920000Y-88290000D03*
X181920000Y-87790000D03*
X181920000Y-87290000D03*
X181920000Y-86790000D03*
X181920000Y-86290000D03*
X181920000Y-85790000D03*
X181920000Y-85290000D03*
X181920000Y-84790000D03*
X181920000Y-84290000D03*
X181920000Y-83790000D03*
X181920000Y-83290000D03*
X181920000Y-82790000D03*
X181920000Y-82290000D03*
X181920000Y-81790000D03*
X181920000Y-81290000D03*
D21*
X184370000Y-94940000D03*
X184370000Y-79140000D03*
%TD*%
D19*
%TO.C,T18*%
X182190000Y-74540000D03*
%TD*%
%TO.C,T5*%
X170920000Y-77870000D03*
%TD*%
%TO.C,T16*%
X183630000Y-104250000D03*
%TD*%
%TO.C,T2*%
X180660000Y-98650000D03*
%TD*%
D22*
%TO.C,MHP2*%
X187650000Y-112820000D03*
%TD*%
D19*
%TO.C,T1*%
X177780000Y-98650000D03*
%TD*%
%TO.C,T6*%
X168140000Y-77690000D03*
%TD*%
D23*
%TO.C,J2*%
X154690000Y-95545000D03*
X154190000Y-95545000D03*
X153690000Y-95545000D03*
X153190000Y-95545000D03*
X152690000Y-95545000D03*
X152190000Y-95545000D03*
X151690000Y-95545000D03*
X151190000Y-95545000D03*
X150690000Y-95545000D03*
X150190000Y-95545000D03*
X149690000Y-95545000D03*
X149190000Y-95545000D03*
X148690000Y-95545000D03*
X148190000Y-95545000D03*
X147690000Y-95545000D03*
X147190000Y-95545000D03*
X146690000Y-95545000D03*
X146190000Y-95545000D03*
X145690000Y-95545000D03*
X145190000Y-95545000D03*
X144690000Y-95545000D03*
X144190000Y-95545000D03*
X143690000Y-95545000D03*
X143190000Y-95545000D03*
X142690000Y-95545000D03*
X142190000Y-95545000D03*
X141690000Y-95545000D03*
X141190000Y-95545000D03*
X140690000Y-95545000D03*
X140190000Y-95545000D03*
X139690000Y-95545000D03*
X139190000Y-95545000D03*
X138690000Y-95545000D03*
X138190000Y-95545000D03*
X137690000Y-95545000D03*
X137190000Y-95545000D03*
X136690000Y-95545000D03*
X136190000Y-95545000D03*
X135690000Y-95545000D03*
X135190000Y-95545000D03*
X134690000Y-95545000D03*
X134190000Y-95545000D03*
X133690000Y-95545000D03*
X133190000Y-95545000D03*
X132690000Y-95545000D03*
X132190000Y-95545000D03*
X131690000Y-95545000D03*
X131190000Y-95545000D03*
X130690000Y-95545000D03*
X130190000Y-95545000D03*
X129690000Y-95545000D03*
X129190000Y-95545000D03*
X128690000Y-95545000D03*
X128190000Y-95545000D03*
D24*
X156540000Y-92235000D03*
D25*
X126060000Y-92525000D03*
%TD*%
D22*
%TO.C,MHP1*%
X113980000Y-62630000D03*
%TD*%
D19*
%TO.C,T15*%
X183630000Y-101470000D03*
%TD*%
%TO.C,T17*%
X184850000Y-74540000D03*
%TD*%
%TO.C,T3*%
X167690000Y-69090000D03*
%TD*%
D26*
%TO.C,J1*%
X132185000Y-110180000D03*
X132185000Y-109680000D03*
X132185000Y-109180000D03*
X132185000Y-108680000D03*
X132185000Y-108180000D03*
X132185000Y-107680000D03*
X132185000Y-107180000D03*
X132185000Y-106680000D03*
X132185000Y-106180000D03*
X132185000Y-105680000D03*
X132185000Y-105180000D03*
X132185000Y-104680000D03*
X132185000Y-104180000D03*
X132185000Y-103680000D03*
X132185000Y-103180000D03*
X132185000Y-102680000D03*
X132185000Y-102180000D03*
X132185000Y-101680000D03*
X132185000Y-101180000D03*
D27*
X131425000Y-112930000D03*
X131425000Y-98430000D03*
D28*
X125465000Y-112930000D03*
X125465000Y-98430000D03*
%TD*%
D19*
%TO.C,T11*%
X177870000Y-73010000D03*
%TD*%
%TO.C,T20*%
X182190000Y-71720000D03*
%TD*%
%TO.C,T12*%
X178750000Y-75750000D03*
%TD*%
%TO.C,TP17*%
X170320000Y-63120000D03*
%TD*%
%TO.C,TP15*%
X161280000Y-91250000D03*
%TD*%
%TO.C,T19*%
X184850000Y-71720000D03*
%TD*%
%TO.C,TP16*%
X160500000Y-98020000D03*
%TD*%
%LPD*%
M02*
