%TF.GenerationSoftware,KiCad,Pcbnew,9.0.6*%
%TF.CreationDate,2025-12-19T16:30:06+00:00*%
%TF.ProjectId,GG_LCD_DIY,47475f4c-4344-45f4-9449-592e6b696361,rev?*%
%TF.SameCoordinates,Original*%
%TF.FileFunction,Soldermask,Top*%
%TF.FilePolarity,Negative*%
%FSLAX46Y46*%
G04 Gerber Fmt 4.6, Leading zero omitted, Abs format (unit mm)*
G04 Created by KiCad (PCBNEW 9.0.6) date 2025-12-19 16:30:06*
%MOMM*%
%LPD*%
G01*
G04 APERTURE LIST*
G04 Aperture macros list*
%AMRoundRect*
0 Rectangle with rounded corners*
0 $1 Rounding radius*
0 $2 $3 $4 $5 $6 $7 $8 $9 X,Y pos of 4 corners*
0 Add a 4 corners polygon primitive as box body*
4,1,4,$2,$3,$4,$5,$6,$7,$8,$9,$2,$3,0*
0 Add four circle primitives for the rounded corners*
1,1,$1+$1,$2,$3*
1,1,$1+$1,$4,$5*
1,1,$1+$1,$6,$7*
1,1,$1+$1,$8,$9*
0 Add four rect primitives between the rounded corners*
20,1,$1+$1,$2,$3,$4,$5,0*
20,1,$1+$1,$4,$5,$6,$7,0*
20,1,$1+$1,$6,$7,$8,$9,0*
20,1,$1+$1,$8,$9,$2,$3,0*%
%AMFreePoly0*
4,1,5,1.100000,-2.190000,-1.550000,-2.190000,-1.550000,1.600000,1.100000,1.600000,1.100000,-2.190000,1.100000,-2.190000,$1*%
%AMFreePoly1*
4,1,5,1.479392,-2.660000,-3.980000,-2.660000,-3.980000,1.180000,1.480354,1.180000,1.479392,-2.660000,1.479392,-2.660000,$1*%
G04 Aperture macros list end*
%ADD10O,1.700000X1.700000*%
%ADD11R,1.700000X1.700000*%
%ADD12C,1.500000*%
%ADD13R,1.100000X0.300000*%
%ADD14R,3.100000X2.300000*%
%ADD15C,1.524000*%
%ADD16C,1.300000*%
%ADD17RoundRect,0.075000X0.075000X0.475000X-0.075000X0.475000X-0.075000X-0.475000X0.075000X-0.475000X0*%
%ADD18FreePoly0,180.000000*%
%ADD19FreePoly1,180.000000*%
G04 APERTURE END LIST*
D10*
%TO.C,U1*%
X120640000Y-83780000D03*
X123180000Y-83780000D03*
X125720000Y-83780000D03*
X128260000Y-83780000D03*
X130800000Y-83780000D03*
D11*
X133340000Y-83780000D03*
D10*
X135880000Y-83780000D03*
X138420000Y-83780000D03*
X140960000Y-83780000D03*
X143500000Y-83780000D03*
X146040000Y-83780000D03*
X148580000Y-83780000D03*
X151120000Y-83780000D03*
X153660000Y-83780000D03*
D11*
X156200000Y-83780000D03*
D10*
X158740000Y-83780000D03*
X161280000Y-83780000D03*
X163820000Y-83780000D03*
X166360000Y-83780000D03*
X168900000Y-83780000D03*
X168900000Y-66000000D03*
X166360000Y-66000000D03*
X163820000Y-66000000D03*
X161280000Y-66000000D03*
X158740000Y-66000000D03*
X156200000Y-66000000D03*
X153660000Y-66000000D03*
X151120000Y-66000000D03*
D11*
X148580000Y-66000000D03*
D10*
X146040000Y-66000000D03*
X143500000Y-66000000D03*
X140960000Y-66000000D03*
X138420000Y-66000000D03*
X135880000Y-66000000D03*
D11*
X133340000Y-66000000D03*
D10*
X130800000Y-66000000D03*
X128260000Y-66000000D03*
D11*
X125720000Y-66000000D03*
D10*
X123180000Y-66000000D03*
X120640000Y-66000000D03*
X168895000Y-78720000D03*
D11*
X168895000Y-76180000D03*
D10*
X168895000Y-73640000D03*
X168895000Y-71100000D03*
%TD*%
D12*
%TO.C,T18*%
X181490000Y-106750000D03*
%TD*%
%TO.C,T17*%
X181490000Y-110800000D03*
%TD*%
%TO.C,T4*%
X109970000Y-73920000D03*
%TD*%
%TO.C,T14*%
X185020000Y-98650000D03*
%TD*%
D13*
%TO.C,J3*%
X180270000Y-91790000D03*
X180270000Y-91290000D03*
X180270000Y-90790000D03*
X180270000Y-90290000D03*
X180270000Y-89790000D03*
X180270000Y-89290000D03*
X180270000Y-88790000D03*
X180270000Y-88290000D03*
X180270000Y-87790000D03*
X180270000Y-87290000D03*
X180270000Y-86790000D03*
X180270000Y-86290000D03*
X180270000Y-85790000D03*
X180270000Y-85290000D03*
X180270000Y-84790000D03*
X180270000Y-84290000D03*
X180270000Y-83790000D03*
X180270000Y-83290000D03*
X180270000Y-82790000D03*
X180270000Y-82290000D03*
D14*
X181970000Y-93460000D03*
X181970000Y-80620000D03*
%TD*%
D12*
%TO.C,T19*%
X181490000Y-102700000D03*
%TD*%
D15*
%TO.C,J1*%
X174009293Y-110720707D03*
X174009293Y-108180707D03*
X171469293Y-110720707D03*
X171469293Y-108180707D03*
X168929293Y-110720707D03*
X168929293Y-108180707D03*
X166389293Y-110720707D03*
X166389293Y-108180707D03*
X163849293Y-110720707D03*
X163849293Y-108180707D03*
X161309293Y-110720707D03*
X161309293Y-108180707D03*
X158769293Y-110720707D03*
X158769293Y-108180707D03*
X156229293Y-110720707D03*
X156229293Y-108180707D03*
X153689293Y-110720707D03*
X153689293Y-108180707D03*
X151149293Y-110720707D03*
X151149293Y-108180707D03*
X148609293Y-110720707D03*
X148609293Y-108180707D03*
X146069293Y-110720707D03*
X146069293Y-108180707D03*
X143529293Y-110720707D03*
X143529293Y-108180707D03*
X140989293Y-110720707D03*
X140989293Y-108180707D03*
X138449293Y-110720707D03*
X138449293Y-108180707D03*
X135909293Y-110720707D03*
X135909293Y-108180707D03*
X133369293Y-110720707D03*
X133369293Y-108180707D03*
X130829293Y-110720707D03*
X130829293Y-108180707D03*
X128289293Y-110720707D03*
X128289293Y-108180707D03*
X125749293Y-110720707D03*
X125749293Y-108180707D03*
X123209293Y-110720707D03*
X123209293Y-108180707D03*
X120669293Y-110720707D03*
X120669293Y-108180707D03*
X118129293Y-110720707D03*
X118129293Y-108180707D03*
X115589293Y-110720707D03*
X115589293Y-108180707D03*
X113049293Y-110720707D03*
X113049293Y-108180707D03*
X110509293Y-110720707D03*
X110509293Y-108180707D03*
X107969293Y-110720707D03*
X107969293Y-108180707D03*
%TD*%
D16*
%TO.C,MHP1*%
X106480000Y-62630000D03*
%TD*%
D12*
%TO.C,T15*%
X185020000Y-102700000D03*
%TD*%
%TO.C,T1*%
X177780000Y-98650000D03*
%TD*%
D17*
%TO.C,J2*%
X154690000Y-98345000D03*
X154190000Y-98345000D03*
X153690000Y-98345000D03*
X153190000Y-98345000D03*
X152690000Y-98345000D03*
X152190000Y-98345000D03*
X151690000Y-98345000D03*
X151190000Y-98345000D03*
X150690000Y-98345000D03*
X150190000Y-98345000D03*
X149690000Y-98345000D03*
X149190000Y-98345000D03*
X148690000Y-98345000D03*
X148190000Y-98345000D03*
X147690000Y-98345000D03*
X147190000Y-98345000D03*
X146690000Y-98345000D03*
X146190000Y-98345000D03*
X145690000Y-98345000D03*
X145190000Y-98345000D03*
X144690000Y-98345000D03*
X144190000Y-98345000D03*
X143690000Y-98345000D03*
X143190000Y-98345000D03*
X142690000Y-98345000D03*
X142190000Y-98345000D03*
X141690000Y-98345000D03*
X141190000Y-98345000D03*
X140690000Y-98345000D03*
X140190000Y-98345000D03*
X139690000Y-98345000D03*
X139190000Y-98345000D03*
X138690000Y-98345000D03*
X138190000Y-98345000D03*
X137690000Y-98345000D03*
X137190000Y-98345000D03*
X136690000Y-98345000D03*
X136190000Y-98345000D03*
X135690000Y-98345000D03*
X135190000Y-98345000D03*
X134690000Y-98345000D03*
X134190000Y-98345000D03*
X133690000Y-98345000D03*
X133190000Y-98345000D03*
X132690000Y-98345000D03*
X132190000Y-98345000D03*
X131690000Y-98345000D03*
X131190000Y-98345000D03*
X130690000Y-98345000D03*
X130190000Y-98345000D03*
X129690000Y-98345000D03*
X129190000Y-98345000D03*
X128690000Y-98345000D03*
X128190000Y-98345000D03*
D18*
X156540000Y-95235000D03*
D19*
X123460000Y-95605000D03*
%TD*%
D12*
%TO.C,T2*%
X109970000Y-66560000D03*
%TD*%
%TO.C,T13*%
X185020000Y-106750000D03*
%TD*%
%TO.C,T20*%
X181490000Y-98650000D03*
%TD*%
%TO.C,T16*%
X185020000Y-110800000D03*
%TD*%
%TO.C,T5*%
X113510000Y-73920000D03*
%TD*%
%TO.C,T2*%
X177930000Y-102700000D03*
%TD*%
D13*
%TO.C,J4*%
X111460000Y-85250000D03*
X111460000Y-85750000D03*
X111460000Y-86250000D03*
X111460000Y-86750000D03*
X111460000Y-87250000D03*
X111460000Y-87750000D03*
X111460000Y-88250000D03*
X111460000Y-88750000D03*
D14*
X109760000Y-83580000D03*
X109760000Y-90420000D03*
%TD*%
D12*
%TO.C,T10*%
X109970000Y-70240000D03*
%TD*%
D13*
%TO.C,J5*%
X180280000Y-75290000D03*
X180280000Y-74790000D03*
X180280000Y-74290000D03*
X180280000Y-73790000D03*
X180280000Y-73290000D03*
X180280000Y-72790000D03*
X180280000Y-72290000D03*
X180280000Y-71790000D03*
X180280000Y-71290000D03*
X180280000Y-70790000D03*
X180280000Y-70290000D03*
X180280000Y-69790000D03*
X180280000Y-69290000D03*
X180280000Y-68790000D03*
X180280000Y-68290000D03*
X180280000Y-67790000D03*
X180280000Y-67290000D03*
X180280000Y-66790000D03*
X180280000Y-66290000D03*
X180280000Y-65790000D03*
D14*
X181980000Y-76960000D03*
X181980000Y-64120000D03*
%TD*%
D12*
%TO.C,T12*%
X175170000Y-76970000D03*
%TD*%
D16*
%TO.C,MHP3*%
X186650000Y-112620000D03*
%TD*%
D12*
%TO.C,T11*%
X175120000Y-80010000D03*
%TD*%
%TO.C,T3*%
X113510000Y-70240000D03*
%TD*%
M02*
