%TF.GenerationSoftware,KiCad,Pcbnew,9.0.5*%
%TF.CreationDate,2025-11-09T20:04:02+00:00*%
%TF.ProjectId,GG_LCD_DIY,47475f4c-4344-45f4-9449-592e6b696361,rev?*%
%TF.SameCoordinates,Original*%
%TF.FileFunction,Profile,NP*%
%FSLAX46Y46*%
G04 Gerber Fmt 4.6, Leading zero omitted, Abs format (unit mm)*
G04 Created by KiCad (PCBNEW 9.0.5) date 2025-11-09 20:04:02*
%MOMM*%
%LPD*%
G01*
G04 APERTURE LIST*
%TA.AperFunction,Profile*%
%ADD10C,0.050000*%
%TD*%
%ADD11C,0.050000*%
G04 APERTURE END LIST*
D10*
X108090000Y-54110000D02*
X120738945Y-54110000D01*
X112020000Y-114000000D02*
X185300000Y-114000000D01*
X188000000Y-103275000D02*
X188000000Y-74340000D01*
D11*
X125000000Y-58250000D02*
X124992732Y-58250057D01*
X124985493Y-58250094D01*
X124978299Y-58250111D01*
X124971132Y-58250108D01*
X124964010Y-58250085D01*
X124956916Y-58250042D01*
X124949865Y-58249979D01*
X124942842Y-58249896D01*
X124935862Y-58249794D01*
X124928910Y-58249673D01*
X124922000Y-58249532D01*
X124915117Y-58249371D01*
X124908277Y-58249192D01*
X124901463Y-58248994D01*
X124894691Y-58248776D01*
X124887946Y-58248540D01*
X124881242Y-58248284D01*
X124874565Y-58248010D01*
X124867928Y-58247718D01*
X124861318Y-58247406D01*
X124854747Y-58247077D01*
X124848203Y-58246729D01*
X124841698Y-58246363D01*
X124835220Y-58245978D01*
X124828780Y-58245576D01*
X124822366Y-58245155D01*
X124815991Y-58244717D01*
X124809642Y-58244260D01*
X124803330Y-58243787D01*
X124797044Y-58243295D01*
X124790795Y-58242785D01*
X124784572Y-58242258D01*
X124778386Y-58241714D01*
X124772225Y-58241152D01*
X124766100Y-58240574D01*
X124760001Y-58239978D01*
X124753937Y-58239365D01*
X124747898Y-58238734D01*
X124741895Y-58238087D01*
X124735917Y-58237423D01*
X124729973Y-58236742D01*
X124724054Y-58236045D01*
X124718170Y-58235331D01*
X124712310Y-58234600D01*
X124706484Y-58233853D01*
X124700682Y-58233089D01*
X124694914Y-58232309D01*
X124689169Y-58231512D01*
X124683458Y-58230700D01*
X124677771Y-58229871D01*
X124672116Y-58229026D01*
X124666485Y-58228165D01*
X124660887Y-58227289D01*
X124655312Y-58226396D01*
X124649768Y-58225487D01*
X124644248Y-58224563D01*
X124638760Y-58223623D01*
X124633294Y-58222667D01*
X124627860Y-58221696D01*
X124622448Y-58220709D01*
X124617067Y-58219708D01*
X124611709Y-58218690D01*
X124606381Y-58217657D01*
X124601075Y-58216609D01*
X124595799Y-58215546D01*
X124590546Y-58214467D01*
X124585322Y-58213374D01*
X124580120Y-58212265D01*
X124574947Y-58211141D01*
X124569796Y-58210002D01*
X124564674Y-58208849D01*
X124559573Y-58207681D01*
X124554501Y-58206498D01*
X124549450Y-58205300D01*
X124544427Y-58204088D01*
X124539426Y-58202860D01*
X124534452Y-58201619D01*
X124529500Y-58200362D01*
X124524574Y-58199092D01*
X124519670Y-58197806D01*
X124514792Y-58196507D01*
X124509935Y-58195193D01*
X124505105Y-58193865D01*
X124500295Y-58192522D01*
X124495511Y-58191166D01*
X124490748Y-58189794D01*
X124486011Y-58188409D01*
X124481293Y-58187010D01*
X124476602Y-58185597D01*
X124471930Y-58184169D01*
X124467283Y-58182728D01*
X124462657Y-58181272D01*
X124458055Y-58179803D01*
X124453473Y-58178320D01*
X124448915Y-58176823D01*
X124444376Y-58175312D01*
X124439862Y-58173787D01*
X124435367Y-58172248D01*
X124430896Y-58170696D01*
X124426445Y-58169130D01*
X124422016Y-58167551D01*
X124417607Y-58165957D01*
X124413220Y-58164350D01*
X124408853Y-58162729D01*
X124404508Y-58161095D01*
X124400183Y-58159447D01*
X124395879Y-58157786D01*
X124391594Y-58156111D01*
X124387331Y-58154423D01*
X124383087Y-58152721D01*
X124378865Y-58151006D01*
X124374661Y-58149276D01*
X124370478Y-58147534D01*
X124366313Y-58145779D01*
X124362170Y-58144010D01*
X124358045Y-58142227D01*
X124353940Y-58140431D01*
X124349853Y-58138622D01*
X124345787Y-58136799D01*
X124341739Y-58134963D01*
X124337710Y-58133114D01*
X124333700Y-58131251D01*
X124329709Y-58129375D01*
X124325736Y-58127486D01*
X124321782Y-58125583D01*
X124317846Y-58123667D01*
X124313929Y-58121738D01*
X124310029Y-58119795D01*
X124306148Y-58117840D01*
X124302285Y-58115870D01*
X124298440Y-58113888D01*
X124294612Y-58111892D01*
X124290802Y-58109883D01*
X124287010Y-58107860D01*
X124283235Y-58105825D01*
X124279478Y-58103776D01*
X124275738Y-58101713D01*
X124272015Y-58099637D01*
X124268309Y-58097548D01*
X124264620Y-58095446D01*
X124260948Y-58093330D01*
X124257293Y-58091201D01*
X124253654Y-58089058D01*
X124250032Y-58086902D01*
X124246426Y-58084733D01*
X124242838Y-58082550D01*
X124239265Y-58080353D01*
X124235708Y-58078144D01*
X124232168Y-58075920D01*
X124228644Y-58073684D01*
X124225135Y-58071433D01*
X124221643Y-58069169D01*
X124218165Y-58066891D01*
X124214705Y-58064601D01*
X124211259Y-58062296D01*
X124207829Y-58059978D01*
X124201015Y-58055300D01*
X124194262Y-58050567D01*
X124187570Y-58045779D01*
X124180937Y-58040936D01*
X124174363Y-58036036D01*
X124167848Y-58031081D01*
X124161390Y-58026069D01*
X124154989Y-58021001D01*
X124148645Y-58015875D01*
X124142357Y-58010692D01*
X124136124Y-58005451D01*
X124129946Y-58000152D01*
X124123822Y-57994795D01*
X124117752Y-57989378D01*
X124111735Y-57983901D01*
X124105771Y-57978365D01*
X124099859Y-57972767D01*
X124093998Y-57967109D01*
X124088188Y-57961389D01*
X124082429Y-57955607D01*
X124076720Y-57949762D01*
X124071061Y-57943853D01*
X124065451Y-57937880D01*
X124059890Y-57931843D01*
X124054377Y-57925740D01*
X124048912Y-57919572D01*
X124043495Y-57913336D01*
X124038124Y-57907033D01*
X124032801Y-57900662D01*
X124027524Y-57894221D01*
X124022293Y-57887711D01*
X124017107Y-57881130D01*
X124011967Y-57874477D01*
X124006871Y-57867752D01*
X124001820Y-57860953D01*
X123996814Y-57854080D01*
X123991851Y-57847132D01*
X123986933Y-57840108D01*
X123982057Y-57833006D01*
X123977225Y-57825826D01*
X123972435Y-57818567D01*
X123967689Y-57811227D01*
X123962984Y-57803806D01*
X123958321Y-57796301D01*
X123953701Y-57788713D01*
X123949122Y-57781039D01*
X123944584Y-57773279D01*
X123940087Y-57765431D01*
X123935631Y-57757494D01*
X123931216Y-57749466D01*
X123926842Y-57741346D01*
X123922508Y-57733133D01*
X123918214Y-57724824D01*
X123913960Y-57716419D01*
X123909746Y-57707916D01*
X123905571Y-57699313D01*
X123901436Y-57690609D01*
X123897341Y-57681801D01*
X123893284Y-57672888D01*
X123889267Y-57663867D01*
X123885288Y-57654738D01*
X123881348Y-57645498D01*
X123877447Y-57636145D01*
X123873584Y-57626676D01*
X123869759Y-57617090D01*
X123865972Y-57607385D01*
X123862224Y-57597557D01*
X123858513Y-57587604D01*
X123854840Y-57577524D01*
X123851205Y-57567314D01*
X123847607Y-57556971D01*
X123844047Y-57546493D01*
X123840523Y-57535875D01*
X123837037Y-57525116D01*
X123833587Y-57514212D01*
X123830174Y-57503159D01*
X123826798Y-57491953D01*
X123823458Y-57480592D01*
X123820154Y-57469071D01*
X123816885Y-57457385D01*
X123813653Y-57445530D01*
X123810456Y-57433502D01*
X123807294Y-57421297D01*
X123804167Y-57408907D01*
X123801074Y-57396329D01*
X123798016Y-57383556D01*
X123794991Y-57370583D01*
X123792001Y-57357402D01*
X123789043Y-57344007D01*
X123786118Y-57330390D01*
X123783224Y-57316543D01*
X123780363Y-57302459D01*
X123777532Y-57288126D01*
X123774732Y-57273536D01*
X123771962Y-57258678D01*
X123769220Y-57243539D01*
X123766505Y-57228108D01*
X123763818Y-57212370D01*
X123761157Y-57196310D01*
X123758519Y-57179911D01*
X123755905Y-57163155D01*
X123753312Y-57146019D01*
X123750739Y-57128482D01*
X123748183Y-57110517D01*
X123745641Y-57092094D01*
X123743112Y-57073179D01*
X123740592Y-57053733D01*
X123738077Y-57033710D01*
X123735563Y-57013057D01*
X123733044Y-56991710D01*
X123730513Y-56969592D01*
X123727962Y-56946608D01*
X123725381Y-56922641D01*
X123722757Y-56897537D01*
X123720071Y-56871097D01*
X123717300Y-56843044D01*
X123714408Y-56812980D01*
X123711341Y-56780285D01*
X123708003Y-56743904D01*
X123704205Y-56701701D01*
X123699419Y-56647756D01*
X123698047Y-56632221D01*
X123693227Y-56577768D01*
X123690789Y-56550443D01*
X123688322Y-56523059D01*
X123685819Y-56495620D01*
X123683272Y-56468130D01*
X123680674Y-56440594D01*
X123678018Y-56413016D01*
X123675296Y-56385401D01*
X123672501Y-56357753D01*
X123671073Y-56343918D01*
X123669624Y-56330076D01*
X123668154Y-56316229D01*
X123666660Y-56302376D01*
X123665142Y-56288518D01*
X123663600Y-56274656D01*
X123662032Y-56260790D01*
X123660437Y-56246921D01*
X123658814Y-56233049D01*
X123657163Y-56219175D01*
X123655483Y-56205300D01*
X123653772Y-56191423D01*
X123652029Y-56177546D01*
X123650255Y-56163670D01*
X123648447Y-56149793D01*
X123646605Y-56135918D01*
X123644728Y-56122045D01*
X123642815Y-56108174D01*
X123640865Y-56094306D01*
X123638878Y-56080442D01*
X123636851Y-56066581D01*
X123634785Y-56052725D01*
X123632678Y-56038874D01*
X123630530Y-56025028D01*
X123628339Y-56011189D01*
X123626104Y-55997357D01*
X123623826Y-55983532D01*
X123621502Y-55969715D01*
X123619131Y-55955906D01*
X123616714Y-55942106D01*
X123614249Y-55928316D01*
X123611734Y-55914535D01*
X123609170Y-55900766D01*
X123606555Y-55887007D01*
X123603888Y-55873260D01*
X123601168Y-55859526D01*
X123598395Y-55845805D01*
X123595567Y-55832096D01*
X123592684Y-55818402D01*
X123589744Y-55804722D01*
X123586747Y-55791058D01*
X123583691Y-55777409D01*
X123580576Y-55763776D01*
X123577402Y-55750160D01*
X123574166Y-55736561D01*
X123570868Y-55722980D01*
X123567507Y-55709418D01*
X123564082Y-55695874D01*
X123560593Y-55682350D01*
X123557037Y-55668846D01*
X123553415Y-55655362D01*
X123549726Y-55641900D01*
X123545968Y-55628459D01*
X123542140Y-55615041D01*
X123538243Y-55601646D01*
X123534273Y-55588274D01*
X123530232Y-55574925D01*
X123526118Y-55561602D01*
X123521929Y-55548303D01*
X123517665Y-55535030D01*
X123515505Y-55528403D01*
X123513326Y-55521783D01*
X123511127Y-55515170D01*
X123508909Y-55508563D01*
X123506672Y-55501963D01*
X123504415Y-55495370D01*
X123502139Y-55488784D01*
X123499842Y-55482205D01*
X123497526Y-55475633D01*
X123495189Y-55469068D01*
X123492833Y-55462511D01*
X123490456Y-55455960D01*
X123488059Y-55449418D01*
X123485641Y-55442882D01*
X123483203Y-55436354D01*
X123480744Y-55429834D01*
X123478264Y-55423321D01*
X123475764Y-55416816D01*
X123473242Y-55410319D01*
X123470699Y-55403830D01*
X123468134Y-55397348D01*
X123465549Y-55390875D01*
X123462941Y-55384409D01*
X123460312Y-55377952D01*
X123457661Y-55371503D01*
X123454989Y-55365062D01*
X123452294Y-55358630D01*
X123449577Y-55352206D01*
X123446838Y-55345790D01*
X123444077Y-55339383D01*
X123441293Y-55332985D01*
X123438487Y-55326595D01*
X123435658Y-55320214D01*
X123432806Y-55313842D01*
X123429931Y-55307479D01*
X123427033Y-55301125D01*
X123424112Y-55294780D01*
X123421167Y-55288443D01*
X123418199Y-55282117D01*
X123415208Y-55275799D01*
X123412193Y-55269490D01*
X123409154Y-55263191D01*
X123406092Y-55256902D01*
X123403005Y-55250622D01*
X123399895Y-55244351D01*
X123396760Y-55238091D01*
X123393601Y-55231839D01*
X123390417Y-55225598D01*
X123387209Y-55219367D01*
X123383976Y-55213145D01*
X123380718Y-55206934D01*
X123377436Y-55200732D01*
X123374128Y-55194541D01*
X123370795Y-55188360D01*
X123367437Y-55182189D01*
X123364054Y-55176029D01*
X123360645Y-55169879D01*
X123357211Y-55163739D01*
X123353750Y-55157610D01*
X123350264Y-55151492D01*
X123346752Y-55145384D01*
X123343214Y-55139288D01*
X123339650Y-55133201D01*
X123336059Y-55127126D01*
X123332442Y-55121062D01*
X123328799Y-55115009D01*
X123325129Y-55108967D01*
X123321432Y-55102936D01*
X123317708Y-55096917D01*
X123313957Y-55090908D01*
X123310179Y-55084911D01*
X123306374Y-55078926D01*
X123302541Y-55072952D01*
X123298681Y-55066990D01*
X123294794Y-55061039D01*
X123290879Y-55055100D01*
X123286935Y-55049173D01*
X123282964Y-55043258D01*
X123278965Y-55037355D01*
X123274938Y-55031464D01*
X123270883Y-55025584D01*
X123266799Y-55019717D01*
X123262686Y-55013863D01*
X123258545Y-55008020D01*
X123254375Y-55002190D01*
X123250177Y-54996372D01*
X123245949Y-54990567D01*
X123241692Y-54984774D01*
X123237406Y-54978994D01*
X123233091Y-54973227D01*
X123228746Y-54967472D01*
X123224372Y-54961731D01*
X123219968Y-54956002D01*
X123215535Y-54950286D01*
X123211071Y-54944583D01*
X123206577Y-54938894D01*
X123202053Y-54933217D01*
X123197499Y-54927554D01*
X123192915Y-54921904D01*
X123188300Y-54916268D01*
X123183655Y-54910645D01*
X123178978Y-54905035D01*
X123174271Y-54899439D01*
X123169533Y-54893857D01*
X123164764Y-54888289D01*
X123159964Y-54882734D01*
X123155132Y-54877193D01*
X123150270Y-54871667D01*
X123145375Y-54866154D01*
X123140449Y-54860655D01*
X123135491Y-54855171D01*
X123130501Y-54849700D01*
X123125479Y-54844244D01*
X123120425Y-54838803D01*
X123115339Y-54833376D01*
X123110221Y-54827963D01*
X123105070Y-54822565D01*
X123099886Y-54817181D01*
X123094670Y-54811813D01*
X123089421Y-54806459D01*
X123084139Y-54801120D01*
X123078824Y-54795795D01*
X123073476Y-54790486D01*
X123068095Y-54785192D01*
X123062680Y-54779913D01*
X123057232Y-54774649D01*
X123051750Y-54769401D01*
X123046234Y-54764168D01*
X123040685Y-54758950D01*
X123035101Y-54753748D01*
X123029483Y-54748561D01*
X123023832Y-54743390D01*
X123018146Y-54738234D01*
X123012425Y-54733095D01*
X123006670Y-54727971D01*
X123000880Y-54722863D01*
X122995056Y-54717771D01*
X122989196Y-54712695D01*
X122983302Y-54707635D01*
X122977372Y-54702591D01*
X122971407Y-54697564D01*
X122965407Y-54692552D01*
X122959371Y-54687558D01*
X122953300Y-54682579D01*
X122947193Y-54677618D01*
X122941050Y-54672672D01*
X122934871Y-54667744D01*
X122928657Y-54662832D01*
X122922406Y-54657937D01*
X122916118Y-54653059D01*
X122909795Y-54648197D01*
X122903434Y-54643353D01*
X122897037Y-54638526D01*
X122890604Y-54633716D01*
X122884133Y-54628923D01*
X122877626Y-54624147D01*
X122871081Y-54619389D01*
X122864499Y-54614648D01*
X122857880Y-54609925D01*
X122851224Y-54605219D01*
X122844529Y-54600531D01*
X122837797Y-54595860D01*
X122831028Y-54591208D01*
X122824220Y-54586573D01*
X122817374Y-54581956D01*
X122810491Y-54577357D01*
X122803569Y-54572776D01*
X122796608Y-54568213D01*
X122789609Y-54563669D01*
X122782572Y-54559142D01*
X122775495Y-54554634D01*
X122768380Y-54550144D01*
X122761226Y-54545673D01*
X122754033Y-54541220D01*
X122746800Y-54536786D01*
X122739529Y-54532371D01*
X122732217Y-54527974D01*
X122724867Y-54523596D01*
X122717476Y-54519237D01*
X122710046Y-54514897D01*
X122702576Y-54510576D01*
X122695066Y-54506274D01*
X122687516Y-54501991D01*
X122679926Y-54497727D01*
X122672295Y-54493483D01*
X122664624Y-54489258D01*
X122656912Y-54485052D01*
X122649159Y-54480866D01*
X122641366Y-54476700D01*
X122633532Y-54472553D01*
X122625656Y-54468426D01*
X122617740Y-54464318D01*
X122609782Y-54460231D01*
X122601783Y-54456163D01*
X122593742Y-54452115D01*
X122585659Y-54448088D01*
X122577535Y-54444080D01*
X122569369Y-54440093D01*
X122561161Y-54436126D01*
X122552911Y-54432179D01*
X122544619Y-54428253D01*
X122536284Y-54424347D01*
X122527907Y-54420462D01*
X122519487Y-54416597D01*
X122511025Y-54412753D01*
X122502520Y-54408930D01*
X122493972Y-54405127D01*
X122485381Y-54401345D01*
X122476746Y-54397585D01*
X122468069Y-54393845D01*
X122459348Y-54390126D01*
X122450584Y-54386429D01*
X122441776Y-54382753D01*
X122432924Y-54379098D01*
X122424028Y-54375465D01*
X122415089Y-54371852D01*
X122406105Y-54368262D01*
X122397077Y-54364693D01*
X122388005Y-54361146D01*
X122378889Y-54357620D01*
X122369728Y-54354116D01*
X122360522Y-54350634D01*
X122351271Y-54347174D01*
X122341976Y-54343736D01*
X122332636Y-54340320D01*
X122323250Y-54336926D01*
X122313819Y-54333554D01*
X122304343Y-54330205D01*
X122294822Y-54326878D01*
X122285254Y-54323573D01*
X122275641Y-54320291D01*
X122265983Y-54317031D01*
X122256278Y-54313794D01*
X122246527Y-54310580D01*
X122236731Y-54307388D01*
X122226887Y-54304219D01*
X122216998Y-54301073D01*
X122207062Y-54297950D01*
X122197079Y-54294850D01*
X122187050Y-54291774D01*
X122176973Y-54288720D01*
X122166850Y-54285689D01*
X122156680Y-54282682D01*
X122146462Y-54279699D01*
X122136197Y-54276738D01*
X122125885Y-54273802D01*
X122115525Y-54270888D01*
X122105117Y-54267999D01*
X122094662Y-54265133D01*
X122084159Y-54262291D01*
X122073607Y-54259473D01*
X122063008Y-54256679D01*
X122052360Y-54253908D01*
X122041664Y-54251162D01*
X122030920Y-54248440D01*
X122020126Y-54245742D01*
X122009284Y-54243069D01*
X121998394Y-54240420D01*
X121987454Y-54237795D01*
X121976465Y-54235194D01*
X121965427Y-54232619D01*
X121954340Y-54230068D01*
X121943203Y-54227541D01*
X121932017Y-54225039D01*
X121920781Y-54222563D01*
X121909495Y-54220111D01*
X121898160Y-54217684D01*
X121886774Y-54215282D01*
X121875339Y-54212905D01*
X121863853Y-54210553D01*
X121852317Y-54208227D01*
X121840730Y-54205926D01*
X121829093Y-54203650D01*
X121817405Y-54201400D01*
X121805666Y-54199175D01*
X121793876Y-54196976D01*
X121782035Y-54194803D01*
X121770143Y-54192655D01*
X121758200Y-54190533D01*
X121746206Y-54188437D01*
X121734159Y-54186367D01*
X121722062Y-54184323D01*
X121709912Y-54182305D01*
X121697711Y-54180313D01*
X121685458Y-54178347D01*
X121673152Y-54176408D01*
X121660795Y-54174495D01*
X121648385Y-54172608D01*
X121635922Y-54170748D01*
X121623407Y-54168914D01*
X121610840Y-54167108D01*
X121598219Y-54165327D01*
X121585546Y-54163574D01*
X121572820Y-54161847D01*
X121560040Y-54160148D01*
X121547208Y-54158475D01*
X121534321Y-54156829D01*
X121521382Y-54155211D01*
X121508389Y-54153619D01*
X121495342Y-54152055D01*
X121482241Y-54150518D01*
X121469086Y-54149009D01*
X121455878Y-54147527D01*
X121442615Y-54146073D01*
X121429298Y-54144646D01*
X121415926Y-54143247D01*
X121402500Y-54141876D01*
X121389019Y-54140532D01*
X121375483Y-54139216D01*
X121361893Y-54137929D01*
X121348248Y-54136669D01*
X121334547Y-54135437D01*
X121320791Y-54134234D01*
X121306980Y-54133059D01*
X121293113Y-54131912D01*
X121279191Y-54130793D01*
X121265213Y-54129703D01*
X121251180Y-54128641D01*
X121237090Y-54127608D01*
X121222945Y-54126604D01*
X121208743Y-54125628D01*
X121194485Y-54124681D01*
X121180170Y-54123763D01*
X121165799Y-54122874D01*
X121151372Y-54122014D01*
X121136887Y-54121183D01*
X121122346Y-54120381D01*
X121107748Y-54119608D01*
X121093093Y-54118864D01*
X121078381Y-54118150D01*
X121063611Y-54117465D01*
X121048784Y-54116810D01*
X121033899Y-54116184D01*
X121018957Y-54115588D01*
X121003956Y-54115022D01*
X120988898Y-54114485D01*
X120973782Y-54113978D01*
X120958608Y-54113501D01*
X120943375Y-54113054D01*
X120928085Y-54112637D01*
X120912735Y-54112250D01*
X120897327Y-54111893D01*
X120881861Y-54111567D01*
X120866335Y-54111270D01*
X120850751Y-54111005D01*
X120835108Y-54110769D01*
X120819405Y-54110564D01*
X120803643Y-54110390D01*
X120787822Y-54110246D01*
X120771941Y-54110133D01*
X120756000Y-54110051D01*
X120740000Y-54110000D01*
X108820000Y-112300000D02*
X108825117Y-112300105D01*
X108830221Y-112300231D01*
X108835315Y-112300376D01*
X108840397Y-112300540D01*
X108845470Y-112300724D01*
X108850530Y-112300928D01*
X108855582Y-112301151D01*
X108860621Y-112301394D01*
X108865652Y-112301657D01*
X108870670Y-112301938D01*
X108875681Y-112302240D01*
X108880679Y-112302560D01*
X108885669Y-112302900D01*
X108890648Y-112303259D01*
X108895618Y-112303638D01*
X108900577Y-112304036D01*
X108905529Y-112304453D01*
X108910469Y-112304890D01*
X108920323Y-112305820D01*
X108930141Y-112306827D01*
X108939924Y-112307911D01*
X108949672Y-112309072D01*
X108959386Y-112310308D01*
X108969067Y-112311621D01*
X108978716Y-112313010D01*
X108988334Y-112314475D01*
X108997921Y-112316016D01*
X109007480Y-112317634D01*
X109017009Y-112319327D01*
X109026512Y-112321097D01*
X109035987Y-112322943D01*
X109045436Y-112324865D01*
X109054861Y-112326863D01*
X109064261Y-112328938D01*
X109073638Y-112331090D01*
X109082993Y-112333318D01*
X109092326Y-112335623D01*
X109101639Y-112338006D01*
X109110933Y-112340465D01*
X109120207Y-112343003D01*
X109129464Y-112345618D01*
X109138705Y-112348311D01*
X109147929Y-112351083D01*
X109157139Y-112353934D01*
X109166335Y-112356864D01*
X109175518Y-112359874D01*
X109184688Y-112362964D01*
X109193848Y-112366134D01*
X109202999Y-112369385D01*
X109212140Y-112372718D01*
X109221273Y-112376133D01*
X109230400Y-112379631D01*
X109239520Y-112383211D01*
X109248637Y-112386876D01*
X109257749Y-112390625D01*
X109266859Y-112394460D01*
X109275968Y-112398381D01*
X109285077Y-112402388D01*
X109294186Y-112406483D01*
X109303298Y-112410666D01*
X109312414Y-112414939D01*
X109321534Y-112419303D01*
X109330660Y-112423757D01*
X109339793Y-112428304D01*
X109348935Y-112432944D01*
X109358087Y-112437679D01*
X109367251Y-112442510D01*
X109376427Y-112447438D01*
X109385618Y-112452463D01*
X109394825Y-112457589D01*
X109404050Y-112462816D01*
X109413294Y-112468145D01*
X109422558Y-112473579D01*
X109431846Y-112479118D01*
X109441158Y-112484765D01*
X109450497Y-112490521D01*
X109459864Y-112496388D01*
X109469261Y-112502369D01*
X109478692Y-112508464D01*
X109488157Y-112514678D01*
X109497659Y-112521011D01*
X109507202Y-112527467D01*
X109516786Y-112534047D01*
X109526416Y-112540755D01*
X109536094Y-112547594D01*
X109545822Y-112554566D01*
X109555605Y-112561675D01*
X109565445Y-112568924D01*
X109575346Y-112576317D01*
X109585313Y-112583859D01*
X109595348Y-112591552D01*
X109605456Y-112599401D01*
X109615643Y-112607412D01*
X109625912Y-112615590D01*
X109636269Y-112623939D01*
X109646720Y-112632466D01*
X109657272Y-112641178D01*
X109667930Y-112650081D01*
X109678703Y-112659184D01*
X109689598Y-112668493D01*
X109700624Y-112678020D01*
X109711792Y-112687773D01*
X109723110Y-112697764D01*
X109734593Y-112708005D01*
X109746252Y-112718511D01*
X109758103Y-112729296D01*
X109770163Y-112740378D01*
X109782452Y-112751779D01*
X109794991Y-112763519D01*
X109807807Y-112775627D01*
X109820929Y-112788134D01*
X109834394Y-112801075D01*
X109848245Y-112814497D01*
X109862533Y-112828454D01*
X109877325Y-112843011D01*
X109892703Y-112858256D01*
X109908775Y-112874300D01*
X109925689Y-112891293D01*
X109943652Y-112909450D01*
X109962975Y-112929092D01*
X109984168Y-112950744D01*
X110008189Y-112975391D01*
X110037308Y-113005370D01*
X110060799Y-113029595D01*
X110082017Y-113051477D01*
X110103316Y-113073419D01*
X110124706Y-113095406D01*
X110146198Y-113117427D01*
X110167801Y-113139466D01*
X110178648Y-113150489D01*
X110189527Y-113161512D01*
X110200440Y-113172533D01*
X110211387Y-113183551D01*
X110222370Y-113194564D01*
X110233390Y-113205570D01*
X110244449Y-113216567D01*
X110255547Y-113227555D01*
X110266687Y-113238532D01*
X110277870Y-113249494D01*
X110289096Y-113260443D01*
X110300367Y-113271374D01*
X110311685Y-113282287D01*
X110323050Y-113293181D01*
X110334465Y-113304053D01*
X110345930Y-113314902D01*
X110357447Y-113325726D01*
X110369017Y-113336523D01*
X110380641Y-113347293D01*
X110392321Y-113358033D01*
X110404058Y-113368741D01*
X110415853Y-113379417D01*
X110427708Y-113390057D01*
X110439624Y-113400662D01*
X110451602Y-113411228D01*
X110463643Y-113421755D01*
X110475750Y-113432241D01*
X110487923Y-113442684D01*
X110500163Y-113453082D01*
X110506309Y-113458264D01*
X110512472Y-113463434D01*
X110518653Y-113468592D01*
X110524851Y-113473738D01*
X110531068Y-113478872D01*
X110537302Y-113483993D01*
X110543555Y-113489101D01*
X110549826Y-113494196D01*
X110556115Y-113499278D01*
X110562423Y-113504347D01*
X110568750Y-113509402D01*
X110575096Y-113514443D01*
X110581462Y-113519470D01*
X110587846Y-113524483D01*
X110594250Y-113529482D01*
X110600674Y-113534466D01*
X110607118Y-113539435D01*
X110613582Y-113544389D01*
X110620065Y-113549328D01*
X110626570Y-113554251D01*
X110633094Y-113559159D01*
X110639640Y-113564051D01*
X110646206Y-113568926D01*
X110652793Y-113573786D01*
X110659401Y-113578629D01*
X110666031Y-113583455D01*
X110672682Y-113588264D01*
X110679355Y-113593056D01*
X110686050Y-113597831D01*
X110692766Y-113602589D01*
X110699505Y-113607328D01*
X110706266Y-113612050D01*
X110713050Y-113616754D01*
X110719856Y-113621439D01*
X110726685Y-113626106D01*
X110733537Y-113630754D01*
X110740412Y-113635382D01*
X110747311Y-113639992D01*
X110754233Y-113644583D01*
X110761178Y-113649154D01*
X110768148Y-113653705D01*
X110775141Y-113658236D01*
X110782158Y-113662747D01*
X110789200Y-113667237D01*
X110796266Y-113671707D01*
X110803357Y-113676156D01*
X110810473Y-113680584D01*
X110817613Y-113684991D01*
X110824779Y-113689376D01*
X110831970Y-113693740D01*
X110839186Y-113698082D01*
X110846428Y-113702402D01*
X110853696Y-113706699D01*
X110860990Y-113710975D01*
X110868309Y-113715227D01*
X110875655Y-113719457D01*
X110883028Y-113723663D01*
X110890427Y-113727846D01*
X110897853Y-113732006D01*
X110905306Y-113736142D01*
X110912786Y-113740254D01*
X110920293Y-113744342D01*
X110927827Y-113748406D01*
X110935389Y-113752445D01*
X110942979Y-113756460D01*
X110950597Y-113760449D01*
X110958243Y-113764414D01*
X110965917Y-113768353D01*
X110973619Y-113772266D01*
X110981350Y-113776154D01*
X110989110Y-113780016D01*
X110996899Y-113783852D01*
X111004717Y-113787661D01*
X111012564Y-113791443D01*
X111020440Y-113795199D01*
X111028346Y-113798928D01*
X111036282Y-113802630D01*
X111044247Y-113806304D01*
X111052243Y-113809951D01*
X111060269Y-113813570D01*
X111068325Y-113817161D01*
X111076412Y-113820723D01*
X111084529Y-113824258D01*
X111092678Y-113827763D01*
X111100857Y-113831240D01*
X111109068Y-113834687D01*
X111117309Y-113838106D01*
X111125583Y-113841495D01*
X111133888Y-113844854D01*
X111142225Y-113848184D01*
X111150594Y-113851483D01*
X111158996Y-113854752D01*
X111167429Y-113857990D01*
X111175895Y-113861198D01*
X111184394Y-113864375D01*
X111192926Y-113867521D01*
X111201491Y-113870636D01*
X111210088Y-113873719D01*
X111218720Y-113876770D01*
X111227384Y-113879789D01*
X111236083Y-113882777D01*
X111244815Y-113885731D01*
X111253581Y-113888654D01*
X111262382Y-113891543D01*
X111271217Y-113894400D01*
X111280086Y-113897223D01*
X111288990Y-113900013D01*
X111297928Y-113902770D01*
X111306902Y-113905493D01*
X111315911Y-113908181D01*
X111324955Y-113910836D01*
X111334035Y-113913456D01*
X111343150Y-113916041D01*
X111352301Y-113918592D01*
X111361489Y-113921108D01*
X111370712Y-113923588D01*
X111379971Y-113926033D01*
X111389267Y-113928443D01*
X111398600Y-113930816D01*
X111407970Y-113933154D01*
X111417376Y-113935455D01*
X111426820Y-113937720D01*
X111436300Y-113939948D01*
X111445819Y-113942139D01*
X111455375Y-113944293D01*
X111464969Y-113946410D01*
X111474600Y-113948489D01*
X111484270Y-113950531D01*
X111493978Y-113952535D01*
X111503725Y-113954500D01*
X111513510Y-113956428D01*
X111523334Y-113958316D01*
X111533197Y-113960167D01*
X111543099Y-113961978D01*
X111553040Y-113963750D01*
X111563021Y-113965482D01*
X111573041Y-113967176D01*
X111583101Y-113968829D01*
X111593201Y-113970442D01*
X111603341Y-113972016D01*
X111613521Y-113973548D01*
X111623742Y-113975041D01*
X111634004Y-113976492D01*
X111644306Y-113977903D01*
X111654649Y-113979272D01*
X111665033Y-113980600D01*
X111675458Y-113981886D01*
X111685925Y-113983131D01*
X111696433Y-113984333D01*
X111706983Y-113985493D01*
X111717575Y-113986611D01*
X111728209Y-113987686D01*
X111738886Y-113988719D01*
X111749604Y-113989708D01*
X111760366Y-113990654D01*
X111771169Y-113991556D01*
X111782016Y-113992415D01*
X111792906Y-113993230D01*
X111803839Y-113994001D01*
X111814816Y-113994728D01*
X111825836Y-113995410D01*
X111836900Y-113996048D01*
X111848007Y-113996640D01*
X111859159Y-113997188D01*
X111870355Y-113997690D01*
X111881595Y-113998146D01*
X111892880Y-113998557D01*
X111904210Y-113998922D01*
X111915584Y-113999241D01*
X111927004Y-113999513D01*
X111938468Y-113999739D01*
X111949978Y-113999918D01*
X111961534Y-114000051D01*
X111973135Y-114000136D01*
X111984782Y-114000173D01*
X111996475Y-114000163D01*
X112008214Y-114000106D01*
X112020000Y-114000000D01*
D10*
X191420000Y-106695000D02*
G75*
G02*
X191420000Y-112015000I0J-2660000D01*
G01*
X191420000Y-112015000D02*
X189622319Y-112015000D01*
X100050000Y-112300000D02*
X108820000Y-112300000D01*
D11*
X193000000Y-67100000D02*
X192999990Y-67110167D01*
X192999960Y-67120300D01*
X192999910Y-67130388D01*
X192999841Y-67140442D01*
X192999751Y-67150450D01*
X192999642Y-67160426D01*
X192999514Y-67170356D01*
X192999366Y-67180253D01*
X192999198Y-67190105D01*
X192999012Y-67199925D01*
X192998806Y-67209700D01*
X192998580Y-67219442D01*
X192998336Y-67229140D01*
X192998073Y-67238806D01*
X192997791Y-67248428D01*
X192997489Y-67258018D01*
X192997169Y-67267563D01*
X192996831Y-67277078D01*
X192996473Y-67286549D01*
X192996097Y-67295988D01*
X192995703Y-67305384D01*
X192995290Y-67314749D01*
X192994859Y-67324071D01*
X192994409Y-67333362D01*
X192993941Y-67342610D01*
X192993455Y-67351827D01*
X192992951Y-67361002D01*
X192992429Y-67370147D01*
X192991889Y-67379249D01*
X192991331Y-67388322D01*
X192990755Y-67397352D01*
X192990162Y-67406352D01*
X192989551Y-67415311D01*
X192988922Y-67424240D01*
X192988276Y-67433128D01*
X192987612Y-67441986D01*
X192986931Y-67450803D01*
X192986232Y-67459591D01*
X192985516Y-67468338D01*
X192984783Y-67477056D01*
X192984033Y-67485734D01*
X192983266Y-67494382D01*
X192982482Y-67502991D01*
X192981680Y-67511570D01*
X192980863Y-67520111D01*
X192980027Y-67528622D01*
X192979176Y-67537094D01*
X192978308Y-67545537D01*
X192977423Y-67553942D01*
X192976521Y-67562318D01*
X192975604Y-67570656D01*
X192974669Y-67578965D01*
X192973718Y-67587236D01*
X192972751Y-67595479D01*
X192971768Y-67603684D01*
X192970768Y-67611861D01*
X192969753Y-67620000D01*
X192968721Y-67628112D01*
X192967673Y-67636186D01*
X192966609Y-67644232D01*
X192965530Y-67652242D01*
X192964434Y-67660224D01*
X192963323Y-67668170D01*
X192962196Y-67676088D01*
X192961054Y-67683970D01*
X192959895Y-67691824D01*
X192958722Y-67699643D01*
X192957532Y-67707435D01*
X192956328Y-67715191D01*
X192955108Y-67722920D01*
X192953873Y-67730613D01*
X192952622Y-67738280D01*
X192951356Y-67745912D01*
X192950075Y-67753518D01*
X192948779Y-67761088D01*
X192947468Y-67768632D01*
X192946142Y-67776142D01*
X192944800Y-67783626D01*
X192943445Y-67791075D01*
X192942073Y-67798498D01*
X192940688Y-67805887D01*
X192939287Y-67813251D01*
X192937873Y-67820581D01*
X192936442Y-67827885D01*
X192934998Y-67835156D01*
X192933539Y-67842401D01*
X192932066Y-67849613D01*
X192930578Y-67856800D01*
X192929076Y-67863954D01*
X192927559Y-67871083D01*
X192926029Y-67878179D01*
X192924483Y-67885250D01*
X192922924Y-67892289D01*
X192921351Y-67899303D01*
X192919763Y-67906286D01*
X192918161Y-67913243D01*
X192916546Y-67920169D01*
X192914916Y-67927070D01*
X192913273Y-67933940D01*
X192911615Y-67940785D01*
X192909944Y-67947600D01*
X192908258Y-67954390D01*
X192906560Y-67961149D01*
X192904847Y-67967884D01*
X192903121Y-67974589D01*
X192901381Y-67981269D01*
X192899628Y-67987920D01*
X192897860Y-67994546D01*
X192896080Y-68001142D01*
X192894286Y-68007715D01*
X192892478Y-68014258D01*
X192890657Y-68020778D01*
X192888823Y-68027268D01*
X192886975Y-68033734D01*
X192885115Y-68040172D01*
X192883240Y-68046586D01*
X192881354Y-68052971D01*
X192879453Y-68059333D01*
X192877539Y-68065667D01*
X192875612Y-68071977D01*
X192873673Y-68078260D01*
X192871720Y-68084519D01*
X192869755Y-68090750D01*
X192867775Y-68096959D01*
X192865784Y-68103140D01*
X192863779Y-68109297D01*
X192861762Y-68115428D01*
X192859732Y-68121536D01*
X192857689Y-68127617D01*
X192855633Y-68133675D01*
X192853565Y-68139707D01*
X192851483Y-68145716D01*
X192849389Y-68151698D01*
X192847283Y-68157658D01*
X192845164Y-68163593D01*
X192843032Y-68169504D01*
X192840888Y-68175390D01*
X192838731Y-68181254D01*
X192836561Y-68187092D01*
X192834379Y-68192907D01*
X192832185Y-68198698D01*
X192829978Y-68204467D01*
X192827760Y-68210210D01*
X192825528Y-68215932D01*
X192823284Y-68221628D01*
X192821028Y-68227303D01*
X192818760Y-68232954D01*
X192816479Y-68238583D01*
X192814186Y-68244187D01*
X192811880Y-68249770D01*
X192809563Y-68255329D01*
X192807233Y-68260866D01*
X192804892Y-68266380D01*
X192802538Y-68271872D01*
X192800172Y-68277341D01*
X192797793Y-68282789D01*
X192795403Y-68288213D01*
X192793001Y-68293616D01*
X192790586Y-68298997D01*
X192788160Y-68304356D01*
X192785721Y-68309692D01*
X192783271Y-68315007D01*
X192780808Y-68320300D01*
X192778334Y-68325572D01*
X192775847Y-68330822D01*
X192773349Y-68336051D01*
X192770838Y-68341258D01*
X192768316Y-68346445D01*
X192765782Y-68351609D01*
X192763236Y-68356753D01*
X192760678Y-68361876D01*
X192758108Y-68366978D01*
X192755526Y-68372059D01*
X192752933Y-68377119D01*
X192750327Y-68382158D01*
X192747710Y-68387177D01*
X192745081Y-68392175D01*
X192742440Y-68397153D01*
X192739788Y-68402111D01*
X192737123Y-68407048D01*
X192734447Y-68411965D01*
X192731759Y-68416862D01*
X192729059Y-68421739D01*
X192726348Y-68426595D01*
X192723624Y-68431433D01*
X192720889Y-68436250D01*
X192718142Y-68441047D01*
X192715383Y-68445825D01*
X192712613Y-68450583D01*
X192709831Y-68455322D01*
X192707037Y-68460041D01*
X192704231Y-68464741D01*
X192701414Y-68469422D01*
X192698585Y-68474083D01*
X192695743Y-68478725D01*
X192692891Y-68483348D01*
X192690026Y-68487953D01*
X192687150Y-68492538D01*
X192684262Y-68497105D01*
X192681362Y-68501652D01*
X192678450Y-68506182D01*
X192675527Y-68510691D01*
X192672592Y-68515184D01*
X192669645Y-68519657D01*
X192666686Y-68524112D01*
X192663716Y-68528548D01*
X192660734Y-68532967D01*
X192657740Y-68537367D01*
X192654734Y-68541750D01*
X192651716Y-68546113D01*
X192648686Y-68550460D01*
X192645645Y-68554787D01*
X192642591Y-68559098D01*
X192639527Y-68563390D01*
X192636449Y-68567665D01*
X192633361Y-68571921D01*
X192630259Y-68576162D01*
X192627147Y-68580383D01*
X192624022Y-68584588D01*
X192620886Y-68588774D01*
X192614577Y-68597096D01*
X192608219Y-68605350D01*
X192601814Y-68613535D01*
X192595360Y-68621652D01*
X192588858Y-68629701D01*
X192582308Y-68637684D01*
X192575708Y-68645601D01*
X192569060Y-68653451D01*
X192562362Y-68661236D01*
X192555616Y-68668956D01*
X192548819Y-68676611D01*
X192541973Y-68684202D01*
X192535077Y-68691729D01*
X192528130Y-68699193D01*
X192521134Y-68706594D01*
X192514086Y-68713933D01*
X192506987Y-68721209D01*
X192499837Y-68728424D01*
X192492636Y-68735577D01*
X192485382Y-68742669D01*
X192478076Y-68749701D01*
X192470718Y-68756672D01*
X192463307Y-68763584D01*
X192455843Y-68770436D01*
X192448325Y-68777228D01*
X192440753Y-68783962D01*
X192433127Y-68790637D01*
X192425446Y-68797254D01*
X192417710Y-68803813D01*
X192409919Y-68810315D01*
X192402072Y-68816759D01*
X192394168Y-68823146D01*
X192386208Y-68829476D01*
X192378190Y-68835750D01*
X192370115Y-68841967D01*
X192361982Y-68848128D01*
X192353790Y-68854234D01*
X192345538Y-68860284D01*
X192337228Y-68866279D01*
X192328857Y-68872219D01*
X192320425Y-68878104D01*
X192311932Y-68883934D01*
X192303378Y-68889710D01*
X192294761Y-68895431D01*
X192286081Y-68901099D01*
X192277337Y-68906713D01*
X192268529Y-68912273D01*
X192259657Y-68917779D01*
X192250719Y-68923232D01*
X192241715Y-68928632D01*
X192232644Y-68933979D01*
X192223506Y-68939273D01*
X192214299Y-68944514D01*
X192205024Y-68949703D01*
X192195679Y-68954838D01*
X192186264Y-68959922D01*
X192176778Y-68964953D01*
X192167220Y-68969932D01*
X192157589Y-68974858D01*
X192147885Y-68979733D01*
X192138106Y-68984555D01*
X192128253Y-68989326D01*
X192118323Y-68994044D01*
X192108316Y-68998711D01*
X192098232Y-69003326D01*
X192088068Y-69007889D01*
X192077825Y-69012401D01*
X192067502Y-69016861D01*
X192057096Y-69021269D01*
X192046608Y-69025626D01*
X192036036Y-69029930D01*
X192025379Y-69034184D01*
X192014636Y-69038385D01*
X192003806Y-69042535D01*
X191992888Y-69046634D01*
X191981880Y-69050680D01*
X191970781Y-69054675D01*
X191959591Y-69058619D01*
X191948307Y-69062510D01*
X191936929Y-69066350D01*
X191925455Y-69070137D01*
X191913884Y-69073873D01*
X191902213Y-69077557D01*
X191890443Y-69081189D01*
X191878570Y-69084769D01*
X191866595Y-69088296D01*
X191854514Y-69091772D01*
X191842326Y-69095195D01*
X191830030Y-69098565D01*
X191817624Y-69101883D01*
X191805106Y-69105149D01*
X191792474Y-69108361D01*
X191779725Y-69111521D01*
X191766859Y-69114628D01*
X191753872Y-69117682D01*
X191740763Y-69120683D01*
X191727529Y-69123631D01*
X191714168Y-69126525D01*
X191700677Y-69129366D01*
X191687054Y-69132153D01*
X191673296Y-69134886D01*
X191659400Y-69137565D01*
X191645364Y-69140191D01*
X191631183Y-69142762D01*
X191616855Y-69145279D01*
X191602377Y-69147741D01*
X191587744Y-69150149D01*
X191572953Y-69152502D01*
X191558001Y-69154800D01*
X191542882Y-69157043D01*
X191527593Y-69159231D01*
X191512128Y-69161363D01*
X191496483Y-69163440D01*
X191480653Y-69165461D01*
X191464631Y-69167426D01*
X191448412Y-69169336D01*
X191431990Y-69171189D01*
X191415357Y-69172985D01*
X191398506Y-69174726D01*
X191381430Y-69176409D01*
X191364119Y-69178036D01*
X191346565Y-69179606D01*
X191328756Y-69181118D01*
X191310684Y-69182574D01*
X191292334Y-69183972D01*
X191273695Y-69185312D01*
X191254752Y-69186595D01*
X191235489Y-69187819D01*
X191215888Y-69188986D01*
X191195930Y-69190094D01*
X191175592Y-69191145D01*
X191154848Y-69192136D01*
X191133672Y-69193069D01*
X191112029Y-69193944D01*
X191089881Y-69194760D01*
X191067186Y-69195517D01*
X191043890Y-69196215D01*
X191019932Y-69196854D01*
X190995235Y-69197433D01*
X190969706Y-69197954D01*
X190943229Y-69198416D01*
X190915652Y-69198818D01*
X190886773Y-69199162D01*
X190856314Y-69199447D01*
X190823869Y-69199673D01*
X190788803Y-69199841D01*
X190750011Y-69199951D01*
X190705217Y-69200006D01*
X190637715Y-69200007D01*
X190600000Y-69200000D01*
D10*
X105110000Y-103600000D02*
G75*
G02*
X102010000Y-106700000I-3100000J0D01*
G01*
D11*
X189622319Y-112015000D02*
X189616599Y-112015184D01*
X189610905Y-112015386D01*
X189605246Y-112015608D01*
X189599613Y-112015849D01*
X189594014Y-112016108D01*
X189588440Y-112016386D01*
X189582899Y-112016682D01*
X189577384Y-112016997D01*
X189571902Y-112017330D01*
X189566444Y-112017681D01*
X189561019Y-112018051D01*
X189555618Y-112018439D01*
X189550249Y-112018844D01*
X189544904Y-112019268D01*
X189539590Y-112019710D01*
X189534300Y-112020169D01*
X189529041Y-112020646D01*
X189523805Y-112021141D01*
X189518599Y-112021653D01*
X189513416Y-112022182D01*
X189508263Y-112022729D01*
X189503133Y-112023294D01*
X189498032Y-112023875D01*
X189492953Y-112024474D01*
X189487903Y-112025090D01*
X189482875Y-112025723D01*
X189477875Y-112026373D01*
X189472897Y-112027040D01*
X189467946Y-112027724D01*
X189463017Y-112028424D01*
X189458115Y-112029141D01*
X189453234Y-112029875D01*
X189448379Y-112030626D01*
X189443546Y-112031393D01*
X189438738Y-112032177D01*
X189433952Y-112032977D01*
X189429190Y-112033793D01*
X189424450Y-112034626D01*
X189419733Y-112035475D01*
X189415038Y-112036341D01*
X189410366Y-112037222D01*
X189405715Y-112038120D01*
X189401086Y-112039034D01*
X189396479Y-112039964D01*
X189391893Y-112040910D01*
X189387329Y-112041872D01*
X189382786Y-112042850D01*
X189378263Y-112043844D01*
X189373761Y-112044854D01*
X189369279Y-112045880D01*
X189364819Y-112046921D01*
X189360377Y-112047979D01*
X189355957Y-112049052D01*
X189351555Y-112050141D01*
X189347173Y-112051246D01*
X189342811Y-112052366D01*
X189338468Y-112053502D01*
X189334144Y-112054654D01*
X189329838Y-112055821D01*
X189325552Y-112057004D01*
X189321284Y-112058203D01*
X189317034Y-112059417D01*
X189312802Y-112060647D01*
X189308589Y-112061892D01*
X189304392Y-112063153D01*
X189300214Y-112064429D01*
X189296052Y-112065721D01*
X189291909Y-112067029D01*
X189287782Y-112068352D01*
X189283673Y-112069691D01*
X189279579Y-112071045D01*
X189275503Y-112072415D01*
X189271442Y-112073800D01*
X189267399Y-112075201D01*
X189263370Y-112076618D01*
X189259358Y-112078049D01*
X189255361Y-112079497D01*
X189251381Y-112080960D01*
X189247414Y-112082439D01*
X189243465Y-112083933D01*
X189235609Y-112086969D01*
X189227812Y-112090068D01*
X189220072Y-112093230D01*
X189212387Y-112096455D01*
X189204758Y-112099744D01*
X189197182Y-112103096D01*
X189189658Y-112106513D01*
X189182185Y-112109994D01*
X189174761Y-112113540D01*
X189167385Y-112117152D01*
X189160056Y-112120829D01*
X189152772Y-112124573D01*
X189145533Y-112128384D01*
X189138336Y-112132263D01*
X189131180Y-112136209D01*
X189124065Y-112140225D01*
X189116989Y-112144310D01*
X189109950Y-112148466D01*
X189102947Y-112152693D01*
X189095979Y-112156992D01*
X189089044Y-112161365D01*
X189082141Y-112165811D01*
X189075269Y-112170333D01*
X189068426Y-112174931D01*
X189061611Y-112179606D01*
X189054822Y-112184360D01*
X189048058Y-112189194D01*
X189041317Y-112194109D01*
X189034598Y-112199107D01*
X189027900Y-112204189D01*
X189021220Y-112209357D01*
X189014557Y-112214613D01*
X189007909Y-112219958D01*
X189001275Y-112225395D01*
X188994653Y-112230925D01*
X188988041Y-112236550D01*
X188981437Y-112242273D01*
X188974839Y-112248096D01*
X188968246Y-112254022D01*
X188961654Y-112260052D01*
X188955063Y-112266191D01*
X188948469Y-112272441D01*
X188941871Y-112278806D01*
X188935265Y-112285288D01*
X188928649Y-112291891D01*
X188922020Y-112298620D01*
X188915376Y-112305478D01*
X188908713Y-112312470D01*
X188902027Y-112319601D01*
X188895316Y-112326875D01*
X188888575Y-112334300D01*
X188881800Y-112341880D01*
X188874987Y-112349622D01*
X188868131Y-112357533D01*
X188861226Y-112365622D01*
X188854268Y-112373897D01*
X188847248Y-112382367D01*
X188840161Y-112391043D01*
X188832999Y-112399937D01*
X188825752Y-112409062D01*
X188818412Y-112418433D01*
X188810968Y-112428066D01*
X188803405Y-112437980D01*
X188795712Y-112448198D01*
X188787869Y-112458744D01*
X188779859Y-112469650D01*
X188771657Y-112480949D01*
X188763235Y-112492685D01*
X188754560Y-112504910D01*
X188745587Y-112517689D01*
X188736263Y-112531106D01*
X188726515Y-112545270D01*
X188716245Y-112560331D01*
X188705310Y-112576503D01*
X188693495Y-112594115D01*
X188680433Y-112613722D01*
X188665404Y-112636414D01*
X188646516Y-112665058D01*
X188638183Y-112677716D01*
X188620029Y-112705279D01*
X188601668Y-112733073D01*
X188592395Y-112747049D01*
X188583055Y-112761075D01*
X188573642Y-112775148D01*
X188564150Y-112789265D01*
X188554575Y-112803423D01*
X188544911Y-112817620D01*
X188535152Y-112831852D01*
X188525294Y-112846118D01*
X188515331Y-112860415D01*
X188505258Y-112874739D01*
X188500179Y-112881910D01*
X188495070Y-112889088D01*
X188489931Y-112896271D01*
X188484761Y-112903459D01*
X188479560Y-112910652D01*
X188474326Y-112917850D01*
X188469060Y-112925052D01*
X188463760Y-112932258D01*
X188458427Y-112939467D01*
X188453058Y-112946680D01*
X188447654Y-112953896D01*
X188442214Y-112961114D01*
X188436738Y-112968334D01*
X188431223Y-112975556D01*
X188425671Y-112982779D01*
X188420080Y-112990004D01*
X188414450Y-112997229D01*
X188408780Y-113004455D01*
X188403069Y-113011681D01*
X188397317Y-113018907D01*
X188391522Y-113026132D01*
X188385686Y-113033357D01*
X188379805Y-113040580D01*
X188373881Y-113047802D01*
X188367912Y-113055021D01*
X188361898Y-113062239D01*
X188355838Y-113069454D01*
X188349731Y-113076666D01*
X188343577Y-113083874D01*
X188337375Y-113091080D01*
X188331124Y-113098281D01*
X188324825Y-113105478D01*
X188318475Y-113112670D01*
X188312075Y-113119857D01*
X188305623Y-113127039D01*
X188299120Y-113134215D01*
X188292564Y-113141386D01*
X188285955Y-113148550D01*
X188279292Y-113155707D01*
X188272574Y-113162857D01*
X188265802Y-113170000D01*
X188258973Y-113177136D01*
X188252088Y-113184263D01*
X188245146Y-113191382D01*
X188238146Y-113198492D01*
X188231088Y-113205593D01*
X188223970Y-113212685D01*
X188216793Y-113219767D01*
X188209555Y-113226839D01*
X188202256Y-113233901D01*
X188194895Y-113240951D01*
X188187472Y-113247991D01*
X188179986Y-113255019D01*
X188172436Y-113262036D01*
X188164822Y-113269040D01*
X188157143Y-113276032D01*
X188149398Y-113283012D01*
X188141586Y-113289978D01*
X188133708Y-113296930D01*
X188125762Y-113303869D01*
X188117747Y-113310794D01*
X188109664Y-113317704D01*
X188101510Y-113324599D01*
X188093287Y-113331479D01*
X188084992Y-113338344D01*
X188076626Y-113345193D01*
X188068188Y-113352025D01*
X188059676Y-113358841D01*
X188051091Y-113365641D01*
X188042432Y-113372423D01*
X188033698Y-113379187D01*
X188024888Y-113385934D01*
X188016002Y-113392662D01*
X188007039Y-113399372D01*
X187997998Y-113406063D01*
X187988879Y-113412734D01*
X187979682Y-113419386D01*
X187970405Y-113426018D01*
X187961047Y-113432630D01*
X187951609Y-113439221D01*
X187942089Y-113445792D01*
X187932487Y-113452341D01*
X187922802Y-113458868D01*
X187913034Y-113465373D01*
X187903181Y-113471856D01*
X187893244Y-113478317D01*
X187883221Y-113484754D01*
X187873112Y-113491168D01*
X187862916Y-113497559D01*
X187852633Y-113503925D01*
X187842262Y-113510267D01*
X187831802Y-113516585D01*
X187821252Y-113522877D01*
X187810613Y-113529144D01*
X187799883Y-113535385D01*
X187789061Y-113541600D01*
X187778147Y-113547789D01*
X187767141Y-113553951D01*
X187756041Y-113560086D01*
X187744847Y-113566194D01*
X187733558Y-113572274D01*
X187722174Y-113578326D01*
X187710694Y-113584349D01*
X187699118Y-113590344D01*
X187687444Y-113596309D01*
X187675672Y-113602245D01*
X187663801Y-113608151D01*
X187651831Y-113614027D01*
X187639761Y-113619873D01*
X187627591Y-113625688D01*
X187615319Y-113631471D01*
X187602945Y-113637223D01*
X187590469Y-113642944D01*
X187577889Y-113648632D01*
X187565206Y-113654288D01*
X187552417Y-113659910D01*
X187539524Y-113665500D01*
X187526525Y-113671056D01*
X187513419Y-113676578D01*
X187500206Y-113682066D01*
X187486885Y-113687520D01*
X187473456Y-113692938D01*
X187459917Y-113698321D01*
X187446269Y-113703669D01*
X187432510Y-113708981D01*
X187418640Y-113714257D01*
X187404658Y-113719495D01*
X187390563Y-113724698D01*
X187376356Y-113729862D01*
X187362035Y-113734989D01*
X187347599Y-113740079D01*
X187333048Y-113745130D01*
X187318381Y-113750142D01*
X187303598Y-113755115D01*
X187288698Y-113760049D01*
X187273680Y-113764943D01*
X187258543Y-113769798D01*
X187243288Y-113774612D01*
X187227913Y-113779385D01*
X187212417Y-113784117D01*
X187196801Y-113788808D01*
X187181062Y-113793458D01*
X187165202Y-113798065D01*
X187149218Y-113802630D01*
X187133111Y-113807152D01*
X187116879Y-113811631D01*
X187100522Y-113816067D01*
X187084040Y-113820459D01*
X187067431Y-113824806D01*
X187050696Y-113829110D01*
X187033832Y-113833369D01*
X187016841Y-113837582D01*
X186999720Y-113841750D01*
X186982470Y-113845873D01*
X186965090Y-113849949D01*
X186947579Y-113853979D01*
X186929936Y-113857962D01*
X186912161Y-113861898D01*
X186894253Y-113865786D01*
X186876211Y-113869627D01*
X186858035Y-113873420D01*
X186839725Y-113877164D01*
X186821278Y-113880859D01*
X186802696Y-113884505D01*
X186783977Y-113888101D01*
X186765120Y-113891648D01*
X186746125Y-113895144D01*
X186726991Y-113898590D01*
X186707718Y-113901985D01*
X186688305Y-113905329D01*
X186668751Y-113908621D01*
X186649055Y-113911861D01*
X186629217Y-113915049D01*
X186609237Y-113918185D01*
X186589113Y-113921267D01*
X186568844Y-113924297D01*
X186548432Y-113927273D01*
X186527873Y-113930194D01*
X186507169Y-113933062D01*
X186486318Y-113935875D01*
X186465319Y-113938633D01*
X186444173Y-113941335D01*
X186422878Y-113943982D01*
X186401433Y-113946573D01*
X186379839Y-113949108D01*
X186358093Y-113951586D01*
X186336197Y-113954007D01*
X186314148Y-113956371D01*
X186291947Y-113958677D01*
X186269592Y-113960925D01*
X186247084Y-113963115D01*
X186224420Y-113965246D01*
X186201602Y-113967318D01*
X186178627Y-113969330D01*
X186155496Y-113971283D01*
X186132208Y-113973176D01*
X186108762Y-113975008D01*
X186085157Y-113976780D01*
X186061393Y-113978491D01*
X186037469Y-113980140D01*
X186013384Y-113981727D01*
X185989138Y-113983252D01*
X185964730Y-113984715D01*
X185940160Y-113986115D01*
X185915427Y-113987452D01*
X185890530Y-113988726D01*
X185865468Y-113989936D01*
X185840241Y-113991081D01*
X185814848Y-113992162D01*
X185789289Y-113993179D01*
X185763562Y-113994130D01*
X185737668Y-113995015D01*
X185711605Y-113995835D01*
X185685373Y-113996589D01*
X185658972Y-113997276D01*
X185632400Y-113997896D01*
X185605656Y-113998449D01*
X185578741Y-113998935D01*
X185551654Y-113999352D01*
X185524394Y-113999702D01*
X185496959Y-113999982D01*
X185469351Y-114000194D01*
X185441567Y-114000337D01*
X185413608Y-114000410D01*
X185385472Y-114000413D01*
X185357159Y-114000346D01*
X185328669Y-114000209D01*
X185300000Y-114000000D01*
D10*
X102010000Y-106700000D02*
X100050000Y-106700000D01*
X125000000Y-58250000D02*
X185800000Y-58250000D01*
X105110000Y-103600000D02*
X105110000Y-57090000D01*
D11*
X185800000Y-58250000D02*
X185811193Y-58250050D01*
X185822343Y-58250119D01*
X185833427Y-58250208D01*
X185844467Y-58250317D01*
X185855443Y-58250445D01*
X185866375Y-58250592D01*
X185877244Y-58250759D01*
X185888070Y-58250944D01*
X185898832Y-58251149D01*
X185909552Y-58251373D01*
X185920208Y-58251616D01*
X185930823Y-58251878D01*
X185941376Y-58252158D01*
X185951887Y-58252457D01*
X185962336Y-58252774D01*
X185972743Y-58253110D01*
X185983090Y-58253464D01*
X185993396Y-58253837D01*
X186003641Y-58254228D01*
X186013845Y-58254636D01*
X186023990Y-58255063D01*
X186034094Y-58255508D01*
X186044139Y-58255970D01*
X186054143Y-58256451D01*
X186064089Y-58256948D01*
X186073996Y-58257464D01*
X186083844Y-58257997D01*
X186093653Y-58258547D01*
X186103404Y-58259114D01*
X186113116Y-58259699D01*
X186122772Y-58260301D01*
X186132388Y-58260920D01*
X186141948Y-58261556D01*
X186151470Y-58262209D01*
X186160936Y-58262879D01*
X186170364Y-58263565D01*
X186179736Y-58264268D01*
X186189071Y-58264988D01*
X186198351Y-58265724D01*
X186207594Y-58266476D01*
X186216782Y-58267245D01*
X186225933Y-58268030D01*
X186235031Y-58268831D01*
X186244091Y-58269649D01*
X186253099Y-58270482D01*
X186262070Y-58271332D01*
X186270989Y-58272196D01*
X186279871Y-58273078D01*
X186288702Y-58273974D01*
X186297496Y-58274887D01*
X186306239Y-58275814D01*
X186314946Y-58276758D01*
X186323603Y-58277717D01*
X186332224Y-58278691D01*
X186340795Y-58279680D01*
X186349330Y-58280685D01*
X186357816Y-58281705D01*
X186366267Y-58282740D01*
X186374669Y-58283789D01*
X186383036Y-58284854D01*
X186391354Y-58285934D01*
X186399638Y-58287028D01*
X186407874Y-58288137D01*
X186416076Y-58289261D01*
X186424231Y-58290399D01*
X186432351Y-58291553D01*
X186440424Y-58292719D01*
X186448464Y-58293902D01*
X186456457Y-58295097D01*
X186464417Y-58296308D01*
X186472331Y-58297532D01*
X186480212Y-58298771D01*
X186488047Y-58300023D01*
X186495850Y-58301290D01*
X186503607Y-58302570D01*
X186511332Y-58303865D01*
X186519013Y-58305173D01*
X186526661Y-58306496D01*
X186534265Y-58307831D01*
X186541837Y-58309181D01*
X186549366Y-58310543D01*
X186556863Y-58311920D01*
X186564317Y-58313310D01*
X186571739Y-58314714D01*
X186579119Y-58316130D01*
X186586467Y-58317560D01*
X186593773Y-58319003D01*
X186601049Y-58320460D01*
X186608282Y-58321929D01*
X186615485Y-58323412D01*
X186622647Y-58324907D01*
X186629779Y-58326416D01*
X186636869Y-58327937D01*
X186643930Y-58329472D01*
X186650950Y-58331019D01*
X186657940Y-58332579D01*
X186664891Y-58334151D01*
X186671811Y-58335737D01*
X186678693Y-58337335D01*
X186685544Y-58338945D01*
X186692357Y-58340568D01*
X186699141Y-58342204D01*
X186705886Y-58343851D01*
X186712603Y-58345512D01*
X186719281Y-58347184D01*
X186725930Y-58348869D01*
X186732542Y-58350565D01*
X186739126Y-58352275D01*
X186745672Y-58353996D01*
X186752190Y-58355730D01*
X186758671Y-58357474D01*
X186765124Y-58359232D01*
X186771541Y-58361001D01*
X186777930Y-58362783D01*
X186784284Y-58364576D01*
X186790609Y-58366381D01*
X186796899Y-58368198D01*
X186803162Y-58370027D01*
X186809390Y-58371866D01*
X186815591Y-58373719D01*
X186821757Y-58375582D01*
X186827896Y-58377458D01*
X186834001Y-58379344D01*
X186840079Y-58381243D01*
X186846124Y-58383152D01*
X186852142Y-58385074D01*
X186858126Y-58387006D01*
X186864085Y-58388951D01*
X186870010Y-58390906D01*
X186875909Y-58392874D01*
X186881776Y-58394851D01*
X186887617Y-58396841D01*
X186893426Y-58398841D01*
X186899209Y-58400854D01*
X186904960Y-58402876D01*
X186910686Y-58404911D01*
X186916381Y-58406956D01*
X186922050Y-58409013D01*
X186927688Y-58411080D01*
X186933301Y-58413159D01*
X186938884Y-58415248D01*
X186944442Y-58417349D01*
X186949970Y-58419460D01*
X186955472Y-58421583D01*
X186960946Y-58423716D01*
X186966394Y-58425861D01*
X186971814Y-58428016D01*
X186977208Y-58430183D01*
X186982575Y-58432359D01*
X186987916Y-58434547D01*
X186993230Y-58436745D01*
X186998519Y-58438955D01*
X187003780Y-58441175D01*
X187009017Y-58443406D01*
X187014227Y-58445647D01*
X187019412Y-58447900D01*
X187024570Y-58450163D01*
X187029705Y-58452437D01*
X187034813Y-58454721D01*
X187039897Y-58457016D01*
X187044955Y-58459321D01*
X187049989Y-58461638D01*
X187054998Y-58463965D01*
X187059983Y-58466302D01*
X187064942Y-58468650D01*
X187069878Y-58471009D01*
X187074789Y-58473378D01*
X187079677Y-58475758D01*
X187084540Y-58478149D01*
X187089381Y-58480550D01*
X187094196Y-58482961D01*
X187098989Y-58485384D01*
X187103758Y-58487816D01*
X187108504Y-58490259D01*
X187113227Y-58492713D01*
X187117926Y-58495178D01*
X187122603Y-58497652D01*
X187127257Y-58500138D01*
X187131888Y-58502634D01*
X187136497Y-58505140D01*
X187141083Y-58507657D01*
X187145647Y-58510185D01*
X187150189Y-58512723D01*
X187154709Y-58515271D01*
X187159207Y-58517831D01*
X187163683Y-58520400D01*
X187168137Y-58522981D01*
X187172570Y-58525572D01*
X187176981Y-58528173D01*
X187181371Y-58530785D01*
X187185740Y-58533408D01*
X187190087Y-58536041D01*
X187194414Y-58538685D01*
X187198719Y-58541340D01*
X187203005Y-58544005D01*
X187207268Y-58546681D01*
X187211512Y-58549367D01*
X187215735Y-58552064D01*
X187219938Y-58554773D01*
X187224121Y-58557491D01*
X187228284Y-58560221D01*
X187232426Y-58562960D01*
X187236549Y-58565712D01*
X187240651Y-58568473D01*
X187244735Y-58571246D01*
X187248798Y-58574029D01*
X187252842Y-58576824D01*
X187256866Y-58579628D01*
X187260872Y-58582445D01*
X187264858Y-58585271D01*
X187268826Y-58588110D01*
X187272773Y-58590958D01*
X187276703Y-58593819D01*
X187280613Y-58596689D01*
X187284506Y-58599572D01*
X187288379Y-58602464D01*
X187292235Y-58605369D01*
X187296070Y-58608284D01*
X187303689Y-58614148D01*
X187311235Y-58620058D01*
X187318710Y-58626013D01*
X187326114Y-58632014D01*
X187333448Y-58638060D01*
X187340713Y-58644153D01*
X187347910Y-58650293D01*
X187355039Y-58656480D01*
X187362100Y-58662714D01*
X187369096Y-58668997D01*
X187376026Y-58675327D01*
X187382890Y-58681706D01*
X187389691Y-58688135D01*
X187396428Y-58694613D01*
X187403102Y-58701142D01*
X187409714Y-58707721D01*
X187416264Y-58714351D01*
X187422753Y-58721033D01*
X187429182Y-58727768D01*
X187435551Y-58734555D01*
X187441861Y-58741396D01*
X187448112Y-58748291D01*
X187454306Y-58755242D01*
X187460442Y-58762247D01*
X187466521Y-58769309D01*
X187472544Y-58776428D01*
X187478511Y-58783605D01*
X187484424Y-58790840D01*
X187490281Y-58798135D01*
X187496085Y-58805490D01*
X187501835Y-58812906D01*
X187507532Y-58820384D01*
X187513177Y-58827924D01*
X187518770Y-58835529D01*
X187524312Y-58843198D01*
X187529802Y-58850933D01*
X187535243Y-58858735D01*
X187540633Y-58866605D01*
X187545974Y-58874544D01*
X187551266Y-58882553D01*
X187556510Y-58890634D01*
X187561705Y-58898787D01*
X187566853Y-58907014D01*
X187571954Y-58915316D01*
X187577009Y-58923695D01*
X187582017Y-58932153D01*
X187586980Y-58940689D01*
X187591898Y-58949307D01*
X187596771Y-58958007D01*
X187601599Y-58966792D01*
X187606384Y-58975662D01*
X187611126Y-58984621D01*
X187615825Y-58993669D01*
X187620482Y-59002808D01*
X187625096Y-59012041D01*
X187629670Y-59021370D01*
X187634202Y-59030796D01*
X187638694Y-59040323D01*
X187643146Y-59049952D01*
X187647559Y-59059685D01*
X187651933Y-59069527D01*
X187656269Y-59079478D01*
X187660567Y-59089543D01*
X187664828Y-59099723D01*
X187669052Y-59110023D01*
X187673241Y-59120445D01*
X187677394Y-59130992D01*
X187681512Y-59141670D01*
X187685597Y-59152481D01*
X187689648Y-59163429D01*
X187693667Y-59174520D01*
X187697654Y-59185757D01*
X187701611Y-59197145D01*
X187705537Y-59208690D01*
X187709435Y-59220397D01*
X187713305Y-59232272D01*
X187717148Y-59244322D01*
X187720965Y-59256554D01*
X187724758Y-59268974D01*
X187728528Y-59281592D01*
X187732276Y-59294415D01*
X187736005Y-59307453D01*
X187739715Y-59320717D01*
X187743409Y-59334218D01*
X187747089Y-59347969D01*
X187750757Y-59361982D01*
X187754416Y-59376275D01*
X187758069Y-59390863D01*
X187761718Y-59405765D01*
X187765369Y-59421005D01*
X187769025Y-59436605D01*
X187772690Y-59452595D01*
X187776371Y-59469008D01*
X187780075Y-59485880D01*
X187783808Y-59503258D01*
X187787581Y-59521195D01*
X187791405Y-59539756D01*
X187795294Y-59559024D01*
X187799265Y-59579098D01*
X187803343Y-59600113D01*
X187807558Y-59622245D01*
X187811954Y-59645741D01*
X187816595Y-59670966D01*
X187821583Y-59698500D01*
X187827102Y-59729384D01*
X187833550Y-59765884D01*
X187841214Y-59809571D01*
X187847987Y-59848197D01*
X187854817Y-59886898D01*
X187858266Y-59906271D01*
X187861743Y-59925657D01*
X187865255Y-59945052D01*
X187868805Y-59964456D01*
X187872400Y-59983866D01*
X187876044Y-60003280D01*
X187879742Y-60022695D01*
X187883499Y-60042111D01*
X187887321Y-60061525D01*
X187891211Y-60080934D01*
X187895176Y-60100336D01*
X187897188Y-60110035D01*
X187899220Y-60119731D01*
X187901274Y-60129424D01*
X187903348Y-60139115D01*
X187905446Y-60148802D01*
X187907566Y-60158486D01*
X187909710Y-60168166D01*
X187911878Y-60177843D01*
X187914071Y-60187515D01*
X187916289Y-60197182D01*
X187918533Y-60206846D01*
X187920804Y-60216504D01*
X187923103Y-60226156D01*
X187925429Y-60235804D01*
X187927784Y-60245445D01*
X187930168Y-60255081D01*
X187932582Y-60264711D01*
X187935027Y-60274333D01*
X187937502Y-60283950D01*
X187940010Y-60293559D01*
X187942549Y-60303160D01*
X187945122Y-60312755D01*
X187947728Y-60322341D01*
X187950369Y-60331919D01*
X187953044Y-60341489D01*
X187955755Y-60351051D01*
X187958502Y-60360604D01*
X187961286Y-60370147D01*
X187964107Y-60379681D01*
X187966966Y-60389206D01*
X187969863Y-60398720D01*
X187972800Y-60408225D01*
X187975777Y-60417719D01*
X187978794Y-60427202D01*
X187981853Y-60436675D01*
X187984953Y-60446136D01*
X187988095Y-60455586D01*
X187991281Y-60465024D01*
X187994510Y-60474450D01*
X187997784Y-60483864D01*
X188001102Y-60493266D01*
X188004466Y-60502655D01*
X188007876Y-60512031D01*
X188011333Y-60521393D01*
X188014837Y-60530742D01*
X188018389Y-60540078D01*
X188021990Y-60549399D01*
X188025640Y-60558706D01*
X188029341Y-60567998D01*
X188033091Y-60577276D01*
X188036893Y-60586538D01*
X188040747Y-60595786D01*
X188044653Y-60605017D01*
X188048612Y-60614233D01*
X188052624Y-60623433D01*
X188056692Y-60632616D01*
X188060814Y-60641783D01*
X188064991Y-60650933D01*
X188069225Y-60660066D01*
X188073515Y-60669181D01*
X188077863Y-60678278D01*
X188082269Y-60687358D01*
X188086734Y-60696420D01*
X188091258Y-60705463D01*
X188095842Y-60714487D01*
X188100487Y-60723493D01*
X188105192Y-60732479D01*
X188109960Y-60741446D01*
X188114790Y-60750393D01*
X188119683Y-60759320D01*
X188124640Y-60768227D01*
X188129661Y-60777113D01*
X188134747Y-60785979D01*
X188139899Y-60794823D01*
X188145117Y-60803646D01*
X188150402Y-60812448D01*
X188155754Y-60821228D01*
X188161174Y-60829986D01*
X188166663Y-60838721D01*
X188172222Y-60847434D01*
X188177850Y-60856124D01*
X188183549Y-60864791D01*
X188189319Y-60873435D01*
X188195162Y-60882055D01*
X188201076Y-60890651D01*
X188207064Y-60899223D01*
X188213125Y-60907771D01*
X188219261Y-60916294D01*
X188225472Y-60924792D01*
X188231759Y-60933265D01*
X188238121Y-60941712D01*
X188244561Y-60950134D01*
X188251078Y-60958529D01*
X188257673Y-60966899D01*
X188264347Y-60975242D01*
X188271101Y-60983559D01*
X188277934Y-60991848D01*
X188284848Y-61000110D01*
X188288335Y-61004231D01*
X188291843Y-61008345D01*
X188295372Y-61012452D01*
X188298920Y-61016552D01*
X188302490Y-61020645D01*
X188306080Y-61024730D01*
X188309691Y-61028809D01*
X188313323Y-61032881D01*
X188316976Y-61036946D01*
X188320650Y-61041003D01*
X188324345Y-61045053D01*
X188328061Y-61049096D01*
X188331798Y-61053132D01*
X188335557Y-61057160D01*
X188339337Y-61061181D01*
X188343139Y-61065195D01*
X188346962Y-61069202D01*
X188350807Y-61073200D01*
X188354673Y-61077192D01*
X188358562Y-61081176D01*
X188362472Y-61085152D01*
X188366404Y-61089121D01*
X188370358Y-61093083D01*
X188374335Y-61097036D01*
X188378333Y-61100982D01*
X188382354Y-61104921D01*
X188386397Y-61108851D01*
X188390463Y-61112774D01*
X188394551Y-61116689D01*
X188398662Y-61120596D01*
X188402796Y-61124496D01*
X188406952Y-61128387D01*
X188411131Y-61132271D01*
X188415333Y-61136147D01*
X188419557Y-61140014D01*
X188423805Y-61143874D01*
X188428077Y-61147726D01*
X188432371Y-61151569D01*
X188436688Y-61155405D01*
X188441029Y-61159232D01*
X188445394Y-61163051D01*
X188449782Y-61166862D01*
X188454193Y-61170665D01*
X188458629Y-61174459D01*
X188463088Y-61178245D01*
X188467571Y-61182023D01*
X188472077Y-61185793D01*
X188476608Y-61189554D01*
X188481163Y-61193306D01*
X188485742Y-61197050D01*
X188490345Y-61200786D01*
X188494973Y-61204513D01*
X188499625Y-61208232D01*
X188504301Y-61211942D01*
X188509002Y-61215643D01*
X188513728Y-61219336D01*
X188518478Y-61223020D01*
X188523254Y-61226695D01*
X188528054Y-61230362D01*
X188532878Y-61234019D01*
X188537728Y-61237668D01*
X188542603Y-61241308D01*
X188547504Y-61244939D01*
X188552429Y-61248562D01*
X188557380Y-61252175D01*
X188562356Y-61255779D01*
X188567358Y-61259375D01*
X188572385Y-61262961D01*
X188577438Y-61266538D01*
X188582517Y-61270106D01*
X188587621Y-61273665D01*
X188592752Y-61277215D01*
X188597908Y-61280755D01*
X188603090Y-61284287D01*
X188608299Y-61287809D01*
X188613534Y-61291321D01*
X188618795Y-61294825D01*
X188624082Y-61298319D01*
X188629396Y-61301803D01*
X188634736Y-61305279D01*
X188640103Y-61308744D01*
X188645496Y-61312200D01*
X188650917Y-61315647D01*
X188656364Y-61319084D01*
X188661838Y-61322512D01*
X188667339Y-61325930D01*
X188672867Y-61329338D01*
X188678422Y-61332736D01*
X188684004Y-61336125D01*
X188689614Y-61339504D01*
X188695251Y-61342873D01*
X188700915Y-61346233D01*
X188706607Y-61349582D01*
X188712327Y-61352922D01*
X188718074Y-61356252D01*
X188723849Y-61359572D01*
X188729652Y-61362881D01*
X188735483Y-61366181D01*
X188741342Y-61369471D01*
X188747229Y-61372751D01*
X188753144Y-61376020D01*
X188759087Y-61379280D01*
X188765059Y-61382529D01*
X188771059Y-61385768D01*
X188777088Y-61388996D01*
X188783145Y-61392215D01*
X188789230Y-61395423D01*
X188795345Y-61398621D01*
X188801488Y-61401808D01*
X188807660Y-61404985D01*
X188813861Y-61408152D01*
X188820091Y-61411308D01*
X188826350Y-61414454D01*
X188832638Y-61417589D01*
X188838956Y-61420713D01*
X188845302Y-61423827D01*
X188851679Y-61426931D01*
X188858084Y-61430023D01*
X188864520Y-61433105D01*
X188870985Y-61436176D01*
X188877479Y-61439237D01*
X188884004Y-61442286D01*
X188890558Y-61445325D01*
X188897143Y-61448353D01*
X188903757Y-61451370D01*
X188910401Y-61454376D01*
X188917076Y-61457371D01*
X188923781Y-61460355D01*
X188930516Y-61463329D01*
X188937282Y-61466291D01*
X188944078Y-61469242D01*
X188950905Y-61472182D01*
X188957763Y-61475110D01*
X188964651Y-61478028D01*
X188971570Y-61480934D01*
X188978520Y-61483829D01*
X188985501Y-61486713D01*
X188992513Y-61489585D01*
X188999556Y-61492447D01*
X189006630Y-61495296D01*
X189013736Y-61498135D01*
X189020873Y-61500962D01*
X189028042Y-61503777D01*
X189035242Y-61506581D01*
X189042473Y-61509373D01*
X189049736Y-61512154D01*
X189057031Y-61514923D01*
X189064358Y-61517681D01*
X189071717Y-61520427D01*
X189079108Y-61523161D01*
X189086531Y-61525883D01*
X189093986Y-61528594D01*
X189101473Y-61531293D01*
X189108993Y-61533980D01*
X189116545Y-61536655D01*
X189124129Y-61539318D01*
X189131746Y-61541970D01*
X189139396Y-61544609D01*
X189147078Y-61547236D01*
X189154793Y-61549852D01*
X189162541Y-61552455D01*
X189170322Y-61555046D01*
X189178136Y-61557625D01*
X189185983Y-61560192D01*
X189193863Y-61562747D01*
X189201777Y-61565290D01*
X189209723Y-61567820D01*
X189217704Y-61570338D01*
X189225717Y-61572843D01*
X189233764Y-61575337D01*
X189241845Y-61577818D01*
X189249960Y-61580286D01*
X189258108Y-61582742D01*
X189266291Y-61585186D01*
X189274507Y-61587617D01*
X189282757Y-61590035D01*
X189291041Y-61592441D01*
X189299360Y-61594835D01*
X189307713Y-61597215D01*
X189316100Y-61599583D01*
X189324522Y-61601939D01*
X189332978Y-61604281D01*
X189341469Y-61606611D01*
X189349994Y-61608928D01*
X189358554Y-61611232D01*
X189367149Y-61613523D01*
X189375779Y-61615802D01*
X189384444Y-61618067D01*
X189393144Y-61620320D01*
X189401879Y-61622559D01*
X189410649Y-61624786D01*
X189419454Y-61626999D01*
X189428295Y-61629199D01*
X189437172Y-61631386D01*
X189446084Y-61633560D01*
X189455031Y-61635721D01*
X189464014Y-61637869D01*
X189473033Y-61640003D01*
X189482088Y-61642124D01*
X189491178Y-61644232D01*
X189500305Y-61646326D01*
X189509468Y-61648407D01*
X189518667Y-61650475D01*
X189527902Y-61652529D01*
X189537173Y-61654569D01*
X189546481Y-61656596D01*
X189555825Y-61658610D01*
X189565206Y-61660610D01*
X189574624Y-61662596D01*
X189584078Y-61664569D01*
X189593569Y-61666528D01*
X189603097Y-61668473D01*
X189612661Y-61670405D01*
X189622263Y-61672323D01*
X189631902Y-61674227D01*
X189641578Y-61676117D01*
X189651291Y-61677993D01*
X189661042Y-61679855D01*
X189670830Y-61681704D01*
X189680655Y-61683538D01*
X189690518Y-61685359D01*
X189700419Y-61687165D01*
X189710358Y-61688957D01*
X189720334Y-61690736D01*
X189730348Y-61692500D01*
X189740400Y-61694250D01*
X189750490Y-61695985D01*
X189760618Y-61697707D01*
X189770785Y-61699414D01*
X189780989Y-61701107D01*
X189791232Y-61702786D01*
X189801514Y-61704450D01*
X189811834Y-61706100D01*
X189822192Y-61707735D01*
X189832589Y-61709356D01*
X189843025Y-61710963D01*
X189853500Y-61712555D01*
X189864014Y-61714132D01*
X189874566Y-61715695D01*
X189885158Y-61717243D01*
X189895789Y-61718777D01*
X189906459Y-61720296D01*
X189917168Y-61721800D01*
X189927917Y-61723289D01*
X189938705Y-61724764D01*
X189949533Y-61726224D01*
X189971307Y-61729099D01*
X189993240Y-61731914D01*
X190015333Y-61734670D01*
X190037586Y-61737365D01*
X190060000Y-61740000D01*
X190600000Y-69200000D02*
X190591522Y-69200159D01*
X190582867Y-69200344D01*
X190574880Y-69200537D01*
X190566750Y-69200754D01*
X190559075Y-69200980D01*
X190551281Y-69201231D01*
X190543826Y-69201492D01*
X190536267Y-69201777D01*
X190528978Y-69202073D01*
X190521596Y-69202394D01*
X190514435Y-69202726D01*
X190507191Y-69203083D01*
X190500134Y-69203450D01*
X190493002Y-69203843D01*
X190486031Y-69204247D01*
X190478991Y-69204676D01*
X190472094Y-69205117D01*
X190465132Y-69205583D01*
X190458298Y-69206060D01*
X190451403Y-69206563D01*
X190444624Y-69207077D01*
X190437788Y-69207616D01*
X190431058Y-69208168D01*
X190424275Y-69208744D01*
X190417588Y-69209332D01*
X190410851Y-69209946D01*
X190404204Y-69210571D01*
X190397511Y-69211222D01*
X190390900Y-69211885D01*
X190384245Y-69212573D01*
X190377668Y-69213273D01*
X190371049Y-69213998D01*
X190364503Y-69214736D01*
X190357917Y-69215498D01*
X190351400Y-69216273D01*
X190344846Y-69217073D01*
X190338357Y-69217885D01*
X190331831Y-69218723D01*
X190325369Y-69219572D01*
X190318871Y-69220447D01*
X190312433Y-69221334D01*
X190305962Y-69222247D01*
X190299548Y-69223171D01*
X190293102Y-69224121D01*
X190286711Y-69225083D01*
X190280290Y-69226070D01*
X190273921Y-69227070D01*
X190267523Y-69228094D01*
X190261176Y-69229131D01*
X190254800Y-69230193D01*
X190248474Y-69231268D01*
X190242121Y-69232367D01*
X190235814Y-69233479D01*
X190229482Y-69234616D01*
X190223196Y-69235765D01*
X190216885Y-69236940D01*
X190210618Y-69238127D01*
X190204327Y-69239338D01*
X190198079Y-69240562D01*
X190191809Y-69241812D01*
X190185579Y-69243073D01*
X190179328Y-69244359D01*
X190173117Y-69245658D01*
X190166886Y-69246982D01*
X190160693Y-69248318D01*
X190154480Y-69249679D01*
X190148305Y-69251053D01*
X190142111Y-69252451D01*
X190135954Y-69253862D01*
X190129778Y-69255298D01*
X190123639Y-69256746D01*
X190117481Y-69258219D01*
X190111359Y-69259704D01*
X190105219Y-69261214D01*
X190099114Y-69262737D01*
X190092992Y-69264284D01*
X190086904Y-69265844D01*
X190080800Y-69267429D01*
X190074729Y-69269026D01*
X190068642Y-69270648D01*
X190062588Y-69272282D01*
X190056518Y-69273941D01*
X190050481Y-69275612D01*
X190044428Y-69277308D01*
X190038407Y-69279017D01*
X190032372Y-69280750D01*
X190026367Y-69282495D01*
X190020349Y-69284266D01*
X190014361Y-69286049D01*
X190008359Y-69287856D01*
X190002387Y-69289676D01*
X189996402Y-69291520D01*
X189990447Y-69293377D01*
X189984478Y-69295259D01*
X189978539Y-69297153D01*
X189972587Y-69299072D01*
X189966663Y-69301003D01*
X189960728Y-69302958D01*
X189954821Y-69304926D01*
X189948902Y-69306919D01*
X189943010Y-69308924D01*
X189937107Y-69310954D01*
X189931232Y-69312996D01*
X189925345Y-69315063D01*
X189919485Y-69317143D01*
X189913615Y-69319247D01*
X189907771Y-69321363D01*
X189901916Y-69323504D01*
X189896088Y-69325657D01*
X189890250Y-69327835D01*
X189884437Y-69330026D01*
X189878614Y-69332241D01*
X189872817Y-69334468D01*
X189867011Y-69336720D01*
X189861229Y-69338985D01*
X189855438Y-69341274D01*
X189849672Y-69343576D01*
X189843897Y-69345902D01*
X189838146Y-69348240D01*
X189832387Y-69350604D01*
X189826652Y-69352980D01*
X189820909Y-69355380D01*
X189815188Y-69357793D01*
X189809461Y-69360230D01*
X189803756Y-69362680D01*
X189798044Y-69365155D01*
X189792354Y-69367642D01*
X189786657Y-69370154D01*
X189780983Y-69372678D01*
X189775302Y-69375227D01*
X189769643Y-69377789D01*
X189763977Y-69380375D01*
X189758333Y-69382974D01*
X189752683Y-69385597D01*
X189747053Y-69388233D01*
X189741419Y-69390894D01*
X189735805Y-69393567D01*
X189730185Y-69396265D01*
X189724586Y-69398975D01*
X189718982Y-69401711D01*
X189713398Y-69404459D01*
X189707809Y-69407231D01*
X189702240Y-69410016D01*
X189696666Y-69412826D01*
X189691111Y-69415649D01*
X189685553Y-69418497D01*
X189680013Y-69421357D01*
X189674470Y-69424242D01*
X189668945Y-69427139D01*
X189663417Y-69430062D01*
X189657907Y-69432997D01*
X189652394Y-69435957D01*
X189646899Y-69438929D01*
X189641400Y-69441927D01*
X189635920Y-69444937D01*
X189630436Y-69447973D01*
X189624971Y-69451021D01*
X189619502Y-69454094D01*
X189614052Y-69457180D01*
X189608598Y-69460290D01*
X189603162Y-69463414D01*
X189597723Y-69466563D01*
X189592301Y-69469724D01*
X189586877Y-69472911D01*
X189581470Y-69476110D01*
X189576061Y-69479335D01*
X189570669Y-69482572D01*
X189565274Y-69485835D01*
X189559896Y-69489110D01*
X189554516Y-69492411D01*
X189549153Y-69495724D01*
X189543788Y-69499063D01*
X189538439Y-69502415D01*
X189533089Y-69505792D01*
X189527755Y-69509182D01*
X189522419Y-69512597D01*
X189517099Y-69516026D01*
X189511778Y-69519480D01*
X189506472Y-69522947D01*
X189501165Y-69526439D01*
X189495875Y-69529944D01*
X189490582Y-69533475D01*
X189485306Y-69537019D01*
X189480028Y-69540588D01*
X189474766Y-69544171D01*
X189469503Y-69547779D01*
X189464255Y-69551401D01*
X189459006Y-69555048D01*
X189453772Y-69558708D01*
X189448538Y-69562394D01*
X189443319Y-69566093D01*
X189438099Y-69569818D01*
X189432894Y-69573556D01*
X189427689Y-69577320D01*
X189422498Y-69581098D01*
X189417307Y-69584901D01*
X189412130Y-69588718D01*
X189406954Y-69592560D01*
X189401791Y-69596416D01*
X189396629Y-69600298D01*
X189391481Y-69604194D01*
X189386333Y-69608115D01*
X189381199Y-69612050D01*
X189376066Y-69616011D01*
X189370946Y-69619986D01*
X189365827Y-69623986D01*
X189360721Y-69628001D01*
X189355616Y-69632041D01*
X189350525Y-69636096D01*
X189345434Y-69640176D01*
X189340357Y-69644270D01*
X189335280Y-69648391D01*
X189330218Y-69652525D01*
X189325155Y-69656686D01*
X189320106Y-69660861D01*
X189315058Y-69665061D01*
X189310024Y-69669277D01*
X189304990Y-69673518D01*
X189299970Y-69677774D01*
X189294950Y-69682055D01*
X189289944Y-69686352D01*
X189284938Y-69690674D01*
X189279946Y-69695011D01*
X189274955Y-69699374D01*
X189269977Y-69703753D01*
X189265000Y-69708156D01*
X189260036Y-69712576D01*
X189255073Y-69717021D01*
X189250123Y-69721481D01*
X189245175Y-69725967D01*
X189240239Y-69730469D01*
X189235305Y-69734996D01*
X189230383Y-69739539D01*
X189225464Y-69744108D01*
X189220556Y-69748693D01*
X189215650Y-69753303D01*
X189210757Y-69757929D01*
X189205865Y-69762582D01*
X189200986Y-69767250D01*
X189196109Y-69771944D01*
X189191244Y-69776654D01*
X189186381Y-69781390D01*
X189181530Y-69786142D01*
X189176681Y-69790921D01*
X189171844Y-69795715D01*
X189167010Y-69800536D01*
X189162187Y-69805373D01*
X189157367Y-69810236D01*
X189152558Y-69815116D01*
X189147752Y-69820021D01*
X189142958Y-69824944D01*
X189138166Y-69829892D01*
X189133386Y-69834857D01*
X189128609Y-69839849D01*
X189123843Y-69844857D01*
X189119080Y-69849892D01*
X189114329Y-69854943D01*
X189109580Y-69860021D01*
X189104843Y-69865116D01*
X189100108Y-69870237D01*
X189095385Y-69875376D01*
X189090665Y-69880540D01*
X189085957Y-69885723D01*
X189081251Y-69890931D01*
X189076557Y-69896157D01*
X189071865Y-69901410D01*
X189067185Y-69906680D01*
X189062509Y-69911977D01*
X189057843Y-69917291D01*
X189053181Y-69922632D01*
X189048529Y-69927991D01*
X189043882Y-69933376D01*
X189039245Y-69938780D01*
X189034612Y-69944210D01*
X189029989Y-69949658D01*
X189025370Y-69955133D01*
X189020762Y-69960626D01*
X189016158Y-69966146D01*
X189011565Y-69971684D01*
X189006975Y-69977249D01*
X189002396Y-69982832D01*
X188997822Y-69988442D01*
X188993257Y-69994072D01*
X188988697Y-69999727D01*
X188984147Y-70005402D01*
X188979602Y-70011104D01*
X188975067Y-70016824D01*
X188970536Y-70022572D01*
X188966016Y-70028338D01*
X188961500Y-70034132D01*
X188956994Y-70039944D01*
X188952493Y-70045784D01*
X188948002Y-70051644D01*
X188943515Y-70057530D01*
X188939039Y-70063436D01*
X188934568Y-70069369D01*
X188930107Y-70075321D01*
X188925650Y-70081301D01*
X188921204Y-70087301D01*
X188916762Y-70093328D01*
X188912331Y-70099375D01*
X188907904Y-70105449D01*
X188903488Y-70111543D01*
X188899077Y-70117665D01*
X188894675Y-70123807D01*
X188890279Y-70129976D01*
X188885893Y-70136166D01*
X188881512Y-70142383D01*
X188877140Y-70148621D01*
X188872774Y-70154886D01*
X188868419Y-70161172D01*
X188864068Y-70167486D01*
X188859727Y-70173820D01*
X188855392Y-70180182D01*
X188851066Y-70186565D01*
X188846746Y-70192976D01*
X188842436Y-70199408D01*
X188838132Y-70205868D01*
X188833837Y-70212349D01*
X188829548Y-70218858D01*
X188825269Y-70225388D01*
X188820996Y-70231946D01*
X188816732Y-70238526D01*
X188812474Y-70245133D01*
X188808226Y-70251763D01*
X188803984Y-70258420D01*
X188799751Y-70265100D01*
X188795525Y-70271807D01*
X188791308Y-70278537D01*
X188787098Y-70285294D01*
X188782897Y-70292074D01*
X188778702Y-70298882D01*
X188774517Y-70305713D01*
X188770338Y-70312571D01*
X188766169Y-70319452D01*
X188762006Y-70326362D01*
X188757853Y-70333294D01*
X188753706Y-70340255D01*
X188749569Y-70347238D01*
X188745438Y-70354250D01*
X188741317Y-70361285D01*
X188737203Y-70368349D01*
X188733098Y-70375436D01*
X188729000Y-70382551D01*
X188724912Y-70389690D01*
X188720830Y-70396857D01*
X188716758Y-70404048D01*
X188712692Y-70411267D01*
X188708637Y-70418510D01*
X188704588Y-70425782D01*
X188700549Y-70433078D01*
X188696516Y-70440403D01*
X188692494Y-70447751D01*
X188688478Y-70455129D01*
X188684472Y-70462531D01*
X188680473Y-70469961D01*
X188676484Y-70477417D01*
X188672502Y-70484901D01*
X188668530Y-70492409D01*
X188664565Y-70499947D01*
X188660609Y-70507510D01*
X188656661Y-70515101D01*
X188652723Y-70522718D01*
X188648792Y-70530363D01*
X188644870Y-70538034D01*
X188640956Y-70545734D01*
X188637052Y-70553460D01*
X188633156Y-70561214D01*
X188629269Y-70568994D01*
X188625390Y-70576804D01*
X188621520Y-70584639D01*
X188617658Y-70592503D01*
X188613806Y-70600394D01*
X188609962Y-70608314D01*
X188606127Y-70616259D01*
X188602301Y-70624235D01*
X188598484Y-70632236D01*
X188594675Y-70640268D01*
X188590876Y-70648325D01*
X188587085Y-70656413D01*
X188583303Y-70664526D01*
X188579530Y-70672670D01*
X188575767Y-70680840D01*
X188572012Y-70689041D01*
X188568266Y-70697268D01*
X188564529Y-70705525D01*
X188560802Y-70713809D01*
X188557083Y-70722123D01*
X188553374Y-70730464D01*
X188549673Y-70738835D01*
X188545983Y-70747234D01*
X188542301Y-70755663D01*
X188538628Y-70764119D01*
X188534965Y-70772606D01*
X188531311Y-70781121D01*
X188527666Y-70789666D01*
X188524031Y-70798238D01*
X188520405Y-70806842D01*
X188516788Y-70815473D01*
X188513181Y-70824135D01*
X188509584Y-70832825D01*
X188505995Y-70841546D01*
X188502417Y-70850294D01*
X188498847Y-70859074D01*
X188495288Y-70867883D01*
X188491738Y-70876722D01*
X188488197Y-70885590D01*
X188484666Y-70894489D01*
X188481146Y-70903416D01*
X188477634Y-70912375D01*
X188474133Y-70921363D01*
X188470640Y-70930382D01*
X188467159Y-70939430D01*
X188463686Y-70948509D01*
X188460224Y-70957618D01*
X188456771Y-70966758D01*
X188453329Y-70975927D01*
X188449896Y-70985128D01*
X188446473Y-70994359D01*
X188443060Y-71003621D01*
X188439658Y-71012913D01*
X188436265Y-71022237D01*
X188432882Y-71031591D01*
X188429510Y-71040976D01*
X188426148Y-71050392D01*
X188422795Y-71059840D01*
X188419454Y-71069317D01*
X188416122Y-71078827D01*
X188412801Y-71088367D01*
X188409489Y-71097940D01*
X188406189Y-71107543D01*
X188402898Y-71117178D01*
X188399618Y-71126844D01*
X188396349Y-71136543D01*
X188393090Y-71146272D01*
X188389841Y-71156034D01*
X188386603Y-71165827D01*
X188383375Y-71175652D01*
X188380158Y-71185509D01*
X188376952Y-71195398D01*
X188373756Y-71205319D01*
X188370571Y-71215273D01*
X188367397Y-71225258D01*
X188364233Y-71235276D01*
X188361081Y-71245326D01*
X188357939Y-71255409D01*
X188354808Y-71265524D01*
X188351688Y-71275672D01*
X188348578Y-71285852D01*
X188345480Y-71296065D01*
X188342393Y-71306310D01*
X188339316Y-71316589D01*
X188336251Y-71326900D01*
X188333197Y-71337245D01*
X188330154Y-71347622D01*
X188327122Y-71358033D01*
X188324102Y-71368477D01*
X188321092Y-71378954D01*
X188318094Y-71389465D01*
X188315107Y-71400009D01*
X188312131Y-71410586D01*
X188309167Y-71421197D01*
X188306214Y-71431841D01*
X188303273Y-71442519D01*
X188300343Y-71453231D01*
X188297425Y-71463977D01*
X188294518Y-71474757D01*
X188291623Y-71485570D01*
X188288739Y-71496418D01*
X188285867Y-71507300D01*
X188283007Y-71518216D01*
X188280159Y-71529166D01*
X188277322Y-71540151D01*
X188274497Y-71551170D01*
X188271684Y-71562223D01*
X188268882Y-71573311D01*
X188266093Y-71584434D01*
X188263316Y-71595591D01*
X188260550Y-71606783D01*
X188257797Y-71618010D01*
X188255056Y-71629272D01*
X188252326Y-71640568D01*
X188249609Y-71651900D01*
X188246904Y-71663267D01*
X188244212Y-71674669D01*
X188241531Y-71686106D01*
X188238863Y-71697579D01*
X188236207Y-71709087D01*
X188233564Y-71720631D01*
X188230933Y-71732210D01*
X188228314Y-71743825D01*
X188225708Y-71755475D01*
X188223114Y-71767162D01*
X188220533Y-71778884D01*
X188217964Y-71790642D01*
X188215409Y-71802436D01*
X188212865Y-71814266D01*
X188210335Y-71826132D01*
X188207817Y-71838035D01*
X188205312Y-71849973D01*
X188202820Y-71861949D01*
X188200341Y-71873960D01*
X188197875Y-71886008D01*
X188195421Y-71898093D01*
X188192981Y-71910214D01*
X188190554Y-71922372D01*
X188188139Y-71934567D01*
X188185738Y-71946799D01*
X188183350Y-71959068D01*
X188180975Y-71971373D01*
X188178614Y-71983716D01*
X188176266Y-71996096D01*
X188173931Y-72008514D01*
X188171609Y-72020968D01*
X188169301Y-72033460D01*
X188167006Y-72045990D01*
X188164725Y-72058557D01*
X188162457Y-72071161D01*
X188160203Y-72083804D01*
X188157962Y-72096484D01*
X188155735Y-72109202D01*
X188153522Y-72121958D01*
X188151322Y-72134752D01*
X188149136Y-72147584D01*
X188146964Y-72160454D01*
X188144806Y-72173362D01*
X188142662Y-72186309D01*
X188140532Y-72199294D01*
X188138415Y-72212318D01*
X188136313Y-72225380D01*
X188134225Y-72238481D01*
X188132151Y-72251620D01*
X188130091Y-72264798D01*
X188128045Y-72278015D01*
X188126014Y-72291271D01*
X188123997Y-72304566D01*
X188121994Y-72317900D01*
X188120005Y-72331273D01*
X188118031Y-72344686D01*
X188116071Y-72358137D01*
X188114126Y-72371628D01*
X188112196Y-72385158D01*
X188110280Y-72398728D01*
X188108378Y-72412337D01*
X188106492Y-72425987D01*
X188104620Y-72439676D01*
X188102762Y-72453405D01*
X188100920Y-72467173D01*
X188099092Y-72480982D01*
X188097280Y-72494830D01*
X188095482Y-72508720D01*
X188093699Y-72522648D01*
X188091931Y-72536618D01*
X188090179Y-72550628D01*
X188088441Y-72564678D01*
X188086719Y-72578768D01*
X188085012Y-72592900D01*
X188083320Y-72607072D01*
X188081643Y-72621285D01*
X188079982Y-72635538D01*
X188078336Y-72649833D01*
X188076706Y-72664168D01*
X188075091Y-72678545D01*
X188073492Y-72692962D01*
X188071908Y-72707422D01*
X188070339Y-72721921D01*
X188068787Y-72736464D01*
X188067250Y-72751046D01*
X188065729Y-72765671D01*
X188064224Y-72780337D01*
X188062734Y-72795046D01*
X188061261Y-72809794D01*
X188059803Y-72824587D01*
X188058362Y-72839419D01*
X188056936Y-72854296D01*
X188055526Y-72869212D01*
X188054133Y-72884173D01*
X188052756Y-72899174D01*
X188051395Y-72914219D01*
X188050050Y-72929305D01*
X188048722Y-72944435D01*
X188047410Y-72959605D01*
X188046114Y-72974821D01*
X188044835Y-72990077D01*
X188043572Y-73005377D01*
X188042326Y-73020719D01*
X188041097Y-73036106D01*
X188039884Y-73051533D01*
X188038688Y-73067006D01*
X188037508Y-73082520D01*
X188036346Y-73098079D01*
X188035200Y-73113680D01*
X188034071Y-73129326D01*
X188032959Y-73145013D01*
X188031864Y-73160746D01*
X188030786Y-73176521D01*
X188029725Y-73192341D01*
X188028682Y-73208204D01*
X188027655Y-73224112D01*
X188026646Y-73240062D01*
X188025654Y-73256058D01*
X188024679Y-73272097D01*
X188023722Y-73288181D01*
X188022782Y-73304308D01*
X188021859Y-73320481D01*
X188020954Y-73336697D01*
X188020067Y-73352959D01*
X188019197Y-73369264D01*
X188018345Y-73385616D01*
X188017511Y-73402010D01*
X188016694Y-73418452D01*
X188015895Y-73434936D01*
X188015114Y-73451467D01*
X188014351Y-73468041D01*
X188013606Y-73484663D01*
X188012879Y-73501327D01*
X188012170Y-73518040D01*
X188011479Y-73534795D01*
X188010806Y-73551598D01*
X188010152Y-73568445D01*
X188009516Y-73585339D01*
X188008898Y-73602277D01*
X188008298Y-73619263D01*
X188007717Y-73636293D01*
X188007154Y-73653370D01*
X188006610Y-73670492D01*
X188006085Y-73687662D01*
X188005578Y-73704876D01*
X188005089Y-73722139D01*
X188004620Y-73739446D01*
X188004169Y-73756801D01*
X188003737Y-73774201D01*
X188003324Y-73791650D01*
X188002929Y-73809143D01*
X188002554Y-73826685D01*
X188002198Y-73844272D01*
X188001861Y-73861908D01*
X188001543Y-73879589D01*
X188001244Y-73897320D01*
X188000964Y-73915095D01*
X188000704Y-73932920D01*
X188000463Y-73950790D01*
X188000241Y-73968709D01*
X188000039Y-73986674D01*
X187999856Y-74004689D01*
X187999693Y-74022749D01*
X187999549Y-74040859D01*
X187999425Y-74059015D01*
X187999321Y-74077221D01*
X187999237Y-74095473D01*
X187999172Y-74113776D01*
X187999127Y-74132124D01*
X187999102Y-74150522D01*
X187999097Y-74168967D01*
X187999112Y-74187463D01*
X187999147Y-74206004D01*
X187999202Y-74224597D01*
X187999277Y-74243236D01*
X187999373Y-74261926D01*
X187999489Y-74280663D01*
X187999625Y-74299451D01*
X187999781Y-74318285D01*
X188000000Y-74341322D01*
D10*
X100050000Y-112300000D02*
G75*
G02*
X100050000Y-106700000I0J2800000D01*
G01*
X105110000Y-57090000D02*
G75*
G02*
X108090000Y-54110000I2980000J0D01*
G01*
X193000000Y-67100000D02*
X193000000Y-65600000D01*
D11*
X190060000Y-61740000D02*
X190077166Y-61741528D01*
X190094265Y-61743070D01*
X190111197Y-61744618D01*
X190128063Y-61746179D01*
X190144765Y-61747746D01*
X190161403Y-61749326D01*
X190177880Y-61750912D01*
X190194294Y-61752511D01*
X190210551Y-61754115D01*
X190226745Y-61755734D01*
X190242785Y-61757357D01*
X190258763Y-61758994D01*
X190274591Y-61760635D01*
X190290357Y-61762291D01*
X190305976Y-61763951D01*
X190321535Y-61765625D01*
X190336949Y-61767303D01*
X190352304Y-61768996D01*
X190367517Y-61770692D01*
X190382672Y-61772403D01*
X190397688Y-61774117D01*
X190412646Y-61775846D01*
X190427467Y-61777579D01*
X190442232Y-61779325D01*
X190456864Y-61781076D01*
X190471439Y-61782840D01*
X190485883Y-61784609D01*
X190500272Y-61786391D01*
X190514532Y-61788177D01*
X190528738Y-61789977D01*
X190542817Y-61791781D01*
X190556843Y-61793598D01*
X190570745Y-61795419D01*
X190584594Y-61797254D01*
X190598321Y-61799093D01*
X190611996Y-61800944D01*
X190625552Y-61802800D01*
X190639056Y-61804670D01*
X190652443Y-61806543D01*
X190665779Y-61808429D01*
X190679000Y-61810319D01*
X190692171Y-61812223D01*
X190705229Y-61814130D01*
X190718238Y-61816050D01*
X190731135Y-61817974D01*
X190743984Y-61819911D01*
X190756723Y-61821852D01*
X190769414Y-61823806D01*
X190781999Y-61825764D01*
X190794535Y-61827734D01*
X190806967Y-61829708D01*
X190819351Y-61831695D01*
X190831632Y-61833686D01*
X190843867Y-61835690D01*
X190856000Y-61837697D01*
X190868088Y-61839717D01*
X190880075Y-61841741D01*
X190892018Y-61843777D01*
X190903862Y-61845817D01*
X190915662Y-61847869D01*
X190927365Y-61849925D01*
X190939025Y-61851994D01*
X190950589Y-61854066D01*
X190962110Y-61856151D01*
X190973538Y-61858239D01*
X190984922Y-61860340D01*
X190996215Y-61862444D01*
X191007466Y-61864561D01*
X191018627Y-61866681D01*
X191029746Y-61868813D01*
X191040776Y-61870949D01*
X191051764Y-61873098D01*
X191062666Y-61875249D01*
X191073527Y-61877413D01*
X191084301Y-61879581D01*
X191095036Y-61881761D01*
X191105686Y-61883944D01*
X191116297Y-61886139D01*
X191126824Y-61888337D01*
X191137312Y-61890548D01*
X191147719Y-61892762D01*
X191158086Y-61894989D01*
X191168373Y-61897218D01*
X191178622Y-61899460D01*
X191188792Y-61901705D01*
X191198923Y-61903962D01*
X191208977Y-61906222D01*
X191218994Y-61908494D01*
X191228934Y-61910770D01*
X191238837Y-61913057D01*
X191248664Y-61915348D01*
X191258455Y-61917650D01*
X191268172Y-61919956D01*
X191277852Y-61922274D01*
X191287460Y-61924595D01*
X191297032Y-61926928D01*
X191306532Y-61929264D01*
X191315996Y-61931612D01*
X191325390Y-61933963D01*
X191334749Y-61936326D01*
X191344039Y-61938692D01*
X191353293Y-61941070D01*
X191362480Y-61943451D01*
X191371632Y-61945843D01*
X191380716Y-61948239D01*
X191389767Y-61950647D01*
X191398752Y-61953057D01*
X191407703Y-61955480D01*
X191416588Y-61957905D01*
X191425441Y-61960342D01*
X191434229Y-61962783D01*
X191442985Y-61965235D01*
X191451677Y-61967690D01*
X191460337Y-61970156D01*
X191468934Y-61972626D01*
X191477500Y-61975107D01*
X191486004Y-61977592D01*
X191494476Y-61980088D01*
X191502888Y-61982587D01*
X191511269Y-61985098D01*
X191519590Y-61987611D01*
X191527880Y-61990137D01*
X191536111Y-61992665D01*
X191544312Y-61995205D01*
X191552455Y-61997748D01*
X191560568Y-62000302D01*
X191568624Y-62002860D01*
X191576649Y-62005429D01*
X191584619Y-62008001D01*
X191592559Y-62010584D01*
X191600444Y-62013171D01*
X191608300Y-62015769D01*
X191616101Y-62018370D01*
X191623873Y-62020983D01*
X191631592Y-62023598D01*
X191639282Y-62026226D01*
X191646919Y-62028856D01*
X191654527Y-62031497D01*
X191662084Y-62034142D01*
X191669612Y-62036798D01*
X191677090Y-62039458D01*
X191684539Y-62042128D01*
X191691938Y-62044802D01*
X191699310Y-62047487D01*
X191706632Y-62050175D01*
X191713926Y-62052875D01*
X191721172Y-62055578D01*
X191728390Y-62058292D01*
X191735561Y-62061009D01*
X191742704Y-62063738D01*
X191749800Y-62066470D01*
X191756870Y-62069213D01*
X191763893Y-62071960D01*
X191770889Y-62074717D01*
X191777840Y-62077478D01*
X191784764Y-62080251D01*
X191791643Y-62083026D01*
X191798497Y-62085813D01*
X191805305Y-62088604D01*
X191812089Y-62091405D01*
X191818828Y-62094210D01*
X191825542Y-62097026D01*
X191832212Y-62099846D01*
X191838858Y-62102677D01*
X191845461Y-62105511D01*
X191852038Y-62108356D01*
X191858574Y-62111206D01*
X191865086Y-62114066D01*
X191871556Y-62116930D01*
X191878001Y-62119804D01*
X191884406Y-62122683D01*
X191890786Y-62125573D01*
X191897127Y-62128466D01*
X191903443Y-62131371D01*
X191909720Y-62134279D01*
X191915973Y-62137199D01*
X191922187Y-62140122D01*
X191928378Y-62143057D01*
X191934530Y-62145995D01*
X191940659Y-62148944D01*
X191946750Y-62151898D01*
X191952818Y-62154862D01*
X191958849Y-62157831D01*
X191964856Y-62160810D01*
X191970828Y-62163794D01*
X191976776Y-62166788D01*
X191982688Y-62169787D01*
X191988578Y-62172797D01*
X191994432Y-62175811D01*
X192000264Y-62178836D01*
X192006061Y-62181866D01*
X192011835Y-62184906D01*
X192017575Y-62187951D01*
X192023293Y-62191007D01*
X192028977Y-62194068D01*
X192034640Y-62197139D01*
X192040269Y-62200215D01*
X192045876Y-62203302D01*
X192051450Y-62206394D01*
X192057003Y-62209497D01*
X192062523Y-62212604D01*
X192068022Y-62215723D01*
X192073489Y-62218846D01*
X192078935Y-62221980D01*
X192084349Y-62225120D01*
X192089743Y-62228270D01*
X192095105Y-62231425D01*
X192100447Y-62234591D01*
X192105758Y-62237763D01*
X192111049Y-62240945D01*
X192116309Y-62244133D01*
X192121549Y-62247332D01*
X192126760Y-62250536D01*
X192131949Y-62253751D01*
X192137111Y-62256971D01*
X192142251Y-62260203D01*
X192147363Y-62263440D01*
X192152455Y-62266688D01*
X192157519Y-62269942D01*
X192162563Y-62273206D01*
X192167579Y-62276477D01*
X192172575Y-62279758D01*
X192177544Y-62283046D01*
X192182493Y-62286345D01*
X192187416Y-62289649D01*
X192192319Y-62292965D01*
X192197195Y-62296287D01*
X192202052Y-62299619D01*
X192206883Y-62302959D01*
X192211695Y-62306309D01*
X192216481Y-62309666D01*
X192221247Y-62313033D01*
X192225989Y-62316408D01*
X192230711Y-62319793D01*
X192235409Y-62323185D01*
X192240088Y-62326589D01*
X192244743Y-62329999D01*
X192249378Y-62333420D01*
X192253990Y-62336848D01*
X192258582Y-62340287D01*
X192263152Y-62343734D01*
X192267702Y-62347192D01*
X192272229Y-62350657D01*
X192276738Y-62354133D01*
X192281224Y-62357617D01*
X192285692Y-62361111D01*
X192290137Y-62364614D01*
X192294563Y-62368127D01*
X192298968Y-62371649D01*
X192303354Y-62375181D01*
X192307719Y-62378722D01*
X192312065Y-62382274D01*
X192316391Y-62385834D01*
X192320698Y-62389405D01*
X192324984Y-62392985D01*
X192329252Y-62396576D01*
X192333499Y-62400175D01*
X192337729Y-62403786D01*
X192341938Y-62407405D01*
X192346129Y-62411036D01*
X192350301Y-62414675D01*
X192354455Y-62418326D01*
X192358589Y-62421986D01*
X192362705Y-62425658D01*
X192366802Y-62429338D01*
X192370882Y-62433030D01*
X192374942Y-62436732D01*
X192378986Y-62440445D01*
X192383010Y-62444168D01*
X192387017Y-62447902D01*
X192391006Y-62451646D01*
X192394977Y-62455401D01*
X192398930Y-62459167D01*
X192402866Y-62462944D01*
X192406785Y-62466732D01*
X192410686Y-62470531D01*
X192414570Y-62474340D01*
X192418436Y-62478161D01*
X192422286Y-62481994D01*
X192426118Y-62485837D01*
X192429934Y-62489692D01*
X192433732Y-62493558D01*
X192437514Y-62497436D01*
X192441279Y-62501325D01*
X192445028Y-62505226D01*
X192448760Y-62509138D01*
X192452476Y-62513062D01*
X192456175Y-62516998D01*
X192463525Y-62524906D01*
X192470811Y-62532862D01*
X192478033Y-62540867D01*
X192485192Y-62548921D01*
X192492288Y-62557026D01*
X192499323Y-62565181D01*
X192506296Y-62573387D01*
X192513209Y-62581645D01*
X192520061Y-62589957D01*
X192526854Y-62598321D01*
X192533588Y-62606740D01*
X192540263Y-62615214D01*
X192546881Y-62623743D01*
X192553441Y-62632329D01*
X192559944Y-62640971D01*
X192566391Y-62649672D01*
X192572781Y-62658432D01*
X192579116Y-62667251D01*
X192585396Y-62676131D01*
X192591622Y-62685071D01*
X192597793Y-62694074D01*
X192603911Y-62703140D01*
X192609975Y-62712270D01*
X192615986Y-62721465D01*
X192621945Y-62730726D01*
X192627851Y-62740053D01*
X192633706Y-62749448D01*
X192639510Y-62758912D01*
X192645262Y-62768445D01*
X192650964Y-62778050D01*
X192656615Y-62787726D01*
X192662216Y-62797475D01*
X192667768Y-62807298D01*
X192673270Y-62817196D01*
X192678723Y-62827170D01*
X192684127Y-62837222D01*
X192689483Y-62847352D01*
X192694790Y-62857562D01*
X192700050Y-62867853D01*
X192705261Y-62878227D01*
X192710425Y-62888684D01*
X192715542Y-62899226D01*
X192720612Y-62909854D01*
X192725635Y-62920569D01*
X192730611Y-62931374D01*
X192735541Y-62942269D01*
X192740425Y-62953256D01*
X192745262Y-62964336D01*
X192750054Y-62975511D01*
X192754800Y-62986783D01*
X192759501Y-62998152D01*
X192764156Y-63009621D01*
X192768766Y-63021191D01*
X192773330Y-63032864D01*
X192777850Y-63044642D01*
X192782325Y-63056526D01*
X192786755Y-63068518D01*
X192791141Y-63080621D01*
X192795482Y-63092835D01*
X192799779Y-63105163D01*
X192804031Y-63117607D01*
X192808239Y-63130168D01*
X192812403Y-63142850D01*
X192816523Y-63155653D01*
X192820599Y-63168581D01*
X192824630Y-63181636D01*
X192828618Y-63194819D01*
X192832562Y-63208133D01*
X192836462Y-63221580D01*
X192840318Y-63235164D01*
X192844131Y-63248886D01*
X192847899Y-63262749D01*
X192851624Y-63276756D01*
X192855305Y-63290909D01*
X192858942Y-63305212D01*
X192862535Y-63319667D01*
X192866085Y-63334277D01*
X192869591Y-63349045D01*
X192873053Y-63363975D01*
X192876471Y-63379070D01*
X192879845Y-63394333D01*
X192883175Y-63409767D01*
X192886461Y-63425377D01*
X192889703Y-63441166D01*
X192892901Y-63457137D01*
X192896055Y-63473295D01*
X192899164Y-63489644D01*
X192902230Y-63506188D01*
X192905251Y-63522931D01*
X192908227Y-63539878D01*
X192911159Y-63557033D01*
X192914046Y-63574402D01*
X192916889Y-63591990D01*
X192919686Y-63609801D01*
X192922439Y-63627841D01*
X192925147Y-63646116D01*
X192927810Y-63664632D01*
X192930427Y-63683394D01*
X192932999Y-63702410D01*
X192935525Y-63721685D01*
X192938006Y-63741228D01*
X192940441Y-63761044D01*
X192942831Y-63781142D01*
X192945174Y-63801529D01*
X192947471Y-63822215D01*
X192949721Y-63843207D01*
X192951926Y-63864515D01*
X192954083Y-63886149D01*
X192956194Y-63908118D01*
X192958258Y-63930433D01*
X192960274Y-63953106D01*
X192962244Y-63976149D01*
X192964165Y-63999573D01*
X192966040Y-64023393D01*
X192967866Y-64047624D01*
X192969644Y-64072278D01*
X192971375Y-64097374D01*
X192973056Y-64122928D01*
X192974689Y-64148959D01*
X192976274Y-64175485D01*
X192977809Y-64202529D01*
X192979295Y-64230113D01*
X192980732Y-64258262D01*
X192982119Y-64287003D01*
X192983456Y-64316363D01*
X192984743Y-64346375D01*
X192985980Y-64377074D01*
X192987166Y-64408497D01*
X192988301Y-64440685D01*
X192989385Y-64473685D01*
X192990419Y-64507548D01*
X192991400Y-64542332D01*
X192992330Y-64578100D01*
X192993208Y-64614925D01*
X192994033Y-64652892D01*
X192994807Y-64692095D01*
X192995527Y-64732645D01*
X192996194Y-64774672D01*
X192996808Y-64818330D01*
X192997369Y-64863805D01*
X192997876Y-64911324D01*
X192998328Y-64961169D01*
X192998727Y-65013701D01*
X192999071Y-65069397D01*
X192999360Y-65128904D01*
X192999595Y-65193153D01*
X192999775Y-65263567D01*
X192999901Y-65342555D01*
X192999975Y-65434876D01*
X192999999Y-65553212D01*
X193000000Y-65600000D01*
D10*
X191420000Y-106695000D02*
G75*
G02*
X188000000Y-103275000I0J3420000D01*
G01*
M02*
