%TF.GenerationSoftware,KiCad,Pcbnew,9.0.6*%
%TF.CreationDate,2025-12-23T23:13:00+00:00*%
%TF.ProjectId,GG_LCD_DIY,47475f4c-4344-45f4-9449-592e6b696361,rev?*%
%TF.SameCoordinates,Original*%
%TF.FileFunction,Soldermask,Bot*%
%TF.FilePolarity,Negative*%
%FSLAX46Y46*%
G04 Gerber Fmt 4.6, Leading zero omitted, Abs format (unit mm)*
G04 Created by KiCad (PCBNEW 9.0.6) date 2025-12-23 23:13:00*
%MOMM*%
%LPD*%
G01*
G04 APERTURE LIST*
G04 Aperture macros list*
%AMRoundRect*
0 Rectangle with rounded corners*
0 $1 Rounding radius*
0 $2 $3 $4 $5 $6 $7 $8 $9 X,Y pos of 4 corners*
0 Add a 4 corners polygon primitive as box body*
4,1,4,$2,$3,$4,$5,$6,$7,$8,$9,$2,$3,0*
0 Add four circle primitives for the rounded corners*
1,1,$1+$1,$2,$3*
1,1,$1+$1,$4,$5*
1,1,$1+$1,$6,$7*
1,1,$1+$1,$8,$9*
0 Add four rect primitives between the rounded corners*
20,1,$1+$1,$2,$3,$4,$5,0*
20,1,$1+$1,$4,$5,$6,$7,0*
20,1,$1+$1,$6,$7,$8,$9,0*
20,1,$1+$1,$8,$9,$2,$3,0*%
G04 Aperture macros list end*
%ADD10RoundRect,0.150000X0.150000X-0.512500X0.150000X0.512500X-0.150000X0.512500X-0.150000X-0.512500X0*%
%ADD11RoundRect,0.160000X-0.197500X-0.160000X0.197500X-0.160000X0.197500X0.160000X-0.197500X0.160000X0*%
%ADD12RoundRect,0.155000X0.212500X0.155000X-0.212500X0.155000X-0.212500X-0.155000X0.212500X-0.155000X0*%
%ADD13RoundRect,0.155000X-0.212500X-0.155000X0.212500X-0.155000X0.212500X0.155000X-0.212500X0.155000X0*%
%ADD14RoundRect,0.155000X0.155000X-0.212500X0.155000X0.212500X-0.155000X0.212500X-0.155000X-0.212500X0*%
%ADD15RoundRect,0.160000X0.197500X0.160000X-0.197500X0.160000X-0.197500X-0.160000X0.197500X-0.160000X0*%
%ADD16RoundRect,0.160000X-0.160000X0.197500X-0.160000X-0.197500X0.160000X-0.197500X0.160000X0.197500X0*%
%ADD17RoundRect,0.225000X-0.225000X-0.375000X0.225000X-0.375000X0.225000X0.375000X-0.225000X0.375000X0*%
%ADD18RoundRect,0.100000X0.100000X-0.637500X0.100000X0.637500X-0.100000X0.637500X-0.100000X-0.637500X0*%
%ADD19RoundRect,0.150000X0.150000X-0.725000X0.150000X0.725000X-0.150000X0.725000X-0.150000X-0.725000X0*%
%ADD20RoundRect,0.237500X0.300000X0.237500X-0.300000X0.237500X-0.300000X-0.237500X0.300000X-0.237500X0*%
%ADD21RoundRect,0.155000X-0.155000X0.212500X-0.155000X-0.212500X0.155000X-0.212500X0.155000X0.212500X0*%
%ADD22RoundRect,0.150000X-0.725000X-0.150000X0.725000X-0.150000X0.725000X0.150000X-0.725000X0.150000X0*%
%ADD23RoundRect,0.237500X-0.237500X0.300000X-0.237500X-0.300000X0.237500X-0.300000X0.237500X0.300000X0*%
%ADD24RoundRect,0.225000X0.225000X0.375000X-0.225000X0.375000X-0.225000X-0.375000X0.225000X-0.375000X0*%
%ADD25RoundRect,0.237500X0.237500X-0.300000X0.237500X0.300000X-0.237500X0.300000X-0.237500X-0.300000X0*%
%ADD26RoundRect,0.150000X0.825000X0.150000X-0.825000X0.150000X-0.825000X-0.150000X0.825000X-0.150000X0*%
%ADD27RoundRect,0.237500X-0.250000X-0.237500X0.250000X-0.237500X0.250000X0.237500X-0.250000X0.237500X0*%
%ADD28RoundRect,0.250000X-0.475000X0.337500X-0.475000X-0.337500X0.475000X-0.337500X0.475000X0.337500X0*%
%ADD29RoundRect,0.250000X-0.450000X0.325000X-0.450000X-0.325000X0.450000X-0.325000X0.450000X0.325000X0*%
%ADD30RoundRect,0.250000X0.337500X0.475000X-0.337500X0.475000X-0.337500X-0.475000X0.337500X-0.475000X0*%
%ADD31RoundRect,0.237500X0.250000X0.237500X-0.250000X0.237500X-0.250000X-0.237500X0.250000X-0.237500X0*%
%ADD32RoundRect,0.160000X0.160000X-0.197500X0.160000X0.197500X-0.160000X0.197500X-0.160000X-0.197500X0*%
%ADD33RoundRect,0.250000X0.450000X-0.325000X0.450000X0.325000X-0.450000X0.325000X-0.450000X-0.325000X0*%
%ADD34RoundRect,0.225000X0.375000X-0.225000X0.375000X0.225000X-0.375000X0.225000X-0.375000X-0.225000X0*%
%ADD35C,1.524000*%
%ADD36O,1.700000X1.700000*%
%ADD37R,1.700000X1.700000*%
%ADD38C,1.300000*%
G04 APERTURE END LIST*
D10*
%TO.C,U2*%
X166370000Y-94302500D03*
X165420000Y-96577500D03*
X167320000Y-96577500D03*
%TD*%
D11*
%TO.C,R6*%
X134365000Y-73950000D03*
X133170000Y-73950000D03*
%TD*%
D12*
%TO.C,C22*%
X174922500Y-71070000D03*
X176057500Y-71070000D03*
%TD*%
D13*
%TO.C,C10*%
X147977500Y-97480000D03*
X146842500Y-97480000D03*
%TD*%
D14*
%TO.C,C19*%
X132920000Y-79042500D03*
X132920000Y-80177500D03*
%TD*%
%TO.C,C17*%
X162880000Y-92752500D03*
X162880000Y-93887500D03*
%TD*%
D15*
%TO.C,R12*%
X175332500Y-79380000D03*
X176527500Y-79380000D03*
%TD*%
%TO.C,R14*%
X175340000Y-83040000D03*
X176535000Y-83040000D03*
%TD*%
D11*
%TO.C,R7*%
X134375000Y-75210000D03*
X133180000Y-75210000D03*
%TD*%
D16*
%TO.C,R34*%
X152030000Y-76827500D03*
X152030000Y-75632500D03*
%TD*%
D12*
%TO.C,C25*%
X174922500Y-72050000D03*
X176057500Y-72050000D03*
%TD*%
D17*
%TO.C,D2*%
X173740000Y-104740000D03*
X170440000Y-104740000D03*
%TD*%
D18*
%TO.C,U7*%
X161765000Y-87807500D03*
X161115000Y-87807500D03*
X160465000Y-87807500D03*
X159815000Y-87807500D03*
X159165000Y-87807500D03*
X158515000Y-87807500D03*
X157865000Y-87807500D03*
X157215000Y-87807500D03*
X156565000Y-87807500D03*
X155915000Y-87807500D03*
X155265000Y-87807500D03*
X154615000Y-87807500D03*
X154615000Y-93532500D03*
X155265000Y-93532500D03*
X155915000Y-93532500D03*
X156565000Y-93532500D03*
X157215000Y-93532500D03*
X157865000Y-93532500D03*
X158515000Y-93532500D03*
X159165000Y-93532500D03*
X159815000Y-93532500D03*
X160465000Y-93532500D03*
X161115000Y-93532500D03*
X161765000Y-93532500D03*
%TD*%
D19*
%TO.C,U4*%
X158172500Y-99325000D03*
X156902500Y-99325000D03*
X155632500Y-99325000D03*
X154362500Y-99325000D03*
X153092500Y-99325000D03*
X151822500Y-99325000D03*
X150552500Y-99325000D03*
X149282500Y-99325000D03*
X149282500Y-104475000D03*
X150552500Y-104475000D03*
X151822500Y-104475000D03*
X153092500Y-104475000D03*
X154362500Y-104475000D03*
X155632500Y-104475000D03*
X156902500Y-104475000D03*
X158172500Y-104475000D03*
%TD*%
D20*
%TO.C,C5*%
X175237500Y-98660000D03*
X176962500Y-98660000D03*
%TD*%
D21*
%TO.C,C2*%
X170160000Y-96447500D03*
X170160000Y-95312500D03*
%TD*%
D12*
%TO.C,C20*%
X174922500Y-69110000D03*
X176057500Y-69110000D03*
%TD*%
D22*
%TO.C,U8*%
X131290000Y-80260000D03*
X131290000Y-78990000D03*
X131290000Y-77720000D03*
X131290000Y-76450000D03*
X131290000Y-75180000D03*
X131290000Y-73910000D03*
X131290000Y-72640000D03*
X131290000Y-71370000D03*
X126140000Y-71370000D03*
X126140000Y-72640000D03*
X126140000Y-73910000D03*
X126140000Y-75180000D03*
X126140000Y-76450000D03*
X126140000Y-77720000D03*
X126140000Y-78990000D03*
X126140000Y-80260000D03*
%TD*%
D13*
%TO.C,C6*%
X168217500Y-100860000D03*
X167082500Y-100860000D03*
%TD*%
D12*
%TO.C,C18*%
X162972500Y-87380000D03*
X164107500Y-87380000D03*
%TD*%
D11*
%TO.C,R32*%
X163257500Y-75570000D03*
X162062500Y-75570000D03*
%TD*%
D23*
%TO.C,C4*%
X163410000Y-99482500D03*
X163410000Y-97757500D03*
%TD*%
D12*
%TO.C,C30*%
X153992500Y-72660000D03*
X155127500Y-72660000D03*
%TD*%
D10*
%TO.C,U3*%
X173520000Y-99612500D03*
X171620000Y-99612500D03*
X171620000Y-101887500D03*
X172570000Y-101887500D03*
X173520000Y-101887500D03*
%TD*%
D16*
%TO.C,R35*%
X150930000Y-79217500D03*
X150930000Y-78022500D03*
%TD*%
D12*
%TO.C,C21*%
X174922500Y-68130000D03*
X176057500Y-68130000D03*
%TD*%
D24*
%TO.C,D3*%
X172680000Y-65100000D03*
X175980000Y-65100000D03*
%TD*%
D19*
%TO.C,U5*%
X146670000Y-99300000D03*
X145400000Y-99300000D03*
X144130000Y-99300000D03*
X142860000Y-99300000D03*
X141590000Y-99300000D03*
X140320000Y-99300000D03*
X139050000Y-99300000D03*
X137780000Y-99300000D03*
X137780000Y-104450000D03*
X139050000Y-104450000D03*
X140320000Y-104450000D03*
X141590000Y-104450000D03*
X142860000Y-104450000D03*
X144130000Y-104450000D03*
X145400000Y-104450000D03*
X146670000Y-104450000D03*
%TD*%
D12*
%TO.C,C15*%
X175342500Y-78350000D03*
X176477500Y-78350000D03*
%TD*%
D21*
%TO.C,C3*%
X169050000Y-96437500D03*
X169050000Y-95302500D03*
%TD*%
D25*
%TO.C,C1*%
X171790000Y-94927500D03*
X171790000Y-96652500D03*
%TD*%
D15*
%TO.C,R11*%
X108940000Y-81280000D03*
X110135000Y-81280000D03*
%TD*%
%TO.C,R4*%
X122755000Y-76450000D03*
X123950000Y-76450000D03*
%TD*%
D16*
%TO.C,R13*%
X174210000Y-80617500D03*
X174210000Y-79422500D03*
%TD*%
D12*
%TO.C,C23*%
X174922500Y-70090000D03*
X176057500Y-70090000D03*
%TD*%
%TO.C,C16*%
X175370000Y-84040000D03*
X176505000Y-84040000D03*
%TD*%
D13*
%TO.C,C11*%
X134347500Y-97610000D03*
X133212500Y-97610000D03*
%TD*%
D11*
%TO.C,R10*%
X110125000Y-82330000D03*
X108930000Y-82330000D03*
%TD*%
D14*
%TO.C,C8*%
X135740000Y-97402500D03*
X135740000Y-98537500D03*
%TD*%
D26*
%TO.C,U9*%
X153925000Y-74322500D03*
X153925000Y-75592500D03*
X153925000Y-76862500D03*
X153925000Y-78132500D03*
X158875000Y-78132500D03*
X158875000Y-76862500D03*
X158875000Y-75592500D03*
X158875000Y-74322500D03*
%TD*%
D27*
%TO.C,R1*%
X168847868Y-102088268D03*
X167022868Y-102088268D03*
%TD*%
D28*
%TO.C,C13*%
X152550000Y-96017500D03*
X152550000Y-93942500D03*
%TD*%
D12*
%TO.C,C14*%
X175392500Y-82010000D03*
X176527500Y-82010000D03*
%TD*%
D29*
%TO.C,L1*%
X176420000Y-103395000D03*
X176420000Y-101345000D03*
%TD*%
D15*
%TO.C,R5*%
X122752500Y-78510000D03*
X123947500Y-78510000D03*
%TD*%
D12*
%TO.C,C26*%
X174922500Y-74990000D03*
X176057500Y-74990000D03*
%TD*%
%TO.C,C12*%
X175362500Y-80390000D03*
X176497500Y-80390000D03*
%TD*%
D14*
%TO.C,C28*%
X177340000Y-64822500D03*
X177340000Y-65957500D03*
%TD*%
D19*
%TO.C,U6*%
X134400000Y-99290000D03*
X133130000Y-99290000D03*
X131860000Y-99290000D03*
X130590000Y-99290000D03*
X129320000Y-99290000D03*
X128050000Y-99290000D03*
X126780000Y-99290000D03*
X125510000Y-99290000D03*
X125510000Y-104440000D03*
X126780000Y-104440000D03*
X128050000Y-104440000D03*
X129320000Y-104440000D03*
X130590000Y-104440000D03*
X131860000Y-104440000D03*
X133130000Y-104440000D03*
X134400000Y-104440000D03*
%TD*%
D30*
%TO.C,C7*%
X165682500Y-104310000D03*
X167757500Y-104310000D03*
%TD*%
D31*
%TO.C,R2*%
X166147500Y-99560000D03*
X167972500Y-99560000D03*
%TD*%
D21*
%TO.C,C9*%
X159480000Y-100797500D03*
X159480000Y-99662500D03*
%TD*%
D32*
%TO.C,R15*%
X174230000Y-81762500D03*
X174230000Y-82957500D03*
%TD*%
D12*
%TO.C,C27*%
X174922500Y-74010000D03*
X176057500Y-74010000D03*
%TD*%
D16*
%TO.C,R37*%
X150800000Y-75567500D03*
X150800000Y-74372500D03*
%TD*%
%TO.C,R33*%
X160920000Y-75567500D03*
X160920000Y-74372500D03*
%TD*%
%TO.C,R36*%
X160920000Y-73087500D03*
X160920000Y-71892500D03*
%TD*%
D15*
%TO.C,R3*%
X122762500Y-74390000D03*
X123957500Y-74390000D03*
%TD*%
D33*
%TO.C,FB1*%
X176600000Y-92375000D03*
X176600000Y-94425000D03*
%TD*%
D13*
%TO.C,C29*%
X132527500Y-69220000D03*
X131392500Y-69220000D03*
%TD*%
D11*
%TO.C,R9*%
X134415000Y-77690000D03*
X133220000Y-77690000D03*
%TD*%
D34*
%TO.C,D1*%
X174110000Y-93350000D03*
X174110000Y-96650000D03*
%TD*%
D12*
%TO.C,C24*%
X174922500Y-73030000D03*
X176057500Y-73030000D03*
%TD*%
D11*
%TO.C,R8*%
X134385000Y-76470000D03*
X133190000Y-76470000D03*
%TD*%
D35*
%TO.C,J1*%
X107969293Y-108180707D03*
X107969293Y-110720707D03*
X110509293Y-108180707D03*
X110509293Y-110720707D03*
X113049293Y-108180707D03*
X113049293Y-110720707D03*
X115589293Y-108180707D03*
X115589293Y-110720707D03*
X118129293Y-108180707D03*
X118129293Y-110720707D03*
X120669293Y-108180707D03*
X120669293Y-110720707D03*
X123209293Y-108180707D03*
X123209293Y-110720707D03*
X125749293Y-108180707D03*
X125749293Y-110720707D03*
X128289293Y-108180707D03*
X128289293Y-110720707D03*
X130829293Y-108180707D03*
X130829293Y-110720707D03*
X133369293Y-108180707D03*
X133369293Y-110720707D03*
X135909293Y-108180707D03*
X135909293Y-110720707D03*
X138449293Y-108180707D03*
X138449293Y-110720707D03*
X140989293Y-108180707D03*
X140989293Y-110720707D03*
X143529293Y-108180707D03*
X143529293Y-110720707D03*
X146069293Y-108180707D03*
X146069293Y-110720707D03*
X148609293Y-108180707D03*
X148609293Y-110720707D03*
X151149293Y-108180707D03*
X151149293Y-110720707D03*
X153689293Y-108180707D03*
X153689293Y-110720707D03*
X156229293Y-108180707D03*
X156229293Y-110720707D03*
X158769293Y-108180707D03*
X158769293Y-110720707D03*
X161309293Y-108180707D03*
X161309293Y-110720707D03*
X163849293Y-108180707D03*
X163849293Y-110720707D03*
X166389293Y-108180707D03*
X166389293Y-110720707D03*
X168929293Y-108180707D03*
X168929293Y-110720707D03*
X171469293Y-108180707D03*
X171469293Y-110720707D03*
X174009293Y-108180707D03*
X174009293Y-110720707D03*
%TD*%
D36*
%TO.C,U1*%
X168895000Y-71100000D03*
X168895000Y-73640000D03*
D37*
X168895000Y-76180000D03*
D36*
X168895000Y-78720000D03*
X120640000Y-66000000D03*
X123180000Y-66000000D03*
D37*
X125720000Y-66000000D03*
D36*
X128260000Y-66000000D03*
X130800000Y-66000000D03*
D37*
X133340000Y-66000000D03*
D36*
X135880000Y-66000000D03*
X138420000Y-66000000D03*
X140960000Y-66000000D03*
X143500000Y-66000000D03*
X146040000Y-66000000D03*
D37*
X148580000Y-66000000D03*
D36*
X151120000Y-66000000D03*
X153660000Y-66000000D03*
X156200000Y-66000000D03*
X158740000Y-66000000D03*
X161280000Y-66000000D03*
X163820000Y-66000000D03*
X166360000Y-66000000D03*
X168900000Y-66000000D03*
X168900000Y-83780000D03*
X166360000Y-83780000D03*
X163820000Y-83780000D03*
X161280000Y-83780000D03*
X158740000Y-83780000D03*
D37*
X156200000Y-83780000D03*
D36*
X153660000Y-83780000D03*
X151120000Y-83780000D03*
X148580000Y-83780000D03*
X146040000Y-83780000D03*
X143500000Y-83780000D03*
X140960000Y-83780000D03*
X138420000Y-83780000D03*
X135880000Y-83780000D03*
D37*
X133340000Y-83780000D03*
D36*
X130800000Y-83780000D03*
X128260000Y-83780000D03*
X125720000Y-83780000D03*
X123180000Y-83780000D03*
X120640000Y-83780000D03*
%TD*%
D38*
%TO.C,MHP1*%
X106480000Y-62630000D03*
%TD*%
%TO.C,MHP2*%
X186650000Y-112620000D03*
%TD*%
M02*
