%TF.GenerationSoftware,KiCad,Pcbnew,9.0.7*%
%TF.CreationDate,2026-02-25T23:12:41+00:00*%
%TF.ProjectId,GG_LCD_DIY,47475f4c-4344-45f4-9449-592e6b696361,rev?*%
%TF.SameCoordinates,Original*%
%TF.FileFunction,Soldermask,Top*%
%TF.FilePolarity,Negative*%
%FSLAX46Y46*%
G04 Gerber Fmt 4.6, Leading zero omitted, Abs format (unit mm)*
G04 Created by KiCad (PCBNEW 9.0.7) date 2026-02-25 23:12:41*
%MOMM*%
%LPD*%
G01*
G04 APERTURE LIST*
G04 Aperture macros list*
%AMRoundRect*
0 Rectangle with rounded corners*
0 $1 Rounding radius*
0 $2 $3 $4 $5 $6 $7 $8 $9 X,Y pos of 4 corners*
0 Add a 4 corners polygon primitive as box body*
4,1,4,$2,$3,$4,$5,$6,$7,$8,$9,$2,$3,0*
0 Add four circle primitives for the rounded corners*
1,1,$1+$1,$2,$3*
1,1,$1+$1,$4,$5*
1,1,$1+$1,$6,$7*
1,1,$1+$1,$8,$9*
0 Add four rect primitives between the rounded corners*
20,1,$1+$1,$2,$3,$4,$5,0*
20,1,$1+$1,$4,$5,$6,$7,0*
20,1,$1+$1,$6,$7,$8,$9,0*
20,1,$1+$1,$8,$9,$2,$3,0*%
%AMFreePoly0*
4,1,5,1.100000,-2.190000,-2.550000,-2.190000,-2.550000,1.600000,1.100000,1.600000,1.100000,-2.190000,1.100000,-2.190000,$1*%
%AMFreePoly1*
4,1,5,1.079392,-2.580000,-1.380000,-2.580000,-1.380000,1.260000,1.080354,1.260000,1.079392,-2.580000,1.079392,-2.580000,$1*%
G04 Aperture macros list end*
%ADD10C,0.000000*%
%ADD11C,0.150000*%
%ADD12O,1.700000X1.700000*%
%ADD13R,1.700000X1.700000*%
%ADD14C,1.000000*%
%ADD15R,1.500000X0.300000*%
%ADD16R,3.000000X3.000000*%
%ADD17C,1.300000*%
%ADD18RoundRect,0.075000X0.075000X0.675000X-0.075000X0.675000X-0.075000X-0.675000X0.075000X-0.675000X0*%
%ADD19FreePoly0,180.000000*%
%ADD20FreePoly1,180.000000*%
%ADD21R,2.600000X0.300000*%
%ADD22O,3.300000X2.000000*%
%ADD23O,2.300000X2.000000*%
G04 APERTURE END LIST*
D10*
G36*
X186876743Y-66967246D02*
G01*
X187040571Y-67098309D01*
X187090570Y-67178308D01*
X187026743Y-67127246D01*
X186752000Y-67053982D01*
X186439524Y-67053982D01*
X186439524Y-68393982D01*
X186289524Y-68393982D01*
X186289524Y-66893982D01*
X186602000Y-66893982D01*
X186876743Y-66967246D01*
G37*
G36*
X185095696Y-63674591D02*
G01*
X185096192Y-63675075D01*
X185096499Y-63675236D01*
X185097119Y-63675979D01*
X185130781Y-63708810D01*
X185142903Y-63730825D01*
X185159010Y-63750119D01*
X185177370Y-63793416D01*
X185177833Y-63794257D01*
X185177870Y-63794597D01*
X185178143Y-63795239D01*
X185297191Y-64176191D01*
X185301319Y-64196078D01*
X185303767Y-64201987D01*
X185304869Y-64213175D01*
X185307153Y-64224177D01*
X185306579Y-64230543D01*
X185308571Y-64250760D01*
X185308571Y-64917427D01*
X185306579Y-64937643D01*
X185307153Y-64944010D01*
X185304869Y-64955011D01*
X185303767Y-64966200D01*
X185301319Y-64972108D01*
X185297191Y-64991996D01*
X185178143Y-65372948D01*
X185177871Y-65373587D01*
X185177834Y-65373929D01*
X185177368Y-65374773D01*
X185159010Y-65418068D01*
X185142902Y-65437363D01*
X185130781Y-65459376D01*
X185097115Y-65492212D01*
X185096499Y-65492951D01*
X185096195Y-65493110D01*
X185095697Y-65493596D01*
X184857602Y-65684073D01*
X184842185Y-65694098D01*
X184837776Y-65698401D01*
X184826843Y-65704074D01*
X184816516Y-65710790D01*
X184810597Y-65712504D01*
X184794276Y-65720975D01*
X184556181Y-65816213D01*
X184514454Y-65828317D01*
X184512106Y-65829290D01*
X184510584Y-65829439D01*
X184509112Y-65829867D01*
X184506563Y-65829835D01*
X184463333Y-65834094D01*
X183987142Y-65834094D01*
X183943911Y-65829835D01*
X183941363Y-65829867D01*
X183939890Y-65829439D01*
X183938369Y-65829290D01*
X183936020Y-65828317D01*
X183894294Y-65816213D01*
X183656199Y-65720975D01*
X183639877Y-65712504D01*
X183633959Y-65710790D01*
X183623631Y-65704074D01*
X183612699Y-65698401D01*
X183608289Y-65694098D01*
X183592873Y-65684073D01*
X183354778Y-65493596D01*
X183354279Y-65493110D01*
X183353976Y-65492951D01*
X183353359Y-65492212D01*
X183319694Y-65459376D01*
X183307572Y-65437363D01*
X183291465Y-65418068D01*
X183281760Y-65395182D01*
X183442873Y-65524073D01*
X183458289Y-65534098D01*
X183462699Y-65538401D01*
X183473631Y-65544074D01*
X183483959Y-65550790D01*
X183489877Y-65552504D01*
X183506199Y-65560975D01*
X183744294Y-65656213D01*
X183786020Y-65668317D01*
X183788369Y-65669290D01*
X183789890Y-65669439D01*
X183791363Y-65669867D01*
X183793911Y-65669835D01*
X183837142Y-65674094D01*
X184313333Y-65674094D01*
X184356563Y-65669835D01*
X184359112Y-65669867D01*
X184360584Y-65669439D01*
X184362106Y-65669290D01*
X184364454Y-65668317D01*
X184406181Y-65656213D01*
X184644276Y-65560975D01*
X184660597Y-65552504D01*
X184666516Y-65550790D01*
X184676843Y-65544074D01*
X184687776Y-65538401D01*
X184692185Y-65534098D01*
X184707602Y-65524073D01*
X184945697Y-65333596D01*
X184946195Y-65333110D01*
X184946499Y-65332951D01*
X184947115Y-65332212D01*
X184980781Y-65299376D01*
X184992902Y-65277363D01*
X185009010Y-65258068D01*
X185027368Y-65214773D01*
X185027834Y-65213929D01*
X185027871Y-65213587D01*
X185028143Y-65212948D01*
X185147191Y-64831996D01*
X185151319Y-64812108D01*
X185153767Y-64806200D01*
X185154869Y-64795011D01*
X185157153Y-64784010D01*
X185156579Y-64777643D01*
X185158571Y-64757427D01*
X185158571Y-64090760D01*
X185156579Y-64070543D01*
X185157153Y-64064177D01*
X185154869Y-64053175D01*
X185153767Y-64041987D01*
X185151319Y-64036078D01*
X185147191Y-64016191D01*
X185028143Y-63635239D01*
X185027870Y-63634597D01*
X185027833Y-63634257D01*
X185027370Y-63633416D01*
X185018715Y-63613006D01*
X185095696Y-63674591D01*
G37*
G36*
X178786173Y-63579353D02*
G01*
X178791034Y-63584094D01*
X178806890Y-63599559D01*
X178812075Y-63603257D01*
X178816300Y-63608737D01*
X178821258Y-63613573D01*
X178824332Y-63619155D01*
X178841998Y-63642070D01*
X178961047Y-63832546D01*
X178982822Y-63876452D01*
X178986264Y-63897011D01*
X178994243Y-63916273D01*
X178999047Y-63965046D01*
X178999047Y-64250760D01*
X178994243Y-64299533D01*
X178986264Y-64318794D01*
X178982822Y-64339354D01*
X178961047Y-64383260D01*
X178841998Y-64573736D01*
X178824332Y-64596650D01*
X178821258Y-64602233D01*
X178816300Y-64607068D01*
X178812075Y-64612549D01*
X178806890Y-64616246D01*
X178786174Y-64636452D01*
X178667127Y-64731691D01*
X178651710Y-64741716D01*
X178647300Y-64746020D01*
X178636364Y-64751694D01*
X178626041Y-64758408D01*
X178620124Y-64760122D01*
X178603800Y-64768594D01*
X178365705Y-64863832D01*
X178323978Y-64875936D01*
X178321630Y-64876909D01*
X178320108Y-64877058D01*
X178318636Y-64877486D01*
X178316087Y-64877454D01*
X178272857Y-64881713D01*
X177570476Y-64881713D01*
X177570476Y-65584094D01*
X177565672Y-65632867D01*
X177528343Y-65722987D01*
X177459369Y-65791961D01*
X177369249Y-65829290D01*
X177271703Y-65829290D01*
X177181583Y-65791961D01*
X177112609Y-65722987D01*
X177083876Y-65653621D01*
X177121703Y-65669290D01*
X177219249Y-65669290D01*
X177309369Y-65631961D01*
X177378343Y-65562987D01*
X177415672Y-65472867D01*
X177420476Y-65424094D01*
X177420476Y-64721713D01*
X178122857Y-64721713D01*
X178166087Y-64717454D01*
X178168636Y-64717486D01*
X178170108Y-64717058D01*
X178171630Y-64716909D01*
X178173978Y-64715936D01*
X178215705Y-64703832D01*
X178453800Y-64608594D01*
X178470124Y-64600122D01*
X178476041Y-64598408D01*
X178486364Y-64591694D01*
X178497300Y-64586020D01*
X178501710Y-64581716D01*
X178517127Y-64571691D01*
X178636174Y-64476452D01*
X178656890Y-64456246D01*
X178662075Y-64452549D01*
X178666300Y-64447068D01*
X178671258Y-64442233D01*
X178674332Y-64436650D01*
X178691998Y-64413736D01*
X178811047Y-64223260D01*
X178832822Y-64179354D01*
X178836264Y-64158794D01*
X178844243Y-64139533D01*
X178849047Y-64090760D01*
X178849047Y-63805046D01*
X178844243Y-63756273D01*
X178836264Y-63737011D01*
X178832822Y-63716452D01*
X178811047Y-63672546D01*
X178719427Y-63525956D01*
X178786173Y-63579353D01*
G37*
D11*
X174700000Y-69200000D02*
X187500000Y-69200000D01*
D10*
G36*
X178233706Y-63737692D02*
G01*
X178290571Y-63783183D01*
X178349047Y-63876744D01*
X178349047Y-63883828D01*
X178224712Y-63834094D01*
X177570476Y-63834094D01*
X177570476Y-64221713D01*
X177420476Y-64221713D01*
X177420476Y-63674094D01*
X178074712Y-63674094D01*
X178233706Y-63737692D01*
G37*
G36*
X178014560Y-68032035D02*
G01*
X178063333Y-68036839D01*
X178289523Y-68036839D01*
X178289523Y-68196839D01*
X178213333Y-68196839D01*
X178164560Y-68192035D01*
X178074440Y-68154706D01*
X178005466Y-68085732D01*
X177976733Y-68016366D01*
X178014560Y-68032035D01*
G37*
G36*
X185274269Y-66799241D02*
G01*
X185279130Y-66803982D01*
X185309353Y-66833460D01*
X185356406Y-66918907D01*
X185367178Y-67015854D01*
X185340030Y-67109545D01*
X185279093Y-67185716D01*
X185193647Y-67232769D01*
X185096700Y-67243541D01*
X185003008Y-67216393D01*
X184961922Y-67189676D01*
X184883885Y-67127246D01*
X184609143Y-67053982D01*
X184436570Y-67053982D01*
X184161826Y-67127247D01*
X183997999Y-67258309D01*
X183918557Y-67385416D01*
X183820476Y-67699277D01*
X183820476Y-67908685D01*
X183918557Y-68222546D01*
X183947999Y-68269654D01*
X183847999Y-68189654D01*
X183768557Y-68062546D01*
X183670476Y-67748685D01*
X183670476Y-67539277D01*
X183768557Y-67225416D01*
X183847999Y-67098309D01*
X184011826Y-66967247D01*
X184286570Y-66893982D01*
X184459143Y-66893982D01*
X184733885Y-66967246D01*
X184811922Y-67029676D01*
X184853008Y-67056393D01*
X184946700Y-67083541D01*
X185043647Y-67072769D01*
X185129093Y-67025716D01*
X185190030Y-66949545D01*
X185217178Y-66855854D01*
X185206406Y-66758907D01*
X185192669Y-66733961D01*
X185274269Y-66799241D01*
G37*
G36*
X178663323Y-66667101D02*
G01*
X178706823Y-66689675D01*
X178776634Y-66757804D01*
X178796424Y-66803982D01*
X178815058Y-66847461D01*
X178816247Y-66944999D01*
X178780020Y-67035568D01*
X178711891Y-67105379D01*
X178622234Y-67143803D01*
X178524696Y-67144993D01*
X178477627Y-67131339D01*
X178284235Y-67053982D01*
X178007998Y-67053982D01*
X177733254Y-67127247D01*
X177569427Y-67258309D01*
X177489985Y-67385416D01*
X177391904Y-67699277D01*
X177391904Y-67908685D01*
X177489985Y-68222546D01*
X177519427Y-68269654D01*
X177419427Y-68189654D01*
X177339985Y-68062546D01*
X177241904Y-67748685D01*
X177241904Y-67539277D01*
X177339985Y-67225416D01*
X177419427Y-67098309D01*
X177583254Y-66967247D01*
X177857998Y-66893982D01*
X178134235Y-66893982D01*
X178327627Y-66971339D01*
X178374696Y-66984993D01*
X178472234Y-66983803D01*
X178561891Y-66945379D01*
X178630020Y-66875568D01*
X178666247Y-66784999D01*
X178665058Y-66687461D01*
X178654886Y-66663726D01*
X178663323Y-66667101D01*
G37*
G36*
X175514560Y-68032035D02*
G01*
X175563333Y-68036839D01*
X175789523Y-68036839D01*
X175789523Y-68196839D01*
X175713333Y-68196839D01*
X175664560Y-68192035D01*
X175574440Y-68154706D01*
X175505466Y-68085732D01*
X175476733Y-68016366D01*
X175514560Y-68032035D01*
G37*
G36*
X182595697Y-63579353D02*
G01*
X182630781Y-63613572D01*
X182677834Y-63699019D01*
X182688606Y-63795966D01*
X182661458Y-63889657D01*
X182600521Y-63965828D01*
X182515075Y-64012881D01*
X182418128Y-64023653D01*
X182324436Y-63996505D01*
X182283350Y-63969788D01*
X182205313Y-63907358D01*
X181930571Y-63834094D01*
X181757998Y-63834094D01*
X181483254Y-63907359D01*
X181319427Y-64038421D01*
X181239985Y-64165528D01*
X181213350Y-64250760D01*
X181141904Y-64479389D01*
X181141904Y-64688797D01*
X181239985Y-65002658D01*
X181269427Y-65049766D01*
X181169427Y-64969766D01*
X181089985Y-64842658D01*
X180991904Y-64528797D01*
X180991904Y-64319389D01*
X181089985Y-64005528D01*
X181169427Y-63878421D01*
X181333254Y-63747359D01*
X181607998Y-63674094D01*
X181780571Y-63674094D01*
X182055313Y-63747358D01*
X182133350Y-63809788D01*
X182174436Y-63836505D01*
X182268128Y-63863653D01*
X182365075Y-63852881D01*
X182450521Y-63805828D01*
X182511458Y-63729657D01*
X182538606Y-63635966D01*
X182527834Y-63539019D01*
X182514097Y-63514073D01*
X182595697Y-63579353D01*
G37*
G36*
X185279092Y-68422247D02*
G01*
X185340029Y-68498417D01*
X185367177Y-68592108D01*
X185356406Y-68689055D01*
X185309353Y-68774502D01*
X185274269Y-68808722D01*
X185155221Y-68903961D01*
X185114135Y-68930678D01*
X185111515Y-68931436D01*
X185109351Y-68933094D01*
X185063462Y-68950303D01*
X184706321Y-69045541D01*
X184694966Y-69047401D01*
X184690678Y-69049178D01*
X184674251Y-69050795D01*
X184657957Y-69053466D01*
X184653353Y-69052854D01*
X184641905Y-69053982D01*
X184403809Y-69053982D01*
X184392360Y-69052854D01*
X184387757Y-69053466D01*
X184371462Y-69050795D01*
X184355036Y-69049178D01*
X184350747Y-69047401D01*
X184339393Y-69045541D01*
X183982250Y-68950303D01*
X183936362Y-68933094D01*
X183934197Y-68931436D01*
X183931578Y-68930678D01*
X183890492Y-68903961D01*
X183652397Y-68713484D01*
X183631684Y-68693281D01*
X183626494Y-68689580D01*
X183622263Y-68684092D01*
X183617313Y-68679264D01*
X183614242Y-68673688D01*
X183596571Y-68650766D01*
X183569143Y-68606881D01*
X183740492Y-68743961D01*
X183781578Y-68770678D01*
X183784197Y-68771436D01*
X183786362Y-68773094D01*
X183832250Y-68790303D01*
X184189393Y-68885541D01*
X184200747Y-68887401D01*
X184205036Y-68889178D01*
X184221462Y-68890795D01*
X184237757Y-68893466D01*
X184242360Y-68892854D01*
X184253809Y-68893982D01*
X184491905Y-68893982D01*
X184503353Y-68892854D01*
X184507957Y-68893466D01*
X184524251Y-68890795D01*
X184540678Y-68889178D01*
X184544966Y-68887401D01*
X184556321Y-68885541D01*
X184913462Y-68790303D01*
X184959351Y-68773094D01*
X184961515Y-68771436D01*
X184964135Y-68770678D01*
X185005221Y-68743961D01*
X185124269Y-68648722D01*
X185159353Y-68614502D01*
X185206406Y-68529055D01*
X185217177Y-68432108D01*
X185202022Y-68379807D01*
X185279092Y-68422247D01*
G37*
G36*
X179959369Y-63376227D02*
G01*
X180028343Y-63445201D01*
X180065672Y-63535321D01*
X180070476Y-63584094D01*
X180070476Y-64441236D01*
X180070476Y-65584094D01*
X180065672Y-65632867D01*
X180028343Y-65722987D01*
X179959369Y-65791961D01*
X179869249Y-65829290D01*
X179771703Y-65829290D01*
X179681583Y-65791961D01*
X179612609Y-65722987D01*
X179583876Y-65653621D01*
X179621703Y-65669290D01*
X179719249Y-65669290D01*
X179809369Y-65631961D01*
X179878343Y-65562987D01*
X179915672Y-65472867D01*
X179920476Y-65424094D01*
X179920476Y-63424094D01*
X179915672Y-63375321D01*
X179907075Y-63354566D01*
X179959369Y-63376227D01*
G37*
G36*
X182600520Y-65202359D02*
G01*
X182661457Y-65278529D01*
X182688605Y-65372220D01*
X182677834Y-65469167D01*
X182630781Y-65554614D01*
X182595697Y-65588834D01*
X182476649Y-65684073D01*
X182435563Y-65710790D01*
X182432943Y-65711548D01*
X182430779Y-65713206D01*
X182384890Y-65730415D01*
X182027749Y-65825653D01*
X182016394Y-65827513D01*
X182012106Y-65829290D01*
X181995679Y-65830907D01*
X181979385Y-65833578D01*
X181974781Y-65832966D01*
X181963333Y-65834094D01*
X181725237Y-65834094D01*
X181713788Y-65832966D01*
X181709185Y-65833578D01*
X181692890Y-65830907D01*
X181676464Y-65829290D01*
X181672175Y-65827513D01*
X181660821Y-65825653D01*
X181303678Y-65730415D01*
X181257790Y-65713206D01*
X181255625Y-65711548D01*
X181253006Y-65710790D01*
X181211920Y-65684073D01*
X180973825Y-65493596D01*
X180953112Y-65473393D01*
X180947922Y-65469692D01*
X180943691Y-65464204D01*
X180938741Y-65459376D01*
X180935670Y-65453800D01*
X180917999Y-65430878D01*
X180890571Y-65386993D01*
X181061920Y-65524073D01*
X181103006Y-65550790D01*
X181105625Y-65551548D01*
X181107790Y-65553206D01*
X181153678Y-65570415D01*
X181510821Y-65665653D01*
X181522175Y-65667513D01*
X181526464Y-65669290D01*
X181542890Y-65670907D01*
X181559185Y-65673578D01*
X181563788Y-65672966D01*
X181575237Y-65674094D01*
X181813333Y-65674094D01*
X181824781Y-65672966D01*
X181829385Y-65673578D01*
X181845679Y-65670907D01*
X181862106Y-65669290D01*
X181866394Y-65667513D01*
X181877749Y-65665653D01*
X182234890Y-65570415D01*
X182280779Y-65553206D01*
X182282943Y-65551548D01*
X182285563Y-65550790D01*
X182326649Y-65524073D01*
X182445697Y-65428834D01*
X182480781Y-65394614D01*
X182527834Y-65309167D01*
X182538605Y-65212220D01*
X182523450Y-65159919D01*
X182600520Y-65202359D01*
G37*
G36*
X178828416Y-67738972D02*
G01*
X178897390Y-67807946D01*
X178934719Y-67898066D01*
X178939523Y-67946839D01*
X178939523Y-68613505D01*
X178934719Y-68662278D01*
X178929375Y-68675177D01*
X178927834Y-68689055D01*
X178910858Y-68719881D01*
X178897390Y-68752398D01*
X178887515Y-68762272D01*
X178880781Y-68774502D01*
X178845697Y-68808722D01*
X178726649Y-68903961D01*
X178685563Y-68930678D01*
X178682943Y-68931436D01*
X178680779Y-68933094D01*
X178634890Y-68950303D01*
X178277749Y-69045541D01*
X178266394Y-69047401D01*
X178262106Y-69049178D01*
X178245679Y-69050795D01*
X178229385Y-69053466D01*
X178224781Y-69052854D01*
X178213333Y-69053982D01*
X177975237Y-69053982D01*
X177963788Y-69052854D01*
X177959185Y-69053466D01*
X177942890Y-69050795D01*
X177926464Y-69049178D01*
X177922175Y-69047401D01*
X177910821Y-69045541D01*
X177553678Y-68950303D01*
X177507790Y-68933094D01*
X177505625Y-68931436D01*
X177503006Y-68930678D01*
X177461920Y-68903961D01*
X177223825Y-68713484D01*
X177203112Y-68693281D01*
X177197922Y-68689580D01*
X177193691Y-68684092D01*
X177188741Y-68679264D01*
X177185670Y-68673688D01*
X177167999Y-68650766D01*
X177140571Y-68606881D01*
X177311920Y-68743961D01*
X177353006Y-68770678D01*
X177355625Y-68771436D01*
X177357790Y-68773094D01*
X177403678Y-68790303D01*
X177760821Y-68885541D01*
X177772175Y-68887401D01*
X177776464Y-68889178D01*
X177792890Y-68890795D01*
X177809185Y-68893466D01*
X177813788Y-68892854D01*
X177825237Y-68893982D01*
X178063333Y-68893982D01*
X178074781Y-68892854D01*
X178079385Y-68893466D01*
X178095679Y-68890795D01*
X178112106Y-68889178D01*
X178116394Y-68887401D01*
X178127749Y-68885541D01*
X178484890Y-68790303D01*
X178530779Y-68773094D01*
X178532943Y-68771436D01*
X178535563Y-68770678D01*
X178576649Y-68743961D01*
X178695697Y-68648722D01*
X178730781Y-68614502D01*
X178737515Y-68602272D01*
X178747390Y-68592398D01*
X178760858Y-68559881D01*
X178777834Y-68529055D01*
X178779375Y-68515177D01*
X178784719Y-68502278D01*
X178789523Y-68453505D01*
X178789523Y-67786839D01*
X178784719Y-67738066D01*
X178776122Y-67717311D01*
X178828416Y-67738972D01*
G37*
G36*
X184424183Y-63737692D02*
G01*
X184573691Y-63857298D01*
X184590357Y-63910631D01*
X184574183Y-63897692D01*
X184415188Y-63834094D01*
X184035287Y-63834094D01*
X183876290Y-63897692D01*
X183726783Y-64017298D01*
X183641904Y-64288913D01*
X183641904Y-64879273D01*
X183710116Y-65097554D01*
X183576783Y-64990888D01*
X183491904Y-64719273D01*
X183491904Y-64288913D01*
X183491904Y-64128913D01*
X183576783Y-63857298D01*
X183726290Y-63737692D01*
X183885287Y-63674094D01*
X184265188Y-63674094D01*
X184424183Y-63737692D01*
G37*
G36*
X176328416Y-67738972D02*
G01*
X176397390Y-67807946D01*
X176434719Y-67898066D01*
X176439523Y-67946839D01*
X176439523Y-68613505D01*
X176434719Y-68662278D01*
X176429375Y-68675177D01*
X176427834Y-68689055D01*
X176410858Y-68719881D01*
X176397390Y-68752398D01*
X176387515Y-68762272D01*
X176380781Y-68774502D01*
X176345697Y-68808722D01*
X176226649Y-68903961D01*
X176185563Y-68930678D01*
X176182943Y-68931436D01*
X176180779Y-68933094D01*
X176134890Y-68950303D01*
X175777749Y-69045541D01*
X175766394Y-69047401D01*
X175762106Y-69049178D01*
X175745679Y-69050795D01*
X175729385Y-69053466D01*
X175724781Y-69052854D01*
X175713333Y-69053982D01*
X175475237Y-69053982D01*
X175463788Y-69052854D01*
X175459185Y-69053466D01*
X175442890Y-69050795D01*
X175426464Y-69049178D01*
X175422175Y-69047401D01*
X175410821Y-69045541D01*
X175053678Y-68950303D01*
X175007790Y-68933094D01*
X175005625Y-68931436D01*
X175003006Y-68930678D01*
X174961920Y-68903961D01*
X174723825Y-68713484D01*
X174703112Y-68693281D01*
X174697922Y-68689580D01*
X174693691Y-68684092D01*
X174688741Y-68679264D01*
X174685670Y-68673688D01*
X174667999Y-68650766D01*
X174640571Y-68606881D01*
X174811920Y-68743961D01*
X174853006Y-68770678D01*
X174855625Y-68771436D01*
X174857790Y-68773094D01*
X174903678Y-68790303D01*
X175260821Y-68885541D01*
X175272175Y-68887401D01*
X175276464Y-68889178D01*
X175292890Y-68890795D01*
X175309185Y-68893466D01*
X175313788Y-68892854D01*
X175325237Y-68893982D01*
X175563333Y-68893982D01*
X175574781Y-68892854D01*
X175579385Y-68893466D01*
X175595679Y-68890795D01*
X175612106Y-68889178D01*
X175616394Y-68887401D01*
X175627749Y-68885541D01*
X175984890Y-68790303D01*
X176030779Y-68773094D01*
X176032943Y-68771436D01*
X176035563Y-68770678D01*
X176076649Y-68743961D01*
X176195697Y-68648722D01*
X176230781Y-68614502D01*
X176237515Y-68602272D01*
X176247390Y-68592398D01*
X176260858Y-68559881D01*
X176277834Y-68529055D01*
X176279375Y-68515177D01*
X176284719Y-68502278D01*
X176289523Y-68453505D01*
X176289523Y-67786839D01*
X176284719Y-67738066D01*
X176276122Y-67717311D01*
X176328416Y-67738972D01*
G37*
G36*
X176163323Y-66667101D02*
G01*
X176206823Y-66689675D01*
X176276634Y-66757804D01*
X176315058Y-66847461D01*
X176316247Y-66944999D01*
X176280020Y-67035568D01*
X176211891Y-67105379D01*
X176122234Y-67143803D01*
X176024696Y-67144993D01*
X175977627Y-67131339D01*
X175784235Y-67053982D01*
X175507998Y-67053982D01*
X175233254Y-67127247D01*
X175069427Y-67258309D01*
X174989985Y-67385416D01*
X174903827Y-67661124D01*
X174891904Y-67699277D01*
X174891904Y-67908685D01*
X174989985Y-68222546D01*
X175019427Y-68269654D01*
X174919427Y-68189654D01*
X174839985Y-68062546D01*
X174741904Y-67748685D01*
X174741904Y-67539277D01*
X174839985Y-67225416D01*
X174919427Y-67098309D01*
X175083254Y-66967247D01*
X175357998Y-66893982D01*
X175634235Y-66893982D01*
X175827627Y-66971339D01*
X175874696Y-66984993D01*
X175972234Y-66983803D01*
X176061891Y-66945379D01*
X176130020Y-66875568D01*
X176166247Y-66784999D01*
X176165058Y-66687461D01*
X176154886Y-66663726D01*
X176163323Y-66667101D01*
G37*
G36*
X182995083Y-68596115D02*
G01*
X183064057Y-68665089D01*
X183101386Y-68755209D01*
X183101386Y-68852755D01*
X183064057Y-68942875D01*
X182995083Y-69011849D01*
X182904963Y-69049178D01*
X182856190Y-69053982D01*
X181665714Y-69053982D01*
X181616941Y-69049178D01*
X181526821Y-69011849D01*
X181457847Y-68942875D01*
X181429114Y-68873509D01*
X181466941Y-68889178D01*
X181515714Y-68893982D01*
X182706190Y-68893982D01*
X182754963Y-68889178D01*
X182845083Y-68851849D01*
X182914057Y-68782875D01*
X182951386Y-68692755D01*
X182951386Y-68595209D01*
X182942789Y-68574454D01*
X182995083Y-68596115D01*
G37*
G36*
X187536173Y-66894479D02*
G01*
X187556889Y-66914684D01*
X187562076Y-66918383D01*
X187566301Y-66923863D01*
X187571258Y-66928698D01*
X187574331Y-66934279D01*
X187592000Y-66957197D01*
X187711047Y-67147673D01*
X187715741Y-67157137D01*
X187718534Y-67160483D01*
X187725215Y-67176240D01*
X187732823Y-67191578D01*
X187733542Y-67195877D01*
X187737667Y-67205603D01*
X187800000Y-67405067D01*
X187800000Y-68202895D01*
X187737667Y-68402360D01*
X187733542Y-68412085D01*
X187732823Y-68416385D01*
X187725215Y-68431722D01*
X187718534Y-68447480D01*
X187715741Y-68450825D01*
X187711047Y-68460290D01*
X187592000Y-68650766D01*
X187574329Y-68673685D01*
X187571258Y-68679264D01*
X187566303Y-68684096D01*
X187562076Y-68689580D01*
X187556889Y-68693279D01*
X187536174Y-68713484D01*
X187298079Y-68903961D01*
X187256993Y-68930678D01*
X187254373Y-68931436D01*
X187252209Y-68933094D01*
X187206320Y-68950303D01*
X186849178Y-69045541D01*
X186837823Y-69047401D01*
X186833535Y-69049178D01*
X186817108Y-69050795D01*
X186800814Y-69053466D01*
X186796210Y-69052854D01*
X186784762Y-69053982D01*
X186189524Y-69053982D01*
X186140751Y-69049178D01*
X186050631Y-69011849D01*
X185981657Y-68942875D01*
X185952924Y-68873509D01*
X185990751Y-68889178D01*
X186039524Y-68893982D01*
X186634762Y-68893982D01*
X186646210Y-68892854D01*
X186650814Y-68893466D01*
X186667108Y-68890795D01*
X186683535Y-68889178D01*
X186687823Y-68887401D01*
X186699178Y-68885541D01*
X187056320Y-68790303D01*
X187102209Y-68773094D01*
X187104373Y-68771436D01*
X187106993Y-68770678D01*
X187148079Y-68743961D01*
X187386174Y-68553484D01*
X187406889Y-68533279D01*
X187412076Y-68529580D01*
X187416303Y-68524096D01*
X187421258Y-68519264D01*
X187424329Y-68513685D01*
X187442000Y-68490766D01*
X187561047Y-68300290D01*
X187565741Y-68290825D01*
X187568534Y-68287480D01*
X187575215Y-68271722D01*
X187582823Y-68256385D01*
X187583542Y-68252085D01*
X187587667Y-68242360D01*
X187706715Y-67861408D01*
X187710843Y-67841520D01*
X187713291Y-67835612D01*
X187714393Y-67824423D01*
X187716677Y-67813422D01*
X187716103Y-67807055D01*
X187718095Y-67786839D01*
X187718095Y-67501124D01*
X187716103Y-67480907D01*
X187716677Y-67474541D01*
X187714393Y-67463539D01*
X187713291Y-67452351D01*
X187710843Y-67446442D01*
X187706715Y-67426555D01*
X187587667Y-67045603D01*
X187583542Y-67035877D01*
X187582823Y-67031578D01*
X187575215Y-67016240D01*
X187568534Y-67000483D01*
X187565741Y-66997137D01*
X187561047Y-66987673D01*
X187469428Y-66841083D01*
X187536173Y-66894479D01*
G37*
G36*
X181804607Y-66596115D02*
G01*
X181873581Y-66665089D01*
X181910910Y-66755209D01*
X181915714Y-66803982D01*
X181915714Y-67661124D01*
X181915714Y-68393982D01*
X181765714Y-68393982D01*
X181765714Y-66643982D01*
X181760910Y-66595209D01*
X181752313Y-66574454D01*
X181804607Y-66596115D01*
G37*
D12*
%TO.C,U7*%
X116135000Y-84280000D03*
X118675000Y-84280000D03*
X121215000Y-84280000D03*
X123755000Y-84280000D03*
X126295000Y-84280000D03*
D13*
X128835000Y-84280000D03*
D12*
X131375000Y-84280000D03*
X133915000Y-84280000D03*
X136455000Y-84280000D03*
X138995000Y-84280000D03*
X141535000Y-84280000D03*
X144075000Y-84280000D03*
X146615000Y-84280000D03*
X149155000Y-84280000D03*
D13*
X151695000Y-84280000D03*
D12*
X154235000Y-84280000D03*
X156775000Y-84280000D03*
X159315000Y-84280000D03*
X161855000Y-84280000D03*
X164395000Y-84280000D03*
X164395000Y-66500000D03*
X161855000Y-66500000D03*
X159315000Y-66500000D03*
X156775000Y-66500000D03*
X154235000Y-66500000D03*
X151695000Y-66500000D03*
X149155000Y-66500000D03*
X146615000Y-66500000D03*
D13*
X144075000Y-66500000D03*
D12*
X141535000Y-66500000D03*
X138995000Y-66500000D03*
X136455000Y-66500000D03*
X133915000Y-66500000D03*
X131375000Y-66500000D03*
D13*
X128835000Y-66500000D03*
D12*
X126295000Y-66500000D03*
X123755000Y-66500000D03*
D13*
X121215000Y-66500000D03*
D12*
X118675000Y-66500000D03*
X116135000Y-66500000D03*
X164390000Y-79220000D03*
D13*
X164390000Y-76680000D03*
D12*
X164390000Y-74140000D03*
X164390000Y-71600000D03*
%TD*%
D14*
%TO.C,T14*%
X183650000Y-107060000D03*
%TD*%
%TO.C,T4*%
X174160000Y-82530000D03*
%TD*%
%TO.C,T13*%
X183630000Y-98650000D03*
%TD*%
D15*
%TO.C,J3*%
X181920000Y-92790000D03*
X181920000Y-92290000D03*
X181920000Y-91790000D03*
X181920000Y-91290000D03*
X181920000Y-90790000D03*
X181920000Y-90290000D03*
X181920000Y-89790000D03*
X181920000Y-89290000D03*
X181920000Y-88790000D03*
X181920000Y-88290000D03*
X181920000Y-87790000D03*
X181920000Y-87290000D03*
X181920000Y-86790000D03*
X181920000Y-86290000D03*
X181920000Y-85790000D03*
X181920000Y-85290000D03*
X181920000Y-84790000D03*
X181920000Y-84290000D03*
X181920000Y-83790000D03*
X181920000Y-83290000D03*
X181920000Y-82790000D03*
X181920000Y-82290000D03*
X181920000Y-81790000D03*
X181920000Y-81290000D03*
D16*
X184370000Y-94940000D03*
X184370000Y-79140000D03*
%TD*%
D14*
%TO.C,T18*%
X182190000Y-74540000D03*
%TD*%
%TO.C,T5*%
X170920000Y-77870000D03*
%TD*%
%TO.C,T16*%
X183630000Y-104250000D03*
%TD*%
%TO.C,T2*%
X180660000Y-98650000D03*
%TD*%
D17*
%TO.C,MHP2*%
X187650000Y-112820000D03*
%TD*%
D14*
%TO.C,T1*%
X177780000Y-98650000D03*
%TD*%
%TO.C,T6*%
X168140000Y-77690000D03*
%TD*%
D18*
%TO.C,J2*%
X154690000Y-95545000D03*
X154190000Y-95545000D03*
X153690000Y-95545000D03*
X153190000Y-95545000D03*
X152690000Y-95545000D03*
X152190000Y-95545000D03*
X151690000Y-95545000D03*
X151190000Y-95545000D03*
X150690000Y-95545000D03*
X150190000Y-95545000D03*
X149690000Y-95545000D03*
X149190000Y-95545000D03*
X148690000Y-95545000D03*
X148190000Y-95545000D03*
X147690000Y-95545000D03*
X147190000Y-95545000D03*
X146690000Y-95545000D03*
X146190000Y-95545000D03*
X145690000Y-95545000D03*
X145190000Y-95545000D03*
X144690000Y-95545000D03*
X144190000Y-95545000D03*
X143690000Y-95545000D03*
X143190000Y-95545000D03*
X142690000Y-95545000D03*
X142190000Y-95545000D03*
X141690000Y-95545000D03*
X141190000Y-95545000D03*
X140690000Y-95545000D03*
X140190000Y-95545000D03*
X139690000Y-95545000D03*
X139190000Y-95545000D03*
X138690000Y-95545000D03*
X138190000Y-95545000D03*
X137690000Y-95545000D03*
X137190000Y-95545000D03*
X136690000Y-95545000D03*
X136190000Y-95545000D03*
X135690000Y-95545000D03*
X135190000Y-95545000D03*
X134690000Y-95545000D03*
X134190000Y-95545000D03*
X133690000Y-95545000D03*
X133190000Y-95545000D03*
X132690000Y-95545000D03*
X132190000Y-95545000D03*
X131690000Y-95545000D03*
X131190000Y-95545000D03*
X130690000Y-95545000D03*
X130190000Y-95545000D03*
X129690000Y-95545000D03*
X129190000Y-95545000D03*
X128690000Y-95545000D03*
X128190000Y-95545000D03*
D19*
X156540000Y-92235000D03*
D20*
X126060000Y-92525000D03*
%TD*%
D17*
%TO.C,MHP1*%
X113980000Y-62630000D03*
%TD*%
D14*
%TO.C,T15*%
X183630000Y-101470000D03*
%TD*%
%TO.C,T17*%
X184850000Y-74540000D03*
%TD*%
%TO.C,T3*%
X167690000Y-69090000D03*
%TD*%
D21*
%TO.C,J1*%
X132185000Y-110180000D03*
X132185000Y-109680000D03*
X132185000Y-109180000D03*
X132185000Y-108680000D03*
X132185000Y-108180000D03*
X132185000Y-107680000D03*
X132185000Y-107180000D03*
X132185000Y-106680000D03*
X132185000Y-106180000D03*
X132185000Y-105680000D03*
X132185000Y-105180000D03*
X132185000Y-104680000D03*
X132185000Y-104180000D03*
X132185000Y-103680000D03*
X132185000Y-103180000D03*
X132185000Y-102680000D03*
X132185000Y-102180000D03*
X132185000Y-101680000D03*
X132185000Y-101180000D03*
D22*
X131425000Y-112930000D03*
X131425000Y-98430000D03*
D23*
X125465000Y-112930000D03*
X125465000Y-98430000D03*
%TD*%
D14*
%TO.C,T11*%
X177870000Y-73010000D03*
%TD*%
%TO.C,T20*%
X182190000Y-71720000D03*
%TD*%
%TO.C,T12*%
X178750000Y-75750000D03*
%TD*%
%TO.C,TP17*%
X170320000Y-63120000D03*
%TD*%
%TO.C,TP15*%
X161280000Y-91250000D03*
%TD*%
%TO.C,T19*%
X184850000Y-71720000D03*
%TD*%
%TO.C,TP16*%
X160500000Y-98020000D03*
%TD*%
M02*
