G04 Layer: BoardOutlineLayer*
G04 EasyEDA Pro v2.2.45.4, 2026-01-24 22:56:51*
G04 Gerber Generator version 0.3*
G04 Scale: 100 percent, Rotated: No, Reflected: No*
G04 Dimensions in millimeters*
G04 Leading zeros omitted, absolute positions, 4 integers and 5 decimals*
G04 Generated by one-click*
%FSLAX45Y45*%
%MOMM*%
%ADD10C,0.15*%
%ADD11C,0.05*%
%ADD12C,0.5246*%
G75*


G04 PolygonModel Start*
G54D10*
G01X19434000Y-9327602D02*
G03X19484000Y-9241000I-50001J86603D01*
G01X19484000Y-9241000D02*
G03X19384000Y-9141000I-100000J0D01*
G01X19384000Y-9141000D02*
G01X18751421Y-9141000D01*
G01X18751421Y-9141000D02*
G03X18680711Y-9170289I2J-100005D01*
G01X18680711Y-9170289D02*
G01X18540289Y-9310711D01*
G01X18540289Y-9310711D02*
G02X18469579Y-9340000I-70710J70710D01*
G01X18469579Y-9340000D02*
G01X18024000Y-9340000D01*
G01X18024000Y-9340000D02*
G03X17924000Y-9440000I0J-100000D01*
G01X17924000Y-9440000D02*
G03X17974000Y-9526602I100001J1D01*
G01X17974000Y-9526601D02*
G01X17974000Y-10883000D01*
G01X17974000Y-10883000D02*
G02X17924000Y-10933000I-50000J0D01*
G01X17924000Y-10933000D02*
G01X17550000Y-10933000D01*
G01X17550000Y-10933000D02*
G02X17500000Y-10883000I0J50000D01*
G01X17500000Y-10883000D02*
G01X17500000Y-9527603D01*
G01X17500000Y-9527602D02*
G03X17550000Y-9441000I-50002J86604D01*
G01X17550000Y-9441000D02*
G03X17450000Y-9341000I-100000J0D01*
G01X17450000Y-9341000D02*
G01X17101000Y-9341000D01*
G01X16765950Y-12257300D02*
G01X17817720Y-12257300D01*
G01X17817720Y-12257300D02*
G02X17817720Y-12457300I1005J-100000D01*
G01X18227000Y-13871300D02*
G02X18327000Y-13771300I100000J0D01*
G01X16754056Y-7208306D02*
G01X16754056Y-6000000D01*
G01X16754056Y-6000000D02*
G02X16854056Y-5900000I99997J3D01*
G01X13329000Y-9500000D02*
G02X13379000Y-9413398I100001J-1D01*
G01X12251005Y-12457300D02*
G02X12251005Y-12257300I-1000J100000D01*
G01X16057000Y-14351700D02*
G01X16057000Y-14292000D01*
G01X16057000Y-14292000D02*
G01X15330000Y-14292300D01*
G01X15330000Y-14292300D02*
G01X15330000Y-14352000D01*
G01X15330000Y-14352000D02*
G01X15164000Y-14352000D01*
G01X15164000Y-14352000D02*
G01X15164000Y-14292300D01*
G01X15164000Y-14292300D02*
G01X14703000Y-14292300D01*
G01X14703000Y-14292300D02*
G01X14703000Y-14352000D01*
G01X14703000Y-14352000D02*
G01X14174000Y-14352000D01*
G01X14174000Y-14352000D02*
G01X14174000Y-14292300D01*
G01X14174000Y-14292300D02*
G01X11750000Y-14292300D01*
G01X11750000Y-14292300D02*
G02X11650000Y-14192300I0J100000D01*
G01X11650000Y-14192300D02*
G01X11650000Y-8775000D01*
G01X11650000Y-8775000D02*
G02X11750000Y-8675000I100000J0D01*
G01X11750000Y-8675000D02*
G01X15679056Y-8675000D01*
G01X15679056Y-8675000D02*
G03X15779056Y-8575000I4J99996D01*
G01X16402000Y-14351700D02*
G01X16402000Y-14292300D01*
G01X16402000Y-14292300D02*
G01X18177000Y-14292284D01*
G01X17766380Y-11639733D02*
G01X18497661Y-12371011D01*
G01X18497661Y-12371011D02*
G03X18568371Y-12400300I70708J70705D01*
G01X13329000Y-9050000D02*
G01X12809000Y-9050000D01*
G01X12809000Y-9050000D02*
G03X12759000Y-9100000I0J-50000D01*
G01X12759000Y-9100000D02*
G01X12759000Y-9650000D01*
G01X12759000Y-9650000D02*
G03X12859000Y-9750000I100000J0D01*
G01X12859000Y-9750000D02*
G01X15429060Y-9750000D01*
G01X15429060Y-9750000D02*
G02X15529056Y-9850000I3J-99993D01*
G01X15529050Y-9850178D02*
G02X15479056Y-9936779I-100007J2D01*
G01X15479056Y-9936779D02*
G01X15479056Y-10730000D01*
G01X15479056Y-10730000D02*
G03X15529056Y-10780000I50007J7D01*
G01X15529056Y-10780000D02*
G01X15904056Y-10780000D01*
G01X15904056Y-10780000D02*
G03X15954056Y-10730000I0J50000D01*
G01X15954056Y-10730000D02*
G01X15954056Y-9142420D01*
G01X18276944Y-13958570D02*
G02X18227000Y-13872000I50055J86570D01*
G01X18177001Y-14292284D02*
G03X18277000Y-14192284I-8J100007D01*
G01X18277000Y-14192284D02*
G01X18277000Y-13958602D01*
G01X16804056Y-7295000D02*
G02X16704056Y-7395000I-100003J3D01*
G01X15829056Y-7395000D02*
G03X15729056Y-7495000I4J-100004D01*
G01X15729056Y-7495000D02*
G01X15729056Y-8488430D01*
G01X15729056Y-8488430D02*
G02X15779000Y-8575000I-50055J-86570D01*
G01X13329056Y-9050000D02*
G02X13379056Y-9100000I-0J-50000D01*
G01X13379056Y-9100000D02*
G01X13379056Y-9413238D01*
G01X11979000Y-11559000D02*
G02X12029000Y-11472398I100000J0D01*
G01X12029000Y-11472398D02*
G01X12029000Y-9187602D01*
G01X12029000Y-9187602D02*
G02X11979000Y-9101000I49999J86602D01*
G01X11979000Y-9101000D02*
G02X12079000Y-9001000I100000J0D01*
G01X12079000Y-9001000D02*
G01X15429000Y-9001000D01*
G01X18680529Y-13821300D02*
G03X18751239Y-13792011I-13J100032D01*
G01X18751239Y-13792011D02*
G01X20168711Y-12374539D01*
G01X20168711Y-12374539D02*
G03X20198000Y-12303829I-70711J70711D01*
G01X20198000Y-12303829D02*
G01X20198000Y-9586000D01*
G01X20198000Y-9586000D02*
G02X20298000Y-9486000I100000J0D01*
G01X20298000Y-9486000D02*
G02X20384602Y-9536000I-1J-100001D01*
G01X20384603Y-9536000D02*
G01X21523935Y-9536000D01*
G01X21523935Y-9536000D02*
G03X21623935Y-9435935I0J100000D01*
G01X21623935Y-9435935D02*
G01X21623032Y-8049967D01*
G01X21623032Y-8049967D02*
G03X21573032Y-8000000I-50000J-33D01*
G01X21573032Y-8000000D02*
G01X21250000Y-8000000D01*
G01X21250000Y-8000000D02*
G03X21200000Y-8050000I0J-50000D01*
G01X21200000Y-8050000D02*
G01X21200000Y-8309579D01*
G01X21200000Y-8309579D02*
G02X21170711Y-8380289I-99994J-3D01*
G01X21170711Y-8380289D02*
G01X20870289Y-8680711D01*
G01X20870289Y-8680711D02*
G02X20799579Y-8710000I-70713J70716D01*
G01X20799579Y-8710000D02*
G01X19981421Y-8710000D01*
G01X19981421Y-8710000D02*
G02X19910711Y-8680711I0J100000D01*
G01X19910711Y-8680711D02*
G01X19459289Y-8229289D01*
G01X19459289Y-8229289D02*
G02X19430000Y-8158579I70710J70710D01*
G01X19430000Y-8158579D02*
G01X19430000Y-7333000D01*
G01X19430000Y-7333000D02*
G02X19530000Y-7233000I100000J0D01*
G01X19530000Y-7233000D02*
G01X19991000Y-7233000D01*
G01X19991000Y-7233000D02*
G03X20091000Y-7133000I0J100000D01*
G01X20091000Y-7133000D02*
G01X20091000Y-6504000D01*
G01X20091000Y-6504000D02*
G03X19991000Y-6404000I-100000J0D01*
G01X19991000Y-6404000D02*
G01X19220000Y-6404000D01*
G01X19220000Y-6404000D02*
G03X19120000Y-6504000I0J-100000D01*
G01X19120000Y-6504000D02*
G01X19120000Y-8104398D01*
G01X19120000Y-8104398D02*
G02X19170000Y-8191000I-50001J-86603D01*
G01X19170000Y-8191000D02*
G02X19070000Y-8291000I-100000J0D01*
G01X19070000Y-8291000D02*
G01X18752421Y-8291000D01*
G01X18752421Y-8291000D02*
G02X18681711Y-8261711I1J100003D01*
G01X18681711Y-8261711D02*
G01X18540289Y-8120289D01*
G01X18540289Y-8120289D02*
G03X18469579Y-8091000I-70708J-70705D01*
G01X18469579Y-8091000D02*
G01X17101000Y-8091000D01*
G01X17139000Y-11957000D02*
G01X14389005Y-11957000D01*
G01X14389005Y-11957000D02*
G02X14389005Y-11757000I-1000J100000D01*
G01X14389005Y-11757000D02*
G01X17139000Y-11757000D01*
G01X14515950Y-12457300D02*
G01X15263950Y-12457300D01*
G01X19484000Y-12087356D02*
G02X19454711Y-12158067I-100001J0D01*
G01X19454711Y-12158067D02*
G01X19241767Y-12371011D01*
G01X19241767Y-12371011D02*
G02X19171056Y-12400300I-70710J70710D01*
G01X19171056Y-12400300D02*
G01X18568370Y-12400300D01*
G01X16854000Y-5900000D02*
G01X17229000Y-5900000D01*
G01X15765950Y-12257300D02*
G01X16263950Y-12257300D01*
G01X16263950Y-12257300D02*
G02X16263950Y-12457300I1000J-100000D01*
G01X16263950Y-12457300D02*
G01X15765950Y-12457300D01*
G01X16992406Y-7950000D02*
G01X16520477Y-7950000D01*
G01X16520477Y-7950000D02*
G03X16449767Y-7979289I-4J-99990D01*
G01X16449767Y-7979289D02*
G01X16308345Y-8120711D01*
G01X16308345Y-8120711D02*
G03X16279056Y-8191421I70711J-70711D01*
G01X16279056Y-8191421D02*
G01X16279056Y-8901000D01*
G01X16279056Y-8901000D02*
G02X16179056Y-9001000I-100003J3D01*
G01X16179056Y-9001000D02*
G01X16095477Y-9001000D01*
G01X16095477Y-9001000D02*
G03X16024767Y-9030289I-4J-99990D01*
G01X16024767Y-9030289D02*
G01X15983806Y-9071250D01*
G01X18413573Y-13821296D02*
G01X18680530Y-13821296D01*
G01X16765955Y-12457300D02*
G02X16765955Y-12257300I-1005J100000D01*
G01X17329056Y-7543910D02*
G02X17306012Y-7607771I-100000J-4D01*
G01X17306012Y-7607771D02*
G01X17070436Y-7912144D01*
G01X17070436Y-7912144D02*
G02X16992091Y-7950000I-78344J62141D01*
G01X17660995Y-11757000D02*
G02X17660995Y-11957000I1000J-100000D01*
G01X17138990Y-11757000D02*
G02X17138990Y-11957000I1005J-100000D01*
G01X15429050Y-9600006D02*
G01X13429000Y-9600006D01*
G01X14515950Y-12257300D02*
G01X15263950Y-12257300D01*
G01X16754064Y-7208415D02*
G02X16804064Y-7295017I-49999J-86602D01*
G01X15828944Y-7395000D02*
G01X16704000Y-7395000D01*
G01X17640010Y-11957000D02*
G02X17640010Y-11757000I-1005J100000D01*
G01X17229056Y-5900000D02*
G02X17329000Y-6003470I-3J-100007D01*
G01X12078995Y-11660300D02*
G02X11979000Y-11559300I-1J99999D01*
G01X17329000Y-6003474D02*
G01X17329056Y-7544000D01*
G01X15429056Y-9001000D02*
G02X15529056Y-9101000I0J-100000D01*
G01X17695529Y-11610300D02*
G02X17766239Y-11639589I-1J-100003D01*
G01X14515955Y-12457300D02*
G02X14515955Y-12257300I-1005J100000D01*
G01X15528999Y-9101000D02*
G02X15479055Y-9187570I-99999J-0D01*
G01X17640005Y-11957000D02*
G01X17661000Y-11957000D01*
G01X19434000Y-9327645D02*
G01X19434000Y-12000398D01*
G01X19434000Y-12000398D02*
G02X19484000Y-12087000I-50001J-86603D01*
G01X17695530Y-11610300D02*
G01X12165990Y-11610300D01*
G01X12165990Y-11610300D02*
G02X12079398Y-11660282I-86599J50029D01*
G01X15529006Y-9499994D02*
G02X15429000Y-9600000I-100013J7D01*
G01X15765955Y-12457300D02*
G02X15765955Y-12257300I-1005J100000D01*
G01X15479056Y-9413430D02*
G01X15479056Y-9188000D01*
G01X17640000Y-11757000D02*
G01X17661000Y-11757000D01*
G01X12251000Y-12257300D02*
G01X14013950Y-12257300D01*
G01X14013950Y-12257300D02*
G02X14013950Y-12457300I1000J-100000D01*
G01X14013950Y-12457300D02*
G01X12251000Y-12457300D01*
G01X15479000Y-9413430D02*
G02X15528944Y-9500000I-50066J-86576D01*
G01X16765950Y-12457300D02*
G01X17818000Y-12457302D01*
G01X18326976Y-13771306D02*
G02X18413546Y-13821250I0J-99999D01*
G01X13429056Y-9600000D02*
G02X13329056Y-9500000I-0J100000D01*
G01X15954056Y-9142421D02*
G02X15983345Y-9071711I100000J0D01*
G01X16057000Y-14351850D02*
G01X16402000Y-14351850D01*
G01X15263945Y-12257300D02*
G02X15263945Y-12457300I1005J-100000D01*
G01X13888995Y-11758000D02*
G02X13888995Y-11958000I1000J-100000D01*
G01X12380000Y-11958000D01*
G02X12380000Y-11758000I-1000J100000D01*
G01X13888995Y-11758000D01*
G54D11*
G01X16501000Y-9311000D02*
G01X16501000Y-8121000D01*
G01X16531000Y-8091000D02*
G01X17101000Y-8091000D01*
G01X17101000Y-9341000D02*
G01X16531000Y-9341000D01*
G01X16501000Y-8121000D02*
G02X16531000Y-8091000I30000J0D01*
G01X16531000Y-9341000D02*
G02X16501000Y-9311000I0J30000D01*

M02*

