G04 Layer: BottomLayer*
G04 EasyEDA Pro v2.2.45.4, 2026-01-24 22:56:51*
G04 Gerber Generator version 0.3*
G04 Scale: 100 percent, Rotated: No, Reflected: No*
G04 Dimensions in millimeters*
G04 Leading zeros omitted, absolute positions, 4 integers and 5 decimals*
G04 Generated by one-click*
%FSLAX45Y45*%
%MOMM*%
%AMRoundRect*1,1,$1,$2,$3*1,1,$1,$4,$5*1,1,$1,0-$2,0-$3*1,1,$1,0-$4,0-$5*20,1,$1,$2,$3,$4,$5,0*20,1,$1,$4,$5,0-$2,0-$3,0*20,1,$1,0-$2,0-$3,0-$4,0-$5,0*20,1,$1,0-$4,0-$5,$2,$3,0*4,1,4,$2,$3,$4,$5,0-$2,0-$3,0-$4,0-$5,$2,$3,0*%
%ADD10C,0.2032*%
%ADD11C,1.00508*%
%ADD12RoundRect,0.625X-0.9375X0.9375X0.9375X0.9375*%
%ADD13C,2.0*%
%ADD14R,2.0X2.0*%
%ADD15RoundRect,0.3X-0.35X0.85X0.35X0.85*%
%ADD16R,4.0X0.35*%
%ADD17C,1.5*%
%ADD18C,0.8041*%
%ADD19C,0.8*%
%ADD20C,0.6*%
%ADD21C,1.0*%
%ADD22C,0.2*%
%ADD23C,0.5*%
%ADD24C,0.4*%
%ADD25C,0.3*%
G75*


G04 Copper Start*
G36*
G01X20024166Y-8811586D02*
G01X19961586Y-8749006D01*
G01X19981421Y-8750414D01*
G01X20799579Y-8750414D01*
G01X20803586Y-8750357D01*
G01X20803586Y-8760620D01*
G01X20758603Y-8805603D01*
G01X20753162Y-8811586D01*
G01X20024166Y-8811586D01*
G37*
G36*
G01X19374414Y-7397237D02*
G01X19389586Y-7382065D01*
G01X19389586Y-8158578D01*
G01X19391315Y-8180544D01*
G01X19396458Y-8201969D01*
G01X19404890Y-8222325D01*
G01X19416403Y-8241112D01*
G01X19430712Y-8257866D01*
G01X19590432Y-8417586D01*
G01X19392604Y-8417586D01*
G01X19401248Y-8400818D01*
G01X19406224Y-8382620D01*
G01X19407316Y-8363786D01*
G01X19404475Y-8345136D01*
G01X19397826Y-8327481D01*
G01X19387658Y-8311590D01*
G01X19374414Y-8298155D01*
G01X19374414Y-7397237D01*
G37*
G36*
G01X19012790Y-8345210D02*
G01X19003609Y-8337476D01*
G01X18993248Y-8331414D01*
G01X19070000Y-8331414D01*
G01X19091966Y-8329685D01*
G01X19113390Y-8324542D01*
G01X19133747Y-8316110D01*
G01X19152533Y-8304597D01*
G01X19169288Y-8290287D01*
G01X19183597Y-8273533D01*
G01X19195110Y-8254746D01*
G01X19203542Y-8234390D01*
G01X19208685Y-8212965D01*
G01X19210414Y-8191000D01*
G01X19208936Y-8170683D01*
G01X19204534Y-8150795D01*
G01X19197301Y-8131752D01*
G01X19187389Y-8113956D01*
G01X19175007Y-8097782D01*
G01X19160414Y-8083570D01*
G01X19160414Y-7250558D01*
G01X19254586Y-7250090D01*
G01X19254586Y-7251000D01*
G01X19255602Y-7265942D01*
G01X19258630Y-7280610D01*
G01X19263616Y-7294733D01*
G01X19245674Y-7312674D01*
G01X19236296Y-7324102D01*
G01X19229327Y-7337140D01*
G01X19225035Y-7351287D01*
G01X19223586Y-7366000D01*
G01X19223586Y-8350000D01*
G01X19224355Y-8360740D01*
G01X19226645Y-8371260D01*
G01X19228717Y-8387514D01*
G01X19233689Y-8403127D01*
G01X19241396Y-8417586D01*
G01X19085166Y-8417586D01*
G01X19012790Y-8345210D01*
G37*
G36*
G01X18789416Y-8604586D02*
G01X18798998Y-8589668D01*
G01X18805484Y-8573167D01*
G01X18808625Y-8555717D01*
G01X18808301Y-8537990D01*
G01X18804523Y-8520667D01*
G01X18797437Y-8504414D01*
G01X18888834Y-8504414D01*
G01X18964210Y-8579790D01*
G01X18974880Y-8588547D01*
G01X18987054Y-8595054D01*
G01X19000263Y-8599061D01*
G01X19014000Y-8600414D01*
G01X19179935Y-8600414D01*
G01X19175763Y-8604586D01*
G01X18789416Y-8604586D01*
G37*
G36*
G01X18425790Y-9090790D02*
G01X18511166Y-9005414D01*
G01X18524793Y-9005414D01*
G01X18437620Y-9092586D01*
G01X18423927Y-9092586D01*
G01X18425790Y-9090790D01*
G37*
G36*
G01X18593166Y-8324586D02*
G01X18399994Y-8131414D01*
G01X18469580Y-8131414D01*
G01X18481204Y-8132559D01*
G01X18492381Y-8135949D01*
G01X18502683Y-8141455D01*
G01X18511712Y-8148866D01*
G01X18653134Y-8290288D01*
G01X18669928Y-8304626D01*
G01X18688761Y-8316153D01*
G01X18709169Y-8324586D01*
G01X18593166Y-8324586D01*
G37*
G36*
G01X17989834Y-8534414D02*
G01X18272210Y-8816790D01*
G01X18282880Y-8825547D01*
G01X18295054Y-8832054D01*
G01X18308263Y-8836061D01*
G01X18322000Y-8837414D01*
G01X18343006Y-8837414D01*
G01X18307434Y-8872986D01*
G01X18113216Y-8872986D01*
G01X18112914Y-8857504D01*
G01X18109975Y-8842300D01*
G01X18104484Y-8827820D01*
G01X18096603Y-8814490D01*
G01X18086563Y-8802701D01*
G01X18074659Y-8792797D01*
G01X18061239Y-8785070D01*
G01X18046697Y-8779747D01*
G01X18031460Y-8776983D01*
G01X18015975Y-8776859D01*
G01X18008243Y-8763399D01*
G01X17998323Y-8751460D01*
G01X17986506Y-8741394D01*
G01X17973142Y-8733498D01*
G01X17958623Y-8728004D01*
G01X17943380Y-8725074D01*
G01X17927859Y-8724795D01*
G01X17912520Y-8727175D01*
G01X17902951Y-8713515D01*
G01X17891036Y-8701846D01*
G01X17877180Y-8692563D01*
G01X17877180Y-8692563D01*
G01X17861855Y-8685984D01*
G01X17845582Y-8682331D01*
G01X17828915Y-8681729D01*
G01X17820829Y-8667809D01*
G01X17810403Y-8655543D01*
G01X17797967Y-8645320D01*
G01X17783915Y-8637465D01*
G01X17768692Y-8632227D01*
G01X17752782Y-8629771D01*
G01X17736689Y-8630176D01*
G01X17720923Y-8633428D01*
G01X17705983Y-8639425D01*
G01X17692344Y-8647977D01*
G01X17680437Y-8658812D01*
G01X17670641Y-8671586D01*
G01X17629994Y-8671586D01*
G01X17636574Y-8665006D01*
G01X17653777Y-8661662D01*
G01X17670011Y-8655061D01*
G01X17684667Y-8645452D01*
G01X17697194Y-8633197D01*
G01X17707121Y-8618755D01*
G01X17714076Y-8602669D01*
G01X17717797Y-8585544D01*
G01X17718144Y-8568022D01*
G01X17715105Y-8550763D01*
G01X17708793Y-8534414D01*
G01X17989834Y-8534414D01*
G37*
G36*
G01X17933586Y-10087912D02*
G01X17540414Y-10088394D01*
G01X17540414Y-9548430D01*
G01X17555006Y-9534218D01*
G01X17567389Y-9518044D01*
G01X17577301Y-9500248D01*
G01X17584534Y-9481206D01*
G01X17588936Y-9461317D01*
G01X17590414Y-9441001D01*
G01X17589727Y-9427131D01*
G01X17587674Y-9413396D01*
G01X17626913Y-9452636D01*
G01X17634322Y-9469546D01*
G01X17645011Y-9484600D01*
G01X17658535Y-9497168D01*
G01X17674330Y-9506727D01*
G01X17691738Y-9512878D01*
G01X17710032Y-9515365D01*
G01X17728450Y-9514084D01*
G01X17746224Y-9509088D01*
G01X17762613Y-9500586D01*
G01X17776932Y-9488932D01*
G01X17788586Y-9474613D01*
G01X17797088Y-9458224D01*
G01X17802084Y-9440450D01*
G01X17803365Y-9422032D01*
G01X17800878Y-9403738D01*
G01X17794727Y-9386330D01*
G01X17785168Y-9370535D01*
G01X17772600Y-9357011D01*
G01X17757546Y-9346322D01*
G01X17740636Y-9338913D01*
G01X17665136Y-9263414D01*
G01X18473000Y-9263414D01*
G01X18489663Y-9261773D01*
G01X18505686Y-9256912D01*
G01X18520453Y-9249019D01*
G01X18533397Y-9238397D01*
G01X18645380Y-9126414D01*
G01X18670267Y-9126414D01*
G01X18652134Y-9141712D01*
G01X18511712Y-9282134D01*
G01X18502683Y-9289544D01*
G01X18492381Y-9295050D01*
G01X18481203Y-9298441D01*
G01X18469579Y-9299586D01*
G01X18024000Y-9299586D01*
G01X18002034Y-9301315D01*
G01X17980610Y-9306458D01*
G01X17960253Y-9314890D01*
G01X17941467Y-9326403D01*
G01X17924712Y-9340712D01*
G01X17910403Y-9357467D01*
G01X17898890Y-9376254D01*
G01X17890458Y-9396610D01*
G01X17885315Y-9418035D01*
G01X17883586Y-9440000D01*
G01X17885064Y-9460317D01*
G01X17889465Y-9480205D01*
G01X17896699Y-9499248D01*
G01X17906611Y-9517044D01*
G01X17918993Y-9533218D01*
G01X17933586Y-9547430D01*
G01X17933586Y-10087912D01*
G37*
G36*
G01X17547207Y-8534414D02*
G01X17541432Y-8548911D01*
G01X17538235Y-8564184D01*
G01X17531834Y-8570586D01*
G01X17465095Y-8570586D01*
G01X17464776Y-8552280D01*
G01X17460776Y-8534414D01*
G01X17547207Y-8534414D01*
G37*
G36*
G01X16532380Y-7662414D02*
G01X16780000Y-7662414D01*
G01X16796663Y-7660773D01*
G01X16812686Y-7655912D01*
G01X16827453Y-7648019D01*
G01X16840397Y-7637397D01*
G01X16995397Y-7482397D01*
G01X17006019Y-7469453D01*
G01X17013912Y-7454686D01*
G01X17018773Y-7438663D01*
G01X17020414Y-7422000D01*
G01X17020414Y-7157969D01*
G01X17031106Y-7142358D01*
G01X17038976Y-7125151D01*
G01X17043793Y-7106852D01*
G01X17045414Y-7088000D01*
G01X17045414Y-6660414D01*
G01X17052586Y-6660414D01*
G01X17052586Y-7443000D01*
G01X17053202Y-7454647D01*
G01X17055043Y-7466163D01*
G01X16831620Y-7689586D01*
G01X16505207Y-7689586D01*
G01X16532380Y-7662414D01*
G37*
G36*
G01X16426396Y-7526810D02*
G01X16426770Y-7435414D01*
G01X16704084Y-7435414D01*
G01X16726040Y-7433669D01*
G01X16747454Y-7428515D01*
G01X16767800Y-7420077D01*
G01X16786577Y-7408564D01*
G01X16803324Y-7394258D01*
G01X16817630Y-7377511D01*
G01X16829143Y-7358733D01*
G01X16837580Y-7338388D01*
G01X16842734Y-7316974D01*
G01X16844478Y-7295017D01*
G01X16843000Y-7274699D01*
G01X16838598Y-7254808D01*
G01X16831364Y-7235764D01*
G01X16821450Y-7217967D01*
G01X16809065Y-7201792D01*
G01X16794470Y-7187579D01*
G01X16794470Y-6660414D01*
G01X16824586Y-6660414D01*
G01X16824586Y-7088000D01*
G01X16826207Y-7106852D01*
G01X16831024Y-7125151D01*
G01X16838894Y-7142358D01*
G01X16849586Y-7157969D01*
G01X16849586Y-7386620D01*
G01X16744620Y-7491586D01*
G01X16497000Y-7491586D01*
G01X16480337Y-7493227D01*
G01X16464314Y-7498088D01*
G01X16449547Y-7505981D01*
G01X16436603Y-7516603D01*
G01X16426396Y-7526810D01*
G37*
G36*
G01X20140134Y-12345962D02*
G01X18861935Y-13624161D01*
G01X18761808Y-13465444D01*
G01X18757996Y-13461863D01*
G01X18752924Y-13460586D01*
G01X17649924Y-13468586D01*
G01X17644749Y-13470006D01*
G01X17640969Y-13473815D01*
G01X17639586Y-13479000D01*
G01X17639586Y-13989586D01*
G01X16430414Y-13989586D01*
G01X16430414Y-13950000D01*
G01X16428793Y-13931148D01*
G01X16423976Y-13912849D01*
G01X16416106Y-13895642D01*
G01X16405414Y-13880031D01*
G01X16405414Y-13647414D01*
G01X16415000Y-13647414D01*
G01X16428443Y-13645899D01*
G01X16441213Y-13641431D01*
G01X16452667Y-13634233D01*
G01X16462234Y-13624667D01*
G01X16469431Y-13613213D01*
G01X16473899Y-13600443D01*
G01X16475414Y-13587000D01*
G01X16475414Y-13497414D01*
G01X16479350Y-13497414D01*
G01X16497955Y-13501737D01*
G01X16517054Y-13502054D01*
G01X16535793Y-13498353D01*
G01X16553336Y-13490797D01*
G01X16568900Y-13479725D01*
G01X16581791Y-13465629D01*
G01X16591433Y-13449141D01*
G01X16597396Y-13430994D01*
G01X16599414Y-13412000D01*
G01X16597396Y-13393006D01*
G01X16591433Y-13374859D01*
G01X16581791Y-13358371D01*
G01X16568900Y-13344275D01*
G01X16553336Y-13333203D01*
G01X16535793Y-13325647D01*
G01X16517054Y-13321946D01*
G01X16497955Y-13322263D01*
G01X16479350Y-13326586D01*
G01X16419000Y-13326586D01*
G01X16419000Y-13326586D01*
G01X16416827Y-13326614D01*
G01X16415000Y-13326586D01*
G01X16215000Y-13326586D01*
G01X16200269Y-13328410D01*
G01X16186427Y-13333770D01*
G01X16174310Y-13342344D01*
G01X16167778Y-13328899D01*
G01X16159119Y-13316714D01*
G01X16148571Y-13306123D01*
G01X16136423Y-13297414D01*
G01X17710000Y-13297414D01*
G01X17723737Y-13296061D01*
G01X17736946Y-13292054D01*
G01X17749120Y-13285547D01*
G01X17759790Y-13276790D01*
G01X18183166Y-12853414D01*
G01X18257188Y-12853414D01*
G01X18261389Y-12872078D01*
G01X18269424Y-12889440D01*
G01X18280932Y-12904722D01*
G01X18295397Y-12917242D01*
G01X18312173Y-12926437D01*
G01X18330508Y-12931897D01*
G01X18349582Y-12933377D01*
G01X18357922Y-12949855D01*
G01X18369436Y-12964295D01*
G01X18383645Y-12976093D01*
G01X18399954Y-12984759D01*
G01X18417684Y-12989929D01*
G01X18436094Y-12991390D01*
G01X18445468Y-13005932D01*
G01X18457441Y-13018423D01*
G01X18471574Y-13028404D01*
G01X18487350Y-13035511D01*
G01X18504190Y-13039482D01*
G01X18521478Y-13040173D01*
G01X18538582Y-13037557D01*
G01X18554874Y-13031732D01*
G01X18569758Y-13022910D01*
G01X18582689Y-13011414D01*
G01X18601065Y-13011414D01*
G01X18584875Y-13019458D01*
G01X18570610Y-13030562D01*
G01X18558839Y-13044282D01*
G01X18550032Y-13060069D01*
G01X18544543Y-13077293D01*
G01X18542589Y-13095265D01*
G01X18544250Y-13113266D01*
G01X18549459Y-13130577D01*
G01X18558007Y-13146505D01*
G01X18569554Y-13160415D01*
G01X18583637Y-13171749D01*
G01X18599693Y-13180055D01*
G01X18617081Y-13185001D01*
G01X18635105Y-13186389D01*
G01X18653045Y-13184164D01*
G01X18670184Y-13178414D01*
G01X19256000Y-13178414D01*
G01X19270713Y-13176965D01*
G01X19284860Y-13172673D01*
G01X19297898Y-13165704D01*
G01X19309326Y-13156326D01*
G01X20105326Y-12360326D01*
G01X20114704Y-12348898D01*
G01X20121673Y-12335860D01*
G01X20125965Y-12321713D01*
G01X20127414Y-12307000D01*
G01X20127414Y-9119000D01*
G01X20125965Y-9104287D01*
G01X20121673Y-9090140D01*
G01X20114704Y-9077102D01*
G01X20105326Y-9065674D01*
G01X20039065Y-8999414D01*
G01X20729867Y-8999414D01*
G01X20743196Y-9011662D01*
G01X20758808Y-9020827D01*
G01X20776000Y-9026496D01*
G01X20794000Y-9028414D01*
G01X20803586Y-9028414D01*
G01X20803586Y-9041586D01*
G01X20535410Y-9041586D01*
G01X20516675Y-9040743D01*
G01X20498168Y-9043783D01*
G01X20480687Y-9050576D01*
G01X20464984Y-9060830D01*
G01X20451734Y-9074102D01*
G01X20441507Y-9089823D01*
G01X20434743Y-9107315D01*
G01X20431734Y-9125827D01*
G01X20432609Y-9144561D01*
G01X20437330Y-9162711D01*
G01X20445694Y-9179497D01*
G01X20457341Y-9194197D01*
G01X20471770Y-9206177D01*
G01X20488360Y-9214923D01*
G01X20506398Y-9220058D01*
G01X20525107Y-9221360D01*
G01X20543682Y-9218776D01*
G01X20561325Y-9212414D01*
G01X20803586Y-9212414D01*
G01X20803586Y-9260586D01*
G01X20507237Y-9260586D01*
G01X20419592Y-9172941D01*
G01X20414382Y-9156040D01*
G01X20405981Y-9140477D01*
G01X20394711Y-9126847D01*
G01X20381004Y-9115672D01*
G01X20365384Y-9107379D01*
G01X20348448Y-9102286D01*
G01X20330844Y-9100586D01*
G01X20313246Y-9102346D01*
G01X20296328Y-9107498D01*
G01X20280736Y-9115845D01*
G01X20267068Y-9127068D01*
G01X20255845Y-9140736D01*
G01X20247498Y-9156328D01*
G01X20242346Y-9173246D01*
G01X20240586Y-9190844D01*
G01X20242286Y-9208448D01*
G01X20247379Y-9225384D01*
G01X20255672Y-9241004D01*
G01X20266847Y-9254711D01*
G01X20280477Y-9265981D01*
G01X20296040Y-9274382D01*
G01X20312941Y-9279592D01*
G01X20404317Y-9370968D01*
G01X20411414Y-9387623D01*
G01X20421862Y-9402408D01*
G01X20435192Y-9414659D01*
G01X20450804Y-9423825D01*
G01X20467998Y-9429495D01*
G01X20486000Y-9431414D01*
G01X20803586Y-9431414D01*
G01X20803586Y-9495586D01*
G01X20405430Y-9495586D01*
G01X20391218Y-9480993D01*
G01X20375044Y-9468611D01*
G01X20357248Y-9458699D01*
G01X20338205Y-9451466D01*
G01X20318317Y-9447064D01*
G01X20298000Y-9445586D01*
G01X20276035Y-9447315D01*
G01X20254610Y-9452458D01*
G01X20234254Y-9460890D01*
G01X20215467Y-9472403D01*
G01X20198712Y-9486712D01*
G01X20184403Y-9503467D01*
G01X20172890Y-9522253D01*
G01X20164458Y-9542610D01*
G01X20159315Y-9564034D01*
G01X20157586Y-9586000D01*
G01X20157586Y-12303829D01*
G01X20156441Y-12315453D01*
G01X20153050Y-12326631D01*
G01X20147544Y-12336933D01*
G01X20140134Y-12345962D01*
G37*
G36*
G01X16179055Y-8960586D02*
G01X16129283Y-8960586D01*
G01X16137453Y-8953397D01*
G01X16206397Y-8884453D01*
G01X16217019Y-8871509D01*
G01X16224912Y-8856742D01*
G01X16229773Y-8840719D01*
G01X16231414Y-8824056D01*
G01X16231414Y-8114380D01*
G01X16485380Y-7860414D01*
G01X16867000Y-7860414D01*
G01X16883663Y-7858773D01*
G01X16899686Y-7853912D01*
G01X16914453Y-7846019D01*
G01X16927397Y-7835397D01*
G01X17223397Y-7539397D01*
G01X17232253Y-7528996D01*
G01X17246426Y-7515328D01*
G01X17257946Y-7499360D01*
G01X17266447Y-7481599D01*
G01X17271658Y-7462612D01*
G01X17273414Y-7443000D01*
G01X17273414Y-6660414D01*
G01X17288610Y-6660414D01*
G01X17288642Y-7543990D01*
G01X17287049Y-7557599D01*
G01X17282390Y-7570484D01*
G01X17274911Y-7581964D01*
G01X17274080Y-7583001D01*
G01X17038643Y-7887194D01*
G01X17029210Y-7896612D01*
G01X17017920Y-7903697D01*
G01X17005337Y-7908095D01*
G01X16992091Y-7909586D01*
G01X16520479Y-7909586D01*
G01X16498513Y-7911314D01*
G01X16477087Y-7916458D01*
G01X16456730Y-7924890D01*
G01X16437943Y-7936403D01*
G01X16421189Y-7950714D01*
G01X16279768Y-8092134D01*
G01X16265459Y-8108888D01*
G01X16253946Y-8127675D01*
G01X16245514Y-8148031D01*
G01X16240371Y-8169456D01*
G01X16238642Y-8191421D01*
G01X16238642Y-8900999D01*
G01X16237148Y-8914258D01*
G01X16232741Y-8926852D01*
G01X16225642Y-8938150D01*
G01X16216206Y-8947585D01*
G01X16204908Y-8954685D01*
G01X16192314Y-8959092D01*
G01X16179055Y-8960586D01*
G37*
G36*
G01X16062414Y-13461103D02*
G01X16078659Y-13464700D01*
G01X16095288Y-13465259D01*
G01X16111739Y-13462762D01*
G01X16127453Y-13457292D01*
G01X16141898Y-13449036D01*
G01X16154586Y-13438272D01*
G01X16154586Y-13587000D01*
G01X16156101Y-13600443D01*
G01X16160569Y-13613213D01*
G01X16167767Y-13624667D01*
G01X16177333Y-13634233D01*
G01X16188787Y-13641431D01*
G01X16201557Y-13645899D01*
G01X16215000Y-13647414D01*
G01X16234586Y-13647414D01*
G01X16234586Y-13763038D01*
G01X16225414Y-13750031D01*
G01X16225414Y-13727000D01*
G01X16223773Y-13710337D01*
G01X16218912Y-13694314D01*
G01X16211019Y-13679547D01*
G01X16200397Y-13666603D01*
G01X16062414Y-13528620D01*
G01X16062414Y-13461103D01*
G37*
G36*
G01X16060586Y-8134207D02*
G01X16060586Y-8788676D01*
G01X16041676Y-8807586D01*
G01X15936065Y-8807586D01*
G01X15947326Y-8796326D01*
G01X15954111Y-8788540D01*
G01X15979326Y-8763326D01*
G01X15988704Y-8751898D01*
G01X15995673Y-8738860D01*
G01X15999965Y-8724713D01*
G01X16001414Y-8710000D01*
G01X16001414Y-8193380D01*
G01X16060586Y-8134207D01*
G37*
G36*
G01X15569470Y-9101000D02*
G01X15567859Y-9079791D01*
G01X15563063Y-9059069D01*
G01X15555192Y-9039308D01*
G01X15544426Y-9020964D01*
G01X15531013Y-9004456D01*
G01X15515261Y-8990163D01*
G01X15497530Y-8978414D01*
G01X16027002Y-8978414D01*
G01X16010790Y-8988999D01*
G01X15996189Y-9001714D01*
G01X15954768Y-9043134D01*
G01X15940459Y-9059888D01*
G01X15928946Y-9078675D01*
G01X15920514Y-9099031D01*
G01X15915371Y-9120456D01*
G01X15913642Y-9142421D01*
G01X15913642Y-10188586D01*
G01X15519470Y-10188586D01*
G01X15519470Y-9957605D01*
G01X15534054Y-9943399D01*
G01X15546431Y-9927235D01*
G01X15556340Y-9909450D01*
G01X15563574Y-9890419D01*
G01X15567979Y-9870542D01*
G01X15569464Y-9850238D01*
G01X15568099Y-9830559D01*
G01X15563992Y-9811265D01*
G01X15557223Y-9792737D01*
G01X15547927Y-9775339D01*
G01X15536285Y-9759414D01*
G01X15639056Y-9759414D01*
G01X15655719Y-9757773D01*
G01X15671742Y-9752912D01*
G01X15686509Y-9745019D01*
G01X15699453Y-9734397D01*
G01X15823453Y-9610397D01*
G01X15834075Y-9597453D01*
G01X15841968Y-9582686D01*
G01X15846829Y-9566663D01*
G01X15848470Y-9550000D01*
G01X15848470Y-9482650D01*
G01X15852793Y-9464045D01*
G01X15853110Y-9444946D01*
G01X15849409Y-9426207D01*
G01X15841853Y-9408664D01*
G01X15830781Y-9393100D01*
G01X15816686Y-9380209D01*
G01X15800197Y-9370567D01*
G01X15782050Y-9364604D01*
G01X15763056Y-9362586D01*
G01X15744062Y-9364604D01*
G01X15725915Y-9370567D01*
G01X15709427Y-9380209D01*
G01X15695331Y-9393100D01*
G01X15684259Y-9408664D01*
G01X15676703Y-9426207D01*
G01X15673002Y-9444946D01*
G01X15673319Y-9464045D01*
G01X15677642Y-9482650D01*
G01X15677642Y-9514620D01*
G01X15603676Y-9588586D01*
G01X15537942Y-9588586D01*
G01X15548988Y-9572932D01*
G01X15557800Y-9555921D01*
G01X15564214Y-9537868D01*
G01X15568112Y-9519111D01*
G01X15569420Y-9499997D01*
G01X15569333Y-9497338D01*
G01X15567545Y-9477516D01*
G01X15562973Y-9458145D01*
G01X15555709Y-9439615D01*
G01X15545897Y-9422299D01*
G01X15533736Y-9406543D01*
G01X15519470Y-9392665D01*
G01X15519470Y-9208383D01*
G01X15533766Y-9194488D01*
G01X15545949Y-9178709D01*
G01X15555776Y-9161363D01*
G01X15563047Y-9142801D01*
G01X15567615Y-9123396D01*
G01X15569390Y-9103539D01*
G01X15569470Y-9101000D01*
G37*
G36*
G01X15978280Y-13297414D02*
G01X15965179Y-13304914D01*
G01X15953603Y-13314603D01*
G01X15941620Y-13326586D01*
G01X15802000Y-13326586D01*
G01X15788557Y-13328101D01*
G01X15775787Y-13332569D01*
G01X15764333Y-13339767D01*
G01X15754767Y-13349333D01*
G01X15747569Y-13360787D01*
G01X15743101Y-13373557D01*
G01X15741586Y-13387000D01*
G01X15741586Y-13587000D01*
G01X15743101Y-13600443D01*
G01X15747569Y-13613213D01*
G01X15754767Y-13624667D01*
G01X15764333Y-13634233D01*
G01X15775787Y-13641431D01*
G01X15788557Y-13645899D01*
G01X15802000Y-13647414D01*
G01X15939620Y-13647414D01*
G01X16048276Y-13756069D01*
G01X16038235Y-13773860D01*
G01X16031644Y-13793196D01*
G01X16028727Y-13813416D01*
G01X16029586Y-13833827D01*
G01X16029586Y-13989586D01*
G01X15354414Y-13989586D01*
G01X15354414Y-13834000D01*
G01X15353093Y-13816969D01*
G01X15349160Y-13800346D01*
G01X15342711Y-13784528D01*
G01X15333899Y-13769895D01*
G01X15456380Y-13647414D01*
G01X15589000Y-13647414D01*
G01X15602443Y-13645899D01*
G01X15615213Y-13641431D01*
G01X15626667Y-13634233D01*
G01X15636234Y-13624667D01*
G01X15643431Y-13613213D01*
G01X15647899Y-13600443D01*
G01X15649414Y-13587000D01*
G01X15649414Y-13426166D01*
G01X15778166Y-13297414D01*
G01X15978280Y-13297414D01*
G37*
G36*
G01X14823414Y-13587000D02*
G01X14823414Y-13447380D01*
G01X14851482Y-13419311D01*
G01X14867953Y-13413108D01*
G01X14882910Y-13403830D01*
G01X14895786Y-13391831D01*
G01X14906093Y-13377565D01*
G01X14913441Y-13361572D01*
G01X14917551Y-13344458D01*
G01X14918268Y-13326873D01*
G01X14915565Y-13309481D01*
G01X14909543Y-13292943D01*
G01X14900431Y-13277885D01*
G01X14888575Y-13264878D01*
G01X14874423Y-13254414D01*
G01X15174786Y-13254414D01*
G01X15172637Y-13258569D01*
G01X15104620Y-13326586D01*
G01X14976000Y-13326586D01*
G01X14962557Y-13328101D01*
G01X14949787Y-13332569D01*
G01X14938333Y-13339767D01*
G01X14928767Y-13349333D01*
G01X14921569Y-13360787D01*
G01X14917101Y-13373557D01*
G01X14915586Y-13387000D01*
G01X14915586Y-13515620D01*
G01X14816881Y-13614326D01*
G01X14821758Y-13601048D01*
G01X14823414Y-13587000D01*
G37*
G36*
G01X15176000Y-13647414D02*
G01X15189443Y-13645899D01*
G01X15202213Y-13641431D01*
G01X15213667Y-13634233D01*
G01X15223233Y-13624667D01*
G01X15230431Y-13613213D01*
G01X15234899Y-13600443D01*
G01X15236414Y-13587000D01*
G01X15236414Y-13436380D01*
G01X15293431Y-13379363D01*
G01X15309011Y-13369752D01*
G01X15322337Y-13357201D01*
G01X15332861Y-13342222D01*
G01X15340152Y-13325431D01*
G01X15343912Y-13307515D01*
G01X15343986Y-13289209D01*
G01X15340370Y-13271263D01*
G01X15333214Y-13254414D01*
G01X15622006Y-13254414D01*
G01X15549834Y-13326586D01*
G01X15389000Y-13326586D01*
G01X15375557Y-13328101D01*
G01X15362787Y-13332569D01*
G01X15351333Y-13339767D01*
G01X15341767Y-13349333D01*
G01X15334569Y-13360787D01*
G01X15330101Y-13373557D01*
G01X15328586Y-13387000D01*
G01X15328586Y-13533620D01*
G01X15183603Y-13678603D01*
G01X15172981Y-13691547D01*
G01X15165088Y-13706314D01*
G01X15160227Y-13722337D01*
G01X15158586Y-13739000D01*
G01X15158586Y-13764031D01*
G01X15147894Y-13779642D01*
G01X15140024Y-13796849D01*
G01X15135207Y-13815148D01*
G01X15133586Y-13834000D01*
G01X15133586Y-13989586D01*
G01X14728414Y-13989586D01*
G01X14728414Y-13850380D01*
G01X14791380Y-13787414D01*
G01X14850000Y-13787414D01*
G01X14866663Y-13785773D01*
G01X14882686Y-13780912D01*
G01X14897453Y-13773019D01*
G01X14910397Y-13762397D01*
G01X15025380Y-13647414D01*
G01X15176000Y-13647414D01*
G37*
G36*
G01X14658000Y-13663414D02*
G01X14675632Y-13661574D01*
G01X14607079Y-13730128D01*
G01X14586669Y-13734125D01*
G01X14657380Y-13663414D01*
G01X14658000Y-13663414D01*
G37*
G36*
G01X14350000Y-13647414D02*
G01X14363443Y-13645899D01*
G01X14376213Y-13641431D01*
G01X14387667Y-13634233D01*
G01X14397233Y-13624667D01*
G01X14404431Y-13613213D01*
G01X14408899Y-13600443D01*
G01X14410414Y-13587000D01*
G01X14410414Y-13394166D01*
G01X14550166Y-13254414D01*
G01X14781577Y-13254414D01*
G01X14779043Y-13255988D01*
G01X14767713Y-13262958D01*
G01X14757603Y-13271603D01*
G01X14702620Y-13326586D01*
G01X14563000Y-13326586D01*
G01X14549557Y-13328101D01*
G01X14536787Y-13332569D01*
G01X14525333Y-13339767D01*
G01X14515767Y-13349333D01*
G01X14508569Y-13360787D01*
G01X14504101Y-13373557D01*
G01X14502586Y-13387000D01*
G01X14502586Y-13576620D01*
G01X14377603Y-13701603D01*
G01X14366981Y-13714547D01*
G01X14359088Y-13729314D01*
G01X14354227Y-13745337D01*
G01X14352586Y-13762000D01*
G01X14352586Y-13769031D01*
G01X14347533Y-13775700D01*
G01X14345414Y-13773031D01*
G01X14345414Y-13647414D01*
G01X14350000Y-13647414D01*
G37*
G36*
G01X13146921Y-9389204D02*
G01X13338642Y-9388776D01*
G01X13338642Y-9392523D01*
G01X13324034Y-9406736D01*
G01X13311638Y-9422916D01*
G01X13301714Y-9440719D01*
G01X13294473Y-9459771D01*
G01X13290066Y-9479671D01*
G01X13288586Y-9500000D01*
G01X13288665Y-9502519D01*
G01X13291016Y-9525709D01*
G01X13297170Y-9548190D01*
G01X13306959Y-9569343D01*
G01X13320113Y-9588586D01*
G01X13206593Y-9588586D01*
G01X13119661Y-9501654D01*
G01X13119661Y-9398886D01*
G01X13133675Y-9395128D01*
G01X13146921Y-9389204D01*
G37*
G36*
G01X12799414Y-9650000D02*
G01X12799414Y-9389980D01*
G01X12872712Y-9389816D01*
G01X12885428Y-9395342D01*
G01X12898833Y-9398886D01*
G01X12898833Y-9533247D01*
G01X12900490Y-9552304D01*
G01X12905411Y-9570789D01*
G01X12913450Y-9588148D01*
G01X12924363Y-9603858D01*
G01X12937825Y-9617450D01*
G01X12953430Y-9628513D01*
G01X12970711Y-9636717D01*
G01X13043579Y-9709586D01*
G01X12859000Y-9709586D01*
G01X12845741Y-9708092D01*
G01X12833147Y-9703685D01*
G01X12821849Y-9696586D01*
G01X12812414Y-9687151D01*
G01X12805315Y-9675853D01*
G01X12800908Y-9663259D01*
G01X12799414Y-9650000D01*
G37*
G36*
G01X12196986Y-13294586D02*
G01X11690414Y-13295243D01*
G01X11690414Y-8775000D01*
G01X11691908Y-8761741D01*
G01X11696315Y-8749147D01*
G01X11703414Y-8737849D01*
G01X11712849Y-8728414D01*
G01X11724147Y-8721315D01*
G01X11736741Y-8716908D01*
G01X11750000Y-8715414D01*
G01X15679054Y-8715414D01*
G01X15701020Y-8713686D01*
G01X15722446Y-8708543D01*
G01X15742803Y-8700111D01*
G01X15761590Y-8688599D01*
G01X15778345Y-8674289D01*
G01X15792655Y-8657534D01*
G01X15804167Y-8638747D01*
G01X15812599Y-8618390D01*
G01X15817742Y-8596964D01*
G01X15819470Y-8574998D01*
G01X15819391Y-8572481D01*
G01X15817619Y-8552620D01*
G01X15813051Y-8533211D01*
G01X15805781Y-8514645D01*
G01X15795954Y-8497296D01*
G01X15783768Y-8481514D01*
G01X15769470Y-8467616D01*
G01X15769470Y-7779832D01*
G01X15960222Y-7779117D01*
G01X15974215Y-7785334D01*
G01X15989048Y-7789135D01*
G01X16004306Y-7790414D01*
G01X16162793Y-7790414D01*
G01X15865603Y-8087603D01*
G01X15854230Y-8101689D01*
G01X15846082Y-8117856D01*
G01X15841524Y-8135377D01*
G01X15840761Y-8153465D01*
G01X15843828Y-8171308D01*
G01X15850586Y-8188103D01*
G01X15850586Y-8678763D01*
G01X15840674Y-8688674D01*
G01X15833889Y-8696460D01*
G01X15789763Y-8740586D01*
G01X11878000Y-8740586D01*
G01X11863287Y-8742035D01*
G01X11849140Y-8746327D01*
G01X11836102Y-8753296D01*
G01X11824674Y-8762674D01*
G01X11724674Y-8862674D01*
G01X11715296Y-8874102D01*
G01X11708327Y-8887140D01*
G01X11704035Y-8901287D01*
G01X11702586Y-8916000D01*
G01X11702586Y-12488000D01*
G01X11704035Y-12502713D01*
G01X11708327Y-12516860D01*
G01X11715296Y-12529898D01*
G01X11724674Y-12541326D01*
G01X12139408Y-12956059D01*
G01X12144618Y-12972960D01*
G01X12153019Y-12988523D01*
G01X12164289Y-13002153D01*
G01X12177996Y-13013328D01*
G01X12193616Y-13021621D01*
G01X12210552Y-13026714D01*
G01X12228156Y-13028414D01*
G01X12245754Y-13026654D01*
G01X12262672Y-13021502D01*
G01X12278264Y-13013155D01*
G01X12291932Y-13001932D01*
G01X12303155Y-12988264D01*
G01X12311502Y-12972672D01*
G01X12316654Y-12955754D01*
G01X12318414Y-12938156D01*
G01X12316714Y-12920552D01*
G01X12311621Y-12903616D01*
G01X12303328Y-12887996D01*
G01X12292153Y-12874289D01*
G01X12278523Y-12863019D01*
G01X12262960Y-12854618D01*
G01X12246059Y-12849408D01*
G01X11853414Y-12456763D01*
G01X11853414Y-12441207D01*
G01X12135603Y-12723397D01*
G01X12148547Y-12734019D01*
G01X12163314Y-12741912D01*
G01X12179337Y-12746773D01*
G01X12196000Y-12748414D01*
G01X13726204Y-12748414D01*
G01X13743579Y-12756959D01*
G01X13762272Y-12762011D01*
G01X13781586Y-12763381D01*
G01X13800804Y-12761018D01*
G01X13819211Y-12755011D01*
G01X13836124Y-12745582D01*
G01X13850912Y-12733083D01*
G01X13863026Y-12717978D01*
G01X13872016Y-12700829D01*
G01X13876347Y-12686300D01*
G01X14774536Y-12686300D01*
G01X14774536Y-12886300D01*
G01X14776065Y-12892007D01*
G01X14780243Y-12896185D01*
G01X14785950Y-12897714D01*
G01X14985950Y-12897714D01*
G01X14991657Y-12896185D01*
G01X14995835Y-12892007D01*
G01X14997364Y-12886300D01*
G01X14997364Y-12686300D01*
G01X14995835Y-12680593D01*
G01X14991657Y-12676415D01*
G01X14985950Y-12674886D01*
G01X14785950Y-12674886D01*
G01X14785950Y-12674886D01*
G01X14780243Y-12676415D01*
G01X14776065Y-12680593D01*
G01X14774536Y-12686300D01*
G01X13876347Y-12686300D01*
G01X13877547Y-12682273D01*
G01X13879414Y-12663000D01*
G01X13877547Y-12643727D01*
G01X13872016Y-12625171D01*
G01X13863026Y-12608022D01*
G01X13850912Y-12592917D01*
G01X13836124Y-12580418D01*
G01X13819211Y-12570989D01*
G01X13800804Y-12564982D01*
G01X13781586Y-12562619D01*
G01X13762272Y-12563989D01*
G01X13743579Y-12569041D01*
G01X13726204Y-12577586D01*
G01X12231380Y-12577586D01*
G01X11923414Y-12269620D01*
G01X11923414Y-11846342D01*
G01X12239066Y-11846342D01*
G01X12239066Y-11869658D01*
G01X12242924Y-11892652D01*
G01X12250534Y-11914691D01*
G01X12261685Y-11935167D01*
G01X12276071Y-11953515D01*
G01X12293295Y-11969230D01*
G01X12312882Y-11981879D01*
G01X12334292Y-11991111D01*
G01X12356934Y-11996674D01*
G01X12380185Y-11998414D01*
G01X13888810Y-11998414D01*
G01X13888810Y-11998414D01*
G01X13911189Y-11996810D01*
G01X13933027Y-11991663D01*
G01X13953766Y-11983103D01*
G01X13972877Y-11971349D01*
G01X13989872Y-11956702D01*
G01X14004317Y-11939535D01*
G01X14015844Y-11920286D01*
G01X14024158Y-11899447D01*
G01X14029046Y-11877549D01*
G01X14034560Y-11897306D01*
G01X14043555Y-11915741D01*
G01X14055736Y-11932244D01*
G01X14070700Y-11946273D01*
G01X14087955Y-11957364D01*
G01X14106930Y-11965151D01*
G01X14127002Y-11969379D01*
G01X14147507Y-11969907D01*
G01X14167769Y-11966719D01*
G01X14187121Y-11959918D01*
G01X14204924Y-11949730D01*
G01X14220590Y-11936491D01*
G01X14233605Y-11920636D01*
G01X14243537Y-11902690D01*
G01X14250060Y-11883243D01*
G01X14255746Y-11904169D01*
G01X14264585Y-11923970D01*
G01X14276368Y-11942174D01*
G01X14290813Y-11958347D01*
G01X14307576Y-11972103D01*
G01X14326257Y-11983114D01*
G01X14346411Y-11991117D01*
G01X14367557Y-11995922D01*
G01X14389190Y-11997414D01*
G01X17138804Y-11997414D01*
G01X17160811Y-11995867D01*
G01X17182305Y-11990893D01*
G01X17202754Y-11982614D01*
G01X17221653Y-11971234D01*
G01X17238538Y-11957034D01*
G01X17252989Y-11940365D01*
G01X17267708Y-11960821D01*
G01X17285448Y-11978719D01*
G01X17305772Y-11993618D01*
G01X17328179Y-12005150D01*
G01X17352115Y-12013031D01*
G01X17376991Y-12017066D01*
G01X17402191Y-12017155D01*
G01X17427094Y-12013296D01*
G01X17451086Y-12005585D01*
G01X17473574Y-11994212D01*
G01X17494003Y-11979458D01*
G01X17511870Y-11961685D01*
G01X17526732Y-11941335D01*
G01X17541182Y-11957738D01*
G01X17558003Y-11971701D01*
G01X17576788Y-11982883D01*
G01X17597080Y-11991014D01*
G01X17618388Y-11995897D01*
G01X17640196Y-11997414D01*
G01X17660810Y-11997414D01*
G01X17684061Y-11995674D01*
G01X17706703Y-11990111D01*
G01X17728113Y-11980879D01*
G01X17747700Y-11968230D01*
G01X17764924Y-11952515D01*
G01X17779310Y-11934167D01*
G01X17790461Y-11913691D01*
G01X17798071Y-11891652D01*
G01X17801929Y-11868658D01*
G01X17801929Y-11845342D01*
G01X17798071Y-11822348D01*
G01X17790461Y-11800309D01*
G01X17779310Y-11779833D01*
G01X17764924Y-11761485D01*
G01X17747700Y-11745770D01*
G01X17728113Y-11733121D01*
G01X17706703Y-11723889D01*
G01X17684061Y-11718326D01*
G01X17660810Y-11716586D01*
G01X17640196Y-11716586D01*
G01X17618352Y-11718108D01*
G01X17597010Y-11723008D01*
G01X17576690Y-11731166D01*
G01X17557885Y-11742383D01*
G01X17541052Y-11756388D01*
G01X17526602Y-11772840D01*
G01X17511732Y-11752541D01*
G01X17493872Y-11734817D01*
G01X17473459Y-11720104D01*
G01X17450997Y-11708764D01*
G01X17427038Y-11701076D01*
G01X17402171Y-11697230D01*
G01X17377009Y-11697319D01*
G01X17352170Y-11701342D01*
G01X17328266Y-11709199D01*
G01X17305885Y-11720698D01*
G01X17285577Y-11735555D01*
G01X17267843Y-11753405D01*
G01X17253118Y-11773809D01*
G01X17238666Y-11757093D01*
G01X17221771Y-11742850D01*
G01X17202850Y-11731435D01*
G01X17182373Y-11723129D01*
G01X17160847Y-11718138D01*
G01X17138804Y-11716586D01*
G01X14389190Y-11716586D01*
G01X14367533Y-11718081D01*
G01X14346365Y-11722897D01*
G01X14326192Y-11730918D01*
G01X14307497Y-11741953D01*
G01X14290725Y-11755737D01*
G01X14276280Y-11771942D01*
G01X14264504Y-11790179D01*
G01X14255680Y-11810014D01*
G01X14250019Y-11830972D01*
G01X14243451Y-11811502D01*
G01X14233464Y-11793543D01*
G01X14220389Y-11777692D01*
G01X14204658Y-11764471D01*
G01X14186793Y-11754319D01*
G01X14167384Y-11747571D01*
G01X14147074Y-11744451D01*
G01X14126534Y-11745063D01*
G01X14106446Y-11749385D01*
G01X14087472Y-11757275D01*
G01X14070242Y-11768472D01*
G01X14055326Y-11782605D01*
G01X14043217Y-11799207D01*
G01X14034316Y-11817727D01*
G01X14028917Y-11837554D01*
G01X14023918Y-11815785D01*
G01X14015530Y-11795084D01*
G01X14003966Y-11775975D01*
G01X13989518Y-11758941D01*
G01X13972552Y-11744413D01*
G01X13953497Y-11732760D01*
G01X13932835Y-11724276D01*
G01X13911089Y-11719175D01*
G01X13888810Y-11717586D01*
G01X12380185Y-11717586D01*
G01X12356934Y-11719326D01*
G01X12334292Y-11724889D01*
G01X12312882Y-11734121D01*
G01X12293295Y-11746770D01*
G01X12276071Y-11762485D01*
G01X12261685Y-11780833D01*
G01X12250534Y-11801309D01*
G01X12242924Y-11823348D01*
G01X12239066Y-11846342D01*
G01X11923414Y-11846342D01*
G01X11923414Y-8980380D01*
G01X11925380Y-8978414D01*
G01X12010526Y-8978414D01*
G01X11992795Y-8990163D01*
G01X11977043Y-9004456D01*
G01X11963630Y-9020964D01*
G01X11952864Y-9039308D01*
G01X11944993Y-9059068D01*
G01X11940197Y-9079791D01*
G01X11938586Y-9101000D01*
G01X11940064Y-9121316D01*
G01X11944465Y-9141205D01*
G01X11951698Y-9160248D01*
G01X11961610Y-9178044D01*
G01X11973993Y-9194218D01*
G01X11988586Y-9208431D01*
G01X11988586Y-11451569D01*
G01X11973993Y-11465782D01*
G01X11961611Y-11481956D01*
G01X11951698Y-11499752D01*
G01X11944465Y-11518795D01*
G01X11940064Y-11538683D01*
G01X11938586Y-11559000D01*
G01X11940138Y-11581106D01*
G01X11945148Y-11602693D01*
G01X11953491Y-11623224D01*
G01X11964958Y-11642187D01*
G01X11979265Y-11659111D01*
G01X11996056Y-11673574D01*
G01X12014912Y-11685216D01*
G01X12035365Y-11693748D01*
G01X12056904Y-11698957D01*
G01X12078996Y-11700714D01*
G01X12080262Y-11700693D01*
G01X12100422Y-11699112D01*
G01X12120146Y-11694652D01*
G01X12139025Y-11687405D01*
G01X12156668Y-11677521D01*
G01X12172707Y-11665205D01*
G01X12186812Y-11650714D01*
G01X17695528Y-11650714D01*
G01X17707151Y-11651859D01*
G01X17718328Y-11655248D01*
G01X17728628Y-11660753D01*
G01X17737657Y-11668161D01*
G01X18469083Y-12399587D01*
G01X18485837Y-12413897D01*
G01X18504624Y-12425410D01*
G01X18524981Y-12433842D01*
G01X18546406Y-12438986D01*
G01X18568372Y-12440714D01*
G01X19171056Y-12440714D01*
G01X19193022Y-12438985D01*
G01X19214447Y-12433842D01*
G01X19234803Y-12425410D01*
G01X19253590Y-12413897D01*
G01X19270344Y-12399588D01*
G01X19483288Y-12186644D01*
G01X19497597Y-12169889D01*
G01X19509110Y-12151103D01*
G01X19517541Y-12130747D01*
G01X19522685Y-12109322D01*
G01X19524414Y-12087356D01*
G01X19524414Y-12087000D01*
G01X19522936Y-12066683D01*
G01X19518534Y-12046795D01*
G01X19511301Y-12027752D01*
G01X19501389Y-12009956D01*
G01X19489007Y-11993782D01*
G01X19474414Y-11979570D01*
G01X19474414Y-9348430D01*
G01X19489007Y-9334218D01*
G01X19501389Y-9318044D01*
G01X19511301Y-9300248D01*
G01X19518534Y-9281205D01*
G01X19522936Y-9261317D01*
G01X19524414Y-9241000D01*
G01X19522641Y-9218756D01*
G01X19517366Y-9197072D01*
G01X19508722Y-9176499D01*
G01X19496929Y-9157555D01*
G01X19482283Y-9140718D01*
G01X19465155Y-9126414D01*
G01X19504620Y-9126414D01*
G01X19561536Y-9183330D01*
G01X19561536Y-9722760D01*
G01X19561436Y-9726893D01*
G01X19561436Y-9789107D01*
G01X19561536Y-9793240D01*
G01X19561536Y-11037760D01*
G01X19561436Y-11041892D01*
G01X19561436Y-11104108D01*
G01X19561536Y-11108240D01*
G01X19561536Y-11743760D01*
G01X19561436Y-11747893D01*
G01X19561436Y-11810107D01*
G01X19561536Y-11814240D01*
G01X19561536Y-12124670D01*
G01X19219620Y-12466586D01*
G01X17906895Y-12466586D01*
G01X17923625Y-12450646D01*
G01X17937513Y-12432178D01*
G01X17948185Y-12411683D01*
G01X17955351Y-12389714D01*
G01X17958817Y-12366868D01*
G01X17958490Y-12343763D01*
G01X17954377Y-12321025D01*
G01X17946591Y-12299268D01*
G01X17935343Y-12279084D01*
G01X17920936Y-12261017D01*
G01X17903761Y-12245558D01*
G01X17884284Y-12233125D01*
G01X17863031Y-12224054D01*
G01X17840578Y-12218592D01*
G01X17817534Y-12216886D01*
G01X16766141Y-12216886D01*
G01X16744181Y-12218425D01*
G01X16722732Y-12223378D01*
G01X16702321Y-12231622D01*
G01X16683449Y-12242954D01*
G01X16666579Y-12257097D01*
G01X16652128Y-12273702D01*
G01X16638488Y-12254619D01*
G01X16622210Y-12237729D01*
G01X16603644Y-12223394D01*
G01X16583185Y-12211919D01*
G01X16561272Y-12203551D01*
G01X16538372Y-12198467D01*
G01X16514977Y-12196778D01*
G01X16491585Y-12198519D01*
G01X16468696Y-12203652D01*
G01X16446802Y-12212069D01*
G01X16426368Y-12223589D01*
G01X16407833Y-12237965D01*
G01X16391593Y-12254890D01*
G01X16377995Y-12274004D01*
G01X16363544Y-12257317D01*
G01X16346656Y-12243100D01*
G01X16327749Y-12231707D01*
G01X16307291Y-12223417D01*
G01X16285785Y-12218435D01*
G01X16263765Y-12216886D01*
G01X15766141Y-12216886D01*
G01X15743939Y-12218462D01*
G01X15722264Y-12223526D01*
G01X15701662Y-12231952D01*
G01X15682651Y-12243527D01*
G01X15665707Y-12257961D01*
G01X15651257Y-12274890D01*
G01X15639663Y-12293891D01*
G01X15631218Y-12314484D01*
G01X15626132Y-12336154D01*
G01X15620360Y-12316076D01*
G01X15610989Y-12297406D01*
G01X15598340Y-12280780D01*
G01X15582846Y-12266768D01*
G01X15565036Y-12255849D01*
G01X15545520Y-12248396D01*
G01X15524965Y-12244665D01*
G01X15504075Y-12244783D01*
G01X15483564Y-12248746D01*
G01X15464133Y-12256418D01*
G01X15446448Y-12267537D01*
G01X15431113Y-12281723D01*
G01X15418652Y-12298491D01*
G01X15409493Y-12317266D01*
G01X15403947Y-12337408D01*
G01X15399016Y-12315561D01*
G01X15390675Y-12294775D01*
G01X15379135Y-12275581D01*
G01X15364690Y-12258465D01*
G01X15347707Y-12243864D01*
G01X15328619Y-12232148D01*
G01X15307912Y-12223616D01*
G01X15286111Y-12218486D01*
G01X15263771Y-12216886D01*
G01X14516141Y-12216886D01*
G01X14493935Y-12218462D01*
G01X14472257Y-12223528D01*
G01X14451653Y-12231957D01*
G01X14432639Y-12243535D01*
G01X14415694Y-12257973D01*
G01X14401244Y-12274908D01*
G01X14389652Y-12293913D01*
G01X14381209Y-12314512D01*
G01X14376128Y-12336186D01*
G01X14370362Y-12316108D01*
G01X14360997Y-12297436D01*
G01X14348354Y-12280807D01*
G01X14332865Y-12266790D01*
G01X14315060Y-12255866D01*
G01X14295548Y-12248407D01*
G01X14274996Y-12244668D01*
G01X14254107Y-12244778D01*
G01X14233596Y-12248733D01*
G01X14214163Y-12256397D01*
G01X14196474Y-12267509D01*
G01X14181134Y-12281687D01*
G01X14168667Y-12298448D01*
G01X14159500Y-12317219D01*
G01X14153945Y-12337356D01*
G01X14149008Y-12315515D01*
G01X14140661Y-12294737D01*
G01X14129118Y-12275549D01*
G01X14114671Y-12258441D01*
G01X14097689Y-12243846D01*
G01X14078602Y-12232137D01*
G01X14057897Y-12223610D01*
G01X14036100Y-12218483D01*
G01X14013765Y-12216886D01*
G01X12251190Y-12216886D01*
G01X12227939Y-12218626D01*
G01X12205297Y-12224189D01*
G01X12183887Y-12233421D01*
G01X12164300Y-12246070D01*
G01X12147076Y-12261785D01*
G01X12132690Y-12280133D01*
G01X12121539Y-12300609D01*
G01X12113929Y-12322648D01*
G01X12110071Y-12345642D01*
G01X12110071Y-12368958D01*
G01X12113929Y-12391952D01*
G01X12121539Y-12413991D01*
G01X12132690Y-12434467D01*
G01X12147076Y-12452815D01*
G01X12164300Y-12468530D01*
G01X12183887Y-12481179D01*
G01X12205297Y-12490411D01*
G01X12227939Y-12495974D01*
G01X12251190Y-12497714D01*
G01X14013765Y-12497714D01*
G01X14036113Y-12496115D01*
G01X14057923Y-12490982D01*
G01X14078638Y-12482445D01*
G01X14097732Y-12470722D01*
G01X14114719Y-12456111D01*
G01X14129165Y-12438985D01*
G01X14140703Y-12419779D01*
G01X14149040Y-12398982D01*
G01X14153963Y-12377124D01*
G01X14159530Y-12397244D01*
G01X14168704Y-12415997D01*
G01X14181173Y-12432740D01*
G01X14196510Y-12446903D01*
G01X14214192Y-12458001D01*
G01X14233614Y-12465656D01*
G01X14254114Y-12469606D01*
G01X14274990Y-12469716D01*
G01X14295529Y-12465982D01*
G01X14315031Y-12458532D01*
G01X14332829Y-12447621D01*
G01X14348314Y-12433620D01*
G01X14360959Y-12417009D01*
G01X14370331Y-12398355D01*
G01X14376109Y-12378294D01*
G01X14381176Y-12399985D01*
G01X14389609Y-12420603D01*
G01X14401197Y-12439627D01*
G01X14415647Y-12456579D01*
G01X14432595Y-12471033D01*
G01X14451617Y-12482625D01*
G01X14472232Y-12491063D01*
G01X14493922Y-12496136D01*
G01X14516141Y-12497714D01*
G01X15263760Y-12497714D01*
G01X15286114Y-12496114D01*
G01X15307929Y-12490978D01*
G01X15328649Y-12482437D01*
G01X15347746Y-12470708D01*
G01X15364734Y-12456091D01*
G01X15379180Y-12438957D01*
G01X15390716Y-12419742D01*
G01X15399048Y-12398938D01*
G01X15403964Y-12377072D01*
G01X15409522Y-12397197D01*
G01X15418689Y-12415954D01*
G01X15431152Y-12432704D01*
G01X15446484Y-12446874D01*
G01X15464162Y-12457981D01*
G01X15483583Y-12465644D01*
G01X15504082Y-12469602D01*
G01X15524959Y-12469720D01*
G01X15545501Y-12465993D01*
G01X15565007Y-12458550D01*
G01X15582809Y-12447644D01*
G01X15598301Y-12433647D01*
G01X15610951Y-12417039D01*
G01X15620329Y-12398386D01*
G01X15626114Y-12378326D01*
G01X15631185Y-12400013D01*
G01X15639621Y-12420625D01*
G01X15651209Y-12439644D01*
G01X15665659Y-12456592D01*
G01X15682607Y-12471042D01*
G01X15701626Y-12482630D01*
G01X15722239Y-12491066D01*
G01X15743925Y-12496136D01*
G01X15766141Y-12497714D01*
G01X16263765Y-12497714D01*
G01X16285805Y-12496162D01*
G01X16307329Y-12491171D01*
G01X16327804Y-12482866D01*
G01X16346722Y-12471453D01*
G01X16363616Y-12457213D01*
G01X16378067Y-12440499D01*
G01X16390304Y-12457916D01*
G01X16404739Y-12473559D01*
G01X16404739Y-12615206D01*
G01X16390369Y-12618500D01*
G01X16377225Y-12625176D01*
G01X16366089Y-12634836D01*
G01X16357624Y-12646907D01*
G01X16352335Y-12660668D01*
G01X16350536Y-12675300D01*
G01X16350536Y-12875300D01*
G01X16352051Y-12888743D01*
G01X16356519Y-12901513D01*
G01X16363717Y-12912967D01*
G01X16373283Y-12922533D01*
G01X16384737Y-12929731D01*
G01X16397507Y-12934199D01*
G01X16410950Y-12935714D01*
G01X16610950Y-12935714D01*
G01X16624393Y-12934199D01*
G01X16637163Y-12929731D01*
G01X16648617Y-12922533D01*
G01X16658184Y-12912967D01*
G01X16665381Y-12901513D01*
G01X16669849Y-12888743D01*
G01X16671364Y-12875300D01*
G01X16671364Y-12675300D01*
G01X16669828Y-12661766D01*
G01X16665300Y-12648919D01*
G01X16658008Y-12637414D01*
G01X17238399Y-12637414D01*
G01X17230817Y-12646588D01*
G01X17225180Y-12657071D01*
G01X17221709Y-12668456D01*
G01X17220536Y-12680300D01*
G01X17220536Y-12880300D01*
G01X17222051Y-12893743D01*
G01X17226519Y-12906513D01*
G01X17233717Y-12917967D01*
G01X17243283Y-12927533D01*
G01X17254737Y-12934731D01*
G01X17267507Y-12939199D01*
G01X17280950Y-12940714D01*
G01X17480950Y-12940714D01*
G01X17494393Y-12939199D01*
G01X17507163Y-12934731D01*
G01X17518617Y-12927533D01*
G01X17528183Y-12917967D01*
G01X17535381Y-12906513D01*
G01X17539849Y-12893743D01*
G01X17541364Y-12880300D01*
G01X17541364Y-12850714D01*
G01X17779285Y-12850714D01*
G01X17794762Y-12860762D01*
G01X17811956Y-12867458D01*
G01X17830152Y-12870525D01*
G01X17848591Y-12869833D01*
G01X17866505Y-12865412D01*
G01X17883150Y-12857447D01*
G01X17897830Y-12846268D01*
G01X17909935Y-12832341D01*
G01X17918961Y-12816247D01*
G01X17924531Y-12798656D01*
G01X17926414Y-12780300D01*
G01X17924531Y-12761944D01*
G01X17918961Y-12744353D01*
G01X17909935Y-12728259D01*
G01X17897830Y-12714332D01*
G01X17883150Y-12703153D01*
G01X17866505Y-12695188D01*
G01X17848591Y-12690767D01*
G01X17830152Y-12690075D01*
G01X17811956Y-12693142D01*
G01X17794762Y-12699838D01*
G01X17779285Y-12709886D01*
G01X17541364Y-12709886D01*
G01X17541364Y-12680300D01*
G01X17540191Y-12668456D01*
G01X17536720Y-12657071D01*
G01X17531083Y-12646588D01*
G01X17523501Y-12637414D01*
G01X19255000Y-12637414D01*
G01X19271663Y-12635773D01*
G01X19287686Y-12630912D01*
G01X19302453Y-12623019D01*
G01X19315397Y-12612397D01*
G01X19707347Y-12220447D01*
G01X19717969Y-12207503D01*
G01X19725862Y-12192736D01*
G01X19730723Y-12176713D01*
G01X19732364Y-12160050D01*
G01X19732364Y-11810207D01*
G01X19732264Y-11806075D01*
G01X19732264Y-11751925D01*
G01X19732364Y-11747793D01*
G01X19732364Y-11104208D01*
G01X19732264Y-11100075D01*
G01X19732264Y-11045925D01*
G01X19732364Y-11041792D01*
G01X19732364Y-9789207D01*
G01X19732264Y-9785075D01*
G01X19732264Y-9730925D01*
G01X19732364Y-9726793D01*
G01X19732364Y-9177944D01*
G01X19751586Y-9197166D01*
G01X19751586Y-12181834D01*
G01X19266834Y-12666586D01*
G01X18125000Y-12666586D01*
G01X18111263Y-12667939D01*
G01X18098054Y-12671946D01*
G01X18085880Y-12678453D01*
G01X18075210Y-12687210D01*
G01X17648834Y-13113586D01*
G01X14521000Y-13113586D01*
G01X14507263Y-13114939D01*
G01X14494054Y-13118946D01*
G01X14481880Y-13125453D01*
G01X14471210Y-13134210D01*
G01X14278834Y-13326586D01*
G01X14150000Y-13326586D01*
G01X14136557Y-13328101D01*
G01X14123787Y-13332569D01*
G01X14112333Y-13339767D01*
G01X14102767Y-13349333D01*
G01X14095569Y-13360787D01*
G01X14091101Y-13373557D01*
G01X14089586Y-13387000D01*
G01X14089586Y-13587000D01*
G01X14091101Y-13600443D01*
G01X14095569Y-13613213D01*
G01X14102767Y-13624667D01*
G01X14112333Y-13634233D01*
G01X14123787Y-13641431D01*
G01X14136557Y-13645899D01*
G01X14150000Y-13647414D01*
G01X14174586Y-13647414D01*
G01X14174586Y-13770828D01*
G01X14163928Y-13785853D01*
G01X14155916Y-13802441D01*
G01X14150774Y-13820131D01*
G01X14148644Y-13838429D01*
G01X14149586Y-13856827D01*
G01X14149586Y-13989586D01*
G01X12201504Y-13989586D01*
G01X12207414Y-13305090D01*
G01X12206046Y-13299841D01*
G01X12202225Y-13295992D01*
G01X12196986Y-13294586D01*
G37*
G54D10*
G01X20024166Y-8811586D02*
G01X19961586Y-8749006D01*
G03X19981421Y-8750414I19835J139006D01*
G01X20799579Y-8750414D01*
G03X20803586Y-8750357I-3J140419D01*
G01X20803586Y-8760620D01*
G01X20758603Y-8805603D01*
G03X20753162Y-8811586I60397J-60397D01*
G01X20024166Y-8811586D01*
G01X19374414Y-7397237D02*
G01X19389586Y-7382065D01*
G01X19389586Y-8158578D01*
G03X19430712Y-8257866I140413J-0D01*
G01X19590432Y-8417586D01*
G01X19392604Y-8417586D01*
G03X19374414Y-8298155I-75604J49586D01*
G01X19374414Y-7397237D01*
G01X19012790Y-8345210D02*
G03X18993248Y-8331414I-49790J-49790D01*
G01X19070000Y-8331414D01*
G03X19210414Y-8191000I0J140414D01*
G03X19160414Y-8083570I-140415J-1D01*
G01X19160414Y-7250558D01*
G01X19254586Y-7250090D01*
G01X19254586Y-7251000D01*
G03X19263616Y-7294733I110414J0D01*
G01X19245674Y-7312674D01*
G03X19223586Y-7366000I53326J-53326D01*
G01X19223586Y-8350000D01*
G03X19226645Y-8371260I75414J0D01*
G03X19241396Y-8417586I90355J3260D01*
G01X19085166Y-8417586D01*
G01X19012790Y-8345210D01*
G01X18789416Y-8604586D02*
G03X18797437Y-8504414I-70916J56086D01*
G01X18888834Y-8504414D01*
G01X18964210Y-8579790D01*
G03X19014000Y-8600414I49790J49790D01*
G01X19179935Y-8600414D01*
G01X19175763Y-8604586D01*
G01X18789416Y-8604586D01*
G01X18425790Y-9090790D02*
G01X18511166Y-9005414D01*
G01X18524793Y-9005414D01*
G01X18437620Y-9092586D01*
G01X18423927Y-9092586D01*
G03X18425790Y-9090790I-47927J51586D01*
G01X18593166Y-8324586D02*
G01X18399994Y-8131414D01*
G01X18469580Y-8131414D01*
G02X18511712Y-8148866I2J-59580D01*
G01X18653134Y-8290288D01*
G03X18709169Y-8324586I99289J99291D01*
G01X18593166Y-8324586D01*
G01X17989834Y-8534414D02*
G01X18272210Y-8816790D01*
G03X18322000Y-8837414I49790J49790D01*
G01X18343006Y-8837414D01*
G01X18307434Y-8872986D01*
G01X18113216Y-8872986D01*
G03X18086563Y-8802701I-90216J5986D01*
G03X18015975Y-8776859I-63563J-64299D01*
G03X17973142Y-8733498I-81975J-38141D01*
G03X17912520Y-8727175I-39142J-81502D01*
G03X17877180Y-8692563I-78520J-44825D01*
G01X17877180Y-8692563D01*
G03X17828915Y-8681729I-43180J-79437D01*
G03X17752782Y-8629771I-81915J-38271D01*
G03X17670641Y-8671586I-5782J-90229D01*
G01X17629994Y-8671586D01*
G01X17636574Y-8665006D01*
G03X17708793Y-8534414I-8574J90006D01*
G01X17989834Y-8534414D01*
G01X17933586Y-10087912D02*
G01X17540414Y-10088394D01*
G01X17540414Y-9548430D01*
G03X17590414Y-9441001I-90416J107432D01*
G03X17587674Y-9413396I-140414J0D01*
G01X17626913Y-9452636D01*
G03X17776932Y-9488932I86087J27636D01*
G03X17740636Y-9338913I-63932J63932D01*
G01X17665136Y-9263414D01*
G01X18473000Y-9263414D01*
G03X18533397Y-9238397I0J85414D01*
G01X18645380Y-9126414D01*
G01X18670267Y-9126414D01*
G03X18652134Y-9141712I81157J-114592D01*
G01X18511712Y-9282134D01*
G02X18469579Y-9299586I-42133J42133D01*
G01X18024000Y-9299586D01*
G03X17883586Y-9440000I0J-140414D01*
G03X17933586Y-9547430I140415J1D01*
G01X17933586Y-10087912D01*
G01X17547207Y-8534414D02*
G03X17538235Y-8564184I80793J-40586D01*
G01X17531834Y-8570586D01*
G01X17465095Y-8570586D01*
G03X17460776Y-8534414I-90095J7586D01*
G01X17547207Y-8534414D01*
G01X16532380Y-7662414D02*
G01X16780000Y-7662414D01*
G03X16840397Y-7637397I0J85414D01*
G01X16995397Y-7482397D01*
G03X17020414Y-7422000I-60397J60397D01*
G01X17020414Y-7157969D01*
G03X17045414Y-7088000I-85414J69969D01*
G01X17045414Y-6660414D01*
G01X17052586Y-6660414D01*
G01X17052586Y-7443000D01*
G03X17055043Y-7466163I110414J0D01*
G01X16831620Y-7689586D01*
G01X16505207Y-7689586D01*
G01X16532380Y-7662414D01*
G01X16426396Y-7526810D02*
G01X16426770Y-7435414D01*
G01X16704084Y-7435414D01*
G03X16844478Y-7295017I-118J140512D01*
G03X16794470Y-7187579I-140413J0D01*
G01X16794470Y-6660414D01*
G01X16824586Y-6660414D01*
G01X16824586Y-7088000D01*
G03X16849586Y-7157969I110414J0D01*
G01X16849586Y-7386620D01*
G01X16744620Y-7491586D01*
G01X16497000Y-7491586D01*
G03X16436603Y-7516603I0J-85414D01*
G01X16426396Y-7526810D01*
G01X20140134Y-12345962D02*
G01X18861935Y-13624161D01*
G01X18761808Y-13465444D01*
G03X18752924Y-13460586I-8808J-5556D01*
G01X17649924Y-13468586D01*
G03X17639586Y-13479000I76J-10414D01*
G01X17639586Y-13989586D01*
G01X16430414Y-13989586D01*
G01X16430414Y-13950000D01*
G03X16405414Y-13880031I-110414J0D01*
G01X16405414Y-13647414D01*
G01X16415000Y-13647414D01*
G03X16475414Y-13587000I0J60414D01*
G01X16475414Y-13497414D01*
G01X16479350Y-13497414D01*
G03X16599414Y-13412000I29650J85414D01*
G03X16479350Y-13326586I-90414J0D01*
G01X16419000Y-13326586D01*
G01X16419000Y-13326586D01*
G01X16416827Y-13326614D01*
G01X16415000Y-13326586D01*
G01X16215000Y-13326586D01*
G03X16174310Y-13342344I0J-60414D01*
G03X16136423Y-13297414I-84310J-32656D01*
G01X17710000Y-13297414D01*
G03X17759790Y-13276790I0J70414D01*
G01X18183166Y-12853414D01*
G01X18257188Y-12853414D01*
G03X18349582Y-12933377I89812J10414D01*
G03X18436094Y-12991390I84418J32377D01*
G03X18504190Y-13039482I80332J41490D01*
G03X18582689Y-13011414I12237J89582D01*
G01X18601065Y-13011414D01*
G03X18549459Y-13130577I31935J-84586D01*
G03X18670184Y-13178414I83541J34577D01*
G01X19256000Y-13178414D01*
G03X19309326Y-13156326I0J75414D01*
G01X20105326Y-12360326D01*
G03X20127414Y-12307000I-53326J53326D01*
G01X20127414Y-9119000D01*
G03X20105326Y-9065674I-75414J0D01*
G01X20039065Y-8999414D01*
G01X20729867Y-8999414D01*
G03X20794000Y-9028414I64133J56414D01*
G01X20803586Y-9028414D01*
G01X20803586Y-9041586D01*
G01X20535410Y-9041586D01*
G03X20432609Y-9144561I-13410J-89414D01*
G03X20561325Y-9212414I89391J13561D01*
G01X20803586Y-9212414D01*
G01X20803586Y-9260586D01*
G01X20507237Y-9260586D01*
G01X20419592Y-9172941D01*
G03X20267068Y-9127068I-88592J-18059D01*
G03X20312941Y-9279592I63932J-63932D01*
G01X20404317Y-9370968D01*
G03X20486000Y-9431414I81683J24968D01*
G01X20803586Y-9431414D01*
G01X20803586Y-9495586D01*
G01X20405430Y-9495586D01*
G03X20298000Y-9445586I-107431J-90415D01*
G03X20157586Y-9586000I-0J-140414D01*
G01X20157586Y-12303829D01*
G02X20140134Y-12345962I-59586J0D01*
G01X16179055Y-8960586D02*
G01X16129283Y-8960586D01*
G03X16137453Y-8953397I-52227J67586D01*
G01X16206397Y-8884453D01*
G03X16231414Y-8824056I-60397J60397D01*
G01X16231414Y-8114380D01*
G01X16485380Y-7860414D01*
G01X16867000Y-7860414D01*
G03X16927397Y-7835397I0J85414D01*
G01X17223397Y-7539397D01*
G03X17232253Y-7528996I-60397J60397D01*
G03X17273414Y-7443000I-69253J85996D01*
G01X17273414Y-6660414D01*
G01X17288610Y-6660414D01*
G01X17288642Y-7543990D01*
G02X17274911Y-7581964I-59586J77D01*
G01X17274080Y-7583001D01*
G01X17038643Y-7887194D01*
G02X16992091Y-7909586I-46551J37190D01*
G01X16520479Y-7909586D01*
G03X16421189Y-7950714I-6J-140404D01*
G01X16279768Y-8092134D01*
G03X16238642Y-8191421I99288J-99288D01*
G01X16238642Y-8900999D01*
G02X16179055Y-8960586I-59589J2D01*
G01X16062414Y-13461103D02*
G03X16154586Y-13438272I27586J86103D01*
G01X16154586Y-13587000D01*
G03X16215000Y-13647414I60414J0D01*
G01X16234586Y-13647414D01*
G01X16234586Y-13763038D01*
G03X16225414Y-13750031I-94586J-56962D01*
G01X16225414Y-13727000D01*
G03X16200397Y-13666603I-85414J0D01*
G01X16062414Y-13528620D01*
G01X16062414Y-13461103D01*
G01X16060586Y-8134207D02*
G01X16060586Y-8788676D01*
G01X16041676Y-8807586D01*
G01X15936065Y-8807586D01*
G01X15947326Y-8796326D01*
G03X15954111Y-8788540I-53326J53326D01*
G01X15979326Y-8763326D01*
G03X16001414Y-8710000I-53326J53326D01*
G01X16001414Y-8193380D01*
G01X16060586Y-8134207D01*
G01X15569470Y-9101000D02*
G03X15497530Y-8978414I-140414J0D01*
G01X16027002Y-8978414D01*
G03X15996189Y-9001714I68472J-122576D01*
G01X15954768Y-9043134D01*
G03X15913642Y-9142421I99288J-99288D01*
G01X15913642Y-10188586D01*
G01X15519470Y-10188586D01*
G01X15519470Y-9957605D01*
G03X15569464Y-9850238I-90427J107429D01*
G03X15536285Y-9759414I-140508J143D01*
G01X15639056Y-9759414D01*
G03X15699453Y-9734397I0J85414D01*
G01X15823453Y-9610397D01*
G03X15848470Y-9550000I-60397J60397D01*
G01X15848470Y-9482650D01*
G03X15763056Y-9362586I-85414J29650D01*
G03X15677642Y-9482650I0J-90414D01*
G01X15677642Y-9514620D01*
G01X15603676Y-9588586D01*
G01X15537942Y-9588586D01*
G03X15569420Y-9499997I-108949J88599D01*
G03X15569333Y-9497338I-40414J3D01*
G03X15519470Y-9392665I-140399J-2668D01*
G01X15519470Y-9208383D01*
G03X15569390Y-9103539I-90470J107382D01*
G03X15569470Y-9101000I-40334J2539D01*
G01X15978280Y-13297414D02*
G03X15953603Y-13314603I35720J-77586D01*
G01X15941620Y-13326586D01*
G01X15802000Y-13326586D01*
G03X15741586Y-13387000I0J-60414D01*
G01X15741586Y-13587000D01*
G03X15802000Y-13647414I60414J0D01*
G01X15939620Y-13647414D01*
G01X16048276Y-13756069D01*
G03X16029586Y-13833827I90724J-62931D01*
G01X16029586Y-13989586D01*
G01X15354414Y-13989586D01*
G01X15354414Y-13834000D01*
G03X15333899Y-13769895I-110414J0D01*
G01X15456380Y-13647414D01*
G01X15589000Y-13647414D01*
G03X15649414Y-13587000I0J60414D01*
G01X15649414Y-13426166D01*
G01X15778166Y-13297414D01*
G01X15978280Y-13297414D01*
G01X14823414Y-13587000D02*
G01X14823414Y-13447380D01*
G01X14851482Y-13419311D01*
G03X14917551Y-13344458I-23482J87311D01*
G03X14874423Y-13254414I-89551J12458D01*
G01X15174786Y-13254414D01*
G03X15172637Y-13258569I79214J-43586D01*
G01X15104620Y-13326586D01*
G01X14976000Y-13326586D01*
G03X14915586Y-13387000I0J-60414D01*
G01X14915586Y-13515620D01*
G01X14816881Y-13614326D01*
G03X14823414Y-13587000I-53881J27326D01*
G01X15176000Y-13647414D02*
G03X15236414Y-13587000I0J60414D01*
G01X15236414Y-13436380D01*
G01X15293431Y-13379363D01*
G03X15333214Y-13254414I-39431J81363D01*
G01X15622006Y-13254414D01*
G01X15549834Y-13326586D01*
G01X15389000Y-13326586D01*
G03X15328586Y-13387000I0J-60414D01*
G01X15328586Y-13533620D01*
G01X15183603Y-13678603D01*
G03X15158586Y-13739000I60397J-60397D01*
G01X15158586Y-13764031D01*
G03X15133586Y-13834000I85414J-69969D01*
G01X15133586Y-13989586D01*
G01X14728414Y-13989586D01*
G01X14728414Y-13850380D01*
G01X14791380Y-13787414D01*
G01X14850000Y-13787414D01*
G03X14910397Y-13762397I0J85414D01*
G01X15025380Y-13647414D01*
G01X15176000Y-13647414D01*
G01X14658000Y-13663414D02*
G03X14675632Y-13661574I0J85414D01*
G01X14607079Y-13730128D01*
G03X14586669Y-13734125I10921J-109872D01*
G01X14657380Y-13663414D01*
G01X14658000Y-13663414D01*
G01X14350000Y-13647414D02*
G03X14410414Y-13587000I0J60414D01*
G01X14410414Y-13394166D01*
G01X14550166Y-13254414D01*
G01X14781577Y-13254414D01*
G03X14779043Y-13255988I46423J-77586D01*
G03X14757603Y-13271603I38957J-76012D01*
G01X14702620Y-13326586D01*
G01X14563000Y-13326586D01*
G03X14502586Y-13387000I0J-60414D01*
G01X14502586Y-13576620D01*
G01X14377603Y-13701603D01*
G03X14352586Y-13762000I60397J-60397D01*
G01X14352586Y-13769031D01*
G03X14347533Y-13775700I85414J-69969D01*
G03X14345414Y-13773031I-87533J-67300D01*
G01X14345414Y-13647414D01*
G01X14350000Y-13647414D01*
G01X13146921Y-9389204D02*
G01X13338642Y-9388776D01*
G01X13338642Y-9392523D01*
G03X13288586Y-9500000I90359J-107478D01*
G01X13288665Y-9502519D01*
G03X13320113Y-9588586I140391J2519D01*
G01X13206593Y-9588586D01*
G01X13119661Y-9501654D01*
G01X13119661Y-9398886D01*
G03X13146921Y-9389204I-16664J90136D01*
G01X12799414Y-9650000D02*
G01X12799414Y-9389980D01*
G01X12872712Y-9389816D01*
G03X12898833Y-9398886I42784J81066D01*
G01X12898833Y-9533247D01*
G03X12970711Y-9636717I110414J0D01*
G01X13043579Y-9709586D01*
G01X12859000Y-9709586D01*
G02X12799414Y-9650000I0J59586D01*
G01X12196986Y-13294586D02*
G01X11690414Y-13295243D01*
G01X11690414Y-8775000D01*
G02X11750000Y-8715414I59586J0D01*
G01X15679054Y-8715414D01*
G03X15819470Y-8574998I6J140410D01*
G01X15819391Y-8572481D01*
G03X15769470Y-8467616I-140390J-2519D01*
G01X15769470Y-7779832D01*
G01X15960222Y-7779117D01*
G03X16004306Y-7790414I44084J80367D01*
G01X16162793Y-7790414D01*
G01X15865603Y-8087603D01*
G03X15850586Y-8188103I60397J-60397D01*
G01X15850586Y-8678763D01*
G01X15840674Y-8688674D01*
G03X15833889Y-8696460I53326J-53326D01*
G01X15789763Y-8740586D01*
G01X11878000Y-8740586D01*
G03X11824674Y-8762674I0J-75414D01*
G01X11724674Y-8862674D01*
G03X11702586Y-8916000I53326J-53326D01*
G01X11702586Y-12488000D01*
G03X11724674Y-12541326I75414J0D01*
G01X12139408Y-12956059D01*
G03X12291932Y-13001932I88592J18059D01*
G03X12246059Y-12849408I-63932J63932D01*
G01X11853414Y-12456763D01*
G01X11853414Y-12441207D01*
G01X12135603Y-12723397D01*
G03X12196000Y-12748414I60397J60397D01*
G01X13726204Y-12748414D01*
G03X13879414Y-12663000I52796J85414D01*
G03X13726204Y-12577586I-100414J0D01*
G01X12231380Y-12577586D01*
G01X11923414Y-12269620D01*
G01X11923414Y-8980380D01*
G01X11925380Y-8978414D01*
G01X12010526Y-8978414D01*
G03X11938586Y-9101000I68474J-122586D01*
G03X11988586Y-9208431I140413J-1D01*
G01X11988586Y-11451569D01*
G03X11938586Y-11559000I90414J-107431D01*
G03X12078996Y-11700714I140465J-1244D01*
G01X12080262Y-11700693D01*
G03X12186812Y-11650714I-871J140422D01*
G01X17695528Y-11650714D01*
G02X17737657Y-11668161I-1J-59589D01*
G01X18469083Y-12399587D01*
G03X18568372Y-12440714I99286J99281D01*
G01X19171056Y-12440714D01*
G03X19270344Y-12399588I0J140413D01*
G01X19483288Y-12186644D01*
G03X19524414Y-12087356I-99289J99288D01*
G01X19524414Y-12087000D01*
G03X19474414Y-11979570I-140415J-1D01*
G01X19474414Y-9348430D01*
G03X19524414Y-9241000I-90415J107431D01*
G03X19465155Y-9126414I-140414J0D01*
G01X19504620Y-9126414D01*
G01X19561536Y-9183330D01*
G01X19561536Y-9722760D01*
G03X19561436Y-9726893I85314J-4132D01*
G01X19561436Y-9789107D01*
G03X19561536Y-9793240I85414J0D01*
G01X19561536Y-11037760D01*
G03X19561436Y-11041892I85314J-4132D01*
G01X19561436Y-11104108D01*
G03X19561536Y-11108240I85414J0D01*
G01X19561536Y-11743760D01*
G03X19561436Y-11747893I85314J-4132D01*
G01X19561436Y-11810107D01*
G03X19561536Y-11814240I85414J0D01*
G01X19561536Y-12124670D01*
G01X19219620Y-12466586D01*
G01X17906895Y-12466586D01*
G03X17817534Y-12216886I-88171J109286D01*
G01X16766141Y-12216886D01*
G03X16652128Y-12273702I-1191J-140414D01*
G03X16514977Y-12196778I-136975J-83490D01*
G03X16377995Y-12274004I176J-160414D01*
G03X16263765Y-12216886I-113045J-83296D01*
G01X15766141Y-12216886D01*
G03X15626132Y-12336154I-1191J-140414D01*
G03X15403947Y-12337408I-110977J-21038D01*
G03X15263771Y-12216886I-139003J-19893D01*
G01X14516141Y-12216886D01*
G03X14376128Y-12336186I-1191J-140414D01*
G03X14153945Y-12337356I-110984J-21006D01*
G03X14013765Y-12216886I-138995J-19944D01*
G01X12251190Y-12216886D01*
G03X12251190Y-12497714I-1185J-140414D01*
G01X14013765Y-12497714D01*
G03X14153963Y-12377124I1185J140414D01*
G03X14376109Y-12378294I111181J19932D01*
G03X14516141Y-12497714I138841J20994D01*
G01X15263760Y-12497714D01*
G03X15403964Y-12377072I1184J140414D01*
G03X15626114Y-12378326I111191J19880D01*
G03X15766141Y-12497714I138836J21026D01*
G01X16263765Y-12497714D01*
G03X16378067Y-12440499I1185J140414D01*
G03X16404739Y-12473559I137086J83307D01*
G01X16404739Y-12615206D01*
G03X16350536Y-12675300I6211J-60094D01*
G01X16350536Y-12875300D01*
G03X16410950Y-12935714I60414J0D01*
G01X16610950Y-12935714D01*
G03X16671364Y-12875300I0J60414D01*
G01X16671364Y-12675300D01*
G03X16658008Y-12637414I-60414J0D01*
G01X17238399Y-12637414D01*
G03X17220536Y-12680300I42551J-42886D01*
G01X17220536Y-12880300D01*
G03X17280950Y-12940714I60414J0D01*
G01X17480950Y-12940714D01*
G03X17541364Y-12880300I0J60414D01*
G01X17541364Y-12850714D01*
G01X17779285Y-12850714D01*
G03X17926414Y-12780300I56715J70414D01*
G03X17779285Y-12709886I-90414J0D01*
G01X17541364Y-12709886D01*
G01X17541364Y-12680300D01*
G03X17523501Y-12637414I-60414J0D01*
G01X19255000Y-12637414D01*
G03X19315397Y-12612397I0J85414D01*
G01X19707347Y-12220447D01*
G03X19732364Y-12160050I-60397J60397D01*
G01X19732364Y-11810207D01*
G03X19732264Y-11806075I-85414J0D01*
G01X19732264Y-11751925D01*
G03X19732364Y-11747793I-85314J4132D01*
G01X19732364Y-11104208D01*
G03X19732264Y-11100075I-85414J0D01*
G01X19732264Y-11045925D01*
G03X19732364Y-11041792I-85314J4132D01*
G01X19732364Y-9789207D01*
G03X19732264Y-9785075I-85414J0D01*
G01X19732264Y-9730925D01*
G03X19732364Y-9726793I-85314J4132D01*
G01X19732364Y-9177944D01*
G01X19751586Y-9197166D01*
G01X19751586Y-12181834D01*
G01X19266834Y-12666586D01*
G01X18125000Y-12666586D01*
G03X18075210Y-12687210I0J-70414D01*
G01X17648834Y-13113586D01*
G01X14521000Y-13113586D01*
G03X14471210Y-13134210I0J-70414D01*
G01X14278834Y-13326586D01*
G01X14150000Y-13326586D01*
G03X14089586Y-13387000I0J-60414D01*
G01X14089586Y-13587000D01*
G03X14150000Y-13647414I60414J0D01*
G01X14174586Y-13647414D01*
G01X14174586Y-13770828D01*
G03X14149586Y-13856827I84414J-71172D01*
G01X14149586Y-13989586D01*
G01X12201504Y-13989586D01*
G01X12207414Y-13305090D01*
G03X12196986Y-13294586I-10414J90D01*
G01X13888810Y-11998414D02*
G03X14029046Y-11877549I1185J140414D01*
G03X14250060Y-11883243I111105J20356D01*
G03X14389190Y-11997414I137945J26243D01*
G01X17138804Y-11997414D01*
G03X17252989Y-11940365I1191J140414D01*
G03X17526732Y-11941335I137168J83172D01*
G03X17640196Y-11997414I112273J84335D01*
G01X17660810Y-11997414D01*
G03X17660810Y-11716586I1185J140414D01*
G01X17640196Y-11716586D01*
G03X17526602Y-11772840I-1191J-140414D01*
G03X17253118Y-11773809I-136445J-84353D01*
G03X17138804Y-11716586I-113123J-83191D01*
G01X14389190Y-11716586D01*
G03X14250019Y-11830972I-1185J-140414D01*
G03X14028917Y-11837554I-109868J-26221D01*
G03X13888810Y-11717586I-138922J-20446D01*
G01X12380185Y-11717586D01*
G03X12380185Y-11998414I-1185J-140414D01*
G01X13888810Y-11998414D01*
G01X14785950Y-12674886D02*
G03X14774536Y-12686300I0J-11414D01*
G01X14774536Y-12886300D01*
G03X14785950Y-12897714I11414J0D01*
G01X14985950Y-12897714D01*
G03X14997364Y-12886300I0J11414D01*
G01X14997364Y-12686300D01*
G03X14985950Y-12674886I-11414J0D01*
G01X14785950Y-12674886D01*
G54D11*
G01X14140151Y-11757447D02*
G01X14140151Y-11754399D01*
G01X14140151Y-11956939D02*
G01X14140151Y-11959987D01*
G01X15515155Y-12257446D02*
G01X15515155Y-12254398D01*
G01X15515155Y-12456938D02*
G01X15515155Y-12459986D01*
G01X14265144Y-12257446D02*
G01X14265144Y-12254398D01*
G01X14265144Y-12456938D02*
G01X14265144Y-12459986D01*
G01X14786204Y-12786300D02*
G01X14784696Y-12786300D01*
G01X14985696Y-12786300D02*
G01X14987204Y-12786300D01*
G01X14885950Y-12886046D02*
G01X14885950Y-12887554D01*
G01X14885950Y-12686554D02*
G01X14885950Y-12685046D01*
G04 Copper End*

G04 Pad Start*
G54D12*
G01X17714000Y-10725000D03*
G01X13009247Y-9215000D03*
G54D13*
G01X21265000Y-8757000D03*
G01X21165000Y-9028000D03*
G54D14*
G01X15489000Y-13487000D03*
G54D15*
G01X14258000Y-14220000D03*
G54D13*
G01X19624000Y-6881000D03*
G54D14*
G01X16315000Y-13487000D03*
G01X15902000Y-13487000D03*
G54D12*
G01X15713056Y-10509000D03*
G01X16098056Y-7605000D03*
G54D15*
G01X14618000Y-14220000D03*
G01X16320000Y-14220300D03*
G01X16140000Y-14221000D03*
G01X15244000Y-14221000D03*
G54D13*
G01X14265144Y-12357192D03*
G01X19401000Y-6657000D03*
G54D16*
G01X16721000Y-9291000D03*
G01X16721000Y-9241000D03*
G01X16721000Y-9191000D03*
G01X16721000Y-9141000D03*
G01X16721000Y-9091000D03*
G01X16721000Y-9041000D03*
G01X16721000Y-8991000D03*
G01X16721000Y-8941000D03*
G01X16721000Y-8891000D03*
G01X16721000Y-8841000D03*
G01X16721000Y-8791000D03*
G01X16721000Y-8741000D03*
G01X16721000Y-8691000D03*
G01X16721000Y-8641000D03*
G01X16721000Y-8591000D03*
G01X16721000Y-8541000D03*
G01X16721000Y-8491000D03*
G01X16721000Y-8441000D03*
G01X16721000Y-8391000D03*
G01X16721000Y-8341000D03*
G01X16721000Y-8291000D03*
G01X16721000Y-8241000D03*
G01X16721000Y-8191000D03*
G01X16721000Y-8141000D03*
G54D14*
G01X17380950Y-12780300D03*
G54D13*
G01X17390157Y-11857193D03*
G01X21416000Y-8207000D03*
G01X21265000Y-9308000D03*
G01X15515155Y-12357192D03*
G54D14*
G01X14250000Y-13487000D03*
G01X14885950Y-12786300D03*
G54D17*
G01X17164056Y-6107000D03*
G01X17164056Y-6307000D03*
G54D14*
G01X15076000Y-13487000D03*
G01X14663000Y-13487000D03*
G54D13*
G01X16515153Y-12357192D03*
G54D14*
G01X16510950Y-12775300D03*
G54D15*
G01X14438000Y-14220000D03*
G54D13*
G01X14140151Y-11857193D03*
G04 Pad End*

G04 Via Start*
G54D19*
G01X13779000Y-12663000D03*
G54D20*
G01X17713000Y-9425000D03*
G01X17836000Y-12780300D03*
G01X18347000Y-12843000D03*
G01X18023000Y-8867000D03*
G01X14828000Y-13332000D03*
G01X15254000Y-13298000D03*
G01X17934000Y-8815000D03*
G01X16090000Y-13375000D03*
G01X17834000Y-8772000D03*
G01X19706699Y-12751698D03*
G01X16183000Y-8920000D03*
G01X11816000Y-12737000D03*
G01X16009000Y-12181000D03*
G01X15562000Y-9964000D03*
G01X14629000Y-13293000D03*
G01X16814056Y-7133000D03*
G01X14554000Y-12537000D03*
G01X19547000Y-10312000D03*
G01X17715000Y-9101000D03*
G01X17560000Y-10049000D03*
G01X14611000Y-13718000D03*
G01X15178000Y-12083000D03*
G01X18289000Y-8852000D03*
G01X15884000Y-9956000D03*
G01X18204000Y-12848000D03*
G01X20388000Y-8991000D03*
G01X18822000Y-8570000D03*
G01X17507000Y-8568000D03*
G01X18872000Y-13378000D03*
G01X17902500Y-8550500D03*
G01X20138000Y-11828000D03*
G01X20665000Y-9463000D03*
G01X17582000Y-9539000D03*
G01X20138000Y-11030000D03*
G01X15701000Y-13489000D03*
G01X14897000Y-12186000D03*
G01X18445000Y-9091000D03*
G01X15555000Y-9302000D03*
G01X17835000Y-9541000D03*
G01X20507000Y-8804000D03*
G01X19723000Y-10881000D03*
G01X20065000Y-8790000D03*
G01X13243000Y-9480000D03*
G01X15667000Y-12081000D03*
G01X14965000Y-13948000D03*
G01X13151000Y-13744000D03*
G01X12842000Y-9480000D03*
G01X15500000Y-13726000D03*
G01X15908000Y-9012000D03*
G01X20206000Y-9345000D03*
G54D21*
G01X15102000Y-12780000D03*
G54D20*
G01X14506000Y-12087000D03*
G01X15858000Y-9678000D03*
G01X16814056Y-6718000D03*
G01X19523000Y-9500000D03*
G01X17211000Y-13545000D03*
G01X19180000Y-7427000D03*
G01X17990000Y-12748000D03*
G01X19482074Y-8336927D03*
G01X20641000Y-9036000D03*
G01X20138000Y-10320000D03*
G01X16121000Y-13505000D03*
G01X12982000Y-12195000D03*
G01X17557000Y-13942000D03*
G01X18696000Y-12460300D03*
G01X11982000Y-13094000D03*
G01X13385000Y-12079000D03*
G54D21*
G01X14678000Y-12776000D03*
G54D20*
G01X15874000Y-9298000D03*
G01X11725612Y-8743295D03*
G01X14025000Y-13491000D03*
G01X15594000Y-13934000D03*
G01X19733000Y-11862050D03*
G01X17782000Y-12636000D03*
G01X15886000Y-13707000D03*
G01X18949000Y-12660000D03*
G01X19370000Y-7412500D03*
G01X16777000Y-12083000D03*
G01X16710000Y-13730000D03*
G01X19456000Y-8791000D03*
G01X16562000Y-7890000D03*
G01X16640000Y-13510000D03*
G01X15578000Y-9006000D03*
G01X14025000Y-13731000D03*
G01X19544000Y-11608000D03*
G01X19723000Y-9300000D03*
G01X16578000Y-7467000D03*
G01X15847000Y-8397000D03*
G01X17121000Y-12679000D03*
G01X17128000Y-12181000D03*
G01X20138000Y-9737000D03*
G01X13830000Y-13938000D03*
G01X15286000Y-13477000D03*
G01X14387000Y-13706000D03*
G01X15095000Y-13720000D03*
G01X16646000Y-13940000D03*
G01X17269026Y-6722000D03*
G01X14887000Y-12518000D03*
G01X17881000Y-10041000D03*
G01X18496500Y-8203500D03*
G01X14453000Y-13485000D03*
G01X14866000Y-13487000D03*
G01X17048000Y-6716000D03*
G01X17267000Y-7392000D03*
G01X17031000Y-7215000D03*
G01X13797000Y-12144000D03*
G01X16034000Y-12747000D03*
G01X12556000Y-13361000D03*
G01X15058000Y-13244000D03*
G01X12493000Y-12080000D03*
G01X15813000Y-7859000D03*
G01X19728000Y-9833000D03*
G01X16554000Y-7675000D03*
G01X20739000Y-9228000D03*
G01X12386000Y-13869000D03*
G01X16294000Y-12082000D03*
G01X15251000Y-12539000D03*
G01X13983000Y-13253000D03*
G01X16062000Y-8603000D03*
G01X16509000Y-13412000D03*
G01X17747000Y-8720000D03*
G01X18586000Y-8508000D03*
G01X20522000Y-9131000D03*
G01X18718500Y-8548500D03*
G01X20331000Y-9191000D03*
G01X17375000Y-8563000D03*
G01X19317000Y-8368000D03*
G01X17628000Y-8575000D03*
G01X12228000Y-12938000D03*
G01X18633000Y-13096000D03*
G01X18314000Y-8587000D03*
G01X18720000Y-13011000D03*
G01X19251000Y-13011000D03*
G01X18434000Y-12901000D03*
G01X18516426Y-12949900D03*
G01X15763056Y-9453000D03*
G04 Via End*

G04 Track Start*
G54D21*
G01X17163000Y-7443000D02*
G01X17163000Y-6327944D01*
G54D22*
G01X16721000Y-9191000D02*
G01X17091000Y-9191000D01*
G54D23*
G01X16583153Y-12552000D02*
G01X16510950Y-12624203D01*
G01X19646950Y-9789207D02*
G01X19646950Y-11041792D01*
G01X16077056Y-8893000D02*
G01X16146000Y-8824056D01*
G01X11838000Y-12305000D02*
G01X11838000Y-8945000D01*
G01X13779000Y-12663000D02*
G01X12196000Y-12663000D01*
G01X19646950Y-9147950D02*
G01X19646950Y-9726793D01*
G01X16450000Y-7775000D02*
G01X16867000Y-7775000D01*
G01X19646950Y-11104208D02*
G01X19646950Y-11747793D01*
G01X19646850Y-11041892D02*
G01X19646850Y-11104108D01*
G01X16146000Y-8824056D02*
G01X16146000Y-8079000D01*
G01X11838000Y-8945000D02*
G01X11890000Y-8893000D01*
G01X17104000Y-9178000D02*
G01X18473000Y-9178000D01*
G01X17163000Y-7479000D02*
G01X17163000Y-7443000D01*
G01X19646850Y-11747893D02*
G01X19646850Y-11810107D01*
G01X19646950Y-12160050D02*
G01X19255000Y-12552000D01*
G01X19646850Y-9726893D02*
G01X19646850Y-9789107D01*
G01X19646950Y-11810207D02*
G01X19646950Y-12160050D01*
G54D22*
G01X16515153Y-12771097D02*
G01X16510950Y-12775300D01*
G54D23*
G01X18473000Y-9178000D02*
G01X18610000Y-9041000D01*
G01X19540000Y-9041000D02*
G01X19646950Y-9147950D01*
G01X16583153Y-12552000D02*
G01X16567000Y-12552000D01*
G01X16867000Y-7775000D02*
G01X17163000Y-7479000D01*
G54D22*
G01X17067000Y-9141000D02*
G01X17104000Y-9178000D01*
G54D21*
G01X16515153Y-12500153D02*
G01X16515153Y-12357192D01*
G54D23*
G01X16146000Y-8079000D02*
G01X16450000Y-7775000D01*
G01X17174000Y-6316944D02*
G01X17164056Y-6307000D01*
G01X16510950Y-12624203D02*
G01X16510950Y-12775300D01*
G01X19255000Y-12552000D02*
G01X16583153Y-12552000D01*
G54D22*
G01X16721000Y-9141000D02*
G01X17067000Y-9141000D01*
G01X17091000Y-9191000D02*
G01X17104000Y-9178000D01*
G54D21*
G01X17163000Y-6327944D02*
G01X17174000Y-6316944D01*
G54D23*
G01X16567000Y-12552000D02*
G01X16515153Y-12500153D01*
G01X11890000Y-8893000D02*
G01X16077056Y-8893000D01*
G01X12196000Y-12663000D02*
G01X11838000Y-12305000D01*
G01X18610000Y-9041000D02*
G01X19540000Y-9041000D01*
G54D21*
G01X16515153Y-12357192D02*
G01X16515153Y-12771097D01*
G54D22*
G01X16721000Y-9291000D02*
G01X17579000Y-9291000D01*
G54D24*
G01X17579000Y-9291000D02*
G01X17713000Y-9425000D01*
G54D22*
G01X16723400Y-8943400D02*
G01X16721000Y-8941000D01*
G01X19900800Y-12265200D02*
G01X19900800Y-9138800D01*
G01X19616000Y-8854000D01*
G01X18426000Y-8854000D02*
G01X18336600Y-8943400D01*
G01X18364000Y-12843000D02*
G01X18366000Y-12841000D01*
G01X18347000Y-12843000D02*
G01X18364000Y-12843000D01*
G01X19325000Y-12841000D02*
G01X19900800Y-12265200D01*
G01X18336600Y-8943400D02*
G01X16723400Y-8943400D01*
G01X19616000Y-8854000D02*
G01X18426000Y-8854000D01*
G01X18366000Y-12841000D02*
G01X19325000Y-12841000D01*
G01X17836000Y-12780300D02*
G01X17380950Y-12780300D01*
G54D23*
G01X14260000Y-13841000D02*
G01X14260000Y-13602250D01*
G01X14259000Y-13842000D02*
G01X14260000Y-13841000D01*
G54D22*
G01X14250000Y-13487000D02*
G01X14250000Y-13455000D01*
G54D21*
G01X14260000Y-14218000D02*
G01X14260000Y-13843000D01*
G54D22*
G01X18482000Y-8935000D02*
G01X18376000Y-9041000D01*
G01X19589000Y-8935000D02*
G01X18482000Y-8935000D01*
G01X17678000Y-13184000D02*
G01X18125000Y-12737000D01*
G54D23*
G01X14250000Y-13592250D02*
G01X14250000Y-13487000D01*
G54D22*
G01X19822000Y-12211000D02*
G01X19822000Y-9168000D01*
G01X18125000Y-12737000D02*
G01X19296000Y-12737000D01*
G54D23*
G01X14260000Y-13602250D02*
G01X14250000Y-13592250D01*
G54D21*
G01X14260000Y-13843000D02*
G01X14259000Y-13842000D01*
G54D22*
G01X14521000Y-13184000D02*
G01X17678000Y-13184000D01*
G01X18376000Y-9041000D02*
G01X16721000Y-9041000D01*
G01X19296000Y-12737000D02*
G01X19822000Y-12211000D01*
G01X14250000Y-13455000D02*
G01X14521000Y-13184000D01*
G54D21*
G01X14258000Y-14220000D02*
G01X14260000Y-14218000D01*
G54D23*
G01X14235216Y-14220300D02*
G01X14232000Y-14217084D01*
G54D22*
G01X19822000Y-9168000D02*
G01X19589000Y-8935000D01*
G01X15489000Y-13487000D02*
G01X15749000Y-13227000D01*
G54D23*
G01X15489000Y-13494000D02*
G01X15489000Y-13487000D01*
G54D22*
G01X17710000Y-13227000D02*
G01X18154000Y-12783000D01*
G01X15749000Y-13227000D02*
G01X17710000Y-13227000D01*
G01X19324000Y-12783000D02*
G01X19861000Y-12246000D01*
G01X19861000Y-9152000D02*
G01X19603000Y-8894000D01*
G54D23*
G01X15244000Y-13834000D02*
G01X15244000Y-13739000D01*
G54D22*
G01X18154000Y-12783000D02*
G01X19324000Y-12783000D01*
G01X18455000Y-8894000D02*
G01X18358000Y-8991000D01*
G01X16721000Y-8991000D01*
G54D21*
G01X15244000Y-14221000D02*
G01X15244000Y-13834000D01*
G54D23*
G01X15244000Y-13739000D02*
G01X15489000Y-13494000D01*
G54D22*
G01X19861000Y-12246000D02*
G01X19861000Y-9152000D01*
G01X19603000Y-8894000D02*
G01X18455000Y-8894000D01*
G01X16723400Y-8893400D02*
G01X16721000Y-8891000D01*
G54D23*
G01X14622000Y-13578000D02*
G01X14658000Y-13578000D01*
G54D22*
G01X17996600Y-8893400D02*
G01X16723400Y-8893400D01*
G54D23*
G01X14438000Y-13762000D02*
G01X14622000Y-13578000D01*
G54D21*
G01X14438000Y-13839000D02*
G01X14438000Y-14220000D01*
G54D22*
G01X18023000Y-8867000D02*
G01X17996600Y-8893400D01*
G54D23*
G01X14438000Y-13839000D02*
G01X14438000Y-13762000D01*
G01X14818000Y-13332000D02*
G01X14663000Y-13487000D01*
G01X14828000Y-13332000D02*
G01X14818000Y-13332000D01*
G01X14850000Y-13702000D02*
G01X14756000Y-13702000D01*
G01X14618000Y-13840000D01*
G01X15254000Y-13298000D02*
G01X15087000Y-13465000D01*
G54D22*
G01X17934000Y-8815000D02*
G01X17905600Y-8843400D01*
G54D23*
G01X15065000Y-13487000D02*
G01X14850000Y-13702000D01*
G54D22*
G01X16723400Y-8843400D02*
G01X16721000Y-8841000D01*
G01X17905600Y-8843400D02*
G01X16723400Y-8843400D01*
G54D23*
G01X15076000Y-13487000D02*
G01X15065000Y-13487000D01*
G54D21*
G01X14618000Y-13840000D02*
G01X14618000Y-14220000D01*
G54D23*
G01X16140000Y-13818000D02*
G01X16140000Y-13727000D01*
G54D21*
G01X16140000Y-13820000D02*
G01X16140000Y-14221000D01*
G54D23*
G01X15902000Y-13489000D02*
G01X15902000Y-13487000D01*
G54D22*
G01X17817600Y-8793400D02*
G01X16723400Y-8793400D01*
G54D23*
G01X16014000Y-13375000D02*
G01X15902000Y-13487000D01*
G54D21*
G01X16139000Y-13819000D02*
G01X16140000Y-13820000D01*
G54D23*
G01X16140000Y-13727000D02*
G01X15902000Y-13489000D01*
G01X16138000Y-14211680D02*
G01X16129380Y-14220300D01*
G01X16139000Y-13819000D02*
G01X16140000Y-13818000D01*
G01X16090000Y-13375000D02*
G01X16014000Y-13375000D01*
G54D22*
G01X17834000Y-8777000D02*
G01X17817600Y-8793400D01*
G01X17834000Y-8772000D02*
G01X17834000Y-8777000D01*
G01X16723400Y-8793400D02*
G01X16721000Y-8791000D01*
G01X17855000Y-8503000D02*
G01X17252000Y-8503000D01*
G54D23*
G01X15515155Y-12357192D02*
G01X15515155Y-12400845D01*
G54D22*
G01X17252000Y-8503000D02*
G01X17214000Y-8541000D01*
G01X20006000Y-8777000D02*
G01X19950290Y-8777000D01*
G01X19389900Y-7418900D02*
G01X19389900Y-8142205D01*
G54D23*
G01X15092347Y-12780000D02*
G01X15086047Y-12786300D01*
G54D22*
G01X19389900Y-8171352D02*
G01X19389900Y-8175189D01*
G54D23*
G01X14651000Y-12743048D02*
G01X14651000Y-12749000D01*
G54D22*
G01X18496500Y-8203500D02*
G01X18424100Y-8131100D01*
G01X18204000Y-8852000D02*
G01X17902500Y-8550500D01*
G54D25*
G01X15578000Y-9001000D02*
G01X15578000Y-9006000D01*
G01X18557000Y-8980000D02*
G01X19572000Y-8980000D01*
G54D22*
G01X19160100Y-7437900D02*
G01X19171000Y-7427000D01*
G54D25*
G01X18879000Y-8579000D02*
G01X19578000Y-8579000D01*
G54D22*
G01X19395000Y-8197906D02*
G01X19395000Y-8249853D01*
G54D25*
G01X19578000Y-8579000D02*
G01X20152000Y-9153000D01*
G54D22*
G01X19388733Y-8143474D02*
G01X19389900Y-8171352D01*
G01X18517000Y-8224000D02*
G01X18532000Y-8224000D01*
G54D23*
G01X14678000Y-12776000D02*
G01X14688300Y-12786300D01*
G54D22*
G01X17273900Y-8131100D02*
G01X17273000Y-8132000D01*
G01X17755000Y-8584000D02*
G01X17648000Y-8691000D01*
G01X18580290Y-8217000D02*
G01X18696290Y-8333000D01*
G01X17648000Y-8691000D02*
G01X16721000Y-8691000D01*
G54D23*
G01X15086047Y-12786300D02*
G01X14885950Y-12786300D01*
G54D22*
G01X19160100Y-8068100D02*
G01X19160100Y-7437900D01*
G01X19456000Y-8791000D02*
G01X19420000Y-8791000D01*
G01X19383500Y-7412500D02*
G01X19389900Y-7418900D01*
G01X19171000Y-7427000D02*
G01X19180000Y-7427000D01*
G01X19395000Y-8249853D02*
G01X19482074Y-8336927D01*
G54D23*
G01X15251000Y-12621347D02*
G01X15102000Y-12770347D01*
G54D22*
G01X16723000Y-9243000D02*
G01X16721000Y-9241000D01*
G54D25*
G01X12007000Y-8954000D02*
G01X15531000Y-8954000D01*
G54D23*
G01X15102000Y-12770347D02*
G01X15102000Y-12780000D01*
G54D22*
G01X19210100Y-8118100D02*
G01X19160100Y-8068100D01*
G01X16721000Y-9091000D02*
G01X16980000Y-9091000D01*
G54D23*
G01X14554000Y-12537000D02*
G01X14444952Y-12537000D01*
G54D25*
G01X18870000Y-8570000D02*
G01X18879000Y-8579000D01*
G54D22*
G01X18503571Y-9289320D02*
G01X18480417Y-9298910D01*
G01X19950290Y-8777000D02*
G01X19510217Y-8336927D01*
G54D23*
G01X15377000Y-12539000D02*
G01X15251000Y-12539000D01*
G01X15102000Y-12780000D02*
G01X15092347Y-12780000D01*
G54D22*
G01X19261000Y-8443000D02*
G01X19229000Y-8411000D01*
G01X18289000Y-8852000D02*
G01X18204000Y-8852000D01*
G01X18256000Y-9243000D02*
G01X16723000Y-9243000D01*
G01X20065000Y-8790000D02*
G01X20019000Y-8790000D01*
G54D25*
G01X15531000Y-8954000D02*
G01X15578000Y-9001000D01*
G54D22*
G01X19523000Y-9500000D02*
G01X19523000Y-9331850D01*
G01X18480417Y-9298910D02*
G01X18311910Y-9298910D01*
G01X19482074Y-8336927D02*
G01X19376000Y-8443000D01*
G54D25*
G01X11939000Y-9260000D02*
G01X11929000Y-9250000D01*
G54D22*
G01X17902500Y-8550500D02*
G01X17869000Y-8584000D01*
G01X19229000Y-8411000D02*
G01X19158000Y-8411000D01*
G54D21*
G01X14265950Y-12173300D02*
G01X14265950Y-12356386D01*
G54D22*
G01X18693390Y-9100900D02*
G01X18520976Y-9273314D01*
G54D25*
G01X11929000Y-9250000D02*
G01X11929000Y-9032000D01*
G54D23*
G01X14688300Y-12786300D02*
G01X14885950Y-12786300D01*
G54D22*
G01X18696290Y-8333000D02*
G01X19146000Y-8333000D01*
G54D21*
G01X15403000Y-12539000D02*
G01X15377000Y-12539000D01*
G54D23*
G01X14265950Y-12356386D02*
G01X14265144Y-12357192D01*
G54D22*
G01X19510217Y-8336927D02*
G01X19482074Y-8336927D01*
G01X19541000Y-9313850D02*
G01X19541000Y-9141290D01*
G01X17869000Y-8584000D02*
G01X17755000Y-8584000D01*
G54D21*
G01X14444952Y-12537000D02*
G01X14314000Y-12537000D01*
G54D22*
G01X19523000Y-9331850D02*
G01X19541000Y-9313850D01*
G54D23*
G01X14554000Y-12646048D02*
G01X14651000Y-12743048D01*
G54D22*
G01X19500610Y-9100900D02*
G01X18693390Y-9100900D01*
G54D25*
G01X19725000Y-11914950D02*
G01X19724000Y-11913950D01*
G01X20152000Y-9153000D02*
G01X20152000Y-9257000D01*
G54D22*
G01X19541000Y-9141290D02*
G01X19500610Y-9100900D01*
G01X17902500Y-8550500D02*
G01X17855000Y-8503000D01*
G01X18496500Y-8203500D02*
G01X18517000Y-8224000D01*
G01X19390068Y-8175356D02*
G01X19390563Y-8187194D01*
G54D23*
G01X19738000Y-12196000D02*
G01X19274000Y-12660000D01*
G54D22*
G01X19402000Y-8809000D02*
G01X18332000Y-8809000D01*
G54D21*
G01X14140151Y-12047501D02*
G01X14265950Y-12173300D01*
G01X14140151Y-11857193D02*
G01X14140151Y-12047501D01*
G54D22*
G01X19146000Y-8333000D02*
G01X19210100Y-8268900D01*
G01X16721000Y-8541000D02*
G01X16722000Y-8540000D01*
G54D23*
G01X14651000Y-12749000D02*
G01X14678000Y-12776000D01*
G54D22*
G01X18332000Y-8809000D02*
G01X18289000Y-8852000D01*
G01X18424100Y-8131100D02*
G01X17273900Y-8131100D01*
G54D25*
G01X18822000Y-8570000D02*
G01X18870000Y-8570000D01*
G54D22*
G01X19420000Y-8791000D02*
G01X19402000Y-8809000D01*
G54D25*
G01X11939000Y-9305000D02*
G01X11939000Y-9260000D01*
G01X11929000Y-9032000D02*
G01X12007000Y-8954000D01*
G54D22*
G01X19390563Y-8187194D02*
G01X19395000Y-8197906D01*
G01X18311910Y-9298910D02*
G01X18256000Y-9243000D01*
G01X19210100Y-8268900D02*
G01X19210100Y-8118100D01*
G54D24*
G01X18445000Y-9091000D02*
G01X16980000Y-9091000D01*
G54D23*
G01X19274000Y-12660000D02*
G01X18949000Y-12660000D01*
G54D22*
G01X18539000Y-8217000D02*
G01X18580290Y-8217000D01*
G54D25*
G01X18445000Y-9091000D02*
G01X18446000Y-9091000D01*
G01X19572000Y-8980000D02*
G01X19724000Y-9132000D01*
G54D22*
G01X19376000Y-8443000D02*
G01X19261000Y-8443000D01*
G01X19389900Y-8142205D02*
G01X19388733Y-8143474D01*
G54D21*
G01X14314000Y-12537000D02*
G01X14265144Y-12488144D01*
G54D22*
G01X20019000Y-8790000D02*
G01X20006000Y-8777000D01*
G01X18520976Y-9273314D02*
G01X18503571Y-9289320D01*
G54D21*
G01X15515155Y-12400845D02*
G01X15515155Y-12426845D01*
G54D25*
G01X18446000Y-9091000D02*
G01X18557000Y-8980000D01*
G54D22*
G01X18532000Y-8224000D02*
G01X18539000Y-8217000D01*
G54D23*
G01X14554000Y-12537000D02*
G01X14554000Y-12646048D01*
G54D22*
G01X19370000Y-7412500D02*
G01X19383500Y-7412500D01*
G01X17214000Y-8541000D02*
G01X16721000Y-8541000D01*
G54D21*
G01X14265144Y-12488144D02*
G01X14265144Y-12357192D01*
G54D23*
G01X19738000Y-11942050D02*
G01X19738000Y-12196000D01*
G54D21*
G01X15515155Y-12426845D02*
G01X15403000Y-12539000D01*
G54D23*
G01X15251000Y-12539000D02*
G01X15251000Y-12621347D01*
G01X16320000Y-13950000D02*
G01X16320000Y-13492000D01*
G01X16315000Y-13487000D01*
G01X16509000Y-13412000D02*
G01X16419000Y-13412000D01*
G54D22*
G01X16722000Y-8742000D02*
G01X16721000Y-8741000D01*
G54D21*
G01X16320000Y-14220300D02*
G01X16320000Y-13950000D01*
G54D23*
G01X16315000Y-14215077D02*
G01X16309777Y-14220300D01*
G01X16419000Y-13412000D02*
G01X16344000Y-13487000D01*
G54D22*
G01X16344000Y-13487000D02*
G01X16315000Y-13487000D01*
G01X17747000Y-8720000D02*
G01X17725000Y-8742000D01*
G01X16722000Y-8742000D01*
G54D23*
G01X20526000Y-9127000D02*
G01X20522000Y-9131000D01*
G54D22*
G01X18540000Y-8514000D02*
G01X18281000Y-8255000D01*
G01X18580000Y-8514000D02*
G01X18540000Y-8514000D01*
G01X18281000Y-8255000D02*
G01X17153000Y-8255000D01*
G01X17141400Y-8243400D01*
G01X16723400Y-8243400D02*
G01X16721000Y-8241000D01*
G54D23*
G01X21165000Y-9028000D02*
G01X21066000Y-9127000D01*
G54D22*
G01X18586000Y-8508000D02*
G01X18580000Y-8514000D01*
G54D23*
G01X21066000Y-9127000D02*
G01X20526000Y-9127000D01*
G54D22*
G01X17141400Y-8243400D02*
G01X16723400Y-8243400D01*
G54D23*
G01X21084000Y-8757000D02*
G01X20898000Y-8943000D01*
G54D22*
G01X19593000Y-8530000D02*
G01X19014000Y-8530000D01*
G01X20780000Y-8929000D02*
G01X19992000Y-8929000D01*
G01X20794000Y-8943000D02*
G01X20780000Y-8929000D01*
G01X18918000Y-8434000D02*
G01X18543000Y-8434000D01*
G01X19992000Y-8929000D02*
G01X19593000Y-8530000D01*
G54D23*
G01X20898000Y-8943000D02*
G01X20794000Y-8943000D01*
G54D22*
G01X18322000Y-8213000D02*
G01X17178000Y-8213000D01*
G01X17156000Y-8191000D02*
G01X16721000Y-8191000D01*
G01X17178000Y-8213000D02*
G01X17156000Y-8191000D01*
G01X18543000Y-8434000D02*
G01X18322000Y-8213000D01*
G54D23*
G01X21265000Y-8757000D02*
G01X21084000Y-8757000D01*
G54D22*
G01X19014000Y-8530000D02*
G01X18918000Y-8434000D01*
G01X17164000Y-8141000D02*
G01X16721000Y-8141000D01*
G01X18564000Y-8395000D02*
G01X18342000Y-8173000D01*
G54D23*
G01X21416000Y-8269000D02*
G01X20819000Y-8866000D01*
G54D22*
G01X19056000Y-8488000D02*
G01X18963000Y-8395000D01*
G54D23*
G01X21416000Y-8207000D02*
G01X21416000Y-8269000D01*
G54D22*
G01X20819000Y-8866000D02*
G01X20803000Y-8882000D01*
G01X17196000Y-8173000D02*
G01X17164000Y-8141000D01*
G01X19601000Y-8488000D02*
G01X19056000Y-8488000D01*
G01X18963000Y-8395000D02*
G01X18564000Y-8395000D01*
G01X20803000Y-8882000D02*
G01X19995000Y-8882000D01*
G01X18342000Y-8173000D02*
G01X17196000Y-8173000D01*
G01X19995000Y-8882000D02*
G01X19601000Y-8488000D01*
G01X18489000Y-8575000D02*
G01X18205000Y-8291000D01*
G54D25*
G01X20331000Y-9191000D02*
G01X20486000Y-9346000D01*
G54D22*
G01X18718500Y-8548500D02*
G01X18692000Y-8575000D01*
G01X18205000Y-8291000D02*
G01X16721000Y-8291000D01*
G01X18692000Y-8575000D02*
G01X18489000Y-8575000D01*
G54D23*
G01X20486000Y-9346000D02*
G01X21227000Y-9346000D01*
G54D21*
G01X21227000Y-9346000D02*
G01X21265000Y-9308000D01*
G54D22*
G01X17375000Y-8563000D02*
G01X17349400Y-8588600D01*
G01X16723400Y-8588600D02*
G01X16721000Y-8591000D01*
G01X17349400Y-8588600D02*
G01X16723400Y-8588600D01*
G54D23*
G01X19596000Y-6881000D02*
G01X19624000Y-6881000D01*
G54D22*
G01X17627000Y-8575000D02*
G01X17561000Y-8641000D01*
G54D25*
G01X19365000Y-7300000D02*
G01X19299000Y-7366000D01*
G01X19299000Y-8350000D01*
G01X19365000Y-7251000D02*
G01X19365000Y-7300000D01*
G01X19299000Y-8350000D02*
G01X19317000Y-8368000D01*
G54D21*
G01X19365000Y-7251000D02*
G01X19365000Y-7112000D01*
G54D22*
G01X17561000Y-8641000D02*
G01X16721000Y-8641000D01*
G01X17628000Y-8575000D02*
G01X17627000Y-8575000D01*
G54D21*
G01X19365000Y-7112000D02*
G01X19596000Y-6881000D01*
G54D23*
G01X15926000Y-8148000D02*
G01X16497000Y-7577000D01*
G54D25*
G01X20052000Y-9119000D02*
G01X19563000Y-8630000D01*
G54D23*
G01X16497000Y-7577000D02*
G01X16780000Y-7577000D01*
G54D25*
G01X19563000Y-8630000D02*
G01X19257000Y-8630000D01*
G54D21*
G01X16984000Y-6107000D02*
G01X17164056Y-6107000D01*
G54D25*
G01X15821000Y-8816000D02*
G01X11878000Y-8816000D01*
G01X19207000Y-8680000D02*
G01X18519000Y-8680000D01*
G01X15926000Y-8710000D02*
G01X15894000Y-8742000D01*
G01X11778000Y-8916000D02*
G01X11778000Y-12488000D01*
G01X18180000Y-8341000D02*
G01X16964000Y-8341000D01*
G54D23*
G01X16780000Y-7577000D02*
G01X16935000Y-7422000D01*
G54D25*
G01X20052000Y-12307000D02*
G01X20052000Y-9119000D01*
G01X19256000Y-13103000D02*
G01X20052000Y-12307000D01*
G54D21*
G01X16935000Y-7088000D02*
G01X16935000Y-6156000D01*
G54D22*
G01X16964000Y-8341000D02*
G01X16721000Y-8341000D01*
G54D25*
G01X18519000Y-8680000D02*
G01X18180000Y-8341000D01*
G54D21*
G01X16935000Y-6156000D02*
G01X16984000Y-6107000D01*
G54D23*
G01X16935000Y-7422000D02*
G01X16935000Y-6988000D01*
G54D25*
G01X11778000Y-12488000D02*
G01X12228000Y-12938000D01*
G01X18640000Y-13103000D02*
G01X19256000Y-13103000D01*
G01X15894000Y-8742000D02*
G01X15894000Y-8743000D01*
G01X19257000Y-8630000D02*
G01X19207000Y-8680000D01*
G01X15926000Y-8148000D02*
G01X15926000Y-8710000D01*
G01X15894000Y-8743000D02*
G01X15821000Y-8816000D01*
G01X18633000Y-13096000D02*
G01X18640000Y-13103000D01*
G01X11878000Y-8816000D02*
G01X11778000Y-8916000D01*
G54D22*
G01X18114000Y-8391000D02*
G01X16721000Y-8391000D01*
G01X18720000Y-13011000D02*
G01X19251000Y-13011000D01*
G01X18308000Y-8593000D02*
G01X18308000Y-8585000D01*
G01X18114000Y-8391000D01*
G01X18314000Y-8587000D02*
G01X18308000Y-8593000D01*
G01X17185400Y-8488600D02*
G01X16723400Y-8488600D01*
G01X19536000Y-8720000D02*
G01X19328000Y-8720000D01*
G01X19333100Y-12889900D02*
G01X19951000Y-12272000D01*
G01X19951000Y-9135000D01*
G01X18019000Y-8464000D02*
G01X17210000Y-8464000D01*
G01X18434000Y-12901000D02*
G01X18445100Y-12889900D01*
G01X18491432Y-12889900D01*
G01X17210000Y-8464000D02*
G01X17185400Y-8488600D01*
G01X19281000Y-8767000D02*
G01X18322000Y-8767000D01*
G01X18491532Y-12889800D02*
G01X18541321Y-12889800D01*
G01X16723400Y-8488600D02*
G01X16721000Y-8491000D01*
G01X18322000Y-8767000D02*
G01X18019000Y-8464000D01*
G01X19328000Y-8720000D02*
G01X19281000Y-8767000D01*
G01X19951000Y-9135000D02*
G01X19536000Y-8720000D01*
G01X18541421Y-12889900D02*
G01X19333100Y-12889900D01*
G01X19552000Y-8680000D02*
G01X19284000Y-8680000D01*
G01X18525327Y-12941000D02*
G01X19346000Y-12941000D01*
G54D19*
G01X13150000Y-9674000D02*
G01X13009247Y-9533247D01*
G54D23*
G01X13150000Y-9674000D02*
G01X15639056Y-9674000D01*
G54D22*
G01X17165000Y-8428000D02*
G01X17152000Y-8441000D01*
G01X18055000Y-8428000D02*
G01X17165000Y-8428000D01*
G01X18525100Y-12949900D02*
G01X18529100Y-12945900D01*
G54D23*
G01X15763056Y-9550000D02*
G01X15639056Y-9674000D01*
G54D22*
G01X20001000Y-12286000D02*
G01X20001000Y-9129000D01*
G01X19346000Y-12941000D02*
G01X20001000Y-12286000D01*
G54D21*
G01X13009247Y-9215000D02*
G01X13009247Y-9533247D01*
G54D22*
G01X20001000Y-9129000D02*
G01X19552000Y-8680000D01*
G01X18516426Y-12949900D02*
G01X18525327Y-12941000D01*
G01X18358000Y-8731000D02*
G01X18055000Y-8428000D01*
G01X19284000Y-8680000D02*
G01X19233000Y-8731000D01*
G01X17152000Y-8441000D02*
G01X16721000Y-8441000D01*
G01X18516426Y-12949900D02*
G01X18525100Y-12949900D01*
G01X19233000Y-8731000D02*
G01X18358000Y-8731000D01*
G54D23*
G01X15763056Y-9453000D02*
G01X15763056Y-9550000D01*
G54D25*
G01X19724000Y-10817000D02*
G01X19723000Y-10818000D01*
G01X19723000Y-10881000D01*
G01X19724000Y-11913950D02*
G01X19724000Y-10880000D01*
G01X19724000Y-10817000D01*
G01X19730000Y-10874000D02*
G01X19724000Y-10880000D01*
G01X19723000Y-10881000D01*
G01X19733000Y-11862050D02*
G01X19725000Y-11870050D01*
G54D23*
G01X19733000Y-11862050D02*
G01X19733000Y-11937050D01*
G01X19738000Y-11942050D01*
G54D25*
G01X19724000Y-9132000D02*
G01X19724000Y-9829000D01*
G01X19728000Y-9833000D01*
G01X19730000Y-9835000D01*
G01X19730000Y-10874000D01*
G01X20152000Y-9257000D02*
G01X20206000Y-9311000D01*
G01X20206000Y-9345000D01*
G04 Track End*

M02*

