G04 Layer: TopSilkscreenLayer*
G04 EasyEDA Pro v2.2.45.4, 2026-01-24 22:56:51*
G04 Gerber Generator version 0.3*
G04 Scale: 100 percent, Rotated: No, Reflected: No*
G04 Dimensions in millimeters*
G04 Leading zeros omitted, absolute positions, 4 integers and 5 decimals*
G04 Generated by one-click*
%FSLAX45Y45*%
%MOMM*%
%ADD10C,0.25*%
%ADD11C,0.2*%
%ADD12C,0.15*%
%ADD13C,0.2457*%
G75*


G04 Text Start*
G54D10*
G01X17297146Y-9189136D02*
G01X17308068Y-9183802D01*
G01X17324578Y-9167292D01*
G01X17324578Y-9282100D01*
G54D11*
G01X17631102Y-10233554D02*
G01X17625260Y-10222378D01*
G01X17614084Y-10211202D01*
G01X17602908Y-10205614D01*
G01X17580302Y-10205614D01*
G01X17569126Y-10211202D01*
G01X17557950Y-10222378D01*
G01X17552362Y-10233554D01*
G01X17546520Y-10250572D01*
G01X17546520Y-10278512D01*
G01X17552362Y-10295530D01*
G01X17557950Y-10306706D01*
G01X17569126Y-10317882D01*
G01X17580302Y-10323724D01*
G01X17602908Y-10323724D01*
G01X17614084Y-10317882D01*
G01X17625260Y-10306706D01*
G01X17631102Y-10295530D01*
G01X17678092Y-10205614D02*
G01X17678092Y-10323724D01*
G01X17678092Y-10323724D02*
G01X17745656Y-10323724D01*
G01X17792646Y-10205614D02*
G01X17792646Y-10323724D01*
G01X17871386Y-10205614D02*
G01X17792646Y-10284354D01*
G01X17820840Y-10256160D02*
G01X17871386Y-10323724D01*
G01X17577920Y-10397614D02*
G01X17577920Y-10515724D01*
G01X17577920Y-10397614D02*
G01X17651072Y-10397614D01*
G01X17577920Y-10453748D02*
G01X17623132Y-10453748D01*
G01X17698062Y-10397614D02*
G01X17698062Y-10515724D01*
G01X17698062Y-10397614D02*
G01X17748608Y-10397614D01*
G01X17765626Y-10403202D01*
G01X17771214Y-10408790D01*
G01X17776802Y-10419966D01*
G01X17776802Y-10431142D01*
G01X17771214Y-10442572D01*
G01X17765626Y-10448160D01*
G01X17748608Y-10453748D01*
G01X17698062Y-10453748D02*
G01X17748608Y-10453748D01*
G01X17765626Y-10459336D01*
G01X17771214Y-10464924D01*
G01X17776802Y-10476354D01*
G01X17776802Y-10493118D01*
G01X17771214Y-10504294D01*
G01X17765626Y-10509882D01*
G01X17748608Y-10515724D01*
G01X17698062Y-10515724D01*
G01X17823792Y-10419966D02*
G01X17834968Y-10414378D01*
G01X17851986Y-10397614D01*
G01X17851986Y-10515724D01*
G01X12907718Y-9406614D02*
G01X12907718Y-9524724D01*
G01X12907718Y-9406614D02*
G01X12958518Y-9406614D01*
G01X12975282Y-9412202D01*
G01X12980870Y-9417790D01*
G01X12986458Y-9428966D01*
G01X12986458Y-9440142D01*
G01X12980870Y-9451572D01*
G01X12975282Y-9457160D01*
G01X12958518Y-9462748D01*
G01X12907718Y-9462748D02*
G01X12958518Y-9462748D01*
G01X12975282Y-9468336D01*
G01X12980870Y-9473924D01*
G01X12986458Y-9485354D01*
G01X12986458Y-9502118D01*
G01X12980870Y-9513294D01*
G01X12975282Y-9518882D01*
G01X12958518Y-9524724D01*
G01X12907718Y-9524724D01*
G01X13039036Y-9434554D02*
G01X13039036Y-9428966D01*
G01X13044624Y-9417790D01*
G01X13050212Y-9412202D01*
G01X13061642Y-9406614D01*
G01X13083994Y-9406614D01*
G01X13095424Y-9412202D01*
G01X13101012Y-9417790D01*
G01X13106600Y-9428966D01*
G01X13106600Y-9440142D01*
G01X13101012Y-9451572D01*
G01X13089582Y-9468336D01*
G01X13033448Y-9524724D01*
G01X13112188Y-9524724D01*
G01X12931308Y-9613554D02*
G01X12925466Y-9602378D01*
G01X12914290Y-9591202D01*
G01X12903114Y-9585614D01*
G01X12880508Y-9585614D01*
G01X12869332Y-9591202D01*
G01X12858156Y-9602378D01*
G01X12852568Y-9613554D01*
G01X12846726Y-9630572D01*
G01X12846726Y-9658512D01*
G01X12852568Y-9675530D01*
G01X12858156Y-9686706D01*
G01X12869332Y-9697882D01*
G01X12880508Y-9703724D01*
G01X12903114Y-9703724D01*
G01X12914290Y-9697882D01*
G01X12925466Y-9686706D01*
G01X12931308Y-9675530D01*
G01X12983886Y-9613554D02*
G01X12983886Y-9607966D01*
G01X12989474Y-9596790D01*
G01X12995062Y-9591202D01*
G01X13006492Y-9585614D01*
G01X13028844Y-9585614D01*
G01X13040274Y-9591202D01*
G01X13045862Y-9596790D01*
G01X13051450Y-9607966D01*
G01X13051450Y-9619142D01*
G01X13045862Y-9630572D01*
G01X13034432Y-9647336D01*
G01X12978298Y-9703724D01*
G01X13057038Y-9703724D01*
G01X13177180Y-9624984D02*
G01X13171592Y-9641748D01*
G01X13160162Y-9652924D01*
G01X13143398Y-9658512D01*
G01X13137810Y-9658512D01*
G01X13120792Y-9652924D01*
G01X13109616Y-9641748D01*
G01X13104028Y-9624984D01*
G01X13104028Y-9619142D01*
G01X13109616Y-9602378D01*
G01X13120792Y-9591202D01*
G01X13137810Y-9585614D01*
G01X13143398Y-9585614D01*
G01X13160162Y-9591202D01*
G01X13171592Y-9602378D01*
G01X13177180Y-9624984D01*
G01X13177180Y-9652924D01*
G01X13171592Y-9681118D01*
G01X13160162Y-9697882D01*
G01X13143398Y-9703724D01*
G01X13132222Y-9703724D01*
G01X13115204Y-9697882D01*
G01X13109616Y-9686706D01*
G04 Text End*

G04 PolygonModel Start*
G54D12*
G01X13201000Y-9116000D02*
G01X13301000Y-9116000D01*
G01X13200000Y-9316000D02*
G01X13300000Y-9316000D01*
G01X17180000Y-9286500D02*
G01X17273000Y-9286500D01*
G01X17180500Y-9286500D02*
G01X17211500Y-9255500D01*
G01X17180500Y-9286500D02*
G01X17211500Y-9317500D01*
G01X13301000Y-9116000D02*
G01X13301000Y-9316000D01*
G36*
G01X12733000Y-12675000D02*
G01X13533000Y-12675000D01*
G01X13533000Y-13475000D01*
G01X12733000Y-13475000D01*
G01X12733000Y-12675000D01*
G37*
G01X17564000Y-10575000D02*
G01X17864000Y-10575000D01*
G01X17864000Y-10875000D01*
G01X17564000Y-10875000D01*
G01X17564000Y-10575000D01*
G01X12859247Y-9065000D02*
G01X13159247Y-9065000D01*
G01X13159247Y-9365000D01*
G01X12859247Y-9365000D01*
G01X12859247Y-9065000D01*
G01X17590478Y-9885000D02*
G01X17590478Y-9634000D01*
G01X17592000Y-9633000D02*
G01X17843000Y-9633000D01*
G01X17843000Y-9886000D02*
G01X17592000Y-9886000D01*
G01X17844317Y-9634000D02*
G01X17844317Y-9885000D01*
G36*
G01X17101000Y-9341000D02*
G01X17101000Y-8091000D01*
G01X16501000Y-8091000D01*
G01X16501000Y-9341000D01*
G01X17101000Y-9341000D01*
G37*

M02*

