%TF.GenerationSoftware,KiCad,Pcbnew,9.0.5*%
%TF.CreationDate,2025-10-27T19:57:08+00:00*%
%TF.ProjectId,InstallationFlex,496e7374-616c-46c6-9174-696f6e466c65,rev?*%
%TF.SameCoordinates,Original*%
%TF.FileFunction,Copper,L1,Top*%
%TF.FilePolarity,Positive*%
%FSLAX46Y46*%
G04 Gerber Fmt 4.6, Leading zero omitted, Abs format (unit mm)*
G04 Created by KiCad (PCBNEW 9.0.5) date 2025-10-27 19:57:08*
%MOMM*%
%LPD*%
G01*
G04 APERTURE LIST*
G04 Aperture macros list*
%AMRoundRect*
0 Rectangle with rounded corners*
0 $1 Rounding radius*
0 $2 $3 $4 $5 $6 $7 $8 $9 X,Y pos of 4 corners*
0 Add a 4 corners polygon primitive as box body*
4,1,4,$2,$3,$4,$5,$6,$7,$8,$9,$2,$3,0*
0 Add four circle primitives for the rounded corners*
1,1,$1+$1,$2,$3*
1,1,$1+$1,$4,$5*
1,1,$1+$1,$6,$7*
1,1,$1+$1,$8,$9*
0 Add four rect primitives between the rounded corners*
20,1,$1+$1,$2,$3,$4,$5,0*
20,1,$1+$1,$4,$5,$6,$7,0*
20,1,$1+$1,$6,$7,$8,$9,0*
20,1,$1+$1,$8,$9,$2,$3,0*%
G04 Aperture macros list end*
%TA.AperFunction,SMDPad,CuDef*%
%ADD10RoundRect,0.125000X-0.125000X-0.875000X0.125000X-0.875000X0.125000X0.875000X-0.125000X0.875000X0*%
%TD*%
%TA.AperFunction,ComponentPad*%
%ADD11C,1.800000*%
%TD*%
%TA.AperFunction,ViaPad*%
%ADD12C,0.600000*%
%TD*%
%TA.AperFunction,Conductor*%
%ADD13C,0.200000*%
%TD*%
G04 APERTURE END LIST*
D10*
%TO.P,J10,1,Pin_1*%
%TO.N,D4*%
X164880000Y-118900000D03*
%TD*%
%TO.P,J9,1,Pin_1*%
%TO.N,D3*%
X163100000Y-118900000D03*
%TD*%
%TO.P,J5,1,Pin_1*%
%TO.N,DW*%
X144410000Y-118900000D03*
%TD*%
%TO.P,J8,1,Pin_1*%
%TO.N,D2*%
X147970000Y-118900000D03*
%TD*%
%TO.P,J7,1,Pin_1*%
%TO.N,D1*%
X146180000Y-118900000D03*
%TD*%
%TO.P,J6,1,Pin_1*%
%TO.N,CL2*%
X154200000Y-118900000D03*
%TD*%
%TO.P,J11,1,Pin_1*%
%TO.N,BRIGHT*%
X172890000Y-118900000D03*
%TD*%
D11*
%TO.P,J16,1,Pin_1*%
%TO.N,GND*%
X144241940Y-101468920D03*
%TD*%
%TO.P,J3,1,Pin_1*%
%TO.N,CLK*%
X199760000Y-79420000D03*
%TD*%
%TO.P,J4,1,Pin_1*%
%TO.N,SMS*%
X175492070Y-96468930D03*
%TD*%
%TO.P,J2,1,Pin_1*%
%TO.N,GND*%
X156742050Y-101468920D03*
%TD*%
%TO.P,J1,1,Pin_1*%
%TO.N,+5V*%
X166742030Y-101468920D03*
%TD*%
%TO.P,J15,1,Pin_1*%
%TO.N,GND*%
X142992010Y-96468930D03*
%TD*%
D12*
%TO.N,D1*%
X167630000Y-113900000D03*
X147320000Y-115060000D03*
%TO.N,D2*%
X165050000Y-115190000D03*
X150780000Y-115240000D03*
%TO.N,D4*%
X158850000Y-114500000D03*
X163020000Y-114500000D03*
%TO.N,GND*%
X180740000Y-105460000D03*
X200880000Y-62790000D03*
X198850000Y-85410000D03*
X150430000Y-104040000D03*
X152450970Y-105760000D03*
X178050000Y-67310000D03*
X148533020Y-105760000D03*
%TD*%
D13*
%TO.N,D1*%
X148480000Y-113900000D02*
X167630000Y-113900000D01*
X147320000Y-115060000D02*
X148480000Y-113900000D01*
%TO.N,D2*%
X150780000Y-115240000D02*
X165000000Y-115240000D01*
X165000000Y-115240000D02*
X165050000Y-115190000D01*
%TO.N,D4*%
X158850000Y-114500000D02*
X159180000Y-114500000D01*
X159180000Y-114500000D02*
X159190000Y-114510000D01*
X163020000Y-114500000D02*
X158850000Y-114500000D01*
%TD*%
%TA.AperFunction,Conductor*%
%TO.N,GND*%
G36*
X203011206Y-61130185D02*
G01*
X203031848Y-61146819D01*
X205783181Y-63898152D01*
X205816666Y-63959475D01*
X205819500Y-63985833D01*
X205819500Y-112934167D01*
X205799815Y-113001206D01*
X205783181Y-113021848D01*
X203031848Y-115773181D01*
X202970525Y-115806666D01*
X202944167Y-115809500D01*
X182670438Y-115809500D01*
X182603039Y-115827559D01*
X182594007Y-115829980D01*
X182541148Y-115860499D01*
X182525492Y-115869537D01*
X182525487Y-115869541D01*
X181431348Y-116963681D01*
X181370025Y-116997166D01*
X181343667Y-117000000D01*
X122366452Y-117000000D01*
X122337011Y-116991355D01*
X122307025Y-116984832D01*
X122302009Y-116981077D01*
X122299413Y-116980315D01*
X122278771Y-116963681D01*
X122208619Y-116893529D01*
X122200452Y-116884519D01*
X122126962Y-116794962D01*
X122113463Y-116774756D01*
X122074269Y-116701423D01*
X122060338Y-116675356D01*
X122051039Y-116652906D01*
X122018322Y-116545042D01*
X122013584Y-116521216D01*
X122004251Y-116426452D01*
X122001912Y-116402695D01*
X122001328Y-116392343D01*
X122001315Y-116391447D01*
X122001315Y-116349304D01*
X122000674Y-116347332D01*
X122000513Y-116336201D01*
X122000613Y-116335840D01*
X122000500Y-116334401D01*
X122000500Y-114981153D01*
X146519500Y-114981153D01*
X146519500Y-115138846D01*
X146550261Y-115293489D01*
X146550264Y-115293501D01*
X146610602Y-115439172D01*
X146610609Y-115439185D01*
X146698210Y-115570288D01*
X146698213Y-115570292D01*
X146809707Y-115681786D01*
X146809711Y-115681789D01*
X146940814Y-115769390D01*
X146940827Y-115769397D01*
X147030804Y-115806666D01*
X147086503Y-115829737D01*
X147239574Y-115860185D01*
X147241153Y-115860499D01*
X147241156Y-115860500D01*
X147241158Y-115860500D01*
X147398844Y-115860500D01*
X147398845Y-115860499D01*
X147553497Y-115829737D01*
X147699179Y-115769394D01*
X147830289Y-115681789D01*
X147941789Y-115570289D01*
X148029394Y-115439179D01*
X148089737Y-115293497D01*
X148116062Y-115161153D01*
X148120638Y-115138150D01*
X148153023Y-115076239D01*
X148154515Y-115074719D01*
X148692417Y-114536819D01*
X148753740Y-114503334D01*
X148780098Y-114500500D01*
X150088059Y-114500500D01*
X150155098Y-114520185D01*
X150200853Y-114572989D01*
X150210797Y-114642147D01*
X150181772Y-114705703D01*
X150175740Y-114712181D01*
X150158213Y-114729707D01*
X150158210Y-114729711D01*
X150070609Y-114860814D01*
X150070602Y-114860827D01*
X150010264Y-115006498D01*
X150010261Y-115006510D01*
X149979500Y-115161153D01*
X149979500Y-115318846D01*
X150010261Y-115473489D01*
X150010264Y-115473501D01*
X150070602Y-115619172D01*
X150070609Y-115619185D01*
X150158210Y-115750288D01*
X150158213Y-115750292D01*
X150269707Y-115861786D01*
X150269711Y-115861789D01*
X150400814Y-115949390D01*
X150400827Y-115949397D01*
X150500060Y-115990500D01*
X150546503Y-116009737D01*
X150701153Y-116040499D01*
X150701156Y-116040500D01*
X150701158Y-116040500D01*
X150858844Y-116040500D01*
X150858845Y-116040499D01*
X151013497Y-116009737D01*
X151159179Y-115949394D01*
X151234005Y-115899397D01*
X151290875Y-115861398D01*
X151357553Y-115840520D01*
X151359766Y-115840500D01*
X164545065Y-115840500D01*
X164612104Y-115860185D01*
X164613909Y-115861366D01*
X164670821Y-115899394D01*
X164670823Y-115899395D01*
X164670827Y-115899397D01*
X164816498Y-115959735D01*
X164816503Y-115959737D01*
X164971153Y-115990499D01*
X164971156Y-115990500D01*
X164971158Y-115990500D01*
X165128844Y-115990500D01*
X165128845Y-115990499D01*
X165283497Y-115959737D01*
X165429179Y-115899394D01*
X165560289Y-115811789D01*
X165671789Y-115700289D01*
X165759394Y-115569179D01*
X165819737Y-115423497D01*
X165850500Y-115268842D01*
X165850500Y-115111158D01*
X165850500Y-115111155D01*
X165850499Y-115111153D01*
X165829684Y-115006510D01*
X165819737Y-114956503D01*
X165765888Y-114826498D01*
X165759397Y-114810827D01*
X165759390Y-114810814D01*
X165680930Y-114693391D01*
X165660052Y-114626714D01*
X165678536Y-114559333D01*
X165730515Y-114512643D01*
X165784032Y-114500500D01*
X167050234Y-114500500D01*
X167117273Y-114520185D01*
X167119125Y-114521398D01*
X167250814Y-114609390D01*
X167250827Y-114609397D01*
X167329894Y-114642147D01*
X167396503Y-114669737D01*
X167515419Y-114693391D01*
X167551153Y-114700499D01*
X167551156Y-114700500D01*
X167551158Y-114700500D01*
X167708844Y-114700500D01*
X167708845Y-114700499D01*
X167863497Y-114669737D01*
X168009179Y-114609394D01*
X168140289Y-114521789D01*
X168251789Y-114410289D01*
X168339394Y-114279179D01*
X168399737Y-114133497D01*
X168430500Y-113978842D01*
X168430500Y-113821158D01*
X168430500Y-113821155D01*
X168430499Y-113821153D01*
X168399738Y-113666510D01*
X168399737Y-113666503D01*
X168399735Y-113666498D01*
X168339397Y-113520827D01*
X168339390Y-113520814D01*
X168251789Y-113389711D01*
X168251786Y-113389707D01*
X168140292Y-113278213D01*
X168140288Y-113278210D01*
X168009185Y-113190609D01*
X168009172Y-113190602D01*
X167863501Y-113130264D01*
X167863489Y-113130261D01*
X167708845Y-113099500D01*
X167708842Y-113099500D01*
X167551158Y-113099500D01*
X167551155Y-113099500D01*
X167396510Y-113130261D01*
X167396498Y-113130264D01*
X167250827Y-113190602D01*
X167250814Y-113190609D01*
X167119125Y-113278602D01*
X167052447Y-113299480D01*
X167050234Y-113299500D01*
X148566670Y-113299500D01*
X148566654Y-113299499D01*
X148559058Y-113299499D01*
X148400943Y-113299499D01*
X148324579Y-113319961D01*
X148248214Y-113340423D01*
X148248209Y-113340426D01*
X148111290Y-113419475D01*
X148111282Y-113419481D01*
X147305339Y-114225425D01*
X147244016Y-114258910D01*
X147241850Y-114259361D01*
X147086508Y-114290261D01*
X147086498Y-114290264D01*
X146940827Y-114350602D01*
X146940814Y-114350609D01*
X146809711Y-114438210D01*
X146809707Y-114438213D01*
X146698213Y-114549707D01*
X146698210Y-114549711D01*
X146610609Y-114680814D01*
X146610602Y-114680827D01*
X146550264Y-114826498D01*
X146550261Y-114826510D01*
X146519500Y-114981153D01*
X122000500Y-114981153D01*
X122000500Y-101469999D01*
X122924994Y-101469999D01*
X122924994Y-101470000D01*
X122943019Y-101686152D01*
X122943019Y-101686154D01*
X122996597Y-101896331D01*
X122996599Y-101896335D01*
X123084247Y-102094733D01*
X123203549Y-102275877D01*
X123203551Y-102275881D01*
X123301507Y-102381283D01*
X123351209Y-102434763D01*
X123523143Y-102566993D01*
X123714605Y-102668920D01*
X123851499Y-102714710D01*
X123920300Y-102737725D01*
X123920301Y-102737725D01*
X123920304Y-102737726D01*
X124134559Y-102771511D01*
X124134564Y-102771510D01*
X124134565Y-102771511D01*
X124240681Y-102770506D01*
X124241856Y-102770500D01*
X141728144Y-102770500D01*
X141729319Y-102770506D01*
X141835434Y-102771511D01*
X141835434Y-102771510D01*
X141835441Y-102771511D01*
X142049696Y-102737726D01*
X142255395Y-102668920D01*
X142446857Y-102566993D01*
X142618791Y-102434763D01*
X142766449Y-102275880D01*
X142885751Y-102094735D01*
X142973402Y-101896332D01*
X143026981Y-101686152D01*
X143045006Y-101470000D01*
X143045006Y-101469998D01*
X145434993Y-101469998D01*
X145434993Y-101470001D01*
X145453019Y-101686155D01*
X145453020Y-101686161D01*
X145475749Y-101775322D01*
X145506601Y-101896346D01*
X145589733Y-102084511D01*
X145594259Y-102094756D01*
X145713552Y-102275880D01*
X145713567Y-102275902D01*
X145861234Y-102434786D01*
X146033177Y-102567016D01*
X146033179Y-102567017D01*
X146033183Y-102567020D01*
X146154349Y-102631518D01*
X146224649Y-102668940D01*
X146430357Y-102737740D01*
X146430360Y-102737740D01*
X146430365Y-102737742D01*
X146644606Y-102771515D01*
X146644608Y-102771515D01*
X146644620Y-102771517D01*
X146750760Y-102770505D01*
X146751941Y-102770500D01*
X154228059Y-102770500D01*
X154229239Y-102770505D01*
X154335380Y-102771517D01*
X154335418Y-102771511D01*
X154549634Y-102737742D01*
X154549637Y-102737740D01*
X154549643Y-102737740D01*
X154755351Y-102668940D01*
X154905664Y-102588925D01*
X154946816Y-102567020D01*
X154946817Y-102567019D01*
X154946823Y-102567016D01*
X155118766Y-102434786D01*
X155266433Y-102275902D01*
X155385742Y-102094754D01*
X155473399Y-101896346D01*
X155526980Y-101686159D01*
X155545007Y-101470000D01*
X155545007Y-101469998D01*
X157934993Y-101469998D01*
X157934993Y-101470001D01*
X157953019Y-101686155D01*
X157953020Y-101686161D01*
X157975749Y-101775322D01*
X158006601Y-101896346D01*
X158089733Y-102084511D01*
X158094259Y-102094756D01*
X158213552Y-102275880D01*
X158213567Y-102275902D01*
X158361234Y-102434786D01*
X158533177Y-102567016D01*
X158533179Y-102567017D01*
X158533183Y-102567020D01*
X158654349Y-102631518D01*
X158724649Y-102668940D01*
X158930357Y-102737740D01*
X158930360Y-102737740D01*
X158930365Y-102737742D01*
X159144606Y-102771515D01*
X159144608Y-102771515D01*
X159144620Y-102771517D01*
X159250760Y-102770505D01*
X159251941Y-102770500D01*
X164228144Y-102770500D01*
X164229319Y-102770506D01*
X164335434Y-102771511D01*
X164335434Y-102771510D01*
X164335441Y-102771511D01*
X164549696Y-102737726D01*
X164755395Y-102668920D01*
X164946857Y-102566993D01*
X165118791Y-102434763D01*
X165266449Y-102275880D01*
X165326752Y-102184317D01*
X165380062Y-102139158D01*
X165449327Y-102129989D01*
X165512554Y-102159723D01*
X165540790Y-102196222D01*
X165544214Y-102202942D01*
X165673782Y-102381278D01*
X165673786Y-102381283D01*
X165829666Y-102537163D01*
X165829671Y-102537167D01*
X165870761Y-102567020D01*
X166008008Y-102666735D01*
X166136405Y-102732157D01*
X166204423Y-102766815D01*
X166204426Y-102766816D01*
X166218895Y-102771517D01*
X166414079Y-102834935D01*
X166631808Y-102869420D01*
X166631809Y-102869420D01*
X166852251Y-102869420D01*
X166852252Y-102869420D01*
X167069981Y-102834935D01*
X167279636Y-102766815D01*
X167476052Y-102666735D01*
X167654395Y-102537162D01*
X167810272Y-102381285D01*
X167939845Y-102202942D01*
X167941491Y-102199710D01*
X167989461Y-102148913D01*
X168057281Y-102132112D01*
X168123417Y-102154645D01*
X168155536Y-102187793D01*
X168213567Y-102275902D01*
X168361234Y-102434786D01*
X168533177Y-102567016D01*
X168533179Y-102567017D01*
X168533183Y-102567020D01*
X168654349Y-102631518D01*
X168724649Y-102668940D01*
X168930357Y-102737740D01*
X168930360Y-102737740D01*
X168930365Y-102737742D01*
X169144606Y-102771515D01*
X169144608Y-102771515D01*
X169144620Y-102771517D01*
X169250760Y-102770505D01*
X169251941Y-102770500D01*
X179228159Y-102770500D01*
X179229339Y-102770505D01*
X179335480Y-102771517D01*
X179335518Y-102771511D01*
X179549734Y-102737742D01*
X179549737Y-102737740D01*
X179549743Y-102737740D01*
X179755451Y-102668940D01*
X179905764Y-102588925D01*
X179946916Y-102567020D01*
X179946917Y-102567019D01*
X179946923Y-102567016D01*
X180118866Y-102434786D01*
X180266533Y-102275902D01*
X180385842Y-102094754D01*
X180473499Y-101896346D01*
X180527080Y-101686159D01*
X180545107Y-101470000D01*
X180527080Y-101253841D01*
X180473499Y-101043654D01*
X180385842Y-100845246D01*
X180266548Y-100664121D01*
X180266535Y-100664101D01*
X180266532Y-100664097D01*
X180118866Y-100505214D01*
X179946923Y-100372984D01*
X179946921Y-100372983D01*
X179946916Y-100372979D01*
X179755451Y-100271060D01*
X179755447Y-100271058D01*
X179549740Y-100202259D01*
X179549734Y-100202257D01*
X179335493Y-100168484D01*
X179335482Y-100168483D01*
X179335480Y-100168483D01*
X179335476Y-100168483D01*
X179229340Y-100169494D01*
X179228159Y-100169500D01*
X169251941Y-100169500D01*
X169250760Y-100169494D01*
X169144623Y-100168483D01*
X169144622Y-100168483D01*
X169144620Y-100168483D01*
X169144618Y-100168483D01*
X169144606Y-100168484D01*
X168930365Y-100202257D01*
X168930359Y-100202259D01*
X168724652Y-100271058D01*
X168724648Y-100271060D01*
X168533183Y-100372979D01*
X168361234Y-100505214D01*
X168213567Y-100664097D01*
X168156157Y-100751264D01*
X168102843Y-100796423D01*
X168033577Y-100805590D01*
X167970351Y-100775854D01*
X167942116Y-100739355D01*
X167939843Y-100734894D01*
X167810277Y-100556561D01*
X167810273Y-100556556D01*
X167654393Y-100400676D01*
X167654388Y-100400672D01*
X167476055Y-100271107D01*
X167476054Y-100271106D01*
X167476052Y-100271105D01*
X167413126Y-100239042D01*
X167279636Y-100171024D01*
X167279633Y-100171023D01*
X167069982Y-100102905D01*
X166961116Y-100085662D01*
X166852252Y-100068420D01*
X166631808Y-100068420D01*
X166559231Y-100079915D01*
X166414077Y-100102905D01*
X166204426Y-100171023D01*
X166204423Y-100171024D01*
X166008004Y-100271107D01*
X165829671Y-100400672D01*
X165829666Y-100400676D01*
X165673786Y-100556556D01*
X165673782Y-100556561D01*
X165544216Y-100734894D01*
X165540171Y-100742834D01*
X165492194Y-100793628D01*
X165424373Y-100810421D01*
X165358239Y-100787881D01*
X165326130Y-100754738D01*
X165266450Y-100664121D01*
X165266448Y-100664118D01*
X165118790Y-100505236D01*
X165045010Y-100448494D01*
X164946857Y-100373007D01*
X164946855Y-100373006D01*
X164946854Y-100373005D01*
X164755395Y-100271080D01*
X164755389Y-100271078D01*
X164549699Y-100202274D01*
X164389004Y-100176935D01*
X164335441Y-100168489D01*
X164335440Y-100168489D01*
X164335434Y-100168488D01*
X164229319Y-100169494D01*
X164228144Y-100169500D01*
X159251941Y-100169500D01*
X159250760Y-100169494D01*
X159144623Y-100168483D01*
X159144622Y-100168483D01*
X159144620Y-100168483D01*
X159144618Y-100168483D01*
X159144606Y-100168484D01*
X158930365Y-100202257D01*
X158930359Y-100202259D01*
X158724652Y-100271058D01*
X158724648Y-100271060D01*
X158533183Y-100372979D01*
X158361234Y-100505214D01*
X158213567Y-100664097D01*
X158213564Y-100664101D01*
X158094259Y-100845243D01*
X158006601Y-101043654D01*
X157953020Y-101253838D01*
X157953019Y-101253844D01*
X157934993Y-101469998D01*
X155545007Y-101469998D01*
X155526980Y-101253841D01*
X155473399Y-101043654D01*
X155385742Y-100845246D01*
X155266448Y-100664121D01*
X155266435Y-100664101D01*
X155266432Y-100664097D01*
X155118766Y-100505214D01*
X154946823Y-100372984D01*
X154946821Y-100372983D01*
X154946816Y-100372979D01*
X154755351Y-100271060D01*
X154755347Y-100271058D01*
X154549640Y-100202259D01*
X154549634Y-100202257D01*
X154335393Y-100168484D01*
X154335382Y-100168483D01*
X154335380Y-100168483D01*
X154335376Y-100168483D01*
X154229240Y-100169494D01*
X154228059Y-100169500D01*
X146751941Y-100169500D01*
X146750760Y-100169494D01*
X146644623Y-100168483D01*
X146644622Y-100168483D01*
X146644620Y-100168483D01*
X146644618Y-100168483D01*
X146644606Y-100168484D01*
X146430365Y-100202257D01*
X146430359Y-100202259D01*
X146224652Y-100271058D01*
X146224648Y-100271060D01*
X146033183Y-100372979D01*
X145861234Y-100505214D01*
X145713567Y-100664097D01*
X145713564Y-100664101D01*
X145594259Y-100845243D01*
X145506601Y-101043654D01*
X145453020Y-101253838D01*
X145453019Y-101253844D01*
X145434993Y-101469998D01*
X143045006Y-101469998D01*
X143026981Y-101253848D01*
X142973402Y-101043668D01*
X142919021Y-100920574D01*
X142885752Y-100845266D01*
X142766450Y-100664122D01*
X142766448Y-100664118D01*
X142618790Y-100505236D01*
X142545010Y-100448494D01*
X142446857Y-100373007D01*
X142446855Y-100373006D01*
X142446854Y-100373005D01*
X142255395Y-100271080D01*
X142255389Y-100271078D01*
X142049699Y-100202274D01*
X141889004Y-100176935D01*
X141835441Y-100168489D01*
X141835440Y-100168489D01*
X141835434Y-100168488D01*
X141729319Y-100169494D01*
X141728144Y-100169500D01*
X124241856Y-100169500D01*
X124240681Y-100169494D01*
X124134565Y-100168488D01*
X124134559Y-100168489D01*
X123920301Y-100202274D01*
X123920300Y-100202274D01*
X123714610Y-100271078D01*
X123714604Y-100271080D01*
X123523145Y-100373005D01*
X123351209Y-100505236D01*
X123203551Y-100664118D01*
X123203549Y-100664122D01*
X123084247Y-100845266D01*
X122996599Y-101043664D01*
X122996597Y-101043668D01*
X122943019Y-101253845D01*
X122943019Y-101253847D01*
X122924994Y-101469999D01*
X122000500Y-101469999D01*
X122000500Y-99066969D01*
X122000517Y-99056157D01*
X122001011Y-99054587D01*
X122000588Y-99012379D01*
X122000590Y-99011677D01*
X122000662Y-99011431D01*
X122001079Y-99000883D01*
X122009170Y-98910008D01*
X122011683Y-98881778D01*
X122016241Y-98857765D01*
X122048286Y-98748952D01*
X122057473Y-98726293D01*
X122110252Y-98625895D01*
X122123711Y-98605478D01*
X122195172Y-98517397D01*
X122212373Y-98500023D01*
X122299741Y-98427679D01*
X122320016Y-98414022D01*
X122419882Y-98360242D01*
X122442445Y-98350830D01*
X122550925Y-98317700D01*
X122574907Y-98312899D01*
X122693897Y-98301105D01*
X122706128Y-98300500D01*
X141178844Y-98300500D01*
X141178845Y-98300499D01*
X141333497Y-98269737D01*
X141479179Y-98209394D01*
X141610289Y-98121789D01*
X141721789Y-98010289D01*
X141809394Y-97879179D01*
X141869737Y-97733497D01*
X141900500Y-97578842D01*
X141900500Y-97500000D01*
X141900500Y-97452405D01*
X141900500Y-97312919D01*
X141903476Y-97278361D01*
X141900500Y-97265550D01*
X141900500Y-97260438D01*
X141892095Y-97229075D01*
X141891100Y-97225091D01*
X141881936Y-97185643D01*
X141881937Y-97185643D01*
X141860076Y-97149374D01*
X141855050Y-97140177D01*
X141764265Y-96955964D01*
X141756628Y-96936469D01*
X141699632Y-96744659D01*
X141695383Y-96724156D01*
X141676030Y-96563355D01*
X141671470Y-96525461D01*
X141670734Y-96504561D01*
X141680590Y-96304693D01*
X141683382Y-96283954D01*
X141726727Y-96088595D01*
X141732970Y-96068615D01*
X141732979Y-96068593D01*
X141808566Y-95883330D01*
X141818080Y-95864690D01*
X141923775Y-95694765D01*
X141936294Y-95677987D01*
X141936306Y-95677974D01*
X142069071Y-95528270D01*
X142084224Y-95513846D01*
X142240300Y-95388603D01*
X142257668Y-95376930D01*
X142432599Y-95279729D01*
X142451673Y-95271150D01*
X142640469Y-95204765D01*
X142660717Y-95199517D01*
X142857987Y-95165844D01*
X142878827Y-95164078D01*
X143078944Y-95164078D01*
X143099806Y-95165846D01*
X143162079Y-95176474D01*
X143297058Y-95199512D01*
X143317313Y-95204760D01*
X143506102Y-95271140D01*
X143525188Y-95279724D01*
X143565537Y-95302143D01*
X143700110Y-95376917D01*
X143717488Y-95388596D01*
X143873559Y-95513832D01*
X143888722Y-95528265D01*
X143974802Y-95625325D01*
X144021495Y-95677974D01*
X144034015Y-95694755D01*
X144139706Y-95864667D01*
X144149225Y-95883316D01*
X144208166Y-96027771D01*
X144224823Y-96068593D01*
X144231068Y-96088579D01*
X144274414Y-96283934D01*
X144277207Y-96304684D01*
X144287066Y-96504535D01*
X144286329Y-96525461D01*
X144262420Y-96724136D01*
X144258172Y-96744638D01*
X144201178Y-96936451D01*
X144193541Y-96955947D01*
X144102571Y-97140540D01*
X144097547Y-97149734D01*
X144075903Y-97185645D01*
X144054365Y-97278363D01*
X144059043Y-97332679D01*
X144059500Y-97343319D01*
X144059500Y-97578846D01*
X144090261Y-97733489D01*
X144090264Y-97733501D01*
X144150602Y-97879172D01*
X144150609Y-97879185D01*
X144238210Y-98010288D01*
X144238213Y-98010292D01*
X144349707Y-98121786D01*
X144349711Y-98121789D01*
X144480814Y-98209390D01*
X144480827Y-98209397D01*
X144556123Y-98240585D01*
X144626503Y-98269737D01*
X144781153Y-98300499D01*
X144781156Y-98300500D01*
X144781158Y-98300500D01*
X173688844Y-98300500D01*
X173688845Y-98300499D01*
X173843497Y-98269737D01*
X173989179Y-98209394D01*
X174120289Y-98121789D01*
X174231789Y-98010289D01*
X174319394Y-97879179D01*
X174379737Y-97733497D01*
X174401317Y-97625006D01*
X174433701Y-97563096D01*
X174494417Y-97528522D01*
X174564186Y-97532261D01*
X174595819Y-97548880D01*
X174689941Y-97617263D01*
X174758048Y-97666745D01*
X174862525Y-97719979D01*
X174954463Y-97766825D01*
X174954466Y-97766826D01*
X175044355Y-97796032D01*
X175164119Y-97834945D01*
X175381848Y-97869430D01*
X175381849Y-97869430D01*
X175602291Y-97869430D01*
X175602292Y-97869430D01*
X175820021Y-97834945D01*
X176029676Y-97766825D01*
X176226092Y-97666745D01*
X176404435Y-97537172D01*
X176455097Y-97486509D01*
X176463037Y-97482173D01*
X176468463Y-97474926D01*
X176493226Y-97465688D01*
X176516418Y-97453025D01*
X176525445Y-97453670D01*
X176533927Y-97450507D01*
X176559751Y-97456124D01*
X176586109Y-97458009D01*
X176595160Y-97463825D01*
X176602200Y-97465357D01*
X176630455Y-97486507D01*
X176645749Y-97501800D01*
X176651766Y-97508261D01*
X176673037Y-97532798D01*
X176680507Y-97539084D01*
X176680399Y-97539211D01*
X176693083Y-97549134D01*
X177384534Y-98240585D01*
X177453057Y-98280146D01*
X177529483Y-98300625D01*
X177529485Y-98300625D01*
X177615787Y-98300625D01*
X177617691Y-98300500D01*
X180784167Y-98300500D01*
X180851206Y-98320185D01*
X180871848Y-98336819D01*
X184619540Y-102084511D01*
X184675489Y-102140460D01*
X184675491Y-102140461D01*
X184675495Y-102140464D01*
X184725788Y-102169500D01*
X184744011Y-102180021D01*
X184820438Y-102200500D01*
X193675289Y-102200500D01*
X193675625Y-102200590D01*
X193754749Y-102200590D01*
X193755085Y-102200500D01*
X193759562Y-102200500D01*
X193835989Y-102180021D01*
X193904511Y-102140460D01*
X193960460Y-102084511D01*
X193960463Y-102084504D01*
X193965412Y-102078057D01*
X193965767Y-102078329D01*
X193978454Y-102061792D01*
X196675869Y-99364379D01*
X196715430Y-99295856D01*
X196735909Y-99219430D01*
X196735909Y-99140306D01*
X196735909Y-99135319D01*
X196735500Y-99129073D01*
X196735500Y-79309778D01*
X198359500Y-79309778D01*
X198359500Y-79530221D01*
X198393985Y-79747952D01*
X198462103Y-79957603D01*
X198462104Y-79957606D01*
X198562187Y-80154025D01*
X198691752Y-80332358D01*
X198691756Y-80332363D01*
X198847636Y-80488243D01*
X198847641Y-80488247D01*
X199003192Y-80601260D01*
X199025978Y-80617815D01*
X199154375Y-80683237D01*
X199222393Y-80717895D01*
X199222396Y-80717896D01*
X199327221Y-80751955D01*
X199432049Y-80786015D01*
X199649778Y-80820500D01*
X199649779Y-80820500D01*
X199870221Y-80820500D01*
X199870222Y-80820500D01*
X200087951Y-80786015D01*
X200297606Y-80717895D01*
X200494022Y-80617815D01*
X200672365Y-80488242D01*
X200828242Y-80332365D01*
X200957815Y-80154022D01*
X201057895Y-79957606D01*
X201126015Y-79747951D01*
X201160500Y-79530222D01*
X201160500Y-79309778D01*
X201126015Y-79092049D01*
X201057895Y-78882394D01*
X201057895Y-78882393D01*
X201023237Y-78814375D01*
X200957815Y-78685978D01*
X200941260Y-78663192D01*
X200828247Y-78507641D01*
X200828243Y-78507636D01*
X200672363Y-78351756D01*
X200672358Y-78351752D01*
X200494025Y-78222187D01*
X200494024Y-78222186D01*
X200494022Y-78222185D01*
X200431096Y-78190122D01*
X200297606Y-78122104D01*
X200297603Y-78122103D01*
X200087952Y-78053985D01*
X199979086Y-78036742D01*
X199870222Y-78019500D01*
X199649778Y-78019500D01*
X199577201Y-78030995D01*
X199432047Y-78053985D01*
X199222396Y-78122103D01*
X199222393Y-78122104D01*
X199025974Y-78222187D01*
X198847641Y-78351752D01*
X198847636Y-78351756D01*
X198691756Y-78507636D01*
X198691752Y-78507641D01*
X198562187Y-78685974D01*
X198462104Y-78882393D01*
X198462103Y-78882396D01*
X198393985Y-79092047D01*
X198359500Y-79309778D01*
X196735500Y-79309778D01*
X196735500Y-69384546D01*
X196739727Y-69352447D01*
X196739787Y-69352220D01*
X196740500Y-69349562D01*
X196740500Y-69270438D01*
X196720021Y-69194011D01*
X196720017Y-69194004D01*
X196680464Y-69125495D01*
X196680458Y-69125487D01*
X196624512Y-69069541D01*
X196624504Y-69069535D01*
X196555995Y-69029982D01*
X196555990Y-69029979D01*
X196530513Y-69023152D01*
X196479562Y-69009500D01*
X196479560Y-69009500D01*
X173394500Y-69009500D01*
X173327461Y-68989815D01*
X173281706Y-68937011D01*
X173270500Y-68885500D01*
X173270500Y-61234500D01*
X173290185Y-61167461D01*
X173342989Y-61121706D01*
X173394500Y-61110500D01*
X178930438Y-61110500D01*
X202944167Y-61110500D01*
X203011206Y-61130185D01*
G37*
%TD.AperFunction*%
%TD*%
M02*
