M48
; DRILL file {KiCad 9.0.5} date 2025-10-30T22:29:35+0000
; FORMAT={-:-/ absolute / inch / decimal}
; #@! TF.CreationDate,2025-10-30T22:29:35+00:00
; #@! TF.GenerationSoftware,Kicad,Pcbnew,9.0.5
; #@! TF.FileFunction,Plated,1,2,PTH
FMAT,2
INCH
; #@! TA.AperFunction,Plated,PTH,ViaDrill
T1C0.0118
; #@! TA.AperFunction,Plated,PTH,ComponentDrill
T2C0.0472
%
G90
G05
T1
X4.3913Y-3.4528
X4.45Y-3.3138
X4.5091Y-3.4543
X5.0626Y-3.4063
X5.4701Y-4.7783
X5.6228Y-5.3466
X5.7047Y-4.776
X5.7554Y-5.1491
X5.776Y-5.4157
X5.7851Y-5.034
X5.8217Y-5.2374
X5.8598Y-4.9663
X5.9106Y-5.448
X5.9394Y-5.034
X5.9961Y-3.4472
X6.0082Y-5.4068
X6.0102Y-5.2425
X6.0622Y-5.3539
X6.1067Y-4.9949
X6.1622Y-5.4492
X6.174Y-5.3481
X6.1933Y-5.248
X6.213Y-5.1307
X6.2874Y-5.4123
X6.3441Y-5.3831
X6.3799Y-5.4358
X6.3843Y-5.2492
X6.402Y-5.1244
X6.5201Y-3.5543
X6.5701Y-5.2504
X6.5874Y-5.1244
X6.5906Y-3.3618
X6.5906Y-5.4299
X6.5909Y-5.3245
X6.6917Y-4.9512
X6.7441Y-5.3922
X6.7508Y-5.2453
X6.822Y-3.4354
X6.9465Y-5.2492
X7.0531Y-5.0222
X7.0709Y-3.363
X7.0949Y-3.6555
X7.0976Y-3.5327
X7.0992Y-3.9228
X7.1154Y-4.8331
X7.1185Y-2.7114
X7.1291Y-3.0094
X7.252Y-3.1654
X7.3213Y-3.3213
X7.3307Y-3.4193
X7.5457Y-3.5106
X7.5559Y-3.337
X7.5677Y-3.3846
X7.6646Y-3.4617
X7.6969Y-3.6512
X7.6985Y-3.7484
X7.7425Y-3.339
X7.8059Y-4.174
X7.8217Y-3.7673
T2
X4.1555Y-3.3953
X4.45Y-3.3961
X5.2386Y-3.4559
X5.567Y-4.6682
X5.6162Y-4.865
X6.1083Y-4.865
X6.502Y-4.865
X6.8465Y-4.6682
X7.1953Y-2.7724
X7.1953Y-2.9303
X7.1953Y-3.087
X7.1953Y-3.2445
X7.1953Y-3.4035
X7.1953Y-3.5598
X7.1953Y-3.7169
X7.1953Y-3.874
X7.8019Y-3.997
M30
