%TF.GenerationSoftware,KiCad,Pcbnew,9.0.5*%
%TF.CreationDate,2025-10-27T19:57:08+00:00*%
%TF.ProjectId,InstallationFlex,496e7374-616c-46c6-9174-696f6e466c65,rev?*%
%TF.SameCoordinates,Original*%
%TF.FileFunction,Legend,Bot*%
%TF.FilePolarity,Positive*%
%FSLAX46Y46*%
G04 Gerber Fmt 4.6, Leading zero omitted, Abs format (unit mm)*
G04 Created by KiCad (PCBNEW 9.0.5) date 2025-10-27 19:57:08*
%MOMM*%
%LPD*%
G01*
G04 APERTURE LIST*
%ADD10C,0.150000*%
%ADD11C,0.400000*%
%ADD12C,0.100000*%
%ADD13R,4.000000X0.350000*%
%ADD14R,2.000000X2.000000*%
%ADD15C,1.800000*%
G04 APERTURE END LIST*
D10*
X172400000Y-118530000D02*
X172400000Y-120030000D01*
X173390000Y-118530000D02*
X172400000Y-118530000D01*
X173390000Y-120005000D02*
X173390000Y-118530000D01*
X164400000Y-118520000D02*
X164400000Y-120020000D01*
X165390000Y-118520000D02*
X164400000Y-118520000D01*
X165390000Y-119995000D02*
X165390000Y-118520000D01*
X162610000Y-118510000D02*
X162610000Y-120010000D01*
X163600000Y-118510000D02*
X162610000Y-118510000D01*
X163600000Y-119985000D02*
X163600000Y-118510000D01*
X143910000Y-118500000D02*
X143910000Y-120000000D01*
X144900000Y-118500000D02*
X143910000Y-118500000D01*
X144900000Y-119975000D02*
X144900000Y-118500000D01*
X145710000Y-118520000D02*
X145710000Y-120020000D01*
X146700000Y-118520000D02*
X145710000Y-118520000D01*
X146700000Y-119995000D02*
X146700000Y-118520000D01*
D11*
X155090000Y-118800000D02*
X155090000Y-121000000D01*
D10*
X153700000Y-118550000D02*
X153700000Y-120050000D01*
X154690000Y-118550000D02*
X153700000Y-118550000D01*
X154690000Y-120025000D02*
X154690000Y-118550000D01*
D11*
X165770000Y-118800000D02*
X165770000Y-121000000D01*
X147090000Y-118800000D02*
X147090000Y-121000000D01*
X173780000Y-118800000D02*
X173780000Y-121000000D01*
X137289126Y-118793737D02*
X137289126Y-120993737D01*
D12*
X179125000Y-118175000D02*
X179600000Y-117700000D01*
D11*
X157770000Y-118800000D02*
X157770000Y-121000000D01*
X128387669Y-118791067D02*
X128387669Y-120991067D01*
X152430000Y-118800000D02*
X152430000Y-121000000D01*
X176450000Y-118800000D02*
X176450000Y-121000000D01*
X151540000Y-118800000D02*
X151540000Y-121000000D01*
X145290000Y-118800000D02*
X145290000Y-121000000D01*
X131067669Y-118791067D02*
X131067669Y-120991067D01*
X171110000Y-118800000D02*
X171110000Y-121000000D01*
X123047135Y-118788398D02*
X123047135Y-120988398D01*
X148860000Y-118800000D02*
X148860000Y-121000000D01*
X170220000Y-118800000D02*
X170220000Y-121000000D01*
X129277669Y-118791067D02*
X129277669Y-120991067D01*
X142629126Y-118793737D02*
X142629126Y-120993737D01*
X172000000Y-118800000D02*
X172000000Y-121000000D01*
X166670000Y-118800000D02*
X166670000Y-121000000D01*
X133737669Y-118791067D02*
X133737669Y-120991067D01*
X132837669Y-118791067D02*
X132837669Y-120991067D01*
X155980000Y-118800000D02*
X155980000Y-121000000D01*
X135509126Y-118793737D02*
X135509126Y-120993737D01*
X161330000Y-118800000D02*
X161330000Y-121000000D01*
X179120000Y-118800000D02*
X179120000Y-121000000D01*
X153320000Y-118800000D02*
X153320000Y-121000000D01*
X159540000Y-118800000D02*
X159540000Y-121000000D01*
X139959126Y-118793737D02*
X139959126Y-120993737D01*
X174670000Y-118800000D02*
X174670000Y-121000000D01*
D12*
X124050000Y-114225000D02*
X181150000Y-114225000D01*
D11*
X158650000Y-118800000D02*
X158650000Y-121000000D01*
X178230000Y-118800000D02*
X178230000Y-121000000D01*
X136399126Y-118793737D02*
X136399126Y-120993737D01*
X149750000Y-118800000D02*
X149750000Y-121000000D01*
X127507135Y-118788398D02*
X127507135Y-120988398D01*
X143520000Y-118800000D02*
X143520000Y-121000000D01*
X150630000Y-118800000D02*
X150630000Y-121000000D01*
X167550000Y-118800000D02*
X167550000Y-121000000D01*
X138189126Y-118793737D02*
X138189126Y-120993737D01*
X169330000Y-118800000D02*
X169330000Y-121000000D01*
X134627669Y-118791067D02*
X134627669Y-120991067D01*
X130167669Y-118791067D02*
X130167669Y-120991067D01*
X175560000Y-118800000D02*
X175560000Y-121000000D01*
X123947135Y-118788398D02*
X123947135Y-120988398D01*
X160440000Y-118800000D02*
X160440000Y-121000000D01*
X125717135Y-118788398D02*
X125717135Y-120988398D01*
X121267135Y-118788398D02*
X121267135Y-120988398D01*
D12*
X179125000Y-116675000D02*
X179125000Y-118175000D01*
D11*
X162210000Y-118800000D02*
X162210000Y-121000000D01*
X124827135Y-118788398D02*
X124827135Y-120988398D01*
X168430000Y-118800000D02*
X168430000Y-121000000D01*
X163990000Y-118800000D02*
X163990000Y-121000000D01*
X156870000Y-118800000D02*
X156870000Y-121000000D01*
X141749126Y-118793737D02*
X141749126Y-120993737D01*
X177340000Y-118800000D02*
X177340000Y-121000000D01*
X122157135Y-118788398D02*
X122157135Y-120988398D01*
X126617135Y-118788398D02*
X126617135Y-120988398D01*
X139069126Y-118793737D02*
X139069126Y-120993737D01*
D12*
X179125000Y-118175000D02*
X178650000Y-117700000D01*
D11*
X140859126Y-118793737D02*
X140859126Y-120993737D01*
X131947669Y-118791067D02*
X131947669Y-120991067D01*
D10*
X180672619Y-116444819D02*
X181148809Y-116444819D01*
X181148809Y-116444819D02*
X181148809Y-115444819D01*
X179767857Y-116349580D02*
X179815476Y-116397200D01*
X179815476Y-116397200D02*
X179958333Y-116444819D01*
X179958333Y-116444819D02*
X180053571Y-116444819D01*
X180053571Y-116444819D02*
X180196428Y-116397200D01*
X180196428Y-116397200D02*
X180291666Y-116301961D01*
X180291666Y-116301961D02*
X180339285Y-116206723D01*
X180339285Y-116206723D02*
X180386904Y-116016247D01*
X180386904Y-116016247D02*
X180386904Y-115873390D01*
X180386904Y-115873390D02*
X180339285Y-115682914D01*
X180339285Y-115682914D02*
X180291666Y-115587676D01*
X180291666Y-115587676D02*
X180196428Y-115492438D01*
X180196428Y-115492438D02*
X180053571Y-115444819D01*
X180053571Y-115444819D02*
X179958333Y-115444819D01*
X179958333Y-115444819D02*
X179815476Y-115492438D01*
X179815476Y-115492438D02*
X179767857Y-115540057D01*
X179339285Y-116444819D02*
X179339285Y-115444819D01*
X179339285Y-115444819D02*
X179101190Y-115444819D01*
X179101190Y-115444819D02*
X178958333Y-115492438D01*
X178958333Y-115492438D02*
X178863095Y-115587676D01*
X178863095Y-115587676D02*
X178815476Y-115682914D01*
X178815476Y-115682914D02*
X178767857Y-115873390D01*
X178767857Y-115873390D02*
X178767857Y-116016247D01*
X178767857Y-116016247D02*
X178815476Y-116206723D01*
X178815476Y-116206723D02*
X178863095Y-116301961D01*
X178863095Y-116301961D02*
X178958333Y-116397200D01*
X178958333Y-116397200D02*
X179101190Y-116444819D01*
X179101190Y-116444819D02*
X179339285Y-116444819D01*
X177053571Y-116444819D02*
X177624999Y-116444819D01*
X177339285Y-116444819D02*
X177339285Y-115444819D01*
X177339285Y-115444819D02*
X177434523Y-115587676D01*
X177434523Y-115587676D02*
X177529761Y-115682914D01*
X177529761Y-115682914D02*
X177624999Y-115730533D01*
X166098094Y-117214819D02*
X166098094Y-116214819D01*
X166098094Y-116214819D02*
X165859999Y-116214819D01*
X165859999Y-116214819D02*
X165717142Y-116262438D01*
X165717142Y-116262438D02*
X165621904Y-116357676D01*
X165621904Y-116357676D02*
X165574285Y-116452914D01*
X165574285Y-116452914D02*
X165526666Y-116643390D01*
X165526666Y-116643390D02*
X165526666Y-116786247D01*
X165526666Y-116786247D02*
X165574285Y-116976723D01*
X165574285Y-116976723D02*
X165621904Y-117071961D01*
X165621904Y-117071961D02*
X165717142Y-117167200D01*
X165717142Y-117167200D02*
X165859999Y-117214819D01*
X165859999Y-117214819D02*
X166098094Y-117214819D01*
X164669523Y-116548152D02*
X164669523Y-117214819D01*
X164907618Y-116167200D02*
X165145713Y-116881485D01*
X165145713Y-116881485D02*
X164526666Y-116881485D01*
X163828094Y-117334819D02*
X163828094Y-116334819D01*
X163828094Y-116334819D02*
X163589999Y-116334819D01*
X163589999Y-116334819D02*
X163447142Y-116382438D01*
X163447142Y-116382438D02*
X163351904Y-116477676D01*
X163351904Y-116477676D02*
X163304285Y-116572914D01*
X163304285Y-116572914D02*
X163256666Y-116763390D01*
X163256666Y-116763390D02*
X163256666Y-116906247D01*
X163256666Y-116906247D02*
X163304285Y-117096723D01*
X163304285Y-117096723D02*
X163351904Y-117191961D01*
X163351904Y-117191961D02*
X163447142Y-117287200D01*
X163447142Y-117287200D02*
X163589999Y-117334819D01*
X163589999Y-117334819D02*
X163828094Y-117334819D01*
X162923332Y-116334819D02*
X162304285Y-116334819D01*
X162304285Y-116334819D02*
X162637618Y-116715771D01*
X162637618Y-116715771D02*
X162494761Y-116715771D01*
X162494761Y-116715771D02*
X162399523Y-116763390D01*
X162399523Y-116763390D02*
X162351904Y-116811009D01*
X162351904Y-116811009D02*
X162304285Y-116906247D01*
X162304285Y-116906247D02*
X162304285Y-117144342D01*
X162304285Y-117144342D02*
X162351904Y-117239580D01*
X162351904Y-117239580D02*
X162399523Y-117287200D01*
X162399523Y-117287200D02*
X162494761Y-117334819D01*
X162494761Y-117334819D02*
X162780475Y-117334819D01*
X162780475Y-117334819D02*
X162875713Y-117287200D01*
X162875713Y-117287200D02*
X162923332Y-117239580D01*
X144893332Y-117454819D02*
X144893332Y-116454819D01*
X144893332Y-116454819D02*
X144655237Y-116454819D01*
X144655237Y-116454819D02*
X144512380Y-116502438D01*
X144512380Y-116502438D02*
X144417142Y-116597676D01*
X144417142Y-116597676D02*
X144369523Y-116692914D01*
X144369523Y-116692914D02*
X144321904Y-116883390D01*
X144321904Y-116883390D02*
X144321904Y-117026247D01*
X144321904Y-117026247D02*
X144369523Y-117216723D01*
X144369523Y-117216723D02*
X144417142Y-117311961D01*
X144417142Y-117311961D02*
X144512380Y-117407200D01*
X144512380Y-117407200D02*
X144655237Y-117454819D01*
X144655237Y-117454819D02*
X144893332Y-117454819D01*
X143988570Y-116454819D02*
X143750475Y-117454819D01*
X143750475Y-117454819D02*
X143559999Y-116740533D01*
X143559999Y-116740533D02*
X143369523Y-117454819D01*
X143369523Y-117454819D02*
X143131428Y-116454819D01*
X149358094Y-117424819D02*
X149358094Y-116424819D01*
X149358094Y-116424819D02*
X149119999Y-116424819D01*
X149119999Y-116424819D02*
X148977142Y-116472438D01*
X148977142Y-116472438D02*
X148881904Y-116567676D01*
X148881904Y-116567676D02*
X148834285Y-116662914D01*
X148834285Y-116662914D02*
X148786666Y-116853390D01*
X148786666Y-116853390D02*
X148786666Y-116996247D01*
X148786666Y-116996247D02*
X148834285Y-117186723D01*
X148834285Y-117186723D02*
X148881904Y-117281961D01*
X148881904Y-117281961D02*
X148977142Y-117377200D01*
X148977142Y-117377200D02*
X149119999Y-117424819D01*
X149119999Y-117424819D02*
X149358094Y-117424819D01*
X148405713Y-116520057D02*
X148358094Y-116472438D01*
X148358094Y-116472438D02*
X148262856Y-116424819D01*
X148262856Y-116424819D02*
X148024761Y-116424819D01*
X148024761Y-116424819D02*
X147929523Y-116472438D01*
X147929523Y-116472438D02*
X147881904Y-116520057D01*
X147881904Y-116520057D02*
X147834285Y-116615295D01*
X147834285Y-116615295D02*
X147834285Y-116710533D01*
X147834285Y-116710533D02*
X147881904Y-116853390D01*
X147881904Y-116853390D02*
X148453332Y-117424819D01*
X148453332Y-117424819D02*
X147834285Y-117424819D01*
X146938094Y-117074819D02*
X146938094Y-116074819D01*
X146938094Y-116074819D02*
X146699999Y-116074819D01*
X146699999Y-116074819D02*
X146557142Y-116122438D01*
X146557142Y-116122438D02*
X146461904Y-116217676D01*
X146461904Y-116217676D02*
X146414285Y-116312914D01*
X146414285Y-116312914D02*
X146366666Y-116503390D01*
X146366666Y-116503390D02*
X146366666Y-116646247D01*
X146366666Y-116646247D02*
X146414285Y-116836723D01*
X146414285Y-116836723D02*
X146461904Y-116931961D01*
X146461904Y-116931961D02*
X146557142Y-117027200D01*
X146557142Y-117027200D02*
X146699999Y-117074819D01*
X146699999Y-117074819D02*
X146938094Y-117074819D01*
X145414285Y-117074819D02*
X145985713Y-117074819D01*
X145699999Y-117074819D02*
X145699999Y-116074819D01*
X145699999Y-116074819D02*
X145795237Y-116217676D01*
X145795237Y-116217676D02*
X145890475Y-116312914D01*
X145890475Y-116312914D02*
X145985713Y-116360533D01*
X154781428Y-117189580D02*
X154829047Y-117237200D01*
X154829047Y-117237200D02*
X154971904Y-117284819D01*
X154971904Y-117284819D02*
X155067142Y-117284819D01*
X155067142Y-117284819D02*
X155209999Y-117237200D01*
X155209999Y-117237200D02*
X155305237Y-117141961D01*
X155305237Y-117141961D02*
X155352856Y-117046723D01*
X155352856Y-117046723D02*
X155400475Y-116856247D01*
X155400475Y-116856247D02*
X155400475Y-116713390D01*
X155400475Y-116713390D02*
X155352856Y-116522914D01*
X155352856Y-116522914D02*
X155305237Y-116427676D01*
X155305237Y-116427676D02*
X155209999Y-116332438D01*
X155209999Y-116332438D02*
X155067142Y-116284819D01*
X155067142Y-116284819D02*
X154971904Y-116284819D01*
X154971904Y-116284819D02*
X154829047Y-116332438D01*
X154829047Y-116332438D02*
X154781428Y-116380057D01*
X153876666Y-117284819D02*
X154352856Y-117284819D01*
X154352856Y-117284819D02*
X154352856Y-116284819D01*
X153590951Y-116380057D02*
X153543332Y-116332438D01*
X153543332Y-116332438D02*
X153448094Y-116284819D01*
X153448094Y-116284819D02*
X153209999Y-116284819D01*
X153209999Y-116284819D02*
X153114761Y-116332438D01*
X153114761Y-116332438D02*
X153067142Y-116380057D01*
X153067142Y-116380057D02*
X153019523Y-116475295D01*
X153019523Y-116475295D02*
X153019523Y-116570533D01*
X153019523Y-116570533D02*
X153067142Y-116713390D01*
X153067142Y-116713390D02*
X153638570Y-117284819D01*
X153638570Y-117284819D02*
X153019523Y-117284819D01*
X174961428Y-116621009D02*
X174818571Y-116668628D01*
X174818571Y-116668628D02*
X174770952Y-116716247D01*
X174770952Y-116716247D02*
X174723333Y-116811485D01*
X174723333Y-116811485D02*
X174723333Y-116954342D01*
X174723333Y-116954342D02*
X174770952Y-117049580D01*
X174770952Y-117049580D02*
X174818571Y-117097200D01*
X174818571Y-117097200D02*
X174913809Y-117144819D01*
X174913809Y-117144819D02*
X175294761Y-117144819D01*
X175294761Y-117144819D02*
X175294761Y-116144819D01*
X175294761Y-116144819D02*
X174961428Y-116144819D01*
X174961428Y-116144819D02*
X174866190Y-116192438D01*
X174866190Y-116192438D02*
X174818571Y-116240057D01*
X174818571Y-116240057D02*
X174770952Y-116335295D01*
X174770952Y-116335295D02*
X174770952Y-116430533D01*
X174770952Y-116430533D02*
X174818571Y-116525771D01*
X174818571Y-116525771D02*
X174866190Y-116573390D01*
X174866190Y-116573390D02*
X174961428Y-116621009D01*
X174961428Y-116621009D02*
X175294761Y-116621009D01*
X173723333Y-117144819D02*
X174056666Y-116668628D01*
X174294761Y-117144819D02*
X174294761Y-116144819D01*
X174294761Y-116144819D02*
X173913809Y-116144819D01*
X173913809Y-116144819D02*
X173818571Y-116192438D01*
X173818571Y-116192438D02*
X173770952Y-116240057D01*
X173770952Y-116240057D02*
X173723333Y-116335295D01*
X173723333Y-116335295D02*
X173723333Y-116478152D01*
X173723333Y-116478152D02*
X173770952Y-116573390D01*
X173770952Y-116573390D02*
X173818571Y-116621009D01*
X173818571Y-116621009D02*
X173913809Y-116668628D01*
X173913809Y-116668628D02*
X174294761Y-116668628D01*
X173294761Y-117144819D02*
X173294761Y-116144819D01*
X172294762Y-116192438D02*
X172390000Y-116144819D01*
X172390000Y-116144819D02*
X172532857Y-116144819D01*
X172532857Y-116144819D02*
X172675714Y-116192438D01*
X172675714Y-116192438D02*
X172770952Y-116287676D01*
X172770952Y-116287676D02*
X172818571Y-116382914D01*
X172818571Y-116382914D02*
X172866190Y-116573390D01*
X172866190Y-116573390D02*
X172866190Y-116716247D01*
X172866190Y-116716247D02*
X172818571Y-116906723D01*
X172818571Y-116906723D02*
X172770952Y-117001961D01*
X172770952Y-117001961D02*
X172675714Y-117097200D01*
X172675714Y-117097200D02*
X172532857Y-117144819D01*
X172532857Y-117144819D02*
X172437619Y-117144819D01*
X172437619Y-117144819D02*
X172294762Y-117097200D01*
X172294762Y-117097200D02*
X172247143Y-117049580D01*
X172247143Y-117049580D02*
X172247143Y-116716247D01*
X172247143Y-116716247D02*
X172437619Y-116716247D01*
X171818571Y-117144819D02*
X171818571Y-116144819D01*
X171818571Y-116621009D02*
X171247143Y-116621009D01*
X171247143Y-117144819D02*
X171247143Y-116144819D01*
X170913809Y-116144819D02*
X170342381Y-116144819D01*
X170628095Y-117144819D02*
X170628095Y-116144819D01*
X152444761Y-113509580D02*
X152492380Y-113557200D01*
X152492380Y-113557200D02*
X152635237Y-113604819D01*
X152635237Y-113604819D02*
X152730475Y-113604819D01*
X152730475Y-113604819D02*
X152873332Y-113557200D01*
X152873332Y-113557200D02*
X152968570Y-113461961D01*
X152968570Y-113461961D02*
X153016189Y-113366723D01*
X153016189Y-113366723D02*
X153063808Y-113176247D01*
X153063808Y-113176247D02*
X153063808Y-113033390D01*
X153063808Y-113033390D02*
X153016189Y-112842914D01*
X153016189Y-112842914D02*
X152968570Y-112747676D01*
X152968570Y-112747676D02*
X152873332Y-112652438D01*
X152873332Y-112652438D02*
X152730475Y-112604819D01*
X152730475Y-112604819D02*
X152635237Y-112604819D01*
X152635237Y-112604819D02*
X152492380Y-112652438D01*
X152492380Y-112652438D02*
X152444761Y-112700057D01*
X151539999Y-113604819D02*
X152016189Y-113604819D01*
X152016189Y-113604819D02*
X152016189Y-112604819D01*
X151254284Y-112700057D02*
X151206665Y-112652438D01*
X151206665Y-112652438D02*
X151111427Y-112604819D01*
X151111427Y-112604819D02*
X150873332Y-112604819D01*
X150873332Y-112604819D02*
X150778094Y-112652438D01*
X150778094Y-112652438D02*
X150730475Y-112700057D01*
X150730475Y-112700057D02*
X150682856Y-112795295D01*
X150682856Y-112795295D02*
X150682856Y-112890533D01*
X150682856Y-112890533D02*
X150730475Y-113033390D01*
X150730475Y-113033390D02*
X151301903Y-113604819D01*
X151301903Y-113604819D02*
X150682856Y-113604819D01*
X171464761Y-113604819D02*
X171464761Y-112604819D01*
X171464761Y-112604819D02*
X171226666Y-112604819D01*
X171226666Y-112604819D02*
X171083809Y-112652438D01*
X171083809Y-112652438D02*
X170988571Y-112747676D01*
X170988571Y-112747676D02*
X170940952Y-112842914D01*
X170940952Y-112842914D02*
X170893333Y-113033390D01*
X170893333Y-113033390D02*
X170893333Y-113176247D01*
X170893333Y-113176247D02*
X170940952Y-113366723D01*
X170940952Y-113366723D02*
X170988571Y-113461961D01*
X170988571Y-113461961D02*
X171083809Y-113557200D01*
X171083809Y-113557200D02*
X171226666Y-113604819D01*
X171226666Y-113604819D02*
X171464761Y-113604819D01*
X169940952Y-113604819D02*
X170512380Y-113604819D01*
X170226666Y-113604819D02*
X170226666Y-112604819D01*
X170226666Y-112604819D02*
X170321904Y-112747676D01*
X170321904Y-112747676D02*
X170417142Y-112842914D01*
X170417142Y-112842914D02*
X170512380Y-112890533D01*
X166751427Y-113604819D02*
X166751427Y-112604819D01*
X166751427Y-112604819D02*
X166513332Y-112604819D01*
X166513332Y-112604819D02*
X166370475Y-112652438D01*
X166370475Y-112652438D02*
X166275237Y-112747676D01*
X166275237Y-112747676D02*
X166227618Y-112842914D01*
X166227618Y-112842914D02*
X166179999Y-113033390D01*
X166179999Y-113033390D02*
X166179999Y-113176247D01*
X166179999Y-113176247D02*
X166227618Y-113366723D01*
X166227618Y-113366723D02*
X166275237Y-113461961D01*
X166275237Y-113461961D02*
X166370475Y-113557200D01*
X166370475Y-113557200D02*
X166513332Y-113604819D01*
X166513332Y-113604819D02*
X166751427Y-113604819D01*
X165799046Y-112700057D02*
X165751427Y-112652438D01*
X165751427Y-112652438D02*
X165656189Y-112604819D01*
X165656189Y-112604819D02*
X165418094Y-112604819D01*
X165418094Y-112604819D02*
X165322856Y-112652438D01*
X165322856Y-112652438D02*
X165275237Y-112700057D01*
X165275237Y-112700057D02*
X165227618Y-112795295D01*
X165227618Y-112795295D02*
X165227618Y-112890533D01*
X165227618Y-112890533D02*
X165275237Y-113033390D01*
X165275237Y-113033390D02*
X165846665Y-113604819D01*
X165846665Y-113604819D02*
X165227618Y-113604819D01*
X143711904Y-103072438D02*
X143807142Y-103024819D01*
X143807142Y-103024819D02*
X143949999Y-103024819D01*
X143949999Y-103024819D02*
X144092856Y-103072438D01*
X144092856Y-103072438D02*
X144188094Y-103167676D01*
X144188094Y-103167676D02*
X144235713Y-103262914D01*
X144235713Y-103262914D02*
X144283332Y-103453390D01*
X144283332Y-103453390D02*
X144283332Y-103596247D01*
X144283332Y-103596247D02*
X144235713Y-103786723D01*
X144235713Y-103786723D02*
X144188094Y-103881961D01*
X144188094Y-103881961D02*
X144092856Y-103977200D01*
X144092856Y-103977200D02*
X143949999Y-104024819D01*
X143949999Y-104024819D02*
X143854761Y-104024819D01*
X143854761Y-104024819D02*
X143711904Y-103977200D01*
X143711904Y-103977200D02*
X143664285Y-103929580D01*
X143664285Y-103929580D02*
X143664285Y-103596247D01*
X143664285Y-103596247D02*
X143854761Y-103596247D01*
X143235713Y-104024819D02*
X143235713Y-103024819D01*
X143235713Y-103024819D02*
X142664285Y-104024819D01*
X142664285Y-104024819D02*
X142664285Y-103024819D01*
X142188094Y-104024819D02*
X142188094Y-103024819D01*
X142188094Y-103024819D02*
X141949999Y-103024819D01*
X141949999Y-103024819D02*
X141807142Y-103072438D01*
X141807142Y-103072438D02*
X141711904Y-103167676D01*
X141711904Y-103167676D02*
X141664285Y-103262914D01*
X141664285Y-103262914D02*
X141616666Y-103453390D01*
X141616666Y-103453390D02*
X141616666Y-103596247D01*
X141616666Y-103596247D02*
X141664285Y-103786723D01*
X141664285Y-103786723D02*
X141711904Y-103881961D01*
X141711904Y-103881961D02*
X141807142Y-103977200D01*
X141807142Y-103977200D02*
X141949999Y-104024819D01*
X141949999Y-104024819D02*
X142188094Y-104024819D01*
X177511428Y-113081009D02*
X177368571Y-113128628D01*
X177368571Y-113128628D02*
X177320952Y-113176247D01*
X177320952Y-113176247D02*
X177273333Y-113271485D01*
X177273333Y-113271485D02*
X177273333Y-113414342D01*
X177273333Y-113414342D02*
X177320952Y-113509580D01*
X177320952Y-113509580D02*
X177368571Y-113557200D01*
X177368571Y-113557200D02*
X177463809Y-113604819D01*
X177463809Y-113604819D02*
X177844761Y-113604819D01*
X177844761Y-113604819D02*
X177844761Y-112604819D01*
X177844761Y-112604819D02*
X177511428Y-112604819D01*
X177511428Y-112604819D02*
X177416190Y-112652438D01*
X177416190Y-112652438D02*
X177368571Y-112700057D01*
X177368571Y-112700057D02*
X177320952Y-112795295D01*
X177320952Y-112795295D02*
X177320952Y-112890533D01*
X177320952Y-112890533D02*
X177368571Y-112985771D01*
X177368571Y-112985771D02*
X177416190Y-113033390D01*
X177416190Y-113033390D02*
X177511428Y-113081009D01*
X177511428Y-113081009D02*
X177844761Y-113081009D01*
X176273333Y-113604819D02*
X176606666Y-113128628D01*
X176844761Y-113604819D02*
X176844761Y-112604819D01*
X176844761Y-112604819D02*
X176463809Y-112604819D01*
X176463809Y-112604819D02*
X176368571Y-112652438D01*
X176368571Y-112652438D02*
X176320952Y-112700057D01*
X176320952Y-112700057D02*
X176273333Y-112795295D01*
X176273333Y-112795295D02*
X176273333Y-112938152D01*
X176273333Y-112938152D02*
X176320952Y-113033390D01*
X176320952Y-113033390D02*
X176368571Y-113081009D01*
X176368571Y-113081009D02*
X176463809Y-113128628D01*
X176463809Y-113128628D02*
X176844761Y-113128628D01*
X175844761Y-113604819D02*
X175844761Y-112604819D01*
X174844762Y-112652438D02*
X174940000Y-112604819D01*
X174940000Y-112604819D02*
X175082857Y-112604819D01*
X175082857Y-112604819D02*
X175225714Y-112652438D01*
X175225714Y-112652438D02*
X175320952Y-112747676D01*
X175320952Y-112747676D02*
X175368571Y-112842914D01*
X175368571Y-112842914D02*
X175416190Y-113033390D01*
X175416190Y-113033390D02*
X175416190Y-113176247D01*
X175416190Y-113176247D02*
X175368571Y-113366723D01*
X175368571Y-113366723D02*
X175320952Y-113461961D01*
X175320952Y-113461961D02*
X175225714Y-113557200D01*
X175225714Y-113557200D02*
X175082857Y-113604819D01*
X175082857Y-113604819D02*
X174987619Y-113604819D01*
X174987619Y-113604819D02*
X174844762Y-113557200D01*
X174844762Y-113557200D02*
X174797143Y-113509580D01*
X174797143Y-113509580D02*
X174797143Y-113176247D01*
X174797143Y-113176247D02*
X174987619Y-113176247D01*
X174368571Y-113604819D02*
X174368571Y-112604819D01*
X174368571Y-113081009D02*
X173797143Y-113081009D01*
X173797143Y-113604819D02*
X173797143Y-112604819D01*
X173463809Y-112604819D02*
X172892381Y-112604819D01*
X173178095Y-113604819D02*
X173178095Y-112604819D01*
X176743332Y-108297200D02*
X176600475Y-108344819D01*
X176600475Y-108344819D02*
X176362380Y-108344819D01*
X176362380Y-108344819D02*
X176267142Y-108297200D01*
X176267142Y-108297200D02*
X176219523Y-108249580D01*
X176219523Y-108249580D02*
X176171904Y-108154342D01*
X176171904Y-108154342D02*
X176171904Y-108059104D01*
X176171904Y-108059104D02*
X176219523Y-107963866D01*
X176219523Y-107963866D02*
X176267142Y-107916247D01*
X176267142Y-107916247D02*
X176362380Y-107868628D01*
X176362380Y-107868628D02*
X176552856Y-107821009D01*
X176552856Y-107821009D02*
X176648094Y-107773390D01*
X176648094Y-107773390D02*
X176695713Y-107725771D01*
X176695713Y-107725771D02*
X176743332Y-107630533D01*
X176743332Y-107630533D02*
X176743332Y-107535295D01*
X176743332Y-107535295D02*
X176695713Y-107440057D01*
X176695713Y-107440057D02*
X176648094Y-107392438D01*
X176648094Y-107392438D02*
X176552856Y-107344819D01*
X176552856Y-107344819D02*
X176314761Y-107344819D01*
X176314761Y-107344819D02*
X176171904Y-107392438D01*
X175743332Y-108344819D02*
X175743332Y-107344819D01*
X175743332Y-107344819D02*
X175409999Y-108059104D01*
X175409999Y-108059104D02*
X175076666Y-107344819D01*
X175076666Y-107344819D02*
X175076666Y-108344819D01*
X174648094Y-108297200D02*
X174505237Y-108344819D01*
X174505237Y-108344819D02*
X174267142Y-108344819D01*
X174267142Y-108344819D02*
X174171904Y-108297200D01*
X174171904Y-108297200D02*
X174124285Y-108249580D01*
X174124285Y-108249580D02*
X174076666Y-108154342D01*
X174076666Y-108154342D02*
X174076666Y-108059104D01*
X174076666Y-108059104D02*
X174124285Y-107963866D01*
X174124285Y-107963866D02*
X174171904Y-107916247D01*
X174171904Y-107916247D02*
X174267142Y-107868628D01*
X174267142Y-107868628D02*
X174457618Y-107821009D01*
X174457618Y-107821009D02*
X174552856Y-107773390D01*
X174552856Y-107773390D02*
X174600475Y-107725771D01*
X174600475Y-107725771D02*
X174648094Y-107630533D01*
X174648094Y-107630533D02*
X174648094Y-107535295D01*
X174648094Y-107535295D02*
X174600475Y-107440057D01*
X174600475Y-107440057D02*
X174552856Y-107392438D01*
X174552856Y-107392438D02*
X174457618Y-107344819D01*
X174457618Y-107344819D02*
X174219523Y-107344819D01*
X174219523Y-107344819D02*
X174076666Y-107392438D01*
X200355238Y-82029580D02*
X200402857Y-82077200D01*
X200402857Y-82077200D02*
X200545714Y-82124819D01*
X200545714Y-82124819D02*
X200640952Y-82124819D01*
X200640952Y-82124819D02*
X200783809Y-82077200D01*
X200783809Y-82077200D02*
X200879047Y-81981961D01*
X200879047Y-81981961D02*
X200926666Y-81886723D01*
X200926666Y-81886723D02*
X200974285Y-81696247D01*
X200974285Y-81696247D02*
X200974285Y-81553390D01*
X200974285Y-81553390D02*
X200926666Y-81362914D01*
X200926666Y-81362914D02*
X200879047Y-81267676D01*
X200879047Y-81267676D02*
X200783809Y-81172438D01*
X200783809Y-81172438D02*
X200640952Y-81124819D01*
X200640952Y-81124819D02*
X200545714Y-81124819D01*
X200545714Y-81124819D02*
X200402857Y-81172438D01*
X200402857Y-81172438D02*
X200355238Y-81220057D01*
X199450476Y-82124819D02*
X199926666Y-82124819D01*
X199926666Y-82124819D02*
X199926666Y-81124819D01*
X199117142Y-82124819D02*
X199117142Y-81124819D01*
X198545714Y-82124819D02*
X198974285Y-81553390D01*
X198545714Y-81124819D02*
X199117142Y-81696247D01*
X177103332Y-99117200D02*
X176960475Y-99164819D01*
X176960475Y-99164819D02*
X176722380Y-99164819D01*
X176722380Y-99164819D02*
X176627142Y-99117200D01*
X176627142Y-99117200D02*
X176579523Y-99069580D01*
X176579523Y-99069580D02*
X176531904Y-98974342D01*
X176531904Y-98974342D02*
X176531904Y-98879104D01*
X176531904Y-98879104D02*
X176579523Y-98783866D01*
X176579523Y-98783866D02*
X176627142Y-98736247D01*
X176627142Y-98736247D02*
X176722380Y-98688628D01*
X176722380Y-98688628D02*
X176912856Y-98641009D01*
X176912856Y-98641009D02*
X177008094Y-98593390D01*
X177008094Y-98593390D02*
X177055713Y-98545771D01*
X177055713Y-98545771D02*
X177103332Y-98450533D01*
X177103332Y-98450533D02*
X177103332Y-98355295D01*
X177103332Y-98355295D02*
X177055713Y-98260057D01*
X177055713Y-98260057D02*
X177008094Y-98212438D01*
X177008094Y-98212438D02*
X176912856Y-98164819D01*
X176912856Y-98164819D02*
X176674761Y-98164819D01*
X176674761Y-98164819D02*
X176531904Y-98212438D01*
X176103332Y-99164819D02*
X176103332Y-98164819D01*
X176103332Y-98164819D02*
X175769999Y-98879104D01*
X175769999Y-98879104D02*
X175436666Y-98164819D01*
X175436666Y-98164819D02*
X175436666Y-99164819D01*
X175008094Y-99117200D02*
X174865237Y-99164819D01*
X174865237Y-99164819D02*
X174627142Y-99164819D01*
X174627142Y-99164819D02*
X174531904Y-99117200D01*
X174531904Y-99117200D02*
X174484285Y-99069580D01*
X174484285Y-99069580D02*
X174436666Y-98974342D01*
X174436666Y-98974342D02*
X174436666Y-98879104D01*
X174436666Y-98879104D02*
X174484285Y-98783866D01*
X174484285Y-98783866D02*
X174531904Y-98736247D01*
X174531904Y-98736247D02*
X174627142Y-98688628D01*
X174627142Y-98688628D02*
X174817618Y-98641009D01*
X174817618Y-98641009D02*
X174912856Y-98593390D01*
X174912856Y-98593390D02*
X174960475Y-98545771D01*
X174960475Y-98545771D02*
X175008094Y-98450533D01*
X175008094Y-98450533D02*
X175008094Y-98355295D01*
X175008094Y-98355295D02*
X174960475Y-98260057D01*
X174960475Y-98260057D02*
X174912856Y-98212438D01*
X174912856Y-98212438D02*
X174817618Y-98164819D01*
X174817618Y-98164819D02*
X174579523Y-98164819D01*
X174579523Y-98164819D02*
X174436666Y-98212438D01*
X157441904Y-103102438D02*
X157537142Y-103054819D01*
X157537142Y-103054819D02*
X157679999Y-103054819D01*
X157679999Y-103054819D02*
X157822856Y-103102438D01*
X157822856Y-103102438D02*
X157918094Y-103197676D01*
X157918094Y-103197676D02*
X157965713Y-103292914D01*
X157965713Y-103292914D02*
X158013332Y-103483390D01*
X158013332Y-103483390D02*
X158013332Y-103626247D01*
X158013332Y-103626247D02*
X157965713Y-103816723D01*
X157965713Y-103816723D02*
X157918094Y-103911961D01*
X157918094Y-103911961D02*
X157822856Y-104007200D01*
X157822856Y-104007200D02*
X157679999Y-104054819D01*
X157679999Y-104054819D02*
X157584761Y-104054819D01*
X157584761Y-104054819D02*
X157441904Y-104007200D01*
X157441904Y-104007200D02*
X157394285Y-103959580D01*
X157394285Y-103959580D02*
X157394285Y-103626247D01*
X157394285Y-103626247D02*
X157584761Y-103626247D01*
X156965713Y-104054819D02*
X156965713Y-103054819D01*
X156965713Y-103054819D02*
X156394285Y-104054819D01*
X156394285Y-104054819D02*
X156394285Y-103054819D01*
X155918094Y-104054819D02*
X155918094Y-103054819D01*
X155918094Y-103054819D02*
X155679999Y-103054819D01*
X155679999Y-103054819D02*
X155537142Y-103102438D01*
X155537142Y-103102438D02*
X155441904Y-103197676D01*
X155441904Y-103197676D02*
X155394285Y-103292914D01*
X155394285Y-103292914D02*
X155346666Y-103483390D01*
X155346666Y-103483390D02*
X155346666Y-103626247D01*
X155346666Y-103626247D02*
X155394285Y-103816723D01*
X155394285Y-103816723D02*
X155441904Y-103911961D01*
X155441904Y-103911961D02*
X155537142Y-104007200D01*
X155537142Y-104007200D02*
X155679999Y-104054819D01*
X155679999Y-104054819D02*
X155918094Y-104054819D01*
X147993332Y-113604819D02*
X147993332Y-112604819D01*
X147993332Y-112604819D02*
X147755237Y-112604819D01*
X147755237Y-112604819D02*
X147612380Y-112652438D01*
X147612380Y-112652438D02*
X147517142Y-112747676D01*
X147517142Y-112747676D02*
X147469523Y-112842914D01*
X147469523Y-112842914D02*
X147421904Y-113033390D01*
X147421904Y-113033390D02*
X147421904Y-113176247D01*
X147421904Y-113176247D02*
X147469523Y-113366723D01*
X147469523Y-113366723D02*
X147517142Y-113461961D01*
X147517142Y-113461961D02*
X147612380Y-113557200D01*
X147612380Y-113557200D02*
X147755237Y-113604819D01*
X147755237Y-113604819D02*
X147993332Y-113604819D01*
X147088570Y-112604819D02*
X146850475Y-113604819D01*
X146850475Y-113604819D02*
X146659999Y-112890533D01*
X146659999Y-112890533D02*
X146469523Y-113604819D01*
X146469523Y-113604819D02*
X146231428Y-112604819D01*
X151221904Y-107452438D02*
X151317142Y-107404819D01*
X151317142Y-107404819D02*
X151459999Y-107404819D01*
X151459999Y-107404819D02*
X151602856Y-107452438D01*
X151602856Y-107452438D02*
X151698094Y-107547676D01*
X151698094Y-107547676D02*
X151745713Y-107642914D01*
X151745713Y-107642914D02*
X151793332Y-107833390D01*
X151793332Y-107833390D02*
X151793332Y-107976247D01*
X151793332Y-107976247D02*
X151745713Y-108166723D01*
X151745713Y-108166723D02*
X151698094Y-108261961D01*
X151698094Y-108261961D02*
X151602856Y-108357200D01*
X151602856Y-108357200D02*
X151459999Y-108404819D01*
X151459999Y-108404819D02*
X151364761Y-108404819D01*
X151364761Y-108404819D02*
X151221904Y-108357200D01*
X151221904Y-108357200D02*
X151174285Y-108309580D01*
X151174285Y-108309580D02*
X151174285Y-107976247D01*
X151174285Y-107976247D02*
X151364761Y-107976247D01*
X150745713Y-108404819D02*
X150745713Y-107404819D01*
X150745713Y-107404819D02*
X150174285Y-108404819D01*
X150174285Y-108404819D02*
X150174285Y-107404819D01*
X149698094Y-108404819D02*
X149698094Y-107404819D01*
X149698094Y-107404819D02*
X149459999Y-107404819D01*
X149459999Y-107404819D02*
X149317142Y-107452438D01*
X149317142Y-107452438D02*
X149221904Y-107547676D01*
X149221904Y-107547676D02*
X149174285Y-107642914D01*
X149174285Y-107642914D02*
X149126666Y-107833390D01*
X149126666Y-107833390D02*
X149126666Y-107976247D01*
X149126666Y-107976247D02*
X149174285Y-108166723D01*
X149174285Y-108166723D02*
X149221904Y-108261961D01*
X149221904Y-108261961D02*
X149317142Y-108357200D01*
X149317142Y-108357200D02*
X149459999Y-108404819D01*
X149459999Y-108404819D02*
X149698094Y-108404819D01*
X162038094Y-113604819D02*
X162038094Y-112604819D01*
X162038094Y-112604819D02*
X161799999Y-112604819D01*
X161799999Y-112604819D02*
X161657142Y-112652438D01*
X161657142Y-112652438D02*
X161561904Y-112747676D01*
X161561904Y-112747676D02*
X161514285Y-112842914D01*
X161514285Y-112842914D02*
X161466666Y-113033390D01*
X161466666Y-113033390D02*
X161466666Y-113176247D01*
X161466666Y-113176247D02*
X161514285Y-113366723D01*
X161514285Y-113366723D02*
X161561904Y-113461961D01*
X161561904Y-113461961D02*
X161657142Y-113557200D01*
X161657142Y-113557200D02*
X161799999Y-113604819D01*
X161799999Y-113604819D02*
X162038094Y-113604819D01*
X161133332Y-112604819D02*
X160514285Y-112604819D01*
X160514285Y-112604819D02*
X160847618Y-112985771D01*
X160847618Y-112985771D02*
X160704761Y-112985771D01*
X160704761Y-112985771D02*
X160609523Y-113033390D01*
X160609523Y-113033390D02*
X160561904Y-113081009D01*
X160561904Y-113081009D02*
X160514285Y-113176247D01*
X160514285Y-113176247D02*
X160514285Y-113414342D01*
X160514285Y-113414342D02*
X160561904Y-113509580D01*
X160561904Y-113509580D02*
X160609523Y-113557200D01*
X160609523Y-113557200D02*
X160704761Y-113604819D01*
X160704761Y-113604819D02*
X160990475Y-113604819D01*
X160990475Y-113604819D02*
X161085713Y-113557200D01*
X161085713Y-113557200D02*
X161133332Y-113509580D01*
X157324761Y-113604819D02*
X157324761Y-112604819D01*
X157324761Y-112604819D02*
X157086666Y-112604819D01*
X157086666Y-112604819D02*
X156943809Y-112652438D01*
X156943809Y-112652438D02*
X156848571Y-112747676D01*
X156848571Y-112747676D02*
X156800952Y-112842914D01*
X156800952Y-112842914D02*
X156753333Y-113033390D01*
X156753333Y-113033390D02*
X156753333Y-113176247D01*
X156753333Y-113176247D02*
X156800952Y-113366723D01*
X156800952Y-113366723D02*
X156848571Y-113461961D01*
X156848571Y-113461961D02*
X156943809Y-113557200D01*
X156943809Y-113557200D02*
X157086666Y-113604819D01*
X157086666Y-113604819D02*
X157324761Y-113604819D01*
X155896190Y-112938152D02*
X155896190Y-113604819D01*
X156134285Y-112557200D02*
X156372380Y-113271485D01*
X156372380Y-113271485D02*
X155753333Y-113271485D01*
X168027743Y-103792786D02*
X167265839Y-103792786D01*
X167646791Y-104173739D02*
X167646791Y-103411834D01*
X166313458Y-103173739D02*
X166789648Y-103173739D01*
X166789648Y-103173739D02*
X166837267Y-103649929D01*
X166837267Y-103649929D02*
X166789648Y-103602310D01*
X166789648Y-103602310D02*
X166694410Y-103554691D01*
X166694410Y-103554691D02*
X166456315Y-103554691D01*
X166456315Y-103554691D02*
X166361077Y-103602310D01*
X166361077Y-103602310D02*
X166313458Y-103649929D01*
X166313458Y-103649929D02*
X166265839Y-103745167D01*
X166265839Y-103745167D02*
X166265839Y-103983262D01*
X166265839Y-103983262D02*
X166313458Y-104078500D01*
X166313458Y-104078500D02*
X166361077Y-104126120D01*
X166361077Y-104126120D02*
X166456315Y-104173739D01*
X166456315Y-104173739D02*
X166694410Y-104173739D01*
X166694410Y-104173739D02*
X166789648Y-104126120D01*
X166789648Y-104126120D02*
X166837267Y-104078500D01*
X165980124Y-103173739D02*
X165646791Y-104173739D01*
X165646791Y-104173739D02*
X165313458Y-103173739D01*
X167995713Y-107913866D02*
X167233809Y-107913866D01*
X167614761Y-108294819D02*
X167614761Y-107532914D01*
X166281428Y-107294819D02*
X166757618Y-107294819D01*
X166757618Y-107294819D02*
X166805237Y-107771009D01*
X166805237Y-107771009D02*
X166757618Y-107723390D01*
X166757618Y-107723390D02*
X166662380Y-107675771D01*
X166662380Y-107675771D02*
X166424285Y-107675771D01*
X166424285Y-107675771D02*
X166329047Y-107723390D01*
X166329047Y-107723390D02*
X166281428Y-107771009D01*
X166281428Y-107771009D02*
X166233809Y-107866247D01*
X166233809Y-107866247D02*
X166233809Y-108104342D01*
X166233809Y-108104342D02*
X166281428Y-108199580D01*
X166281428Y-108199580D02*
X166329047Y-108247200D01*
X166329047Y-108247200D02*
X166424285Y-108294819D01*
X166424285Y-108294819D02*
X166662380Y-108294819D01*
X166662380Y-108294819D02*
X166757618Y-108247200D01*
X166757618Y-108247200D02*
X166805237Y-108199580D01*
X165948094Y-107294819D02*
X165614761Y-108294819D01*
X165614761Y-108294819D02*
X165281428Y-107294819D01*
X143441904Y-98122438D02*
X143537142Y-98074819D01*
X143537142Y-98074819D02*
X143679999Y-98074819D01*
X143679999Y-98074819D02*
X143822856Y-98122438D01*
X143822856Y-98122438D02*
X143918094Y-98217676D01*
X143918094Y-98217676D02*
X143965713Y-98312914D01*
X143965713Y-98312914D02*
X144013332Y-98503390D01*
X144013332Y-98503390D02*
X144013332Y-98646247D01*
X144013332Y-98646247D02*
X143965713Y-98836723D01*
X143965713Y-98836723D02*
X143918094Y-98931961D01*
X143918094Y-98931961D02*
X143822856Y-99027200D01*
X143822856Y-99027200D02*
X143679999Y-99074819D01*
X143679999Y-99074819D02*
X143584761Y-99074819D01*
X143584761Y-99074819D02*
X143441904Y-99027200D01*
X143441904Y-99027200D02*
X143394285Y-98979580D01*
X143394285Y-98979580D02*
X143394285Y-98646247D01*
X143394285Y-98646247D02*
X143584761Y-98646247D01*
X142965713Y-99074819D02*
X142965713Y-98074819D01*
X142965713Y-98074819D02*
X142394285Y-99074819D01*
X142394285Y-99074819D02*
X142394285Y-98074819D01*
X141918094Y-99074819D02*
X141918094Y-98074819D01*
X141918094Y-98074819D02*
X141679999Y-98074819D01*
X141679999Y-98074819D02*
X141537142Y-98122438D01*
X141537142Y-98122438D02*
X141441904Y-98217676D01*
X141441904Y-98217676D02*
X141394285Y-98312914D01*
X141394285Y-98312914D02*
X141346666Y-98503390D01*
X141346666Y-98503390D02*
X141346666Y-98646247D01*
X141346666Y-98646247D02*
X141394285Y-98836723D01*
X141394285Y-98836723D02*
X141441904Y-98931961D01*
X141441904Y-98931961D02*
X141537142Y-99027200D01*
X141537142Y-99027200D02*
X141679999Y-99074819D01*
X141679999Y-99074819D02*
X141918094Y-99074819D01*
%TO.C,TP6*%
X150563333Y-109660000D02*
X150563333Y-112260000D01*
X150563333Y-112260000D02*
X153163333Y-112260000D01*
X153163333Y-109660000D02*
X150563333Y-109660000D01*
X153163333Y-112260000D02*
X153163333Y-109660000D01*
%TO.C,TP7*%
X169416667Y-109660000D02*
X169416667Y-112260000D01*
X169416667Y-112260000D02*
X172016667Y-112260000D01*
X172016667Y-109660000D02*
X169416667Y-109660000D01*
X172016667Y-112260000D02*
X172016667Y-109660000D01*
%TO.C,TP8*%
X164703333Y-109660000D02*
X164703333Y-112260000D01*
X164703333Y-112260000D02*
X167303333Y-112260000D01*
X167303333Y-109660000D02*
X164703333Y-109660000D01*
X167303333Y-112260000D02*
X167303333Y-109660000D01*
%TO.C,J16*%
X145391940Y-101468920D02*
G75*
G02*
X143091940Y-101468920I-1150000J0D01*
G01*
X143091940Y-101468920D02*
G75*
G02*
X145391940Y-101468920I1150000J0D01*
G01*
%TO.C,TP11*%
X174130000Y-109660000D02*
X174130000Y-112260000D01*
X174130000Y-112260000D02*
X176730000Y-112260000D01*
X176730000Y-109660000D02*
X174130000Y-109660000D01*
X176730000Y-112260000D02*
X176730000Y-109660000D01*
%TO.C,TP4*%
X174100000Y-104400000D02*
X174100000Y-107000000D01*
X174100000Y-107000000D02*
X176700000Y-107000000D01*
X176700000Y-104400000D02*
X174100000Y-104400000D01*
X176700000Y-107000000D02*
X176700000Y-104400000D01*
%TO.C,J3*%
X200910000Y-79420000D02*
G75*
G02*
X198610000Y-79420000I-1150000J0D01*
G01*
X198610000Y-79420000D02*
G75*
G02*
X200910000Y-79420000I1150000J0D01*
G01*
%TO.C,J4*%
X176642070Y-96468930D02*
G75*
G02*
X174342070Y-96468930I-1150000J0D01*
G01*
X174342070Y-96468930D02*
G75*
G02*
X176642070Y-96468930I1150000J0D01*
G01*
%TO.C,J2*%
X157892050Y-101468920D02*
G75*
G02*
X155592050Y-101468920I-1150000J0D01*
G01*
X155592050Y-101468920D02*
G75*
G02*
X157892050Y-101468920I1150000J0D01*
G01*
%TO.C,TP5*%
X145850000Y-109660000D02*
X145850000Y-112260000D01*
X145850000Y-112260000D02*
X148450000Y-112260000D01*
X148450000Y-109660000D02*
X145850000Y-109660000D01*
X148450000Y-112260000D02*
X148450000Y-109660000D01*
%TO.C,TP2*%
X149150000Y-104460000D02*
X149150000Y-107060000D01*
X149150000Y-107060000D02*
X151750000Y-107060000D01*
X151750000Y-104460000D02*
X149150000Y-104460000D01*
X151750000Y-107060000D02*
X151750000Y-104460000D01*
%TO.C,TP9*%
X159990000Y-109660000D02*
X159990000Y-112260000D01*
X159990000Y-112260000D02*
X162590000Y-112260000D01*
X162590000Y-109660000D02*
X159990000Y-109660000D01*
X162590000Y-112260000D02*
X162590000Y-109660000D01*
%TO.C,TP10*%
X155276667Y-109660000D02*
X155276667Y-112260000D01*
X155276667Y-112260000D02*
X157876667Y-112260000D01*
X157876667Y-109660000D02*
X155276667Y-109660000D01*
X157876667Y-112260000D02*
X157876667Y-109660000D01*
%TO.C,J1*%
X167892030Y-101468920D02*
G75*
G02*
X165592030Y-101468920I-1150000J0D01*
G01*
X165592030Y-101468920D02*
G75*
G02*
X167892030Y-101468920I1150000J0D01*
G01*
%TO.C,TP1*%
X165400000Y-104350000D02*
X165400000Y-106950000D01*
X165400000Y-106950000D02*
X168000000Y-106950000D01*
X168000000Y-104350000D02*
X165400000Y-104350000D01*
X168000000Y-106950000D02*
X168000000Y-104350000D01*
%TO.C,J15*%
X144142010Y-96468930D02*
G75*
G02*
X141842010Y-96468930I-1150000J0D01*
G01*
X141842010Y-96468930D02*
G75*
G02*
X144142010Y-96468930I1150000J0D01*
G01*
%TD*%
%LPC*%
D13*
%TO.C,J17*%
X175170000Y-68810000D03*
X175170000Y-68310000D03*
X175170000Y-67810000D03*
X175170000Y-67310000D03*
X175170000Y-66810000D03*
X175170000Y-66310000D03*
X175170000Y-65810000D03*
X175170000Y-65310000D03*
X175170000Y-64810000D03*
X175170000Y-64310000D03*
X175170000Y-63810000D03*
X175170000Y-63310000D03*
X175170000Y-62810000D03*
X175170000Y-62310000D03*
X175170000Y-61810000D03*
X175170000Y-61310000D03*
%TD*%
D14*
%TO.C,TP6*%
X151863333Y-110960000D03*
%TD*%
%TO.C,TP7*%
X170716667Y-110960000D03*
%TD*%
%TO.C,TP8*%
X166003333Y-110960000D03*
%TD*%
D15*
%TO.C,J16*%
X144241940Y-101468920D03*
%TD*%
D14*
%TO.C,TP11*%
X175430000Y-110960000D03*
%TD*%
%TO.C,TP4*%
X175400000Y-105700000D03*
%TD*%
D15*
%TO.C,J3*%
X199760000Y-79420000D03*
%TD*%
%TO.C,J4*%
X175492070Y-96468930D03*
%TD*%
%TO.C,J2*%
X156742050Y-101468920D03*
%TD*%
D14*
%TO.C,TP5*%
X147150000Y-110960000D03*
%TD*%
%TO.C,TP2*%
X150450000Y-105760000D03*
%TD*%
%TO.C,TP9*%
X161290000Y-110960000D03*
%TD*%
%TO.C,TP10*%
X156576667Y-110960000D03*
%TD*%
D15*
%TO.C,J1*%
X166742030Y-101468920D03*
%TD*%
D14*
%TO.C,TP1*%
X166700000Y-105650000D03*
%TD*%
D15*
%TO.C,J15*%
X142992010Y-96468930D03*
%TD*%
%LPD*%
M02*
