%TF.GenerationSoftware,KiCad,Pcbnew,9.0.5*%
%TF.CreationDate,2025-10-30T22:29:35+00:00*%
%TF.ProjectId,InstallationFlexWithSolderPoints,496e7374-616c-46c6-9174-696f6e466c65,rev?*%
%TF.SameCoordinates,Original*%
%TF.FileFunction,Legend,Bot*%
%TF.FilePolarity,Positive*%
%FSLAX46Y46*%
G04 Gerber Fmt 4.6, Leading zero omitted, Abs format (unit mm)*
G04 Created by KiCad (PCBNEW 9.0.5) date 2025-10-30 22:29:35*
%MOMM*%
%LPD*%
G01*
G04 APERTURE LIST*
%ADD10C,0.400000*%
%ADD11C,0.150000*%
%ADD12C,0.300000*%
%ADD13C,2.500000*%
%ADD14R,2.000000X2.000000*%
%ADD15C,1.800000*%
G04 APERTURE END LIST*
D10*
X143193023Y-129589200D02*
X142907309Y-129684438D01*
X142907309Y-129684438D02*
X142431118Y-129684438D01*
X142431118Y-129684438D02*
X142240642Y-129589200D01*
X142240642Y-129589200D02*
X142145404Y-129493961D01*
X142145404Y-129493961D02*
X142050166Y-129303485D01*
X142050166Y-129303485D02*
X142050166Y-129113009D01*
X142050166Y-129113009D02*
X142145404Y-128922533D01*
X142145404Y-128922533D02*
X142240642Y-128827295D01*
X142240642Y-128827295D02*
X142431118Y-128732057D01*
X142431118Y-128732057D02*
X142812071Y-128636819D01*
X142812071Y-128636819D02*
X143002547Y-128541580D01*
X143002547Y-128541580D02*
X143097785Y-128446342D01*
X143097785Y-128446342D02*
X143193023Y-128255866D01*
X143193023Y-128255866D02*
X143193023Y-128065390D01*
X143193023Y-128065390D02*
X143097785Y-127874914D01*
X143097785Y-127874914D02*
X143002547Y-127779676D01*
X143002547Y-127779676D02*
X142812071Y-127684438D01*
X142812071Y-127684438D02*
X142335880Y-127684438D01*
X142335880Y-127684438D02*
X142050166Y-127779676D01*
X140050166Y-129493961D02*
X140145404Y-129589200D01*
X140145404Y-129589200D02*
X140431118Y-129684438D01*
X140431118Y-129684438D02*
X140621594Y-129684438D01*
X140621594Y-129684438D02*
X140907309Y-129589200D01*
X140907309Y-129589200D02*
X141097785Y-129398723D01*
X141097785Y-129398723D02*
X141193023Y-129208247D01*
X141193023Y-129208247D02*
X141288261Y-128827295D01*
X141288261Y-128827295D02*
X141288261Y-128541580D01*
X141288261Y-128541580D02*
X141193023Y-128160628D01*
X141193023Y-128160628D02*
X141097785Y-127970152D01*
X141097785Y-127970152D02*
X140907309Y-127779676D01*
X140907309Y-127779676D02*
X140621594Y-127684438D01*
X140621594Y-127684438D02*
X140431118Y-127684438D01*
X140431118Y-127684438D02*
X140145404Y-127779676D01*
X140145404Y-127779676D02*
X140050166Y-127874914D01*
X138050166Y-129684438D02*
X138716833Y-128732057D01*
X139193023Y-129684438D02*
X139193023Y-127684438D01*
X139193023Y-127684438D02*
X138431118Y-127684438D01*
X138431118Y-127684438D02*
X138240642Y-127779676D01*
X138240642Y-127779676D02*
X138145404Y-127874914D01*
X138145404Y-127874914D02*
X138050166Y-128065390D01*
X138050166Y-128065390D02*
X138050166Y-128351104D01*
X138050166Y-128351104D02*
X138145404Y-128541580D01*
X138145404Y-128541580D02*
X138240642Y-128636819D01*
X138240642Y-128636819D02*
X138431118Y-128732057D01*
X138431118Y-128732057D02*
X139193023Y-128732057D01*
X137193023Y-128636819D02*
X136526356Y-128636819D01*
X136240642Y-129684438D02*
X137193023Y-129684438D01*
X137193023Y-129684438D02*
X137193023Y-127684438D01*
X137193023Y-127684438D02*
X136240642Y-127684438D01*
X135383499Y-128636819D02*
X134716832Y-128636819D01*
X134431118Y-129684438D02*
X135383499Y-129684438D01*
X135383499Y-129684438D02*
X135383499Y-127684438D01*
X135383499Y-127684438D02*
X134431118Y-127684438D01*
X133573975Y-129684438D02*
X133573975Y-127684438D01*
X133573975Y-127684438D02*
X132431118Y-129684438D01*
X132431118Y-129684438D02*
X132431118Y-127684438D01*
X129288260Y-128636819D02*
X129954927Y-128636819D01*
X129954927Y-129684438D02*
X129954927Y-127684438D01*
X129954927Y-127684438D02*
X129002546Y-127684438D01*
X127097784Y-129684438D02*
X127764451Y-128732057D01*
X128240641Y-129684438D02*
X128240641Y-127684438D01*
X128240641Y-127684438D02*
X127478736Y-127684438D01*
X127478736Y-127684438D02*
X127288260Y-127779676D01*
X127288260Y-127779676D02*
X127193022Y-127874914D01*
X127193022Y-127874914D02*
X127097784Y-128065390D01*
X127097784Y-128065390D02*
X127097784Y-128351104D01*
X127097784Y-128351104D02*
X127193022Y-128541580D01*
X127193022Y-128541580D02*
X127288260Y-128636819D01*
X127288260Y-128636819D02*
X127478736Y-128732057D01*
X127478736Y-128732057D02*
X128240641Y-128732057D01*
X125859689Y-127684438D02*
X125478736Y-127684438D01*
X125478736Y-127684438D02*
X125288260Y-127779676D01*
X125288260Y-127779676D02*
X125097784Y-127970152D01*
X125097784Y-127970152D02*
X125002546Y-128351104D01*
X125002546Y-128351104D02*
X125002546Y-129017771D01*
X125002546Y-129017771D02*
X125097784Y-129398723D01*
X125097784Y-129398723D02*
X125288260Y-129589200D01*
X125288260Y-129589200D02*
X125478736Y-129684438D01*
X125478736Y-129684438D02*
X125859689Y-129684438D01*
X125859689Y-129684438D02*
X126050165Y-129589200D01*
X126050165Y-129589200D02*
X126240641Y-129398723D01*
X126240641Y-129398723D02*
X126335879Y-129017771D01*
X126335879Y-129017771D02*
X126335879Y-128351104D01*
X126335879Y-128351104D02*
X126240641Y-127970152D01*
X126240641Y-127970152D02*
X126050165Y-127779676D01*
X126050165Y-127779676D02*
X125859689Y-127684438D01*
X124145403Y-129684438D02*
X124145403Y-127684438D01*
X124145403Y-127684438D02*
X123002546Y-129684438D01*
X123002546Y-129684438D02*
X123002546Y-127684438D01*
X122335879Y-127684438D02*
X121193022Y-127684438D01*
X121764451Y-129684438D02*
X121764451Y-127684438D01*
X143699500Y-140903000D02*
X143699500Y-142500000D01*
X169519500Y-140903000D02*
X169519500Y-142500000D01*
X132147169Y-140903000D02*
X132147169Y-142500000D01*
X145499500Y-140903000D02*
X145499500Y-142500000D01*
X164179500Y-140903000D02*
X164179500Y-142500000D01*
X131247169Y-140903000D02*
X131247169Y-142500000D01*
X126797169Y-140903000D02*
X126797169Y-142500000D01*
X129477169Y-140903000D02*
X129477169Y-142500000D01*
X168629500Y-140903000D02*
X168629500Y-142500000D01*
X121456635Y-140903000D02*
X121456635Y-142500000D01*
X174859500Y-140903000D02*
X174859500Y-142500000D01*
X150839500Y-140903000D02*
X150839500Y-142500000D01*
X153499500Y-140903000D02*
X153499500Y-142500000D01*
X127687169Y-140903000D02*
X127687169Y-142500000D01*
X159739500Y-140903000D02*
X159739500Y-142500000D01*
X135698626Y-140903000D02*
X135698626Y-142500000D01*
X173079500Y-140903000D02*
X173079500Y-142500000D01*
X151729500Y-140903000D02*
X151729500Y-142500000D01*
X172189500Y-140903000D02*
X172189500Y-142500000D01*
X156179500Y-140903000D02*
X156179500Y-142500000D01*
X147269500Y-140903000D02*
X147269500Y-142500000D01*
X133918626Y-140903000D02*
X133918626Y-142500000D01*
X170409500Y-140903000D02*
X170409500Y-142500000D01*
X165079500Y-140903000D02*
X165079500Y-142500000D01*
X154389500Y-140903000D02*
X154389500Y-142500000D01*
X141038626Y-140903000D02*
X141038626Y-142500000D01*
X149949500Y-140903000D02*
X149949500Y-142500000D01*
X177529500Y-140903000D02*
X177529500Y-142500000D01*
X157949500Y-140903000D02*
X157949500Y-142500000D01*
X138368626Y-140903000D02*
X138368626Y-142500000D01*
X175749500Y-140903000D02*
X175749500Y-142500000D01*
X165959500Y-140903000D02*
X165959500Y-142500000D01*
X160619500Y-140903000D02*
X160619500Y-142500000D01*
X166839500Y-140903000D02*
X166839500Y-142500000D01*
X162399500Y-140903000D02*
X162399500Y-142500000D01*
X133037169Y-140903000D02*
X133037169Y-142500000D01*
X125916635Y-140903000D02*
X125916635Y-142500000D01*
X176639500Y-140903000D02*
X176639500Y-142500000D01*
X125026635Y-140903000D02*
X125026635Y-142500000D01*
X139268626Y-140903000D02*
X139268626Y-142500000D01*
X141929500Y-140903000D02*
X141929500Y-142500000D01*
X120566635Y-140903000D02*
X120566635Y-142500000D01*
X136598626Y-140903000D02*
X136598626Y-142500000D01*
X123236635Y-140903000D02*
X123236635Y-142500000D01*
X140158626Y-140903000D02*
X140158626Y-142500000D01*
X137478626Y-140903000D02*
X137478626Y-142500000D01*
X167739500Y-140903000D02*
X167739500Y-142500000D01*
X134808626Y-140903000D02*
X134808626Y-142500000D01*
X128577169Y-140903000D02*
X128577169Y-142500000D01*
X122356635Y-140903000D02*
X122356635Y-142500000D01*
X148159500Y-140903000D02*
X148159500Y-142500000D01*
X119676635Y-140903000D02*
X119676635Y-142500000D01*
X124126635Y-140903000D02*
X124126635Y-142500000D01*
X155279500Y-140903000D02*
X155279500Y-142500000D01*
X130357169Y-140903000D02*
X130357169Y-142500000D01*
X149039500Y-140903000D02*
X149039500Y-142500000D01*
X158849500Y-140903000D02*
X158849500Y-142500000D01*
X157059500Y-140903000D02*
X157059500Y-142500000D01*
X173969500Y-140903000D02*
X173969500Y-142500000D01*
D11*
X145889500Y-143103000D02*
X145889500Y-141103000D01*
X162019500Y-141103000D02*
X161029500Y-141103000D01*
X163809500Y-143103000D02*
X163809500Y-141103000D01*
X177510690Y-140278000D02*
X177985690Y-139803000D01*
X171809500Y-143103000D02*
X171809500Y-141103000D01*
X153109500Y-141103000D02*
X152119500Y-141103000D01*
X163809500Y-141103000D02*
X162819500Y-141103000D01*
X143319500Y-143103000D02*
X143319500Y-141103000D01*
X170819500Y-143103000D02*
X170819500Y-141103000D01*
D12*
X132289023Y-133057323D02*
X132289023Y-130877323D01*
D11*
X162019500Y-143103000D02*
X162019500Y-141103000D01*
X144129500Y-143103000D02*
X144129500Y-141103000D01*
D12*
X132290219Y-130876127D02*
X131302474Y-131863872D01*
D11*
X146879500Y-141103000D02*
X145889500Y-141103000D01*
X142329500Y-143103000D02*
X142329500Y-141103000D01*
D12*
X132290000Y-130874323D02*
X133274049Y-131858372D01*
D11*
X153109500Y-143103000D02*
X153109500Y-141103000D01*
X171809500Y-141103000D02*
X170819500Y-141103000D01*
X122459500Y-136328000D02*
X179559500Y-136328000D01*
X161029500Y-143103000D02*
X161029500Y-141103000D01*
X152119500Y-143103000D02*
X152119500Y-141103000D01*
X162819500Y-143103000D02*
X162819500Y-141103000D01*
X177510690Y-138778000D02*
X177510690Y-140278000D01*
X143319500Y-141103000D02*
X142329500Y-141103000D01*
X145119500Y-143103000D02*
X145119500Y-141103000D01*
X145119500Y-141103000D02*
X144129500Y-141103000D01*
X177510690Y-140278000D02*
X177035690Y-139803000D01*
X146879500Y-143103000D02*
X146879500Y-141103000D01*
X179058309Y-138219819D02*
X179534499Y-138219819D01*
X179534499Y-138219819D02*
X179534499Y-137219819D01*
X178153547Y-138124580D02*
X178201166Y-138172200D01*
X178201166Y-138172200D02*
X178344023Y-138219819D01*
X178344023Y-138219819D02*
X178439261Y-138219819D01*
X178439261Y-138219819D02*
X178582118Y-138172200D01*
X178582118Y-138172200D02*
X178677356Y-138076961D01*
X178677356Y-138076961D02*
X178724975Y-137981723D01*
X178724975Y-137981723D02*
X178772594Y-137791247D01*
X178772594Y-137791247D02*
X178772594Y-137648390D01*
X178772594Y-137648390D02*
X178724975Y-137457914D01*
X178724975Y-137457914D02*
X178677356Y-137362676D01*
X178677356Y-137362676D02*
X178582118Y-137267438D01*
X178582118Y-137267438D02*
X178439261Y-137219819D01*
X178439261Y-137219819D02*
X178344023Y-137219819D01*
X178344023Y-137219819D02*
X178201166Y-137267438D01*
X178201166Y-137267438D02*
X178153547Y-137315057D01*
X177724975Y-138219819D02*
X177724975Y-137219819D01*
X177724975Y-137219819D02*
X177486880Y-137219819D01*
X177486880Y-137219819D02*
X177344023Y-137267438D01*
X177344023Y-137267438D02*
X177248785Y-137362676D01*
X177248785Y-137362676D02*
X177201166Y-137457914D01*
X177201166Y-137457914D02*
X177153547Y-137648390D01*
X177153547Y-137648390D02*
X177153547Y-137791247D01*
X177153547Y-137791247D02*
X177201166Y-137981723D01*
X177201166Y-137981723D02*
X177248785Y-138076961D01*
X177248785Y-138076961D02*
X177344023Y-138172200D01*
X177344023Y-138172200D02*
X177486880Y-138219819D01*
X177486880Y-138219819D02*
X177724975Y-138219819D01*
X175439261Y-138219819D02*
X176010689Y-138219819D01*
X175724975Y-138219819D02*
X175724975Y-137219819D01*
X175724975Y-137219819D02*
X175820213Y-137362676D01*
X175820213Y-137362676D02*
X175915451Y-137457914D01*
X175915451Y-137457914D02*
X176010689Y-137505533D01*
%TO.C,TP6*%
X148972833Y-131763000D02*
X148972833Y-134363000D01*
X148972833Y-134363000D02*
X151572833Y-134363000D01*
X151572833Y-131763000D02*
X148972833Y-131763000D01*
X151572833Y-134363000D02*
X151572833Y-131763000D01*
%TO.C,TP7*%
X167826167Y-131763000D02*
X167826167Y-134363000D01*
X167826167Y-134363000D02*
X170426167Y-134363000D01*
X170426167Y-131763000D02*
X167826167Y-131763000D01*
X170426167Y-134363000D02*
X170426167Y-131763000D01*
%TO.C,TP8*%
X163112833Y-131763000D02*
X163112833Y-134363000D01*
X163112833Y-134363000D02*
X165712833Y-134363000D01*
X165712833Y-131763000D02*
X163112833Y-131763000D01*
X165712833Y-134363000D02*
X165712833Y-131763000D01*
%TO.C,J16*%
X143801440Y-123571920D02*
G75*
G02*
X141501440Y-123571920I-1150000J0D01*
G01*
X141501440Y-123571920D02*
G75*
G02*
X143801440Y-123571920I1150000J0D01*
G01*
%TO.C,TP11*%
X172539500Y-131763000D02*
X172539500Y-134363000D01*
X172539500Y-134363000D02*
X175139500Y-134363000D01*
X175139500Y-131763000D02*
X172539500Y-131763000D01*
X175139500Y-134363000D02*
X175139500Y-131763000D01*
%TO.C,TP4*%
X172509500Y-126503000D02*
X172509500Y-129103000D01*
X172509500Y-129103000D02*
X175109500Y-129103000D01*
X175109500Y-126503000D02*
X172509500Y-126503000D01*
X175109500Y-129103000D02*
X175109500Y-126503000D01*
%TO.C,J3*%
X199319500Y-101523000D02*
G75*
G02*
X197019500Y-101523000I-1150000J0D01*
G01*
X197019500Y-101523000D02*
G75*
G02*
X199319500Y-101523000I1150000J0D01*
G01*
%TO.C,J4*%
X175051570Y-118571930D02*
G75*
G02*
X172751570Y-118571930I-1150000J0D01*
G01*
X172751570Y-118571930D02*
G75*
G02*
X175051570Y-118571930I1150000J0D01*
G01*
%TO.C,J2*%
X156301550Y-123571920D02*
G75*
G02*
X154001550Y-123571920I-1150000J0D01*
G01*
X154001550Y-123571920D02*
G75*
G02*
X156301550Y-123571920I1150000J0D01*
G01*
%TO.C,TP5*%
X144259500Y-131763000D02*
X144259500Y-134363000D01*
X144259500Y-134363000D02*
X146859500Y-134363000D01*
X146859500Y-131763000D02*
X144259500Y-131763000D01*
X146859500Y-134363000D02*
X146859500Y-131763000D01*
%TO.C,TP2*%
X147559500Y-126563000D02*
X147559500Y-129163000D01*
X147559500Y-129163000D02*
X150159500Y-129163000D01*
X150159500Y-126563000D02*
X147559500Y-126563000D01*
X150159500Y-129163000D02*
X150159500Y-126563000D01*
%TO.C,TP9*%
X158399500Y-131763000D02*
X158399500Y-134363000D01*
X158399500Y-134363000D02*
X160999500Y-134363000D01*
X160999500Y-131763000D02*
X158399500Y-131763000D01*
X160999500Y-134363000D02*
X160999500Y-131763000D01*
%TO.C,TP10*%
X153686167Y-131763000D02*
X153686167Y-134363000D01*
X153686167Y-134363000D02*
X156286167Y-134363000D01*
X156286167Y-131763000D02*
X153686167Y-131763000D01*
X156286167Y-134363000D02*
X156286167Y-131763000D01*
%TO.C,J1*%
X166301530Y-123571920D02*
G75*
G02*
X164001530Y-123571920I-1150000J0D01*
G01*
X164001530Y-123571920D02*
G75*
G02*
X166301530Y-123571920I1150000J0D01*
G01*
%TO.C,TP1*%
X163809500Y-126453000D02*
X163809500Y-129053000D01*
X163809500Y-129053000D02*
X166409500Y-129053000D01*
X166409500Y-126453000D02*
X163809500Y-126453000D01*
X166409500Y-129053000D02*
X166409500Y-126453000D01*
%TO.C,J15*%
X142551510Y-118571930D02*
G75*
G02*
X140251510Y-118571930I-1150000J0D01*
G01*
X140251510Y-118571930D02*
G75*
G02*
X142551510Y-118571930I1150000J0D01*
G01*
%TD*%
%LPC*%
D13*
%TO.C,J23*%
X182760000Y-90420000D03*
%TD*%
%TO.C,J24*%
X182760000Y-86450000D03*
%TD*%
%TO.C,J22*%
X182760000Y-94410000D03*
%TD*%
%TO.C,J18*%
X113030000Y-86260000D03*
%TD*%
%TO.C,J25*%
X182760000Y-82410000D03*
%TD*%
%TO.C,J20*%
X105550000Y-86240000D03*
%TD*%
%TO.C,J28*%
X182760000Y-70420000D03*
%TD*%
%TO.C,J26*%
X182760000Y-78410000D03*
%TD*%
%TO.C,J27*%
X182760000Y-74430000D03*
%TD*%
%TO.C,J21*%
X182760000Y-98400000D03*
%TD*%
%TO.C,J29*%
X133060000Y-87780000D03*
%TD*%
D14*
%TO.C,TP6*%
X150272833Y-133063000D03*
%TD*%
%TO.C,TP7*%
X169126167Y-133063000D03*
%TD*%
%TO.C,TP8*%
X164412833Y-133063000D03*
%TD*%
D15*
%TO.C,J16*%
X142651440Y-123571920D03*
%TD*%
D14*
%TO.C,TP11*%
X173839500Y-133063000D03*
%TD*%
%TO.C,TP4*%
X173809500Y-127803000D03*
%TD*%
D15*
%TO.C,J3*%
X198169500Y-101523000D03*
%TD*%
%TO.C,J4*%
X173901570Y-118571930D03*
%TD*%
%TO.C,J2*%
X155151550Y-123571920D03*
%TD*%
D14*
%TO.C,TP5*%
X145559500Y-133063000D03*
%TD*%
%TO.C,TP2*%
X148859500Y-127863000D03*
%TD*%
%TO.C,TP9*%
X159699500Y-133063000D03*
%TD*%
%TO.C,TP10*%
X154986167Y-133063000D03*
%TD*%
D15*
%TO.C,J1*%
X165151530Y-123571920D03*
%TD*%
D14*
%TO.C,TP1*%
X165109500Y-127753000D03*
%TD*%
D15*
%TO.C,J15*%
X141401510Y-118571930D03*
%TD*%
%LPD*%
M02*
