%TF.GenerationSoftware,KiCad,Pcbnew,9.0.5*%
%TF.CreationDate,2025-10-30T22:29:35+00:00*%
%TF.ProjectId,InstallationFlexWithSolderPoints,496e7374-616c-46c6-9174-696f6e466c65,rev?*%
%TF.SameCoordinates,Original*%
%TF.FileFunction,Profile,NP*%
%FSLAX46Y46*%
G04 Gerber Fmt 4.6, Leading zero omitted, Abs format (unit mm)*
G04 Created by KiCad (PCBNEW 9.0.5) date 2025-10-30 22:29:35*
%MOMM*%
%LPD*%
G01*
G04 APERTURE LIST*
%TA.AperFunction,Profile*%
%ADD10C,0.050000*%
%TD*%
G04 APERTURE END LIST*
D10*
X120150000Y-82990000D02*
X124150000Y-84610000D01*
X103700000Y-83000000D02*
X120150000Y-82990000D01*
X203529500Y-121910000D02*
X203529500Y-88910000D01*
X167659500Y-122573000D02*
X177639500Y-122573000D01*
X124533009Y-142921993D02*
G75*
G02*
X123825887Y-142629115I91J1000293D01*
G01*
X142769500Y-119403000D02*
X142769500Y-119603000D01*
X122649500Y-124573000D02*
G75*
G02*
X122649500Y-122573000I-10000J1000000D01*
G01*
X171949500Y-142923000D02*
X175999500Y-142923000D01*
X172520580Y-119403001D02*
G75*
G02*
X175278421Y-119403000I1378920J831101D01*
G01*
X197526394Y-82909894D02*
X203534070Y-88917570D01*
X179369500Y-120103000D02*
X183267179Y-124000679D01*
X175278421Y-119403001D02*
X175978545Y-120103125D01*
X143449500Y-143413000D02*
X143449500Y-142923000D01*
X153239500Y-143413000D02*
X151999500Y-143413000D01*
X194840000Y-91410000D02*
X187000000Y-91410000D01*
X153239500Y-143413000D02*
X153239500Y-142927934D01*
X143449500Y-142923000D02*
X143989500Y-142923000D01*
X187000000Y-67970000D02*
X180000000Y-67970000D01*
X172519500Y-119603000D02*
G75*
G02*
X172019500Y-120103000I-500000J0D01*
G01*
X143449500Y-143413000D02*
X142189500Y-143413000D01*
X179000000Y-100870000D02*
X187000000Y-100870000D01*
X171949500Y-143413000D02*
X171949500Y-142923000D01*
X162669500Y-142913000D02*
X162149500Y-142913000D01*
X151999500Y-142923000D02*
X151999500Y-143413132D01*
X179000000Y-94410000D02*
X176000000Y-91410000D01*
X143269500Y-120103000D02*
G75*
G02*
X142769500Y-119603000I0J500000D01*
G01*
X162149500Y-143413000D02*
X162149500Y-142913000D01*
X145159500Y-124573000D02*
X152639500Y-124573000D01*
X160889500Y-142923000D02*
X160889500Y-143413000D01*
X142189500Y-142923000D02*
X142189500Y-143413000D01*
X157659500Y-122573000D02*
X162639500Y-122573000D01*
X140009500Y-119403000D02*
G75*
G02*
X142767311Y-119402981I1378900J831100D01*
G01*
X181119500Y-138213000D02*
X187220000Y-138213000D01*
X167659550Y-124573000D02*
G75*
G02*
X167659550Y-122573000I-10050J1000000D01*
G01*
X103700000Y-83000000D02*
X103700000Y-91410000D01*
X145249500Y-142923000D02*
X145759500Y-142923000D01*
X172519500Y-119403000D02*
X172519500Y-119603000D01*
X145159500Y-122573000D02*
X152639500Y-122573000D01*
X124150000Y-84610000D02*
X180000000Y-84610000D01*
X160889500Y-142923000D02*
X153239500Y-142923000D01*
X163929500Y-143413000D02*
X163929500Y-142923000D01*
X180000000Y-67970000D02*
X180000000Y-84610000D01*
X160889500Y-143413000D02*
X162149500Y-143413000D01*
X145249500Y-143413000D02*
X145249500Y-142923000D01*
X162669500Y-143413000D02*
X162669500Y-142913000D01*
X162639500Y-122573000D02*
G75*
G02*
X162639500Y-124573000I10000J-1000000D01*
G01*
X145759500Y-142923000D02*
X145759500Y-143413000D01*
X170689500Y-142923000D02*
X170689500Y-143413000D01*
X187000000Y-82910000D02*
X187000000Y-67970000D01*
X181119500Y-138213000D02*
X176703472Y-142629028D01*
X120109550Y-121113000D02*
G75*
G02*
X121109500Y-120103000I999950J10000D01*
G01*
X179000000Y-100870000D02*
X179000000Y-94410000D01*
X157659500Y-124573000D02*
X162639500Y-124573000D01*
X120403208Y-139207005D02*
G75*
G02*
X120110300Y-138499898I707292J707205D01*
G01*
X192124687Y-124003090D02*
X194840146Y-121287631D01*
X172019500Y-120103000D02*
X143269500Y-120103000D01*
X187000000Y-82910000D02*
X197530000Y-82910000D01*
X145159550Y-124573000D02*
G75*
G02*
X145159550Y-122573000I-10050J1000000D01*
G01*
X146999500Y-143413000D02*
X146999500Y-142923000D01*
X140009500Y-119603000D02*
G75*
G02*
X139509500Y-120103000I-500000J0D01*
G01*
X176702558Y-142629942D02*
G75*
G02*
X175995451Y-142922844I-707258J707442D01*
G01*
X170689500Y-142923000D02*
X163929500Y-142923000D01*
X187219334Y-138213166D02*
X203530568Y-121901932D01*
X142189500Y-142923000D02*
X124529500Y-142923000D01*
X187000000Y-100870000D02*
X187000000Y-91410000D01*
X175979500Y-120103000D02*
X179369500Y-120103000D01*
X151999500Y-142923000D02*
X146999500Y-142923000D01*
X140009500Y-119403000D02*
X140009500Y-119603000D01*
X103700000Y-91410000D02*
X176000000Y-91410000D01*
X139509500Y-120103000D02*
X121109500Y-120103000D01*
X157659550Y-124573000D02*
G75*
G02*
X157659550Y-122573000I-10050J1000000D01*
G01*
X120109500Y-138503000D02*
X120109500Y-121113000D01*
X177639550Y-122573000D02*
G75*
G02*
X177639550Y-124573000I10050J-1000000D01*
G01*
X123826521Y-142629902D02*
X120403325Y-139206706D01*
X140139500Y-122573000D02*
G75*
G02*
X140139500Y-124573000I10000J-1000000D01*
G01*
X194840000Y-121290000D02*
X194840000Y-91410000D01*
X167659500Y-124573000D02*
X177639500Y-124573000D01*
X145249500Y-143413000D02*
X143989500Y-143413000D01*
X145759500Y-143413000D02*
X146999500Y-143413000D01*
X122649500Y-124573000D02*
X140139500Y-124573000D01*
X162669500Y-143413000D02*
X163929500Y-143413000D01*
X152639450Y-122573000D02*
G75*
G02*
X152639450Y-124573000I10050J-1000000D01*
G01*
X183269500Y-124003000D02*
X192129500Y-124003000D01*
X170689500Y-143413000D02*
X171949500Y-143413000D01*
X143989500Y-142923000D02*
X143989500Y-143413000D01*
X122649500Y-122573000D02*
X140139500Y-122573000D01*
M02*
