%TF.GenerationSoftware,KiCad,Pcbnew,9.0.5*%
%TF.CreationDate,2025-10-27T19:57:08+00:00*%
%TF.ProjectId,InstallationFlex,496e7374-616c-46c6-9174-696f6e466c65,rev?*%
%TF.SameCoordinates,Original*%
%TF.FileFunction,Copper,L2,Bot*%
%TF.FilePolarity,Positive*%
%FSLAX46Y46*%
G04 Gerber Fmt 4.6, Leading zero omitted, Abs format (unit mm)*
G04 Created by KiCad (PCBNEW 9.0.5) date 2025-10-27 19:57:08*
%MOMM*%
%LPD*%
G01*
G04 APERTURE LIST*
%TA.AperFunction,ConnectorPad*%
%ADD10R,4.000000X0.350000*%
%TD*%
%TA.AperFunction,SMDPad,CuDef*%
%ADD11R,2.000000X2.000000*%
%TD*%
%TA.AperFunction,ComponentPad*%
%ADD12C,1.800000*%
%TD*%
%TA.AperFunction,ViaPad*%
%ADD13C,0.600000*%
%TD*%
%TA.AperFunction,Conductor*%
%ADD14C,0.200000*%
%TD*%
%TA.AperFunction,Conductor*%
%ADD15C,0.500000*%
%TD*%
G04 APERTURE END LIST*
D10*
%TO.P,J17,1,Pin_1*%
%TO.N,SMS*%
X175170000Y-68810000D03*
%TO.P,J17,2,Pin_2*%
%TO.N,+5V*%
X175170000Y-68310000D03*
%TO.P,J17,3,Pin_3*%
X175170000Y-67810000D03*
%TO.P,J17,4,Pin_4*%
%TO.N,GND*%
X175170000Y-67310000D03*
%TO.P,J17,5,Pin_5*%
X175170000Y-66810000D03*
%TO.P,J17,6,Pin_6*%
%TO.N,CLK*%
X175170000Y-66310000D03*
%TO.P,J17,7,Pin_7*%
%TO.N,DW*%
X175170000Y-65810000D03*
%TO.P,J17,8,Pin_8*%
%TO.N,CL2*%
X175170000Y-65310000D03*
%TO.P,J17,9,Pin_9*%
%TO.N,D4*%
X175170000Y-64810000D03*
%TO.P,J17,10,Pin_10*%
%TO.N,D3*%
X175170000Y-64310000D03*
%TO.P,J17,11,Pin_11*%
%TO.N,D2*%
X175170000Y-63810000D03*
%TO.P,J17,12,Pin_12*%
%TO.N,D1*%
X175170000Y-63310000D03*
%TO.P,J17,13,Pin_13*%
%TO.N,BRIGHT*%
X175170000Y-62810000D03*
%TO.P,J17,14,Pin_14*%
%TO.N,START*%
X175170000Y-62310000D03*
%TO.P,J17,15,Pin_15*%
%TO.N,BTN1*%
X175170000Y-61810000D03*
%TO.P,J17,16,Pin_16*%
%TO.N,BTN2*%
X175170000Y-61310000D03*
%TD*%
D11*
%TO.P,TP6,1,1*%
%TO.N,CL2*%
X151863333Y-110960000D03*
%TD*%
%TO.P,TP7,1,1*%
%TO.N,D1*%
X170716667Y-110960000D03*
%TD*%
%TO.P,TP8,1,1*%
%TO.N,D2*%
X166003333Y-110960000D03*
%TD*%
D12*
%TO.P,J16,1,Pin_1*%
%TO.N,GND*%
X144241940Y-101468920D03*
%TD*%
D11*
%TO.P,TP11,1,1*%
%TO.N,BRIGHT*%
X175430000Y-110960000D03*
%TD*%
%TO.P,TP4,1,1*%
%TO.N,SMS*%
X175400000Y-105700000D03*
%TD*%
D12*
%TO.P,J3,1,Pin_1*%
%TO.N,CLK*%
X199760000Y-79420000D03*
%TD*%
%TO.P,J4,1,Pin_1*%
%TO.N,SMS*%
X175492070Y-96468930D03*
%TD*%
%TO.P,J2,1,Pin_1*%
%TO.N,GND*%
X156742050Y-101468920D03*
%TD*%
D11*
%TO.P,TP5,1,1*%
%TO.N,DW*%
X147150000Y-110960000D03*
%TD*%
%TO.P,TP2,1,1*%
%TO.N,GND*%
X150450000Y-105760000D03*
%TD*%
%TO.P,TP9,1,1*%
%TO.N,D3*%
X161290000Y-110960000D03*
%TD*%
%TO.P,TP10,1,1*%
%TO.N,D4*%
X156576667Y-110960000D03*
%TD*%
D12*
%TO.P,J1,1,Pin_1*%
%TO.N,+5V*%
X166742030Y-101468920D03*
%TD*%
D11*
%TO.P,TP1,1,1*%
%TO.N,+5V*%
X166700000Y-105650000D03*
%TD*%
D12*
%TO.P,J15,1,Pin_1*%
%TO.N,GND*%
X142992010Y-96468930D03*
%TD*%
D13*
%TO.N,D1*%
X167630000Y-113900000D03*
X147320000Y-115060000D03*
%TO.N,D2*%
X165050000Y-115190000D03*
X150780000Y-115240000D03*
%TO.N,D4*%
X158850000Y-114500000D03*
X163020000Y-114500000D03*
%TO.N,GND*%
X180740000Y-105460000D03*
X200880000Y-62790000D03*
X198850000Y-85410000D03*
X150430000Y-104040000D03*
X152450970Y-105760000D03*
X178050000Y-67310000D03*
X148533020Y-105760000D03*
%TD*%
D14*
%TO.N,CLK*%
X199760000Y-68480000D02*
X197590000Y-66310000D01*
X197590000Y-66310000D02*
X175180000Y-66310000D01*
X199760000Y-79420000D02*
X199760000Y-68480000D01*
%TO.N,SMS*%
X177278927Y-99670000D02*
X179590000Y-99670000D01*
X175492070Y-96468930D02*
X175492070Y-97883143D01*
X196880000Y-68810000D02*
X175180000Y-68810000D01*
X177300000Y-105700000D02*
X175400000Y-105700000D01*
X197000000Y-99710000D02*
X197000000Y-78116138D01*
X180850000Y-102150000D02*
X177300000Y-105700000D01*
X179730000Y-99670000D02*
X180850000Y-100790000D01*
X194050000Y-102660000D02*
X197000000Y-99710000D01*
X180850000Y-100790000D02*
X180850000Y-102150000D01*
X182720000Y-102660000D02*
X194050000Y-102660000D01*
X197000000Y-78116138D02*
X197380000Y-77736138D01*
X197380000Y-69310000D02*
X196880000Y-68810000D01*
X197380000Y-77736138D02*
X197380000Y-69310000D01*
X175492070Y-97883143D02*
X177278927Y-99670000D01*
X179590000Y-99670000D02*
X179730000Y-99670000D01*
X180850000Y-100790000D02*
X182720000Y-102660000D01*
%TO.N,DW*%
X197640000Y-65810000D02*
X175180000Y-65810000D01*
X202342000Y-84608000D02*
X202342000Y-70512000D01*
X190420000Y-107510000D02*
X199920000Y-98010000D01*
X148950000Y-107510000D02*
X190420000Y-107510000D01*
X199920000Y-87030000D02*
X202342000Y-84608000D01*
X199920000Y-98010000D02*
X199920000Y-87030000D01*
X144410000Y-118500000D02*
X144410000Y-113700000D01*
X144410000Y-113700000D02*
X147150000Y-110960000D01*
X147150000Y-109310000D02*
X148950000Y-107510000D01*
X147150000Y-110960000D02*
X147150000Y-109310000D01*
X202342000Y-70512000D02*
X197640000Y-65810000D01*
%TO.N,CL2*%
X153400000Y-107860000D02*
X190560000Y-107860000D01*
X197680000Y-65310000D02*
X175180000Y-65310000D01*
X200380000Y-98040000D02*
X200380000Y-87040000D01*
X154200000Y-115575000D02*
X151863333Y-113238333D01*
X190560000Y-107860000D02*
X200380000Y-98040000D01*
X202670000Y-70300000D02*
X197680000Y-65310000D01*
X200380000Y-87040000D02*
X202670000Y-84750000D01*
X151863333Y-113238333D02*
X151863333Y-110960000D01*
X202670000Y-84750000D02*
X202670000Y-70300000D01*
X151863333Y-110960000D02*
X151863333Y-109396667D01*
X151863333Y-109396667D02*
X153400000Y-107860000D01*
X154200000Y-118500000D02*
X154200000Y-115575000D01*
%TO.N,D1*%
X172478667Y-109198000D02*
X170716667Y-110960000D01*
X197535448Y-63310000D02*
X203982000Y-69756552D01*
X170716667Y-112853333D02*
X170716667Y-110960000D01*
X175170000Y-63310000D02*
X197535448Y-63310000D01*
X167640000Y-113910000D02*
X169660000Y-113910000D01*
X201718000Y-87589724D02*
X201718000Y-98705862D01*
X169660000Y-113910000D02*
X170716667Y-112853333D01*
X167630000Y-113900000D02*
X167640000Y-113910000D01*
X146180000Y-116200000D02*
X146180000Y-118500000D01*
X203982000Y-69756552D02*
X203982000Y-85325724D01*
X147320000Y-115060000D02*
X146180000Y-116200000D01*
X203982000Y-85325724D02*
X201718000Y-87589724D01*
X201718000Y-98705862D02*
X191225862Y-109198000D01*
X191225862Y-109198000D02*
X172478667Y-109198000D01*
%TO.N,D2*%
X166003333Y-114236667D02*
X166003333Y-110960000D01*
X168101333Y-108862000D02*
X166003333Y-110960000D01*
X190949586Y-108862000D02*
X168101333Y-108862000D01*
X197571586Y-63810000D02*
X203654000Y-69892414D01*
X201366000Y-87477862D02*
X201366000Y-98445586D01*
X148950000Y-115240000D02*
X147970000Y-116220000D01*
X203654000Y-69892414D02*
X203654000Y-85189862D01*
X201366000Y-98445586D02*
X190949586Y-108862000D01*
X165050000Y-115190000D02*
X166003333Y-114236667D01*
X203654000Y-85189862D02*
X201366000Y-87477862D01*
X147970000Y-116220000D02*
X147970000Y-118500000D01*
X150780000Y-115240000D02*
X148950000Y-115240000D01*
X175170000Y-63810000D02*
X197571586Y-63810000D01*
%TO.N,D3*%
X201038000Y-87325862D02*
X201038000Y-98309724D01*
X190813724Y-108534000D02*
X163716000Y-108534000D01*
X163090000Y-115980000D02*
X161290000Y-114180000D01*
X163100000Y-118500000D02*
X163090000Y-118490000D01*
X163716000Y-108534000D02*
X161290000Y-110960000D01*
X175170000Y-64310000D02*
X197607724Y-64310000D01*
X163090000Y-118490000D02*
X163090000Y-115980000D01*
X203326000Y-85037862D02*
X201038000Y-87325862D01*
X197607724Y-64310000D02*
X203326000Y-70028276D01*
X161290000Y-114180000D02*
X161290000Y-110960000D01*
X201038000Y-98309724D02*
X190813724Y-108534000D01*
X203326000Y-70028276D02*
X203326000Y-85037862D01*
%TO.N,BRIGHT*%
X204310000Y-69620000D02*
X197500000Y-62810000D01*
X204310000Y-85553862D02*
X204310000Y-69620000D01*
X172890000Y-113500000D02*
X175430000Y-110960000D01*
X175430000Y-110960000D02*
X190130000Y-110960000D01*
X197500000Y-62810000D02*
X175180000Y-62810000D01*
X190130000Y-110960000D02*
X202160000Y-98930000D01*
X202160000Y-87703862D02*
X204310000Y-85553862D01*
X202160000Y-98930000D02*
X202160000Y-87703862D01*
X172890000Y-117470000D02*
X172890000Y-113500000D01*
%TO.N,D4*%
X159330667Y-108206000D02*
X188874000Y-108206000D01*
X158850000Y-114500000D02*
X156576667Y-112226667D01*
X202998000Y-84902000D02*
X202998000Y-70164138D01*
X188892000Y-108188000D02*
X190695862Y-108188000D01*
X197643862Y-64810000D02*
X175180000Y-64810000D01*
X200710000Y-87190000D02*
X202998000Y-84902000D01*
X202998000Y-70164138D02*
X197643862Y-64810000D01*
X156576667Y-110960000D02*
X159330667Y-108206000D01*
X164880000Y-116360000D02*
X164880000Y-118500000D01*
X190695862Y-108188000D02*
X200710000Y-98173862D01*
X163020000Y-114500000D02*
X164880000Y-116360000D01*
X200710000Y-98173862D02*
X200710000Y-87190000D01*
X156576667Y-112226667D02*
X156576667Y-110960000D01*
X188874000Y-108206000D02*
X188892000Y-108188000D01*
D15*
%TO.N,GND*%
X150450000Y-105760000D02*
X150450000Y-104060000D01*
X150450000Y-104060000D02*
X150430000Y-104040000D01*
D14*
X175170000Y-66810000D02*
X177550000Y-66810000D01*
D15*
X144250000Y-99630000D02*
X144250000Y-101460860D01*
D14*
X177550000Y-66810000D02*
X178050000Y-67310000D01*
D15*
X144241940Y-101468920D02*
X148533020Y-105760000D01*
X144250000Y-101460860D02*
X144241940Y-101468920D01*
X152450970Y-105760000D02*
X150450000Y-105760000D01*
X142992010Y-98372010D02*
X144250000Y-99630000D01*
D14*
X175180000Y-67310000D02*
X178050000Y-67310000D01*
D15*
X142992010Y-96468930D02*
X142992010Y-98372010D01*
X156742050Y-101468920D02*
X152450970Y-105760000D01*
X148533020Y-105760000D02*
X150450000Y-105760000D01*
D14*
%TO.N,+5V*%
X197750000Y-73080000D02*
X197748000Y-73078000D01*
X175170000Y-67810000D02*
X177440000Y-67810000D01*
X190073862Y-107100000D02*
X197328000Y-99845862D01*
X197750000Y-77830000D02*
X197750000Y-73080000D01*
X177940000Y-68310000D02*
X175170000Y-68310000D01*
X197748000Y-73078000D02*
X197748000Y-68748000D01*
X197748000Y-68748000D02*
X197310000Y-68310000D01*
X166742030Y-105607970D02*
X166700000Y-105650000D01*
X197310000Y-68310000D02*
X177940000Y-68310000D01*
X177440000Y-67810000D02*
X177940000Y-68310000D01*
X168150000Y-107100000D02*
X190073862Y-107100000D01*
X197328000Y-78252000D02*
X197750000Y-77830000D01*
X166742030Y-101468920D02*
X166742030Y-105607970D01*
X166700000Y-105650000D02*
X168150000Y-107100000D01*
X197328000Y-99845862D02*
X197328000Y-78252000D01*
%TD*%
%TA.AperFunction,Conductor*%
%TO.N,GND*%
G36*
X143099806Y-95165846D02*
G01*
X143162079Y-95176474D01*
X143297058Y-95199512D01*
X143317313Y-95204760D01*
X143506102Y-95271140D01*
X143525188Y-95279724D01*
X143565537Y-95302143D01*
X143700110Y-95376917D01*
X143717488Y-95388596D01*
X143873559Y-95513832D01*
X143888722Y-95528265D01*
X143974802Y-95625325D01*
X144021495Y-95677974D01*
X144034015Y-95694755D01*
X144139706Y-95864667D01*
X144149225Y-95883316D01*
X144208166Y-96027771D01*
X144224823Y-96068593D01*
X144231068Y-96088579D01*
X144274414Y-96283934D01*
X144277207Y-96304684D01*
X144287066Y-96504535D01*
X144286329Y-96525461D01*
X144262420Y-96724136D01*
X144258172Y-96744638D01*
X144201178Y-96936451D01*
X144193541Y-96955947D01*
X144102571Y-97140540D01*
X144097547Y-97149734D01*
X144075903Y-97185645D01*
X144054365Y-97278363D01*
X144059043Y-97332679D01*
X144059500Y-97343319D01*
X144059500Y-97578846D01*
X144090261Y-97733489D01*
X144090264Y-97733501D01*
X144150602Y-97879172D01*
X144150609Y-97879185D01*
X144238210Y-98010288D01*
X144238213Y-98010292D01*
X144349707Y-98121786D01*
X144349711Y-98121789D01*
X144480814Y-98209390D01*
X144480827Y-98209397D01*
X144626498Y-98269735D01*
X144626503Y-98269737D01*
X144781153Y-98300499D01*
X144781156Y-98300500D01*
X144781158Y-98300500D01*
X173688844Y-98300500D01*
X173688845Y-98300499D01*
X173843497Y-98269737D01*
X173989179Y-98209394D01*
X174120289Y-98121789D01*
X174231789Y-98010289D01*
X174319394Y-97879179D01*
X174379737Y-97733497D01*
X174401317Y-97625006D01*
X174433701Y-97563096D01*
X174494417Y-97528522D01*
X174564186Y-97532261D01*
X174595819Y-97548880D01*
X174758046Y-97666744D01*
X174758048Y-97666745D01*
X174823864Y-97700280D01*
X174874659Y-97748253D01*
X174891569Y-97810764D01*
X174891569Y-97962197D01*
X174891568Y-97962197D01*
X174932493Y-98114928D01*
X174945886Y-98138125D01*
X175011547Y-98251855D01*
X175011551Y-98251860D01*
X175130419Y-98370728D01*
X175130425Y-98370733D01*
X176717511Y-99957819D01*
X176750996Y-100019142D01*
X176746012Y-100088834D01*
X176704140Y-100144767D01*
X176638676Y-100169184D01*
X176629830Y-100169500D01*
X169251941Y-100169500D01*
X169250760Y-100169494D01*
X169144623Y-100168483D01*
X169144622Y-100168483D01*
X169144620Y-100168483D01*
X169144618Y-100168483D01*
X169144606Y-100168484D01*
X168930365Y-100202257D01*
X168930359Y-100202259D01*
X168724652Y-100271058D01*
X168724648Y-100271060D01*
X168533183Y-100372979D01*
X168361234Y-100505214D01*
X168213567Y-100664097D01*
X168156157Y-100751264D01*
X168102843Y-100796423D01*
X168033577Y-100805590D01*
X167970351Y-100775854D01*
X167942116Y-100739355D01*
X167939843Y-100734894D01*
X167810277Y-100556561D01*
X167810273Y-100556556D01*
X167654393Y-100400676D01*
X167654388Y-100400672D01*
X167476055Y-100271107D01*
X167476054Y-100271106D01*
X167476052Y-100271105D01*
X167413126Y-100239042D01*
X167279636Y-100171024D01*
X167279633Y-100171023D01*
X167069982Y-100102905D01*
X166961116Y-100085662D01*
X166852252Y-100068420D01*
X166631808Y-100068420D01*
X166559231Y-100079915D01*
X166414077Y-100102905D01*
X166204426Y-100171023D01*
X166204423Y-100171024D01*
X166008004Y-100271107D01*
X165829671Y-100400672D01*
X165829666Y-100400676D01*
X165673786Y-100556556D01*
X165673782Y-100556561D01*
X165544216Y-100734894D01*
X165540171Y-100742834D01*
X165492194Y-100793628D01*
X165424373Y-100810421D01*
X165358239Y-100787881D01*
X165326130Y-100754738D01*
X165266450Y-100664121D01*
X165266448Y-100664118D01*
X165118790Y-100505236D01*
X165009630Y-100421284D01*
X164946857Y-100373007D01*
X164946855Y-100373006D01*
X164946854Y-100373005D01*
X164755395Y-100271080D01*
X164755389Y-100271078D01*
X164549699Y-100202274D01*
X164389004Y-100176935D01*
X164335441Y-100168489D01*
X164335440Y-100168489D01*
X164335434Y-100168488D01*
X164229319Y-100169494D01*
X164228144Y-100169500D01*
X159251941Y-100169500D01*
X159250760Y-100169494D01*
X159144623Y-100168483D01*
X159144622Y-100168483D01*
X159144620Y-100168483D01*
X159144618Y-100168483D01*
X159144606Y-100168484D01*
X158930365Y-100202257D01*
X158930359Y-100202259D01*
X158724652Y-100271058D01*
X158724648Y-100271060D01*
X158533183Y-100372979D01*
X158361234Y-100505214D01*
X158213567Y-100664097D01*
X158213564Y-100664101D01*
X158094259Y-100845243D01*
X158006601Y-101043654D01*
X157953020Y-101253838D01*
X157953019Y-101253844D01*
X157934993Y-101469998D01*
X157934993Y-101470001D01*
X157953019Y-101686155D01*
X157953020Y-101686161D01*
X157975749Y-101775322D01*
X158006601Y-101896346D01*
X158044091Y-101981203D01*
X158094259Y-102094756D01*
X158213552Y-102275880D01*
X158213567Y-102275902D01*
X158361234Y-102434786D01*
X158533177Y-102567016D01*
X158533179Y-102567017D01*
X158533183Y-102567020D01*
X158652474Y-102630520D01*
X158724649Y-102668940D01*
X158930357Y-102737740D01*
X158930360Y-102737740D01*
X158930365Y-102737742D01*
X159144606Y-102771515D01*
X159144608Y-102771515D01*
X159144620Y-102771517D01*
X159250760Y-102770505D01*
X159251941Y-102770500D01*
X164228144Y-102770500D01*
X164229319Y-102770506D01*
X164335434Y-102771511D01*
X164335434Y-102771510D01*
X164335441Y-102771511D01*
X164549696Y-102737726D01*
X164755395Y-102668920D01*
X164946857Y-102566993D01*
X165118791Y-102434763D01*
X165266449Y-102275880D01*
X165326752Y-102184317D01*
X165380062Y-102139158D01*
X165449327Y-102129989D01*
X165512554Y-102159723D01*
X165540790Y-102196222D01*
X165544214Y-102202942D01*
X165673782Y-102381278D01*
X165673786Y-102381283D01*
X165829666Y-102537163D01*
X165829671Y-102537167D01*
X166008006Y-102666734D01*
X166073824Y-102700270D01*
X166124621Y-102748244D01*
X166141530Y-102810755D01*
X166141530Y-104025500D01*
X166121845Y-104092539D01*
X166069041Y-104138294D01*
X166017530Y-104149500D01*
X165652130Y-104149500D01*
X165652123Y-104149501D01*
X165592516Y-104155908D01*
X165457671Y-104206202D01*
X165457664Y-104206206D01*
X165342455Y-104292452D01*
X165342452Y-104292455D01*
X165256206Y-104407664D01*
X165256202Y-104407671D01*
X165205908Y-104542517D01*
X165200533Y-104592516D01*
X165199501Y-104602123D01*
X165199500Y-104602135D01*
X165199500Y-106697870D01*
X165199501Y-106697876D01*
X165206738Y-106765196D01*
X165205342Y-106765345D01*
X165202050Y-106826756D01*
X165161182Y-106883427D01*
X165096163Y-106909007D01*
X165085114Y-106909500D01*
X148870940Y-106909500D01*
X148830019Y-106920464D01*
X148830019Y-106920465D01*
X148792751Y-106930451D01*
X148718214Y-106950423D01*
X148718209Y-106950426D01*
X148581290Y-107029475D01*
X148581282Y-107029481D01*
X146783630Y-108827133D01*
X146783621Y-108827142D01*
X146781286Y-108829478D01*
X146781284Y-108829480D01*
X146669480Y-108941284D01*
X146655086Y-108966216D01*
X146590423Y-109078215D01*
X146549499Y-109230943D01*
X146549499Y-109230945D01*
X146549499Y-109335500D01*
X146529814Y-109402539D01*
X146477010Y-109448294D01*
X146425499Y-109459500D01*
X146102130Y-109459500D01*
X146102123Y-109459501D01*
X146042516Y-109465908D01*
X145907671Y-109516202D01*
X145907664Y-109516206D01*
X145792455Y-109602452D01*
X145792452Y-109602455D01*
X145706206Y-109717664D01*
X145706202Y-109717671D01*
X145655908Y-109852517D01*
X145649501Y-109912116D01*
X145649501Y-109912123D01*
X145649500Y-109912135D01*
X145649500Y-111559902D01*
X145629815Y-111626941D01*
X145613181Y-111647583D01*
X143929481Y-113331282D01*
X143929480Y-113331284D01*
X143883745Y-113410500D01*
X143850423Y-113468215D01*
X143809499Y-113620943D01*
X143809499Y-113620945D01*
X143809499Y-113789046D01*
X143809500Y-113789059D01*
X143809500Y-116876000D01*
X143789815Y-116943039D01*
X143737011Y-116988794D01*
X143685500Y-117000000D01*
X122366452Y-117000000D01*
X122337011Y-116991355D01*
X122307025Y-116984832D01*
X122302009Y-116981077D01*
X122299413Y-116980315D01*
X122278771Y-116963681D01*
X122208619Y-116893529D01*
X122200452Y-116884519D01*
X122126962Y-116794962D01*
X122113463Y-116774756D01*
X122074269Y-116701423D01*
X122060338Y-116675356D01*
X122051039Y-116652906D01*
X122018322Y-116545042D01*
X122013584Y-116521216D01*
X122002869Y-116412416D01*
X122001912Y-116402695D01*
X122001328Y-116392343D01*
X122001315Y-116391447D01*
X122001315Y-116349304D01*
X122000674Y-116347332D01*
X122000513Y-116336201D01*
X122000613Y-116335840D01*
X122000500Y-116334401D01*
X122000500Y-101469999D01*
X122924994Y-101469999D01*
X122924994Y-101470000D01*
X122943019Y-101686152D01*
X122943019Y-101686154D01*
X122996597Y-101896331D01*
X122996599Y-101896335D01*
X123084247Y-102094733D01*
X123203549Y-102275877D01*
X123203551Y-102275881D01*
X123328315Y-102410129D01*
X123351209Y-102434763D01*
X123523143Y-102566993D01*
X123714605Y-102668920D01*
X123851499Y-102714710D01*
X123920300Y-102737725D01*
X123920301Y-102737725D01*
X123920304Y-102737726D01*
X124134559Y-102771511D01*
X124134564Y-102771510D01*
X124134565Y-102771511D01*
X124240681Y-102770506D01*
X124241856Y-102770500D01*
X141728144Y-102770500D01*
X141729319Y-102770506D01*
X141835434Y-102771511D01*
X141835434Y-102771510D01*
X141835441Y-102771511D01*
X142049696Y-102737726D01*
X142255395Y-102668920D01*
X142446857Y-102566993D01*
X142618791Y-102434763D01*
X142766449Y-102275880D01*
X142885751Y-102094735D01*
X142973402Y-101896332D01*
X143026981Y-101686152D01*
X143045006Y-101470000D01*
X143045006Y-101469998D01*
X145434993Y-101469998D01*
X145434993Y-101470001D01*
X145453019Y-101686155D01*
X145453020Y-101686161D01*
X145475749Y-101775322D01*
X145506601Y-101896346D01*
X145544091Y-101981203D01*
X145594259Y-102094756D01*
X145713552Y-102275880D01*
X145713567Y-102275902D01*
X145861234Y-102434786D01*
X146033177Y-102567016D01*
X146033179Y-102567017D01*
X146033183Y-102567020D01*
X146152474Y-102630520D01*
X146224649Y-102668940D01*
X146430357Y-102737740D01*
X146430360Y-102737740D01*
X146430365Y-102737742D01*
X146644606Y-102771515D01*
X146644608Y-102771515D01*
X146644620Y-102771517D01*
X146750760Y-102770505D01*
X146751941Y-102770500D01*
X154228059Y-102770500D01*
X154229239Y-102770505D01*
X154335380Y-102771517D01*
X154335418Y-102771511D01*
X154549634Y-102737742D01*
X154549637Y-102737740D01*
X154549643Y-102737740D01*
X154755351Y-102668940D01*
X154905664Y-102588925D01*
X154946816Y-102567020D01*
X154946817Y-102567019D01*
X154946823Y-102567016D01*
X155118766Y-102434786D01*
X155266433Y-102275902D01*
X155385742Y-102094754D01*
X155473399Y-101896346D01*
X155526980Y-101686159D01*
X155545007Y-101470000D01*
X155526980Y-101253841D01*
X155473399Y-101043654D01*
X155385742Y-100845246D01*
X155266448Y-100664121D01*
X155266435Y-100664101D01*
X155266432Y-100664097D01*
X155118766Y-100505214D01*
X154946823Y-100372984D01*
X154946821Y-100372983D01*
X154946816Y-100372979D01*
X154755351Y-100271060D01*
X154755347Y-100271058D01*
X154549640Y-100202259D01*
X154549634Y-100202257D01*
X154335393Y-100168484D01*
X154335382Y-100168483D01*
X154335380Y-100168483D01*
X154335376Y-100168483D01*
X154229240Y-100169494D01*
X154228059Y-100169500D01*
X146751941Y-100169500D01*
X146750760Y-100169494D01*
X146644623Y-100168483D01*
X146644622Y-100168483D01*
X146644620Y-100168483D01*
X146644618Y-100168483D01*
X146644606Y-100168484D01*
X146430365Y-100202257D01*
X146430359Y-100202259D01*
X146224652Y-100271058D01*
X146224648Y-100271060D01*
X146033183Y-100372979D01*
X145861234Y-100505214D01*
X145713567Y-100664097D01*
X145713564Y-100664101D01*
X145594259Y-100845243D01*
X145506601Y-101043654D01*
X145453020Y-101253838D01*
X145453019Y-101253844D01*
X145434993Y-101469998D01*
X143045006Y-101469998D01*
X143026981Y-101253848D01*
X142973402Y-101043668D01*
X142919021Y-100920574D01*
X142885752Y-100845266D01*
X142766450Y-100664122D01*
X142766448Y-100664118D01*
X142618790Y-100505236D01*
X142509630Y-100421284D01*
X142446857Y-100373007D01*
X142446855Y-100373006D01*
X142446854Y-100373005D01*
X142255395Y-100271080D01*
X142255389Y-100271078D01*
X142049699Y-100202274D01*
X141889004Y-100176935D01*
X141835441Y-100168489D01*
X141835440Y-100168489D01*
X141835434Y-100168488D01*
X141729319Y-100169494D01*
X141728144Y-100169500D01*
X124241856Y-100169500D01*
X124240681Y-100169494D01*
X124134565Y-100168488D01*
X124134559Y-100168489D01*
X123920301Y-100202274D01*
X123920300Y-100202274D01*
X123714610Y-100271078D01*
X123714604Y-100271080D01*
X123523145Y-100373005D01*
X123351209Y-100505236D01*
X123203551Y-100664118D01*
X123203549Y-100664122D01*
X123084247Y-100845266D01*
X122996599Y-101043664D01*
X122996597Y-101043668D01*
X122943019Y-101253845D01*
X122943019Y-101253847D01*
X122924994Y-101469999D01*
X122000500Y-101469999D01*
X122000500Y-99066969D01*
X122000517Y-99056157D01*
X122001011Y-99054587D01*
X122000588Y-99012379D01*
X122000590Y-99011677D01*
X122000662Y-99011431D01*
X122001079Y-99000883D01*
X122011683Y-98881778D01*
X122016241Y-98857765D01*
X122048286Y-98748952D01*
X122057473Y-98726293D01*
X122110252Y-98625895D01*
X122123711Y-98605478D01*
X122195172Y-98517397D01*
X122212373Y-98500023D01*
X122299741Y-98427679D01*
X122320016Y-98414022D01*
X122419882Y-98360242D01*
X122442445Y-98350830D01*
X122550925Y-98317700D01*
X122574907Y-98312899D01*
X122693897Y-98301105D01*
X122706128Y-98300500D01*
X141178844Y-98300500D01*
X141178845Y-98300499D01*
X141333497Y-98269737D01*
X141479179Y-98209394D01*
X141610289Y-98121789D01*
X141721789Y-98010289D01*
X141809394Y-97879179D01*
X141869737Y-97733497D01*
X141900500Y-97578842D01*
X141900500Y-97500000D01*
X141900500Y-97452405D01*
X141900500Y-97312919D01*
X141903476Y-97278361D01*
X141900500Y-97265550D01*
X141900500Y-97260438D01*
X141892095Y-97229075D01*
X141891100Y-97225091D01*
X141881936Y-97185643D01*
X141881937Y-97185643D01*
X141860076Y-97149374D01*
X141855050Y-97140177D01*
X141764265Y-96955964D01*
X141756628Y-96936469D01*
X141699632Y-96744659D01*
X141695383Y-96724156D01*
X141676030Y-96563355D01*
X141671470Y-96525461D01*
X141670734Y-96504561D01*
X141680590Y-96304693D01*
X141683382Y-96283954D01*
X141726727Y-96088595D01*
X141732970Y-96068615D01*
X141732979Y-96068593D01*
X141808566Y-95883330D01*
X141818080Y-95864690D01*
X141923775Y-95694765D01*
X141936294Y-95677987D01*
X141936306Y-95677974D01*
X142069071Y-95528270D01*
X142084224Y-95513846D01*
X142240300Y-95388603D01*
X142257668Y-95376930D01*
X142432599Y-95279729D01*
X142451673Y-95271150D01*
X142640469Y-95204765D01*
X142660717Y-95199517D01*
X142857987Y-95165844D01*
X142878827Y-95164078D01*
X143078944Y-95164078D01*
X143099806Y-95165846D01*
G37*
%TD.AperFunction*%
%TA.AperFunction,Conductor*%
G36*
X203011206Y-61130185D02*
G01*
X203031848Y-61146819D01*
X205783181Y-63898152D01*
X205816666Y-63959475D01*
X205819500Y-63985833D01*
X205819500Y-112934167D01*
X205799815Y-113001206D01*
X205783181Y-113021848D01*
X203031848Y-115773181D01*
X202970525Y-115806666D01*
X202944167Y-115809500D01*
X182670438Y-115809500D01*
X182603039Y-115827559D01*
X182594007Y-115829980D01*
X182541148Y-115860499D01*
X182525492Y-115869537D01*
X182525487Y-115869541D01*
X181431348Y-116963681D01*
X181370025Y-116997166D01*
X181343667Y-117000000D01*
X173614500Y-117000000D01*
X173547461Y-116980315D01*
X173501706Y-116927511D01*
X173490500Y-116876000D01*
X173490500Y-113800096D01*
X173510185Y-113733057D01*
X173526814Y-113712420D01*
X174742416Y-112496817D01*
X174803739Y-112463333D01*
X174830097Y-112460499D01*
X176477871Y-112460499D01*
X176477872Y-112460499D01*
X176537483Y-112454091D01*
X176672331Y-112403796D01*
X176787546Y-112317546D01*
X176873796Y-112202331D01*
X176924091Y-112067483D01*
X176930500Y-112007873D01*
X176930500Y-111684500D01*
X176950185Y-111617461D01*
X177002989Y-111571706D01*
X177054500Y-111560500D01*
X190043331Y-111560500D01*
X190043347Y-111560501D01*
X190050943Y-111560501D01*
X190209054Y-111560501D01*
X190209057Y-111560501D01*
X190361785Y-111519577D01*
X190411904Y-111490639D01*
X190498716Y-111440520D01*
X190610520Y-111328716D01*
X190610520Y-111328714D01*
X190620728Y-111318507D01*
X190620730Y-111318504D01*
X202528713Y-99410521D01*
X202528716Y-99410520D01*
X202640520Y-99298716D01*
X202690639Y-99211904D01*
X202719577Y-99161785D01*
X202760500Y-99009057D01*
X202760500Y-98850943D01*
X202760500Y-88003958D01*
X202780185Y-87936919D01*
X202796814Y-87916282D01*
X204668506Y-86044589D01*
X204668511Y-86044586D01*
X204678714Y-86034382D01*
X204678716Y-86034382D01*
X204790520Y-85922578D01*
X204857685Y-85806244D01*
X204869577Y-85785647D01*
X204910500Y-85632919D01*
X204910500Y-85474805D01*
X204910500Y-69540943D01*
X204869577Y-69388216D01*
X204864681Y-69379735D01*
X204790524Y-69251290D01*
X204790521Y-69251286D01*
X204790520Y-69251284D01*
X204678716Y-69139480D01*
X204678715Y-69139479D01*
X204674385Y-69135149D01*
X204674374Y-69135139D01*
X197987590Y-62448355D01*
X197987588Y-62448352D01*
X197868717Y-62329481D01*
X197868716Y-62329480D01*
X197781904Y-62279360D01*
X197781904Y-62279359D01*
X197781900Y-62279358D01*
X197731785Y-62250423D01*
X197579057Y-62209499D01*
X197420943Y-62209499D01*
X197413347Y-62209499D01*
X197413331Y-62209500D01*
X177794499Y-62209500D01*
X177791014Y-62208476D01*
X177787477Y-62209301D01*
X177757737Y-62198705D01*
X177727460Y-62189815D01*
X177725082Y-62187071D01*
X177721660Y-62185852D01*
X177702370Y-62160859D01*
X177681705Y-62137011D01*
X177680537Y-62132572D01*
X177678969Y-62130541D01*
X177676379Y-62116768D01*
X177670959Y-62096168D01*
X177670499Y-62090841D01*
X177670499Y-62087128D01*
X177668868Y-62071964D01*
X177668757Y-62070668D01*
X177669008Y-62069426D01*
X177669008Y-62046749D01*
X177670500Y-62032873D01*
X177670499Y-61587128D01*
X177669008Y-61573258D01*
X177669008Y-61546749D01*
X177670500Y-61532873D01*
X177670499Y-61234499D01*
X177690183Y-61167461D01*
X177742987Y-61121706D01*
X177794499Y-61110500D01*
X178930438Y-61110500D01*
X202944167Y-61110500D01*
X203011206Y-61130185D01*
G37*
%TD.AperFunction*%
%TA.AperFunction,Conductor*%
G36*
X181514932Y-102344301D02*
G01*
X181514950Y-102344298D01*
X181546780Y-102357048D01*
X181579784Y-102370259D01*
X181579805Y-102370278D01*
X181579810Y-102370280D01*
X181579814Y-102370285D01*
X181590818Y-102380053D01*
X182235139Y-103024374D01*
X182235149Y-103024385D01*
X182239479Y-103028715D01*
X182239480Y-103028716D01*
X182351284Y-103140520D01*
X182351286Y-103140521D01*
X182351290Y-103140524D01*
X182488209Y-103219573D01*
X182488216Y-103219577D01*
X182600019Y-103249534D01*
X182640942Y-103260500D01*
X182640943Y-103260500D01*
X192764765Y-103260500D01*
X192831804Y-103280185D01*
X192877559Y-103332989D01*
X192887503Y-103402147D01*
X192858478Y-103465703D01*
X192852446Y-103472181D01*
X189861446Y-106463181D01*
X189800123Y-106496666D01*
X189773765Y-106499500D01*
X177575949Y-106499500D01*
X177572239Y-106498410D01*
X177568472Y-106499274D01*
X177538985Y-106488646D01*
X177508910Y-106479815D01*
X177506378Y-106476893D01*
X177502742Y-106475583D01*
X177483677Y-106450694D01*
X177463155Y-106427011D01*
X177462605Y-106423186D01*
X177460254Y-106420117D01*
X177457672Y-106388881D01*
X177453211Y-106357853D01*
X177454817Y-106354335D01*
X177454499Y-106350484D01*
X177469211Y-106322816D01*
X177482236Y-106294297D01*
X177486015Y-106291216D01*
X177487303Y-106288795D01*
X177497188Y-106282110D01*
X177515321Y-106267332D01*
X177526749Y-106260926D01*
X177531785Y-106259577D01*
X177618387Y-106209577D01*
X177619176Y-106209121D01*
X177619225Y-106209094D01*
X177668709Y-106180524D01*
X177668708Y-106180524D01*
X177668716Y-106180520D01*
X177780520Y-106068716D01*
X177780520Y-106068714D01*
X177790724Y-106058511D01*
X177790728Y-106058506D01*
X181208506Y-102640728D01*
X181208511Y-102640724D01*
X181218714Y-102630520D01*
X181218716Y-102630520D01*
X181330520Y-102518716D01*
X181393199Y-102410152D01*
X181395763Y-102405710D01*
X181421175Y-102381490D01*
X181446311Y-102357521D01*
X181446328Y-102357517D01*
X181446341Y-102357506D01*
X181480377Y-102350953D01*
X181514917Y-102344295D01*
X181514932Y-102344301D01*
G37*
%TD.AperFunction*%
%TA.AperFunction,Conductor*%
G36*
X197356942Y-66930185D02*
G01*
X197377584Y-66946819D01*
X199123181Y-68692416D01*
X199156666Y-68753739D01*
X199159500Y-68780097D01*
X199159500Y-78078164D01*
X199139815Y-78145203D01*
X199091796Y-78188648D01*
X199025976Y-78222185D01*
X198847641Y-78351752D01*
X198847636Y-78351756D01*
X198691756Y-78507636D01*
X198691752Y-78507641D01*
X198562187Y-78685974D01*
X198462104Y-78882393D01*
X198462103Y-78882396D01*
X198393985Y-79092047D01*
X198359500Y-79309778D01*
X198359500Y-79530221D01*
X198393985Y-79747952D01*
X198462103Y-79957603D01*
X198462104Y-79957606D01*
X198562187Y-80154025D01*
X198691752Y-80332358D01*
X198691756Y-80332363D01*
X198847636Y-80488243D01*
X198847641Y-80488247D01*
X199003192Y-80601260D01*
X199025978Y-80617815D01*
X199154375Y-80683237D01*
X199222393Y-80717895D01*
X199222396Y-80717896D01*
X199327221Y-80751955D01*
X199432049Y-80786015D01*
X199649778Y-80820500D01*
X199649779Y-80820500D01*
X199870221Y-80820500D01*
X199870222Y-80820500D01*
X200087951Y-80786015D01*
X200297606Y-80717895D01*
X200494022Y-80617815D01*
X200672365Y-80488242D01*
X200828242Y-80332365D01*
X200957815Y-80154022D01*
X201057895Y-79957606D01*
X201126015Y-79747951D01*
X201160500Y-79530222D01*
X201160500Y-79309778D01*
X201126015Y-79092049D01*
X201057895Y-78882394D01*
X201057895Y-78882393D01*
X201023237Y-78814375D01*
X200957815Y-78685978D01*
X200860545Y-78552096D01*
X200828247Y-78507641D01*
X200828243Y-78507636D01*
X200672363Y-78351756D01*
X200672358Y-78351752D01*
X200494023Y-78222185D01*
X200428204Y-78188648D01*
X200377409Y-78140674D01*
X200360500Y-78078164D01*
X200360500Y-69679097D01*
X200380185Y-69612058D01*
X200432989Y-69566303D01*
X200502147Y-69556359D01*
X200565703Y-69585384D01*
X200572181Y-69591416D01*
X201705181Y-70724416D01*
X201738666Y-70785739D01*
X201741500Y-70812097D01*
X201741500Y-84307902D01*
X201721815Y-84374941D01*
X201705181Y-84395583D01*
X199439481Y-86661282D01*
X199439479Y-86661284D01*
X199413476Y-86706324D01*
X199402485Y-86725362D01*
X199360423Y-86798215D01*
X199319499Y-86950943D01*
X199319499Y-86950945D01*
X199319499Y-87119046D01*
X199319500Y-87119059D01*
X199319500Y-97709903D01*
X199299815Y-97776942D01*
X199283181Y-97797584D01*
X198140181Y-98940584D01*
X198078858Y-98974069D01*
X198009166Y-98969085D01*
X197953233Y-98927213D01*
X197928816Y-98861749D01*
X197928500Y-98852903D01*
X197928500Y-78552096D01*
X197937145Y-78522653D01*
X197943668Y-78492670D01*
X197947422Y-78487654D01*
X197948185Y-78485057D01*
X197964810Y-78464424D01*
X198108509Y-78320724D01*
X198108514Y-78320721D01*
X198118714Y-78310520D01*
X198118716Y-78310520D01*
X198230520Y-78198716D01*
X198236333Y-78188648D01*
X198284711Y-78104855D01*
X198284712Y-78104853D01*
X198309574Y-78061790D01*
X198309573Y-78061790D01*
X198309577Y-78061785D01*
X198350500Y-77909057D01*
X198350500Y-77750943D01*
X198350500Y-73000943D01*
X198350499Y-73000941D01*
X198349560Y-72993804D01*
X198348500Y-72977622D01*
X198348500Y-68837060D01*
X198348501Y-68837047D01*
X198348501Y-68668944D01*
X198307576Y-68516214D01*
X198307573Y-68516209D01*
X198228524Y-68379290D01*
X198228518Y-68379282D01*
X197678717Y-67829481D01*
X197678716Y-67829480D01*
X197591904Y-67779360D01*
X197591904Y-67779359D01*
X197591900Y-67779358D01*
X197541785Y-67750423D01*
X197389057Y-67709499D01*
X197230943Y-67709499D01*
X197223347Y-67709499D01*
X197223331Y-67709500D01*
X178240098Y-67709500D01*
X178173059Y-67689815D01*
X178152417Y-67673181D01*
X177808717Y-67329481D01*
X177808716Y-67329480D01*
X177721904Y-67279360D01*
X177721904Y-67279359D01*
X177721900Y-67279358D01*
X177671785Y-67250423D01*
X177519057Y-67209499D01*
X177519054Y-67209499D01*
X177477485Y-67209499D01*
X177418055Y-67194330D01*
X177412332Y-67191205D01*
X177412331Y-67191204D01*
X177412329Y-67191203D01*
X177412325Y-67191201D01*
X177372056Y-67176182D01*
X177316122Y-67134312D01*
X177291704Y-67068847D01*
X177306555Y-67000574D01*
X177355960Y-66951168D01*
X177372056Y-66943818D01*
X177412328Y-66928797D01*
X177412327Y-66928797D01*
X177412331Y-66928796D01*
X177412334Y-66928793D01*
X177418058Y-66925669D01*
X177477487Y-66910500D01*
X197289903Y-66910500D01*
X197356942Y-66930185D01*
G37*
%TD.AperFunction*%
%TD*%
%TA.AperFunction,NonConductor*%
G36*
X176557415Y-97455956D02*
G01*
X176586109Y-97458009D01*
X176592593Y-97462176D01*
X176597892Y-97463113D01*
X176606647Y-97471207D01*
X176630455Y-97486507D01*
X176645749Y-97501800D01*
X176651766Y-97508261D01*
X176673037Y-97532798D01*
X176680507Y-97539084D01*
X176680399Y-97539211D01*
X176693083Y-97549134D01*
X177384534Y-98240585D01*
X177453057Y-98280146D01*
X177529483Y-98300625D01*
X177529485Y-98300625D01*
X177615787Y-98300625D01*
X177617691Y-98300500D01*
X180784167Y-98300500D01*
X180851206Y-98320185D01*
X180871848Y-98336819D01*
X184382848Y-101847819D01*
X184416333Y-101909142D01*
X184411349Y-101978834D01*
X184369477Y-102034767D01*
X184304013Y-102059184D01*
X184295167Y-102059500D01*
X183020097Y-102059500D01*
X182953058Y-102039815D01*
X182932416Y-102023181D01*
X181330521Y-100421286D01*
X181330520Y-100421284D01*
X181218716Y-100309480D01*
X181218713Y-100309478D01*
X180217590Y-99308355D01*
X180217588Y-99308352D01*
X180098717Y-99189481D01*
X180098716Y-99189480D01*
X180011904Y-99139360D01*
X180011904Y-99139359D01*
X180011900Y-99139358D01*
X179961785Y-99110423D01*
X179809057Y-99069499D01*
X179650943Y-99069499D01*
X179643347Y-99069499D01*
X179643331Y-99069500D01*
X177579024Y-99069500D01*
X177511985Y-99049815D01*
X177491343Y-99033181D01*
X176270148Y-97811986D01*
X176262748Y-97798434D01*
X176251410Y-97787952D01*
X176246344Y-97768393D01*
X176236663Y-97750663D01*
X176237764Y-97735262D01*
X176233893Y-97720314D01*
X176240205Y-97701122D01*
X176241647Y-97680971D01*
X176251215Y-97667653D01*
X176255725Y-97653943D01*
X176276000Y-97633155D01*
X176279685Y-97628027D01*
X176282262Y-97625935D01*
X176404435Y-97537172D01*
X176459647Y-97481959D01*
X176464633Y-97477913D01*
X176491171Y-97466811D01*
X176516418Y-97453025D01*
X176523001Y-97453495D01*
X176529089Y-97450949D01*
X176557415Y-97455956D01*
G37*
%TD.AperFunction*%
%TA.AperFunction,NonConductor*%
G36*
X168123417Y-102154645D02*
G01*
X168155536Y-102187793D01*
X168213567Y-102275902D01*
X168361234Y-102434786D01*
X168533177Y-102567016D01*
X168533179Y-102567017D01*
X168533183Y-102567020D01*
X168652474Y-102630520D01*
X168724649Y-102668940D01*
X168930357Y-102737740D01*
X168930360Y-102737740D01*
X168930365Y-102737742D01*
X169144606Y-102771515D01*
X169144608Y-102771515D01*
X169144620Y-102771517D01*
X169250760Y-102770505D01*
X169251941Y-102770500D01*
X179080902Y-102770500D01*
X179147941Y-102790185D01*
X179193696Y-102842989D01*
X179203640Y-102912147D01*
X179174615Y-102975703D01*
X179168583Y-102982181D01*
X177112180Y-105038584D01*
X177050857Y-105072069D01*
X176981165Y-105067085D01*
X176925232Y-105025213D01*
X176900815Y-104959749D01*
X176900499Y-104950903D01*
X176900499Y-104652129D01*
X176900498Y-104652123D01*
X176900497Y-104652116D01*
X176894091Y-104592517D01*
X176875442Y-104542517D01*
X176843797Y-104457671D01*
X176843793Y-104457664D01*
X176757547Y-104342455D01*
X176757544Y-104342452D01*
X176642335Y-104256206D01*
X176642328Y-104256202D01*
X176507482Y-104205908D01*
X176507483Y-104205908D01*
X176447883Y-104199501D01*
X176447881Y-104199500D01*
X176447873Y-104199500D01*
X176447864Y-104199500D01*
X174352129Y-104199500D01*
X174352123Y-104199501D01*
X174292516Y-104205908D01*
X174157671Y-104256202D01*
X174157664Y-104256206D01*
X174042455Y-104342452D01*
X174042452Y-104342455D01*
X173956206Y-104457664D01*
X173956202Y-104457671D01*
X173905908Y-104592517D01*
X173899501Y-104652116D01*
X173899501Y-104652123D01*
X173899500Y-104652135D01*
X173899501Y-106375500D01*
X173879816Y-106442539D01*
X173827013Y-106488294D01*
X173775501Y-106499500D01*
X168450098Y-106499500D01*
X168420657Y-106490855D01*
X168390671Y-106484332D01*
X168385655Y-106480577D01*
X168383059Y-106479815D01*
X168362417Y-106463181D01*
X168236818Y-106337582D01*
X168203333Y-106276259D01*
X168200499Y-106249901D01*
X168200499Y-104602129D01*
X168200498Y-104602123D01*
X168200497Y-104602116D01*
X168194091Y-104542517D01*
X168143796Y-104407669D01*
X168143795Y-104407668D01*
X168143793Y-104407664D01*
X168057547Y-104292455D01*
X168057544Y-104292452D01*
X167942335Y-104206206D01*
X167942328Y-104206202D01*
X167807482Y-104155908D01*
X167807483Y-104155908D01*
X167747883Y-104149501D01*
X167747881Y-104149500D01*
X167747873Y-104149500D01*
X167747865Y-104149500D01*
X167466530Y-104149500D01*
X167399491Y-104129815D01*
X167353736Y-104077011D01*
X167342530Y-104025500D01*
X167342530Y-102810755D01*
X167362215Y-102743716D01*
X167410236Y-102700270D01*
X167471726Y-102668939D01*
X167476052Y-102666735D01*
X167654395Y-102537162D01*
X167810272Y-102381285D01*
X167939845Y-102202942D01*
X167941491Y-102199710D01*
X167989461Y-102148913D01*
X168057281Y-102132112D01*
X168123417Y-102154645D01*
G37*
%TD.AperFunction*%
%TA.AperFunction,NonConductor*%
G36*
X190209942Y-109818185D02*
G01*
X190255697Y-109870989D01*
X190265641Y-109940147D01*
X190236616Y-110003703D01*
X190230584Y-110010181D01*
X189917584Y-110323181D01*
X189856261Y-110356666D01*
X189829903Y-110359500D01*
X177054499Y-110359500D01*
X176987460Y-110339815D01*
X176941705Y-110287011D01*
X176930499Y-110235500D01*
X176930499Y-109922500D01*
X176950184Y-109855461D01*
X177002988Y-109809706D01*
X177054499Y-109798500D01*
X190142903Y-109798500D01*
X190209942Y-109818185D01*
G37*
%TD.AperFunction*%
%TA.AperFunction,NonConductor*%
G36*
X169283207Y-109482185D02*
G01*
X169328962Y-109534989D01*
X169338906Y-109604147D01*
X169315435Y-109660811D01*
X169272870Y-109717669D01*
X169272869Y-109717671D01*
X169222575Y-109852517D01*
X169216168Y-109912116D01*
X169216168Y-109912123D01*
X169216167Y-109912135D01*
X169216167Y-112007870D01*
X169216168Y-112007876D01*
X169222575Y-112067483D01*
X169272869Y-112202328D01*
X169272873Y-112202335D01*
X169359119Y-112317544D01*
X169359122Y-112317547D01*
X169474331Y-112403793D01*
X169474338Y-112403797D01*
X169484752Y-112407681D01*
X169609184Y-112454091D01*
X169668794Y-112460500D01*
X169960903Y-112460499D01*
X170027941Y-112480183D01*
X170073696Y-112532987D01*
X170083640Y-112602146D01*
X170054615Y-112665701D01*
X170048583Y-112672180D01*
X169447584Y-113273181D01*
X169386261Y-113306666D01*
X169359903Y-113309500D01*
X168222783Y-113309500D01*
X168155744Y-113289815D01*
X168144118Y-113281353D01*
X168140289Y-113278210D01*
X168009181Y-113190607D01*
X168009172Y-113190602D01*
X167863501Y-113130264D01*
X167863489Y-113130261D01*
X167708845Y-113099500D01*
X167708842Y-113099500D01*
X167551158Y-113099500D01*
X167551155Y-113099500D01*
X167396510Y-113130261D01*
X167396498Y-113130264D01*
X167250827Y-113190602D01*
X167250819Y-113190607D01*
X167119711Y-113278210D01*
X167119707Y-113278213D01*
X167008213Y-113389707D01*
X167008210Y-113389711D01*
X166920609Y-113520814D01*
X166920602Y-113520827D01*
X166860264Y-113666498D01*
X166860261Y-113666508D01*
X166849450Y-113720861D01*
X166817065Y-113782772D01*
X166756349Y-113817346D01*
X166686580Y-113813606D01*
X166629908Y-113772739D01*
X166604326Y-113707721D01*
X166603833Y-113696669D01*
X166603833Y-112584499D01*
X166623518Y-112517460D01*
X166676322Y-112471705D01*
X166727833Y-112460499D01*
X167051204Y-112460499D01*
X167051205Y-112460499D01*
X167110816Y-112454091D01*
X167245664Y-112403796D01*
X167360879Y-112317546D01*
X167447129Y-112202331D01*
X167497424Y-112067483D01*
X167503833Y-112007873D01*
X167503832Y-110360096D01*
X167523517Y-110293058D01*
X167540151Y-110272416D01*
X168313749Y-109498819D01*
X168375072Y-109465334D01*
X168401430Y-109462500D01*
X169216168Y-109462500D01*
X169283207Y-109482185D01*
G37*
%TD.AperFunction*%
%TA.AperFunction,NonConductor*%
G36*
X166747274Y-109154185D02*
G01*
X166793029Y-109206989D01*
X166802973Y-109276147D01*
X166773948Y-109339703D01*
X166767916Y-109346181D01*
X166690916Y-109423181D01*
X166629593Y-109456666D01*
X166603235Y-109459500D01*
X164955462Y-109459500D01*
X164955456Y-109459501D01*
X164895849Y-109465908D01*
X164761004Y-109516202D01*
X164760997Y-109516206D01*
X164645788Y-109602452D01*
X164645785Y-109602455D01*
X164559539Y-109717664D01*
X164559535Y-109717671D01*
X164509241Y-109852517D01*
X164502834Y-109912116D01*
X164502834Y-109912123D01*
X164502833Y-109912135D01*
X164502833Y-112007870D01*
X164502834Y-112007876D01*
X164509241Y-112067483D01*
X164559535Y-112202328D01*
X164559539Y-112202335D01*
X164645785Y-112317544D01*
X164645788Y-112317547D01*
X164760997Y-112403793D01*
X164761004Y-112403797D01*
X164771418Y-112407681D01*
X164895850Y-112454091D01*
X164955460Y-112460500D01*
X165278833Y-112460499D01*
X165345872Y-112480183D01*
X165391627Y-112532987D01*
X165402833Y-112584499D01*
X165402833Y-113936570D01*
X165383148Y-114003609D01*
X165366514Y-114024251D01*
X165035339Y-114355425D01*
X164974016Y-114388910D01*
X164971850Y-114389361D01*
X164816508Y-114420261D01*
X164816498Y-114420264D01*
X164670827Y-114480602D01*
X164670814Y-114480609D01*
X164539711Y-114568210D01*
X164539707Y-114568213D01*
X164428213Y-114679707D01*
X164360241Y-114781434D01*
X164306628Y-114826238D01*
X164237303Y-114834945D01*
X164174276Y-114804790D01*
X164169458Y-114800223D01*
X163854574Y-114485339D01*
X163821089Y-114424016D01*
X163820638Y-114421849D01*
X163799528Y-114315724D01*
X163789737Y-114266503D01*
X163751198Y-114173460D01*
X163729397Y-114120827D01*
X163729390Y-114120814D01*
X163641789Y-113989711D01*
X163641786Y-113989707D01*
X163530292Y-113878213D01*
X163530288Y-113878210D01*
X163399185Y-113790609D01*
X163399172Y-113790602D01*
X163253501Y-113730264D01*
X163253489Y-113730261D01*
X163098845Y-113699500D01*
X163098842Y-113699500D01*
X162941158Y-113699500D01*
X162941155Y-113699500D01*
X162786510Y-113730261D01*
X162786498Y-113730264D01*
X162640827Y-113790602D01*
X162640814Y-113790609D01*
X162509711Y-113878210D01*
X162509707Y-113878213D01*
X162398213Y-113989707D01*
X162398210Y-113989711D01*
X162310602Y-114120824D01*
X162309109Y-114123619D01*
X162307942Y-114124806D01*
X162307221Y-114125886D01*
X162307016Y-114125749D01*
X162260143Y-114173460D01*
X162192004Y-114188916D01*
X162126326Y-114165079D01*
X162112074Y-114152839D01*
X161926819Y-113967584D01*
X161893334Y-113906261D01*
X161890500Y-113879903D01*
X161890500Y-112584499D01*
X161910185Y-112517460D01*
X161962989Y-112471705D01*
X162014500Y-112460499D01*
X162337871Y-112460499D01*
X162337872Y-112460499D01*
X162397483Y-112454091D01*
X162532331Y-112403796D01*
X162647546Y-112317546D01*
X162733796Y-112202331D01*
X162784091Y-112067483D01*
X162790500Y-112007873D01*
X162790499Y-110360096D01*
X162810184Y-110293058D01*
X162826818Y-110272416D01*
X163928416Y-109170819D01*
X163989739Y-109137334D01*
X164016097Y-109134500D01*
X166680235Y-109134500D01*
X166747274Y-109154185D01*
G37*
%TD.AperFunction*%
%TA.AperFunction,NonConductor*%
G36*
X173872539Y-109818185D02*
G01*
X173918294Y-109870989D01*
X173929500Y-109922500D01*
X173929500Y-111559902D01*
X173909815Y-111626941D01*
X173893181Y-111647583D01*
X172409481Y-113131282D01*
X172409479Y-113131284D01*
X172393321Y-113159272D01*
X172375231Y-113190606D01*
X172330423Y-113268215D01*
X172289499Y-113420943D01*
X172289499Y-113420945D01*
X172289499Y-113589046D01*
X172289500Y-113589059D01*
X172289500Y-116876000D01*
X172269815Y-116943039D01*
X172217011Y-116988794D01*
X172165500Y-117000000D01*
X165604500Y-117000000D01*
X165537461Y-116980315D01*
X165491706Y-116927511D01*
X165480500Y-116876000D01*
X165480500Y-116280945D01*
X165480500Y-116280943D01*
X165441282Y-116134577D01*
X165439577Y-116128215D01*
X165439577Y-116128214D01*
X165399648Y-116059056D01*
X165399648Y-116059055D01*
X165399511Y-116058819D01*
X165382937Y-115990944D01*
X165405690Y-115924883D01*
X165437915Y-115893557D01*
X165504989Y-115848739D01*
X165560289Y-115811789D01*
X165671789Y-115700289D01*
X165759394Y-115569179D01*
X165799027Y-115473497D01*
X165819737Y-115423497D01*
X165850322Y-115269737D01*
X165850638Y-115268150D01*
X165883023Y-115206239D01*
X165884522Y-115204712D01*
X166361839Y-114727394D01*
X166361844Y-114727391D01*
X166372047Y-114717187D01*
X166372049Y-114717187D01*
X166483853Y-114605383D01*
X166562910Y-114468451D01*
X166603833Y-114315724D01*
X166603833Y-114103330D01*
X166623518Y-114036291D01*
X166676322Y-113990536D01*
X166745480Y-113980592D01*
X166809036Y-114009617D01*
X166846810Y-114068395D01*
X166849450Y-114079139D01*
X166860261Y-114133489D01*
X166860264Y-114133501D01*
X166920602Y-114279172D01*
X166920609Y-114279185D01*
X167008210Y-114410288D01*
X167008213Y-114410292D01*
X167119707Y-114521786D01*
X167119711Y-114521789D01*
X167250814Y-114609390D01*
X167250827Y-114609397D01*
X167396498Y-114669735D01*
X167396503Y-114669737D01*
X167551153Y-114700499D01*
X167551156Y-114700500D01*
X167551158Y-114700500D01*
X167708844Y-114700500D01*
X167708845Y-114700499D01*
X167863497Y-114669737D01*
X168009179Y-114609394D01*
X168015192Y-114605376D01*
X168125909Y-114531398D01*
X168192587Y-114510520D01*
X168194800Y-114510500D01*
X169573331Y-114510500D01*
X169573347Y-114510501D01*
X169580943Y-114510501D01*
X169739054Y-114510501D01*
X169739057Y-114510501D01*
X169891785Y-114469577D01*
X169952541Y-114434499D01*
X170028716Y-114390520D01*
X170140520Y-114278716D01*
X170140520Y-114278714D01*
X170150724Y-114268511D01*
X170150727Y-114268506D01*
X171197187Y-113222049D01*
X171276244Y-113085118D01*
X171317168Y-112932390D01*
X171317168Y-112774275D01*
X171317168Y-112766680D01*
X171317167Y-112766662D01*
X171317167Y-112584499D01*
X171336852Y-112517460D01*
X171389656Y-112471705D01*
X171441167Y-112460499D01*
X171764538Y-112460499D01*
X171764539Y-112460499D01*
X171824150Y-112454091D01*
X171958998Y-112403796D01*
X172074213Y-112317546D01*
X172160463Y-112202331D01*
X172210758Y-112067483D01*
X172217167Y-112007873D01*
X172217166Y-110360096D01*
X172236851Y-110293058D01*
X172253485Y-110272416D01*
X172691083Y-109834819D01*
X172752406Y-109801334D01*
X172778764Y-109798500D01*
X173805500Y-109798500D01*
X173872539Y-109818185D01*
G37*
%TD.AperFunction*%
%TA.AperFunction,NonConductor*%
G36*
X163895703Y-116225384D02*
G01*
X163902181Y-116231416D01*
X164243181Y-116572416D01*
X164257884Y-116599343D01*
X164274477Y-116625162D01*
X164275368Y-116631362D01*
X164276666Y-116633739D01*
X164279500Y-116660097D01*
X164279500Y-116876000D01*
X164259815Y-116943039D01*
X164207011Y-116988794D01*
X164155500Y-117000000D01*
X163814500Y-117000000D01*
X163747461Y-116980315D01*
X163701706Y-116927511D01*
X163690500Y-116876000D01*
X163690500Y-116319097D01*
X163710185Y-116252058D01*
X163762989Y-116206303D01*
X163832147Y-116196359D01*
X163895703Y-116225384D01*
G37*
%TD.AperFunction*%
%TA.AperFunction,NonConductor*%
G36*
X157994609Y-108480185D02*
G01*
X158040364Y-108532989D01*
X158050308Y-108602147D01*
X158021283Y-108665703D01*
X158015253Y-108672177D01*
X157609218Y-109078213D01*
X157264250Y-109423181D01*
X157202927Y-109456666D01*
X157176569Y-109459500D01*
X155528796Y-109459500D01*
X155528790Y-109459501D01*
X155469183Y-109465908D01*
X155334338Y-109516202D01*
X155334331Y-109516206D01*
X155219122Y-109602452D01*
X155219119Y-109602455D01*
X155132873Y-109717664D01*
X155132869Y-109717671D01*
X155082575Y-109852517D01*
X155076168Y-109912116D01*
X155076168Y-109912123D01*
X155076167Y-109912135D01*
X155076167Y-112007870D01*
X155076168Y-112007876D01*
X155082575Y-112067483D01*
X155132869Y-112202328D01*
X155132873Y-112202335D01*
X155219119Y-112317544D01*
X155219122Y-112317547D01*
X155334331Y-112403793D01*
X155334338Y-112403797D01*
X155344752Y-112407681D01*
X155469184Y-112454091D01*
X155528794Y-112460500D01*
X155946681Y-112460499D01*
X156013720Y-112480183D01*
X156054067Y-112522498D01*
X156077005Y-112562228D01*
X156096146Y-112595382D01*
X156215016Y-112714252D01*
X156215022Y-112714257D01*
X158015425Y-114514660D01*
X158048910Y-114575983D01*
X158049361Y-114578149D01*
X158080261Y-114733491D01*
X158080264Y-114733501D01*
X158140602Y-114879172D01*
X158140609Y-114879185D01*
X158228210Y-115010288D01*
X158228213Y-115010292D01*
X158339707Y-115121786D01*
X158339711Y-115121789D01*
X158470814Y-115209390D01*
X158470827Y-115209397D01*
X158614342Y-115268842D01*
X158616503Y-115269737D01*
X158771153Y-115300499D01*
X158771156Y-115300500D01*
X158771158Y-115300500D01*
X158928844Y-115300500D01*
X158928845Y-115300499D01*
X159083497Y-115269737D01*
X159229179Y-115209394D01*
X159360289Y-115121789D01*
X159471789Y-115010289D01*
X159559394Y-114879179D01*
X159619737Y-114733497D01*
X159650500Y-114578842D01*
X159650500Y-114421158D01*
X159650500Y-114421155D01*
X159650499Y-114421153D01*
X159636465Y-114350602D01*
X159619737Y-114266503D01*
X159581198Y-114173460D01*
X159559397Y-114120827D01*
X159559390Y-114120814D01*
X159471789Y-113989711D01*
X159471786Y-113989707D01*
X159360292Y-113878213D01*
X159360288Y-113878210D01*
X159229185Y-113790609D01*
X159229172Y-113790602D01*
X159083501Y-113730264D01*
X159083491Y-113730261D01*
X158928149Y-113699361D01*
X158866238Y-113666976D01*
X158864660Y-113665425D01*
X157796436Y-112597201D01*
X157762951Y-112535878D01*
X157767935Y-112466186D01*
X157809807Y-112410253D01*
X157813809Y-112407681D01*
X157874910Y-112361939D01*
X157934213Y-112317546D01*
X158020463Y-112202331D01*
X158070758Y-112067483D01*
X158077167Y-112007873D01*
X158077166Y-110360095D01*
X158096851Y-110293057D01*
X158113480Y-110272420D01*
X159543083Y-108842819D01*
X159604406Y-108809334D01*
X159630764Y-108806500D01*
X162294903Y-108806500D01*
X162361942Y-108826185D01*
X162407697Y-108878989D01*
X162417641Y-108948147D01*
X162388616Y-109011703D01*
X162382588Y-109018176D01*
X162169821Y-109230943D01*
X161977583Y-109423181D01*
X161916260Y-109456666D01*
X161889902Y-109459500D01*
X160242129Y-109459500D01*
X160242123Y-109459501D01*
X160182516Y-109465908D01*
X160047671Y-109516202D01*
X160047664Y-109516206D01*
X159932455Y-109602452D01*
X159932452Y-109602455D01*
X159846206Y-109717664D01*
X159846202Y-109717671D01*
X159795908Y-109852517D01*
X159789501Y-109912116D01*
X159789501Y-109912123D01*
X159789500Y-109912135D01*
X159789500Y-112007870D01*
X159789501Y-112007876D01*
X159795908Y-112067483D01*
X159846202Y-112202328D01*
X159846206Y-112202335D01*
X159932452Y-112317544D01*
X159932455Y-112317547D01*
X160047664Y-112403793D01*
X160047671Y-112403797D01*
X160058085Y-112407681D01*
X160182517Y-112454091D01*
X160242127Y-112460500D01*
X160565500Y-112460499D01*
X160632539Y-112480183D01*
X160678294Y-112532987D01*
X160689500Y-112584499D01*
X160689500Y-114093330D01*
X160689499Y-114093348D01*
X160689499Y-114259054D01*
X160689498Y-114259054D01*
X160730022Y-114410288D01*
X160730423Y-114411785D01*
X160753217Y-114451265D01*
X160757970Y-114459496D01*
X160757971Y-114459500D01*
X160757972Y-114459500D01*
X160764186Y-114470264D01*
X160809479Y-114548714D01*
X160809481Y-114548717D01*
X160928349Y-114667585D01*
X160928355Y-114667590D01*
X162453181Y-116192416D01*
X162486666Y-116253739D01*
X162489500Y-116280097D01*
X162489500Y-116876000D01*
X162469815Y-116943039D01*
X162417011Y-116988794D01*
X162365500Y-117000000D01*
X154924500Y-117000000D01*
X154857461Y-116980315D01*
X154811706Y-116927511D01*
X154800500Y-116876000D01*
X154800500Y-115495945D01*
X154800500Y-115495943D01*
X154781088Y-115423497D01*
X154759577Y-115343215D01*
X154759575Y-115343211D01*
X154717154Y-115269736D01*
X154680522Y-115206287D01*
X154680521Y-115206286D01*
X154680520Y-115206284D01*
X154568716Y-115094480D01*
X154568715Y-115094479D01*
X154564385Y-115090149D01*
X154564374Y-115090139D01*
X152500152Y-113025917D01*
X152466667Y-112964594D01*
X152463833Y-112938236D01*
X152463833Y-112584499D01*
X152483518Y-112517460D01*
X152536322Y-112471705D01*
X152587833Y-112460499D01*
X152911204Y-112460499D01*
X152911205Y-112460499D01*
X152970816Y-112454091D01*
X153105664Y-112403796D01*
X153220879Y-112317546D01*
X153307129Y-112202331D01*
X153357424Y-112067483D01*
X153363833Y-112007873D01*
X153363832Y-109912128D01*
X153358632Y-109863757D01*
X153357424Y-109852516D01*
X153307130Y-109717671D01*
X153307126Y-109717664D01*
X153220880Y-109602455D01*
X153220877Y-109602452D01*
X153105668Y-109516206D01*
X153105661Y-109516202D01*
X152970815Y-109465908D01*
X152970817Y-109465908D01*
X152932806Y-109461822D01*
X152868255Y-109435084D01*
X152828407Y-109377691D01*
X152825914Y-109307866D01*
X152858379Y-109250854D01*
X153612416Y-108496819D01*
X153673739Y-108463334D01*
X153700097Y-108460500D01*
X157927570Y-108460500D01*
X157994609Y-108480185D01*
G37*
%TD.AperFunction*%
%TA.AperFunction,NonConductor*%
G36*
X147275396Y-116041955D02*
G01*
X147288833Y-116042916D01*
X147306561Y-116056187D01*
X147326701Y-116065385D01*
X147333983Y-116076715D01*
X147344766Y-116084788D01*
X147352503Y-116105533D01*
X147364476Y-116124162D01*
X147367627Y-116146082D01*
X147369183Y-116150252D01*
X147369498Y-116159096D01*
X147369499Y-116159097D01*
X147369499Y-116299057D01*
X147369499Y-116299059D01*
X147369500Y-116309058D01*
X147369500Y-116876000D01*
X147349815Y-116943039D01*
X147297011Y-116988794D01*
X147245500Y-117000000D01*
X146904500Y-117000000D01*
X146837461Y-116980315D01*
X146791706Y-116927511D01*
X146780500Y-116876000D01*
X146780500Y-116500097D01*
X146800185Y-116433058D01*
X146816819Y-116412416D01*
X147157818Y-116071417D01*
X147177251Y-116060805D01*
X147193987Y-116046304D01*
X147207319Y-116044386D01*
X147219141Y-116037932D01*
X147241227Y-116039511D01*
X147263145Y-116036360D01*
X147275396Y-116041955D01*
G37*
%TD.AperFunction*%
%TA.AperFunction,NonConductor*%
G36*
X152067942Y-108130185D02*
G01*
X152113697Y-108182989D01*
X152123641Y-108252147D01*
X152094616Y-108315703D01*
X152088587Y-108322177D01*
X151745061Y-108665703D01*
X151494619Y-108916145D01*
X151382814Y-109027949D01*
X151382812Y-109027951D01*
X151362414Y-109063282D01*
X151353793Y-109078216D01*
X151303756Y-109164882D01*
X151262832Y-109317610D01*
X151262832Y-109317612D01*
X151262832Y-109335500D01*
X151243147Y-109402539D01*
X151190343Y-109448294D01*
X151138832Y-109459500D01*
X150815463Y-109459500D01*
X150815456Y-109459501D01*
X150755849Y-109465908D01*
X150621004Y-109516202D01*
X150620997Y-109516206D01*
X150505788Y-109602452D01*
X150505785Y-109602455D01*
X150419539Y-109717664D01*
X150419535Y-109717671D01*
X150369241Y-109852517D01*
X150362834Y-109912116D01*
X150362834Y-109912123D01*
X150362833Y-109912135D01*
X150362833Y-112007870D01*
X150362834Y-112007876D01*
X150369241Y-112067483D01*
X150419535Y-112202328D01*
X150419539Y-112202335D01*
X150505785Y-112317544D01*
X150505788Y-112317547D01*
X150620997Y-112403793D01*
X150621004Y-112403797D01*
X150631418Y-112407681D01*
X150755850Y-112454091D01*
X150815460Y-112460500D01*
X151138833Y-112460499D01*
X151205872Y-112480183D01*
X151251627Y-112532987D01*
X151262833Y-112584499D01*
X151262833Y-113151663D01*
X151262832Y-113151681D01*
X151262832Y-113317387D01*
X151262831Y-113317387D01*
X151303756Y-113470118D01*
X151332691Y-113520233D01*
X151332692Y-113520237D01*
X151332693Y-113520237D01*
X151382812Y-113607047D01*
X151382814Y-113607050D01*
X151501682Y-113725918D01*
X151501688Y-113725923D01*
X153563181Y-115787416D01*
X153596666Y-115848739D01*
X153599500Y-115875097D01*
X153599500Y-116876000D01*
X153579815Y-116943039D01*
X153527011Y-116988794D01*
X153475500Y-117000000D01*
X148694500Y-117000000D01*
X148627461Y-116980315D01*
X148581706Y-116927511D01*
X148570500Y-116876000D01*
X148570500Y-116520097D01*
X148590185Y-116453058D01*
X148606819Y-116432416D01*
X149162416Y-115876819D01*
X149223739Y-115843334D01*
X149250097Y-115840500D01*
X150200234Y-115840500D01*
X150267273Y-115860185D01*
X150269125Y-115861398D01*
X150400814Y-115949390D01*
X150400827Y-115949397D01*
X150501132Y-115990944D01*
X150546503Y-116009737D01*
X150680345Y-116036360D01*
X150701153Y-116040499D01*
X150701156Y-116040500D01*
X150701158Y-116040500D01*
X150858844Y-116040500D01*
X150858845Y-116040499D01*
X151013497Y-116009737D01*
X151159179Y-115949394D01*
X151290289Y-115861789D01*
X151401789Y-115750289D01*
X151489394Y-115619179D01*
X151549737Y-115473497D01*
X151580500Y-115318842D01*
X151580500Y-115161158D01*
X151580500Y-115161155D01*
X151580499Y-115161153D01*
X151566373Y-115090139D01*
X151549737Y-115006503D01*
X151548361Y-115003182D01*
X151489397Y-114860827D01*
X151489390Y-114860814D01*
X151401789Y-114729711D01*
X151401786Y-114729707D01*
X151290292Y-114618213D01*
X151290288Y-114618210D01*
X151159185Y-114530609D01*
X151159172Y-114530602D01*
X151013501Y-114470264D01*
X151013489Y-114470261D01*
X150858845Y-114439500D01*
X150858842Y-114439500D01*
X150701158Y-114439500D01*
X150701155Y-114439500D01*
X150546510Y-114470261D01*
X150546498Y-114470264D01*
X150400827Y-114530602D01*
X150400814Y-114530609D01*
X150269125Y-114618602D01*
X150202447Y-114639480D01*
X150200234Y-114639500D01*
X149029057Y-114639500D01*
X148870942Y-114639500D01*
X148718215Y-114680423D01*
X148718214Y-114680423D01*
X148718212Y-114680424D01*
X148718211Y-114680424D01*
X148683440Y-114700500D01*
X148581287Y-114759477D01*
X148581282Y-114759481D01*
X148469480Y-114871283D01*
X148469480Y-114871284D01*
X148469478Y-114871286D01*
X148387701Y-114953063D01*
X148324210Y-115016554D01*
X148262887Y-115050038D01*
X148193195Y-115045054D01*
X148137262Y-115003182D01*
X148114912Y-114953063D01*
X148098645Y-114871286D01*
X148089737Y-114826503D01*
X148061976Y-114759481D01*
X148029397Y-114680827D01*
X148029390Y-114680814D01*
X147941789Y-114549711D01*
X147941786Y-114549707D01*
X147830292Y-114438213D01*
X147830288Y-114438210D01*
X147699185Y-114350609D01*
X147699172Y-114350602D01*
X147553501Y-114290264D01*
X147553489Y-114290261D01*
X147398845Y-114259500D01*
X147398842Y-114259500D01*
X147241158Y-114259500D01*
X147241155Y-114259500D01*
X147086510Y-114290261D01*
X147086498Y-114290264D01*
X146940827Y-114350602D01*
X146940814Y-114350609D01*
X146809711Y-114438210D01*
X146809707Y-114438213D01*
X146698213Y-114549707D01*
X146698210Y-114549711D01*
X146610609Y-114680814D01*
X146610602Y-114680827D01*
X146550264Y-114826498D01*
X146550261Y-114826508D01*
X146519361Y-114981850D01*
X146486976Y-115043761D01*
X146485425Y-115045339D01*
X145699481Y-115831282D01*
X145699477Y-115831287D01*
X145659263Y-115900942D01*
X145659263Y-115900943D01*
X145620423Y-115968214D01*
X145609298Y-116009735D01*
X145579499Y-116120943D01*
X145579499Y-116120945D01*
X145579499Y-116289046D01*
X145579500Y-116289059D01*
X145579500Y-116876000D01*
X145559815Y-116943039D01*
X145507011Y-116988794D01*
X145455500Y-117000000D01*
X145134500Y-117000000D01*
X145067461Y-116980315D01*
X145021706Y-116927511D01*
X145010500Y-116876000D01*
X145010500Y-114000096D01*
X145030185Y-113933057D01*
X145046814Y-113912420D01*
X146462416Y-112496817D01*
X146523739Y-112463333D01*
X146550097Y-112460499D01*
X148197871Y-112460499D01*
X148197872Y-112460499D01*
X148257483Y-112454091D01*
X148392331Y-112403796D01*
X148507546Y-112317546D01*
X148593796Y-112202331D01*
X148644091Y-112067483D01*
X148650500Y-112007873D01*
X148650499Y-109912128D01*
X148645299Y-109863757D01*
X148644091Y-109852516D01*
X148593797Y-109717671D01*
X148593793Y-109717664D01*
X148507547Y-109602455D01*
X148507544Y-109602452D01*
X148392335Y-109516206D01*
X148392328Y-109516202D01*
X148257482Y-109465908D01*
X148257483Y-109465908D01*
X148197883Y-109459501D01*
X148197881Y-109459500D01*
X148197873Y-109459500D01*
X148197865Y-109459500D01*
X148149096Y-109459500D01*
X148082057Y-109439815D01*
X148036302Y-109387011D01*
X148026358Y-109317853D01*
X148055383Y-109254297D01*
X148061415Y-109247819D01*
X149162416Y-108146819D01*
X149223739Y-108113334D01*
X149250097Y-108110500D01*
X152000903Y-108110500D01*
X152067942Y-108130185D01*
G37*
%TD.AperFunction*%
M02*
