%TF.GenerationSoftware,KiCad,Pcbnew,9.0.5*%
%TF.CreationDate,2025-10-30T22:29:35+00:00*%
%TF.ProjectId,InstallationFlexWithSolderPoints,496e7374-616c-46c6-9174-696f6e466c65,rev?*%
%TF.SameCoordinates,Original*%
%TF.FileFunction,Copper,L2,Bot*%
%TF.FilePolarity,Positive*%
%FSLAX46Y46*%
G04 Gerber Fmt 4.6, Leading zero omitted, Abs format (unit mm)*
G04 Created by KiCad (PCBNEW 9.0.5) date 2025-10-30 22:29:35*
%MOMM*%
%LPD*%
G01*
G04 APERTURE LIST*
%TA.AperFunction,ComponentPad*%
%ADD10C,2.500000*%
%TD*%
%TA.AperFunction,SMDPad,CuDef*%
%ADD11R,2.000000X2.000000*%
%TD*%
%TA.AperFunction,ComponentPad*%
%ADD12C,1.800000*%
%TD*%
%TA.AperFunction,ViaPad*%
%ADD13C,0.600000*%
%TD*%
%TA.AperFunction,Conductor*%
%ADD14C,0.200000*%
%TD*%
%TA.AperFunction,Conductor*%
%ADD15C,0.500000*%
%TD*%
G04 APERTURE END LIST*
D10*
%TO.P,J23,1,Pin_1*%
%TO.N,CL2*%
X182760000Y-90420000D03*
%TD*%
%TO.P,J24,1,Pin_1*%
%TO.N,D1*%
X182760000Y-86450000D03*
%TD*%
%TO.P,J22,1,Pin_1*%
%TO.N,CLK*%
X182760000Y-94410000D03*
%TD*%
%TO.P,J18,1,Pin_1*%
%TO.N,GND*%
X113030000Y-86260000D03*
%TD*%
%TO.P,J25,1,Pin_1*%
%TO.N,D2*%
X182760000Y-82410000D03*
%TD*%
%TO.P,J20,1,Pin_1*%
%TO.N,+5V*%
X105550000Y-86240000D03*
%TD*%
%TO.P,J28,1,Pin_1*%
%TO.N,DW*%
X182760000Y-70420000D03*
%TD*%
%TO.P,J26,1,Pin_1*%
%TO.N,D3*%
X182760000Y-78410000D03*
%TD*%
%TO.P,J27,1,Pin_1*%
%TO.N,D4*%
X182760000Y-74430000D03*
%TD*%
%TO.P,J21,1,Pin_1*%
%TO.N,SMS*%
X182760000Y-98400000D03*
%TD*%
%TO.P,J29,1,Pin_1*%
%TO.N,BRIGHT*%
X133060000Y-87780000D03*
%TD*%
D11*
%TO.P,TP6,1,1*%
%TO.N,CL2*%
X150272833Y-133063000D03*
%TD*%
%TO.P,TP7,1,1*%
%TO.N,D1*%
X169126167Y-133063000D03*
%TD*%
%TO.P,TP8,1,1*%
%TO.N,D2*%
X164412833Y-133063000D03*
%TD*%
D12*
%TO.P,J16,1,Pin_1*%
%TO.N,GND*%
X142651440Y-123571920D03*
%TD*%
D11*
%TO.P,TP11,1,1*%
%TO.N,BRIGHT*%
X173839500Y-133063000D03*
%TD*%
%TO.P,TP4,1,1*%
%TO.N,SMS*%
X173809500Y-127803000D03*
%TD*%
D12*
%TO.P,J3,1,Pin_1*%
%TO.N,CLK*%
X198169500Y-101523000D03*
%TD*%
%TO.P,J4,1,Pin_1*%
%TO.N,SMS*%
X173901570Y-118571930D03*
%TD*%
%TO.P,J2,1,Pin_1*%
%TO.N,GND*%
X155151550Y-123571920D03*
%TD*%
D11*
%TO.P,TP5,1,1*%
%TO.N,DW*%
X145559500Y-133063000D03*
%TD*%
%TO.P,TP2,1,1*%
%TO.N,GND*%
X148859500Y-127863000D03*
%TD*%
%TO.P,TP9,1,1*%
%TO.N,D3*%
X159699500Y-133063000D03*
%TD*%
%TO.P,TP10,1,1*%
%TO.N,D4*%
X154986167Y-133063000D03*
%TD*%
D12*
%TO.P,J1,1,Pin_1*%
%TO.N,+5V*%
X165151530Y-123571920D03*
%TD*%
D11*
%TO.P,TP1,1,1*%
%TO.N,+5V*%
X165109500Y-127753000D03*
%TD*%
D12*
%TO.P,J15,1,Pin_1*%
%TO.N,GND*%
X141401510Y-118571930D03*
%TD*%
D13*
%TO.N,GND*%
X191660000Y-89170000D03*
%TO.N,CL2*%
X194680000Y-87928000D03*
%TO.N,GND*%
X180210000Y-92850000D03*
X192220000Y-85970000D03*
X146710000Y-137560000D03*
X153980000Y-135990000D03*
X162050000Y-138070000D03*
%TO.N,DW*%
X146186250Y-130786250D03*
X142819500Y-135803000D03*
%TO.N,CL2*%
X152609500Y-137333000D03*
%TO.N,D1*%
X167409500Y-135243000D03*
%TO.N,D2*%
X161140000Y-136730000D03*
X167320000Y-130160000D03*
X179600735Y-85420735D03*
%TO.N,D3*%
X162610000Y-130160000D03*
X159699500Y-137473000D03*
%TO.N,BRIGHT*%
X171299500Y-136963000D03*
%TO.N,D4*%
X156819500Y-135843000D03*
X191920735Y-84759265D03*
X157810000Y-130320000D03*
%TO.N,GND*%
X179149500Y-127563000D03*
X171470000Y-133230000D03*
X165610000Y-90280000D03*
X111540000Y-87700000D03*
X169970000Y-125760000D03*
X196660000Y-84810000D03*
X181080000Y-76440000D03*
X198270000Y-106020000D03*
X198670000Y-95690000D03*
X180810000Y-68870000D03*
X157310000Y-133300000D03*
X185960000Y-84360000D03*
X162160000Y-133330000D03*
X148839500Y-126143000D03*
X152300000Y-87560000D03*
X180730000Y-122760000D03*
X173280000Y-87260000D03*
X167400000Y-85390000D03*
X180280000Y-89730000D03*
X147870000Y-133030000D03*
X150860470Y-127863000D03*
X144900000Y-121310000D03*
X195500000Y-92740000D03*
X176440000Y-133330000D03*
X195541500Y-95210000D03*
X128590000Y-86520000D03*
X180320000Y-99640000D03*
X184200000Y-80400000D03*
X146942520Y-127863000D03*
X156520000Y-138410000D03*
X155110000Y-126870000D03*
X114530000Y-87740000D03*
X152660000Y-133160000D03*
X150130000Y-138380000D03*
X166880000Y-133360000D03*
X186200000Y-86850000D03*
X138940000Y-121370000D03*
X167400000Y-137920000D03*
X113030000Y-84170000D03*
%TD*%
D14*
%TO.N,SMS*%
X183060000Y-98400000D02*
X182260000Y-98400000D01*
X185820000Y-95640000D02*
X183060000Y-98400000D01*
X187310000Y-90230000D02*
X185820000Y-91720000D01*
X185820000Y-91720000D02*
X185820000Y-95640000D01*
X195690000Y-90230000D02*
X187310000Y-90230000D01*
X196141500Y-90681500D02*
X195690000Y-90230000D01*
X192819500Y-125663000D02*
X196141500Y-122341000D01*
X196141500Y-122341000D02*
X196141500Y-90681500D01*
X179259500Y-122893000D02*
X182029500Y-125663000D01*
X182029500Y-125663000D02*
X192819500Y-125663000D01*
%TO.N,+5V*%
X105030000Y-86760000D02*
X105550000Y-86240000D01*
X105030000Y-89100000D02*
X105030000Y-86760000D01*
X105550000Y-89620000D02*
X105030000Y-89100000D01*
X138740000Y-89620000D02*
X105550000Y-89620000D01*
X139600000Y-88760000D02*
X138740000Y-89620000D01*
X177790000Y-88760000D02*
X139600000Y-88760000D01*
X185180000Y-88430000D02*
X178120000Y-88430000D01*
X185762000Y-87848000D02*
X185180000Y-88430000D01*
X188875862Y-87848000D02*
X185762000Y-87848000D01*
X189235862Y-87488000D02*
X188875862Y-87848000D01*
X194559000Y-88529000D02*
X194289000Y-88529000D01*
X196469500Y-122763000D02*
X196469500Y-90439500D01*
X190029500Y-129203000D02*
X196469500Y-122763000D01*
X196469500Y-90439500D02*
X194559000Y-88529000D01*
X178120000Y-88430000D02*
X177790000Y-88760000D01*
X194289000Y-88529000D02*
X193248000Y-87488000D01*
X166559500Y-129203000D02*
X190029500Y-129203000D01*
X193248000Y-87488000D02*
X189235862Y-87488000D01*
X165109500Y-127753000D02*
X166559500Y-129203000D01*
%TO.N,CL2*%
X150272833Y-131499667D02*
X150272833Y-133063000D01*
X152212500Y-129560000D02*
X150272833Y-131499667D01*
X190268638Y-129560000D02*
X152212500Y-129560000D01*
X198329500Y-109133000D02*
X198329500Y-121499138D01*
X198329500Y-121499138D02*
X190268638Y-129560000D01*
X200751500Y-93711500D02*
X200751500Y-106711000D01*
X194968000Y-87928000D02*
X200751500Y-93711500D01*
X200751500Y-106711000D02*
X198329500Y-109133000D01*
X194680000Y-87928000D02*
X194968000Y-87928000D01*
%TO.N,D1*%
X183100000Y-87320000D02*
X183100000Y-86790000D01*
X183300000Y-87520000D02*
X183100000Y-87320000D01*
X188740000Y-87520000D02*
X183300000Y-87520000D01*
X189100000Y-87160000D02*
X188740000Y-87520000D01*
X201079500Y-106853000D02*
X201079500Y-92199500D01*
X198789500Y-121503000D02*
X198789500Y-109143000D01*
X198789500Y-109143000D02*
X201079500Y-106853000D01*
X190329500Y-129963000D02*
X198789500Y-121503000D01*
X201079500Y-92199500D02*
X196040000Y-87160000D01*
X172226167Y-129963000D02*
X190329500Y-129963000D01*
X196040000Y-87160000D02*
X189100000Y-87160000D01*
X169126167Y-133063000D02*
X172226167Y-129963000D01*
%TO.N,BRIGHT*%
X133060000Y-86900000D02*
X133060000Y-87780000D01*
X133630000Y-86330000D02*
X133060000Y-86900000D01*
X179540000Y-86330000D02*
X133630000Y-86330000D01*
X185070000Y-84710000D02*
X181160000Y-84710000D01*
X186680000Y-86320000D02*
X185070000Y-84710000D01*
X187870000Y-86320000D02*
X186680000Y-86320000D01*
X188350000Y-86800000D02*
X187870000Y-86320000D01*
X199190000Y-109340000D02*
X201480000Y-107050000D01*
X201480000Y-107050000D02*
X201480000Y-91900000D01*
X196380000Y-86800000D02*
X188350000Y-86800000D01*
X201480000Y-91900000D02*
X196380000Y-86800000D01*
X199190000Y-121790000D02*
X199190000Y-109340000D01*
X181160000Y-84710000D02*
X179540000Y-86330000D01*
X174812500Y-132090000D02*
X188890000Y-132090000D01*
X188890000Y-132090000D02*
X199190000Y-121790000D01*
X173839500Y-133063000D02*
X174812500Y-132090000D01*
%TO.N,D2*%
X182230000Y-82947100D02*
X182230000Y-82440000D01*
X179997100Y-85180000D02*
X182230000Y-82947100D01*
X179890000Y-85290000D02*
X179997100Y-85182900D01*
X182230000Y-82440000D02*
X182260000Y-82410000D01*
X179710000Y-85290000D02*
X179890000Y-85290000D01*
X179600735Y-85399265D02*
X179710000Y-85290000D01*
X179600735Y-85420735D02*
X179600735Y-85399265D01*
X179997100Y-85182900D02*
X179997100Y-85180000D01*
%TO.N,D4*%
X185420000Y-76360000D02*
X183460000Y-74400000D01*
X191521470Y-84360000D02*
X187340000Y-84360000D01*
X183460000Y-74400000D02*
X182990000Y-74400000D01*
X191920735Y-84759265D02*
X191521470Y-84360000D01*
X187340000Y-84360000D02*
X185420000Y-82440000D01*
X185420000Y-82440000D02*
X185420000Y-76360000D01*
%TO.N,D3*%
X182260000Y-78420000D02*
X182270000Y-78410000D01*
%TO.N,D4*%
X157729167Y-130320000D02*
X157810000Y-130320000D01*
X154986167Y-133063000D02*
X157729167Y-130320000D01*
%TO.N,D3*%
X162600000Y-130160000D02*
X162590000Y-130170000D01*
X162610000Y-130160000D02*
X162600000Y-130160000D01*
X162602500Y-130160000D02*
X159699500Y-133063000D01*
X162610000Y-130160000D02*
X162602500Y-130160000D01*
%TO.N,D2*%
X167315833Y-130160000D02*
X164412833Y-133063000D01*
X167320000Y-130160000D02*
X167315833Y-130160000D01*
%TO.N,DW*%
X145559500Y-131413000D02*
X145559500Y-133063000D01*
X146186250Y-130786250D02*
X145559500Y-131413000D01*
%TO.N,BRIGHT*%
X133060000Y-87780000D02*
X133090000Y-87810000D01*
%TO.N,CLK*%
X198169500Y-101523000D02*
X198759500Y-100933000D01*
%TO.N,SMS*%
X175688427Y-121773000D02*
X177999500Y-121773000D01*
X173901570Y-118571930D02*
X173901570Y-119986143D01*
X175709500Y-127803000D02*
X173809500Y-127803000D01*
X179259500Y-124253000D02*
X175709500Y-127803000D01*
X178139500Y-121773000D02*
X179259500Y-122893000D01*
X179259500Y-122893000D02*
X179259500Y-124253000D01*
X173901570Y-119986143D02*
X175688427Y-121773000D01*
X177999500Y-121773000D02*
X178139500Y-121773000D01*
%TO.N,DW*%
X142819500Y-135803000D02*
X145559500Y-133063000D01*
%TO.N,CL2*%
X152609500Y-137333000D02*
X150272833Y-134996333D01*
X150272833Y-134996333D02*
X150272833Y-133063000D01*
%TO.N,D1*%
X168029500Y-135253000D02*
X169126167Y-134156333D01*
X169126167Y-134156333D02*
X169126167Y-133063000D01*
X167419500Y-135253000D02*
X168029500Y-135253000D01*
X167409500Y-135243000D02*
X167419500Y-135253000D01*
%TO.N,D2*%
X164412833Y-135839667D02*
X164412833Y-133063000D01*
X161160000Y-136750000D02*
X163502500Y-136750000D01*
X163502500Y-136750000D02*
X164412833Y-135839667D01*
X161140000Y-136730000D02*
X161160000Y-136750000D01*
%TO.N,D3*%
X159699500Y-137473000D02*
X159699500Y-133063000D01*
%TO.N,BRIGHT*%
X171299500Y-136963000D02*
X171299500Y-135603000D01*
X171299500Y-135603000D02*
X173839500Y-133063000D01*
%TO.N,D4*%
X156819500Y-135843000D02*
X156309500Y-135843000D01*
X154986167Y-134519667D02*
X154986167Y-133063000D01*
X156309500Y-135843000D02*
X154986167Y-134519667D01*
D15*
%TO.N,GND*%
X148859500Y-127863000D02*
X148859500Y-126163000D01*
X148859500Y-126163000D02*
X148839500Y-126143000D01*
X142659500Y-121733000D02*
X142659500Y-123563860D01*
X142651440Y-123571920D02*
X146942520Y-127863000D01*
X142659500Y-123563860D02*
X142651440Y-123571920D01*
X150860470Y-127863000D02*
X148859500Y-127863000D01*
X141401510Y-120475010D02*
X142659500Y-121733000D01*
X141401510Y-118571930D02*
X141401510Y-120475010D01*
X155151550Y-123571920D02*
X150860470Y-127863000D01*
X146942520Y-127863000D02*
X148859500Y-127863000D01*
D14*
%TO.N,+5V*%
X105420000Y-86240000D02*
X105340000Y-86160000D01*
X165151530Y-127710970D02*
X165109500Y-127753000D01*
X105550000Y-86240000D02*
X105420000Y-86240000D01*
X165151530Y-123571920D02*
X165151530Y-127710970D01*
%TD*%
%TA.AperFunction,Conductor*%
%TO.N,GND*%
G36*
X186642539Y-68290185D02*
G01*
X186688294Y-68342989D01*
X186699500Y-68394500D01*
X186699500Y-82570903D01*
X186679815Y-82637942D01*
X186627011Y-82683697D01*
X186557853Y-82693641D01*
X186494297Y-82664616D01*
X186487819Y-82658584D01*
X186056819Y-82227584D01*
X186023334Y-82166261D01*
X186020500Y-82139903D01*
X186020500Y-76449060D01*
X186020501Y-76449047D01*
X186020501Y-76280944D01*
X186020501Y-76280943D01*
X185979577Y-76128216D01*
X185958181Y-76091157D01*
X185900524Y-75991290D01*
X185900518Y-75991282D01*
X185087611Y-75178375D01*
X185083675Y-75174254D01*
X185078564Y-75168650D01*
X185062491Y-75146006D01*
X184949549Y-75027195D01*
X184948682Y-75026244D01*
X184948606Y-75026088D01*
X184945651Y-75022795D01*
X184921183Y-74993887D01*
X184860923Y-74922692D01*
X184855939Y-74916399D01*
X184793670Y-74832293D01*
X184788746Y-74825127D01*
X184747211Y-74759900D01*
X184740626Y-74748207D01*
X184663097Y-74591230D01*
X184657123Y-74576956D01*
X184645946Y-74544734D01*
X184583497Y-74364693D01*
X184581913Y-74359796D01*
X184558483Y-74281883D01*
X184558463Y-74281815D01*
X184557367Y-74278218D01*
X184490366Y-74061282D01*
X184486487Y-74049258D01*
X184486307Y-74048723D01*
X184482424Y-74037613D01*
X184423751Y-73875792D01*
X184421158Y-73866113D01*
X184413810Y-73848374D01*
X184397867Y-73804402D01*
X184394919Y-73796479D01*
X184394782Y-73796120D01*
X184394777Y-73796109D01*
X184394774Y-73796101D01*
X184366442Y-73733690D01*
X184366609Y-73733613D01*
X184364584Y-73729534D01*
X184333344Y-73654112D01*
X184218611Y-73455388D01*
X184218608Y-73455385D01*
X184218607Y-73455382D01*
X184078918Y-73273338D01*
X184078911Y-73273330D01*
X183916670Y-73111089D01*
X183916661Y-73111081D01*
X183734617Y-72971392D01*
X183535890Y-72856657D01*
X183535876Y-72856650D01*
X183323887Y-72768842D01*
X183102238Y-72709452D01*
X183064215Y-72704446D01*
X182874741Y-72679500D01*
X182874734Y-72679500D01*
X182645266Y-72679500D01*
X182645258Y-72679500D01*
X182428715Y-72708009D01*
X182417762Y-72709452D01*
X182324076Y-72734554D01*
X182196112Y-72768842D01*
X181984123Y-72856650D01*
X181984109Y-72856657D01*
X181785382Y-72971392D01*
X181603338Y-73111081D01*
X181441081Y-73273338D01*
X181301392Y-73455382D01*
X181186657Y-73654109D01*
X181186650Y-73654123D01*
X181098842Y-73866112D01*
X181039453Y-74087759D01*
X181039451Y-74087770D01*
X181009500Y-74315258D01*
X181009500Y-74544741D01*
X181015621Y-74591230D01*
X181039452Y-74772238D01*
X181078074Y-74916379D01*
X181098842Y-74993887D01*
X181186650Y-75205876D01*
X181186657Y-75205890D01*
X181301392Y-75404617D01*
X181441081Y-75586661D01*
X181441089Y-75586670D01*
X181603330Y-75748911D01*
X181603338Y-75748918D01*
X181785382Y-75888607D01*
X181785385Y-75888608D01*
X181785388Y-75888611D01*
X181984112Y-76003344D01*
X181984117Y-76003346D01*
X181984123Y-76003349D01*
X182024127Y-76019919D01*
X182196113Y-76091158D01*
X182417762Y-76150548D01*
X182645266Y-76180500D01*
X182645273Y-76180500D01*
X182874733Y-76180500D01*
X182874734Y-76180500D01*
X183001182Y-76163852D01*
X183039657Y-76161359D01*
X183072259Y-76154494D01*
X183102238Y-76150548D01*
X183140218Y-76140370D01*
X183146703Y-76138820D01*
X183247393Y-76117622D01*
X183276951Y-76110464D01*
X183277901Y-76110203D01*
X183278301Y-76110094D01*
X183278311Y-76110091D01*
X183307512Y-76101126D01*
X183565361Y-76013348D01*
X183574461Y-76010152D01*
X183574870Y-76010004D01*
X183583424Y-76006822D01*
X183635528Y-75986896D01*
X183638582Y-75985774D01*
X183870072Y-75904275D01*
X183883469Y-75900392D01*
X183938405Y-75887778D01*
X183955860Y-75885062D01*
X183984640Y-75882668D01*
X184008104Y-75882944D01*
X184013012Y-75883468D01*
X184015373Y-75883721D01*
X184041456Y-75889401D01*
X184051246Y-75892670D01*
X184074862Y-75903420D01*
X184110502Y-75924398D01*
X184128510Y-75937294D01*
X184224450Y-76019919D01*
X184250673Y-76040954D01*
X184260763Y-76049998D01*
X184783181Y-76572416D01*
X184816666Y-76633739D01*
X184819500Y-76660097D01*
X184819500Y-82353330D01*
X184819499Y-82353348D01*
X184819499Y-82519054D01*
X184819498Y-82519054D01*
X184860424Y-82671789D01*
X184860425Y-82671790D01*
X184882433Y-82709908D01*
X184882434Y-82709909D01*
X184939477Y-82808712D01*
X184939481Y-82808717D01*
X185058349Y-82927585D01*
X185058355Y-82927590D01*
X186855139Y-84724374D01*
X186855149Y-84724385D01*
X186859479Y-84728715D01*
X186859480Y-84728716D01*
X186971284Y-84840520D01*
X187054413Y-84888514D01*
X187108215Y-84919577D01*
X187260943Y-84960501D01*
X187260946Y-84960501D01*
X187426653Y-84960501D01*
X187426669Y-84960500D01*
X191054780Y-84960500D01*
X191121819Y-84980185D01*
X191167574Y-85032989D01*
X191169341Y-85037047D01*
X191211339Y-85138441D01*
X191211344Y-85138450D01*
X191298945Y-85269553D01*
X191298948Y-85269557D01*
X191410442Y-85381051D01*
X191410446Y-85381054D01*
X191541549Y-85468655D01*
X191541562Y-85468662D01*
X191687233Y-85529000D01*
X191687238Y-85529002D01*
X191841888Y-85559764D01*
X191841891Y-85559765D01*
X191841893Y-85559765D01*
X191999579Y-85559765D01*
X191999580Y-85559764D01*
X192154232Y-85529002D01*
X192299914Y-85468659D01*
X192431024Y-85381054D01*
X192542524Y-85269554D01*
X192630129Y-85138444D01*
X192690472Y-84992762D01*
X192721235Y-84838107D01*
X192721235Y-84680423D01*
X192721235Y-84680420D01*
X192721234Y-84680418D01*
X192690473Y-84525775D01*
X192690472Y-84525768D01*
X192687856Y-84519452D01*
X192630132Y-84380092D01*
X192630125Y-84380079D01*
X192542524Y-84248976D01*
X192542521Y-84248972D01*
X192431027Y-84137478D01*
X192431022Y-84137474D01*
X192401463Y-84117724D01*
X192396537Y-84114257D01*
X192390415Y-84109721D01*
X192370850Y-84091114D01*
X192236852Y-83995953D01*
X192236679Y-83995825D01*
X192140839Y-83927953D01*
X192110386Y-83907994D01*
X192108975Y-83907140D01*
X192108969Y-83907136D01*
X192108958Y-83907130D01*
X192077222Y-83889450D01*
X192077216Y-83889447D01*
X192077200Y-83889438D01*
X191990008Y-83844893D01*
X191988387Y-83844184D01*
X191934447Y-83820592D01*
X191934438Y-83820589D01*
X191934432Y-83820586D01*
X191931845Y-83819635D01*
X191931809Y-83819623D01*
X191874036Y-83802223D01*
X191874023Y-83802219D01*
X191874014Y-83802217D01*
X191822701Y-83790052D01*
X191766339Y-83776690D01*
X191730056Y-83769783D01*
X191722005Y-83768251D01*
X191719935Y-83767952D01*
X191719934Y-83767951D01*
X191719928Y-83767951D01*
X191719906Y-83767948D01*
X191674444Y-83763469D01*
X191674434Y-83763468D01*
X191603459Y-83759704D01*
X191600764Y-83759562D01*
X191600527Y-83759499D01*
X191599567Y-83759499D01*
X191598422Y-83759438D01*
X191596297Y-83759325D01*
X191596296Y-83759325D01*
X191596284Y-83759325D01*
X191530963Y-83755861D01*
X191516585Y-83755303D01*
X191516021Y-83755289D01*
X191515986Y-83755290D01*
X191449542Y-83758034D01*
X191449535Y-83758034D01*
X191449534Y-83758035D01*
X191449532Y-83758035D01*
X191448496Y-83758188D01*
X191430503Y-83759500D01*
X187640097Y-83759500D01*
X187573058Y-83739815D01*
X187552416Y-83723181D01*
X187251416Y-83422181D01*
X187217931Y-83360858D01*
X187222915Y-83291166D01*
X187264787Y-83235233D01*
X187330251Y-83210816D01*
X187339097Y-83210500D01*
X197350667Y-83210500D01*
X197417706Y-83230185D01*
X197438348Y-83246819D01*
X203192681Y-89001152D01*
X203226166Y-89062475D01*
X203229000Y-89088833D01*
X203229000Y-121727167D01*
X203209315Y-121794206D01*
X203192681Y-121814848D01*
X187131348Y-137876181D01*
X187070025Y-137909666D01*
X187043667Y-137912500D01*
X181079938Y-137912500D01*
X181003510Y-137932978D01*
X180934989Y-137972540D01*
X180934986Y-137972542D01*
X178905930Y-140001597D01*
X178844607Y-140035082D01*
X178817444Y-140037913D01*
X121337121Y-139664971D01*
X121270211Y-139644852D01*
X121250245Y-139628655D01*
X120618117Y-138996527D01*
X120609952Y-138987519D01*
X120536453Y-138897953D01*
X120522956Y-138877751D01*
X120469822Y-138778344D01*
X120460521Y-138755891D01*
X120427797Y-138648030D01*
X120423054Y-138624193D01*
X120415303Y-138545560D01*
X120411411Y-138506075D01*
X120410827Y-138495703D01*
X120410814Y-138494840D01*
X120410811Y-138452274D01*
X120410173Y-138450311D01*
X120410013Y-138439179D01*
X120410112Y-138438821D01*
X120410000Y-138437393D01*
X120410000Y-135724153D01*
X142019000Y-135724153D01*
X142019000Y-135881846D01*
X142049761Y-136036489D01*
X142049764Y-136036501D01*
X142110102Y-136182172D01*
X142110109Y-136182185D01*
X142197710Y-136313288D01*
X142197713Y-136313292D01*
X142309207Y-136424786D01*
X142309211Y-136424789D01*
X142440314Y-136512390D01*
X142440327Y-136512397D01*
X142585998Y-136572735D01*
X142586003Y-136572737D01*
X142740653Y-136603499D01*
X142740656Y-136603500D01*
X142740658Y-136603500D01*
X142898344Y-136603500D01*
X142898345Y-136603499D01*
X143052997Y-136572737D01*
X143198679Y-136512394D01*
X143329789Y-136424789D01*
X143441289Y-136313289D01*
X143481803Y-136252653D01*
X143488260Y-136243856D01*
X143510256Y-136216496D01*
X143546137Y-136155858D01*
X143560766Y-136129354D01*
X143561411Y-136128098D01*
X143574626Y-136100315D01*
X143601525Y-136039021D01*
X143616192Y-136001631D01*
X143616798Y-135999885D01*
X143628346Y-135961845D01*
X143658303Y-135847115D01*
X143659333Y-135843028D01*
X143664262Y-135833160D01*
X143665069Y-135825744D01*
X143680045Y-135801559D01*
X143683116Y-135795413D01*
X143684454Y-135793756D01*
X143685259Y-135792828D01*
X143707567Y-135765148D01*
X143707592Y-135765130D01*
X143716331Y-135755402D01*
X144232069Y-135239664D01*
X144254004Y-135222211D01*
X144257626Y-135219947D01*
X144394091Y-135104607D01*
X144407387Y-135094812D01*
X144598130Y-134973026D01*
X144609939Y-134966364D01*
X144887494Y-134829272D01*
X144895919Y-134825495D01*
X145045901Y-134764863D01*
X145051604Y-134762720D01*
X145214236Y-134706158D01*
X145220093Y-134704285D01*
X145381608Y-134657052D01*
X145387896Y-134655392D01*
X145547521Y-134617750D01*
X145554275Y-134616357D01*
X145696407Y-134591181D01*
X145703925Y-134590086D01*
X145836356Y-134574950D01*
X145845286Y-134574255D01*
X145977929Y-134568758D01*
X146010496Y-134564530D01*
X146026456Y-134563499D01*
X146607371Y-134563499D01*
X146607372Y-134563499D01*
X146666983Y-134557091D01*
X146801831Y-134506796D01*
X146917046Y-134420546D01*
X147003296Y-134305331D01*
X147053591Y-134170483D01*
X147060000Y-134110873D01*
X147059999Y-132015128D01*
X147053591Y-131955517D01*
X147045242Y-131933133D01*
X147003297Y-131820671D01*
X147003293Y-131820664D01*
X146917047Y-131705455D01*
X146917044Y-131705452D01*
X146801835Y-131619206D01*
X146801830Y-131619203D01*
X146752124Y-131600664D01*
X146696191Y-131558792D01*
X146671774Y-131493328D01*
X146686626Y-131425055D01*
X146707774Y-131396803D01*
X146808039Y-131296539D01*
X146895644Y-131165429D01*
X146900760Y-131153079D01*
X146916716Y-131114556D01*
X146955987Y-131019747D01*
X146986750Y-130865092D01*
X146986750Y-130707408D01*
X146986750Y-130707405D01*
X146986749Y-130707403D01*
X146985112Y-130699172D01*
X146955987Y-130552753D01*
X146906549Y-130433397D01*
X146895647Y-130407077D01*
X146895640Y-130407064D01*
X146808039Y-130275961D01*
X146808036Y-130275957D01*
X146696542Y-130164463D01*
X146696538Y-130164460D01*
X146565435Y-130076859D01*
X146565422Y-130076852D01*
X146419751Y-130016514D01*
X146419739Y-130016511D01*
X146265095Y-129985750D01*
X146265092Y-129985750D01*
X146107408Y-129985750D01*
X146107405Y-129985750D01*
X145952760Y-130016511D01*
X145952748Y-130016514D01*
X145807077Y-130076852D01*
X145807064Y-130076859D01*
X145675961Y-130164460D01*
X145675957Y-130164463D01*
X145564463Y-130275957D01*
X145564458Y-130275963D01*
X145523959Y-130336574D01*
X145517503Y-130345373D01*
X145495495Y-130372749D01*
X145459608Y-130433397D01*
X145445135Y-130459597D01*
X145444492Y-130460847D01*
X145431130Y-130488914D01*
X145404220Y-130550234D01*
X145389541Y-130587661D01*
X145388950Y-130589361D01*
X145377404Y-130627399D01*
X145347415Y-130742251D01*
X145346393Y-130746298D01*
X145341478Y-130756129D01*
X145340676Y-130763508D01*
X145325605Y-130787884D01*
X145322629Y-130793839D01*
X145321253Y-130795541D01*
X145320487Y-130796426D01*
X145299206Y-130822830D01*
X145298494Y-130823713D01*
X145298277Y-130823983D01*
X145298271Y-130823988D01*
X145298186Y-130824095D01*
X145298160Y-130824112D01*
X145289412Y-130833852D01*
X145190786Y-130932478D01*
X145078981Y-131044282D01*
X145078975Y-131044290D01*
X145038408Y-131114556D01*
X145038408Y-131114558D01*
X144999923Y-131181214D01*
X144988046Y-131225537D01*
X144958999Y-131333943D01*
X144958999Y-131333945D01*
X144956896Y-131341794D01*
X144955147Y-131341325D01*
X144947725Y-131358093D01*
X144939098Y-131385216D01*
X144932499Y-131392495D01*
X144930967Y-131395958D01*
X144915394Y-131411366D01*
X144853767Y-131462397D01*
X144845116Y-131468944D01*
X144795344Y-131503295D01*
X144784951Y-131509735D01*
X144742774Y-131533076D01*
X144730357Y-131539072D01*
X144713072Y-131546262D01*
X144678184Y-131555116D01*
X144651772Y-131557843D01*
X144651753Y-131557845D01*
X144651745Y-131557846D01*
X144650028Y-131558043D01*
X144640198Y-131559172D01*
X144635507Y-131560082D01*
X144635348Y-131559263D01*
X144611358Y-131562500D01*
X144511630Y-131562500D01*
X144511623Y-131562501D01*
X144452016Y-131568908D01*
X144317171Y-131619202D01*
X144317164Y-131619206D01*
X144201955Y-131705452D01*
X144201952Y-131705455D01*
X144115706Y-131820664D01*
X144115702Y-131820671D01*
X144065408Y-131955517D01*
X144059001Y-132015116D01*
X144059001Y-132015123D01*
X144059000Y-132015135D01*
X144059000Y-132595145D01*
X144056301Y-132620876D01*
X144054030Y-132631577D01*
X144054029Y-132631586D01*
X144038381Y-132867438D01*
X144036624Y-132881567D01*
X143987458Y-133150026D01*
X143984567Y-133162270D01*
X143895140Y-133470205D01*
X143891228Y-133481583D01*
X143763612Y-133801365D01*
X143759782Y-133809993D01*
X143693668Y-133944840D01*
X143690453Y-133950960D01*
X143619054Y-134078125D01*
X143615110Y-134084668D01*
X143549920Y-134185655D01*
X143544884Y-134192880D01*
X143484970Y-134272638D01*
X143478030Y-134281076D01*
X143413218Y-134353148D01*
X143383573Y-134388917D01*
X143383231Y-134388633D01*
X143375759Y-134397504D01*
X142853083Y-134920180D01*
X142834698Y-134935330D01*
X142834321Y-134935583D01*
X142824042Y-134942409D01*
X142823576Y-134942824D01*
X142819682Y-134945449D01*
X142810369Y-134948405D01*
X142780062Y-134963015D01*
X142777527Y-134963639D01*
X142668044Y-134991709D01*
X142630641Y-135002857D01*
X142628933Y-135003438D01*
X142592476Y-135017447D01*
X142528947Y-135044719D01*
X142500067Y-135058211D01*
X142498761Y-135058872D01*
X142470715Y-135074200D01*
X142407042Y-135111665D01*
X142394852Y-135119072D01*
X142394329Y-135119401D01*
X142394304Y-135119417D01*
X142340071Y-135158671D01*
X142338229Y-135160323D01*
X142324360Y-135171086D01*
X142309221Y-135181203D01*
X142309212Y-135181210D01*
X142197709Y-135292712D01*
X142110109Y-135423814D01*
X142110102Y-135423827D01*
X142049764Y-135569498D01*
X142049761Y-135569510D01*
X142019000Y-135724153D01*
X120410000Y-135724153D01*
X120410000Y-123572999D01*
X121334494Y-123572999D01*
X121334494Y-123573000D01*
X121352519Y-123789152D01*
X121352519Y-123789154D01*
X121406097Y-123999331D01*
X121406099Y-123999335D01*
X121493747Y-124197733D01*
X121613049Y-124378877D01*
X121613051Y-124378881D01*
X121737815Y-124513129D01*
X121760709Y-124537763D01*
X121932643Y-124669993D01*
X122124105Y-124771920D01*
X122260999Y-124817710D01*
X122329800Y-124840725D01*
X122329801Y-124840725D01*
X122329804Y-124840726D01*
X122544059Y-124874511D01*
X122544064Y-124874510D01*
X122544065Y-124874511D01*
X122650181Y-124873506D01*
X122651356Y-124873500D01*
X140137644Y-124873500D01*
X140138819Y-124873506D01*
X140244934Y-124874511D01*
X140244934Y-124874510D01*
X140244941Y-124874511D01*
X140459196Y-124840726D01*
X140664895Y-124771920D01*
X140856357Y-124669993D01*
X141028291Y-124537763D01*
X141175949Y-124378880D01*
X141295251Y-124197735D01*
X141382902Y-123999332D01*
X141436481Y-123789152D01*
X141454506Y-123573000D01*
X141454506Y-123572998D01*
X143844493Y-123572998D01*
X143844493Y-123573001D01*
X143862519Y-123789155D01*
X143862520Y-123789161D01*
X143885249Y-123878322D01*
X143916101Y-123999346D01*
X143999233Y-124187511D01*
X144003759Y-124197756D01*
X144123052Y-124378880D01*
X144123067Y-124378902D01*
X144270734Y-124537786D01*
X144442677Y-124670016D01*
X144442679Y-124670017D01*
X144442683Y-124670020D01*
X144561974Y-124733520D01*
X144634149Y-124771940D01*
X144839857Y-124840740D01*
X144839860Y-124840740D01*
X144839865Y-124840742D01*
X145054106Y-124874515D01*
X145054108Y-124874515D01*
X145054120Y-124874517D01*
X145160260Y-124873505D01*
X145161441Y-124873500D01*
X152637559Y-124873500D01*
X152638739Y-124873505D01*
X152744880Y-124874517D01*
X152744918Y-124874511D01*
X152959134Y-124840742D01*
X152959137Y-124840740D01*
X152959143Y-124840740D01*
X153164851Y-124771940D01*
X153315164Y-124691925D01*
X153356316Y-124670020D01*
X153356317Y-124670019D01*
X153356323Y-124670016D01*
X153528266Y-124537786D01*
X153675933Y-124378902D01*
X153795242Y-124197754D01*
X153882899Y-123999346D01*
X153936480Y-123789159D01*
X153954507Y-123573000D01*
X153936480Y-123356841D01*
X153882899Y-123146654D01*
X153795242Y-122948246D01*
X153675948Y-122767121D01*
X153675935Y-122767101D01*
X153675932Y-122767097D01*
X153528266Y-122608214D01*
X153356323Y-122475984D01*
X153356321Y-122475983D01*
X153356316Y-122475979D01*
X153164851Y-122374060D01*
X153164847Y-122374058D01*
X152959140Y-122305259D01*
X152959134Y-122305257D01*
X152744893Y-122271484D01*
X152744882Y-122271483D01*
X152744880Y-122271483D01*
X152744876Y-122271483D01*
X152638740Y-122272494D01*
X152637559Y-122272500D01*
X145161441Y-122272500D01*
X145160260Y-122272494D01*
X145054123Y-122271483D01*
X145054122Y-122271483D01*
X145054120Y-122271483D01*
X145054118Y-122271483D01*
X145054106Y-122271484D01*
X144839865Y-122305257D01*
X144839859Y-122305259D01*
X144634152Y-122374058D01*
X144634148Y-122374060D01*
X144442683Y-122475979D01*
X144270734Y-122608214D01*
X144123067Y-122767097D01*
X144123064Y-122767101D01*
X144003759Y-122948243D01*
X143916101Y-123146654D01*
X143862520Y-123356838D01*
X143862519Y-123356844D01*
X143844493Y-123572998D01*
X141454506Y-123572998D01*
X141436481Y-123356848D01*
X141382902Y-123146668D01*
X141328521Y-123023574D01*
X141295252Y-122948266D01*
X141175950Y-122767122D01*
X141175948Y-122767118D01*
X141028290Y-122608236D01*
X140919130Y-122524284D01*
X140856357Y-122476007D01*
X140856355Y-122476006D01*
X140856354Y-122476005D01*
X140664895Y-122374080D01*
X140664889Y-122374078D01*
X140459199Y-122305274D01*
X140298504Y-122279935D01*
X140244941Y-122271489D01*
X140244940Y-122271489D01*
X140244934Y-122271488D01*
X140138819Y-122272494D01*
X140137644Y-122272500D01*
X122651356Y-122272500D01*
X122650181Y-122272494D01*
X122544065Y-122271488D01*
X122544059Y-122271489D01*
X122329801Y-122305274D01*
X122329800Y-122305274D01*
X122124110Y-122374078D01*
X122124104Y-122374080D01*
X121932645Y-122476005D01*
X121760709Y-122608236D01*
X121613051Y-122767118D01*
X121613049Y-122767122D01*
X121493747Y-122948266D01*
X121406099Y-123146664D01*
X121406097Y-123146668D01*
X121352519Y-123356845D01*
X121352519Y-123356847D01*
X121334494Y-123572999D01*
X120410000Y-123572999D01*
X120410000Y-121169969D01*
X120410017Y-121159157D01*
X120410511Y-121157587D01*
X120410088Y-121115379D01*
X120410090Y-121114677D01*
X120410162Y-121114431D01*
X120410579Y-121103883D01*
X120418670Y-121013008D01*
X120421183Y-120984778D01*
X120425741Y-120960765D01*
X120457786Y-120851952D01*
X120466973Y-120829293D01*
X120519752Y-120728895D01*
X120533211Y-120708478D01*
X120604672Y-120620397D01*
X120621873Y-120603023D01*
X120709241Y-120530679D01*
X120729516Y-120517022D01*
X120829382Y-120463242D01*
X120851945Y-120453830D01*
X120960425Y-120420700D01*
X120984407Y-120415899D01*
X121103397Y-120404105D01*
X121115628Y-120403500D01*
X139588344Y-120403500D01*
X139588345Y-120403499D01*
X139742997Y-120372737D01*
X139888679Y-120312394D01*
X140019789Y-120224789D01*
X140131289Y-120113289D01*
X140218894Y-119982179D01*
X140230644Y-119953813D01*
X140265015Y-119870832D01*
X140279237Y-119836497D01*
X140310000Y-119681842D01*
X140310000Y-119603000D01*
X140310000Y-119555405D01*
X140310000Y-119415919D01*
X140312976Y-119381361D01*
X140310000Y-119368550D01*
X140310000Y-119363438D01*
X140301595Y-119332075D01*
X140300600Y-119328091D01*
X140291436Y-119288643D01*
X140291437Y-119288643D01*
X140269576Y-119252374D01*
X140264550Y-119243177D01*
X140173765Y-119058964D01*
X140166128Y-119039469D01*
X140109132Y-118847659D01*
X140104883Y-118827156D01*
X140085530Y-118666355D01*
X140080970Y-118628461D01*
X140080234Y-118607561D01*
X140090090Y-118407693D01*
X140092882Y-118386954D01*
X140136227Y-118191595D01*
X140142470Y-118171615D01*
X140142479Y-118171593D01*
X140218066Y-117986330D01*
X140227580Y-117967690D01*
X140333275Y-117797765D01*
X140345794Y-117780987D01*
X140345806Y-117780974D01*
X140478571Y-117631270D01*
X140493724Y-117616846D01*
X140649800Y-117491603D01*
X140667168Y-117479930D01*
X140842099Y-117382729D01*
X140861173Y-117374150D01*
X141049969Y-117307765D01*
X141070217Y-117302517D01*
X141267487Y-117268844D01*
X141288327Y-117267078D01*
X141488444Y-117267078D01*
X141509306Y-117268846D01*
X141571579Y-117279474D01*
X141706558Y-117302512D01*
X141726813Y-117307760D01*
X141915602Y-117374140D01*
X141934688Y-117382724D01*
X141975037Y-117405143D01*
X142109610Y-117479917D01*
X142126988Y-117491596D01*
X142283059Y-117616832D01*
X142298222Y-117631265D01*
X142384302Y-117728325D01*
X142430995Y-117780974D01*
X142443515Y-117797755D01*
X142549206Y-117967667D01*
X142558725Y-117986316D01*
X142617666Y-118130771D01*
X142634323Y-118171593D01*
X142640568Y-118191579D01*
X142683914Y-118386934D01*
X142686707Y-118407684D01*
X142696566Y-118607535D01*
X142695829Y-118628461D01*
X142671920Y-118827136D01*
X142667672Y-118847638D01*
X142610678Y-119039451D01*
X142603041Y-119058947D01*
X142512071Y-119243540D01*
X142507047Y-119252734D01*
X142485403Y-119288645D01*
X142463865Y-119381363D01*
X142468543Y-119435679D01*
X142469000Y-119446319D01*
X142469000Y-119681846D01*
X142499761Y-119836489D01*
X142499764Y-119836501D01*
X142560102Y-119982172D01*
X142560109Y-119982185D01*
X142647710Y-120113288D01*
X142647713Y-120113292D01*
X142759207Y-120224786D01*
X142759211Y-120224789D01*
X142890314Y-120312390D01*
X142890327Y-120312397D01*
X142965623Y-120343585D01*
X143036003Y-120372737D01*
X143190653Y-120403499D01*
X143190656Y-120403500D01*
X143190658Y-120403500D01*
X172098344Y-120403500D01*
X172098345Y-120403499D01*
X172252997Y-120372737D01*
X172398679Y-120312394D01*
X172529789Y-120224789D01*
X172641289Y-120113289D01*
X172728894Y-119982179D01*
X172740644Y-119953813D01*
X172775015Y-119870832D01*
X172789237Y-119836497D01*
X172789539Y-119834974D01*
X172789918Y-119834251D01*
X172791006Y-119830665D01*
X172791685Y-119830871D01*
X172821921Y-119773063D01*
X172882635Y-119738485D01*
X172952404Y-119742221D01*
X173009079Y-119783084D01*
X173015697Y-119792470D01*
X173118624Y-119953815D01*
X173126383Y-119965611D01*
X173126710Y-119966093D01*
X173126724Y-119966113D01*
X173134710Y-119977552D01*
X173262262Y-120154979D01*
X173274589Y-120171411D01*
X173275168Y-120172151D01*
X173288617Y-120188614D01*
X173350457Y-120261147D01*
X173392996Y-120311041D01*
X173393009Y-120311055D01*
X173401532Y-120321052D01*
X173421050Y-120354859D01*
X173532854Y-120466663D01*
X173532856Y-120466664D01*
X173542129Y-120475937D01*
X173543678Y-120477486D01*
X173545297Y-120479135D01*
X173719111Y-120659552D01*
X173723397Y-120663947D01*
X173723450Y-120664001D01*
X173723550Y-120664103D01*
X173723555Y-120664107D01*
X173766105Y-120702579D01*
X173768742Y-120704523D01*
X173782845Y-120716653D01*
X175127011Y-122060819D01*
X175160496Y-122122142D01*
X175155512Y-122191834D01*
X175113640Y-122247767D01*
X175048176Y-122272184D01*
X175039330Y-122272500D01*
X167661441Y-122272500D01*
X167660260Y-122272494D01*
X167554123Y-122271483D01*
X167554122Y-122271483D01*
X167554120Y-122271483D01*
X167554118Y-122271483D01*
X167554106Y-122271484D01*
X167339865Y-122305257D01*
X167339859Y-122305259D01*
X167134152Y-122374058D01*
X167134148Y-122374060D01*
X166942683Y-122475979D01*
X166770734Y-122608214D01*
X166623067Y-122767097D01*
X166565657Y-122854264D01*
X166512343Y-122899423D01*
X166443077Y-122908590D01*
X166379851Y-122878854D01*
X166351616Y-122842355D01*
X166349343Y-122837894D01*
X166219777Y-122659561D01*
X166219773Y-122659556D01*
X166063893Y-122503676D01*
X166063888Y-122503672D01*
X165885555Y-122374107D01*
X165885554Y-122374106D01*
X165885552Y-122374105D01*
X165822626Y-122342042D01*
X165689136Y-122274024D01*
X165689133Y-122274023D01*
X165479482Y-122205905D01*
X165370616Y-122188662D01*
X165261752Y-122171420D01*
X165041308Y-122171420D01*
X164968731Y-122182915D01*
X164823577Y-122205905D01*
X164613926Y-122274023D01*
X164613923Y-122274024D01*
X164417504Y-122374107D01*
X164239171Y-122503672D01*
X164239166Y-122503676D01*
X164083286Y-122659556D01*
X164083282Y-122659561D01*
X163953716Y-122837894D01*
X163949671Y-122845834D01*
X163901694Y-122896628D01*
X163833873Y-122913421D01*
X163767739Y-122890881D01*
X163735630Y-122857738D01*
X163675950Y-122767121D01*
X163675948Y-122767118D01*
X163528290Y-122608236D01*
X163419130Y-122524284D01*
X163356357Y-122476007D01*
X163356355Y-122476006D01*
X163356354Y-122476005D01*
X163164895Y-122374080D01*
X163164889Y-122374078D01*
X162959199Y-122305274D01*
X162798504Y-122279935D01*
X162744941Y-122271489D01*
X162744940Y-122271489D01*
X162744934Y-122271488D01*
X162638819Y-122272494D01*
X162637644Y-122272500D01*
X157661441Y-122272500D01*
X157660260Y-122272494D01*
X157554123Y-122271483D01*
X157554122Y-122271483D01*
X157554120Y-122271483D01*
X157554118Y-122271483D01*
X157554106Y-122271484D01*
X157339865Y-122305257D01*
X157339859Y-122305259D01*
X157134152Y-122374058D01*
X157134148Y-122374060D01*
X156942683Y-122475979D01*
X156770734Y-122608214D01*
X156623067Y-122767097D01*
X156623064Y-122767101D01*
X156503759Y-122948243D01*
X156416101Y-123146654D01*
X156362520Y-123356838D01*
X156362519Y-123356844D01*
X156344493Y-123572998D01*
X156344493Y-123573001D01*
X156362519Y-123789155D01*
X156362520Y-123789161D01*
X156385249Y-123878322D01*
X156416101Y-123999346D01*
X156499233Y-124187511D01*
X156503759Y-124197756D01*
X156623052Y-124378880D01*
X156623067Y-124378902D01*
X156770734Y-124537786D01*
X156942677Y-124670016D01*
X156942679Y-124670017D01*
X156942683Y-124670020D01*
X157061974Y-124733520D01*
X157134149Y-124771940D01*
X157339857Y-124840740D01*
X157339860Y-124840740D01*
X157339865Y-124840742D01*
X157554106Y-124874515D01*
X157554108Y-124874515D01*
X157554120Y-124874517D01*
X157660260Y-124873505D01*
X157661441Y-124873500D01*
X162637644Y-124873500D01*
X162638819Y-124873506D01*
X162744934Y-124874511D01*
X162744934Y-124874510D01*
X162744941Y-124874511D01*
X162959196Y-124840726D01*
X163164895Y-124771920D01*
X163356357Y-124669993D01*
X163528291Y-124537763D01*
X163675949Y-124378880D01*
X163736252Y-124287317D01*
X163761349Y-124266057D01*
X163785710Y-124243945D01*
X163787881Y-124243581D01*
X163789562Y-124242158D01*
X163822183Y-124237839D01*
X163854621Y-124232410D01*
X163856643Y-124233278D01*
X163858827Y-124232989D01*
X163888602Y-124246991D01*
X163918829Y-124259962D01*
X163920429Y-124261958D01*
X163922054Y-124262723D01*
X163942550Y-124286096D01*
X163946830Y-124292430D01*
X163953715Y-124305942D01*
X163985831Y-124350147D01*
X163987026Y-124351915D01*
X163987279Y-124352711D01*
X163993400Y-124362438D01*
X164004352Y-124382731D01*
X164119238Y-124537786D01*
X164188861Y-124631752D01*
X164199356Y-124645423D01*
X164199891Y-124646095D01*
X164210950Y-124659517D01*
X164210968Y-124659538D01*
X164210991Y-124659566D01*
X164338678Y-124809197D01*
X164339546Y-124810226D01*
X164455274Y-124949093D01*
X164462633Y-124958868D01*
X164480653Y-124985439D01*
X164487958Y-124997671D01*
X164498441Y-125017764D01*
X164505050Y-125032777D01*
X164508943Y-125043492D01*
X164513991Y-125057385D01*
X164518419Y-125072507D01*
X164529058Y-125119789D01*
X164531270Y-125132831D01*
X164540843Y-125215999D01*
X164541591Y-125226153D01*
X164545927Y-125359702D01*
X164549960Y-125411342D01*
X164549853Y-125411350D01*
X164551030Y-125424988D01*
X164551030Y-125673995D01*
X164549907Y-125690646D01*
X164549278Y-125695283D01*
X164549200Y-125695560D01*
X164540112Y-125762922D01*
X164539929Y-125764280D01*
X164539912Y-125764316D01*
X164533919Y-125789078D01*
X164503206Y-125875675D01*
X164496846Y-125890477D01*
X164474684Y-125934015D01*
X164469559Y-125943113D01*
X164433756Y-126000849D01*
X164427888Y-126009480D01*
X164387990Y-126063149D01*
X164381067Y-126071648D01*
X164337918Y-126120087D01*
X164329842Y-126128345D01*
X164292861Y-126162790D01*
X164283329Y-126170813D01*
X164247927Y-126197692D01*
X164236826Y-126205210D01*
X164214370Y-126218708D01*
X164201620Y-126225397D01*
X164183561Y-126233571D01*
X164169198Y-126239027D01*
X164164528Y-126240477D01*
X164148948Y-126244230D01*
X164142963Y-126245268D01*
X164132250Y-126246476D01*
X164132264Y-126246626D01*
X164106793Y-126248918D01*
X164091867Y-126250261D01*
X164091866Y-126250261D01*
X164091857Y-126250262D01*
X164090554Y-126250499D01*
X164068381Y-126252500D01*
X164061646Y-126252500D01*
X164061627Y-126252501D01*
X164002016Y-126258908D01*
X163867171Y-126309202D01*
X163867164Y-126309206D01*
X163751955Y-126395452D01*
X163751952Y-126395455D01*
X163665706Y-126510664D01*
X163665702Y-126510671D01*
X163615408Y-126645517D01*
X163610033Y-126695516D01*
X163609001Y-126705123D01*
X163609000Y-126705135D01*
X163609000Y-128800870D01*
X163609002Y-128800889D01*
X163611298Y-128822245D01*
X163598893Y-128891004D01*
X163551283Y-128942142D01*
X163488009Y-128959500D01*
X152133441Y-128959500D01*
X152094737Y-128969870D01*
X152094738Y-128969871D01*
X151980714Y-129000423D01*
X151980709Y-129000426D01*
X151843790Y-129079475D01*
X151843782Y-129079481D01*
X149792314Y-131130949D01*
X149792308Y-131130957D01*
X149750756Y-131202929D01*
X149750753Y-131202935D01*
X149745993Y-131211181D01*
X149713256Y-131267882D01*
X149685879Y-131370049D01*
X149683442Y-131376327D01*
X149666075Y-131398894D01*
X149651256Y-131423207D01*
X149642384Y-131430549D01*
X149581171Y-131476591D01*
X149572159Y-131482767D01*
X149521973Y-131514004D01*
X149511077Y-131520049D01*
X149470698Y-131539865D01*
X149457579Y-131545393D01*
X149444273Y-131550120D01*
X149428674Y-131554537D01*
X149427504Y-131554787D01*
X149412185Y-131557071D01*
X149395982Y-131558460D01*
X149394475Y-131558835D01*
X149391614Y-131559185D01*
X149391141Y-131559264D01*
X149391137Y-131559243D01*
X149364551Y-131562500D01*
X149224963Y-131562500D01*
X149224956Y-131562501D01*
X149165349Y-131568908D01*
X149030504Y-131619202D01*
X149030497Y-131619206D01*
X148915288Y-131705452D01*
X148915285Y-131705455D01*
X148829039Y-131820664D01*
X148829035Y-131820671D01*
X148778741Y-131955517D01*
X148772334Y-132015116D01*
X148772334Y-132015123D01*
X148772333Y-132015135D01*
X148772333Y-134110870D01*
X148772334Y-134110876D01*
X148778741Y-134170483D01*
X148829035Y-134305328D01*
X148829039Y-134305335D01*
X148915285Y-134420544D01*
X148915288Y-134420547D01*
X149030497Y-134506793D01*
X149030504Y-134506797D01*
X149165350Y-134557091D01*
X149165349Y-134557091D01*
X149224948Y-134563499D01*
X149224953Y-134563499D01*
X149224960Y-134563500D01*
X149224966Y-134563499D01*
X149228269Y-134563677D01*
X149228259Y-134563855D01*
X149228265Y-134563856D01*
X149228253Y-134563959D01*
X149228252Y-134563987D01*
X149239895Y-134564813D01*
X149247912Y-134565989D01*
X149251847Y-134567105D01*
X149294679Y-134572852D01*
X149295349Y-134572951D01*
X149296270Y-134573375D01*
X149323119Y-134580395D01*
X149327560Y-134582159D01*
X149337980Y-134586298D01*
X149360915Y-134598318D01*
X149374985Y-134607684D01*
X149414035Y-134633680D01*
X149431151Y-134647406D01*
X149512159Y-134725098D01*
X149524993Y-134739483D01*
X149614286Y-134856788D01*
X149624426Y-134872424D01*
X149655312Y-134928947D01*
X149657147Y-134932304D01*
X149672332Y-134991763D01*
X149672332Y-135075387D01*
X149672331Y-135075387D01*
X149711671Y-135222205D01*
X149713256Y-135228118D01*
X149714166Y-135229693D01*
X149730737Y-135258395D01*
X149730739Y-135258398D01*
X149792312Y-135365047D01*
X149792314Y-135365050D01*
X149911182Y-135483918D01*
X149911188Y-135483923D01*
X151726680Y-137299415D01*
X151741830Y-137317801D01*
X151742050Y-137318127D01*
X151748906Y-137328454D01*
X151749325Y-137328923D01*
X151751951Y-137332820D01*
X151754934Y-137342218D01*
X151769523Y-137372466D01*
X151769992Y-137374369D01*
X151770140Y-137374971D01*
X151779594Y-137411842D01*
X151798209Y-137484448D01*
X151809359Y-137521863D01*
X151809936Y-137523559D01*
X151823938Y-137559998D01*
X151826724Y-137566489D01*
X151851217Y-137623544D01*
X151864627Y-137652263D01*
X151865292Y-137653578D01*
X151877145Y-137675273D01*
X151880728Y-137681832D01*
X151918122Y-137745384D01*
X151925338Y-137757270D01*
X151925654Y-137757775D01*
X151965162Y-137812415D01*
X151966824Y-137814269D01*
X151977595Y-137828149D01*
X151987712Y-137843291D01*
X152099207Y-137954786D01*
X152099211Y-137954789D01*
X152230314Y-138042390D01*
X152230327Y-138042397D01*
X152375998Y-138102735D01*
X152376003Y-138102737D01*
X152530653Y-138133499D01*
X152530656Y-138133500D01*
X152530658Y-138133500D01*
X152688344Y-138133500D01*
X152688345Y-138133499D01*
X152842997Y-138102737D01*
X152988679Y-138042394D01*
X153119789Y-137954789D01*
X153231289Y-137843289D01*
X153318894Y-137712179D01*
X153379237Y-137566497D01*
X153410000Y-137411842D01*
X153410000Y-137254158D01*
X153410000Y-137254155D01*
X153409999Y-137254153D01*
X153405298Y-137230518D01*
X153379237Y-137099503D01*
X153370339Y-137078022D01*
X153318897Y-136953827D01*
X153318890Y-136953814D01*
X153231289Y-136822711D01*
X153231286Y-136822707D01*
X153119792Y-136711213D01*
X153119784Y-136711207D01*
X153059176Y-136670710D01*
X153050375Y-136664252D01*
X153023000Y-136642245D01*
X152973133Y-136612738D01*
X152962358Y-136606362D01*
X152949106Y-136599047D01*
X152935860Y-136591736D01*
X152934593Y-136591085D01*
X152906806Y-136577868D01*
X152845515Y-136550970D01*
X152808233Y-136536341D01*
X152806518Y-136535746D01*
X152768358Y-136524156D01*
X152713633Y-136509867D01*
X152653586Y-136494188D01*
X152652980Y-136494035D01*
X152649496Y-136493156D01*
X152639643Y-136488233D01*
X152632246Y-136487429D01*
X152607870Y-136472359D01*
X152601914Y-136469383D01*
X152600221Y-136468016D01*
X152599323Y-136467237D01*
X152571658Y-136444941D01*
X152571639Y-136444914D01*
X152561900Y-136436165D01*
X151026486Y-134900751D01*
X150993001Y-134839428D01*
X150997985Y-134769736D01*
X151016024Y-134737281D01*
X151019160Y-134733222D01*
X151026605Y-134724460D01*
X151063817Y-134684580D01*
X151072373Y-134676256D01*
X151105611Y-134646905D01*
X151115566Y-134638986D01*
X151148152Y-134615696D01*
X151159539Y-134608463D01*
X151181334Y-134596233D01*
X151194213Y-134589957D01*
X151212912Y-134582151D01*
X151227179Y-134577195D01*
X151234375Y-134575178D01*
X151249693Y-134571915D01*
X151266890Y-134569376D01*
X151274592Y-134568484D01*
X151310269Y-134565490D01*
X151310273Y-134565488D01*
X151315957Y-134564473D01*
X151316014Y-134564793D01*
X151325463Y-134562987D01*
X151380316Y-134557091D01*
X151515164Y-134506796D01*
X151630379Y-134420546D01*
X151716629Y-134305331D01*
X151766924Y-134170483D01*
X151773333Y-134110873D01*
X151773332Y-132015128D01*
X151766924Y-131955517D01*
X151758575Y-131933133D01*
X151716630Y-131820671D01*
X151716626Y-131820664D01*
X151630380Y-131705455D01*
X151630377Y-131705452D01*
X151515168Y-131619206D01*
X151515161Y-131619202D01*
X151380317Y-131568909D01*
X151342304Y-131564821D01*
X151277754Y-131538081D01*
X151237907Y-131480688D01*
X151235416Y-131410862D01*
X151267880Y-131353853D01*
X152424916Y-130196819D01*
X152486239Y-130163334D01*
X152512597Y-130160500D01*
X156740068Y-130160500D01*
X156807107Y-130180185D01*
X156852862Y-130232989D01*
X156862806Y-130302147D01*
X156833781Y-130365703D01*
X156827749Y-130372181D01*
X156313600Y-130886329D01*
X156305075Y-130894096D01*
X156298694Y-130899387D01*
X156288038Y-130906053D01*
X156151222Y-131021688D01*
X156150698Y-131022123D01*
X156150405Y-131022248D01*
X156138272Y-131031189D01*
X155947521Y-131152979D01*
X155935705Y-131159643D01*
X155658173Y-131296723D01*
X155649734Y-131300506D01*
X155499791Y-131361123D01*
X155494049Y-131363281D01*
X155331445Y-131419833D01*
X155325516Y-131421729D01*
X155164086Y-131468937D01*
X155157743Y-131470612D01*
X154998194Y-131508237D01*
X154991372Y-131509644D01*
X154911310Y-131523825D01*
X154849270Y-131534814D01*
X154841726Y-131535912D01*
X154709309Y-131551048D01*
X154700363Y-131551744D01*
X154567730Y-131557241D01*
X154535158Y-131561469D01*
X154519200Y-131562500D01*
X153938296Y-131562500D01*
X153938290Y-131562501D01*
X153878683Y-131568908D01*
X153743838Y-131619202D01*
X153743831Y-131619206D01*
X153628622Y-131705452D01*
X153628619Y-131705455D01*
X153542373Y-131820664D01*
X153542369Y-131820671D01*
X153492075Y-131955517D01*
X153485668Y-132015116D01*
X153485668Y-132015123D01*
X153485667Y-132015135D01*
X153485667Y-134110870D01*
X153485668Y-134110876D01*
X153492075Y-134170483D01*
X153542369Y-134305328D01*
X153542373Y-134305335D01*
X153628619Y-134420544D01*
X153628622Y-134420547D01*
X153743831Y-134506793D01*
X153743838Y-134506797D01*
X153743841Y-134506798D01*
X153878684Y-134557091D01*
X153938294Y-134563500D01*
X154096308Y-134563499D01*
X154114424Y-134564829D01*
X154121033Y-134565805D01*
X154123376Y-134566484D01*
X154167471Y-134572662D01*
X154167824Y-134572715D01*
X154168342Y-134572954D01*
X154194222Y-134579651D01*
X154237334Y-134596233D01*
X154256859Y-134605783D01*
X154342321Y-134657327D01*
X154361744Y-134669041D01*
X154375956Y-134679034D01*
X154384756Y-134686193D01*
X154424338Y-134743769D01*
X154426276Y-134750284D01*
X154426587Y-134751445D01*
X154426589Y-134751449D01*
X154426590Y-134751452D01*
X154434151Y-134764548D01*
X154505644Y-134888379D01*
X154505648Y-134888384D01*
X154624516Y-135007252D01*
X154624522Y-135007257D01*
X155825325Y-136208060D01*
X155851381Y-136239114D01*
X155898845Y-136281581D01*
X155940784Y-136323520D01*
X156010016Y-136363490D01*
X156014468Y-136366482D01*
X156062103Y-136394826D01*
X156064382Y-136396018D01*
X156073659Y-136400235D01*
X156075073Y-136401051D01*
X156077716Y-136402577D01*
X156085223Y-136405686D01*
X156085137Y-136405892D01*
X156089709Y-136407530D01*
X156101640Y-136412953D01*
X156115225Y-136419129D01*
X156115233Y-136419132D01*
X156115235Y-136419133D01*
X156214595Y-136457825D01*
X156242996Y-136467920D01*
X156244315Y-136468345D01*
X156272918Y-136476640D01*
X156284804Y-136479710D01*
X156285796Y-136479966D01*
X156290886Y-136481397D01*
X156319137Y-136490003D01*
X156341354Y-136499211D01*
X156405584Y-136533476D01*
X156419588Y-136540451D01*
X156423768Y-136542533D01*
X156437368Y-136550421D01*
X156440321Y-136552394D01*
X156440327Y-136552396D01*
X156440328Y-136552397D01*
X156499520Y-136576915D01*
X156586003Y-136612737D01*
X156719292Y-136639250D01*
X156740653Y-136643499D01*
X156740656Y-136643500D01*
X156740658Y-136643500D01*
X156898344Y-136643500D01*
X156898345Y-136643499D01*
X157052997Y-136612737D01*
X157198679Y-136552394D01*
X157329789Y-136464789D01*
X157441289Y-136353289D01*
X157528894Y-136222179D01*
X157534609Y-136208383D01*
X157576100Y-136108213D01*
X157589237Y-136076497D01*
X157620000Y-135921842D01*
X157620000Y-135764158D01*
X157620000Y-135764155D01*
X157619999Y-135764153D01*
X157619294Y-135760610D01*
X157589237Y-135609503D01*
X157581545Y-135590932D01*
X157528897Y-135463827D01*
X157528890Y-135463814D01*
X157441289Y-135332711D01*
X157441286Y-135332707D01*
X157329792Y-135221213D01*
X157329788Y-135221210D01*
X157198685Y-135133609D01*
X157198672Y-135133602D01*
X157053001Y-135073264D01*
X157052989Y-135073261D01*
X156898345Y-135042500D01*
X156898342Y-135042500D01*
X156740658Y-135042500D01*
X156740656Y-135042500D01*
X156586005Y-135073262D01*
X156586002Y-135073263D01*
X156550853Y-135087821D01*
X156547566Y-135089128D01*
X156519292Y-135099904D01*
X156449638Y-135105385D01*
X156388077Y-135072338D01*
X156387450Y-135071715D01*
X156069249Y-134753514D01*
X156035764Y-134692191D01*
X156040748Y-134622499D01*
X156082620Y-134566566D01*
X156113598Y-134549651D01*
X156228493Y-134506798D01*
X156228493Y-134506797D01*
X156228498Y-134506796D01*
X156343713Y-134420546D01*
X156429963Y-134305331D01*
X156480258Y-134170483D01*
X156486667Y-134110873D01*
X156486666Y-133530847D01*
X156489366Y-133505112D01*
X156491636Y-133494416D01*
X156507283Y-133258563D01*
X156509040Y-133244436D01*
X156558209Y-132975957D01*
X156561100Y-132963713D01*
X156565170Y-132949700D01*
X156650524Y-132655793D01*
X156654421Y-132644457D01*
X156782064Y-132324607D01*
X156785888Y-132315995D01*
X156852016Y-132181119D01*
X156855210Y-132175039D01*
X156926628Y-132047842D01*
X156930537Y-132041356D01*
X156995755Y-131940325D01*
X157000770Y-131933133D01*
X157060696Y-131853358D01*
X157067639Y-131844917D01*
X157132434Y-131772867D01*
X157158438Y-131741495D01*
X157158438Y-131741494D01*
X157162066Y-131737118D01*
X157162507Y-131737483D01*
X157169890Y-131728511D01*
X157729737Y-131168664D01*
X157747389Y-131159025D01*
X157762142Y-131145348D01*
X157785687Y-131138113D01*
X157791058Y-131135181D01*
X157795653Y-131134272D01*
X157798232Y-131133812D01*
X157923855Y-131116852D01*
X157939090Y-131114558D01*
X157939776Y-131114444D01*
X158006616Y-131098606D01*
X158012167Y-131095968D01*
X158043497Y-131089737D01*
X158189179Y-131029394D01*
X158320289Y-130941789D01*
X158431789Y-130830289D01*
X158519394Y-130699179D01*
X158579737Y-130553497D01*
X158610500Y-130398842D01*
X158610500Y-130284500D01*
X158630185Y-130217461D01*
X158682989Y-130171706D01*
X158734500Y-130160500D01*
X161453402Y-130160500D01*
X161520441Y-130180185D01*
X161566196Y-130232989D01*
X161576140Y-130302147D01*
X161547115Y-130365703D01*
X161541083Y-130372181D01*
X161026935Y-130886328D01*
X161018410Y-130894095D01*
X161012029Y-130899386D01*
X161001371Y-130906053D01*
X160864555Y-131021688D01*
X160864031Y-131022123D01*
X160863738Y-131022248D01*
X160851605Y-131031189D01*
X160660854Y-131152979D01*
X160649038Y-131159643D01*
X160371506Y-131296723D01*
X160363067Y-131300506D01*
X160213124Y-131361123D01*
X160207382Y-131363281D01*
X160044778Y-131419833D01*
X160038849Y-131421729D01*
X159877419Y-131468937D01*
X159871076Y-131470612D01*
X159711527Y-131508237D01*
X159704705Y-131509644D01*
X159624643Y-131523825D01*
X159562603Y-131534814D01*
X159555059Y-131535912D01*
X159422642Y-131551048D01*
X159413696Y-131551744D01*
X159281063Y-131557241D01*
X159248491Y-131561469D01*
X159232533Y-131562500D01*
X158651629Y-131562500D01*
X158651623Y-131562501D01*
X158592016Y-131568908D01*
X158457171Y-131619202D01*
X158457164Y-131619206D01*
X158341955Y-131705452D01*
X158341952Y-131705455D01*
X158255706Y-131820664D01*
X158255702Y-131820671D01*
X158205408Y-131955517D01*
X158199001Y-132015116D01*
X158199001Y-132015123D01*
X158199000Y-132015135D01*
X158199000Y-134110870D01*
X158199001Y-134110876D01*
X158205408Y-134170483D01*
X158255702Y-134305328D01*
X158255706Y-134305335D01*
X158341952Y-134420544D01*
X158341955Y-134420547D01*
X158457164Y-134506793D01*
X158457171Y-134506797D01*
X158457174Y-134506798D01*
X158592017Y-134557091D01*
X158629652Y-134561137D01*
X158636462Y-134562062D01*
X158643102Y-134563152D01*
X158658293Y-134567379D01*
X158707680Y-134573761D01*
X158709774Y-134574105D01*
X158711795Y-134575077D01*
X158734666Y-134580915D01*
X158748595Y-134586339D01*
X158772165Y-134598569D01*
X158816798Y-134628191D01*
X158834739Y-134642671D01*
X158898889Y-134705152D01*
X158902499Y-134708668D01*
X158915995Y-134724196D01*
X158989669Y-134824723D01*
X159000139Y-134841732D01*
X159063402Y-134965925D01*
X159069893Y-134981083D01*
X159080425Y-135011042D01*
X159084091Y-135023532D01*
X159088731Y-135043082D01*
X159091547Y-135060201D01*
X159095196Y-135099330D01*
X159098059Y-135122435D01*
X159099000Y-135137679D01*
X159099000Y-136825003D01*
X159096712Y-136848715D01*
X159096635Y-136849108D01*
X159094183Y-136861249D01*
X159094147Y-136861878D01*
X159093249Y-136866490D01*
X159088712Y-136875246D01*
X159077640Y-136906951D01*
X159076325Y-136909124D01*
X159018741Y-137006417D01*
X159000113Y-137040870D01*
X158999316Y-137042491D01*
X158983516Y-137078022D01*
X158957860Y-137142270D01*
X158946920Y-137172408D01*
X158946467Y-137173789D01*
X158937526Y-137204310D01*
X158919020Y-137275730D01*
X158915825Y-137288765D01*
X158915692Y-137289344D01*
X158915690Y-137289355D01*
X158904876Y-137356483D01*
X158904742Y-137358931D01*
X158902547Y-137376321D01*
X158899000Y-137394157D01*
X158899000Y-137551846D01*
X158929760Y-137706487D01*
X158929764Y-137706501D01*
X158990102Y-137852172D01*
X158990109Y-137852185D01*
X159077710Y-137983288D01*
X159077713Y-137983292D01*
X159189207Y-138094786D01*
X159189211Y-138094789D01*
X159320314Y-138182390D01*
X159320327Y-138182397D01*
X159465998Y-138242735D01*
X159466003Y-138242737D01*
X159620653Y-138273499D01*
X159620656Y-138273500D01*
X159620658Y-138273500D01*
X159778344Y-138273500D01*
X159778345Y-138273499D01*
X159932997Y-138242737D01*
X160078679Y-138182394D01*
X160209789Y-138094789D01*
X160321289Y-137983289D01*
X160408894Y-137852179D01*
X160418848Y-137828149D01*
X160453123Y-137745399D01*
X160469237Y-137706497D01*
X160469237Y-137706493D01*
X160469240Y-137706487D01*
X160497085Y-137566497D01*
X160500000Y-137551842D01*
X160500000Y-137497107D01*
X160519685Y-137430068D01*
X160572489Y-137384313D01*
X160641647Y-137374369D01*
X160692891Y-137394005D01*
X160760814Y-137439390D01*
X160760827Y-137439397D01*
X160906498Y-137499735D01*
X160906503Y-137499737D01*
X161026279Y-137523562D01*
X161061153Y-137530499D01*
X161061156Y-137530500D01*
X161061158Y-137530500D01*
X161218842Y-137530500D01*
X161288354Y-137516672D01*
X161299552Y-137514974D01*
X161334239Y-137511332D01*
X161407510Y-137492822D01*
X161434980Y-137485051D01*
X161436233Y-137484658D01*
X161462893Y-137475472D01*
X161528602Y-137450760D01*
X161558269Y-137438514D01*
X161559621Y-137437905D01*
X161588388Y-137423835D01*
X161669832Y-137380749D01*
X161673701Y-137378791D01*
X161695692Y-137368151D01*
X161741886Y-137356021D01*
X161755098Y-137355188D01*
X161793144Y-137351339D01*
X161793144Y-137351338D01*
X161795209Y-137351130D01*
X161807690Y-137350500D01*
X163415831Y-137350500D01*
X163415847Y-137350501D01*
X163423443Y-137350501D01*
X163581554Y-137350501D01*
X163581557Y-137350501D01*
X163734285Y-137309577D01*
X163800882Y-137271127D01*
X163871216Y-137230520D01*
X163983020Y-137118716D01*
X163983020Y-137118714D01*
X163993224Y-137108511D01*
X163993228Y-137108506D01*
X164771339Y-136330395D01*
X164771344Y-136330391D01*
X164781547Y-136320187D01*
X164781549Y-136320187D01*
X164893353Y-136208383D01*
X164955746Y-136100315D01*
X164972410Y-136071452D01*
X165013333Y-135918725D01*
X165013333Y-135760610D01*
X165013333Y-135141774D01*
X165014445Y-135125202D01*
X165015091Y-135120405D01*
X165015218Y-135119960D01*
X165024669Y-135049385D01*
X165024695Y-135049329D01*
X165030539Y-135024939D01*
X165062267Y-134934454D01*
X165068486Y-134919807D01*
X165091279Y-134874471D01*
X165096317Y-134865417D01*
X165132479Y-134806393D01*
X165138289Y-134797749D01*
X165177853Y-134743932D01*
X165184768Y-134735354D01*
X165227173Y-134687296D01*
X165235311Y-134678907D01*
X165270540Y-134645867D01*
X165280217Y-134637681D01*
X165313247Y-134612520D01*
X165324585Y-134604834D01*
X165343779Y-134593319D01*
X165356856Y-134586499D01*
X165371052Y-134580141D01*
X165385700Y-134574661D01*
X165386084Y-134574545D01*
X165402245Y-134570800D01*
X165411229Y-134569344D01*
X165420214Y-134568224D01*
X165424349Y-134567861D01*
X165451693Y-134565462D01*
X165451697Y-134565461D01*
X165451700Y-134565461D01*
X165451702Y-134565460D01*
X165457344Y-134564434D01*
X165457397Y-134564727D01*
X165467697Y-134562747D01*
X165520316Y-134557091D01*
X165655164Y-134506796D01*
X165770379Y-134420546D01*
X165856629Y-134305331D01*
X165906924Y-134170483D01*
X165913333Y-134110873D01*
X165913332Y-133530847D01*
X165916032Y-133505112D01*
X165918302Y-133494416D01*
X165933949Y-133258563D01*
X165935706Y-133244436D01*
X165984875Y-132975957D01*
X165987766Y-132963713D01*
X165991836Y-132949700D01*
X166077190Y-132655793D01*
X166081087Y-132644457D01*
X166208730Y-132324607D01*
X166212554Y-132315995D01*
X166278682Y-132181119D01*
X166281876Y-132175039D01*
X166353294Y-132047842D01*
X166357203Y-132041356D01*
X166422421Y-131940325D01*
X166427436Y-131933133D01*
X166487362Y-131853358D01*
X166494305Y-131844917D01*
X166559100Y-131772867D01*
X166585104Y-131741495D01*
X166585104Y-131741494D01*
X166588732Y-131737118D01*
X166589174Y-131737484D01*
X166596561Y-131728506D01*
X167284219Y-131040847D01*
X167303358Y-131025196D01*
X167313197Y-131018671D01*
X167313198Y-131018669D01*
X167315517Y-131017132D01*
X167355397Y-130999828D01*
X167356873Y-130999478D01*
X167467054Y-130972114D01*
X167505394Y-130960968D01*
X167507145Y-130960383D01*
X167544450Y-130946260D01*
X167608290Y-130919166D01*
X167637939Y-130905435D01*
X167639289Y-130904756D01*
X167667953Y-130889160D01*
X167731807Y-130851697D01*
X167743992Y-130844316D01*
X167744539Y-130843974D01*
X167799412Y-130804319D01*
X167799417Y-130804312D01*
X167801176Y-130802737D01*
X167815057Y-130791966D01*
X167830289Y-130781789D01*
X167941789Y-130670289D01*
X168029394Y-130539179D01*
X168089737Y-130393497D01*
X168099310Y-130345373D01*
X168116231Y-130260308D01*
X168148616Y-130198397D01*
X168209332Y-130163823D01*
X168237848Y-130160500D01*
X170880070Y-130160500D01*
X170947109Y-130180185D01*
X170992864Y-130232989D01*
X171002808Y-130302147D01*
X170973783Y-130365703D01*
X170967751Y-130372181D01*
X170453602Y-130886328D01*
X170445077Y-130894095D01*
X170438696Y-130899386D01*
X170428038Y-130906053D01*
X170291222Y-131021688D01*
X170290698Y-131022123D01*
X170290405Y-131022248D01*
X170278272Y-131031189D01*
X170087521Y-131152979D01*
X170075705Y-131159643D01*
X169798173Y-131296723D01*
X169789734Y-131300506D01*
X169639791Y-131361123D01*
X169634049Y-131363281D01*
X169471445Y-131419833D01*
X169465516Y-131421729D01*
X169304086Y-131468937D01*
X169297743Y-131470612D01*
X169138194Y-131508237D01*
X169131372Y-131509644D01*
X169051310Y-131523825D01*
X168989270Y-131534814D01*
X168981726Y-131535912D01*
X168849309Y-131551048D01*
X168840363Y-131551744D01*
X168707730Y-131557241D01*
X168675158Y-131561469D01*
X168659200Y-131562500D01*
X168078296Y-131562500D01*
X168078290Y-131562501D01*
X168018683Y-131568908D01*
X167883838Y-131619202D01*
X167883831Y-131619206D01*
X167768622Y-131705452D01*
X167768619Y-131705455D01*
X167682373Y-131820664D01*
X167682369Y-131820671D01*
X167632075Y-131955517D01*
X167625668Y-132015116D01*
X167625668Y-132015123D01*
X167625667Y-132015135D01*
X167625667Y-134110870D01*
X167625668Y-134110876D01*
X167632076Y-134170484D01*
X167674690Y-134284741D01*
X167674948Y-134288352D01*
X167676951Y-134291369D01*
X167677421Y-134322941D01*
X167679674Y-134354432D01*
X167677938Y-134357609D01*
X167677993Y-134361231D01*
X167661317Y-134388048D01*
X167646188Y-134415755D01*
X167643009Y-134417490D01*
X167641098Y-134420565D01*
X167612577Y-134434107D01*
X167584865Y-134449239D01*
X167580293Y-134449436D01*
X167577982Y-134450534D01*
X167555561Y-134450504D01*
X167542692Y-134451060D01*
X167540680Y-134450801D01*
X167526012Y-134448428D01*
X167523290Y-134448564D01*
X167514900Y-134447486D01*
X167513905Y-134447049D01*
X167506527Y-134446117D01*
X167488342Y-134442500D01*
X167330658Y-134442500D01*
X167330655Y-134442500D01*
X167176010Y-134473261D01*
X167175998Y-134473264D01*
X167030327Y-134533602D01*
X167030314Y-134533609D01*
X166899211Y-134621210D01*
X166899207Y-134621213D01*
X166787713Y-134732707D01*
X166787710Y-134732711D01*
X166700109Y-134863814D01*
X166700102Y-134863827D01*
X166639764Y-135009498D01*
X166639761Y-135009510D01*
X166609000Y-135164153D01*
X166609000Y-135321846D01*
X166639761Y-135476489D01*
X166639764Y-135476501D01*
X166700102Y-135622172D01*
X166700109Y-135622185D01*
X166787710Y-135753288D01*
X166787713Y-135753292D01*
X166899207Y-135864786D01*
X166899211Y-135864789D01*
X167030314Y-135952390D01*
X167030327Y-135952397D01*
X167159953Y-136006089D01*
X167176003Y-136012737D01*
X167295412Y-136036489D01*
X167330653Y-136043499D01*
X167330656Y-136043500D01*
X167330658Y-136043500D01*
X167488342Y-136043500D01*
X167558887Y-136029467D01*
X167569872Y-136027791D01*
X167604676Y-136024070D01*
X167675286Y-136006091D01*
X167703608Y-135997994D01*
X167704908Y-135997581D01*
X167732772Y-135987825D01*
X167796721Y-135963314D01*
X167829903Y-135949219D01*
X167831413Y-135948513D01*
X167863471Y-135932107D01*
X167952149Y-135882665D01*
X167955542Y-135880843D01*
X167972548Y-135872047D01*
X168021199Y-135858467D01*
X168026751Y-135858094D01*
X168063729Y-135854236D01*
X168063733Y-135854234D01*
X168064353Y-135854170D01*
X168077221Y-135853501D01*
X168108554Y-135853501D01*
X168108557Y-135853501D01*
X168261285Y-135812577D01*
X168342708Y-135765567D01*
X168398216Y-135733520D01*
X168510020Y-135621716D01*
X168510020Y-135621714D01*
X168520224Y-135611511D01*
X168520228Y-135611506D01*
X168886273Y-135245460D01*
X168899907Y-135233678D01*
X168920484Y-135218366D01*
X169090879Y-135048918D01*
X169097906Y-135042450D01*
X169215337Y-134942481D01*
X169220093Y-134938635D01*
X169358007Y-134832710D01*
X169363215Y-134828923D01*
X169495808Y-134737716D01*
X169502173Y-134733619D01*
X169629121Y-134657313D01*
X169636964Y-134652979D01*
X169721470Y-134610201D01*
X169731618Y-134605625D01*
X169795169Y-134580352D01*
X169808492Y-134575912D01*
X169819981Y-134572797D01*
X169837455Y-134569386D01*
X169842210Y-134568808D01*
X169863963Y-134566164D01*
X169863971Y-134566161D01*
X169867331Y-134565545D01*
X169889761Y-134563499D01*
X170174038Y-134563499D01*
X170174039Y-134563499D01*
X170233650Y-134557091D01*
X170368498Y-134506796D01*
X170483713Y-134420546D01*
X170569963Y-134305331D01*
X170620258Y-134170483D01*
X170626667Y-134110873D01*
X170626666Y-133530847D01*
X170629366Y-133505112D01*
X170631636Y-133494416D01*
X170647283Y-133258563D01*
X170649040Y-133244436D01*
X170698209Y-132975957D01*
X170701100Y-132963713D01*
X170705170Y-132949700D01*
X170790524Y-132655793D01*
X170794421Y-132644457D01*
X170922064Y-132324607D01*
X170925888Y-132315995D01*
X170992016Y-132181119D01*
X170995210Y-132175039D01*
X171066628Y-132047842D01*
X171070537Y-132041356D01*
X171135755Y-131940325D01*
X171140770Y-131933133D01*
X171200696Y-131853358D01*
X171207639Y-131844917D01*
X171272434Y-131772867D01*
X171298438Y-131741495D01*
X171298438Y-131741494D01*
X171302066Y-131737118D01*
X171302508Y-131737484D01*
X171309895Y-131728506D01*
X172438583Y-130599819D01*
X172499906Y-130566334D01*
X172526264Y-130563500D01*
X189267903Y-130563500D01*
X189334942Y-130583185D01*
X189380697Y-130635989D01*
X189390641Y-130705147D01*
X189361616Y-130768703D01*
X189355584Y-130775181D01*
X188677584Y-131453181D01*
X188616261Y-131486666D01*
X188589903Y-131489500D01*
X175851822Y-131489500D01*
X175813025Y-131485049D01*
X175657302Y-131489500D01*
X174899170Y-131489500D01*
X174899154Y-131489499D01*
X174891558Y-131489499D01*
X174733443Y-131489499D01*
X174585392Y-131529169D01*
X174558825Y-131533271D01*
X174193780Y-131549554D01*
X174189914Y-131549666D01*
X174101226Y-131550853D01*
X174099183Y-131550881D01*
X174099176Y-131550881D01*
X174044581Y-131551612D01*
X173615990Y-131557350D01*
X173615969Y-131557351D01*
X173562382Y-131560925D01*
X173562336Y-131560929D01*
X173562328Y-131560929D01*
X173562304Y-131560932D01*
X173556657Y-131561612D01*
X173541847Y-131562500D01*
X172791629Y-131562500D01*
X172791623Y-131562501D01*
X172732016Y-131568908D01*
X172597171Y-131619202D01*
X172597164Y-131619206D01*
X172481955Y-131705452D01*
X172481952Y-131705455D01*
X172395706Y-131820664D01*
X172395702Y-131820671D01*
X172345408Y-131955517D01*
X172339001Y-132015116D01*
X172339001Y-132015123D01*
X172339000Y-132015135D01*
X172339000Y-132595145D01*
X172336301Y-132620876D01*
X172334030Y-132631577D01*
X172334029Y-132631586D01*
X172318381Y-132867438D01*
X172316624Y-132881567D01*
X172267458Y-133150026D01*
X172264567Y-133162270D01*
X172175140Y-133470205D01*
X172171228Y-133481583D01*
X172043612Y-133801365D01*
X172039782Y-133809993D01*
X171973668Y-133944840D01*
X171970453Y-133950960D01*
X171899054Y-134078125D01*
X171895110Y-134084668D01*
X171829920Y-134185655D01*
X171824884Y-134192880D01*
X171764970Y-134272638D01*
X171758030Y-134281076D01*
X171693218Y-134353148D01*
X171663573Y-134388917D01*
X171663231Y-134388633D01*
X171655759Y-134397504D01*
X170930786Y-135122478D01*
X170818981Y-135234282D01*
X170818979Y-135234285D01*
X170805060Y-135258395D01*
X170776958Y-135307069D01*
X170739923Y-135371215D01*
X170698999Y-135523943D01*
X170698999Y-135523945D01*
X170698999Y-135692046D01*
X170699000Y-135692059D01*
X170699000Y-136315003D01*
X170696712Y-136338715D01*
X170696635Y-136339108D01*
X170694183Y-136351249D01*
X170694147Y-136351878D01*
X170693249Y-136356490D01*
X170688712Y-136365246D01*
X170677640Y-136396951D01*
X170676325Y-136399124D01*
X170618741Y-136496417D01*
X170600113Y-136530870D01*
X170599316Y-136532491D01*
X170583516Y-136568022D01*
X170557860Y-136632270D01*
X170546920Y-136662408D01*
X170546467Y-136663789D01*
X170537526Y-136694310D01*
X170519020Y-136765730D01*
X170515825Y-136778765D01*
X170515692Y-136779344D01*
X170515690Y-136779355D01*
X170504876Y-136846483D01*
X170504742Y-136848931D01*
X170502547Y-136866321D01*
X170499000Y-136884157D01*
X170499000Y-137041846D01*
X170529761Y-137196489D01*
X170529764Y-137196501D01*
X170590102Y-137342172D01*
X170590109Y-137342185D01*
X170677710Y-137473288D01*
X170677713Y-137473292D01*
X170789207Y-137584786D01*
X170789211Y-137584789D01*
X170920314Y-137672390D01*
X170920327Y-137672397D01*
X171065998Y-137732735D01*
X171066003Y-137732737D01*
X171189288Y-137757260D01*
X171220653Y-137763499D01*
X171220656Y-137763500D01*
X171220658Y-137763500D01*
X171378344Y-137763500D01*
X171378345Y-137763499D01*
X171532997Y-137732737D01*
X171645666Y-137686067D01*
X171678672Y-137672397D01*
X171678672Y-137672396D01*
X171678679Y-137672394D01*
X171809789Y-137584789D01*
X171921289Y-137473289D01*
X172008894Y-137342179D01*
X172069237Y-137196497D01*
X172100000Y-137041842D01*
X172100000Y-136884158D01*
X172085774Y-136812643D01*
X172084120Y-136801862D01*
X172080327Y-136766954D01*
X172076393Y-136751616D01*
X172062819Y-136698694D01*
X172054314Y-136669271D01*
X172053881Y-136667927D01*
X172043683Y-136639258D01*
X172019367Y-136576913D01*
X172003467Y-136540454D01*
X172002662Y-136538790D01*
X171983768Y-136503392D01*
X171979682Y-136496418D01*
X171923808Y-136401051D01*
X171921756Y-136397628D01*
X171918222Y-136387067D01*
X171913488Y-136381177D01*
X171906926Y-136353309D01*
X171904804Y-136346968D01*
X171904580Y-136344864D01*
X171904492Y-136343623D01*
X171900693Y-136308253D01*
X171900699Y-136308219D01*
X171900000Y-136295160D01*
X171900000Y-135903096D01*
X171919685Y-135836057D01*
X171936315Y-135815419D01*
X172512069Y-135239664D01*
X172534004Y-135222211D01*
X172537626Y-135219947D01*
X172674091Y-135104607D01*
X172687387Y-135094812D01*
X172878130Y-134973026D01*
X172889939Y-134966364D01*
X173167494Y-134829272D01*
X173175919Y-134825495D01*
X173325901Y-134764863D01*
X173331604Y-134762720D01*
X173494236Y-134706158D01*
X173500093Y-134704285D01*
X173661608Y-134657052D01*
X173667896Y-134655392D01*
X173827521Y-134617750D01*
X173834275Y-134616357D01*
X173976407Y-134591181D01*
X173983925Y-134590086D01*
X174116356Y-134574950D01*
X174125286Y-134574255D01*
X174257929Y-134568758D01*
X174290496Y-134564530D01*
X174306456Y-134563499D01*
X174887371Y-134563499D01*
X174887372Y-134563499D01*
X174946983Y-134557091D01*
X175081831Y-134506796D01*
X175197046Y-134420546D01*
X175283296Y-134305331D01*
X175333591Y-134170483D01*
X175340000Y-134110873D01*
X175339999Y-133742509D01*
X175340454Y-133731899D01*
X175341148Y-133723812D01*
X175345056Y-133706040D01*
X175359473Y-133510448D01*
X175359537Y-133509704D01*
X175359696Y-133509293D01*
X175362014Y-133493507D01*
X175399991Y-133322058D01*
X175405033Y-133305124D01*
X175425274Y-133251454D01*
X175467963Y-133138260D01*
X175475484Y-133121990D01*
X175564216Y-132961655D01*
X175571754Y-132949700D01*
X175610248Y-132895729D01*
X175616386Y-132887819D01*
X175661606Y-132834166D01*
X175668768Y-132826373D01*
X175710256Y-132784947D01*
X175718778Y-132777198D01*
X175755646Y-132746681D01*
X175765718Y-132739173D01*
X175791325Y-132722038D01*
X175803303Y-132714964D01*
X175815609Y-132708601D01*
X175862911Y-132695273D01*
X175862904Y-132695205D01*
X175863309Y-132695161D01*
X175863614Y-132695075D01*
X175865098Y-132694968D01*
X175894200Y-132691820D01*
X175899762Y-132691219D01*
X175913094Y-132690500D01*
X188803331Y-132690500D01*
X188803347Y-132690501D01*
X188810943Y-132690501D01*
X188969054Y-132690501D01*
X188969057Y-132690501D01*
X189121785Y-132649577D01*
X189171904Y-132620639D01*
X189258716Y-132570520D01*
X189370520Y-132458716D01*
X189370520Y-132458714D01*
X189380728Y-132448507D01*
X189380729Y-132448504D01*
X199670520Y-122158716D01*
X199749577Y-122021784D01*
X199790501Y-121869057D01*
X199790501Y-121710942D01*
X199790501Y-121703347D01*
X199790500Y-121703329D01*
X199790500Y-109640096D01*
X199810185Y-109573057D01*
X199826814Y-109552420D01*
X201838506Y-107540727D01*
X201838511Y-107540724D01*
X201848714Y-107530520D01*
X201848716Y-107530520D01*
X201960520Y-107418716D01*
X202022421Y-107311500D01*
X202039577Y-107281785D01*
X202080500Y-107129057D01*
X202080500Y-106970943D01*
X202080500Y-91820943D01*
X202039577Y-91668216D01*
X202039577Y-91668215D01*
X201986718Y-91576661D01*
X201960520Y-91531284D01*
X201848716Y-91419480D01*
X201848715Y-91419479D01*
X201844385Y-91415149D01*
X201844374Y-91415139D01*
X196867590Y-86438355D01*
X196867588Y-86438352D01*
X196748717Y-86319481D01*
X196748716Y-86319480D01*
X196651753Y-86263499D01*
X196651752Y-86263498D01*
X196611783Y-86240422D01*
X196555881Y-86225443D01*
X196459057Y-86199499D01*
X196300943Y-86199499D01*
X196293347Y-86199499D01*
X196293331Y-86199500D01*
X188650098Y-86199500D01*
X188583059Y-86179815D01*
X188562417Y-86163181D01*
X188238717Y-85839481D01*
X188238709Y-85839475D01*
X188141583Y-85783400D01*
X188141581Y-85783399D01*
X188101790Y-85760425D01*
X188101789Y-85760424D01*
X188089263Y-85757067D01*
X187949057Y-85719499D01*
X187790943Y-85719499D01*
X187783347Y-85719499D01*
X187783331Y-85719500D01*
X186980097Y-85719500D01*
X186913058Y-85699815D01*
X186892416Y-85683181D01*
X185557590Y-84348355D01*
X185557588Y-84348352D01*
X185438717Y-84229481D01*
X185438709Y-84229475D01*
X185346755Y-84176386D01*
X185346754Y-84176386D01*
X185327748Y-84165413D01*
X185301785Y-84150423D01*
X185149057Y-84109499D01*
X184990943Y-84109499D01*
X184983347Y-84109499D01*
X184983331Y-84109500D01*
X183780153Y-84109500D01*
X183713114Y-84089815D01*
X183667359Y-84037011D01*
X183657415Y-83967853D01*
X183686440Y-83904297D01*
X183718150Y-83878114D01*
X183734612Y-83868611D01*
X183916661Y-83728919D01*
X183916665Y-83728914D01*
X183916670Y-83728911D01*
X184078911Y-83566670D01*
X184078914Y-83566665D01*
X184078919Y-83566661D01*
X184218611Y-83384612D01*
X184333344Y-83185888D01*
X184421158Y-82973887D01*
X184480548Y-82752238D01*
X184510500Y-82524734D01*
X184510500Y-82295266D01*
X184480548Y-82067762D01*
X184421158Y-81846113D01*
X184333344Y-81634112D01*
X184218611Y-81435388D01*
X184218608Y-81435385D01*
X184218607Y-81435382D01*
X184078918Y-81253338D01*
X184078911Y-81253330D01*
X183916670Y-81091089D01*
X183916661Y-81091081D01*
X183734617Y-80951392D01*
X183535890Y-80836657D01*
X183535876Y-80836650D01*
X183323887Y-80748842D01*
X183102238Y-80689452D01*
X183064215Y-80684446D01*
X182874741Y-80659500D01*
X182874734Y-80659500D01*
X182645266Y-80659500D01*
X182645258Y-80659500D01*
X182428715Y-80688009D01*
X182417762Y-80689452D01*
X182324076Y-80714554D01*
X182196112Y-80748842D01*
X181984123Y-80836650D01*
X181984109Y-80836657D01*
X181785382Y-80951392D01*
X181603338Y-81091081D01*
X181441081Y-81253338D01*
X181301392Y-81435382D01*
X181186657Y-81634109D01*
X181186650Y-81634123D01*
X181098842Y-81846112D01*
X181039453Y-82067759D01*
X181039451Y-82067769D01*
X181024665Y-82180072D01*
X181024010Y-82185045D01*
X181015534Y-82224506D01*
X181011931Y-82276787D01*
X181011429Y-82280601D01*
X181011428Y-82280615D01*
X181009500Y-82295269D01*
X181009500Y-82307811D01*
X181009207Y-82316334D01*
X181006134Y-82360943D01*
X180997966Y-82479489D01*
X180996910Y-82502380D01*
X180996886Y-82503398D01*
X180996874Y-82526598D01*
X181002983Y-82798131D01*
X181002997Y-82798866D01*
X181007107Y-83046982D01*
X181006729Y-83058930D01*
X181001081Y-83129490D01*
X180999181Y-83143342D01*
X180987707Y-83202150D01*
X180983297Y-83218628D01*
X180964891Y-83272301D01*
X180957789Y-83288940D01*
X180925455Y-83351599D01*
X180916586Y-83366217D01*
X180858886Y-83448007D01*
X180849627Y-83459592D01*
X180741549Y-83579377D01*
X180711595Y-83615427D01*
X180711228Y-83615122D01*
X180703685Y-83624178D01*
X180512181Y-83815683D01*
X180450858Y-83849168D01*
X180381167Y-83844184D01*
X180325233Y-83802313D01*
X180300816Y-83736848D01*
X180300500Y-83728002D01*
X180300500Y-78295258D01*
X181009500Y-78295258D01*
X181009500Y-78524741D01*
X181034446Y-78714215D01*
X181039452Y-78752238D01*
X181039453Y-78752240D01*
X181098842Y-78973887D01*
X181186650Y-79185876D01*
X181186657Y-79185890D01*
X181301392Y-79384617D01*
X181441081Y-79566661D01*
X181441089Y-79566670D01*
X181603330Y-79728911D01*
X181603338Y-79728918D01*
X181785382Y-79868607D01*
X181785385Y-79868608D01*
X181785388Y-79868611D01*
X181984112Y-79983344D01*
X181984117Y-79983346D01*
X181984123Y-79983349D01*
X182075480Y-80021190D01*
X182196113Y-80071158D01*
X182417762Y-80130548D01*
X182645266Y-80160500D01*
X182645273Y-80160500D01*
X182874727Y-80160500D01*
X182874734Y-80160500D01*
X183102238Y-80130548D01*
X183323887Y-80071158D01*
X183535888Y-79983344D01*
X183734612Y-79868611D01*
X183916661Y-79728919D01*
X183916665Y-79728914D01*
X183916670Y-79728911D01*
X184078911Y-79566670D01*
X184078914Y-79566665D01*
X184078919Y-79566661D01*
X184218611Y-79384612D01*
X184333344Y-79185888D01*
X184421158Y-78973887D01*
X184480548Y-78752238D01*
X184510500Y-78524734D01*
X184510500Y-78295266D01*
X184480548Y-78067762D01*
X184421158Y-77846113D01*
X184333344Y-77634112D01*
X184218611Y-77435388D01*
X184218608Y-77435385D01*
X184218607Y-77435382D01*
X184078918Y-77253338D01*
X184078911Y-77253330D01*
X183916670Y-77091089D01*
X183916661Y-77091081D01*
X183734617Y-76951392D01*
X183535890Y-76836657D01*
X183535876Y-76836650D01*
X183323887Y-76748842D01*
X183102238Y-76689452D01*
X183064215Y-76684446D01*
X182874741Y-76659500D01*
X182874734Y-76659500D01*
X182645266Y-76659500D01*
X182645258Y-76659500D01*
X182428715Y-76688009D01*
X182417762Y-76689452D01*
X182324076Y-76714554D01*
X182196112Y-76748842D01*
X181984123Y-76836650D01*
X181984109Y-76836657D01*
X181785382Y-76951392D01*
X181603338Y-77091081D01*
X181441081Y-77253338D01*
X181301392Y-77435382D01*
X181186657Y-77634109D01*
X181186650Y-77634123D01*
X181098842Y-77846112D01*
X181039453Y-78067759D01*
X181039451Y-78067770D01*
X181009500Y-78295258D01*
X180300500Y-78295258D01*
X180300500Y-70305258D01*
X181009500Y-70305258D01*
X181009500Y-70534741D01*
X181034446Y-70724215D01*
X181039452Y-70762238D01*
X181039453Y-70762240D01*
X181098842Y-70983887D01*
X181186650Y-71195876D01*
X181186657Y-71195890D01*
X181301392Y-71394617D01*
X181441081Y-71576661D01*
X181441089Y-71576670D01*
X181603330Y-71738911D01*
X181603338Y-71738918D01*
X181785382Y-71878607D01*
X181785385Y-71878608D01*
X181785388Y-71878611D01*
X181984112Y-71993344D01*
X181984117Y-71993346D01*
X181984123Y-71993349D01*
X182075480Y-72031190D01*
X182196113Y-72081158D01*
X182417762Y-72140548D01*
X182645266Y-72170500D01*
X182645273Y-72170500D01*
X182874727Y-72170500D01*
X182874734Y-72170500D01*
X183102238Y-72140548D01*
X183323887Y-72081158D01*
X183535888Y-71993344D01*
X183734612Y-71878611D01*
X183916661Y-71738919D01*
X183916665Y-71738914D01*
X183916670Y-71738911D01*
X184078911Y-71576670D01*
X184078914Y-71576665D01*
X184078919Y-71576661D01*
X184218611Y-71394612D01*
X184333344Y-71195888D01*
X184421158Y-70983887D01*
X184480548Y-70762238D01*
X184510500Y-70534734D01*
X184510500Y-70305266D01*
X184480548Y-70077762D01*
X184421158Y-69856113D01*
X184333344Y-69644112D01*
X184218611Y-69445388D01*
X184218608Y-69445385D01*
X184218607Y-69445382D01*
X184078918Y-69263338D01*
X184078911Y-69263330D01*
X183916670Y-69101089D01*
X183916661Y-69101081D01*
X183734617Y-68961392D01*
X183535890Y-68846657D01*
X183535876Y-68846650D01*
X183323887Y-68758842D01*
X183102238Y-68699452D01*
X183064215Y-68694446D01*
X182874741Y-68669500D01*
X182874734Y-68669500D01*
X182645266Y-68669500D01*
X182645258Y-68669500D01*
X182428715Y-68698009D01*
X182417762Y-68699452D01*
X182324076Y-68724554D01*
X182196112Y-68758842D01*
X181984123Y-68846650D01*
X181984109Y-68846657D01*
X181785382Y-68961392D01*
X181603338Y-69101081D01*
X181441081Y-69263338D01*
X181301392Y-69445382D01*
X181186657Y-69644109D01*
X181186650Y-69644123D01*
X181098842Y-69856112D01*
X181039453Y-70077759D01*
X181039451Y-70077770D01*
X181009500Y-70305258D01*
X180300500Y-70305258D01*
X180300500Y-68394500D01*
X180320185Y-68327461D01*
X180372989Y-68281706D01*
X180424500Y-68270500D01*
X186575500Y-68270500D01*
X186642539Y-68290185D01*
G37*
%TD.AperFunction*%
%TA.AperFunction,Conductor*%
G36*
X166233774Y-130180185D02*
G01*
X166279529Y-130232989D01*
X166289473Y-130302147D01*
X166260448Y-130365703D01*
X166254416Y-130372181D01*
X165740268Y-130886328D01*
X165731743Y-130894095D01*
X165725362Y-130899386D01*
X165714704Y-130906053D01*
X165577888Y-131021688D01*
X165577364Y-131022123D01*
X165577071Y-131022248D01*
X165564938Y-131031189D01*
X165374187Y-131152979D01*
X165362371Y-131159643D01*
X165084839Y-131296723D01*
X165076400Y-131300506D01*
X164926457Y-131361123D01*
X164920715Y-131363281D01*
X164758111Y-131419833D01*
X164752182Y-131421729D01*
X164590752Y-131468937D01*
X164584409Y-131470612D01*
X164424860Y-131508237D01*
X164418038Y-131509644D01*
X164337976Y-131523825D01*
X164275936Y-131534814D01*
X164268392Y-131535912D01*
X164135975Y-131551048D01*
X164127029Y-131551744D01*
X163994396Y-131557241D01*
X163961824Y-131561469D01*
X163945866Y-131562500D01*
X163364962Y-131562500D01*
X163364956Y-131562501D01*
X163305349Y-131568908D01*
X163170504Y-131619202D01*
X163170497Y-131619206D01*
X163055288Y-131705452D01*
X163055285Y-131705455D01*
X162969039Y-131820664D01*
X162969035Y-131820671D01*
X162918741Y-131955517D01*
X162912334Y-132015116D01*
X162912334Y-132015123D01*
X162912333Y-132015135D01*
X162912333Y-134110870D01*
X162912334Y-134110876D01*
X162918741Y-134170483D01*
X162969035Y-134305328D01*
X162969039Y-134305335D01*
X163055285Y-134420544D01*
X163055288Y-134420547D01*
X163170497Y-134506793D01*
X163170504Y-134506797D01*
X163170507Y-134506798D01*
X163305350Y-134557091D01*
X163342985Y-134561137D01*
X163349795Y-134562062D01*
X163356435Y-134563152D01*
X163371626Y-134567379D01*
X163421013Y-134573761D01*
X163423107Y-134574105D01*
X163425128Y-134575077D01*
X163447999Y-134580915D01*
X163461928Y-134586339D01*
X163485498Y-134598569D01*
X163530131Y-134628191D01*
X163548072Y-134642671D01*
X163612222Y-134705152D01*
X163615832Y-134708668D01*
X163629328Y-134724196D01*
X163703002Y-134824723D01*
X163713472Y-134841732D01*
X163776735Y-134965925D01*
X163783226Y-134981083D01*
X163793758Y-135011042D01*
X163797424Y-135023532D01*
X163802064Y-135043082D01*
X163804880Y-135060201D01*
X163808529Y-135099330D01*
X163811392Y-135122435D01*
X163812333Y-135137679D01*
X163812333Y-135539570D01*
X163792648Y-135606609D01*
X163776014Y-135627251D01*
X163290084Y-136113181D01*
X163228761Y-136146666D01*
X163202403Y-136149500D01*
X161793319Y-136149500D01*
X161726280Y-136129815D01*
X161724941Y-136128942D01*
X161638139Y-136071451D01*
X161630842Y-136066618D01*
X161592318Y-136043497D01*
X161590504Y-136042516D01*
X161550316Y-136023009D01*
X161485591Y-135995056D01*
X161485581Y-135995052D01*
X161451147Y-135981652D01*
X161449539Y-135981093D01*
X161430749Y-135975316D01*
X161414462Y-135970308D01*
X161341478Y-135950737D01*
X161326201Y-135946895D01*
X161325474Y-135946724D01*
X161325459Y-135946721D01*
X161256505Y-135935480D01*
X161254669Y-135935378D01*
X161237386Y-135933188D01*
X161218842Y-135929500D01*
X161061158Y-135929500D01*
X161061155Y-135929500D01*
X160906510Y-135960261D01*
X160906498Y-135960264D01*
X160760827Y-136020602D01*
X160760814Y-136020609D01*
X160629711Y-136108210D01*
X160629707Y-136108213D01*
X160513903Y-136224018D01*
X160512562Y-136222677D01*
X160462097Y-136257047D01*
X160392252Y-136258911D01*
X160332487Y-136222718D01*
X160301777Y-136159959D01*
X160300000Y-136139044D01*
X160300000Y-135141774D01*
X160301112Y-135125202D01*
X160301758Y-135120405D01*
X160301885Y-135119960D01*
X160311336Y-135049385D01*
X160311362Y-135049329D01*
X160317206Y-135024939D01*
X160348934Y-134934454D01*
X160355153Y-134919807D01*
X160377946Y-134874471D01*
X160382984Y-134865417D01*
X160419146Y-134806393D01*
X160424956Y-134797749D01*
X160464520Y-134743932D01*
X160471435Y-134735354D01*
X160513840Y-134687296D01*
X160521978Y-134678907D01*
X160557207Y-134645867D01*
X160566884Y-134637681D01*
X160599914Y-134612520D01*
X160611252Y-134604834D01*
X160630446Y-134593319D01*
X160643523Y-134586499D01*
X160657719Y-134580141D01*
X160672367Y-134574661D01*
X160672751Y-134574545D01*
X160688912Y-134570800D01*
X160697896Y-134569344D01*
X160706881Y-134568224D01*
X160711016Y-134567861D01*
X160738360Y-134565462D01*
X160738364Y-134565461D01*
X160738367Y-134565461D01*
X160738369Y-134565460D01*
X160744011Y-134564434D01*
X160744064Y-134564727D01*
X160754364Y-134562747D01*
X160806983Y-134557091D01*
X160941831Y-134506796D01*
X161057046Y-134420546D01*
X161143296Y-134305331D01*
X161193591Y-134170483D01*
X161200000Y-134110873D01*
X161199999Y-133530847D01*
X161202699Y-133505112D01*
X161204969Y-133494416D01*
X161220616Y-133258563D01*
X161222373Y-133244436D01*
X161271542Y-132975957D01*
X161274433Y-132963713D01*
X161278503Y-132949700D01*
X161363857Y-132655793D01*
X161367754Y-132644457D01*
X161495397Y-132324607D01*
X161499221Y-132315995D01*
X161565349Y-132181119D01*
X161568543Y-132175039D01*
X161639961Y-132047842D01*
X161643870Y-132041356D01*
X161709088Y-131940325D01*
X161714103Y-131933133D01*
X161774029Y-131853358D01*
X161780972Y-131844917D01*
X161845767Y-131772867D01*
X161871771Y-131741495D01*
X161871771Y-131741494D01*
X161875399Y-131737118D01*
X161875841Y-131737484D01*
X161883228Y-131728506D01*
X162572462Y-131039271D01*
X162591638Y-131023595D01*
X162601261Y-131017217D01*
X162641823Y-130999769D01*
X162642809Y-130999542D01*
X162753558Y-130972744D01*
X162792748Y-130961572D01*
X162794531Y-130960985D01*
X162832403Y-130946814D01*
X162896478Y-130919870D01*
X162926597Y-130906025D01*
X162927973Y-130905337D01*
X162957275Y-130889458D01*
X163021358Y-130851946D01*
X163033835Y-130844398D01*
X163034392Y-130844050D01*
X163089405Y-130804308D01*
X163089409Y-130804302D01*
X163091114Y-130802776D01*
X163104973Y-130792022D01*
X163120289Y-130781789D01*
X163231789Y-130670289D01*
X163319394Y-130539179D01*
X163379737Y-130393497D01*
X163389310Y-130345373D01*
X163406231Y-130260308D01*
X163438616Y-130198397D01*
X163499332Y-130163823D01*
X163527848Y-130160500D01*
X166166735Y-130160500D01*
X166233774Y-130180185D01*
G37*
%TD.AperFunction*%
%TA.AperFunction,Conductor*%
G36*
X166473445Y-124237382D02*
G01*
X166480425Y-124236454D01*
X166506084Y-124248502D01*
X166532917Y-124257644D01*
X166539062Y-124263986D01*
X166543670Y-124266150D01*
X166548291Y-124273511D01*
X166565036Y-124290793D01*
X166623052Y-124378880D01*
X166623067Y-124378902D01*
X166770734Y-124537786D01*
X166942677Y-124670016D01*
X166942679Y-124670017D01*
X166942683Y-124670020D01*
X167061974Y-124733520D01*
X167134149Y-124771940D01*
X167339857Y-124840740D01*
X167339860Y-124840740D01*
X167339865Y-124840742D01*
X167554106Y-124874515D01*
X167554108Y-124874515D01*
X167554120Y-124874517D01*
X167660260Y-124873505D01*
X167661441Y-124873500D01*
X177490402Y-124873500D01*
X177557441Y-124893185D01*
X177603196Y-124945989D01*
X177613140Y-125015147D01*
X177584115Y-125078703D01*
X177578083Y-125085181D01*
X175632864Y-127030399D01*
X175627340Y-127033415D01*
X175623795Y-127038614D01*
X175597044Y-127049957D01*
X175571541Y-127063884D01*
X175565263Y-127063435D01*
X175559470Y-127065892D01*
X175530833Y-127060972D01*
X175501849Y-127058900D01*
X175495246Y-127054859D01*
X175490609Y-127054063D01*
X175461457Y-127034182D01*
X175425937Y-127001664D01*
X175417356Y-126992992D01*
X175390017Y-126962491D01*
X175381868Y-126952380D01*
X175360261Y-126922494D01*
X175352833Y-126910917D01*
X175341804Y-126891429D01*
X175335392Y-126878366D01*
X175328368Y-126861640D01*
X175323332Y-126847218D01*
X175321645Y-126841223D01*
X175318348Y-126825808D01*
X175315948Y-126809610D01*
X175315045Y-126801831D01*
X175311988Y-126765482D01*
X175311986Y-126765476D01*
X175311986Y-126765471D01*
X175310970Y-126759789D01*
X175311287Y-126759732D01*
X175309473Y-126750238D01*
X175303591Y-126695516D01*
X175253297Y-126560671D01*
X175253293Y-126560664D01*
X175167047Y-126445455D01*
X175167044Y-126445452D01*
X175051835Y-126359206D01*
X175051828Y-126359202D01*
X174916982Y-126308908D01*
X174916983Y-126308908D01*
X174857383Y-126302501D01*
X174857381Y-126302500D01*
X174857373Y-126302500D01*
X174857364Y-126302500D01*
X172761629Y-126302500D01*
X172761623Y-126302501D01*
X172702016Y-126308908D01*
X172567171Y-126359202D01*
X172567164Y-126359206D01*
X172451955Y-126445452D01*
X172451952Y-126445455D01*
X172365706Y-126560664D01*
X172365702Y-126560671D01*
X172315408Y-126695517D01*
X172309001Y-126755116D01*
X172309000Y-126755127D01*
X172309000Y-127632799D01*
X172309001Y-128478500D01*
X172289316Y-128545539D01*
X172236513Y-128591294D01*
X172185001Y-128602500D01*
X167151721Y-128602500D01*
X167121021Y-128593485D01*
X167089919Y-128586001D01*
X167086553Y-128583364D01*
X167084682Y-128582815D01*
X167062136Y-128564235D01*
X167034497Y-128535355D01*
X167022302Y-128520449D01*
X166980829Y-128460853D01*
X166926435Y-128382689D01*
X166917973Y-128368627D01*
X166815753Y-128170063D01*
X166809758Y-128156469D01*
X166716053Y-127903942D01*
X166712745Y-127893678D01*
X166679312Y-127771981D01*
X166677586Y-127764877D01*
X166649588Y-127632799D01*
X166648251Y-127625394D01*
X166629383Y-127499010D01*
X166628468Y-127491183D01*
X166617766Y-127365023D01*
X166617538Y-127361844D01*
X166617421Y-127359863D01*
X166615298Y-127277800D01*
X166610474Y-127241260D01*
X166610211Y-127236764D01*
X166610417Y-127235872D01*
X166609999Y-127229513D01*
X166609999Y-126705129D01*
X166609998Y-126705123D01*
X166609997Y-126705116D01*
X166603591Y-126645517D01*
X166553296Y-126510669D01*
X166553295Y-126510668D01*
X166553293Y-126510664D01*
X166467047Y-126395455D01*
X166467044Y-126395452D01*
X166351835Y-126309206D01*
X166351826Y-126309201D01*
X166216982Y-126258908D01*
X166182805Y-126255233D01*
X166174665Y-126254083D01*
X166168288Y-126252965D01*
X166154084Y-126248918D01*
X166114633Y-126243564D01*
X166112254Y-126243148D01*
X166109909Y-126241989D01*
X166086690Y-126235771D01*
X166084112Y-126234716D01*
X166060054Y-126221600D01*
X166022893Y-126195635D01*
X166005052Y-126180472D01*
X165941671Y-126115347D01*
X165928609Y-126099485D01*
X165903433Y-126063149D01*
X165857207Y-125996431D01*
X165847304Y-125979386D01*
X165829929Y-125943113D01*
X165785602Y-125850575D01*
X165779557Y-125835488D01*
X165769193Y-125803727D01*
X165765822Y-125791208D01*
X165760943Y-125768384D01*
X165758602Y-125752388D01*
X165756275Y-125723354D01*
X165752829Y-125693150D01*
X165752030Y-125679094D01*
X165752030Y-125398675D01*
X165752216Y-125391893D01*
X165752618Y-125384539D01*
X165757141Y-125358710D01*
X165761054Y-125230531D01*
X165761135Y-125229053D01*
X165761232Y-125228778D01*
X165761654Y-125222633D01*
X165770604Y-125139165D01*
X165772355Y-125127823D01*
X165772672Y-125126255D01*
X165781122Y-125084457D01*
X165784324Y-125071995D01*
X165787341Y-125062360D01*
X165795003Y-125043492D01*
X165821643Y-124990777D01*
X165833817Y-124971377D01*
X165906639Y-124876164D01*
X165911473Y-124870234D01*
X165959280Y-124815145D01*
X165963097Y-124810695D01*
X166112348Y-124634620D01*
X166123453Y-124621049D01*
X166123960Y-124620407D01*
X166134776Y-124606203D01*
X166300157Y-124380859D01*
X166306031Y-124372685D01*
X166306316Y-124372280D01*
X166330898Y-124332006D01*
X166333128Y-124328489D01*
X166334704Y-124326091D01*
X166349345Y-124305942D01*
X166354114Y-124296581D01*
X166357879Y-124290858D01*
X166379499Y-124272520D01*
X166398961Y-124251912D01*
X166405794Y-124250219D01*
X166411165Y-124245664D01*
X166439265Y-124241927D01*
X166466780Y-124235111D01*
X166473445Y-124237382D01*
G37*
%TD.AperFunction*%
%TA.AperFunction,Conductor*%
G36*
X179924432Y-124447301D02*
G01*
X179924450Y-124447298D01*
X179956280Y-124460048D01*
X179989284Y-124473259D01*
X179989305Y-124473278D01*
X179989310Y-124473280D01*
X179989314Y-124473285D01*
X180000317Y-124483052D01*
X181660784Y-126143520D01*
X181660786Y-126143521D01*
X181660790Y-126143524D01*
X181761649Y-126201754D01*
X181797716Y-126222577D01*
X181950443Y-126263501D01*
X181950445Y-126263501D01*
X182116154Y-126263501D01*
X182116170Y-126263500D01*
X191820403Y-126263500D01*
X191887442Y-126283185D01*
X191933197Y-126335989D01*
X191943141Y-126405147D01*
X191914116Y-126468703D01*
X191908084Y-126475181D01*
X189817084Y-128566181D01*
X189755761Y-128599666D01*
X189729403Y-128602500D01*
X175985449Y-128602500D01*
X175981739Y-128601410D01*
X175977972Y-128602274D01*
X175948485Y-128591646D01*
X175918410Y-128582815D01*
X175915878Y-128579893D01*
X175912242Y-128578583D01*
X175893177Y-128553694D01*
X175872655Y-128530011D01*
X175872105Y-128526186D01*
X175869754Y-128523117D01*
X175867172Y-128491881D01*
X175862711Y-128460853D01*
X175864317Y-128457335D01*
X175863999Y-128453484D01*
X175878711Y-128425816D01*
X175891736Y-128397297D01*
X175895515Y-128394216D01*
X175896803Y-128391795D01*
X175906688Y-128385110D01*
X175924821Y-128370332D01*
X175936249Y-128363926D01*
X175941285Y-128362577D01*
X176027887Y-128312577D01*
X176028676Y-128312121D01*
X176028725Y-128312094D01*
X176078209Y-128283524D01*
X176078208Y-128283524D01*
X176078216Y-128283520D01*
X176190020Y-128171716D01*
X176190020Y-128171714D01*
X176200224Y-128161511D01*
X176200228Y-128161506D01*
X179618006Y-124743728D01*
X179618011Y-124743724D01*
X179628214Y-124733520D01*
X179628216Y-124733520D01*
X179740020Y-124621716D01*
X179802699Y-124513152D01*
X179805263Y-124508710D01*
X179830675Y-124484490D01*
X179855811Y-124460521D01*
X179855828Y-124460517D01*
X179855841Y-124460506D01*
X179889877Y-124453953D01*
X179924417Y-124447295D01*
X179924432Y-124447301D01*
G37*
%TD.AperFunction*%
%TA.AperFunction,Conductor*%
G36*
X195456942Y-90850185D02*
G01*
X195477584Y-90866819D01*
X195504681Y-90893916D01*
X195538166Y-90955239D01*
X195541000Y-90981597D01*
X195541000Y-122040903D01*
X195521315Y-122107942D01*
X195504681Y-122128584D01*
X192607084Y-125026181D01*
X192545761Y-125059666D01*
X192519403Y-125062500D01*
X182329598Y-125062500D01*
X182262559Y-125042815D01*
X182241917Y-125026181D01*
X179747090Y-122531355D01*
X179740021Y-122524286D01*
X179740020Y-122524284D01*
X179628216Y-122412480D01*
X179628213Y-122412478D01*
X178627090Y-121411355D01*
X178627088Y-121411352D01*
X178508217Y-121292481D01*
X178508216Y-121292480D01*
X178421404Y-121242360D01*
X178421404Y-121242359D01*
X178421400Y-121242358D01*
X178371285Y-121213423D01*
X178218557Y-121172499D01*
X178060443Y-121172499D01*
X178052847Y-121172499D01*
X178052831Y-121172500D01*
X175988524Y-121172500D01*
X175921485Y-121152815D01*
X175900843Y-121136181D01*
X174721390Y-119956728D01*
X174717982Y-119950487D01*
X174712158Y-119946403D01*
X174701455Y-119920221D01*
X174687905Y-119895405D01*
X174688412Y-119888311D01*
X174685721Y-119881728D01*
X174690871Y-119853922D01*
X174692889Y-119825713D01*
X174697460Y-119818350D01*
X174698447Y-119813027D01*
X174716305Y-119788002D01*
X174718710Y-119784130D01*
X174719388Y-119783407D01*
X174833486Y-119665952D01*
X174847547Y-119650874D01*
X174848187Y-119650159D01*
X174861763Y-119634348D01*
X174877997Y-119614632D01*
X174880774Y-119611678D01*
X174907537Y-119595966D01*
X174933221Y-119578533D01*
X174937413Y-119578427D01*
X174941029Y-119576305D01*
X174972038Y-119577557D01*
X175003069Y-119576777D01*
X175006652Y-119578954D01*
X175010842Y-119579124D01*
X175036259Y-119596947D01*
X175062777Y-119613063D01*
X175064780Y-119615315D01*
X175082538Y-119635799D01*
X175082541Y-119635802D01*
X175090007Y-119642084D01*
X175089899Y-119642211D01*
X175102583Y-119652134D01*
X175794034Y-120343585D01*
X175862557Y-120383146D01*
X175938983Y-120403625D01*
X175938985Y-120403625D01*
X176025287Y-120403625D01*
X176027191Y-120403500D01*
X179193667Y-120403500D01*
X179260706Y-120423185D01*
X179281348Y-120439819D01*
X183029040Y-124187511D01*
X183084989Y-124243460D01*
X183084991Y-124243461D01*
X183084995Y-124243464D01*
X183137039Y-124273511D01*
X183153511Y-124283021D01*
X183229938Y-124303500D01*
X192084789Y-124303500D01*
X192085125Y-124303590D01*
X192164249Y-124303590D01*
X192164585Y-124303500D01*
X192169062Y-124303500D01*
X192245489Y-124283021D01*
X192314011Y-124243460D01*
X192369960Y-124187511D01*
X192369963Y-124187504D01*
X192374912Y-124181057D01*
X192375267Y-124181329D01*
X192387954Y-124164792D01*
X195009213Y-121543533D01*
X195021415Y-121532835D01*
X195024506Y-121530462D01*
X195024511Y-121530460D01*
X195080460Y-121474511D01*
X195120021Y-121405989D01*
X195140500Y-121329562D01*
X195140500Y-121327737D01*
X195140646Y-121327193D01*
X195140646Y-121248069D01*
X195140500Y-121247524D01*
X195140500Y-91370438D01*
X195120021Y-91294011D01*
X195088537Y-91239478D01*
X195080464Y-91225495D01*
X195080458Y-91225487D01*
X195024512Y-91169541D01*
X195024504Y-91169535D01*
X194955995Y-91129982D01*
X194955990Y-91129979D01*
X194930513Y-91123152D01*
X194879562Y-91109500D01*
X194879560Y-91109500D01*
X187579097Y-91109500D01*
X187557851Y-91103261D01*
X187535763Y-91101682D01*
X187524979Y-91093609D01*
X187512058Y-91089815D01*
X187497558Y-91073081D01*
X187479830Y-91059810D01*
X187475122Y-91047189D01*
X187466303Y-91037011D01*
X187463151Y-91015093D01*
X187455413Y-90994346D01*
X187458275Y-90981185D01*
X187456359Y-90967853D01*
X187465558Y-90947709D01*
X187470265Y-90926073D01*
X187483533Y-90908347D01*
X187485384Y-90904297D01*
X187491416Y-90897819D01*
X187522416Y-90866819D01*
X187583739Y-90833334D01*
X187610097Y-90830500D01*
X195389903Y-90830500D01*
X195456942Y-90850185D01*
G37*
%TD.AperFunction*%
%TA.AperFunction,Conductor*%
G36*
X197275203Y-91084884D02*
G01*
X197281681Y-91090916D01*
X200114681Y-93923916D01*
X200148166Y-93985239D01*
X200151000Y-94011597D01*
X200151000Y-106410902D01*
X200131315Y-106477941D01*
X200114681Y-106498583D01*
X197848981Y-108764282D01*
X197848979Y-108764285D01*
X197798861Y-108851094D01*
X197798859Y-108851096D01*
X197769925Y-108901209D01*
X197769924Y-108901210D01*
X197769923Y-108901215D01*
X197728999Y-109053943D01*
X197728999Y-109053945D01*
X197728999Y-109222046D01*
X197729000Y-109222059D01*
X197729000Y-121199041D01*
X197709315Y-121266080D01*
X197692681Y-121286722D01*
X197281681Y-121697722D01*
X197220358Y-121731207D01*
X197150666Y-121726223D01*
X197094733Y-121684351D01*
X197070316Y-121618887D01*
X197070000Y-121610041D01*
X197070000Y-102698644D01*
X197089685Y-102631605D01*
X197142489Y-102585850D01*
X197211647Y-102575906D01*
X197266885Y-102598326D01*
X197435478Y-102720815D01*
X197563875Y-102786237D01*
X197631893Y-102820895D01*
X197631896Y-102820896D01*
X197736721Y-102854955D01*
X197841549Y-102889015D01*
X198059278Y-102923500D01*
X198059279Y-102923500D01*
X198279721Y-102923500D01*
X198279722Y-102923500D01*
X198497451Y-102889015D01*
X198707106Y-102820895D01*
X198903522Y-102720815D01*
X199081865Y-102591242D01*
X199237742Y-102435365D01*
X199367315Y-102257022D01*
X199467395Y-102060606D01*
X199535515Y-101850951D01*
X199570000Y-101633222D01*
X199570000Y-101412778D01*
X199535515Y-101195049D01*
X199489852Y-101054511D01*
X199467396Y-100985396D01*
X199467395Y-100985393D01*
X199367314Y-100788977D01*
X199341654Y-100753659D01*
X199322199Y-100712868D01*
X199319077Y-100701215D01*
X199240019Y-100564284D01*
X199128216Y-100452481D01*
X198991285Y-100373423D01*
X198991284Y-100373422D01*
X198991283Y-100373422D01*
X198982441Y-100371053D01*
X198979629Y-100370299D01*
X198938840Y-100350844D01*
X198903524Y-100325186D01*
X198707106Y-100225104D01*
X198707103Y-100225103D01*
X198497452Y-100156985D01*
X198388586Y-100139742D01*
X198279722Y-100122500D01*
X198059278Y-100122500D01*
X197986701Y-100133995D01*
X197841547Y-100156985D01*
X197631896Y-100225103D01*
X197631893Y-100225104D01*
X197435474Y-100325187D01*
X197266885Y-100447673D01*
X197201078Y-100471153D01*
X197133025Y-100455327D01*
X197084330Y-100405221D01*
X197070000Y-100347355D01*
X197070000Y-91178597D01*
X197089685Y-91111558D01*
X197142489Y-91065803D01*
X197211647Y-91055859D01*
X197275203Y-91084884D01*
G37*
%TD.AperFunction*%
%TA.AperFunction,Conductor*%
G36*
X104205703Y-87491234D02*
G01*
X104234717Y-87528130D01*
X104281007Y-87617926D01*
X104284454Y-87625181D01*
X104316464Y-87698611D01*
X104320547Y-87707978D01*
X104323808Y-87716258D01*
X104353837Y-87801339D01*
X104356847Y-87811143D01*
X104381522Y-87905197D01*
X104383734Y-87915342D01*
X104403588Y-88029088D01*
X104404869Y-88038576D01*
X104418543Y-88181216D01*
X104419057Y-88189473D01*
X104424381Y-88374011D01*
X104426071Y-88396445D01*
X104427788Y-88419246D01*
X104428340Y-88426566D01*
X104428305Y-88426568D01*
X104429500Y-88440605D01*
X104429500Y-89013330D01*
X104429499Y-89013348D01*
X104429499Y-89179054D01*
X104429498Y-89179054D01*
X104444677Y-89235703D01*
X104470423Y-89331785D01*
X104488638Y-89363334D01*
X104499358Y-89381900D01*
X104499359Y-89381904D01*
X104499360Y-89381904D01*
X104549479Y-89468714D01*
X104549481Y-89468717D01*
X104668349Y-89587585D01*
X104668355Y-89587590D01*
X105065139Y-89984374D01*
X105065149Y-89984385D01*
X105069479Y-89988715D01*
X105069480Y-89988716D01*
X105181284Y-90100520D01*
X105268095Y-90150639D01*
X105268097Y-90150641D01*
X105306151Y-90172611D01*
X105318215Y-90179577D01*
X105470943Y-90220500D01*
X138653331Y-90220500D01*
X138653347Y-90220501D01*
X138660943Y-90220501D01*
X138819054Y-90220501D01*
X138819057Y-90220501D01*
X138971785Y-90179577D01*
X139021904Y-90150639D01*
X139108716Y-90100520D01*
X139220520Y-89988716D01*
X139220520Y-89988714D01*
X139230728Y-89978507D01*
X139230729Y-89978504D01*
X139812417Y-89396819D01*
X139873740Y-89363334D01*
X139900098Y-89360500D01*
X177703331Y-89360500D01*
X177703347Y-89360501D01*
X177710943Y-89360501D01*
X177869054Y-89360501D01*
X177869057Y-89360501D01*
X178021785Y-89319577D01*
X178071904Y-89290639D01*
X178158716Y-89240520D01*
X178270520Y-89128716D01*
X178270521Y-89128713D01*
X178332418Y-89066817D01*
X178393742Y-89033333D01*
X178420098Y-89030500D01*
X181374557Y-89030500D01*
X181441596Y-89050185D01*
X181487351Y-89102989D01*
X181497295Y-89172147D01*
X181468270Y-89235703D01*
X181462238Y-89242181D01*
X181441081Y-89263338D01*
X181301392Y-89445382D01*
X181186657Y-89644109D01*
X181186650Y-89644123D01*
X181098842Y-89856112D01*
X181039453Y-90077759D01*
X181039451Y-90077770D01*
X181009500Y-90305258D01*
X181009500Y-90534741D01*
X181034446Y-90724215D01*
X181039452Y-90762238D01*
X181083351Y-90926073D01*
X181098842Y-90983887D01*
X181186650Y-91195876D01*
X181186657Y-91195890D01*
X181211823Y-91239478D01*
X181276372Y-91351282D01*
X181301392Y-91394617D01*
X181441080Y-91576660D01*
X181441089Y-91576670D01*
X181603330Y-91738911D01*
X181603338Y-91738918D01*
X181785382Y-91878607D01*
X181785385Y-91878608D01*
X181785388Y-91878611D01*
X181984112Y-91993344D01*
X181984117Y-91993346D01*
X181984123Y-91993349D01*
X182048699Y-92020097D01*
X182196113Y-92081158D01*
X182417762Y-92140548D01*
X182645266Y-92170500D01*
X182645273Y-92170500D01*
X182874727Y-92170500D01*
X182874734Y-92170500D01*
X183102238Y-92140548D01*
X183323887Y-92081158D01*
X183535888Y-91993344D01*
X183734612Y-91878611D01*
X183916661Y-91738919D01*
X183916665Y-91738914D01*
X183916670Y-91738911D01*
X184078911Y-91576670D01*
X184078920Y-91576660D01*
X184199529Y-91419480D01*
X184218611Y-91394612D01*
X184333344Y-91195888D01*
X184421158Y-90983887D01*
X184480548Y-90762238D01*
X184510500Y-90534734D01*
X184510500Y-90305266D01*
X184480548Y-90077762D01*
X184421158Y-89856113D01*
X184344243Y-89670424D01*
X184333349Y-89644123D01*
X184333346Y-89644117D01*
X184333344Y-89644112D01*
X184218611Y-89445388D01*
X184218608Y-89445385D01*
X184218607Y-89445382D01*
X184078918Y-89263338D01*
X184078911Y-89263330D01*
X184057762Y-89242181D01*
X184024277Y-89180858D01*
X184029261Y-89111166D01*
X184071133Y-89055233D01*
X184136597Y-89030816D01*
X184145443Y-89030500D01*
X185093331Y-89030500D01*
X185093347Y-89030501D01*
X185100943Y-89030501D01*
X185259054Y-89030501D01*
X185259057Y-89030501D01*
X185411785Y-88989577D01*
X185467981Y-88957132D01*
X185548716Y-88910520D01*
X185660520Y-88798716D01*
X185660520Y-88798714D01*
X185670721Y-88788514D01*
X185670724Y-88788509D01*
X185974417Y-88484816D01*
X186035739Y-88451334D01*
X186062097Y-88448500D01*
X188789193Y-88448500D01*
X188789209Y-88448501D01*
X188796805Y-88448501D01*
X188954916Y-88448501D01*
X188954919Y-88448501D01*
X189107647Y-88407577D01*
X189173466Y-88369576D01*
X189244578Y-88328520D01*
X189356382Y-88216716D01*
X189356382Y-88216714D01*
X189366587Y-88206510D01*
X189366593Y-88206503D01*
X189448280Y-88124818D01*
X189509603Y-88091333D01*
X189535960Y-88088500D01*
X192947903Y-88088500D01*
X193014942Y-88108185D01*
X193035584Y-88124819D01*
X193804139Y-88893374D01*
X193804149Y-88893385D01*
X193808479Y-88897715D01*
X193808480Y-88897716D01*
X193920284Y-89009520D01*
X193968698Y-89037471D01*
X194007095Y-89059639D01*
X194007097Y-89059641D01*
X194057213Y-89088576D01*
X194057215Y-89088577D01*
X194209942Y-89129500D01*
X194209943Y-89129500D01*
X194258903Y-89129500D01*
X194325942Y-89149185D01*
X194346584Y-89165819D01*
X194598584Y-89417819D01*
X194632069Y-89479142D01*
X194627085Y-89548834D01*
X194585213Y-89604767D01*
X194519749Y-89629184D01*
X194510903Y-89629500D01*
X187389057Y-89629500D01*
X187230942Y-89629500D01*
X187078215Y-89670423D01*
X187078214Y-89670423D01*
X187078212Y-89670424D01*
X187078211Y-89670424D01*
X187028619Y-89699057D01*
X186941287Y-89749477D01*
X186941282Y-89749481D01*
X185339481Y-91351282D01*
X185339479Y-91351285D01*
X185328421Y-91370439D01*
X185300108Y-91419480D01*
X185289361Y-91438094D01*
X185289359Y-91438096D01*
X185260425Y-91488209D01*
X185260424Y-91488210D01*
X185248882Y-91531285D01*
X185219499Y-91640943D01*
X185219499Y-91640945D01*
X185219499Y-91809046D01*
X185219500Y-91809059D01*
X185219500Y-95339902D01*
X185199815Y-95406941D01*
X185183181Y-95427583D01*
X184092413Y-96518350D01*
X184086485Y-96523902D01*
X184081148Y-96528581D01*
X184061185Y-96542406D01*
X183990153Y-96608371D01*
X183988793Y-96609565D01*
X183988475Y-96609712D01*
X183983686Y-96613807D01*
X183932284Y-96654225D01*
X183923130Y-96660774D01*
X183883405Y-96686548D01*
X183872947Y-96692629D01*
X183855800Y-96701511D01*
X183838223Y-96708961D01*
X183773005Y-96730851D01*
X183748252Y-96736421D01*
X183685952Y-96743861D01*
X183664579Y-96744557D01*
X183538524Y-96737768D01*
X183526881Y-96736587D01*
X183342321Y-96709029D01*
X183341983Y-96708967D01*
X183063697Y-96669047D01*
X183045464Y-96666769D01*
X183044702Y-96666688D01*
X183026423Y-96665074D01*
X182958833Y-96660339D01*
X182951316Y-96659581D01*
X182874736Y-96649500D01*
X182874734Y-96649500D01*
X182645266Y-96649500D01*
X182645258Y-96649500D01*
X182428715Y-96678009D01*
X182417762Y-96679452D01*
X182335436Y-96701511D01*
X182196112Y-96738842D01*
X181984123Y-96826650D01*
X181984109Y-96826657D01*
X181785382Y-96941392D01*
X181603338Y-97081081D01*
X181441081Y-97243338D01*
X181301392Y-97425382D01*
X181186657Y-97624109D01*
X181186650Y-97624123D01*
X181098842Y-97836112D01*
X181039453Y-98057759D01*
X181039451Y-98057770D01*
X181009500Y-98285258D01*
X181009500Y-98514741D01*
X181034446Y-98704215D01*
X181039452Y-98742238D01*
X181039453Y-98742240D01*
X181098842Y-98963887D01*
X181186650Y-99175876D01*
X181186657Y-99175890D01*
X181301392Y-99374617D01*
X181441081Y-99556661D01*
X181441089Y-99556670D01*
X181603330Y-99718911D01*
X181603338Y-99718918D01*
X181785382Y-99858607D01*
X181785385Y-99858608D01*
X181785388Y-99858611D01*
X181984112Y-99973344D01*
X181984117Y-99973346D01*
X181984123Y-99973349D01*
X182075480Y-100011190D01*
X182196113Y-100061158D01*
X182417762Y-100120548D01*
X182645266Y-100150500D01*
X182645273Y-100150500D01*
X182874727Y-100150500D01*
X182874734Y-100150500D01*
X183102238Y-100120548D01*
X183323887Y-100061158D01*
X183535888Y-99973344D01*
X183734612Y-99858611D01*
X183916661Y-99718919D01*
X183916665Y-99718914D01*
X183916670Y-99718911D01*
X184078911Y-99556670D01*
X184078914Y-99556665D01*
X184078919Y-99556661D01*
X184218611Y-99374612D01*
X184333344Y-99175888D01*
X184421158Y-98963887D01*
X184480548Y-98742238D01*
X184503936Y-98564583D01*
X184505164Y-98557060D01*
X184513282Y-98515420D01*
X184513701Y-98513020D01*
X184516638Y-98496243D01*
X184516774Y-98495367D01*
X184519323Y-98476647D01*
X184547217Y-98238590D01*
X184547336Y-98237610D01*
X184578236Y-97991745D01*
X184579968Y-97981479D01*
X184596632Y-97902943D01*
X184599629Y-97891530D01*
X184622170Y-97819822D01*
X184627135Y-97806685D01*
X184658498Y-97736069D01*
X184665194Y-97723113D01*
X184712855Y-97642869D01*
X184720504Y-97631480D01*
X184793932Y-97534243D01*
X184801600Y-97525048D01*
X184919367Y-97396975D01*
X184947407Y-97363714D01*
X184951126Y-97359303D01*
X184951348Y-97359490D01*
X184959528Y-97349705D01*
X186178506Y-96130728D01*
X186178511Y-96130724D01*
X186188714Y-96120520D01*
X186188716Y-96120520D01*
X186300520Y-96008716D01*
X186379577Y-95871784D01*
X186409534Y-95759981D01*
X186420500Y-95719058D01*
X186420500Y-95560943D01*
X186420500Y-92020097D01*
X186429144Y-91990656D01*
X186435668Y-91960670D01*
X186439422Y-91955654D01*
X186440185Y-91953058D01*
X186456819Y-91932416D01*
X186487819Y-91901416D01*
X186549142Y-91867931D01*
X186618834Y-91872915D01*
X186674767Y-91914787D01*
X186699184Y-91980251D01*
X186699500Y-91989097D01*
X186699500Y-100445500D01*
X186679815Y-100512539D01*
X186627011Y-100558294D01*
X186575500Y-100569500D01*
X179424500Y-100569500D01*
X179357461Y-100549815D01*
X179311706Y-100497011D01*
X179300500Y-100445500D01*
X179300500Y-94370439D01*
X179300500Y-94370438D01*
X179287893Y-94323389D01*
X179287893Y-94323388D01*
X179287900Y-94323386D01*
X179287869Y-94323300D01*
X179280356Y-94295258D01*
X181009500Y-94295258D01*
X181009500Y-94524741D01*
X181034446Y-94714215D01*
X181039452Y-94752238D01*
X181039453Y-94752240D01*
X181098842Y-94973887D01*
X181186650Y-95185876D01*
X181186657Y-95185890D01*
X181301392Y-95384617D01*
X181441081Y-95566661D01*
X181441089Y-95566670D01*
X181603330Y-95728911D01*
X181603338Y-95728918D01*
X181785382Y-95868607D01*
X181785385Y-95868608D01*
X181785388Y-95868611D01*
X181984112Y-95983344D01*
X181984117Y-95983346D01*
X181984123Y-95983349D01*
X182075480Y-96021190D01*
X182196113Y-96071158D01*
X182417762Y-96130548D01*
X182645266Y-96160500D01*
X182645273Y-96160500D01*
X182874727Y-96160500D01*
X182874734Y-96160500D01*
X183102238Y-96130548D01*
X183323887Y-96071158D01*
X183535888Y-95983344D01*
X183734612Y-95868611D01*
X183916661Y-95728919D01*
X183916665Y-95728914D01*
X183916670Y-95728911D01*
X184078911Y-95566670D01*
X184078914Y-95566665D01*
X184078919Y-95566661D01*
X184218611Y-95384612D01*
X184333344Y-95185888D01*
X184421158Y-94973887D01*
X184480548Y-94752238D01*
X184510500Y-94524734D01*
X184510500Y-94295266D01*
X184480548Y-94067762D01*
X184421158Y-93846113D01*
X184333344Y-93634112D01*
X184218611Y-93435388D01*
X184218608Y-93435385D01*
X184218607Y-93435382D01*
X184078918Y-93253338D01*
X184078911Y-93253330D01*
X183916670Y-93091089D01*
X183916661Y-93091081D01*
X183734617Y-92951392D01*
X183535890Y-92836657D01*
X183535876Y-92836650D01*
X183323887Y-92748842D01*
X183102238Y-92689452D01*
X183064215Y-92684446D01*
X182874741Y-92659500D01*
X182874734Y-92659500D01*
X182645266Y-92659500D01*
X182645258Y-92659500D01*
X182428715Y-92688009D01*
X182417762Y-92689452D01*
X182324076Y-92714554D01*
X182196112Y-92748842D01*
X181984123Y-92836650D01*
X181984109Y-92836657D01*
X181785382Y-92951392D01*
X181603338Y-93091081D01*
X181441081Y-93253338D01*
X181301392Y-93435382D01*
X181186657Y-93634109D01*
X181186650Y-93634123D01*
X181098842Y-93846112D01*
X181039453Y-94067759D01*
X181039451Y-94067770D01*
X181009500Y-94295258D01*
X179280356Y-94295258D01*
X179280022Y-94294012D01*
X179240460Y-94225489D01*
X176184511Y-91169540D01*
X176168720Y-91160423D01*
X176115991Y-91129980D01*
X176115990Y-91129979D01*
X176090513Y-91123152D01*
X176039562Y-91109500D01*
X176039560Y-91109500D01*
X104124500Y-91109500D01*
X104057461Y-91089815D01*
X104011706Y-91037011D01*
X104000500Y-90985500D01*
X104000500Y-87584947D01*
X104020185Y-87517908D01*
X104072989Y-87472153D01*
X104142147Y-87462209D01*
X104205703Y-87491234D01*
G37*
%TD.AperFunction*%
%TA.AperFunction,Conductor*%
G36*
X120113968Y-83299616D02*
G01*
X124017836Y-84880682D01*
X124034011Y-84890021D01*
X124054352Y-84895471D01*
X124073867Y-84903375D01*
X124083836Y-84904607D01*
X124100726Y-84907897D01*
X124110438Y-84910500D01*
X124131499Y-84910500D01*
X124152392Y-84913083D01*
X124170884Y-84910500D01*
X178760047Y-84910500D01*
X178827086Y-84930185D01*
X178872841Y-84982989D01*
X178882785Y-85052147D01*
X178874608Y-85081952D01*
X178830999Y-85187233D01*
X178830996Y-85187245D01*
X178800235Y-85341888D01*
X178800235Y-85499581D01*
X178816492Y-85581309D01*
X178810265Y-85650900D01*
X178767402Y-85706078D01*
X178701512Y-85729322D01*
X178694875Y-85729500D01*
X134285634Y-85729500D01*
X134246819Y-85725056D01*
X134093905Y-85729462D01*
X134093067Y-85729500D01*
X133716670Y-85729500D01*
X133716654Y-85729499D01*
X133709058Y-85729499D01*
X133550943Y-85729499D01*
X133474579Y-85749961D01*
X133398214Y-85770423D01*
X133398209Y-85770426D01*
X133261283Y-85849479D01*
X133175938Y-85934823D01*
X133165812Y-85941194D01*
X133160663Y-85947807D01*
X133129369Y-85964128D01*
X133050238Y-85991936D01*
X133040144Y-85995007D01*
X132953347Y-86017431D01*
X132943521Y-86019549D01*
X132821509Y-86040711D01*
X132773265Y-86051242D01*
X132773210Y-86050994D01*
X132760535Y-86053820D01*
X132717765Y-86059451D01*
X132717758Y-86059453D01*
X132496112Y-86118842D01*
X132284123Y-86206650D01*
X132284109Y-86206657D01*
X132085382Y-86321392D01*
X131903338Y-86461081D01*
X131741081Y-86623338D01*
X131601392Y-86805382D01*
X131486657Y-87004109D01*
X131486650Y-87004123D01*
X131398842Y-87216112D01*
X131377656Y-87295182D01*
X131342976Y-87424612D01*
X131339453Y-87437759D01*
X131339451Y-87437770D01*
X131309500Y-87665258D01*
X131309500Y-87894741D01*
X131328437Y-88038576D01*
X131339452Y-88122238D01*
X131398842Y-88343887D01*
X131486650Y-88555876D01*
X131486657Y-88555890D01*
X131601392Y-88754617D01*
X131651573Y-88820013D01*
X131676768Y-88885182D01*
X131662730Y-88953627D01*
X131613916Y-89003617D01*
X131553198Y-89019500D01*
X105850097Y-89019500D01*
X105820656Y-89010855D01*
X105790670Y-89004332D01*
X105785654Y-89000577D01*
X105783058Y-88999815D01*
X105762416Y-88983181D01*
X105666819Y-88887584D01*
X105633334Y-88826261D01*
X105630500Y-88799903D01*
X105630500Y-88419246D01*
X105632614Y-88396445D01*
X105635524Y-88380891D01*
X105638694Y-88305689D01*
X105639740Y-88294027D01*
X105645439Y-88252576D01*
X105647895Y-88239756D01*
X105652325Y-88221813D01*
X105666122Y-88188173D01*
X105676922Y-88170011D01*
X105695007Y-88146530D01*
X105707292Y-88134016D01*
X105726758Y-88117873D01*
X105787270Y-88077341D01*
X105802736Y-88068519D01*
X106030848Y-87959333D01*
X106031667Y-87958946D01*
X106169046Y-87894727D01*
X106279037Y-87843310D01*
X106284833Y-87840464D01*
X106296454Y-87834758D01*
X106297250Y-87834348D01*
X106314237Y-87825184D01*
X106437940Y-87755368D01*
X106457354Y-87743832D01*
X106458231Y-87743284D01*
X106476727Y-87731155D01*
X106517174Y-87703348D01*
X106517178Y-87703346D01*
X106521211Y-87700572D01*
X106524612Y-87698611D01*
X106529303Y-87695011D01*
X106587165Y-87655234D01*
X106597373Y-87648029D01*
X106597863Y-87647674D01*
X106649953Y-87604327D01*
X106649966Y-87604310D01*
X106650953Y-87603297D01*
X106664338Y-87591394D01*
X106706661Y-87558919D01*
X106775064Y-87490516D01*
X106868911Y-87396670D01*
X106868914Y-87396665D01*
X106868919Y-87396661D01*
X107008611Y-87214612D01*
X107123344Y-87015888D01*
X107211158Y-86803887D01*
X107270548Y-86582238D01*
X107300500Y-86354734D01*
X107300500Y-86125266D01*
X107270548Y-85897762D01*
X107211158Y-85676113D01*
X107150223Y-85529003D01*
X107123349Y-85464123D01*
X107123346Y-85464117D01*
X107123344Y-85464112D01*
X107008611Y-85265388D01*
X107008608Y-85265385D01*
X107008607Y-85265382D01*
X106885675Y-85105176D01*
X106868919Y-85083339D01*
X106868918Y-85083338D01*
X106868911Y-85083330D01*
X106706670Y-84921089D01*
X106706661Y-84921081D01*
X106524617Y-84781392D01*
X106325890Y-84666657D01*
X106325876Y-84666650D01*
X106113887Y-84578842D01*
X105892238Y-84519452D01*
X105854215Y-84514446D01*
X105664741Y-84489500D01*
X105664734Y-84489500D01*
X105435266Y-84489500D01*
X105435258Y-84489500D01*
X105218715Y-84518009D01*
X105207762Y-84519452D01*
X105114076Y-84544554D01*
X104986112Y-84578842D01*
X104774123Y-84666650D01*
X104774109Y-84666657D01*
X104575382Y-84781392D01*
X104393338Y-84921081D01*
X104231089Y-85083330D01*
X104231079Y-85083341D01*
X104222874Y-85094034D01*
X104166446Y-85135236D01*
X104096700Y-85139389D01*
X104035780Y-85105176D01*
X104003028Y-85043458D01*
X104000500Y-85018546D01*
X104000500Y-83424241D01*
X104020185Y-83357202D01*
X104072989Y-83311447D01*
X104124421Y-83300241D01*
X120067352Y-83290549D01*
X120113968Y-83299616D01*
G37*
%TD.AperFunction*%
%TA.AperFunction,Conductor*%
G36*
X180967866Y-85819570D02*
G01*
X180999887Y-85821860D01*
X181002332Y-85823690D01*
X181005364Y-85824053D01*
X181030120Y-85844492D01*
X181055820Y-85863732D01*
X181056887Y-85866592D01*
X181059243Y-85868538D01*
X181069020Y-85899122D01*
X181080237Y-85929196D01*
X181079868Y-85933057D01*
X181080518Y-85935090D01*
X181076328Y-85970134D01*
X181052397Y-86059451D01*
X181039452Y-86107762D01*
X181039451Y-86107770D01*
X181009500Y-86335258D01*
X181009500Y-86564741D01*
X181025795Y-86688507D01*
X181039452Y-86792238D01*
X181076499Y-86930500D01*
X181098842Y-87013887D01*
X181186650Y-87225876D01*
X181186657Y-87225890D01*
X181301392Y-87424617D01*
X181441081Y-87606661D01*
X181441089Y-87606670D01*
X181452238Y-87617819D01*
X181485723Y-87679142D01*
X181480739Y-87748834D01*
X181438867Y-87804767D01*
X181373403Y-87829184D01*
X181364557Y-87829500D01*
X178040940Y-87829500D01*
X178000019Y-87840464D01*
X178000019Y-87840465D01*
X177962751Y-87850451D01*
X177888214Y-87870423D01*
X177888209Y-87870426D01*
X177751290Y-87949475D01*
X177751282Y-87949481D01*
X177577583Y-88123181D01*
X177516260Y-88156666D01*
X177489902Y-88159500D01*
X139686670Y-88159500D01*
X139686654Y-88159499D01*
X139679058Y-88159499D01*
X139520943Y-88159499D01*
X139481672Y-88170022D01*
X139368214Y-88200423D01*
X139368209Y-88200426D01*
X139231290Y-88279475D01*
X139231282Y-88279481D01*
X138527584Y-88983181D01*
X138466261Y-89016666D01*
X138439903Y-89019500D01*
X134566802Y-89019500D01*
X134499763Y-88999815D01*
X134454008Y-88947011D01*
X134444064Y-88877853D01*
X134468427Y-88820013D01*
X134518607Y-88754617D01*
X134518606Y-88754617D01*
X134518611Y-88754612D01*
X134633344Y-88555888D01*
X134721158Y-88343887D01*
X134780548Y-88122238D01*
X134810500Y-87894734D01*
X134810500Y-87665266D01*
X134791514Y-87521057D01*
X134788936Y-87490516D01*
X134785581Y-87475993D01*
X134780548Y-87437762D01*
X134753006Y-87334973D01*
X134751275Y-87327479D01*
X134743105Y-87296595D01*
X134742683Y-87295182D01*
X134740954Y-87289995D01*
X134721158Y-87216113D01*
X134673870Y-87101952D01*
X134666402Y-87032484D01*
X134697677Y-86970005D01*
X134757765Y-86934352D01*
X134788432Y-86930500D01*
X179453331Y-86930500D01*
X179453347Y-86930501D01*
X179460943Y-86930501D01*
X179619054Y-86930501D01*
X179619057Y-86930501D01*
X179771785Y-86889577D01*
X179821904Y-86860639D01*
X179908716Y-86810520D01*
X180020520Y-86698716D01*
X180020520Y-86698714D01*
X180030728Y-86688507D01*
X180030729Y-86688504D01*
X180868875Y-85850359D01*
X180871552Y-85848897D01*
X180873142Y-85846289D01*
X180902023Y-85832258D01*
X180930195Y-85816876D01*
X180933241Y-85817093D01*
X180935989Y-85815759D01*
X180967866Y-85819570D01*
G37*
%TD.AperFunction*%
%TA.AperFunction,Conductor*%
G36*
X184836942Y-85330185D02*
G01*
X184857584Y-85346819D01*
X186195139Y-86684374D01*
X186195160Y-86684397D01*
X186218582Y-86707819D01*
X186252067Y-86769142D01*
X186247083Y-86838834D01*
X186205211Y-86894767D01*
X186139747Y-86919184D01*
X186130901Y-86919500D01*
X184605188Y-86919500D01*
X184538149Y-86899815D01*
X184492394Y-86847011D01*
X184482249Y-86779315D01*
X184510500Y-86564734D01*
X184510500Y-86335266D01*
X184480548Y-86107762D01*
X184421158Y-85886113D01*
X184354446Y-85725056D01*
X184333349Y-85674123D01*
X184333346Y-85674117D01*
X184333344Y-85674112D01*
X184230798Y-85496497D01*
X184214326Y-85428600D01*
X184237178Y-85362573D01*
X184292100Y-85319383D01*
X184338186Y-85310500D01*
X184769903Y-85310500D01*
X184836942Y-85330185D01*
G37*
%TD.AperFunction*%
%TD*%
%TA.AperFunction,Conductor*%
%TO.N,SMS*%
G36*
X184421411Y-96913112D02*
G01*
X184546926Y-97038627D01*
X184550353Y-97046900D01*
X184547265Y-97054819D01*
X184408888Y-97205307D01*
X184296064Y-97354714D01*
X184296062Y-97354717D01*
X184211603Y-97496916D01*
X184211599Y-97496923D01*
X184150648Y-97634154D01*
X184150648Y-97634155D01*
X184108385Y-97768601D01*
X184108383Y-97768606D01*
X184108383Y-97768609D01*
X184079983Y-97902451D01*
X184045452Y-98177205D01*
X184017258Y-98417817D01*
X184017122Y-98418693D01*
X183963721Y-98692649D01*
X183958774Y-98700114D01*
X183949999Y-98701895D01*
X183949368Y-98701754D01*
X182767627Y-98402815D01*
X182760447Y-98397464D01*
X182758815Y-98392126D01*
X182690901Y-97172914D01*
X182693863Y-97164465D01*
X182701932Y-97160583D01*
X182702420Y-97160567D01*
X182844305Y-97159093D01*
X182845201Y-97159120D01*
X182991113Y-97169340D01*
X182991939Y-97169428D01*
X183266668Y-97208838D01*
X183266730Y-97208875D01*
X183266735Y-97208848D01*
X183481661Y-97240940D01*
X183691793Y-97252256D01*
X183872476Y-97230679D01*
X184045139Y-97172727D01*
X184132758Y-97127342D01*
X184222260Y-97069271D01*
X184316473Y-96995190D01*
X184405178Y-96912810D01*
X184413570Y-96909693D01*
X184421411Y-96913112D01*
G37*
%TD.AperFunction*%
%TD*%
%TA.AperFunction,Conductor*%
%TO.N,+5V*%
G36*
X105555523Y-86246205D02*
G01*
X105933925Y-86739846D01*
X106303456Y-87221913D01*
X106305769Y-87230564D01*
X106301288Y-87238317D01*
X106300798Y-87238672D01*
X106190360Y-87314593D01*
X106189483Y-87315141D01*
X106065780Y-87384957D01*
X106064984Y-87385367D01*
X106024090Y-87404484D01*
X105815079Y-87502190D01*
X105815031Y-87502213D01*
X105543616Y-87632125D01*
X105543608Y-87632129D01*
X105391802Y-87733814D01*
X105281181Y-87846488D01*
X105201006Y-87981324D01*
X105201005Y-87981326D01*
X105171284Y-88061268D01*
X105171281Y-88061277D01*
X105149175Y-88150823D01*
X105134897Y-88254665D01*
X105134897Y-88254673D01*
X105130480Y-88359442D01*
X105130473Y-88359598D01*
X105126700Y-88367719D01*
X105118783Y-88370805D01*
X104941367Y-88370805D01*
X104933094Y-88367378D01*
X104929672Y-88359442D01*
X104923742Y-88153904D01*
X104923741Y-88153896D01*
X104923741Y-88153886D01*
X104905742Y-87966133D01*
X104877169Y-87802432D01*
X104839191Y-87657665D01*
X104839190Y-87657664D01*
X104839188Y-87657655D01*
X104792974Y-87526718D01*
X104792969Y-87526705D01*
X104739690Y-87404484D01*
X104739685Y-87404472D01*
X104616560Y-87165627D01*
X104616546Y-87165601D01*
X104616524Y-87165558D01*
X104551366Y-87043205D01*
X104551135Y-87042749D01*
X104406460Y-86739846D01*
X104405987Y-86730903D01*
X104411975Y-86724245D01*
X104412417Y-86724045D01*
X105541650Y-86242559D01*
X105550602Y-86242468D01*
X105555523Y-86246205D01*
G37*
%TD.AperFunction*%
%TD*%
%TA.AperFunction,Conductor*%
%TO.N,+5V*%
G36*
X166108820Y-127286128D02*
G01*
X166109967Y-127290885D01*
X166112517Y-127389367D01*
X166126469Y-127553849D01*
X166126470Y-127553861D01*
X166151113Y-127718926D01*
X166151116Y-127718939D01*
X166186945Y-127887958D01*
X166232572Y-128054045D01*
X166232574Y-128054050D01*
X166232575Y-128054054D01*
X166348995Y-128367793D01*
X166348999Y-128367802D01*
X166349001Y-128367806D01*
X166487650Y-128637136D01*
X166487652Y-128637139D01*
X166487655Y-128637144D01*
X166635390Y-128849438D01*
X166635391Y-128849439D01*
X166782338Y-129002988D01*
X166782342Y-129002991D01*
X166782343Y-129002992D01*
X166918180Y-129099502D01*
X166922940Y-129107086D01*
X166923104Y-129109039D01*
X166923104Y-129247800D01*
X166919677Y-129256073D01*
X166911404Y-129259500D01*
X166842549Y-129259500D01*
X166837139Y-129258174D01*
X166828577Y-129253709D01*
X166828566Y-129253703D01*
X166828559Y-129253700D01*
X166828544Y-129253693D01*
X166648839Y-129172121D01*
X166648834Y-129172119D01*
X166648823Y-129172114D01*
X166445930Y-129092831D01*
X166445925Y-129092829D01*
X166445914Y-129092825D01*
X166294237Y-129041293D01*
X166218391Y-129015525D01*
X165977528Y-128944533D01*
X165977522Y-128944531D01*
X165977520Y-128944531D01*
X165977511Y-128944529D01*
X165505883Y-128834527D01*
X165505876Y-128834526D01*
X165091161Y-128771936D01*
X165091149Y-128771935D01*
X164773555Y-128753882D01*
X164765490Y-128749991D01*
X164762538Y-128741537D01*
X164763175Y-128738337D01*
X165106895Y-127757578D01*
X165112864Y-127750906D01*
X166093212Y-127280638D01*
X166102152Y-127280150D01*
X166108820Y-127286128D01*
G37*
%TD.AperFunction*%
%TD*%
%TA.AperFunction,Conductor*%
%TO.N,CL2*%
G36*
X150519359Y-131129592D02*
G01*
X150522575Y-131131870D01*
X150647659Y-131256954D01*
X150651086Y-131265227D01*
X150650753Y-131268000D01*
X150638515Y-131318150D01*
X150633833Y-131388615D01*
X150633833Y-131388620D01*
X150633833Y-131388623D01*
X150639867Y-131466119D01*
X150639867Y-131466122D01*
X150639868Y-131466123D01*
X150683329Y-131629792D01*
X150683330Y-131629793D01*
X150683332Y-131629799D01*
X150761155Y-131779872D01*
X150859975Y-131897256D01*
X150863459Y-131901394D01*
X150923646Y-131945585D01*
X150983835Y-131989778D01*
X150983836Y-131989778D01*
X150983837Y-131989779D01*
X151011179Y-132000694D01*
X151120017Y-132044143D01*
X151249043Y-132060064D01*
X151256834Y-132064478D01*
X151259222Y-132073109D01*
X151255883Y-132079949D01*
X150281109Y-133054723D01*
X150272836Y-133058150D01*
X150264563Y-133054723D01*
X150263911Y-133054015D01*
X149438861Y-132080617D01*
X149436127Y-132072092D01*
X149440222Y-132064129D01*
X149446967Y-132061383D01*
X149490034Y-132058361D01*
X149574779Y-132040209D01*
X149660898Y-132009615D01*
X149762206Y-131959900D01*
X149862852Y-131897255D01*
X149975071Y-131812847D01*
X150082613Y-131717752D01*
X150189065Y-131609113D01*
X150285594Y-131496036D01*
X150432503Y-131283743D01*
X150503751Y-131135085D01*
X150510417Y-131129107D01*
X150519359Y-131129592D01*
G37*
%TD.AperFunction*%
%TD*%
%TA.AperFunction,Conductor*%
%TO.N,D1*%
G36*
X183925184Y-86027225D02*
G01*
X183931243Y-86033818D01*
X183931604Y-86034991D01*
X183966460Y-86174025D01*
X183966770Y-86175889D01*
X183980365Y-86337442D01*
X183980405Y-86338597D01*
X183977911Y-86506128D01*
X183977890Y-86506678D01*
X183967463Y-86674894D01*
X183958141Y-86822126D01*
X183958141Y-86822135D01*
X183958141Y-86822136D01*
X183958339Y-87033305D01*
X183958339Y-87033310D01*
X183983478Y-87175957D01*
X183983480Y-87175965D01*
X184031743Y-87277676D01*
X184031744Y-87277678D01*
X184106305Y-87351432D01*
X184157291Y-87379663D01*
X184217971Y-87400807D01*
X184279532Y-87412217D01*
X184295082Y-87415100D01*
X184295088Y-87415101D01*
X184374252Y-87419399D01*
X184382328Y-87423270D01*
X184385318Y-87431082D01*
X184385318Y-87608295D01*
X184381891Y-87616568D01*
X184373618Y-87619995D01*
X184373614Y-87619995D01*
X184247631Y-87619952D01*
X184245967Y-87619952D01*
X184245965Y-87619952D01*
X184245929Y-87619952D01*
X183593455Y-87626588D01*
X183593429Y-87626589D01*
X183288660Y-87646899D01*
X183288621Y-87646902D01*
X182934593Y-87687979D01*
X182925980Y-87685529D01*
X182921646Y-87677893D01*
X182914850Y-87626589D01*
X182760232Y-86459300D01*
X182762543Y-86450650D01*
X182767811Y-86446777D01*
X183916238Y-86026848D01*
X183925184Y-86027225D01*
G37*
%TD.AperFunction*%
%TD*%
%TA.AperFunction,Conductor*%
%TO.N,D1*%
G36*
X170770171Y-131292791D02*
G01*
X170896138Y-131418758D01*
X170899565Y-131427031D01*
X170896565Y-131434854D01*
X170813204Y-131527551D01*
X170723173Y-131647402D01*
X170635335Y-131783474D01*
X170635335Y-131783475D01*
X170545856Y-131942838D01*
X170545853Y-131942844D01*
X170461450Y-132114993D01*
X170461447Y-132115001D01*
X170313606Y-132485462D01*
X170206740Y-132853443D01*
X170145289Y-133188987D01*
X170127245Y-133460951D01*
X170123278Y-133468979D01*
X170114796Y-133471850D01*
X170111103Y-133470989D01*
X169129949Y-133065562D01*
X169123613Y-133059238D01*
X168718343Y-132078464D01*
X168718350Y-132069510D01*
X168724688Y-132063184D01*
X168728671Y-132062307D01*
X168884072Y-132055867D01*
X169058369Y-132035945D01*
X169236982Y-132004307D01*
X169429967Y-131958798D01*
X169622585Y-131902469D01*
X169814803Y-131835618D01*
X170000979Y-131760354D01*
X170330488Y-131597601D01*
X170330493Y-131597597D01*
X170330495Y-131597597D01*
X170440195Y-131527555D01*
X170585760Y-131434615D01*
X170754346Y-131292127D01*
X170762876Y-131289405D01*
X170770171Y-131292791D01*
G37*
%TD.AperFunction*%
%TD*%
%TA.AperFunction,Conductor*%
%TO.N,BRIGHT*%
G36*
X134269744Y-86233533D02*
G01*
X134273408Y-86241704D01*
X134273413Y-86242041D01*
X134273413Y-86419623D01*
X134269986Y-86427896D01*
X134263110Y-86431239D01*
X134144871Y-86445461D01*
X134144863Y-86445464D01*
X134097793Y-86464075D01*
X134097778Y-86464083D01*
X134061111Y-86489323D01*
X134061106Y-86489328D01*
X134034051Y-86520732D01*
X134015832Y-86557824D01*
X134002769Y-86647169D01*
X134015625Y-86753583D01*
X134015626Y-86753588D01*
X134048118Y-86873287D01*
X134048123Y-86873304D01*
X134146879Y-87137494D01*
X134146898Y-87137545D01*
X134258323Y-87439839D01*
X134258745Y-87441252D01*
X134296406Y-87604289D01*
X134294929Y-87613121D01*
X134287639Y-87618322D01*
X134286532Y-87618522D01*
X133070608Y-87778473D01*
X133061959Y-87776154D01*
X133057482Y-87768399D01*
X133057481Y-87768391D01*
X132898298Y-86551821D01*
X132900622Y-86543173D01*
X132907897Y-86538776D01*
X133055063Y-86513251D01*
X133192551Y-86477731D01*
X133432509Y-86393408D01*
X133475599Y-86377038D01*
X133476029Y-86376884D01*
X133714603Y-86297259D01*
X133716038Y-86296880D01*
X133963114Y-86248220D01*
X133964262Y-86248054D01*
X134107754Y-86234796D01*
X134108464Y-86234752D01*
X134261378Y-86230346D01*
X134269744Y-86233533D01*
G37*
%TD.AperFunction*%
%TD*%
%TA.AperFunction,Conductor*%
%TO.N,BRIGHT*%
G36*
X175835833Y-131993532D02*
G01*
X175839495Y-132001704D01*
X175839500Y-132002038D01*
X175839500Y-132179114D01*
X175836073Y-132187387D01*
X175828644Y-132190784D01*
X175794868Y-132193226D01*
X175774515Y-132194698D01*
X175774511Y-132194698D01*
X175774508Y-132194699D01*
X175698630Y-132211378D01*
X175698621Y-132211381D01*
X175622165Y-132239552D01*
X175622154Y-132239557D01*
X175539654Y-132282212D01*
X175539652Y-132282213D01*
X175457994Y-132336855D01*
X175373842Y-132406509D01*
X175292500Y-132487729D01*
X175292481Y-132487750D01*
X175213483Y-132581479D01*
X175213473Y-132581491D01*
X175139338Y-132685430D01*
X175139335Y-132685436D01*
X175011094Y-132917163D01*
X174916179Y-133168836D01*
X174858633Y-133428632D01*
X174840924Y-133668880D01*
X174836899Y-133676879D01*
X174828396Y-133679688D01*
X174823059Y-133677943D01*
X174007953Y-133168838D01*
X173842615Y-133065570D01*
X173837413Y-133058281D01*
X173837411Y-133058272D01*
X173804921Y-132917160D01*
X173611513Y-132077128D01*
X173612997Y-132068298D01*
X173620290Y-132063102D01*
X173622749Y-132062806D01*
X174105944Y-132056336D01*
X174206496Y-132054991D01*
X174888427Y-132024573D01*
X175049967Y-132016902D01*
X175279284Y-132006013D01*
X175279447Y-132006007D01*
X175827468Y-131990343D01*
X175835833Y-131993532D01*
G37*
%TD.AperFunction*%
%TD*%
%TA.AperFunction,Conductor*%
%TO.N,D2*%
G36*
X181533026Y-82248457D02*
G01*
X182751793Y-82408125D01*
X182759551Y-82412598D01*
X182761874Y-82418206D01*
X182921540Y-83636956D01*
X182919217Y-83645604D01*
X182911459Y-83650077D01*
X182910731Y-83650149D01*
X182643170Y-83668306D01*
X182642157Y-83668331D01*
X182388839Y-83663545D01*
X182388703Y-83663542D01*
X182264379Y-83659748D01*
X182264376Y-83659748D01*
X182264375Y-83659748D01*
X182240234Y-83660379D01*
X182027528Y-83665941D01*
X181832949Y-83700375D01*
X181832945Y-83700376D01*
X181648856Y-83770070D01*
X181555200Y-83821670D01*
X181458972Y-83886562D01*
X181458972Y-83886563D01*
X181356883Y-83968552D01*
X181356863Y-83968570D01*
X181259095Y-84059963D01*
X181250711Y-84063109D01*
X181242832Y-84059689D01*
X181117270Y-83934127D01*
X181113843Y-83925854D01*
X181116856Y-83918016D01*
X181145235Y-83886563D01*
X181250201Y-83770226D01*
X181250204Y-83770220D01*
X181250209Y-83770216D01*
X181322103Y-83668306D01*
X181354722Y-83622069D01*
X181428120Y-83479833D01*
X181475541Y-83341550D01*
X181502134Y-83205257D01*
X181513043Y-83068986D01*
X181508398Y-82788651D01*
X181502247Y-82515242D01*
X181502271Y-82514217D01*
X181519838Y-82259253D01*
X181523825Y-82251237D01*
X181532314Y-82248387D01*
X181533026Y-82248457D01*
G37*
%TD.AperFunction*%
%TD*%
%TA.AperFunction,Conductor*%
%TO.N,D2*%
G36*
X179933936Y-85119737D02*
G01*
X180060155Y-85245956D01*
X180063582Y-85254229D01*
X180060773Y-85261835D01*
X179978933Y-85357503D01*
X179933106Y-85440825D01*
X179933037Y-85440948D01*
X179856360Y-85576474D01*
X179849304Y-85581987D01*
X179840416Y-85580896D01*
X179839718Y-85580467D01*
X179604099Y-85424143D01*
X179599101Y-85416717D01*
X179544670Y-85139058D01*
X179546441Y-85130281D01*
X179553900Y-85125327D01*
X179554917Y-85125174D01*
X179597616Y-85120722D01*
X179599771Y-85120700D01*
X179646657Y-85124564D01*
X179648892Y-85124969D01*
X179650153Y-85125327D01*
X179729936Y-85147981D01*
X179729970Y-85147991D01*
X179785793Y-85164955D01*
X179785793Y-85164954D01*
X179785794Y-85164955D01*
X179787555Y-85164903D01*
X179849767Y-85163091D01*
X179886303Y-85145525D01*
X179918183Y-85119013D01*
X179926734Y-85116359D01*
X179933936Y-85119737D01*
G37*
%TD.AperFunction*%
%TD*%
%TA.AperFunction,Conductor*%
%TO.N,D4*%
G36*
X183916248Y-73969941D02*
G01*
X183922503Y-73976349D01*
X183922640Y-73976708D01*
X184007197Y-74209919D01*
X184007377Y-74210454D01*
X184074378Y-74427390D01*
X184074403Y-74427474D01*
X184101616Y-74517965D01*
X184192431Y-74779784D01*
X184302502Y-75002650D01*
X184374243Y-75115311D01*
X184461847Y-75233639D01*
X184461858Y-75233652D01*
X184571527Y-75363221D01*
X184571543Y-75363240D01*
X184696113Y-75494284D01*
X184699329Y-75502641D01*
X184695906Y-75510618D01*
X184570230Y-75636294D01*
X184561957Y-75639721D01*
X184554323Y-75636886D01*
X184415594Y-75517411D01*
X184357426Y-75483172D01*
X184274199Y-75434184D01*
X184136940Y-75388346D01*
X184136939Y-75388345D01*
X184136937Y-75388345D01*
X184002388Y-75373945D01*
X184002387Y-75373945D01*
X183869123Y-75385034D01*
X183869113Y-75385036D01*
X183735723Y-75415663D01*
X183735715Y-75415665D01*
X183462801Y-75511748D01*
X183402866Y-75534668D01*
X183402457Y-75534816D01*
X183144608Y-75622594D01*
X183143248Y-75622967D01*
X182935512Y-75666704D01*
X182926711Y-75665055D01*
X182921653Y-75657665D01*
X182921506Y-75656807D01*
X182760484Y-74438307D01*
X182762797Y-74429657D01*
X182767733Y-74425914D01*
X183907295Y-73969834D01*
X183916248Y-73969941D01*
G37*
%TD.AperFunction*%
%TD*%
%TA.AperFunction,Conductor*%
%TO.N,D4*%
G36*
X191504190Y-84260652D02*
G01*
X191647668Y-84268260D01*
X191649738Y-84268559D01*
X191757407Y-84294084D01*
X191760021Y-84295045D01*
X191847244Y-84339606D01*
X191848680Y-84340475D01*
X191942293Y-84406770D01*
X191942290Y-84406773D01*
X191942303Y-84406777D01*
X192012767Y-84456818D01*
X192078160Y-84503258D01*
X192082922Y-84510842D01*
X192081132Y-84519270D01*
X191924429Y-84755207D01*
X191916997Y-84760203D01*
X191916958Y-84760211D01*
X191639028Y-84815308D01*
X191630247Y-84813555D01*
X191625276Y-84806106D01*
X191625121Y-84805093D01*
X191617042Y-84730638D01*
X191616975Y-84729356D01*
X191617330Y-84648560D01*
X191618044Y-84598395D01*
X191607971Y-84521858D01*
X191607971Y-84521857D01*
X191575088Y-84478813D01*
X191540639Y-84464850D01*
X191502421Y-84461047D01*
X191494528Y-84456818D01*
X191491880Y-84449405D01*
X191491880Y-84272337D01*
X191495307Y-84264064D01*
X191503580Y-84260637D01*
X191504190Y-84260652D01*
G37*
%TD.AperFunction*%
%TD*%
%TA.AperFunction,Conductor*%
%TO.N,D4*%
G36*
X156630171Y-131292791D02*
G01*
X156756138Y-131418758D01*
X156759565Y-131427031D01*
X156756565Y-131434854D01*
X156673204Y-131527551D01*
X156583173Y-131647402D01*
X156495335Y-131783474D01*
X156495335Y-131783475D01*
X156405856Y-131942838D01*
X156405853Y-131942844D01*
X156321450Y-132114993D01*
X156321447Y-132115001D01*
X156173606Y-132485462D01*
X156066740Y-132853443D01*
X156005289Y-133188987D01*
X155987245Y-133460951D01*
X155983278Y-133468979D01*
X155974796Y-133471850D01*
X155971103Y-133470989D01*
X154989949Y-133065562D01*
X154983613Y-133059238D01*
X154578343Y-132078464D01*
X154578350Y-132069510D01*
X154584688Y-132063184D01*
X154588671Y-132062307D01*
X154744072Y-132055867D01*
X154918369Y-132035945D01*
X155096982Y-132004307D01*
X155289967Y-131958798D01*
X155482585Y-131902469D01*
X155674803Y-131835618D01*
X155860979Y-131760354D01*
X156190488Y-131597601D01*
X156190493Y-131597597D01*
X156190495Y-131597597D01*
X156300195Y-131527555D01*
X156445760Y-131434615D01*
X156614346Y-131292127D01*
X156622876Y-131289405D01*
X156630171Y-131292791D01*
G37*
%TD.AperFunction*%
%TD*%
%TA.AperFunction,Conductor*%
%TO.N,D4*%
G36*
X157570321Y-130159849D02*
G01*
X157571112Y-130160330D01*
X157806634Y-130316591D01*
X157811633Y-130324017D01*
X157811646Y-130324087D01*
X157811647Y-130324088D01*
X157866138Y-130602051D01*
X157864367Y-130610829D01*
X157856908Y-130615783D01*
X157856222Y-130615897D01*
X157705580Y-130636235D01*
X157705263Y-130636273D01*
X157641300Y-130643133D01*
X157546532Y-130671679D01*
X157488320Y-130709256D01*
X157488318Y-130709258D01*
X157428355Y-130763077D01*
X157419909Y-130766053D01*
X157412267Y-130762643D01*
X157286578Y-130636954D01*
X157283151Y-130628681D01*
X157286196Y-130620807D01*
X157348404Y-130552463D01*
X157393984Y-130488163D01*
X157447683Y-130372982D01*
X157472211Y-130312847D01*
X157472787Y-130311643D01*
X157554417Y-130164407D01*
X157561424Y-130158835D01*
X157570321Y-130159849D01*
G37*
%TD.AperFunction*%
%TD*%
%TA.AperFunction,Conductor*%
%TO.N,D3*%
G36*
X161343504Y-131292791D02*
G01*
X161469471Y-131418758D01*
X161472898Y-131427031D01*
X161469898Y-131434854D01*
X161386537Y-131527551D01*
X161296506Y-131647402D01*
X161208668Y-131783474D01*
X161208668Y-131783475D01*
X161119189Y-131942838D01*
X161119186Y-131942844D01*
X161034783Y-132114993D01*
X161034780Y-132115001D01*
X160886939Y-132485462D01*
X160780073Y-132853443D01*
X160718622Y-133188987D01*
X160700578Y-133460951D01*
X160696611Y-133468979D01*
X160688129Y-133471850D01*
X160684436Y-133470989D01*
X159703282Y-133065562D01*
X159696946Y-133059238D01*
X159291676Y-132078464D01*
X159291683Y-132069510D01*
X159298021Y-132063184D01*
X159302004Y-132062307D01*
X159457405Y-132055867D01*
X159631702Y-132035945D01*
X159810315Y-132004307D01*
X160003300Y-131958798D01*
X160195918Y-131902469D01*
X160388136Y-131835618D01*
X160574312Y-131760354D01*
X160903821Y-131597601D01*
X160903826Y-131597597D01*
X160903828Y-131597597D01*
X161013528Y-131527555D01*
X161159093Y-131434615D01*
X161327679Y-131292127D01*
X161336209Y-131289405D01*
X161343504Y-131292791D01*
G37*
%TD.AperFunction*%
%TD*%
%TA.AperFunction,Conductor*%
%TO.N,D3*%
G36*
X162370312Y-129999817D02*
G01*
X162370813Y-130000132D01*
X162608734Y-130157984D01*
X162612015Y-130161265D01*
X162769828Y-130399127D01*
X162771547Y-130407915D01*
X162766547Y-130415344D01*
X162765990Y-130415692D01*
X162701907Y-130453204D01*
X162700531Y-130453892D01*
X162636456Y-130480836D01*
X162634673Y-130481423D01*
X162523924Y-130508221D01*
X162523453Y-130508325D01*
X162489052Y-130515162D01*
X162473594Y-130518234D01*
X162473591Y-130518234D01*
X162473591Y-130518235D01*
X162373158Y-130555772D01*
X162318168Y-130592415D01*
X162265019Y-130639796D01*
X162256563Y-130642743D01*
X162248960Y-130639335D01*
X162123072Y-130513447D01*
X162119645Y-130505174D01*
X162122519Y-130497493D01*
X162181741Y-130429462D01*
X162221743Y-130362918D01*
X162244409Y-130301670D01*
X162258763Y-130241408D01*
X162258832Y-130241141D01*
X162289083Y-130130404D01*
X162289664Y-130128769D01*
X162317078Y-130066814D01*
X162317703Y-130065601D01*
X162354283Y-130003912D01*
X162361448Y-129998545D01*
X162370312Y-129999817D01*
G37*
%TD.AperFunction*%
%TD*%
%TA.AperFunction,Conductor*%
%TO.N,D2*%
G36*
X166056837Y-131292791D02*
G01*
X166182804Y-131418758D01*
X166186231Y-131427031D01*
X166183231Y-131434854D01*
X166099870Y-131527551D01*
X166009839Y-131647402D01*
X165922001Y-131783474D01*
X165922001Y-131783475D01*
X165832522Y-131942838D01*
X165832519Y-131942844D01*
X165748116Y-132114993D01*
X165748113Y-132115001D01*
X165600272Y-132485462D01*
X165493406Y-132853443D01*
X165431955Y-133188987D01*
X165413911Y-133460951D01*
X165409944Y-133468979D01*
X165401462Y-133471850D01*
X165397769Y-133470989D01*
X164416615Y-133065562D01*
X164410279Y-133059238D01*
X164005009Y-132078464D01*
X164005016Y-132069510D01*
X164011354Y-132063184D01*
X164015337Y-132062307D01*
X164170738Y-132055867D01*
X164345035Y-132035945D01*
X164523648Y-132004307D01*
X164716633Y-131958798D01*
X164909251Y-131902469D01*
X165101469Y-131835618D01*
X165287645Y-131760354D01*
X165617154Y-131597601D01*
X165617159Y-131597597D01*
X165617161Y-131597597D01*
X165726861Y-131527555D01*
X165872426Y-131434615D01*
X166041012Y-131292127D01*
X166049542Y-131289405D01*
X166056837Y-131292791D01*
G37*
%TD.AperFunction*%
%TD*%
%TA.AperFunction,Conductor*%
%TO.N,D2*%
G36*
X167080312Y-129999818D02*
G01*
X167080817Y-130000135D01*
X167318734Y-130157984D01*
X167322015Y-130161265D01*
X167479835Y-130399138D01*
X167481554Y-130407926D01*
X167476554Y-130415355D01*
X167476007Y-130415697D01*
X167412153Y-130453160D01*
X167410803Y-130453839D01*
X167346963Y-130480933D01*
X167345212Y-130481518D01*
X167235031Y-130508882D01*
X167234560Y-130508989D01*
X167186167Y-130518906D01*
X167186165Y-130518907D01*
X167085385Y-130556863D01*
X167085382Y-130556865D01*
X167030178Y-130593736D01*
X166976685Y-130641457D01*
X166968230Y-130644407D01*
X166960623Y-130640999D01*
X166834730Y-130515106D01*
X166831303Y-130506833D01*
X166834169Y-130499162D01*
X166893317Y-130431083D01*
X166933096Y-130364404D01*
X166955439Y-130302977D01*
X166969390Y-130242593D01*
X166969484Y-130242219D01*
X166991690Y-130159293D01*
X166999614Y-130129702D01*
X167000203Y-130128027D01*
X167027392Y-130066352D01*
X167028017Y-130065139D01*
X167064284Y-130003919D01*
X167071448Y-129998549D01*
X167080312Y-129999818D01*
G37*
%TD.AperFunction*%
%TD*%
%TA.AperFunction,Conductor*%
%TO.N,DW*%
G36*
X145748809Y-131107335D02*
G01*
X145873409Y-131231935D01*
X145876836Y-131240208D01*
X145876665Y-131242200D01*
X145867370Y-131295997D01*
X145867187Y-131369201D01*
X145867187Y-131369210D01*
X145878228Y-131448850D01*
X145878229Y-131448854D01*
X145933074Y-131617598D01*
X146022732Y-131772753D01*
X146022735Y-131772756D01*
X146135811Y-131898273D01*
X146264616Y-131988967D01*
X146405852Y-132044116D01*
X146535693Y-132060074D01*
X146543487Y-132064485D01*
X146545879Y-132073114D01*
X146542539Y-132079960D01*
X145567625Y-133054874D01*
X145559352Y-133058301D01*
X145551079Y-133054874D01*
X145550566Y-133054326D01*
X144696058Y-132080026D01*
X144693180Y-132071547D01*
X144697140Y-132063516D01*
X144703653Y-132060674D01*
X144783067Y-132052476D01*
X144869840Y-132028541D01*
X144956867Y-131992343D01*
X145056896Y-131936986D01*
X145154938Y-131869321D01*
X145261360Y-131781198D01*
X145361903Y-131683453D01*
X145458662Y-131574574D01*
X145545051Y-131462253D01*
X145672196Y-131254564D01*
X145729677Y-131111252D01*
X145735937Y-131104850D01*
X145744891Y-131104749D01*
X145748809Y-131107335D01*
G37*
%TD.AperFunction*%
%TD*%
%TA.AperFunction,Conductor*%
%TO.N,DW*%
G36*
X145946563Y-130626068D02*
G01*
X145947051Y-130626374D01*
X146138460Y-130753367D01*
X146184984Y-130784234D01*
X146188265Y-130787515D01*
X146346094Y-131025401D01*
X146347813Y-131034189D01*
X146342813Y-131041618D01*
X146342278Y-131041953D01*
X146278709Y-131079356D01*
X146277391Y-131080023D01*
X146213855Y-131107297D01*
X146212146Y-131107879D01*
X146102674Y-131135947D01*
X146102204Y-131136058D01*
X146071953Y-131142496D01*
X146055670Y-131145962D01*
X146055667Y-131145962D01*
X146055667Y-131145963D01*
X145954443Y-131184455D01*
X145898955Y-131221624D01*
X145845020Y-131269783D01*
X145836566Y-131272737D01*
X145828954Y-131269329D01*
X145703055Y-131143430D01*
X145699628Y-131135157D01*
X145702485Y-131127496D01*
X145761544Y-131059352D01*
X145801047Y-130992504D01*
X145822986Y-130930853D01*
X145836454Y-130870224D01*
X145836536Y-130869888D01*
X145866507Y-130755104D01*
X145867107Y-130753375D01*
X145894011Y-130692069D01*
X145894655Y-130690817D01*
X145930537Y-130630178D01*
X145937698Y-130624804D01*
X145946563Y-130626068D01*
G37*
%TD.AperFunction*%
%TD*%
%TA.AperFunction,Conductor*%
%TO.N,SMS*%
G36*
X174772084Y-118745077D02*
G01*
X174779525Y-118750057D01*
X174781267Y-118758841D01*
X174781106Y-118759534D01*
X174754092Y-118861992D01*
X174753655Y-118863321D01*
X174712288Y-118967651D01*
X174711754Y-118968810D01*
X174661032Y-119064688D01*
X174660468Y-119065642D01*
X174602501Y-119153866D01*
X174601755Y-119154878D01*
X174471536Y-119313017D01*
X174470896Y-119313732D01*
X174335954Y-119452647D01*
X174335955Y-119452648D01*
X174335923Y-119452681D01*
X174193469Y-119601673D01*
X174193468Y-119601675D01*
X174109042Y-119718640D01*
X174109041Y-119718641D01*
X174071422Y-119819124D01*
X174066869Y-119868499D01*
X174072034Y-119919664D01*
X174072034Y-119919665D01*
X174088771Y-119975405D01*
X174088772Y-119975407D01*
X174118114Y-120034008D01*
X174166452Y-120102661D01*
X174225374Y-120167743D01*
X174228386Y-120176174D01*
X174224973Y-120183867D01*
X174099852Y-120308988D01*
X174091579Y-120312415D01*
X174083306Y-120308988D01*
X174083153Y-120308833D01*
X173842110Y-120058633D01*
X173841633Y-120058106D01*
X173771125Y-119975407D01*
X173673286Y-119860651D01*
X173672707Y-119859911D01*
X173545155Y-119682484D01*
X173544791Y-119681947D01*
X173418038Y-119483253D01*
X173159466Y-119081603D01*
X173157869Y-119072792D01*
X173162792Y-119065549D01*
X173896827Y-118573925D01*
X173905605Y-118572169D01*
X174772084Y-118745077D01*
G37*
%TD.AperFunction*%
%TD*%
%TA.AperFunction,Conductor*%
%TO.N,SMS*%
G36*
X174807164Y-126821881D02*
G01*
X174810581Y-126829680D01*
X174811589Y-126854551D01*
X174811590Y-126854564D01*
X174811591Y-126854565D01*
X174824183Y-126939546D01*
X174835716Y-126980539D01*
X174847250Y-127021534D01*
X174847252Y-127021537D01*
X174883640Y-127108189D01*
X174883651Y-127108212D01*
X174930120Y-127190321D01*
X174930121Y-127190323D01*
X174930124Y-127190327D01*
X174991557Y-127275300D01*
X174991561Y-127275305D01*
X174991563Y-127275307D01*
X175061679Y-127353532D01*
X175061678Y-127353532D01*
X175106272Y-127394359D01*
X175144341Y-127429212D01*
X175144344Y-127429214D01*
X175144347Y-127429217D01*
X175187629Y-127461859D01*
X175232440Y-127495655D01*
X175416176Y-127598037D01*
X175581192Y-127651562D01*
X175705194Y-127661242D01*
X175712555Y-127664634D01*
X175834623Y-127786702D01*
X175838050Y-127794975D01*
X175834623Y-127803248D01*
X175828145Y-127806536D01*
X175762144Y-127816783D01*
X175762134Y-127816786D01*
X175663078Y-127845585D01*
X175557549Y-127888142D01*
X175557541Y-127888145D01*
X175338173Y-128010380D01*
X175338162Y-128010388D01*
X175142738Y-128161375D01*
X175142731Y-128161382D01*
X174991218Y-128321022D01*
X174887594Y-128477652D01*
X174887593Y-128477655D01*
X174828526Y-128626675D01*
X174812580Y-128745213D01*
X174808080Y-128752955D01*
X174799424Y-128755249D01*
X174792865Y-128752078D01*
X174023246Y-128010380D01*
X173817373Y-127811976D01*
X173813795Y-127803768D01*
X173817068Y-127795433D01*
X173817144Y-127795356D01*
X174790619Y-126821880D01*
X174798891Y-126818454D01*
X174807164Y-126821881D01*
G37*
%TD.AperFunction*%
%TD*%
%TA.AperFunction,Conductor*%
%TO.N,DW*%
G36*
X144574561Y-132655009D02*
G01*
X145555718Y-133060438D01*
X145562053Y-133066761D01*
X145562062Y-133066782D01*
X145967323Y-134047534D01*
X145967316Y-134056489D01*
X145960978Y-134062815D01*
X145956995Y-134063692D01*
X145801593Y-134070133D01*
X145627311Y-134090053D01*
X145627306Y-134090053D01*
X145500769Y-134112467D01*
X145448685Y-134121693D01*
X145315558Y-134153086D01*
X145255703Y-134167201D01*
X145063068Y-134223535D01*
X144870860Y-134290383D01*
X144684687Y-134365646D01*
X144684667Y-134365655D01*
X144355174Y-134528401D01*
X144355171Y-134528402D01*
X144099917Y-134691378D01*
X144099911Y-134691382D01*
X144099907Y-134691385D01*
X144099901Y-134691389D01*
X144099897Y-134691393D01*
X143931320Y-134833871D01*
X143922790Y-134836594D01*
X143915495Y-134833208D01*
X143789528Y-134707241D01*
X143786101Y-134698968D01*
X143789099Y-134691148D01*
X143872465Y-134598445D01*
X143962489Y-134478604D01*
X144050334Y-134342521D01*
X144139817Y-134183149D01*
X144224222Y-134010995D01*
X144372059Y-133640543D01*
X144478928Y-133272549D01*
X144540377Y-132937020D01*
X144558421Y-132665047D01*
X144562388Y-132657020D01*
X144570870Y-132654149D01*
X144574561Y-132655009D01*
G37*
%TD.AperFunction*%
%TD*%
%TA.AperFunction,Conductor*%
%TO.N,DW*%
G36*
X143176795Y-135319920D02*
G01*
X143302694Y-135445819D01*
X143306121Y-135454092D01*
X143303263Y-135461755D01*
X143244203Y-135529899D01*
X143204700Y-135596748D01*
X143182765Y-135658390D01*
X143169303Y-135718987D01*
X143169201Y-135719406D01*
X143139244Y-135834136D01*
X143138638Y-135835882D01*
X143111739Y-135897176D01*
X143111094Y-135898432D01*
X143075213Y-135959070D01*
X143068051Y-135964445D01*
X143059186Y-135963181D01*
X143058688Y-135962868D01*
X142867289Y-135835882D01*
X142820765Y-135805015D01*
X142817484Y-135801734D01*
X142722385Y-135658397D01*
X142659654Y-135563847D01*
X142657936Y-135555060D01*
X142662936Y-135547631D01*
X142663435Y-135547318D01*
X142727049Y-135509888D01*
X142728349Y-135509230D01*
X142791896Y-135481950D01*
X142793602Y-135481369D01*
X142903090Y-135453297D01*
X142903531Y-135453193D01*
X142950079Y-135443287D01*
X143051306Y-135404795D01*
X143106799Y-135367622D01*
X143160730Y-135319465D01*
X143169183Y-135316512D01*
X143176795Y-135319920D01*
G37*
%TD.AperFunction*%
%TD*%
%TA.AperFunction,Conductor*%
%TO.N,CL2*%
G36*
X152268253Y-136849235D02*
G01*
X152336397Y-136908294D01*
X152403246Y-136947797D01*
X152403249Y-136947798D01*
X152403248Y-136947798D01*
X152425536Y-136955729D01*
X152464897Y-136969736D01*
X152525513Y-136983201D01*
X152525875Y-136983289D01*
X152640641Y-137013256D01*
X152642377Y-137013859D01*
X152684391Y-137032297D01*
X152703676Y-137040760D01*
X152704932Y-137041405D01*
X152765570Y-137077286D01*
X152770945Y-137084448D01*
X152769681Y-137093313D01*
X152769361Y-137093823D01*
X152611515Y-137331734D01*
X152608234Y-137335015D01*
X152370348Y-137492844D01*
X152361560Y-137494563D01*
X152354131Y-137489563D01*
X152353808Y-137489047D01*
X152316391Y-137425456D01*
X152315726Y-137424141D01*
X152288451Y-137360604D01*
X152287869Y-137358895D01*
X152259801Y-137249424D01*
X152259690Y-137248953D01*
X152249787Y-137202420D01*
X152211295Y-137101194D01*
X152174122Y-137045701D01*
X152125966Y-136991770D01*
X152123012Y-136983316D01*
X152126419Y-136975705D01*
X152252320Y-136849804D01*
X152260592Y-136846378D01*
X152268253Y-136849235D01*
G37*
%TD.AperFunction*%
%TD*%
%TA.AperFunction,Conductor*%
%TO.N,CL2*%
G36*
X150280399Y-133070567D02*
G01*
X150280502Y-133070669D01*
X151253944Y-134044111D01*
X151257371Y-134052384D01*
X151253944Y-134060657D01*
X151246142Y-134064074D01*
X151221793Y-134065056D01*
X151221789Y-134065056D01*
X151221782Y-134065056D01*
X151221782Y-134065057D01*
X151136384Y-134077665D01*
X151136383Y-134077665D01*
X151136378Y-134077666D01*
X151069347Y-134096453D01*
X151053695Y-134100840D01*
X151053693Y-134100840D01*
X151053692Y-134100841D01*
X151053686Y-134100843D01*
X150965795Y-134137534D01*
X150882181Y-134184455D01*
X150795306Y-134246545D01*
X150795299Y-134246550D01*
X150714976Y-134317477D01*
X150637022Y-134401019D01*
X150637017Y-134401025D01*
X150568198Y-134490124D01*
X150461235Y-134675761D01*
X150403759Y-134842611D01*
X150403757Y-134842621D01*
X150391101Y-134968610D01*
X150387733Y-134975714D01*
X150265842Y-135097605D01*
X150257569Y-135101032D01*
X150249296Y-135097605D01*
X150245984Y-135090969D01*
X150235019Y-135013361D01*
X150206720Y-134913473D01*
X150164897Y-134807322D01*
X150164896Y-134807320D01*
X150045265Y-134588384D01*
X150045264Y-134588383D01*
X150045263Y-134588381D01*
X149897491Y-134394250D01*
X149817441Y-134317477D01*
X149740698Y-134243875D01*
X149586014Y-134140901D01*
X149586011Y-134140900D01*
X149577537Y-134137534D01*
X149437790Y-134082027D01*
X149437787Y-134082026D01*
X149437786Y-134082026D01*
X149319081Y-134066096D01*
X149311337Y-134061599D01*
X149309041Y-134052944D01*
X149312260Y-134046333D01*
X150263856Y-133070771D01*
X150272084Y-133067243D01*
X150280399Y-133070567D01*
G37*
%TD.AperFunction*%
%TD*%
%TA.AperFunction,Conductor*%
%TO.N,D1*%
G36*
X169133529Y-133072183D02*
G01*
X169134861Y-133073775D01*
X169811157Y-134046063D01*
X169813068Y-134054812D01*
X169808233Y-134062349D01*
X169802964Y-134064358D01*
X169731438Y-134073053D01*
X169731435Y-134073053D01*
X169641636Y-134097404D01*
X169518470Y-134146386D01*
X169388273Y-134212292D01*
X169279575Y-134277629D01*
X169225230Y-134310296D01*
X169063156Y-134421781D01*
X168899676Y-134547341D01*
X168899669Y-134547347D01*
X168751718Y-134673297D01*
X168751699Y-134673314D01*
X168564041Y-134859927D01*
X168555758Y-134863331D01*
X168547518Y-134859904D01*
X168421405Y-134733791D01*
X168417978Y-134725518D01*
X168420206Y-134718650D01*
X168437228Y-134695174D01*
X168466045Y-134637681D01*
X168489192Y-134567946D01*
X168508427Y-134426996D01*
X168493721Y-134303603D01*
X168449803Y-134205188D01*
X168377859Y-134131038D01*
X168363810Y-134122806D01*
X168329993Y-134102989D01*
X168273137Y-134081697D01*
X168273126Y-134081694D01*
X168204981Y-134067839D01*
X168204963Y-134067836D01*
X168152083Y-134064590D01*
X168144035Y-134060663D01*
X168141122Y-134052195D01*
X168144526Y-134044640D01*
X169116984Y-133072182D01*
X169125256Y-133068756D01*
X169133529Y-133072183D01*
G37*
%TD.AperFunction*%
%TD*%
%TA.AperFunction,Conductor*%
%TO.N,D1*%
G36*
X167479996Y-134951919D02*
G01*
X167552234Y-134970966D01*
X167553738Y-134971474D01*
X167618242Y-134998281D01*
X167619951Y-134999164D01*
X167717179Y-135060110D01*
X167717574Y-135060368D01*
X167761843Y-135090720D01*
X167761844Y-135090720D01*
X167761848Y-135090723D01*
X167812931Y-135114311D01*
X167858369Y-135135294D01*
X167922565Y-135148287D01*
X167992714Y-135152360D01*
X168000775Y-135156260D01*
X168003736Y-135164040D01*
X168003736Y-135342060D01*
X168000309Y-135350333D01*
X167992821Y-135353734D01*
X167902785Y-135359791D01*
X167827315Y-135378055D01*
X167714596Y-135436353D01*
X167617312Y-135490592D01*
X167615802Y-135491298D01*
X167551853Y-135515809D01*
X167550553Y-135516222D01*
X167479943Y-135534201D01*
X167471080Y-135532922D01*
X167465718Y-135525750D01*
X167465592Y-135525203D01*
X167408969Y-135245318D01*
X167408969Y-135240680D01*
X167426048Y-135156260D01*
X167465568Y-134960915D01*
X167470567Y-134953489D01*
X167479355Y-134951770D01*
X167479996Y-134951919D01*
G37*
%TD.AperFunction*%
%TD*%
%TA.AperFunction,Conductor*%
%TO.N,D2*%
G36*
X164421102Y-133070277D02*
G01*
X164421110Y-133070285D01*
X165394098Y-134044246D01*
X165397521Y-134052521D01*
X165394090Y-134060792D01*
X165386353Y-134064203D01*
X165361292Y-134065343D01*
X165361283Y-134065344D01*
X165279980Y-134078521D01*
X165279974Y-134078522D01*
X165201038Y-134102401D01*
X165201037Y-134102401D01*
X165115946Y-134140515D01*
X165115945Y-134140516D01*
X165034662Y-134189276D01*
X164948255Y-134255098D01*
X164948248Y-134255103D01*
X164867807Y-134330548D01*
X164787184Y-134421920D01*
X164715306Y-134519691D01*
X164715298Y-134519702D01*
X164651496Y-134623841D01*
X164651493Y-134623845D01*
X164598652Y-134728950D01*
X164598649Y-134728957D01*
X164532187Y-134918500D01*
X164514192Y-135052853D01*
X164509698Y-135060598D01*
X164502596Y-135063000D01*
X164323494Y-135063000D01*
X164315221Y-135059573D01*
X164311845Y-135052386D01*
X164306357Y-134993534D01*
X164304100Y-134969311D01*
X164281623Y-134874609D01*
X164246199Y-134773848D01*
X164140807Y-134566953D01*
X164006082Y-134383119D01*
X164006076Y-134383112D01*
X163858664Y-134239537D01*
X163858651Y-134239526D01*
X163708534Y-134139895D01*
X163559858Y-134082002D01*
X163559856Y-134082001D01*
X163436417Y-134066048D01*
X163428652Y-134061589D01*
X163426314Y-134052945D01*
X163429640Y-134046176D01*
X164404556Y-133070285D01*
X164412827Y-133066854D01*
X164421102Y-133070277D01*
G37*
%TD.AperFunction*%
%TD*%
%TA.AperFunction,Conductor*%
%TO.N,D2*%
G36*
X161210543Y-136438986D02*
G01*
X161283552Y-136458564D01*
X161285160Y-136459123D01*
X161349894Y-136487080D01*
X161351714Y-136488065D01*
X161448863Y-136552409D01*
X161449252Y-136552679D01*
X161497430Y-136587473D01*
X161591914Y-136632251D01*
X161654903Y-136645281D01*
X161723231Y-136649345D01*
X161731286Y-136653257D01*
X161734236Y-136661024D01*
X161734236Y-136839014D01*
X161730809Y-136847287D01*
X161723273Y-136850691D01*
X161633041Y-136856383D01*
X161557253Y-136873575D01*
X161443372Y-136928675D01*
X161352012Y-136977005D01*
X161350660Y-136977614D01*
X161284951Y-137002326D01*
X161283698Y-137002719D01*
X161210427Y-137021229D01*
X161201566Y-137019932D01*
X161196217Y-137012751D01*
X161196093Y-137012205D01*
X161168047Y-136873575D01*
X161139469Y-136732318D01*
X161139469Y-136727680D01*
X161196057Y-136447968D01*
X161201057Y-136440541D01*
X161209845Y-136438822D01*
X161210543Y-136438986D01*
G37*
%TD.AperFunction*%
%TD*%
%TA.AperFunction,Conductor*%
%TO.N,D3*%
G36*
X159707769Y-133070277D02*
G01*
X159707777Y-133070285D01*
X160680765Y-134044246D01*
X160684188Y-134052521D01*
X160680757Y-134060792D01*
X160673020Y-134064203D01*
X160647959Y-134065343D01*
X160647950Y-134065344D01*
X160566647Y-134078521D01*
X160566641Y-134078522D01*
X160487705Y-134102401D01*
X160487704Y-134102401D01*
X160402613Y-134140515D01*
X160402612Y-134140516D01*
X160321329Y-134189276D01*
X160234922Y-134255098D01*
X160234915Y-134255103D01*
X160154474Y-134330548D01*
X160073851Y-134421920D01*
X160001973Y-134519691D01*
X160001965Y-134519702D01*
X159938163Y-134623841D01*
X159938160Y-134623845D01*
X159885319Y-134728950D01*
X159885316Y-134728957D01*
X159818854Y-134918500D01*
X159800859Y-135052853D01*
X159796365Y-135060598D01*
X159789263Y-135063000D01*
X159610161Y-135063000D01*
X159601888Y-135059573D01*
X159598512Y-135052386D01*
X159593024Y-134993534D01*
X159590767Y-134969311D01*
X159568290Y-134874609D01*
X159532866Y-134773848D01*
X159427474Y-134566953D01*
X159292749Y-134383119D01*
X159292743Y-134383112D01*
X159145331Y-134239537D01*
X159145318Y-134239526D01*
X158995201Y-134139895D01*
X158846525Y-134082002D01*
X158846523Y-134082001D01*
X158723084Y-134066048D01*
X158715319Y-134061589D01*
X158712981Y-134052945D01*
X158716307Y-134046176D01*
X159691223Y-133070285D01*
X159699494Y-133066854D01*
X159707769Y-133070277D01*
G37*
%TD.AperFunction*%
%TD*%
%TA.AperFunction,Conductor*%
%TO.N,D3*%
G36*
X159796879Y-136882191D02*
G01*
X159800276Y-136889631D01*
X159806699Y-136979572D01*
X159826034Y-137054770D01*
X159826034Y-137054772D01*
X159854118Y-137113886D01*
X159887422Y-137166211D01*
X159887647Y-137166578D01*
X159947614Y-137268930D01*
X159948419Y-137270594D01*
X159972735Y-137332939D01*
X159973168Y-137334283D01*
X159990675Y-137402540D01*
X159989411Y-137411405D01*
X159982249Y-137416780D01*
X159981662Y-137416915D01*
X159701820Y-137473530D01*
X159697180Y-137473530D01*
X159417367Y-137416921D01*
X159409938Y-137411921D01*
X159408219Y-137403133D01*
X159408356Y-137402540D01*
X159426866Y-137331105D01*
X159427314Y-137329737D01*
X159452967Y-137265496D01*
X159453757Y-137263889D01*
X159511352Y-137166578D01*
X159511569Y-137166227D01*
X159537478Y-137126310D01*
X159543057Y-137113886D01*
X159581836Y-137027518D01*
X159581837Y-137027517D01*
X159591316Y-136979574D01*
X159594792Y-136961989D01*
X159598876Y-136889803D01*
X159602764Y-136881737D01*
X159610557Y-136878764D01*
X159788606Y-136878764D01*
X159796879Y-136882191D01*
G37*
%TD.AperFunction*%
%TD*%
%TA.AperFunction,Conductor*%
%TO.N,BRIGHT*%
G36*
X171396879Y-136372191D02*
G01*
X171400276Y-136379631D01*
X171406699Y-136469572D01*
X171426034Y-136544770D01*
X171426034Y-136544772D01*
X171454118Y-136603886D01*
X171487422Y-136656211D01*
X171487647Y-136656578D01*
X171547614Y-136758930D01*
X171548419Y-136760594D01*
X171572735Y-136822939D01*
X171573168Y-136824283D01*
X171590675Y-136892540D01*
X171589411Y-136901405D01*
X171582249Y-136906780D01*
X171581662Y-136906915D01*
X171301820Y-136963530D01*
X171297180Y-136963530D01*
X171017367Y-136906921D01*
X171009938Y-136901921D01*
X171008219Y-136893133D01*
X171008356Y-136892540D01*
X171026866Y-136821105D01*
X171027314Y-136819737D01*
X171052967Y-136755496D01*
X171053757Y-136753889D01*
X171111352Y-136656578D01*
X171111569Y-136656227D01*
X171137478Y-136616310D01*
X171143057Y-136603886D01*
X171181836Y-136517518D01*
X171181837Y-136517517D01*
X171191316Y-136469574D01*
X171194792Y-136451989D01*
X171198876Y-136379803D01*
X171202764Y-136371737D01*
X171210557Y-136368764D01*
X171388606Y-136368764D01*
X171396879Y-136372191D01*
G37*
%TD.AperFunction*%
%TD*%
%TA.AperFunction,Conductor*%
%TO.N,BRIGHT*%
G36*
X172854561Y-132655009D02*
G01*
X173835718Y-133060438D01*
X173842053Y-133066761D01*
X173842062Y-133066782D01*
X174247323Y-134047534D01*
X174247316Y-134056489D01*
X174240978Y-134062815D01*
X174236995Y-134063692D01*
X174081593Y-134070133D01*
X173907311Y-134090053D01*
X173907306Y-134090053D01*
X173780769Y-134112467D01*
X173728685Y-134121693D01*
X173595558Y-134153086D01*
X173535703Y-134167201D01*
X173343068Y-134223535D01*
X173150860Y-134290383D01*
X172964687Y-134365646D01*
X172964667Y-134365655D01*
X172635174Y-134528401D01*
X172635171Y-134528402D01*
X172379917Y-134691378D01*
X172379911Y-134691382D01*
X172379907Y-134691385D01*
X172379901Y-134691389D01*
X172379897Y-134691393D01*
X172211320Y-134833871D01*
X172202790Y-134836594D01*
X172195495Y-134833208D01*
X172069528Y-134707241D01*
X172066101Y-134698968D01*
X172069099Y-134691148D01*
X172152465Y-134598445D01*
X172242489Y-134478604D01*
X172330334Y-134342521D01*
X172419817Y-134183149D01*
X172504222Y-134010995D01*
X172652059Y-133640543D01*
X172758928Y-133272549D01*
X172820377Y-132937020D01*
X172838421Y-132665047D01*
X172842388Y-132657020D01*
X172850870Y-132654149D01*
X172854561Y-132655009D01*
G37*
%TD.AperFunction*%
%TD*%
%TA.AperFunction,Conductor*%
%TO.N,D4*%
G36*
X156757007Y-135553942D02*
G01*
X156763156Y-135560452D01*
X156763694Y-135562315D01*
X156819245Y-135838920D01*
X156817514Y-135847706D01*
X156817481Y-135847756D01*
X156658724Y-136083679D01*
X156651262Y-136088630D01*
X156643510Y-136087470D01*
X156605275Y-136067073D01*
X156525146Y-136024327D01*
X156525143Y-136024326D01*
X156425298Y-135993909D01*
X156399345Y-135987205D01*
X156398026Y-135986780D01*
X156298666Y-135948088D01*
X156296387Y-135946896D01*
X156242864Y-135910934D01*
X156241588Y-135909942D01*
X156188443Y-135862392D01*
X156184562Y-135854322D01*
X156187525Y-135845872D01*
X156187953Y-135845418D01*
X156313686Y-135719685D01*
X156321958Y-135716259D01*
X156328692Y-135718391D01*
X156385674Y-135758512D01*
X156441028Y-135760667D01*
X156441028Y-135760666D01*
X156441029Y-135760667D01*
X156492227Y-135731502D01*
X156492226Y-135731502D01*
X156492231Y-135731500D01*
X156544804Y-135683322D01*
X156574521Y-135654849D01*
X156575490Y-135654018D01*
X156663665Y-135586372D01*
X156666609Y-135584728D01*
X156748058Y-135553686D01*
X156757007Y-135553942D01*
G37*
%TD.AperFunction*%
%TD*%
%TA.AperFunction,Conductor*%
%TO.N,D4*%
G36*
X154993738Y-133070659D02*
G01*
X154994636Y-133071469D01*
X155967058Y-134043891D01*
X155970485Y-134052164D01*
X155967058Y-134060437D01*
X155959157Y-134063858D01*
X155944305Y-134064331D01*
X155865962Y-134074566D01*
X155865946Y-134074569D01*
X155794301Y-134094085D01*
X155724841Y-134124174D01*
X155724830Y-134124180D01*
X155662785Y-134162577D01*
X155662780Y-134162581D01*
X155602554Y-134213309D01*
X155602545Y-134213318D01*
X155551003Y-134271088D01*
X155550996Y-134271097D01*
X155503480Y-134341837D01*
X155503479Y-134341838D01*
X155466206Y-134417007D01*
X155437405Y-134499484D01*
X155437404Y-134499486D01*
X155419555Y-134581636D01*
X155419554Y-134581644D01*
X155414759Y-134729049D01*
X155414760Y-134729055D01*
X155439443Y-134826708D01*
X155438148Y-134835569D01*
X155436373Y-134837848D01*
X155310770Y-134963451D01*
X155302497Y-134966878D01*
X155294224Y-134963451D01*
X155292195Y-134960724D01*
X155245045Y-134873137D01*
X155221296Y-134837848D01*
X155171204Y-134763414D01*
X155171199Y-134763408D01*
X155080654Y-134648656D01*
X154871755Y-134430730D01*
X154871746Y-134430722D01*
X154660677Y-134259014D01*
X154660673Y-134259011D01*
X154660668Y-134259007D01*
X154470510Y-134144318D01*
X154470509Y-134144317D01*
X154470508Y-134144317D01*
X154470502Y-134144314D01*
X154308437Y-134081978D01*
X154308434Y-134081977D01*
X154193525Y-134065875D01*
X154185808Y-134061333D01*
X154183562Y-134052664D01*
X154186065Y-134046914D01*
X154977281Y-133072365D01*
X154985155Y-133068105D01*
X154993738Y-133070659D01*
G37*
%TD.AperFunction*%
%TD*%
%TA.AperFunction,Conductor*%
%TO.N,GND*%
G36*
X149133736Y-126201527D02*
G01*
X149103740Y-126404473D01*
X149104790Y-126551687D01*
X149109500Y-126737236D01*
X148609500Y-126737236D01*
X148601362Y-126501692D01*
X148568484Y-126315248D01*
X148545264Y-126201527D01*
X148839500Y-126142000D01*
X149133736Y-126201527D01*
G37*
%TD.AperFunction*%
%TD*%
%TA.AperFunction,Conductor*%
%TO.N,GND*%
G36*
X146765357Y-127332667D02*
G01*
X146912133Y-127472544D01*
X147109191Y-127613559D01*
X146943227Y-127863707D01*
X146693079Y-128029671D01*
X146552064Y-127832613D01*
X146412187Y-127685837D01*
X146345556Y-127619589D01*
X146699109Y-127266036D01*
X146765357Y-127332667D01*
G37*
%TD.AperFunction*%
%TD*%
%TA.AperFunction,Conductor*%
%TO.N,GND*%
G36*
X150861470Y-127863000D02*
G01*
X150801943Y-128157236D01*
X150562890Y-128117608D01*
X150360197Y-128112729D01*
X150266234Y-128113000D01*
X150266234Y-127613000D01*
X150360190Y-127613271D01*
X150562888Y-127608392D01*
X150801943Y-127568764D01*
X150861470Y-127863000D01*
G37*
%TD.AperFunction*%
%TD*%
%TA.AperFunction,Conductor*%
%TO.N,GND*%
G36*
X151457434Y-127619589D02*
G01*
X151390804Y-127685835D01*
X151250926Y-127832612D01*
X151109911Y-128029671D01*
X150859763Y-127863707D01*
X150693799Y-127613559D01*
X150890856Y-127472544D01*
X151037632Y-127332668D01*
X151103881Y-127266036D01*
X151457434Y-127619589D01*
G37*
%TD.AperFunction*%
%TD*%
%TA.AperFunction,Conductor*%
%TO.N,GND*%
G36*
X147240102Y-127608392D02*
G01*
X147442800Y-127613271D01*
X147536756Y-127613000D01*
X147536756Y-128113000D01*
X147442793Y-128112729D01*
X147240100Y-128117608D01*
X147001047Y-128157236D01*
X146941520Y-127863000D01*
X147001047Y-127568764D01*
X147240102Y-127608392D01*
G37*
%TD.AperFunction*%
%TD*%
%TA.AperFunction,Conductor*%
%TO.N,+5V*%
G36*
X165158035Y-123575275D02*
G01*
X165731186Y-123959008D01*
X165889702Y-124065137D01*
X165894670Y-124072587D01*
X165892915Y-124081368D01*
X165892630Y-124081773D01*
X165778683Y-124237034D01*
X165727249Y-124307117D01*
X165726742Y-124307759D01*
X165577579Y-124483731D01*
X165577491Y-124483834D01*
X165516940Y-124553610D01*
X165516930Y-124553622D01*
X165396819Y-124710662D01*
X165396815Y-124710669D01*
X165320439Y-124861803D01*
X165292139Y-124952187D01*
X165292135Y-124952203D01*
X165271097Y-125056257D01*
X165256477Y-125192606D01*
X165256476Y-125192619D01*
X165251876Y-125343284D01*
X165248198Y-125351449D01*
X165240181Y-125354627D01*
X165062856Y-125354627D01*
X165054583Y-125351200D01*
X165051162Y-125343307D01*
X165045986Y-125183895D01*
X165029612Y-125041633D01*
X165002793Y-124922446D01*
X164965916Y-124820938D01*
X164919366Y-124731715D01*
X164863529Y-124649381D01*
X164783712Y-124553605D01*
X164725583Y-124483853D01*
X164595514Y-124331432D01*
X164595013Y-124330802D01*
X164577711Y-124307451D01*
X164410512Y-124081792D01*
X164408340Y-124073105D01*
X164412948Y-124065426D01*
X164413376Y-124065124D01*
X165145022Y-123575276D01*
X165153802Y-123573522D01*
X165158035Y-123575275D01*
G37*
%TD.AperFunction*%
%TD*%
%TA.AperFunction,Conductor*%
%TO.N,+5V*%
G36*
X165249003Y-125756427D02*
G01*
X165252393Y-125763765D01*
X165258010Y-125833809D01*
X165258011Y-125833815D01*
X165278392Y-125929159D01*
X165278398Y-125929178D01*
X165311834Y-126031644D01*
X165413102Y-126243052D01*
X165542912Y-126430406D01*
X165542916Y-126430410D01*
X165542917Y-126430411D01*
X165542920Y-126430415D01*
X165607672Y-126496947D01*
X165684430Y-126575816D01*
X165684432Y-126575817D01*
X165827874Y-126676043D01*
X165827875Y-126676043D01*
X165827876Y-126676044D01*
X165969482Y-126734002D01*
X165969485Y-126734003D01*
X166081684Y-126749226D01*
X166086121Y-126749828D01*
X166093858Y-126754336D01*
X166096142Y-126762995D01*
X166092825Y-126769691D01*
X165117864Y-127745626D01*
X165109593Y-127749057D01*
X165101318Y-127745634D01*
X165101223Y-127745539D01*
X164148422Y-126771520D01*
X164145087Y-126763209D01*
X164148604Y-126754974D01*
X164156177Y-126751654D01*
X164192147Y-126749784D01*
X164275524Y-126735326D01*
X164275533Y-126735323D01*
X164275538Y-126735322D01*
X164356435Y-126710194D01*
X164356434Y-126710194D01*
X164356445Y-126710191D01*
X164443412Y-126670827D01*
X164526455Y-126620912D01*
X164614225Y-126554273D01*
X164695859Y-126478238D01*
X164777059Y-126387080D01*
X164849384Y-126289792D01*
X164878367Y-126243055D01*
X164913140Y-126186979D01*
X164913139Y-126186979D01*
X164913145Y-126186971D01*
X164965930Y-126083277D01*
X165032173Y-125896502D01*
X165050163Y-125763136D01*
X165054665Y-125755395D01*
X165061758Y-125753000D01*
X165240730Y-125753000D01*
X165249003Y-125756427D01*
G37*
%TD.AperFunction*%
%TD*%
M02*
