;TYPE=PLATED
;Layer: PTH_Through_Via
;EasyEDA Pro v2.2.45.4, 2025-12-23 22:45:37
;Gerber Generator version 0.3
M48
METRIC,LZ,0000.00000
;Hole size 1 = 0.30000 METRIC
T01C0.30000
;Hole size 2 = 0.50000 METRIC
T02C0.50000
;Hole size 3 = 0.60000 METRIC
T03C0.60000
%
G05
G90
T01
X177.11Y-86.41
X179.69Y-127.803
X179.23Y-90.43
X147.635Y-135.365
X152.145Y-135.915
X180.38Y-90.14
X162.37Y-135.11
X179.21Y-88.53
X166.22Y-131.82
X197.03199Y-127.55199
X162.87056Y-88.94
X118.16Y-127.37
X160.09Y-121.81
X169.7Y-69.66
X145.54Y-125.37
X195.47Y-103.12
X215.06Y-86.38
X180.59Y-89.14
X117.1Y-105.96
X175.88Y-101.17
X147.19Y-137.11
X131.49Y-83.87
X151.78Y-120.83
X119.64Y-121.7
X187.13Y-86.36
X170.41Y-57.73
X202.85Y-89.97
X186.7Y-137.06
X201.36Y-118.25
X198.99Y-100.08
X208.15Y-94.63
X175.82Y-95.39
X193.96315Y-123.01315
X119.17Y-101.11
X178.59Y-108.61
X201.36Y-110.24
X200.12Y-64.11
X119.17Y-112.16
X157.16Y-133.19
X176.25Y-87.59
X161.6Y-82.1
X148.97Y-121.86
X182.94Y-91.75
X161.71Y-132.69
X155.48Y-93.21
X182.8Y-82.35
X178.35Y-95.41
X206.02Y-87.89
X197.28897Y-107.2243
X175.47927Y-89.19074
X200.58Y-88.29
X156.67Y-120.81
X158.72Y-107.91
X149.65Y-139.48
X134.58056Y-86.13
X131.51Y-137.44
X131.82Y-94.13
X129.79Y-88.12
X198.88091Y-105.90236
X159.56Y-90.33
X202.61Y-93.65
X183.87Y-127.04
X177.64Y-131.85
X148.41Y-132.18
X145.06Y-120.87
X158.66Y-98.07
X117.1Y-116.83
X119.17Y-93.62
X214.98Y-94.19
X195.5415Y-93.27
X198.02Y-66.0
X172.11Y-135.45
X167.8Y-128.85
X194.01Y-67.98
X198.90782Y-120.194
X141.24Y-129.54
X209.24013Y-90.27615
X178.06Y-85.34
X201.32Y-103.21
X129.82Y-121.95
X175.57Y-139.42
X175.61Y-108.6
X128.42292Y-97.64917
X186.96Y-124.603
X123.26Y-128.88
X189.56Y-128.84
X199.15Y-93.35
X119.82Y-130.94
X133.85Y-120.79
X158.64Y-93.22
X179.8Y-84.1
X194.78Y-86.36
X117.46Y-88.36
X155.94Y-139.34
X159.76056Y-74.99
X197.24043Y-119.54221
X177.82Y-126.36
X158.86Y-137.07
X189.51Y-126.71
X197.5Y-70.58
X167.77Y-120.83
X163.52Y-137.07
X214.05Y-89.46
X181.83573Y-83.24427
X169.55Y-78.87
X155.78Y-90.06
X175.91Y-129.15
X138.51Y-83.06
X148.62Y-97.87
X178.08Y-91.75
X189.08Y-88.32
X184.29Y-128.94
X195.44Y-116.08
X164.25Y-75.23
X176.12Y-91.75
X159.47Y-83.97
X171.21Y-126.79
X156.29Y-128.82
X171.28Y-121.81
X201.31Y-96.8
X189.4Y-134.69
X138.3Y-139.38
X143.87Y-137.06
X179.74Y-135.26
X150.95Y-137.2
X166.46Y-139.4
X174.0Y-67.74
X148.87Y-125.18
X178.44Y-101.14
X199.15Y-112.47
X182.14Y-90.46
X153.34Y-131.27
X185.1Y-82.17
X153.61Y-137.15
X185.23Y-84.67
X171.69Y-65.96
X194.45Y-83.84
X200.11Y-68.27
X166.98Y-133.6
X173.96Y-72.38
X170.67Y-75.69
X137.97Y-121.44
X192.61Y-64.02
X160.34Y-127.47
X125.56Y-133.61
X128.33Y-93.3
X124.93Y-120.8
X138.72Y-96.60006
X159.51056Y-78.28
X178.08Y-87.69
X197.29794Y-97.24394
X189.27Y-131.83
X136.47602Y-88.08398
X194.03Y-88.32
X167.54Y-76.75
X209.91Y-92.43
X120.61Y-138.98
X155.95Y-100.03
X162.94Y-120.82
X152.51Y-125.39
X155.62Y-107.95
X139.71Y-133.78
X161.62Y-86.03
X117.1Y-96.88
X166.29Y-135.91
X179.55Y-87.61
X176.61Y-83.919
X205.22Y-91.31
X175.74Y-84.71
X203.31Y-91.91
X181.38Y-82.46
X133.71Y-83.63
X157.63056Y-95.53
T02
X137.79Y-126.63
T03
X151.02Y-127.8
X146.78Y-127.76
M30