;TYPE=PLATED
;Layer: PTH_Through
;EasyEDA Pro v2.2.45.4, 2026-01-24 22:56:51
;Gerber Generator version 0.3
M48
METRIC,LZ,0000.00000
;Hole size 1 = 0.30000 METRIC
T01C0.30000
;Hole size 2 = 0.50000 METRIC
T02C0.50000
;Hole size 3 = 0.60000 METRIC
T03C0.60000
;Hole size 4 = 0.70000 METRIC
T04C0.70000
;Hole size 5 = 1.00000 METRIC
T05C1.00000
;Hole size 6 = 1.20000 METRIC
T06C1.20000
%
G05
G90
T01
X177.13Y-94.25
X178.36Y-127.803
X183.47Y-128.43
X180.23Y-88.67
X148.28Y-133.32
X152.54Y-132.98
X179.34Y-88.15
X160.9Y-133.75
X178.34Y-87.72
X197.06699Y-127.51698
X161.83Y-89.2
X118.16Y-127.37
X160.09Y-121.81
X155.62Y-99.64
X146.29Y-132.93
X168.14056Y-71.33
X145.54Y-125.37
X195.47Y-103.12
X177.15Y-91.01
X175.6Y-100.49
X146.11Y-137.18
X151.78Y-120.83
X182.89Y-88.52
X158.84Y-99.56
X182.04Y-128.48
X203.88Y-89.91
X188.22Y-85.7
X175.07Y-85.68
X188.72Y-133.78
X179.025Y-85.505
X201.38Y-118.28
X206.65Y-94.63
X175.82Y-95.39
X201.38Y-110.3
X157.01Y-134.89
X148.97Y-121.86
X184.45Y-90.91
X155.55Y-93.02
X178.35Y-95.41
X205.07Y-88.04
X197.23Y-108.81
X200.65Y-87.9
X132.43Y-94.8
X156.67Y-120.81
X149.65Y-139.48
X131.51Y-137.44
X128.42Y-94.8
X155.0Y-137.26
X159.08Y-90.12
X202.06Y-93.45
X145.06Y-120.87
X158.58Y-96.78
X168.14056Y-67.18
X195.23Y-95.0
X172.11Y-135.45
X191.8Y-74.27
X179.9Y-127.48
X194.82074Y-83.36927
X206.41Y-90.36
X201.38Y-103.2
X161.21Y-135.05
X129.82Y-121.95
X175.57Y-139.42
X186.96Y-124.603
X119.82Y-130.94
X133.85Y-120.79
X158.74Y-92.98
X117.25612Y-87.43295
X140.25Y-134.91
X155.94Y-139.34
X197.33Y-118.6205
X177.82Y-126.36
X158.86Y-137.07
X189.49Y-126.6
X193.7Y-74.125
X167.77Y-120.83
X167.1Y-137.3
X194.56Y-87.91
X165.62Y-78.9
X166.4Y-135.1
X155.78Y-90.06
X140.25Y-137.31
X195.44Y-116.08
X197.23Y-93.0
X165.78Y-74.67
X158.47Y-83.97
X171.21Y-126.79
X171.28Y-121.81
X201.38Y-97.37
X138.3Y-139.38
X152.86Y-134.77
X143.87Y-137.06
X150.95Y-137.2
X166.46Y-139.4
X172.69026Y-67.22
X148.87Y-125.18
X178.81Y-100.41
X184.965Y-82.035
X144.53Y-134.85
X148.66Y-134.87
X170.48Y-67.16
X172.67Y-73.92
X170.31Y-72.15
X137.97Y-121.44
X160.34Y-127.47
X125.56Y-133.61
X150.58Y-132.44
X124.93Y-120.8
X158.13Y-78.59
X197.28Y-98.33
X165.54Y-76.75
X207.39Y-92.28
X123.86Y-138.69
X162.94Y-120.82
X152.51Y-125.39
X139.83Y-132.53
X160.62Y-86.03
X165.09Y-134.12
X177.47Y-87.2
X185.86Y-85.08
X205.22Y-91.31
X187.185Y-85.485
X203.31Y-91.91
X173.75Y-85.63
X193.17Y-83.68
X176.28Y-85.75
X122.28Y-129.38
X186.33Y-130.96
X183.14Y-85.87
X187.2Y-130.11
X192.51Y-130.11
X184.34Y-129.01
X185.16426Y-129.499
X157.63056Y-94.53
T02
X137.79Y-126.63
T03
X151.02Y-127.8
X146.78Y-127.76
T04
X142.58Y-142.55G85X142.58Y-141.85
X146.18Y-142.55G85X146.18Y-141.85
X163.2Y-142.553G85X163.2Y-141.853
X161.4Y-142.56G85X161.4Y-141.86
X152.44Y-142.56G85X152.44Y-141.86
X144.38Y-142.55G85X144.38Y-141.85
T05
X171.64056Y-61.07
X171.64056Y-63.07
T06
X177.14Y-107.25
X130.09247Y-92.15
X212.65Y-87.57
X211.65Y-90.28
X196.24Y-68.81
X157.13056Y-105.09
X160.98056Y-76.05
X142.65144Y-123.57192
X194.01Y-66.57
X173.90157Y-118.57193
X214.16Y-82.07
X212.65Y-93.08
X155.15155Y-123.57192
X165.15153Y-123.57192
X141.40151Y-118.57193
M30