G04 Layer: BottomSilkscreenLayer*
G04 EasyEDA Pro v2.2.45.4, 2025-12-23 22:45:37*
G04 Gerber Generator version 0.3*
G04 Scale: 100 percent, Rotated: No, Reflected: No*
G04 Dimensions in millimeters*
G04 Leading zeros omitted, absolute positions, 4 integers and 5 decimals*
G04 Generated by one-click*
%FSLAX45Y45*%
%MOMM*%
%ADD10C,0.3*%
%ADD11C,0.52*%
%ADD12C,0.2*%
%ADD13C,0.5*%
%ADD14C,0.15*%
%ADD15C,0.4*%
%ADD16C,0.1509*%
%ADD17C,0.153*%
G75*


G04 Text Start*
G54D10*
G01X11879694Y-13732172D02*
G01X11885028Y-13721504D01*
G01X11901030Y-13716170D01*
G01X11911444Y-13716170D01*
G01X11927446Y-13721504D01*
G01X11938114Y-13737506D01*
G01X11943448Y-13764176D01*
G01X11943448Y-13790592D01*
G01X11938114Y-13811928D01*
G01X11927446Y-13822596D01*
G01X11911444Y-13827930D01*
G01X11906364Y-13827930D01*
G01X11890362Y-13822596D01*
G01X11879694Y-13811928D01*
G01X11874360Y-13795926D01*
G01X11874360Y-13790592D01*
G01X11879694Y-13774590D01*
G01X11890362Y-13764176D01*
G01X11906364Y-13758842D01*
G01X11911444Y-13758842D01*
G01X11927446Y-13764176D01*
G01X11938114Y-13774590D01*
G01X11943448Y-13790592D01*
G01X11792318Y-13716170D02*
G01X11808320Y-13721504D01*
G01X11813654Y-13732172D01*
G01X11813654Y-13742840D01*
G01X11808320Y-13753508D01*
G01X11797652Y-13758842D01*
G01X11776316Y-13764176D01*
G01X11760314Y-13769256D01*
G01X11749900Y-13779924D01*
G01X11744566Y-13790592D01*
G01X11744566Y-13806594D01*
G01X11749900Y-13817262D01*
G01X11755234Y-13822596D01*
G01X11770982Y-13827930D01*
G01X11792318Y-13827930D01*
G01X11808320Y-13822596D01*
G01X11813654Y-13817262D01*
G01X11818734Y-13806594D01*
G01X11818734Y-13790592D01*
G01X11813654Y-13779924D01*
G01X11802986Y-13769256D01*
G01X11786984Y-13764176D01*
G01X11765648Y-13758842D01*
G01X11755234Y-13753508D01*
G01X11749900Y-13742840D01*
G01X11749900Y-13732172D01*
G01X11755234Y-13721504D01*
G01X11770982Y-13716170D01*
G01X11792318Y-13716170D01*
G54D11*
G01X13631225Y-12992257D02*
G01X13644433Y-12979303D01*
G01X13663737Y-12972699D01*
G01X13689899Y-12972699D01*
G01X13709203Y-12979303D01*
G01X13722411Y-12992257D01*
G01X13722411Y-13005211D01*
G01X13715807Y-13018165D01*
G01X13709203Y-13024769D01*
G01X13696249Y-13031119D01*
G01X13657387Y-13044327D01*
G01X13644433Y-13050677D01*
G01X13637829Y-13057281D01*
G01X13631225Y-13070235D01*
G01X13631225Y-13089793D01*
G01X13644433Y-13102747D01*
G01X13663737Y-13109351D01*
G01X13689899Y-13109351D01*
G01X13709203Y-13102747D01*
G01X13722411Y-13089793D01*
G01X13450631Y-13005211D02*
G01X13456981Y-12992257D01*
G01X13469935Y-12979303D01*
G01X13483143Y-12972699D01*
G01X13509051Y-12972699D01*
G01X13522005Y-12979303D01*
G01X13534959Y-12992257D01*
G01X13541563Y-13005211D01*
G01X13547913Y-13024769D01*
G01X13547913Y-13057281D01*
G01X13541563Y-13076839D01*
G01X13534959Y-13089793D01*
G01X13522005Y-13102747D01*
G01X13509051Y-13109351D01*
G01X13483143Y-13109351D01*
G01X13469935Y-13102747D01*
G01X13456981Y-13089793D01*
G01X13450631Y-13076839D01*
G01X13367319Y-12972699D02*
G01X13367319Y-13109351D01*
G01X13367319Y-12972699D02*
G01X13308899Y-12972699D01*
G01X13289341Y-12979303D01*
G01X13282991Y-12985653D01*
G01X13276387Y-12998607D01*
G01X13276387Y-13011815D01*
G01X13282991Y-13024769D01*
G01X13289341Y-13031119D01*
G01X13308899Y-13037723D01*
G01X13367319Y-13037723D01*
G01X13321853Y-13037723D02*
G01X13276387Y-13109351D01*
G01X13193075Y-12972699D02*
G01X13193075Y-13109351D01*
G01X13193075Y-12972699D02*
G01X13108747Y-12972699D01*
G01X13193075Y-13037723D02*
G01X13141259Y-13037723D01*
G01X13193075Y-13109351D02*
G01X13108747Y-13109351D01*
G01X13025435Y-12972699D02*
G01X13025435Y-13109351D01*
G01X13025435Y-12972699D02*
G01X12941107Y-12972699D01*
G01X13025435Y-13037723D02*
G01X12973619Y-13037723D01*
G01X13025435Y-13109351D02*
G01X12941107Y-13109351D01*
G01X12857795Y-12972699D02*
G01X12857795Y-13109351D01*
G01X12857795Y-12972699D02*
G01X12766863Y-13109351D01*
G01X12766863Y-12972699D02*
G01X12766863Y-13109351D01*
G01X13722411Y-13232795D02*
G01X13722411Y-13369193D01*
G01X13722411Y-13232795D02*
G01X13637829Y-13232795D01*
G01X13722411Y-13297819D02*
G01X13670341Y-13297819D01*
G01X13554517Y-13232795D02*
G01X13554517Y-13369193D01*
G01X13554517Y-13232795D02*
G01X13496097Y-13232795D01*
G01X13476539Y-13239145D01*
G01X13470189Y-13245749D01*
G01X13463585Y-13258703D01*
G01X13463585Y-13271657D01*
G01X13470189Y-13284611D01*
G01X13476539Y-13291215D01*
G01X13496097Y-13297819D01*
G01X13554517Y-13297819D01*
G01X13509051Y-13297819D02*
G01X13463585Y-13369193D01*
G01X13341411Y-13232795D02*
G01X13354365Y-13239145D01*
G01X13367319Y-13252099D01*
G01X13373923Y-13265307D01*
G01X13380273Y-13284611D01*
G01X13380273Y-13317123D01*
G01X13373923Y-13336681D01*
G01X13367319Y-13349635D01*
G01X13354365Y-13362843D01*
G01X13341411Y-13369193D01*
G01X13315503Y-13369193D01*
G01X13302295Y-13362843D01*
G01X13289341Y-13349635D01*
G01X13282991Y-13336681D01*
G01X13276387Y-13317123D01*
G01X13276387Y-13284611D01*
G01X13282991Y-13265307D01*
G01X13289341Y-13252099D01*
G01X13302295Y-13239145D01*
G01X13315503Y-13232795D01*
G01X13341411Y-13232795D01*
G01X13193075Y-13232795D02*
G01X13193075Y-13369193D01*
G01X13193075Y-13232795D02*
G01X13102143Y-13369193D01*
G01X13102143Y-13232795D02*
G01X13102143Y-13369193D01*
G01X12973365Y-13232795D02*
G01X12973365Y-13369193D01*
G01X13018831Y-13232795D02*
G01X12927899Y-13232795D01*
G54D12*
G01X12954293Y-8270484D02*
G01X12946165Y-8266420D01*
G01X12933973Y-8254228D01*
G01X12933973Y-8339572D01*
G54D10*
G01X18377929Y-13719170D02*
G01X18377929Y-13830930D01*
G01X18377929Y-13830930D02*
G01X18314175Y-13830930D01*
G01X18179047Y-13745840D02*
G01X18184381Y-13735172D01*
G01X18195049Y-13724504D01*
G01X18205463Y-13719170D01*
G01X18226799Y-13719170D01*
G01X18237467Y-13724504D01*
G01X18248135Y-13735172D01*
G01X18253469Y-13745840D01*
G01X18258549Y-13761842D01*
G01X18258549Y-13788258D01*
G01X18253469Y-13804260D01*
G01X18248135Y-13814928D01*
G01X18237467Y-13825596D01*
G01X18226799Y-13830930D01*
G01X18205463Y-13830930D01*
G01X18195049Y-13825596D01*
G01X18184381Y-13814928D01*
G01X18179047Y-13804260D01*
G01X18123421Y-13719170D02*
G01X18123421Y-13830930D01*
G01X18123421Y-13719170D02*
G01X18086337Y-13719170D01*
G01X18070335Y-13724504D01*
G01X18059921Y-13735172D01*
G01X18054587Y-13745840D01*
G01X18049253Y-13761842D01*
G01X18049253Y-13788258D01*
G01X18054587Y-13804260D01*
G01X18059921Y-13814928D01*
G01X18070335Y-13825596D01*
G01X18086337Y-13830930D01*
G01X18123421Y-13830930D01*
G01X17874755Y-13740506D02*
G01X17864087Y-13735172D01*
G01X17848085Y-13719170D01*
G01X17848085Y-13830930D01*
G54D13*
G01X19947313Y-12091193D02*
G01X19717697Y-12091193D01*
G01X19947313Y-12091193D02*
G01X19947313Y-11992641D01*
G01X19936391Y-11959875D01*
G01X19925469Y-11948953D01*
G01X19903625Y-11938031D01*
G01X19870859Y-11938031D01*
G01X19849015Y-11948953D01*
G01X19838093Y-11959875D01*
G01X19826917Y-11992641D01*
G01X19826917Y-12091193D01*
G01X19947313Y-11835415D02*
G01X19717697Y-11835415D01*
G01X19892703Y-11568969D02*
G01X19914547Y-11579891D01*
G01X19936391Y-11601735D01*
G01X19947313Y-11623579D01*
G01X19947313Y-11667267D01*
G01X19936391Y-11689111D01*
G01X19914547Y-11710955D01*
G01X19892703Y-11721877D01*
G01X19859937Y-11732799D01*
G01X19805073Y-11732799D01*
G01X19772307Y-11721877D01*
G01X19750463Y-11710955D01*
G01X19728619Y-11689111D01*
G01X19717697Y-11667267D01*
G01X19717697Y-11623579D01*
G01X19728619Y-11601735D01*
G01X19750463Y-11579891D01*
G01X19772307Y-11568969D01*
G01X19947313Y-11400821D02*
G01X19936391Y-11422665D01*
G01X19914547Y-11444509D01*
G01X19892703Y-11455431D01*
G01X19859937Y-11466353D01*
G01X19805073Y-11466353D01*
G01X19772307Y-11455431D01*
G01X19750463Y-11444509D01*
G01X19728619Y-11422665D01*
G01X19717697Y-11400821D01*
G01X19717697Y-11357133D01*
G01X19728619Y-11335289D01*
G01X19750463Y-11313445D01*
G01X19772307Y-11302523D01*
G01X19805073Y-11291347D01*
G01X19859937Y-11291347D01*
G01X19892703Y-11302523D01*
G01X19914547Y-11313445D01*
G01X19936391Y-11335289D01*
G01X19947313Y-11357133D01*
G01X19947313Y-11400821D01*
G01X19892703Y-10779791D02*
G01X19914547Y-10790713D01*
G01X19936391Y-10812557D01*
G01X19947313Y-10834401D01*
G01X19947313Y-10878343D01*
G01X19936391Y-10900187D01*
G01X19914547Y-10922031D01*
G01X19892703Y-10932953D01*
G01X19859937Y-10943875D01*
G01X19805073Y-10943875D01*
G01X19772307Y-10932953D01*
G01X19750463Y-10922031D01*
G01X19728619Y-10900187D01*
G01X19717697Y-10878343D01*
G01X19717697Y-10834401D01*
G01X19728619Y-10812557D01*
G01X19750463Y-10790713D01*
G01X19772307Y-10779791D01*
G01X19805073Y-10779791D01*
G01X19805073Y-10834401D02*
G01X19805073Y-10779791D01*
G01X19892703Y-10513345D02*
G01X19914547Y-10524267D01*
G01X19936391Y-10546111D01*
G01X19947313Y-10567955D01*
G01X19947313Y-10611643D01*
G01X19936391Y-10633487D01*
G01X19914547Y-10655331D01*
G01X19892703Y-10666253D01*
G01X19859937Y-10677175D01*
G01X19805073Y-10677175D01*
G01X19772307Y-10666253D01*
G01X19750463Y-10655331D01*
G01X19728619Y-10633487D01*
G01X19717697Y-10611643D01*
G01X19717697Y-10567955D01*
G01X19728619Y-10546111D01*
G01X19750463Y-10524267D01*
G01X19772307Y-10513345D01*
G01X19805073Y-10513345D01*
G01X19805073Y-10567955D02*
G01X19805073Y-10513345D01*
G01X19947313Y-10165873D02*
G01X19717697Y-10165873D01*
G01X19717697Y-10165873D02*
G01X19717697Y-10034555D01*
G01X19892703Y-9768109D02*
G01X19914547Y-9779031D01*
G01X19936391Y-9800875D01*
G01X19947313Y-9822719D01*
G01X19947313Y-9866407D01*
G01X19936391Y-9888251D01*
G01X19914547Y-9910095D01*
G01X19892703Y-9921017D01*
G01X19859937Y-9931939D01*
G01X19805073Y-9931939D01*
G01X19772307Y-9921017D01*
G01X19750463Y-9910095D01*
G01X19728619Y-9888251D01*
G01X19717697Y-9866407D01*
G01X19717697Y-9822719D01*
G01X19728619Y-9800875D01*
G01X19750463Y-9779031D01*
G01X19772307Y-9768109D01*
G01X19947313Y-9665493D02*
G01X19717697Y-9665493D01*
G01X19947313Y-9665493D02*
G01X19947313Y-9589039D01*
G01X19936391Y-9556273D01*
G01X19914547Y-9534429D01*
G01X19892703Y-9523507D01*
G01X19859937Y-9512585D01*
G01X19805073Y-9512585D01*
G01X19772307Y-9523507D01*
G01X19750463Y-9534429D01*
G01X19728619Y-9556273D01*
G01X19717697Y-9589039D01*
G01X19717697Y-9665493D01*
G54D12*
G01X13270687Y-8501302D02*
G01X13282879Y-8505366D01*
G01X13286943Y-8513494D01*
G01X13286943Y-8521622D01*
G01X13282879Y-8529750D01*
G01X13274751Y-8533814D01*
G01X13258495Y-8537878D01*
G01X13246303Y-8541942D01*
G01X13238175Y-8550070D01*
G01X13234111Y-8558198D01*
G01X13234111Y-8570390D01*
G01X13238175Y-8578518D01*
G01X13242239Y-8582582D01*
G01X13254431Y-8586646D01*
G01X13270687Y-8586646D01*
G01X13282879Y-8582582D01*
G01X13286943Y-8578518D01*
G01X13291007Y-8570390D01*
G01X13291007Y-8558198D01*
G01X13286943Y-8550070D01*
G01X13278815Y-8541942D01*
G01X13266623Y-8537878D01*
G01X13250367Y-8533814D01*
G01X13242239Y-8529750D01*
G01X13238175Y-8521622D01*
G01X13238175Y-8513494D01*
G01X13242239Y-8505366D01*
G01X13254431Y-8501302D01*
G01X13270687Y-8501302D01*
G01X13103555Y-8501302D02*
G01X13103555Y-8586646D01*
G01X13103555Y-8501302D02*
G01X13066979Y-8501302D01*
G01X13054787Y-8505366D01*
G01X13050723Y-8509430D01*
G01X13046659Y-8517558D01*
G01X13046659Y-8529750D01*
G01X13050723Y-8537878D01*
G01X13054787Y-8541942D01*
G01X13066979Y-8546006D01*
G01X13103555Y-8546006D01*
G01X13007035Y-8501302D02*
G01X13002971Y-8505366D01*
G01X12999161Y-8501302D01*
G01X13002971Y-8497238D01*
G01X13007035Y-8501302D01*
G01X13002971Y-8529750D02*
G01X13002971Y-8586646D01*
G01X12959537Y-8529750D02*
G01X12959537Y-8586646D01*
G01X12959537Y-8546006D02*
G01X12947599Y-8533814D01*
G01X12939471Y-8529750D01*
G01X12927279Y-8529750D01*
G01X12919151Y-8533814D01*
G01X12915087Y-8546006D01*
G01X12915087Y-8586646D01*
G01X21048138Y-8765102D02*
G01X21048138Y-8850446D01*
G01X21048138Y-8765102D02*
G01X21011562Y-8765102D01*
G01X20999370Y-8769166D01*
G01X20995306Y-8773230D01*
G01X20991242Y-8781358D01*
G01X20991242Y-8789486D01*
G01X20995306Y-8797614D01*
G01X20999370Y-8801678D01*
G01X21011562Y-8805742D01*
G01X21048138Y-8805742D01*
G01X21019690Y-8805742D02*
G01X20991242Y-8850446D01*
G01X20951618Y-8765102D02*
G01X20951618Y-8850446D01*
G01X20851288Y-8785422D02*
G01X20855352Y-8777294D01*
G01X20863480Y-8769166D01*
G01X20871608Y-8765102D01*
G01X20887864Y-8765102D01*
G01X20895992Y-8769166D01*
G01X20904120Y-8777294D01*
G01X20907930Y-8785422D01*
G01X20911994Y-8797614D01*
G01X20911994Y-8817934D01*
G01X20907930Y-8830126D01*
G01X20904120Y-8838254D01*
G01X20895992Y-8846382D01*
G01X20887864Y-8850446D01*
G01X20871608Y-8850446D01*
G01X20863480Y-8846382D01*
G01X20855352Y-8838254D01*
G01X20851288Y-8830126D01*
G01X20851288Y-8817934D01*
G01X20871608Y-8817934D02*
G01X20851288Y-8817934D01*
G01X20811664Y-8765102D02*
G01X20811664Y-8850446D01*
G01X20755022Y-8765102D02*
G01X20755022Y-8850446D01*
G01X20811664Y-8805742D02*
G01X20755022Y-8805742D01*
G01X20687204Y-8765102D02*
G01X20687204Y-8850446D01*
G01X20715398Y-8765102D02*
G01X20658756Y-8765102D01*
G01X20532137Y-8765102D02*
G01X20532137Y-8850446D01*
G01X20532137Y-8765102D02*
G01X20499625Y-8850446D01*
G01X20467113Y-8765102D02*
G01X20499625Y-8850446D01*
G01X20467113Y-8765102D02*
G01X20467113Y-8850446D01*
G01X20427489Y-8781358D02*
G01X20419615Y-8777294D01*
G01X20407423Y-8765102D01*
G01X20407423Y-8850446D01*
G01X20363735Y-8785422D02*
G01X20363735Y-8781358D01*
G01X20359925Y-8773230D01*
G01X20355861Y-8769166D01*
G01X20347733Y-8765102D01*
G01X20331477Y-8765102D01*
G01X20323349Y-8769166D01*
G01X20319285Y-8773230D01*
G01X20315221Y-8781358D01*
G01X20315221Y-8789486D01*
G01X20319285Y-8797614D01*
G01X20327413Y-8809806D01*
G01X20367799Y-8850446D01*
G01X20311157Y-8850446D01*
G01X20969384Y-9040120D02*
G01X20969384Y-9125464D01*
G01X20969384Y-9125464D02*
G01X20920616Y-9125464D01*
G01X20880992Y-9040120D02*
G01X20880992Y-9125464D01*
G01X20880992Y-9040120D02*
G01X20828414Y-9040120D01*
G01X20880992Y-9080760D02*
G01X20848734Y-9080760D01*
G01X20880992Y-9125464D02*
G01X20828414Y-9125464D01*
G01X20788790Y-9040120D02*
G01X20788790Y-9125464D01*
G01X20788790Y-9040120D02*
G01X20736212Y-9040120D01*
G01X20788790Y-9080760D02*
G01X20756532Y-9080760D01*
G01X20668394Y-9040120D02*
G01X20668394Y-9125464D01*
G01X20696588Y-9040120D02*
G01X20639946Y-9040120D01*
G01X20445700Y-9040366D02*
G01X20445700Y-9125710D01*
G01X20445700Y-9040366D02*
G01X20413188Y-9125710D01*
G01X20380676Y-9040366D02*
G01X20413188Y-9125710D01*
G01X20380676Y-9040366D02*
G01X20380676Y-9125710D01*
G01X20341052Y-9056622D02*
G01X20333178Y-9052558D01*
G01X20320986Y-9040366D01*
G01X20320986Y-9125710D01*
G01X20273488Y-9040366D02*
G01X20228784Y-9040366D01*
G01X20253168Y-9072878D01*
G01X20240976Y-9072878D01*
G01X20232848Y-9076942D01*
G01X20228784Y-9081006D01*
G01X20224720Y-9093198D01*
G01X20224720Y-9101326D01*
G01X20228784Y-9113518D01*
G01X20236912Y-9121646D01*
G01X20249104Y-9125710D01*
G01X20261296Y-9125710D01*
G01X20273488Y-9121646D01*
G01X20277298Y-9117582D01*
G01X20281362Y-9109454D01*
G01X16033769Y-13526622D02*
G01X16037833Y-13518494D01*
G01X16045961Y-13510366D01*
G01X16054089Y-13506302D01*
G01X16070345Y-13506302D01*
G01X16078473Y-13510366D01*
G01X16086601Y-13518494D01*
G01X16090665Y-13526622D01*
G01X16094729Y-13538814D01*
G01X16094729Y-13559134D01*
G01X16090665Y-13571326D01*
G01X16086601Y-13579454D01*
G01X16078473Y-13587582D01*
G01X16070345Y-13591646D01*
G01X16054089Y-13591646D01*
G01X16045961Y-13587582D01*
G01X16037833Y-13579454D01*
G01X16033769Y-13571326D01*
G01X15994145Y-13506302D02*
G01X15994145Y-13591646D01*
G01X15994145Y-13591646D02*
G01X15945631Y-13591646D01*
G01X15901943Y-13526622D02*
G01X15901943Y-13522558D01*
G01X15898133Y-13514430D01*
G01X15894069Y-13510366D01*
G01X15885941Y-13506302D01*
G01X15869685Y-13506302D01*
G01X15861557Y-13510366D01*
G01X15857493Y-13514430D01*
G01X15853429Y-13522558D01*
G01X15853429Y-13530686D01*
G01X15857493Y-13538814D01*
G01X15865621Y-13551006D01*
G01X15906007Y-13591646D01*
G01X15849365Y-13591646D01*
G01X14127820Y-13863302D02*
G01X14127820Y-13948646D01*
G01X14127820Y-13863302D02*
G01X14099372Y-13863302D01*
G01X14087180Y-13867366D01*
G01X14079052Y-13875494D01*
G01X14074988Y-13883622D01*
G01X14070924Y-13895814D01*
G01X14070924Y-13916134D01*
G01X14074988Y-13928326D01*
G01X14079052Y-13936454D01*
G01X14087180Y-13944582D01*
G01X14099372Y-13948646D01*
G01X14127820Y-13948646D01*
G01X14031300Y-13863302D02*
G01X14011234Y-13948646D01*
G01X13990914Y-13863302D02*
G01X14011234Y-13948646D01*
G01X13990914Y-13863302D02*
G01X13970594Y-13948646D01*
G01X13950274Y-13863302D02*
G01X13970594Y-13948646D01*
G01X19820431Y-6809302D02*
G01X19820431Y-6894646D01*
G01X19820431Y-6894646D02*
G01X19771663Y-6894646D01*
G01X19607857Y-6975302D02*
G01X19607857Y-7060646D01*
G01X19607857Y-6975302D02*
G01X19575345Y-7060646D01*
G01X19542833Y-6975302D02*
G01X19575345Y-7060646D01*
G01X19542833Y-6975302D02*
G01X19542833Y-7060646D01*
G01X19462823Y-6975302D02*
G01X19503209Y-7032198D01*
G01X19442503Y-7032198D01*
G01X19462823Y-6975302D02*
G01X19462823Y-7060646D01*
G01X19398815Y-6995622D02*
G01X19398815Y-6991558D01*
G01X19395005Y-6983430D01*
G01X19390941Y-6979366D01*
G01X19382813Y-6975302D01*
G01X19366557Y-6975302D01*
G01X19358429Y-6979366D01*
G01X19354365Y-6983430D01*
G01X19350301Y-6991558D01*
G01X19350301Y-6999686D01*
G01X19354365Y-7007814D01*
G01X19362493Y-7020006D01*
G01X19402879Y-7060646D01*
G01X19346237Y-7060646D01*
G01X16993660Y-13506302D02*
G01X16993660Y-13591646D01*
G01X16993660Y-13506302D02*
G01X16965212Y-13506302D01*
G01X16953020Y-13510366D01*
G01X16944892Y-13518494D01*
G01X16940828Y-13526622D01*
G01X16936764Y-13538814D01*
G01X16936764Y-13559134D01*
G01X16940828Y-13571326D01*
G01X16944892Y-13579454D01*
G01X16953020Y-13587582D01*
G01X16965212Y-13591646D01*
G01X16993660Y-13591646D01*
G01X16856754Y-13506302D02*
G01X16897140Y-13563198D01*
G01X16836434Y-13563198D01*
G01X16856754Y-13506302D02*
G01X16856754Y-13591646D01*
G01X16519628Y-13506302D02*
G01X16519628Y-13591646D01*
G01X16519628Y-13506302D02*
G01X16491180Y-13506302D01*
G01X16478988Y-13510366D01*
G01X16470860Y-13518494D01*
G01X16466796Y-13526622D01*
G01X16462732Y-13538814D01*
G01X16462732Y-13559134D01*
G01X16466796Y-13571326D01*
G01X16470860Y-13579454D01*
G01X16478988Y-13587582D01*
G01X16491180Y-13591646D01*
G01X16519628Y-13591646D01*
G01X16415234Y-13506302D02*
G01X16370530Y-13506302D01*
G01X16394914Y-13538814D01*
G01X16382722Y-13538814D01*
G01X16374594Y-13542878D01*
G01X16370530Y-13546942D01*
G01X16366466Y-13559134D01*
G01X16366466Y-13567262D01*
G01X16370530Y-13579454D01*
G01X16378658Y-13587582D01*
G01X16390850Y-13591646D01*
G01X16403042Y-13591646D01*
G01X16415234Y-13587582D01*
G01X16419044Y-13583518D01*
G01X16423108Y-13575390D01*
G01X15779340Y-10108302D02*
G01X15779340Y-10193646D01*
G01X15779340Y-10108302D02*
G01X15742764Y-10108302D01*
G01X15730572Y-10112366D01*
G01X15726508Y-10116430D01*
G01X15722444Y-10124558D01*
G01X15722444Y-10132686D01*
G01X15726508Y-10140814D01*
G01X15730572Y-10144878D01*
G01X15742764Y-10148942D01*
G01X15779340Y-10148942D02*
G01X15742764Y-10148942D01*
G01X15730572Y-10153006D01*
G01X15726508Y-10157070D01*
G01X15722444Y-10165198D01*
G01X15722444Y-10177390D01*
G01X15726508Y-10185518D01*
G01X15730572Y-10189582D01*
G01X15742764Y-10193646D01*
G01X15779340Y-10193646D01*
G01X15682820Y-10124558D02*
G01X15674946Y-10120494D01*
G01X15662754Y-10108302D01*
G01X15662754Y-10193646D01*
G01X15783833Y-10336622D02*
G01X15787897Y-10328494D01*
G01X15796025Y-10320366D01*
G01X15804153Y-10316302D01*
G01X15820409Y-10316302D01*
G01X15828537Y-10320366D01*
G01X15836665Y-10328494D01*
G01X15840729Y-10336622D01*
G01X15844793Y-10348814D01*
G01X15844793Y-10369134D01*
G01X15840729Y-10381326D01*
G01X15836665Y-10389454D01*
G01X15828537Y-10397582D01*
G01X15820409Y-10401646D01*
G01X15804153Y-10401646D01*
G01X15796025Y-10397582D01*
G01X15787897Y-10389454D01*
G01X15783833Y-10381326D01*
G01X15740145Y-10336622D02*
G01X15740145Y-10332558D01*
G01X15736335Y-10324430D01*
G01X15732271Y-10320366D01*
G01X15724143Y-10316302D01*
G01X15707887Y-10316302D01*
G01X15699759Y-10320366D01*
G01X15695695Y-10324430D01*
G01X15691631Y-10332558D01*
G01X15691631Y-10340686D01*
G01X15695695Y-10348814D01*
G01X15703823Y-10361006D01*
G01X15744209Y-10401646D01*
G01X15687567Y-10401646D01*
G01X15627877Y-10316302D02*
G01X15640069Y-10320366D01*
G01X15643879Y-10328494D01*
G01X15643879Y-10336622D01*
G01X15640069Y-10344750D01*
G01X15631941Y-10348814D01*
G01X15615685Y-10352878D01*
G01X15603493Y-10356942D01*
G01X15595365Y-10365070D01*
G01X15591301Y-10373198D01*
G01X15591301Y-10385390D01*
G01X15595365Y-10393518D01*
G01X15599429Y-10397582D01*
G01X15611621Y-10401646D01*
G01X15627877Y-10401646D01*
G01X15640069Y-10397582D01*
G01X15643879Y-10393518D01*
G01X15647943Y-10385390D01*
G01X15647943Y-10373198D01*
G01X15643879Y-10365070D01*
G01X15636005Y-10356942D01*
G01X15623813Y-10352878D01*
G01X15607557Y-10348814D01*
G01X15599429Y-10344750D01*
G01X15595365Y-10336622D01*
G01X15595365Y-10328494D01*
G01X15599429Y-10320366D01*
G01X15611621Y-10316302D01*
G01X15627877Y-10316302D01*
G01X16438195Y-7810494D02*
G01X16446323Y-7802366D01*
G01X16458515Y-7798302D01*
G01X16474771Y-7798302D01*
G01X16486963Y-7802366D01*
G01X16495091Y-7810494D01*
G01X16495091Y-7818622D01*
G01X16491027Y-7826750D01*
G01X16486963Y-7830814D01*
G01X16478835Y-7834878D01*
G01X16454451Y-7843006D01*
G01X16446323Y-7847070D01*
G01X16442259Y-7851134D01*
G01X16438195Y-7859262D01*
G01X16438195Y-7871454D01*
G01X16446323Y-7879582D01*
G01X16458515Y-7883646D01*
G01X16474771Y-7883646D01*
G01X16486963Y-7879582D01*
G01X16495091Y-7871454D01*
G01X16370377Y-7798302D02*
G01X16370377Y-7883646D01*
G01X16398571Y-7798302D02*
G01X16341929Y-7798302D01*
G01X16270047Y-7798302D02*
G01X16302305Y-7883646D01*
G01X16270047Y-7798302D02*
G01X16237535Y-7883646D01*
G01X16290367Y-7855198D02*
G01X16249727Y-7855198D01*
G01X16197911Y-7798302D02*
G01X16197911Y-7883646D01*
G01X16197911Y-7798302D02*
G01X16161589Y-7798302D01*
G01X16149397Y-7802366D01*
G01X16145333Y-7806430D01*
G01X16141269Y-7814558D01*
G01X16141269Y-7822686D01*
G01X16145333Y-7830814D01*
G01X16149397Y-7834878D01*
G01X16161589Y-7838942D01*
G01X16197911Y-7838942D01*
G01X16169717Y-7838942D02*
G01X16141269Y-7883646D01*
G01X16073451Y-7798302D02*
G01X16073451Y-7883646D01*
G01X16101645Y-7798302D02*
G01X16045003Y-7798302D01*
G01X16215833Y-8024622D02*
G01X16219897Y-8016494D01*
G01X16228025Y-8008366D01*
G01X16236153Y-8004302D01*
G01X16252409Y-8004302D01*
G01X16260537Y-8008366D01*
G01X16268665Y-8016494D01*
G01X16272729Y-8024622D01*
G01X16276793Y-8036814D01*
G01X16276793Y-8057134D01*
G01X16272729Y-8069326D01*
G01X16268665Y-8077454D01*
G01X16260537Y-8085582D01*
G01X16252409Y-8089646D01*
G01X16236153Y-8089646D01*
G01X16228025Y-8085582D01*
G01X16219897Y-8077454D01*
G01X16215833Y-8069326D01*
G01X16168335Y-8004302D02*
G01X16123631Y-8004302D01*
G01X16148015Y-8036814D01*
G01X16135823Y-8036814D01*
G01X16127695Y-8040878D01*
G01X16123631Y-8044942D01*
G01X16119567Y-8057134D01*
G01X16119567Y-8065262D01*
G01X16123631Y-8077454D01*
G01X16131759Y-8085582D01*
G01X16143951Y-8089646D01*
G01X16156143Y-8089646D01*
G01X16168335Y-8085582D01*
G01X16172145Y-8081518D01*
G01X16176209Y-8073390D01*
G01X16055813Y-8004302D02*
G01X16068005Y-8008366D01*
G01X16075879Y-8020558D01*
G01X16079943Y-8040878D01*
G01X16079943Y-8053070D01*
G01X16075879Y-8073390D01*
G01X16068005Y-8085582D01*
G01X16055813Y-8089646D01*
G01X16047685Y-8089646D01*
G01X16035493Y-8085582D01*
G01X16027365Y-8073390D01*
G01X16023301Y-8053070D01*
G01X16023301Y-8040878D01*
G01X16027365Y-8020558D01*
G01X16035493Y-8008366D01*
G01X16047685Y-8004302D01*
G01X16055813Y-8004302D01*
G01X14857628Y-13863302D02*
G01X14857628Y-13948646D01*
G01X14857628Y-13863302D02*
G01X14829180Y-13863302D01*
G01X14816988Y-13867366D01*
G01X14808860Y-13875494D01*
G01X14804796Y-13883622D01*
G01X14800732Y-13895814D01*
G01X14800732Y-13916134D01*
G01X14804796Y-13928326D01*
G01X14808860Y-13936454D01*
G01X14816988Y-13944582D01*
G01X14829180Y-13948646D01*
G01X14857628Y-13948646D01*
G01X14757044Y-13883622D02*
G01X14757044Y-13879558D01*
G01X14753234Y-13871430D01*
G01X14749170Y-13867366D01*
G01X14741042Y-13863302D01*
G01X14724786Y-13863302D01*
G01X14716658Y-13867366D01*
G01X14712594Y-13871430D01*
G01X14708530Y-13879558D01*
G01X14708530Y-13887686D01*
G01X14712594Y-13895814D01*
G01X14720722Y-13908006D01*
G01X14761108Y-13948646D01*
G01X14704466Y-13948646D01*
G01X16467660Y-13863302D02*
G01X16467660Y-13948646D01*
G01X16467660Y-13863302D02*
G01X16439212Y-13863302D01*
G01X16427020Y-13867366D01*
G01X16418892Y-13875494D01*
G01X16414828Y-13883622D01*
G01X16410764Y-13895814D01*
G01X16410764Y-13916134D01*
G01X16414828Y-13928326D01*
G01X16418892Y-13936454D01*
G01X16427020Y-13944582D01*
G01X16439212Y-13948646D01*
G01X16467660Y-13948646D01*
G01X16330754Y-13863302D02*
G01X16371140Y-13920198D01*
G01X16310434Y-13920198D01*
G01X16330754Y-13863302D02*
G01X16330754Y-13948646D01*
G01X16086628Y-13863302D02*
G01X16086628Y-13948646D01*
G01X16086628Y-13863302D02*
G01X16058180Y-13863302D01*
G01X16045988Y-13867366D01*
G01X16037860Y-13875494D01*
G01X16033796Y-13883622D01*
G01X16029732Y-13895814D01*
G01X16029732Y-13916134D01*
G01X16033796Y-13928326D01*
G01X16037860Y-13936454D01*
G01X16045988Y-13944582D01*
G01X16058180Y-13948646D01*
G01X16086628Y-13948646D01*
G01X15982234Y-13863302D02*
G01X15937530Y-13863302D01*
G01X15961914Y-13895814D01*
G01X15949722Y-13895814D01*
G01X15941594Y-13899878D01*
G01X15937530Y-13903942D01*
G01X15933466Y-13916134D01*
G01X15933466Y-13924262D01*
G01X15937530Y-13936454D01*
G01X15945658Y-13944582D01*
G01X15957850Y-13948646D01*
G01X15970042Y-13948646D01*
G01X15982234Y-13944582D01*
G01X15986044Y-13940518D01*
G01X15990108Y-13932390D01*
G01X15287216Y-13883622D02*
G01X15291280Y-13875494D01*
G01X15299408Y-13867366D01*
G01X15307536Y-13863302D01*
G01X15323792Y-13863302D01*
G01X15331920Y-13867366D01*
G01X15340048Y-13875494D01*
G01X15344112Y-13883622D01*
G01X15348176Y-13895814D01*
G01X15348176Y-13916134D01*
G01X15344112Y-13928326D01*
G01X15340048Y-13936454D01*
G01X15331920Y-13944582D01*
G01X15323792Y-13948646D01*
G01X15307536Y-13948646D01*
G01X15299408Y-13944582D01*
G01X15291280Y-13936454D01*
G01X15287216Y-13928326D01*
G01X15247592Y-13863302D02*
G01X15247592Y-13948646D01*
G01X15247592Y-13948646D02*
G01X15199078Y-13948646D01*
G01X15155390Y-13883622D02*
G01X15155390Y-13879558D01*
G01X15151580Y-13871430D01*
G01X15147516Y-13867366D01*
G01X15139388Y-13863302D01*
G01X15123132Y-13863302D01*
G01X15115004Y-13867366D01*
G01X15110940Y-13871430D01*
G01X15106876Y-13879558D01*
G01X15106876Y-13887686D01*
G01X15110940Y-13895814D01*
G01X15119068Y-13908006D01*
G01X15159454Y-13948646D01*
G01X15102812Y-13948646D01*
G01X14332833Y-12591622D02*
G01X14336897Y-12583494D01*
G01X14345025Y-12575366D01*
G01X14353153Y-12571302D01*
G01X14369409Y-12571302D01*
G01X14377537Y-12575366D01*
G01X14385665Y-12583494D01*
G01X14389729Y-12591622D01*
G01X14393793Y-12603814D01*
G01X14393793Y-12624134D01*
G01X14389729Y-12636326D01*
G01X14385665Y-12644454D01*
G01X14377537Y-12652582D01*
G01X14369409Y-12656646D01*
G01X14353153Y-12656646D01*
G01X14345025Y-12652582D01*
G01X14336897Y-12644454D01*
G01X14332833Y-12636326D01*
G01X14332833Y-12624134D01*
G01X14353153Y-12624134D02*
G01X14332833Y-12624134D01*
G01X14293209Y-12571302D02*
G01X14293209Y-12656646D01*
G01X14293209Y-12571302D02*
G01X14236567Y-12656646D01*
G01X14236567Y-12571302D02*
G01X14236567Y-12656646D01*
G01X14196943Y-12571302D02*
G01X14196943Y-12656646D01*
G01X14196943Y-12571302D02*
G01X14168749Y-12571302D01*
G01X14156557Y-12575366D01*
G01X14148429Y-12583494D01*
G01X14144365Y-12591622D01*
G01X14140301Y-12603814D01*
G01X14140301Y-12624134D01*
G01X14144365Y-12636326D01*
G01X14148429Y-12644454D01*
G01X14156557Y-12652582D01*
G01X14168749Y-12656646D01*
G01X14196943Y-12656646D01*
G01X19236495Y-6671302D02*
G01X19236495Y-6756646D01*
G01X19236495Y-6671302D02*
G01X19199919Y-6671302D01*
G01X19187727Y-6675366D01*
G01X19183663Y-6679430D01*
G01X19179599Y-6687558D01*
G01X19179599Y-6695686D01*
G01X19183663Y-6703814D01*
G01X19187727Y-6707878D01*
G01X19199919Y-6711942D01*
G01X19236495Y-6711942D01*
G01X19208047Y-6711942D02*
G01X19179599Y-6756646D01*
G01X19878569Y-6417302D02*
G01X19878569Y-6502646D01*
G01X19878569Y-6417302D02*
G01X19846057Y-6502646D01*
G01X19813545Y-6417302D02*
G01X19846057Y-6502646D01*
G01X19813545Y-6417302D02*
G01X19813545Y-6502646D01*
G01X19733535Y-6417302D02*
G01X19773921Y-6474198D01*
G01X19713215Y-6474198D01*
G01X19733535Y-6417302D02*
G01X19733535Y-6502646D01*
G01X19673591Y-6433558D02*
G01X19665717Y-6429494D01*
G01X19653525Y-6417302D01*
G01X19653525Y-6502646D01*
G01X17454929Y-13005494D02*
G01X17463057Y-12997366D01*
G01X17475249Y-12993302D01*
G01X17491505Y-12993302D01*
G01X17503697Y-12997366D01*
G01X17511825Y-13005494D01*
G01X17511825Y-13013622D01*
G01X17507761Y-13021750D01*
G01X17503697Y-13025814D01*
G01X17495569Y-13029878D01*
G01X17471185Y-13038006D01*
G01X17463057Y-13042070D01*
G01X17458993Y-13046134D01*
G01X17454929Y-13054262D01*
G01X17454929Y-13066454D01*
G01X17463057Y-13074582D01*
G01X17475249Y-13078646D01*
G01X17491505Y-13078646D01*
G01X17503697Y-13074582D01*
G01X17511825Y-13066454D01*
G01X17415305Y-12993302D02*
G01X17415305Y-13078646D01*
G01X17415305Y-12993302D02*
G01X17383047Y-13078646D01*
G01X17350535Y-12993302D02*
G01X17383047Y-13078646D01*
G01X17350535Y-12993302D02*
G01X17350535Y-13078646D01*
G01X17254269Y-13005494D02*
G01X17262397Y-12997366D01*
G01X17274589Y-12993302D01*
G01X17290845Y-12993302D01*
G01X17303037Y-12997366D01*
G01X17310911Y-13005494D01*
G01X17310911Y-13013622D01*
G01X17306847Y-13021750D01*
G01X17303037Y-13025814D01*
G01X17294909Y-13029878D01*
G01X17270525Y-13038006D01*
G01X17262397Y-13042070D01*
G01X17258333Y-13046134D01*
G01X17254269Y-13054262D01*
G01X17254269Y-13066454D01*
G01X17262397Y-13074582D01*
G01X17274589Y-13078646D01*
G01X17290845Y-13078646D01*
G01X17303037Y-13074582D01*
G01X17310911Y-13066454D01*
G01X17478929Y-12099494D02*
G01X17487057Y-12091366D01*
G01X17499249Y-12087302D01*
G01X17515505Y-12087302D01*
G01X17527697Y-12091366D01*
G01X17535825Y-12099494D01*
G01X17535825Y-12107622D01*
G01X17531761Y-12115750D01*
G01X17527697Y-12119814D01*
G01X17519569Y-12123878D01*
G01X17495185Y-12132006D01*
G01X17487057Y-12136070D01*
G01X17482993Y-12140134D01*
G01X17478929Y-12148262D01*
G01X17478929Y-12160454D01*
G01X17487057Y-12168582D01*
G01X17499249Y-12172646D01*
G01X17515505Y-12172646D01*
G01X17527697Y-12168582D01*
G01X17535825Y-12160454D01*
G01X17439305Y-12087302D02*
G01X17439305Y-12172646D01*
G01X17439305Y-12087302D02*
G01X17407047Y-12172646D01*
G01X17374535Y-12087302D02*
G01X17407047Y-12172646D01*
G01X17374535Y-12087302D02*
G01X17374535Y-12172646D01*
G01X17278269Y-12099494D02*
G01X17286397Y-12091366D01*
G01X17298589Y-12087302D01*
G01X17314845Y-12087302D01*
G01X17327037Y-12091366D01*
G01X17334911Y-12099494D01*
G01X17334911Y-12107622D01*
G01X17330847Y-12115750D01*
G01X17327037Y-12119814D01*
G01X17318909Y-12123878D01*
G01X17294525Y-12132006D01*
G01X17286397Y-12136070D01*
G01X17282333Y-12140134D01*
G01X17278269Y-12148262D01*
G01X17278269Y-12160454D01*
G01X17286397Y-12168582D01*
G01X17298589Y-12172646D01*
G01X17314845Y-12172646D01*
G01X17327037Y-12168582D01*
G01X17334911Y-12160454D01*
G01X21528628Y-8395302D02*
G01X21528628Y-8456262D01*
G01X21524564Y-8468454D01*
G01X21516436Y-8476582D01*
G01X21504244Y-8480646D01*
G01X21496116Y-8480646D01*
G01X21483924Y-8476582D01*
G01X21475796Y-8468454D01*
G01X21471732Y-8456262D01*
G01X21471732Y-8395302D01*
G01X21432108Y-8395302D02*
G01X21432108Y-8480646D01*
G01X21432108Y-8395302D02*
G01X21395786Y-8395302D01*
G01X21383594Y-8399366D01*
G01X21379530Y-8403430D01*
G01X21375466Y-8411558D01*
G01X21375466Y-8423750D01*
G01X21379530Y-8431878D01*
G01X21383594Y-8435942D01*
G01X21395786Y-8440006D01*
G01X21432108Y-8440006D01*
G01X21357637Y-8473002D02*
G01X21357637Y-8558346D01*
G01X21357637Y-8473002D02*
G01X21325125Y-8558346D01*
G01X21292613Y-8473002D02*
G01X21325125Y-8558346D01*
G01X21292613Y-8473002D02*
G01X21292613Y-8558346D01*
G01X21252989Y-8489258D02*
G01X21245115Y-8485194D01*
G01X21232923Y-8473002D01*
G01X21232923Y-8558346D01*
G01X21169169Y-8473002D02*
G01X21181361Y-8477066D01*
G01X21189235Y-8489258D01*
G01X21193299Y-8509578D01*
G01X21193299Y-8521770D01*
G01X21189235Y-8542090D01*
G01X21181361Y-8554282D01*
G01X21169169Y-8558346D01*
G01X21161041Y-8558346D01*
G01X21148849Y-8554282D01*
G01X21140721Y-8542090D01*
G01X21136657Y-8521770D01*
G01X21136657Y-8509578D01*
G01X21140721Y-8489258D01*
G01X21148849Y-8477066D01*
G01X21161041Y-8473002D01*
G01X21169169Y-8473002D01*
G01X21049550Y-9304448D02*
G01X21049550Y-9389792D01*
G01X21049550Y-9304448D02*
G01X21021102Y-9304448D01*
G01X21008910Y-9308512D01*
G01X21000782Y-9316640D01*
G01X20996718Y-9324768D01*
G01X20992654Y-9336960D01*
G01X20992654Y-9357280D01*
G01X20996718Y-9369472D01*
G01X21000782Y-9377600D01*
G01X21008910Y-9385728D01*
G01X21021102Y-9389792D01*
G01X21049550Y-9389792D01*
G01X20928900Y-9304448D02*
G01X20937028Y-9308512D01*
G01X20945156Y-9316640D01*
G01X20948966Y-9324768D01*
G01X20953030Y-9336960D01*
G01X20953030Y-9357280D01*
G01X20948966Y-9369472D01*
G01X20945156Y-9377600D01*
G01X20937028Y-9385728D01*
G01X20928900Y-9389792D01*
G01X20912644Y-9389792D01*
G01X20904516Y-9385728D01*
G01X20896388Y-9377600D01*
G01X20892324Y-9369472D01*
G01X20888260Y-9357280D01*
G01X20888260Y-9336960D01*
G01X20892324Y-9324768D01*
G01X20896388Y-9316640D01*
G01X20904516Y-9308512D01*
G01X20912644Y-9304448D01*
G01X20928900Y-9304448D01*
G01X20848636Y-9304448D02*
G01X20828570Y-9389792D01*
G01X20808250Y-9304448D02*
G01X20828570Y-9389792D01*
G01X20808250Y-9304448D02*
G01X20787930Y-9389792D01*
G01X20767610Y-9304448D02*
G01X20787930Y-9389792D01*
G01X20727986Y-9304448D02*
G01X20727986Y-9389792D01*
G01X20727986Y-9304448D02*
G01X20671344Y-9389792D01*
G01X20671344Y-9304448D02*
G01X20671344Y-9389792D01*
G01X20556822Y-9308593D02*
G01X20556822Y-9393937D01*
G01X20556822Y-9308593D02*
G01X20524310Y-9393937D01*
G01X20491798Y-9308593D02*
G01X20524310Y-9393937D01*
G01X20491798Y-9308593D02*
G01X20491798Y-9393937D01*
G01X20452174Y-9324849D02*
G01X20444300Y-9320785D01*
G01X20432108Y-9308593D01*
G01X20432108Y-9393937D01*
G01X20392484Y-9324849D02*
G01X20384610Y-9320785D01*
G01X20372418Y-9308593D01*
G01X20372418Y-9393937D01*
G01X15577833Y-12584622D02*
G01X15581897Y-12576494D01*
G01X15590025Y-12568366D01*
G01X15598153Y-12564302D01*
G01X15614409Y-12564302D01*
G01X15622537Y-12568366D01*
G01X15630665Y-12576494D01*
G01X15634729Y-12584622D01*
G01X15638793Y-12596814D01*
G01X15638793Y-12617134D01*
G01X15634729Y-12629326D01*
G01X15630665Y-12637454D01*
G01X15622537Y-12645582D01*
G01X15614409Y-12649646D01*
G01X15598153Y-12649646D01*
G01X15590025Y-12645582D01*
G01X15581897Y-12637454D01*
G01X15577833Y-12629326D01*
G01X15577833Y-12617134D01*
G01X15598153Y-12617134D02*
G01X15577833Y-12617134D01*
G01X15538209Y-12564302D02*
G01X15538209Y-12649646D01*
G01X15538209Y-12564302D02*
G01X15481567Y-12649646D01*
G01X15481567Y-12564302D02*
G01X15481567Y-12649646D01*
G01X15441943Y-12564302D02*
G01X15441943Y-12649646D01*
G01X15441943Y-12564302D02*
G01X15413749Y-12564302D01*
G01X15401557Y-12568366D01*
G01X15393429Y-12576494D01*
G01X15389365Y-12584622D01*
G01X15385301Y-12596814D01*
G01X15385301Y-12617134D01*
G01X15389365Y-12629326D01*
G01X15393429Y-12637454D01*
G01X15401557Y-12645582D01*
G01X15413749Y-12649646D01*
G01X15441943Y-12649646D01*
G01X14647820Y-13506302D02*
G01X14647820Y-13591646D01*
G01X14647820Y-13506302D02*
G01X14619372Y-13506302D01*
G01X14607180Y-13510366D01*
G01X14599052Y-13518494D01*
G01X14594988Y-13526622D01*
G01X14590924Y-13538814D01*
G01X14590924Y-13559134D01*
G01X14594988Y-13571326D01*
G01X14599052Y-13579454D01*
G01X14607180Y-13587582D01*
G01X14619372Y-13591646D01*
G01X14647820Y-13591646D01*
G01X14551300Y-13506302D02*
G01X14531234Y-13591646D01*
G01X14510914Y-13506302D02*
G01X14531234Y-13591646D01*
G01X14510914Y-13506302D02*
G01X14490594Y-13591646D01*
G01X14470274Y-13506302D02*
G01X14490594Y-13591646D01*
G01X14951833Y-13025622D02*
G01X14955897Y-13017494D01*
G01X14964025Y-13009366D01*
G01X14972153Y-13005302D01*
G01X14988409Y-13005302D01*
G01X14996537Y-13009366D01*
G01X15004665Y-13017494D01*
G01X15008729Y-13025622D01*
G01X15012793Y-13037814D01*
G01X15012793Y-13058134D01*
G01X15008729Y-13070326D01*
G01X15004665Y-13078454D01*
G01X14996537Y-13086582D01*
G01X14988409Y-13090646D01*
G01X14972153Y-13090646D01*
G01X14964025Y-13086582D01*
G01X14955897Y-13078454D01*
G01X14951833Y-13070326D01*
G01X14951833Y-13058134D01*
G01X14972153Y-13058134D02*
G01X14951833Y-13058134D01*
G01X14912209Y-13005302D02*
G01X14912209Y-13090646D01*
G01X14912209Y-13005302D02*
G01X14855567Y-13090646D01*
G01X14855567Y-13005302D02*
G01X14855567Y-13090646D01*
G01X14815943Y-13005302D02*
G01X14815943Y-13090646D01*
G01X14815943Y-13005302D02*
G01X14787749Y-13005302D01*
G01X14775557Y-13009366D01*
G01X14767429Y-13017494D01*
G01X14763365Y-13025622D01*
G01X14759301Y-13037814D01*
G01X14759301Y-13058134D01*
G01X14763365Y-13070326D01*
G01X14767429Y-13078454D01*
G01X14775557Y-13086582D01*
G01X14787749Y-13090646D01*
G01X14815943Y-13090646D01*
G54D14*
G01X17065788Y-6268643D02*
G01X17010162Y-6268643D01*
G01X17065788Y-6268643D02*
G01X17065788Y-6244767D01*
G01X17063248Y-6236893D01*
G01X17060454Y-6234353D01*
G01X17055374Y-6231559D01*
G01X17050040Y-6231559D01*
G01X17044706Y-6234353D01*
G01X17041912Y-6236893D01*
G01X17039372Y-6244767D01*
G01X17039372Y-6268643D02*
G01X17039372Y-6244767D01*
G01X17036578Y-6236893D01*
G01X17034038Y-6234353D01*
G01X17028704Y-6231559D01*
G01X17020830Y-6231559D01*
G01X17015496Y-6234353D01*
G01X17012702Y-6236893D01*
G01X17010162Y-6244767D01*
G01X17010162Y-6268643D01*
G01X17065788Y-6203873D02*
G01X17010162Y-6203873D01*
G01X17065788Y-6203873D02*
G01X17065788Y-6179997D01*
G01X17063248Y-6171869D01*
G01X17060454Y-6169329D01*
G01X17055374Y-6166535D01*
G01X17050040Y-6166535D01*
G01X17044706Y-6169329D01*
G01X17041912Y-6171869D01*
G01X17039372Y-6179997D01*
G01X17039372Y-6203873D01*
G01X17039372Y-6185331D02*
G01X17010162Y-6166535D01*
G01X17065788Y-6138849D02*
G01X17010162Y-6138849D01*
G01X17052580Y-6071285D02*
G01X17057914Y-6073825D01*
G01X17063248Y-6079159D01*
G01X17065788Y-6084493D01*
G01X17065788Y-6095161D01*
G01X17063248Y-6100495D01*
G01X17057914Y-6105829D01*
G01X17052580Y-6108369D01*
G01X17044706Y-6110909D01*
G01X17031244Y-6110909D01*
G01X17023370Y-6108369D01*
G01X17018036Y-6105829D01*
G01X17012702Y-6100495D01*
G01X17010162Y-6095161D01*
G01X17010162Y-6084493D01*
G01X17012702Y-6079159D01*
G01X17018036Y-6073825D01*
G01X17023370Y-6071285D01*
G01X17031244Y-6071285D01*
G01X17031244Y-6084493D02*
G01X17031244Y-6071285D01*
G01X17065788Y-6043599D02*
G01X17010162Y-6043599D01*
G01X17065788Y-6006261D02*
G01X17010162Y-6006261D01*
G01X17039372Y-6043599D02*
G01X17039372Y-6006261D01*
G01X17065788Y-5960033D02*
G01X17010162Y-5960033D01*
G01X17065788Y-5978575D02*
G01X17065788Y-5941237D01*
G54D12*
G01X15575628Y-13506302D02*
G01X15575628Y-13591646D01*
G01X15575628Y-13506302D02*
G01X15547180Y-13506302D01*
G01X15534988Y-13510366D01*
G01X15526860Y-13518494D01*
G01X15522796Y-13526622D01*
G01X15518732Y-13538814D01*
G01X15518732Y-13559134D01*
G01X15522796Y-13571326D01*
G01X15526860Y-13579454D01*
G01X15534988Y-13587582D01*
G01X15547180Y-13591646D01*
G01X15575628Y-13591646D01*
G01X15475044Y-13526622D02*
G01X15475044Y-13522558D01*
G01X15471234Y-13514430D01*
G01X15467170Y-13510366D01*
G01X15459042Y-13506302D01*
G01X15442786Y-13506302D01*
G01X15434658Y-13510366D01*
G01X15430594Y-13514430D01*
G01X15426530Y-13522558D01*
G01X15426530Y-13530686D01*
G01X15430594Y-13538814D01*
G01X15438722Y-13551006D01*
G01X15479108Y-13591646D01*
G01X15422466Y-13591646D01*
G01X15082340Y-13506302D02*
G01X15082340Y-13591646D01*
G01X15082340Y-13506302D02*
G01X15053892Y-13506302D01*
G01X15041700Y-13510366D01*
G01X15033572Y-13518494D01*
G01X15029508Y-13526622D01*
G01X15025444Y-13538814D01*
G01X15025444Y-13559134D01*
G01X15029508Y-13571326D01*
G01X15033572Y-13579454D01*
G01X15041700Y-13587582D01*
G01X15053892Y-13591646D01*
G01X15082340Y-13591646D01*
G01X14985820Y-13522558D02*
G01X14977946Y-13518494D01*
G01X14965754Y-13506302D01*
G01X14965754Y-13591646D01*
G01X16615377Y-12536994D02*
G01X16615377Y-12610146D01*
G01X16651953Y-12573570D02*
G01X16578801Y-12573570D01*
G01X16490663Y-12524802D02*
G01X16531303Y-12524802D01*
G01X16535113Y-12561378D01*
G01X16531303Y-12557314D01*
G01X16519111Y-12553250D01*
G01X16506919Y-12553250D01*
G01X16494727Y-12557314D01*
G01X16486599Y-12565442D01*
G01X16482535Y-12577634D01*
G01X16482535Y-12585762D01*
G01X16486599Y-12597954D01*
G01X16494727Y-12606082D01*
G01X16506919Y-12610146D01*
G01X16519111Y-12610146D01*
G01X16531303Y-12606082D01*
G01X16535113Y-12602018D01*
G01X16539177Y-12593890D01*
G01X16442911Y-12524802D02*
G01X16410653Y-12610146D01*
G01X16378141Y-12524802D02*
G01X16410653Y-12610146D01*
G01X16609377Y-12998494D02*
G01X16609377Y-13071646D01*
G01X16645953Y-13035070D02*
G01X16572801Y-13035070D01*
G01X16484663Y-12986302D02*
G01X16525303Y-12986302D01*
G01X16529113Y-13022878D01*
G01X16525303Y-13018814D01*
G01X16513111Y-13014750D01*
G01X16500919Y-13014750D01*
G01X16488727Y-13018814D01*
G01X16480599Y-13026942D01*
G01X16476535Y-13039134D01*
G01X16476535Y-13047262D01*
G01X16480599Y-13059454D01*
G01X16488727Y-13067582D01*
G01X16500919Y-13071646D01*
G01X16513111Y-13071646D01*
G01X16525303Y-13067582D01*
G01X16529113Y-13063518D01*
G01X16533177Y-13055390D01*
G01X16436911Y-12986302D02*
G01X16404653Y-13071646D01*
G01X16372141Y-12986302D02*
G01X16404653Y-13071646D01*
G01X14476003Y-13863302D02*
G01X14476003Y-13948646D01*
G01X14476003Y-13863302D02*
G01X14447555Y-13863302D01*
G01X14435363Y-13867366D01*
G01X14427235Y-13875494D01*
G01X14423171Y-13883622D01*
G01X14419107Y-13895814D01*
G01X14419107Y-13916134D01*
G01X14423171Y-13928326D01*
G01X14427235Y-13936454D01*
G01X14435363Y-13944582D01*
G01X14447555Y-13948646D01*
G01X14476003Y-13948646D01*
G01X14379483Y-13879558D02*
G01X14371609Y-13875494D01*
G01X14359417Y-13863302D01*
G01X14359417Y-13948646D01*
G01X14206833Y-12101622D02*
G01X14210897Y-12093494D01*
G01X14219025Y-12085366D01*
G01X14227153Y-12081302D01*
G01X14243409Y-12081302D01*
G01X14251537Y-12085366D01*
G01X14259665Y-12093494D01*
G01X14263729Y-12101622D01*
G01X14267793Y-12113814D01*
G01X14267793Y-12134134D01*
G01X14263729Y-12146326D01*
G01X14259665Y-12154454D01*
G01X14251537Y-12162582D01*
G01X14243409Y-12166646D01*
G01X14227153Y-12166646D01*
G01X14219025Y-12162582D01*
G01X14210897Y-12154454D01*
G01X14206833Y-12146326D01*
G01X14206833Y-12134134D01*
G01X14227153Y-12134134D02*
G01X14206833Y-12134134D01*
G01X14167209Y-12081302D02*
G01X14167209Y-12166646D01*
G01X14167209Y-12081302D02*
G01X14110567Y-12166646D01*
G01X14110567Y-12081302D02*
G01X14110567Y-12166646D01*
G01X14070943Y-12081302D02*
G01X14070943Y-12166646D01*
G01X14070943Y-12081302D02*
G01X14042749Y-12081302D01*
G01X14030557Y-12085366D01*
G01X14022429Y-12093494D01*
G01X14018365Y-12101622D01*
G01X14014301Y-12113814D01*
G01X14014301Y-12134134D01*
G01X14018365Y-12146326D01*
G01X14022429Y-12154454D01*
G01X14030557Y-12162582D01*
G01X14042749Y-12166646D01*
G01X14070943Y-12166646D01*
G04 Text End*

G04 PolygonModel Start*
G54D15*
G01X16399975Y-14090300D02*
G01X16399975Y-14250000D01*
G01X14505811Y-14090300D02*
G01X14505811Y-14250000D01*
G01X13513630Y-14090300D02*
G01X13513630Y-14250000D01*
G54D14*
G01X12801000Y-8275000D02*
G01X12832000Y-8244000D01*
G01X17753766Y-14013810D02*
G01X17801266Y-13966310D01*
G54D15*
G01X15588191Y-14090300D02*
G01X15588191Y-14250000D01*
G01X12611647Y-14090300D02*
G01X12611647Y-14250000D01*
G01X15047001Y-14090300D02*
G01X15047001Y-14250000D01*
G01X17482355Y-14090300D02*
G01X17482355Y-14250000D01*
G54D13*
G01X14235216Y-14060000D02*
G01X14235216Y-14037000D01*
G54D15*
G01X14956802Y-14090300D02*
G01X14956802Y-14250000D01*
G01X11709663Y-14090452D02*
G01X11709663Y-14250152D01*
G54D14*
G01X12801000Y-8275000D02*
G01X12832000Y-8306000D01*
G01X12800500Y-8275000D02*
G01X12893500Y-8275000D01*
G01X11710000Y-14013000D02*
G01X11757500Y-13965500D01*
G54D15*
G01X11799862Y-14090452D02*
G01X11799862Y-14250152D01*
G54D13*
G01X16129380Y-14063000D02*
G01X16129380Y-14040000D01*
G54D15*
G01X14325414Y-14090300D02*
G01X14325414Y-14250000D01*
G01X15317596Y-14090300D02*
G01X15317596Y-14250000D01*
G01X12882241Y-14090300D02*
G01X12882241Y-14250000D01*
G01X16941165Y-14090300D02*
G01X16941165Y-14250000D01*
G01X12070457Y-14090300D02*
G01X12070457Y-14250000D01*
G01X14686208Y-14090300D02*
G01X14686208Y-14250000D01*
G54D11*
G01X12356076Y-13271217D02*
G01X12356076Y-13053217D01*
G54D15*
G01X16850967Y-14090300D02*
G01X16850967Y-14250000D01*
G01X12701845Y-14090300D02*
G01X12701845Y-14250000D01*
G01X14054819Y-14090300D02*
G01X14054819Y-14250000D01*
G01X17031364Y-14090300D02*
G01X17031364Y-14250000D01*
G01X16490174Y-14090300D02*
G01X16490174Y-14250000D01*
G01X13152837Y-14090300D02*
G01X13152837Y-14250000D01*
G54D13*
G01X16309777Y-14064000D02*
G01X16309777Y-14041000D01*
G54D15*
G01X13062638Y-14090300D02*
G01X13062638Y-14250000D01*
G01X15407794Y-14090300D02*
G01X15407794Y-14250000D01*
G54D13*
G01X15227398Y-14064000D02*
G01X15227398Y-14041000D01*
G54D15*
G01X17211760Y-14090150D02*
G01X17211760Y-14249850D01*
G54D14*
G01X11710000Y-14013000D02*
G01X11662500Y-13965500D01*
G54D15*
G01X13333233Y-14090300D02*
G01X13333233Y-14250000D01*
G54D11*
G01X12356196Y-13053098D02*
G01X12257421Y-13151872D01*
G54D15*
G01X15948984Y-14090300D02*
G01X15948984Y-14250000D01*
G01X17752950Y-14090300D02*
G01X17752950Y-14250000D01*
G01X15137199Y-14090300D02*
G01X15137199Y-14250000D01*
G01X15768587Y-14090300D02*
G01X15768587Y-14250000D01*
G54D11*
G01X12356174Y-13052917D02*
G01X12454579Y-13151322D01*
G54D15*
G01X13784224Y-14090300D02*
G01X13784224Y-14250000D01*
G54D14*
G01X11710000Y-13863000D02*
G01X11710000Y-14013000D01*
G54D15*
G01X17301959Y-14090300D02*
G01X17301959Y-14250000D01*
G54D14*
G01X12248000Y-13663000D02*
G01X17580000Y-13663000D01*
G54D13*
G01X14415613Y-14062000D02*
G01X14415613Y-14039000D01*
G54D15*
G01X15678389Y-14090300D02*
G01X15678389Y-14250000D01*
G01X17662752Y-14090300D02*
G01X17662752Y-14250000D01*
G01X13423431Y-14090300D02*
G01X13423431Y-14250000D01*
G01X14776406Y-14090300D02*
G01X14776406Y-14250000D01*
G01X12521448Y-14090300D02*
G01X12521448Y-14250000D01*
G01X14145018Y-14090300D02*
G01X14145018Y-14250000D01*
G01X14866604Y-14090300D02*
G01X14866604Y-14250000D01*
G01X16580372Y-14090300D02*
G01X16580372Y-14250000D01*
G01X13603828Y-14090300D02*
G01X13603828Y-14250000D01*
G01X16760769Y-14090300D02*
G01X16760769Y-14250000D01*
G01X13243035Y-14090300D02*
G01X13243035Y-14250000D01*
G01X12792043Y-14090300D02*
G01X12792043Y-14250000D01*
G01X17392157Y-14090300D02*
G01X17392157Y-14250000D01*
G01X12160655Y-14090300D02*
G01X12160655Y-14250000D01*
G01X15858786Y-14090300D02*
G01X15858786Y-14250000D01*
G01X12341052Y-14090300D02*
G01X12341052Y-14250000D01*
G54D14*
G01X17753766Y-13863810D02*
G01X17753766Y-14013810D01*
G54D15*
G01X16039182Y-14090300D02*
G01X16039182Y-14250000D01*
G01X12250853Y-14090300D02*
G01X12250853Y-14250000D01*
G01X16670570Y-14090300D02*
G01X16670570Y-14250000D01*
G01X11890060Y-14090452D02*
G01X11890060Y-14250152D01*
G01X16219579Y-14090300D02*
G01X16219579Y-14250000D01*
G01X15497992Y-14090300D02*
G01X15497992Y-14250000D01*
G01X17121562Y-14090150D02*
G01X17121562Y-14249850D01*
G01X13964621Y-14090300D02*
G01X13964621Y-14250000D01*
G01X17572553Y-14090300D02*
G01X17572553Y-14250000D01*
G01X11980258Y-14090300D02*
G01X11980258Y-14250000D01*
G01X12431250Y-14090300D02*
G01X12431250Y-14250000D01*
G01X13694026Y-14090300D02*
G01X13694026Y-14250000D01*
G54D13*
G01X14596009Y-14066000D02*
G01X14596009Y-14043000D01*
G54D14*
G01X17753766Y-14013810D02*
G01X17706266Y-13966310D01*
G54D15*
G01X13874423Y-14090300D02*
G01X13874423Y-14250000D01*
G01X12972440Y-14090300D02*
G01X12972440Y-14250000D01*
G36*
G01X12750056Y-8225000D02*
G01X12750056Y-8675000D01*
G01X12150056Y-8675000D01*
G01X12150056Y-8225000D01*
G01X12750056Y-8225000D01*
G37*
G54D14*
G01X15842633Y-13181300D02*
G01X15842633Y-13432300D01*
G01X15843950Y-13433300D02*
G01X16094950Y-13433300D01*
G01X16094950Y-13180300D02*
G01X15843950Y-13180300D01*
G01X16096472Y-13432300D02*
G01X16096472Y-13181300D01*
G01X16785299Y-13181300D02*
G01X16785299Y-13432300D01*
G01X16786617Y-13433300D02*
G01X17037617Y-13433300D01*
G01X17037617Y-13180300D02*
G01X16786617Y-13180300D01*
G01X17039139Y-13432300D02*
G01X17039139Y-13181300D01*
G01X16313966Y-13181300D02*
G01X16313966Y-13432300D01*
G01X16315283Y-13433300D02*
G01X16566283Y-13433300D01*
G01X16566283Y-13180300D02*
G01X16315283Y-13180300D01*
G01X16567805Y-13432300D02*
G01X16567805Y-13181300D01*
G01X17253632Y-12655300D02*
G01X17253632Y-12906300D01*
G01X17254950Y-12907300D02*
G01X17505950Y-12907300D01*
G01X17505950Y-12654300D02*
G01X17254950Y-12654300D01*
G01X17507472Y-12906300D02*
G01X17507472Y-12655300D01*
G01X14430683Y-13179000D02*
G01X14430683Y-13430000D01*
G01X14432000Y-13431000D02*
G01X14683000Y-13431000D01*
G01X14683000Y-13178000D02*
G01X14432000Y-13178000D01*
G01X14684522Y-13430000D02*
G01X14684522Y-13179000D01*
G01X14758632Y-12661300D02*
G01X14758632Y-12912300D01*
G01X14759950Y-12913300D02*
G01X15010950Y-12913300D01*
G01X15010950Y-12660300D02*
G01X14759950Y-12660300D01*
G01X15012472Y-12912300D02*
G01X15012472Y-12661300D01*
G01X15371299Y-13181300D02*
G01X15371299Y-13432300D01*
G01X15372617Y-13433300D02*
G01X15623617Y-13433300D01*
G01X15623617Y-13180300D02*
G01X15372617Y-13180300D01*
G01X15625139Y-13432300D02*
G01X15625139Y-13181300D01*
G01X14899966Y-13181300D02*
G01X14899966Y-13432300D01*
G01X14901283Y-13433300D02*
G01X15152283Y-13433300D01*
G01X15152283Y-13180300D02*
G01X14901283Y-13180300D01*
G01X15153805Y-13432300D02*
G01X15153805Y-13181300D01*
G01X16383632Y-12650300D02*
G01X16383632Y-12901300D01*
G01X16384950Y-12902300D02*
G01X16635950Y-12902300D01*
G01X16635950Y-12649300D02*
G01X16384950Y-12649300D01*
G01X16637472Y-12901300D02*
G01X16637472Y-12650300D01*

G04 Circle Start*
G01X17164000Y-5806440D02*
G03X17364000Y-5806440I100000J0D01*
G03X17164000Y-5806440I-100000J0D01*
G54D17*
G01X17164000Y-6408420D02*
G03X17364000Y-6408420I100000J0D01*
G03X17164000Y-6408420I-100000J0D01*
G54D14*
G01X21135000Y-8757000D02*
G03X21395000Y-8757000I130000J0D01*
G03X21135000Y-8757000I-130000J0D01*
G01X21035000Y-9028000D02*
G03X21295000Y-9028000I130000J0D01*
G03X21035000Y-9028000I-130000J0D01*
G01X19494000Y-6781000D02*
G03X19754000Y-6781000I130000J0D01*
G03X19494000Y-6781000I-130000J0D01*
G01X15583056Y-10609000D02*
G03X15843056Y-10609000I130000J0D01*
G03X15583056Y-10609000I-130000J0D01*
G01X16068056Y-7605000D02*
G03X16328056Y-7605000I130000J0D01*
G03X16068056Y-7605000I-130000J0D01*
G01X14135144Y-12357192D02*
G03X14395144Y-12357192I130000J0D01*
G03X14135144Y-12357192I-130000J0D01*
G01X19271000Y-6557000D02*
G03X19531000Y-6557000I130000J0D01*
G03X19271000Y-6557000I-130000J0D01*
G01X17260157Y-11857193D02*
G03X17520157Y-11857193I130000J0D01*
G03X17260157Y-11857193I-130000J0D01*
G01X21286000Y-8207000D02*
G03X21546000Y-8207000I130000J0D01*
G03X21286000Y-8207000I-130000J0D01*
G01X21135000Y-9308000D02*
G03X21395000Y-9308000I130000J0D01*
G03X21135000Y-9308000I-130000J0D01*
G01X15385155Y-12357192D02*
G03X15645155Y-12357192I130000J0D01*
G03X15385155Y-12357192I-130000J0D01*
G01X17166056Y-6007000D02*
G03X17362056Y-6007000I98000J0D01*
G03X17166056Y-6007000I-98000J0D01*
G01X17166056Y-6207000D02*
G03X17362056Y-6207000I98000J0D01*
G03X17166056Y-6207000I-98000J0D01*
G01X16385153Y-12357192D02*
G03X16645153Y-12357192I130000J0D01*
G03X16385153Y-12357192I-130000J0D01*
G01X14010151Y-11857193D02*
G03X14270151Y-11857193I130000J0D01*
G03X14010151Y-11857193I-130000J0D01*
G04 Circle End*

M02*

