G04 Layer: TopLayer*
G04 EasyEDA Pro v2.2.45.4, 2025-12-23 22:45:37*
G04 Gerber Generator version 0.3*
G04 Scale: 100 percent, Rotated: No, Reflected: No*
G04 Dimensions in millimeters*
G04 Leading zeros omitted, absolute positions, 4 integers and 5 decimals*
G04 Generated by one-click*
%FSLAX45Y45*%
%MOMM*%
%AMRoundRect*1,1,$1,$2,$3*1,1,$1,$4,$5*1,1,$1,0-$2,0-$3*1,1,$1,0-$4,0-$5*20,1,$1,$2,$3,$4,$5,0*20,1,$1,$4,$5,0-$2,0-$3,0*20,1,$1,0-$2,0-$3,0-$4,0-$5,0*20,1,$1,0-$4,0-$5,$2,$3,0*4,1,4,$2,$3,$4,$5,0-$2,0-$3,0-$4,0-$5,$2,$3,0*%
%ADD10C,0.2032*%
%ADD11C,1.00508*%
%ADD12R,4.0X0.35*%
%ADD13C,2.0*%
%ADD14R,2.0X2.0*%
%ADD15RoundRect,0.3X-0.35X0.85X0.35X0.85*%
%ADD16C,1.5071*%
%ADD17C,1.5*%
%ADD18C,0.8*%
%ADD19C,0.6*%
%ADD20C,1.0*%
%ADD21C,0.5*%
%ADD22C,0.4*%
%ADD23C,0.2*%
%ADD24C,0.3*%
G75*


G04 Copper Start*
G36*
G01X11919979Y-13552586D02*
G01X11690414Y-13553045D01*
G01X11690414Y-13533574D01*
G01X14673134Y-13533574D01*
G01X14674422Y-13551981D01*
G01X14679420Y-13569744D01*
G01X14687920Y-13586121D01*
G01X14699568Y-13600432D01*
G01X14713879Y-13612080D01*
G01X14730256Y-13620580D01*
G01X14748019Y-13625579D01*
G01X14766426Y-13626866D01*
G01X14784711Y-13624391D01*
G01X14802113Y-13618254D01*
G01X14817906Y-13608712D01*
G01X14831434Y-13596163D01*
G01X14842132Y-13581128D01*
G01X14849555Y-13564235D01*
G01X14853393Y-13546187D01*
G01X15335167Y-13064414D01*
G01X15642006Y-13064414D01*
G01X15204813Y-13501607D01*
G01X15186765Y-13505445D01*
G01X15169871Y-13512868D01*
G01X15154837Y-13523566D01*
G01X15142288Y-13537094D01*
G01X15132746Y-13552887D01*
G01X15126609Y-13570289D01*
G01X15124133Y-13588574D01*
G01X15125421Y-13606981D01*
G01X15130419Y-13624744D01*
G01X15138920Y-13641121D01*
G01X15150568Y-13655432D01*
G01X15164879Y-13667080D01*
G01X15181256Y-13675581D01*
G01X15199019Y-13680579D01*
G01X15217426Y-13681867D01*
G01X15235711Y-13679391D01*
G01X15253113Y-13673254D01*
G01X15268906Y-13663712D01*
G01X15282434Y-13651163D01*
G01X15293132Y-13636129D01*
G01X15300555Y-13619235D01*
G01X15304393Y-13601187D01*
G01X15731166Y-13174414D01*
G01X18941000Y-13174414D01*
G01X18954737Y-13173061D01*
G01X18967946Y-13169054D01*
G01X18980120Y-13162547D01*
G01X18990790Y-13153790D01*
G01X19888790Y-12255790D01*
G01X19897547Y-12245120D01*
G01X19904054Y-12232946D01*
G01X19908061Y-12219737D01*
G01X19909414Y-12206000D01*
G01X19909414Y-9201000D01*
G01X19908061Y-9187263D01*
G01X19904054Y-9174054D01*
G01X19897547Y-9161880D01*
G01X19888790Y-9151210D01*
G01X19637790Y-8900210D01*
G01X19627120Y-8891453D01*
G01X19614946Y-8884946D01*
G01X19601737Y-8880939D01*
G01X19588000Y-8879586D01*
G01X18116994Y-8879586D01*
G01X18116994Y-8879586D01*
G01X18103257Y-8880939D01*
G01X18090048Y-8884946D01*
G01X18077874Y-8891453D01*
G01X18067204Y-8900210D01*
G01X18043651Y-8923763D01*
G01X18025165Y-8924502D01*
G01X18007217Y-8928988D01*
G01X17990557Y-8937034D01*
G01X17975884Y-8948302D01*
G01X17963811Y-8962321D01*
G01X17947310Y-8955916D01*
G01X17929876Y-8952848D01*
G01X17912179Y-8953236D01*
G01X17894897Y-8957065D01*
G01X17878692Y-8964187D01*
G01X17864185Y-8974331D01*
G01X17851933Y-8987106D01*
G01X17842404Y-9002024D01*
G01X17835965Y-9018513D01*
G01X17832862Y-9035940D01*
G01X17833214Y-9053638D01*
G01X17837008Y-9070928D01*
G01X17844097Y-9087148D01*
G01X17854211Y-9101675D01*
G01X17866962Y-9113953D01*
G01X17881860Y-9123512D01*
G01X17898336Y-9129985D01*
G01X17915757Y-9133123D01*
G01X17927701Y-9139318D01*
G01X17940606Y-9143128D01*
G01X17954000Y-9144414D01*
G01X18009353Y-9144414D01*
G01X18013106Y-9144514D01*
G01X18062894Y-9144514D01*
G01X18066647Y-9144414D01*
G01X18081000Y-9144414D01*
G01X18094737Y-9143061D01*
G01X18107946Y-9139054D01*
G01X18120120Y-9132547D01*
G01X18130790Y-9123790D01*
G01X18198166Y-9056414D01*
G01X19543834Y-9056414D01*
G01X19717586Y-9230166D01*
G01X19717586Y-12165834D01*
G01X18959834Y-12923586D01*
G01X15306000Y-12923586D01*
G01X15292263Y-12924939D01*
G01X15279054Y-12928946D01*
G01X15266880Y-12935453D01*
G01X15256210Y-12944210D01*
G01X14753813Y-13446607D01*
G01X14735765Y-13450445D01*
G01X14718872Y-13457868D01*
G01X14703837Y-13468566D01*
G01X14691288Y-13482094D01*
G01X14681746Y-13497887D01*
G01X14675609Y-13515289D01*
G01X14673134Y-13533574D01*
G01X11690414Y-13533574D01*
G01X11690414Y-12345642D01*
G01X12124016Y-12345642D01*
G01X12124016Y-12368958D01*
G01X12127874Y-12391952D01*
G01X12135484Y-12413991D01*
G01X12146635Y-12434467D01*
G01X12161022Y-12452815D01*
G01X12178245Y-12468530D01*
G01X12197832Y-12481179D01*
G01X12219242Y-12490411D01*
G01X12241884Y-12495974D01*
G01X12265135Y-12497714D01*
G01X14013765Y-12497714D01*
G01X14013765Y-12497714D01*
G01X14036113Y-12496115D01*
G01X14057923Y-12490982D01*
G01X14078638Y-12482445D01*
G01X14097732Y-12470722D01*
G01X14114719Y-12456112D01*
G01X14129165Y-12438985D01*
G01X14140703Y-12419779D01*
G01X14149040Y-12398982D01*
G01X14153963Y-12377124D01*
G01X14159530Y-12397245D01*
G01X14168704Y-12415997D01*
G01X14181173Y-12432740D01*
G01X14196511Y-12446903D01*
G01X14214193Y-12458002D01*
G01X14233615Y-12465656D01*
G01X14254114Y-12469606D01*
G01X14274990Y-12469716D01*
G01X14295530Y-12465982D01*
G01X14315031Y-12458532D01*
G01X14332829Y-12447621D01*
G01X14348315Y-12433620D01*
G01X14360959Y-12417009D01*
G01X14370331Y-12398354D01*
G01X14376109Y-12378294D01*
G01X14381176Y-12399985D01*
G01X14389609Y-12420602D01*
G01X14401197Y-12439626D01*
G01X14415646Y-12456579D01*
G01X14432595Y-12471033D01*
G01X14451617Y-12482625D01*
G01X14472232Y-12491063D01*
G01X14493922Y-12496135D01*
G01X14516141Y-12497714D01*
G01X15263759Y-12497714D01*
G01X15286112Y-12496115D01*
G01X15307926Y-12490981D01*
G01X15328645Y-12482442D01*
G01X15347742Y-12470715D01*
G01X15364730Y-12456100D01*
G01X15379177Y-12438968D01*
G01X15390714Y-12419756D01*
G01X15399049Y-12398954D01*
G01X15403967Y-12377090D01*
G01X15409528Y-12397212D01*
G01X15418697Y-12415967D01*
G01X15431161Y-12432715D01*
G01X15446495Y-12446882D01*
G01X15464173Y-12457986D01*
G01X15483593Y-12465647D01*
G01X15504091Y-12469603D01*
G01X15524967Y-12469719D01*
G01X15545508Y-12465991D01*
G01X15565012Y-12458547D01*
G01X15582813Y-12447640D01*
G01X15598303Y-12433644D01*
G01X15610953Y-12417037D01*
G01X15620330Y-12398385D01*
G01X15626114Y-12378326D01*
G01X15631185Y-12400012D01*
G01X15639621Y-12420625D01*
G01X15651209Y-12439644D01*
G01X15665659Y-12456591D01*
G01X15682607Y-12471041D01*
G01X15701626Y-12482630D01*
G01X15722238Y-12491065D01*
G01X15743925Y-12496136D01*
G01X15766141Y-12497714D01*
G01X16263765Y-12497714D01*
G01X16285805Y-12496162D01*
G01X16307329Y-12491171D01*
G01X16327804Y-12482866D01*
G01X16346722Y-12471453D01*
G01X16363616Y-12457213D01*
G01X16378067Y-12440499D01*
G01X16388310Y-12455394D01*
G01X16400165Y-12469042D01*
G01X16333620Y-12535586D01*
G01X13821000Y-12535586D01*
G01X13804337Y-12537227D01*
G01X13788313Y-12542088D01*
G01X13773546Y-12549981D01*
G01X13760603Y-12560603D01*
G01X13755936Y-12565271D01*
G01X13738505Y-12571114D01*
G01X13722431Y-12580037D01*
G01X13708253Y-12591741D01*
G01X13696447Y-12605834D01*
G01X13687409Y-12621843D01*
G01X13681440Y-12639231D01*
G01X13678742Y-12657416D01*
G01X13679404Y-12675789D01*
G01X13683405Y-12693732D01*
G01X13690610Y-12710646D01*
G01X13700778Y-12725962D01*
G01X13713568Y-12739168D01*
G01X13728552Y-12749821D01*
G01X13745226Y-12757564D01*
G01X13763033Y-12762136D01*
G01X13781375Y-12763386D01*
G01X13799637Y-12761271D01*
G01X13817207Y-12755861D01*
G01X13833497Y-12747339D01*
G01X13847960Y-12735990D01*
G01X13860112Y-12722194D01*
G01X13869544Y-12706414D01*
G01X16369000Y-12706414D01*
G01X16385663Y-12704773D01*
G01X16401686Y-12699912D01*
G01X16416453Y-12692019D01*
G01X16429397Y-12681397D01*
G01X16575550Y-12535244D01*
G01X16585625Y-12523109D01*
G01X16593297Y-12509328D01*
G01X16598305Y-12494372D01*
G01X16619001Y-12479455D01*
G01X16637070Y-12461446D01*
G01X16652055Y-12440800D01*
G01X16666507Y-12457432D01*
G01X16683383Y-12471599D01*
G01X16702266Y-12482951D01*
G01X16722694Y-12491210D01*
G01X16744161Y-12496172D01*
G01X16766141Y-12497714D01*
G01X17783769Y-12497714D01*
G01X17807021Y-12495975D01*
G01X17829664Y-12490413D01*
G01X17851074Y-12481180D01*
G01X17870662Y-12468532D01*
G01X17887887Y-12452817D01*
G01X17902273Y-12434469D01*
G01X17913426Y-12413992D01*
G01X17921036Y-12391953D01*
G01X17924894Y-12368958D01*
G01X17924894Y-12345642D01*
G01X17921036Y-12322647D01*
G01X17913426Y-12300608D01*
G01X17902273Y-12280131D01*
G01X17887887Y-12261783D01*
G01X17870662Y-12246068D01*
G01X17851074Y-12233420D01*
G01X17829664Y-12224187D01*
G01X17807021Y-12218625D01*
G01X17783769Y-12216886D01*
G01X16766141Y-12216886D01*
G01X16744181Y-12218426D01*
G01X16722732Y-12223378D01*
G01X16702321Y-12231622D01*
G01X16683449Y-12242954D01*
G01X16666579Y-12257097D01*
G01X16652128Y-12273702D01*
G01X16638488Y-12254619D01*
G01X16622210Y-12237729D01*
G01X16603644Y-12223394D01*
G01X16583185Y-12211919D01*
G01X16561272Y-12203551D01*
G01X16538373Y-12198467D01*
G01X16514977Y-12196778D01*
G01X16491584Y-12198519D01*
G01X16468696Y-12203652D01*
G01X16446801Y-12212069D01*
G01X16426368Y-12223588D01*
G01X16407833Y-12237965D01*
G01X16391593Y-12254890D01*
G01X16377995Y-12274004D01*
G01X16363544Y-12257317D01*
G01X16346656Y-12243100D01*
G01X16327749Y-12231707D01*
G01X16307290Y-12223417D01*
G01X16285785Y-12218436D01*
G01X16263765Y-12216886D01*
G01X15766141Y-12216886D01*
G01X15743939Y-12218462D01*
G01X15722264Y-12223526D01*
G01X15701662Y-12231952D01*
G01X15682651Y-12243527D01*
G01X15665707Y-12257961D01*
G01X15651257Y-12274891D01*
G01X15639663Y-12293891D01*
G01X15631218Y-12314485D01*
G01X15626132Y-12336154D01*
G01X15620361Y-12316078D01*
G01X15610991Y-12297408D01*
G01X15598343Y-12280783D01*
G01X15582850Y-12266771D01*
G01X15565042Y-12255851D01*
G01X15545527Y-12248398D01*
G01X15524974Y-12244666D01*
G01X15504085Y-12244782D01*
G01X15483574Y-12248743D01*
G01X15464144Y-12256412D01*
G01X15446458Y-12267529D01*
G01X15431122Y-12281713D01*
G01X15418660Y-12298478D01*
G01X15409498Y-12317251D01*
G01X15403950Y-12337390D01*
G01X15399017Y-12315544D01*
G01X15390672Y-12294759D01*
G01X15379130Y-12275566D01*
G01X15364683Y-12258453D01*
G01X15347699Y-12243853D01*
G01X15328609Y-12232140D01*
G01X15307900Y-12223611D01*
G01X15286099Y-12218483D01*
G01X15263759Y-12216886D01*
G01X14516141Y-12216886D01*
G01X14493935Y-12218463D01*
G01X14472257Y-12223529D01*
G01X14451653Y-12231957D01*
G01X14432639Y-12243536D01*
G01X14415694Y-12257974D01*
G01X14401244Y-12274908D01*
G01X14389652Y-12293914D01*
G01X14381209Y-12314512D01*
G01X14376128Y-12336186D01*
G01X14370362Y-12316109D01*
G01X14360997Y-12297436D01*
G01X14348354Y-12280807D01*
G01X14332866Y-12266791D01*
G01X14315061Y-12255866D01*
G01X14295549Y-12248407D01*
G01X14274997Y-12244668D01*
G01X14254108Y-12244778D01*
G01X14233596Y-12248733D01*
G01X14214164Y-12256397D01*
G01X14196475Y-12267508D01*
G01X14181134Y-12281687D01*
G01X14168667Y-12298448D01*
G01X14159500Y-12317218D01*
G01X14153945Y-12337355D01*
G01X14149008Y-12315515D01*
G01X14140661Y-12294736D01*
G01X14129118Y-12275549D01*
G01X14114671Y-12258441D01*
G01X14097689Y-12243846D01*
G01X14078602Y-12232137D01*
G01X14057897Y-12223610D01*
G01X14036100Y-12218483D01*
G01X14013765Y-12216886D01*
G01X12265135Y-12216886D01*
G01X12241884Y-12218626D01*
G01X12219242Y-12224189D01*
G01X12197832Y-12233421D01*
G01X12178245Y-12246070D01*
G01X12161022Y-12261785D01*
G01X12146635Y-12280133D01*
G01X12135484Y-12300609D01*
G01X12127874Y-12322648D01*
G01X12124016Y-12345642D01*
G01X11690414Y-12345642D01*
G01X11690414Y-8850000D01*
G01X11691908Y-8836741D01*
G01X11696315Y-8824147D01*
G01X11703414Y-8812849D01*
G01X11712849Y-8803414D01*
G01X11724147Y-8796315D01*
G01X11736741Y-8791908D01*
G01X11750000Y-8790414D01*
G01X13470842Y-8790414D01*
G01X13486605Y-8801434D01*
G01X13504180Y-8809248D01*
G01X13522922Y-8813567D01*
G01X13542143Y-8814234D01*
G01X13561139Y-8811225D01*
G01X13579214Y-8804649D01*
G01X13595703Y-8794748D01*
G01X13610002Y-8781885D01*
G01X13621586Y-8766532D01*
G01X13621586Y-8767944D01*
G01X13622939Y-8781681D01*
G01X13626946Y-8794890D01*
G01X13633453Y-8807064D01*
G01X13642210Y-8817734D01*
G01X13759266Y-8934790D01*
G01X13769936Y-8943547D01*
G01X13782110Y-8950054D01*
G01X13795319Y-8954061D01*
G01X13809056Y-8955414D01*
G01X15545890Y-8955414D01*
G01X15586642Y-8996166D01*
G01X15586642Y-9735000D01*
G01X15587995Y-9748737D01*
G01X15592002Y-9761946D01*
G01X15598509Y-9774120D01*
G01X15607266Y-9784790D01*
G01X15627642Y-9805166D01*
G01X15627642Y-10473217D01*
G01X15608095Y-10487691D01*
G01X15590961Y-10504954D01*
G01X15576634Y-10524609D01*
G01X15565444Y-10546205D01*
G01X15557647Y-10569244D01*
G01X15553422Y-10593197D01*
G01X15552868Y-10617513D01*
G01X15555997Y-10641634D01*
G01X15562736Y-10665004D01*
G01X15572931Y-10687087D01*
G01X15586348Y-10707375D01*
G01X15602677Y-10725401D01*
G01X15621544Y-10740751D01*
G01X15642515Y-10753072D01*
G01X15665108Y-10762080D01*
G01X15688803Y-10767570D01*
G01X15713056Y-10769414D01*
G01X15737309Y-10767570D01*
G01X15761004Y-10762080D01*
G01X15783596Y-10753072D01*
G01X15804568Y-10740751D01*
G01X15823435Y-10725401D01*
G01X15839764Y-10707375D01*
G01X15853181Y-10687087D01*
G01X15863376Y-10665004D01*
G01X15870115Y-10641634D01*
G01X15873244Y-10617513D01*
G01X15872690Y-10593197D01*
G01X15868465Y-10569244D01*
G01X15860668Y-10546205D01*
G01X15849478Y-10524609D01*
G01X15835151Y-10504954D01*
G01X15818017Y-10487691D01*
G01X15798470Y-10473217D01*
G01X15798470Y-9791000D01*
G01X15796798Y-9774185D01*
G01X15791850Y-9758029D01*
G01X15783817Y-9743163D01*
G01X15773015Y-9730169D01*
G01X15759867Y-9719556D01*
G01X15744886Y-9711739D01*
G01X15728660Y-9707024D01*
G01X15727470Y-9705834D01*
G01X15727470Y-9636116D01*
G01X15745239Y-9641641D01*
G01X15763762Y-9643411D01*
G01X15782256Y-9641352D01*
G01X15799936Y-9635550D01*
G01X15816054Y-9626252D01*
G01X15829928Y-9613851D01*
G01X15840969Y-9598873D01*
G01X15848709Y-9581951D01*
G01X15852822Y-9563804D01*
G01X15853133Y-9545198D01*
G01X15849628Y-9526924D01*
G01X15842456Y-9509753D01*
G01X15831921Y-9494415D01*
G01X15818470Y-9481558D01*
G01X15818470Y-8952000D01*
G01X15817117Y-8938263D01*
G01X15813110Y-8925054D01*
G01X15806603Y-8912880D01*
G01X15797846Y-8902210D01*
G01X15758050Y-8862414D01*
G01X15977056Y-8862414D01*
G01X15990793Y-8861061D01*
G01X16004002Y-8857054D01*
G01X16016176Y-8850547D01*
G01X16026846Y-8841790D01*
G01X16090443Y-8778193D01*
G01X16107311Y-8773490D01*
G01X16122866Y-8765445D01*
G01X16136453Y-8754397D01*
G01X16139453Y-8751397D01*
G01X16150075Y-8738453D01*
G01X16157968Y-8723686D01*
G01X16162829Y-8707663D01*
G01X16164470Y-8691000D01*
G01X16164470Y-7761859D01*
G01X16188510Y-7765130D01*
G01X16212768Y-7764738D01*
G01X16236690Y-7760692D01*
G01X16259729Y-7753085D01*
G01X16281356Y-7742090D01*
G01X16301078Y-7727960D01*
G01X16318443Y-7711016D01*
G01X16333055Y-7691648D01*
G01X16344578Y-7670298D01*
G01X16352750Y-7647454D01*
G01X16357383Y-7623639D01*
G01X16358372Y-7599397D01*
G01X16355693Y-7575284D01*
G01X16349409Y-7551850D01*
G01X16339662Y-7529632D01*
G01X16326676Y-7509138D01*
G01X16310748Y-7490837D01*
G01X16292242Y-7475148D01*
G01X16271582Y-7462429D01*
G01X16249240Y-7452971D01*
G01X16225727Y-7446991D01*
G01X16201581Y-7444625D01*
G01X16177354Y-7445928D01*
G01X16153601Y-7450869D01*
G01X16130865Y-7459336D01*
G01X16109665Y-7471136D01*
G01X16090488Y-7485997D01*
G01X16073771Y-7503580D01*
G01X16059898Y-7523484D01*
G01X16049184Y-7545252D01*
G01X16041876Y-7568387D01*
G01X16038141Y-7592359D01*
G01X16038064Y-7616621D01*
G01X16041646Y-7640617D01*
G01X16018659Y-7663603D01*
G01X16008037Y-7676547D01*
G01X16000144Y-7691314D01*
G01X15995283Y-7707337D01*
G01X15993642Y-7724000D01*
G01X15993642Y-8671561D01*
G01X15992319Y-8677156D01*
G01X15947890Y-8721586D01*
G01X13864222Y-8721586D01*
G01X13836414Y-8693778D01*
G01X13836414Y-8537944D01*
G01X13835061Y-8524207D01*
G01X13831054Y-8510998D01*
G01X13824547Y-8498824D01*
G01X13815790Y-8488154D01*
G01X13734846Y-8407210D01*
G01X13724176Y-8398453D01*
G01X13712002Y-8391946D01*
G01X13698793Y-8387939D01*
G01X13685056Y-8386586D01*
G01X13458283Y-8386586D01*
G01X13461110Y-8370403D01*
G01X13460962Y-8353976D01*
G01X13457844Y-8337846D01*
G01X13451859Y-8322547D01*
G01X13443205Y-8308584D01*
G01X13432166Y-8296417D01*
G01X13419108Y-8286448D01*
G01X13404462Y-8279006D01*
G01X13388711Y-8274338D01*
G01X13372376Y-8272597D01*
G01X13355995Y-8273840D01*
G01X13340109Y-8278027D01*
G01X13325243Y-8285019D01*
G01X13311888Y-8294586D01*
G01X13269166Y-8294586D01*
G01X13247790Y-8273210D01*
G01X13238521Y-8265414D01*
G01X13831061Y-8265414D01*
G01X13844320Y-8266908D01*
G01X13856913Y-8271314D01*
G01X13868210Y-8278413D01*
G01X13877645Y-8287847D01*
G01X13884743Y-8299145D01*
G01X13889149Y-8311739D01*
G01X13890642Y-8324997D01*
G01X13890642Y-8467523D01*
G01X13876034Y-8481736D01*
G01X13863637Y-8497916D01*
G01X13853714Y-8515719D01*
G01X13846472Y-8534771D01*
G01X13842065Y-8554671D01*
G01X13840586Y-8575000D01*
G01X13840665Y-8577523D01*
G01X13842744Y-8599205D01*
G01X13848152Y-8620305D01*
G01X13856758Y-8640315D01*
G01X13868355Y-8658753D01*
G01X13882664Y-8675176D01*
G01X13899341Y-8689187D01*
G01X13917985Y-8700452D01*
G01X13938146Y-8708697D01*
G01X13959340Y-8713724D01*
G01X13981056Y-8715414D01*
G01X15779054Y-8715414D01*
G01X15801020Y-8713686D01*
G01X15822446Y-8708543D01*
G01X15842803Y-8700111D01*
G01X15861590Y-8688599D01*
G01X15878345Y-8674289D01*
G01X15892655Y-8657534D01*
G01X15904167Y-8638747D01*
G01X15912599Y-8618390D01*
G01X15917742Y-8596965D01*
G01X15919470Y-8574998D01*
G01X15919391Y-8572478D01*
G01X15917619Y-8552618D01*
G01X15913051Y-8533210D01*
G01X15905780Y-8514644D01*
G01X15895953Y-8497295D01*
G01X15883768Y-8481513D01*
G01X15869470Y-8467616D01*
G01X15869470Y-7495002D01*
G01X15870963Y-7481748D01*
G01X15875366Y-7469159D01*
G01X15882459Y-7457865D01*
G01X15891886Y-7448430D01*
G01X15903176Y-7441329D01*
G01X15915762Y-7436917D01*
G01X15929014Y-7435414D01*
G01X16804084Y-7435414D01*
G01X16826040Y-7433669D01*
G01X16847454Y-7428515D01*
G01X16867800Y-7420077D01*
G01X16886577Y-7408564D01*
G01X16903324Y-7394258D01*
G01X16917630Y-7377511D01*
G01X16929143Y-7358734D01*
G01X16937580Y-7338388D01*
G01X16942734Y-7316974D01*
G01X16944478Y-7295017D01*
G01X16943000Y-7274699D01*
G01X16938598Y-7254808D01*
G01X16931364Y-7235764D01*
G01X16921450Y-7217967D01*
G01X16909065Y-7201792D01*
G01X16894470Y-7187579D01*
G01X16894470Y-6003357D01*
G01X17128691Y-6003357D01*
G01X17130056Y-6026517D01*
G01X17135354Y-6049105D01*
G01X17144431Y-6070457D01*
G01X17157019Y-6089946D01*
G01X17172749Y-6107000D01*
G01X17157019Y-6124054D01*
G01X17144431Y-6143543D01*
G01X17135354Y-6164895D01*
G01X17130056Y-6187482D01*
G01X17128691Y-6210643D01*
G01X17131300Y-6233697D01*
G01X17137806Y-6255967D01*
G01X17148017Y-6276800D01*
G01X17161636Y-6295583D01*
G01X17178260Y-6311766D01*
G01X17197403Y-6324874D01*
G01X17218503Y-6334522D01*
G01X17240940Y-6340426D01*
G01X17264056Y-6342414D01*
G01X17287171Y-6340426D01*
G01X17309608Y-6334522D01*
G01X17330708Y-6324874D01*
G01X17349852Y-6311766D01*
G01X17366476Y-6295583D01*
G01X17380094Y-6276800D01*
G01X17390306Y-6255967D01*
G01X17396812Y-6233697D01*
G01X17399421Y-6210643D01*
G01X17398056Y-6187482D01*
G01X17392757Y-6164895D01*
G01X17383681Y-6143543D01*
G01X17371093Y-6124054D01*
G01X17355363Y-6107000D01*
G01X17371093Y-6089946D01*
G01X17383681Y-6070457D01*
G01X17392757Y-6049105D01*
G01X17398056Y-6026517D01*
G01X17399421Y-6003357D01*
G01X17396812Y-5980303D01*
G01X17390306Y-5958033D01*
G01X17380094Y-5937200D01*
G01X17366476Y-5918417D01*
G01X17349852Y-5902233D01*
G01X17330708Y-5889125D01*
G01X17309608Y-5879478D01*
G01X17287171Y-5873574D01*
G01X17264056Y-5871586D01*
G01X17264056Y-5871586D01*
G01X17240940Y-5873574D01*
G01X17218503Y-5879478D01*
G01X17197403Y-5889125D01*
G01X17178260Y-5902233D01*
G01X17161636Y-5918417D01*
G01X17148017Y-5937200D01*
G01X17137806Y-5958033D01*
G01X17131300Y-5980303D01*
G01X17128691Y-6003357D01*
G01X16894470Y-6003357D01*
G01X16894470Y-5749999D01*
G01X16895962Y-5736746D01*
G01X16900365Y-5724156D01*
G01X16907458Y-5712862D01*
G01X16916885Y-5703428D01*
G01X16928174Y-5696327D01*
G01X16940760Y-5691916D01*
G01X16954012Y-5690414D01*
G01X17379055Y-5690414D01*
G01X17392602Y-5691975D01*
G01X17405441Y-5696575D01*
G01X17416897Y-5703973D01*
G01X17426371Y-5713781D01*
G01X17433368Y-5725487D01*
G01X17437520Y-5738477D01*
G01X17438610Y-5752071D01*
G01X17438587Y-5753428D01*
G01X17438642Y-7443911D01*
G01X17437061Y-7457547D01*
G01X17432402Y-7470460D01*
G01X17424911Y-7481964D01*
G01X17087936Y-7888062D01*
G01X17078549Y-7897131D01*
G01X17067414Y-7903938D01*
G01X17055064Y-7908157D01*
G01X17042091Y-7909586D01*
G01X16620479Y-7909586D01*
G01X16598513Y-7911314D01*
G01X16577087Y-7916458D01*
G01X16556730Y-7924890D01*
G01X16537943Y-7936403D01*
G01X16521189Y-7950714D01*
G01X16379768Y-8092134D01*
G01X16365459Y-8108888D01*
G01X16353946Y-8127675D01*
G01X16345514Y-8148031D01*
G01X16340371Y-8169456D01*
G01X16338642Y-8191421D01*
G01X16338642Y-8900999D01*
G01X16337148Y-8914258D01*
G01X16332741Y-8926852D01*
G01X16325641Y-8938150D01*
G01X16316206Y-8947586D01*
G01X16304908Y-8954685D01*
G01X16292314Y-8959092D01*
G01X16279055Y-8960586D01*
G01X16195479Y-8960586D01*
G01X16173513Y-8962314D01*
G01X16152087Y-8967458D01*
G01X16131730Y-8975890D01*
G01X16112943Y-8987403D01*
G01X16096189Y-9001713D01*
G01X15954768Y-9143134D01*
G01X15940459Y-9159888D01*
G01X15928946Y-9178675D01*
G01X15920514Y-9199031D01*
G01X15915371Y-9220456D01*
G01X15913642Y-9242422D01*
G01X15913642Y-10830000D01*
G01X15912358Y-10834793D01*
G01X15908849Y-10838302D01*
G01X15904056Y-10839586D01*
G01X15529062Y-10839586D01*
G01X15524266Y-10838301D01*
G01X15520755Y-10834790D01*
G01X15519470Y-10829994D01*
G01X15519470Y-10057605D01*
G01X15534053Y-10043400D01*
G01X15546429Y-10027237D01*
G01X15556339Y-10009453D01*
G01X15563572Y-9990424D01*
G01X15567978Y-9970549D01*
G01X15569464Y-9950246D01*
G01X15567757Y-9928263D01*
G01X15562632Y-9906818D01*
G01X15554216Y-9886439D01*
G01X15542716Y-9867627D01*
G01X15528414Y-9850846D01*
G01X15511663Y-9836509D01*
G01X15492876Y-9824969D01*
G01X15472514Y-9816509D01*
G01X15451080Y-9811339D01*
G01X15429102Y-9809586D01*
G01X12859000Y-9809586D01*
G01X12845741Y-9808092D01*
G01X12833147Y-9803685D01*
G01X12821849Y-9796586D01*
G01X12812414Y-9787151D01*
G01X12805315Y-9775854D01*
G01X12800908Y-9763259D01*
G01X12799414Y-9750000D01*
G01X12799414Y-9100000D01*
G01X12800698Y-9095207D01*
G01X12804207Y-9091698D01*
G01X12809000Y-9090414D01*
G01X12908198Y-9090414D01*
G01X12890309Y-9107360D01*
G01X12875227Y-9126845D01*
G01X12863307Y-9148411D01*
G01X12854830Y-9171548D01*
G01X12849997Y-9195710D01*
G01X12848921Y-9220327D01*
G01X12851628Y-9244818D01*
G01X12858055Y-9268606D01*
G01X12868048Y-9291129D01*
G01X12881374Y-9311856D01*
G01X12897716Y-9330298D01*
G01X12916690Y-9346019D01*
G01X12937848Y-9358648D01*
G01X12960690Y-9367889D01*
G01X12984679Y-9373522D01*
G01X13009247Y-9375414D01*
G01X13033814Y-9373522D01*
G01X13057803Y-9367889D01*
G01X13080645Y-9358648D01*
G01X13101803Y-9346019D01*
G01X13120777Y-9330298D01*
G01X13137120Y-9311856D01*
G01X13150445Y-9291129D01*
G01X13160438Y-9268606D01*
G01X13166865Y-9244818D01*
G01X13169572Y-9220327D01*
G01X13168496Y-9195710D01*
G01X13163663Y-9171548D01*
G01X13155187Y-9148411D01*
G01X13143266Y-9126845D01*
G01X13128184Y-9107360D01*
G01X13110295Y-9090414D01*
G01X13229056Y-9090414D01*
G01X13233849Y-9091698D01*
G01X13237358Y-9095207D01*
G01X13238642Y-9100000D01*
G01X13238642Y-9392523D01*
G01X13224034Y-9406737D01*
G01X13211638Y-9422916D01*
G01X13201714Y-9440719D01*
G01X13194472Y-9459771D01*
G01X13190066Y-9479671D01*
G01X13188586Y-9500000D01*
G01X13188665Y-9502522D01*
G01X13190740Y-9524180D01*
G01X13196136Y-9545258D01*
G01X13204723Y-9565249D01*
G01X13216296Y-9583673D01*
G01X13230575Y-9600088D01*
G01X13247220Y-9614101D01*
G01X13265829Y-9625373D01*
G01X13285956Y-9633636D01*
G01X13307119Y-9638690D01*
G01X13328807Y-9640414D01*
G01X15429243Y-9640414D01*
G01X15451182Y-9638650D01*
G01X15472576Y-9633480D01*
G01X15492899Y-9625030D01*
G01X15511652Y-9613509D01*
G01X15528375Y-9599199D01*
G01X15542656Y-9582452D01*
G01X15554145Y-9563679D01*
G01X15562560Y-9543341D01*
G01X15567694Y-9521939D01*
G01X15569420Y-9499997D01*
G01X15569333Y-9497341D01*
G01X15567546Y-9477518D01*
G01X15562975Y-9458146D01*
G01X15555711Y-9439615D01*
G01X15545899Y-9422298D01*
G01X15533737Y-9406542D01*
G01X15519470Y-9392663D01*
G01X15519470Y-9208383D01*
G01X15533766Y-9194488D01*
G01X15545949Y-9178709D01*
G01X15555776Y-9161363D01*
G01X15563047Y-9142801D01*
G01X15567616Y-9123396D01*
G01X15569390Y-9103540D01*
G01X15569470Y-9101000D01*
G01X15567741Y-9079035D01*
G01X15562598Y-9057610D01*
G01X15554166Y-9037253D01*
G01X15542653Y-9018467D01*
G01X15528344Y-9001712D01*
G01X15511589Y-8987403D01*
G01X15492803Y-8975890D01*
G01X15472446Y-8967458D01*
G01X15451022Y-8962315D01*
G01X15429056Y-8960586D01*
G01X12079000Y-8960586D01*
G01X12057034Y-8962315D01*
G01X12035610Y-8967458D01*
G01X12015253Y-8975890D01*
G01X11996467Y-8987403D01*
G01X11979712Y-9001712D01*
G01X11965403Y-9018467D01*
G01X11953890Y-9037253D01*
G01X11945458Y-9057609D01*
G01X11940315Y-9079034D01*
G01X11938586Y-9101000D01*
G01X11940064Y-9121316D01*
G01X11944465Y-9141205D01*
G01X11951698Y-9160248D01*
G01X11961610Y-9178044D01*
G01X11973993Y-9194218D01*
G01X11988586Y-9208431D01*
G01X11988586Y-11851569D01*
G01X11973993Y-11865782D01*
G01X11961611Y-11881956D01*
G01X11951698Y-11899752D01*
G01X11944465Y-11918794D01*
G01X11940064Y-11938683D01*
G01X11938586Y-11959000D01*
G01X11940137Y-11981107D01*
G01X11945146Y-12002695D01*
G01X11953489Y-12023226D01*
G01X11964956Y-12042190D01*
G01X11979264Y-12059114D01*
G01X11996055Y-12073577D01*
G01X12014912Y-12085219D01*
G01X12035366Y-12093751D01*
G01X12056906Y-12098959D01*
G01X12078998Y-12100714D01*
G01X12080261Y-12100693D01*
G01X12100421Y-12099112D01*
G01X12120146Y-12094652D01*
G01X12139025Y-12087405D01*
G01X12156667Y-12077521D01*
G01X12172707Y-12065206D01*
G01X12186812Y-12050714D01*
G01X13950950Y-12050714D01*
G01X13968589Y-12048977D01*
G01X13985550Y-12043832D01*
G01X14001181Y-12035476D01*
G01X14014882Y-12024232D01*
G01X14026126Y-12010531D01*
G01X14034482Y-11994900D01*
G01X14039627Y-11977939D01*
G01X14041364Y-11960300D01*
G01X14041364Y-11940300D01*
G01X14039887Y-11929473D01*
G01X14035563Y-11919438D01*
G01X14026255Y-11900382D01*
G01X14020430Y-11879990D01*
G01X14018267Y-11858892D01*
G01X14018393Y-11857193D01*
G01X14027197Y-11857193D01*
G01X14029120Y-11877948D01*
G01X14034825Y-11897997D01*
G01X14044116Y-11916656D01*
G01X14056677Y-11933290D01*
G01X14072081Y-11947332D01*
G01X14089803Y-11958305D01*
G01X14109240Y-11965835D01*
G01X14129729Y-11969665D01*
G01X14150573Y-11969665D01*
G01X14171062Y-11965835D01*
G01X14190499Y-11958305D01*
G01X14208221Y-11947332D01*
G01X14223625Y-11933290D01*
G01X14236186Y-11916656D01*
G01X14245478Y-11897997D01*
G01X14251182Y-11877948D01*
G01X14253105Y-11857193D01*
G01X14253105Y-11857193D01*
G01X14251182Y-11836438D01*
G01X14245478Y-11816389D01*
G01X14236186Y-11797730D01*
G01X14223625Y-11781096D01*
G01X14208221Y-11767054D01*
G01X14190499Y-11756081D01*
G01X14171062Y-11748551D01*
G01X14150573Y-11744721D01*
G01X14129729Y-11744721D01*
G01X14109240Y-11748551D01*
G01X14089803Y-11756081D01*
G01X14072081Y-11767054D01*
G01X14056677Y-11781096D01*
G01X14044116Y-11797730D01*
G01X14034825Y-11816389D01*
G01X14029120Y-11836438D01*
G01X14027197Y-11857193D01*
G01X14018393Y-11857193D01*
G01X14019834Y-11837742D01*
G01X14025082Y-11817194D01*
G01X14033848Y-11797882D01*
G01X14045862Y-11780406D01*
G01X14060753Y-11765304D01*
G01X14078058Y-11753044D01*
G01X14097244Y-11744006D01*
G01X14117716Y-11738469D01*
G01X14138842Y-11736604D01*
G01X14159968Y-11738469D01*
G01X14180440Y-11744006D01*
G01X14199626Y-11753044D01*
G01X14216932Y-11765304D01*
G01X14231822Y-11780406D01*
G01X14243836Y-11797882D01*
G01X14252603Y-11817194D01*
G01X14257850Y-11837742D01*
G01X14259417Y-11858892D01*
G01X14257254Y-11879990D01*
G01X14251429Y-11900382D01*
G01X14242121Y-11919438D01*
G01X14238464Y-11927314D01*
G01X14236573Y-11935789D01*
G01X14236536Y-11944472D01*
G01X14236536Y-11960300D01*
G01X14238273Y-11977939D01*
G01X14243418Y-11994900D01*
G01X14251774Y-12010531D01*
G01X14263018Y-12024232D01*
G01X14276719Y-12035476D01*
G01X14292350Y-12043832D01*
G01X14309311Y-12048977D01*
G01X14326950Y-12050714D01*
G01X17201950Y-12050714D01*
G01X17218973Y-12049097D01*
G01X17235386Y-12044304D01*
G01X17250604Y-12036507D01*
G01X17264081Y-12025984D01*
G01X17275337Y-12013112D01*
G01X17283967Y-11998350D01*
G01X17289664Y-11982228D01*
G01X17304743Y-11992976D01*
G01X17304743Y-11998614D01*
G01X17306384Y-12015278D01*
G01X17311245Y-12031301D01*
G01X17319138Y-12046068D01*
G01X17329760Y-12059011D01*
G01X17424157Y-12153407D01*
G01X17434632Y-12164037D01*
G01X17446797Y-12172682D01*
G01X17460281Y-12179077D01*
G01X17474673Y-12183027D01*
G01X17488565Y-12192499D01*
G01X17504307Y-12198406D01*
G01X17521000Y-12200414D01*
G01X17844834Y-12200414D01*
G01X18024586Y-12380166D01*
G01X18024586Y-12625134D01*
G01X17959313Y-12690407D01*
G01X17941265Y-12694245D01*
G01X17924372Y-12701668D01*
G01X17909337Y-12712366D01*
G01X17896788Y-12725894D01*
G01X17887246Y-12741687D01*
G01X17881110Y-12759089D01*
G01X17878634Y-12777374D01*
G01X17879922Y-12795781D01*
G01X17884920Y-12813544D01*
G01X17893420Y-12829921D01*
G01X17905068Y-12844232D01*
G01X17919379Y-12855880D01*
G01X17935756Y-12864381D01*
G01X17953519Y-12869379D01*
G01X17971926Y-12870667D01*
G01X17990211Y-12868191D01*
G01X18007613Y-12862054D01*
G01X18023406Y-12852512D01*
G01X18036934Y-12839963D01*
G01X18047632Y-12824929D01*
G01X18055055Y-12808035D01*
G01X18058894Y-12789987D01*
G01X18144790Y-12704090D01*
G01X18153547Y-12693420D01*
G01X18160054Y-12681246D01*
G01X18164061Y-12668037D01*
G01X18165414Y-12654300D01*
G01X18165414Y-12351000D01*
G01X18164061Y-12337263D01*
G01X18160054Y-12324054D01*
G01X18153547Y-12311880D01*
G01X18144790Y-12301210D01*
G01X17923790Y-12080210D01*
G01X17913120Y-12071453D01*
G01X17900946Y-12064946D01*
G01X17887737Y-12060939D01*
G01X17874000Y-12059586D01*
G01X17566056Y-12059586D01*
G01X17559070Y-12048210D01*
G01X17550397Y-12038061D01*
G01X17492803Y-11980467D01*
G01X17502291Y-11971903D01*
G01X17554630Y-12024242D01*
G01X17568333Y-12035489D01*
G01X17583967Y-12043846D01*
G01X17600933Y-12048991D01*
G01X17618575Y-12050725D01*
G01X17895530Y-12050714D01*
G01X17907154Y-12051859D01*
G01X17918332Y-12055249D01*
G01X17928633Y-12060755D01*
G01X17937662Y-12068166D01*
G01X18269083Y-12399587D01*
G01X18285837Y-12413897D01*
G01X18304624Y-12425410D01*
G01X18324981Y-12433842D01*
G01X18346406Y-12438986D01*
G01X18368372Y-12440714D01*
G01X19171056Y-12440714D01*
G01X19193022Y-12438985D01*
G01X19214447Y-12433842D01*
G01X19234803Y-12425410D01*
G01X19253590Y-12413897D01*
G01X19270344Y-12399587D01*
G01X19483288Y-12186644D01*
G01X19497597Y-12169889D01*
G01X19509110Y-12151103D01*
G01X19517541Y-12130747D01*
G01X19522685Y-12109322D01*
G01X19524414Y-12087356D01*
G01X19524414Y-12087000D01*
G01X19522936Y-12066683D01*
G01X19518534Y-12046795D01*
G01X19511301Y-12027752D01*
G01X19501389Y-12009956D01*
G01X19489007Y-11993782D01*
G01X19474414Y-11979570D01*
G01X19474414Y-9348430D01*
G01X19489007Y-9334218D01*
G01X19501389Y-9318044D01*
G01X19511301Y-9300248D01*
G01X19518534Y-9281205D01*
G01X19522936Y-9261317D01*
G01X19524414Y-9241000D01*
G01X19522685Y-9219035D01*
G01X19517542Y-9197610D01*
G01X19509110Y-9177254D01*
G01X19497597Y-9158467D01*
G01X19483288Y-9141713D01*
G01X19466533Y-9127403D01*
G01X19447747Y-9115890D01*
G01X19427390Y-9107458D01*
G01X19405966Y-9102315D01*
G01X19384000Y-9100586D01*
G01X18751421Y-9100586D01*
G01X18729455Y-9102315D01*
G01X18708031Y-9107459D01*
G01X18687675Y-9115890D01*
G01X18668889Y-9127403D01*
G01X18652134Y-9141712D01*
G01X18511712Y-9282134D01*
G01X18502683Y-9289544D01*
G01X18492381Y-9295050D01*
G01X18481203Y-9298441D01*
G01X18469579Y-9299586D01*
G01X18024000Y-9299586D01*
G01X18002034Y-9301315D01*
G01X17980610Y-9306458D01*
G01X17960253Y-9314890D01*
G01X17941467Y-9326403D01*
G01X17924712Y-9340712D01*
G01X17910403Y-9357467D01*
G01X17898890Y-9376254D01*
G01X17890458Y-9396610D01*
G01X17885315Y-9418035D01*
G01X17883586Y-9440000D01*
G01X17885064Y-9460317D01*
G01X17889466Y-9480205D01*
G01X17896699Y-9499248D01*
G01X17906611Y-9517044D01*
G01X17918994Y-9533218D01*
G01X17933586Y-9547430D01*
G01X17933586Y-10883000D01*
G01X17932302Y-10887793D01*
G01X17928793Y-10891302D01*
G01X17924000Y-10892586D01*
G01X17550000Y-10892586D01*
G01X17545207Y-10891302D01*
G01X17541698Y-10887793D01*
G01X17540414Y-10883000D01*
G01X17540414Y-10730080D01*
G01X17553667Y-10730080D01*
G01X17556341Y-10754600D01*
G01X17562742Y-10778420D01*
G01X17572720Y-10800977D01*
G01X17586038Y-10821738D01*
G01X17602381Y-10840212D01*
G01X17621363Y-10855962D01*
G01X17642535Y-10868615D01*
G01X17665397Y-10877874D01*
G01X17689408Y-10883518D01*
G01X17714000Y-10885414D01*
G01X17714000Y-10885414D01*
G01X17738592Y-10883518D01*
G01X17762603Y-10877874D01*
G01X17785465Y-10868615D01*
G01X17806637Y-10855962D01*
G01X17825619Y-10840212D01*
G01X17841962Y-10821738D01*
G01X17855280Y-10800977D01*
G01X17865258Y-10778420D01*
G01X17871659Y-10754600D01*
G01X17874334Y-10730080D01*
G01X17873217Y-10705440D01*
G01X17868336Y-10681263D01*
G01X17859807Y-10658119D01*
G01X17847830Y-10636557D01*
G01X17832689Y-10617086D01*
G01X17814743Y-10600166D01*
G01X17794414Y-10586197D01*
G01X17794414Y-9919414D01*
G01X17817000Y-9919414D01*
G01X17830443Y-9917899D01*
G01X17843213Y-9913431D01*
G01X17854668Y-9906234D01*
G01X17864234Y-9896667D01*
G01X17871431Y-9885213D01*
G01X17875899Y-9872443D01*
G01X17877414Y-9859000D01*
G01X17877414Y-9659000D01*
G01X17875899Y-9645557D01*
G01X17871431Y-9632787D01*
G01X17864234Y-9621333D01*
G01X17854668Y-9611767D01*
G01X17843213Y-9604569D01*
G01X17830443Y-9600101D01*
G01X17817000Y-9598586D01*
G01X17793414Y-9598586D01*
G01X17793414Y-8678184D01*
G01X17799244Y-8660688D01*
G01X17801404Y-8642373D01*
G01X17799802Y-8624001D01*
G01X17794505Y-8606336D01*
G01X17785734Y-8590113D01*
G01X17773854Y-8576008D01*
G01X17759360Y-8564606D01*
G01X17742853Y-8556383D01*
G01X17725021Y-8551680D01*
G01X17706605Y-8550693D01*
G01X17688373Y-8553463D01*
G01X17671082Y-8559876D01*
G01X17655451Y-8569663D01*
G01X17642132Y-8582418D01*
G01X17631678Y-8597610D01*
G01X17624524Y-8614608D01*
G01X17620968Y-8632704D01*
G01X17621157Y-8651145D01*
G01X17625085Y-8669163D01*
G01X17632586Y-8686010D01*
G01X17632586Y-9598586D01*
G01X17617000Y-9598586D01*
G01X17603557Y-9600101D01*
G01X17590788Y-9604569D01*
G01X17579333Y-9611767D01*
G01X17569767Y-9621333D01*
G01X17562569Y-9632787D01*
G01X17558101Y-9645557D01*
G01X17556586Y-9659000D01*
G01X17556586Y-9859000D01*
G01X17558101Y-9872443D01*
G01X17562569Y-9885213D01*
G01X17569767Y-9896667D01*
G01X17579333Y-9906234D01*
G01X17590788Y-9913431D01*
G01X17603557Y-9917899D01*
G01X17617000Y-9919414D01*
G01X17633586Y-9919414D01*
G01X17633586Y-10586197D01*
G01X17613258Y-10600166D01*
G01X17595311Y-10617086D01*
G01X17580170Y-10636557D01*
G01X17568193Y-10658119D01*
G01X17559664Y-10681263D01*
G01X17554783Y-10705440D01*
G01X17553667Y-10730080D01*
G01X17540414Y-10730080D01*
G01X17540414Y-9381421D01*
G01X17538685Y-9359455D01*
G01X17533541Y-9338031D01*
G01X17525110Y-9317675D01*
G01X17513597Y-9298889D01*
G01X17499288Y-9282134D01*
G01X17429577Y-9212424D01*
G01X17421198Y-9205995D01*
G01X17411439Y-9201958D01*
G01X17400968Y-9200586D01*
G01X16841414Y-9200586D01*
G01X16841414Y-8231414D01*
G01X17400955Y-8231414D01*
G01X17411496Y-8230027D01*
G01X17421311Y-8225939D01*
G01X17429720Y-8219433D01*
G01X17499375Y-8149075D01*
G01X17508426Y-8141578D01*
G01X17518774Y-8136005D01*
G01X17530015Y-8132572D01*
G01X17541711Y-8131414D01*
G01X18469580Y-8131414D01*
G01X18481204Y-8132559D01*
G01X18492381Y-8135949D01*
G01X18502683Y-8141455D01*
G01X18511712Y-8148866D01*
G01X18653134Y-8290288D01*
G01X18669083Y-8304008D01*
G01X18686904Y-8315191D01*
G01X18706195Y-8323586D01*
G01X18367166Y-8323586D01*
G01X18239790Y-8196210D01*
G01X18226621Y-8185858D01*
G01X18211380Y-8178910D01*
G01X18194928Y-8175759D01*
G01X18178927Y-8165380D01*
G01X18161105Y-8158588D01*
G01X18142255Y-8155686D01*
G01X18123215Y-8156803D01*
G01X18104833Y-8161889D01*
G01X18087927Y-8170718D01*
G01X18073249Y-8182897D01*
G01X18061453Y-8197884D01*
G01X18053062Y-8215012D01*
G01X18048452Y-8233519D01*
G01X18047826Y-8252581D01*
G01X18051213Y-8271350D01*
G01X18058461Y-8288992D01*
G01X18069249Y-8304720D01*
G01X18083097Y-8317835D01*
G01X18099387Y-8327754D01*
G01X18117396Y-8334035D01*
G01X18136321Y-8336398D01*
G01X18155321Y-8334739D01*
G01X18173551Y-8329131D01*
G01X18288210Y-8443790D01*
G01X18298880Y-8452547D01*
G01X18311054Y-8459054D01*
G01X18324263Y-8463061D01*
G01X18338000Y-8464414D01*
G01X19266000Y-8464414D01*
G01X19279737Y-8463061D01*
G01X19292946Y-8459054D01*
G01X19305120Y-8452547D01*
G01X19315790Y-8443790D01*
G01X19339790Y-8419790D01*
G01X19348547Y-8409120D01*
G01X19355054Y-8396946D01*
G01X19359061Y-8383737D01*
G01X19360414Y-8370000D01*
G01X19360414Y-6919347D01*
G01X19368634Y-6904350D01*
G01X19373702Y-6888016D01*
G01X19375414Y-6871000D01*
G01X19375414Y-6715360D01*
G01X19400042Y-6717411D01*
G01X19424692Y-6715655D01*
G01X19448780Y-6710133D01*
G01X19471734Y-6700977D01*
G01X19493009Y-6688404D01*
G01X19480194Y-6709920D01*
G01X19470883Y-6733169D01*
G01X19465305Y-6757583D01*
G01X19463594Y-6782568D01*
G01X19465793Y-6807515D01*
G01X19471848Y-6831816D01*
G01X19481611Y-6854878D01*
G01X19494845Y-6876140D01*
G01X19511227Y-6895083D01*
G01X19530358Y-6911245D01*
G01X19551771Y-6924232D01*
G01X19574944Y-6933729D01*
G01X19599313Y-6939503D01*
G01X19624284Y-6941414D01*
G01X19649248Y-6939414D01*
G01X19673596Y-6933554D01*
G01X19696736Y-6923976D01*
G01X19718103Y-6910913D01*
G01X19737176Y-6894683D01*
G01X19753491Y-6875683D01*
G01X19766649Y-6854374D01*
G01X19776331Y-6831278D01*
G01X19782300Y-6806956D01*
G01X19784411Y-6782001D01*
G01X19782612Y-6757022D01*
G01X19776947Y-6732627D01*
G01X19767554Y-6709412D01*
G01X19754662Y-6687941D01*
G01X19738586Y-6668738D01*
G01X19719717Y-6652272D01*
G01X19698515Y-6638943D01*
G01X19675497Y-6629076D01*
G01X19651223Y-6622913D01*
G01X19626286Y-6620602D01*
G01X19601293Y-6622201D01*
G01X19576854Y-6627671D01*
G01X19553564Y-6636877D01*
G01X19531991Y-6649596D01*
G01X19544580Y-6628536D01*
G01X19553811Y-6605801D01*
G01X19559466Y-6581925D01*
G01X19561413Y-6557466D01*
G01X19559608Y-6532995D01*
G01X19554091Y-6509087D01*
G01X19544993Y-6486299D01*
G01X19532526Y-6465166D01*
G01X19516982Y-6446181D01*
G01X19498724Y-6429789D01*
G01X19478179Y-6416373D01*
G01X19455829Y-6406247D01*
G01X19432196Y-6399649D01*
G01X19407834Y-6396732D01*
G01X19383311Y-6397564D01*
G01X19359202Y-6402127D01*
G01X19336071Y-6410314D01*
G01X19314460Y-6421932D01*
G01X19294873Y-6436710D01*
G01X19277769Y-6454303D01*
G01X19263548Y-6474299D01*
G01X19252543Y-6496229D01*
G01X19245011Y-6519581D01*
G01X19241129Y-6543809D01*
G01X19240988Y-6568346D01*
G01X19244590Y-6592616D01*
G01X19229603Y-6607603D01*
G01X19218981Y-6620546D01*
G01X19211088Y-6635313D01*
G01X19206227Y-6651336D01*
G01X19204586Y-6668000D01*
G01X19204586Y-6871000D01*
G01X19206298Y-6888016D01*
G01X19211366Y-6904350D01*
G01X19219586Y-6919347D01*
G01X19219586Y-8323586D01*
G01X19116228Y-8323586D01*
G01X19136069Y-8314899D01*
G01X19154339Y-8303263D01*
G01X19170602Y-8288956D01*
G01X19184471Y-8272317D01*
G01X19195615Y-8253744D01*
G01X19203771Y-8233678D01*
G01X19208743Y-8212596D01*
G01X19210414Y-8191000D01*
G01X19208936Y-8170683D01*
G01X19204535Y-8150795D01*
G01X19197302Y-8131752D01*
G01X19187389Y-8113956D01*
G01X19175007Y-8097782D01*
G01X19160414Y-8083570D01*
G01X19160414Y-6404000D01*
G01X19161908Y-6390741D01*
G01X19166315Y-6378147D01*
G01X19173414Y-6366849D01*
G01X19182849Y-6357414D01*
G01X19194147Y-6350315D01*
G01X19206741Y-6345908D01*
G01X19220000Y-6344414D01*
G01X19991000Y-6344414D01*
G01X20004259Y-6345908D01*
G01X20016853Y-6350315D01*
G01X20028151Y-6357414D01*
G01X20037586Y-6366849D01*
G01X20044685Y-6378147D01*
G01X20049092Y-6390741D01*
G01X20050586Y-6404000D01*
G01X20050586Y-7033000D01*
G01X20049092Y-7046259D01*
G01X20044685Y-7058853D01*
G01X20037586Y-7070151D01*
G01X20028151Y-7079586D01*
G01X20016853Y-7086685D01*
G01X20004259Y-7091092D01*
G01X19991000Y-7092586D01*
G01X19530000Y-7092586D01*
G01X19508034Y-7094315D01*
G01X19486610Y-7099458D01*
G01X19466253Y-7107890D01*
G01X19447467Y-7119403D01*
G01X19430712Y-7133712D01*
G01X19416403Y-7150467D01*
G01X19404890Y-7169253D01*
G01X19396458Y-7189610D01*
G01X19391315Y-7211034D01*
G01X19389586Y-7233000D01*
G01X19389586Y-8158578D01*
G01X19391315Y-8180544D01*
G01X19396458Y-8201969D01*
G01X19404890Y-8222325D01*
G01X19416403Y-8241112D01*
G01X19430712Y-8257866D01*
G01X19642432Y-8469586D01*
G01X18023166Y-8469586D01*
G01X17895690Y-8342110D01*
G01X17885020Y-8333353D01*
G01X17872846Y-8326846D01*
G01X17859637Y-8322839D01*
G01X17845900Y-8321486D01*
G01X17717715Y-8321486D01*
G01X17703150Y-8311912D01*
G01X17687019Y-8305311D01*
G01X17669920Y-8301927D01*
G01X17652491Y-8301887D01*
G01X17635377Y-8305193D01*
G01X17619216Y-8311720D01*
G01X17604608Y-8321227D01*
G01X17592095Y-8333361D01*
G01X17582143Y-8347670D01*
G01X17575122Y-8363623D01*
G01X17571292Y-8380627D01*
G01X17553044Y-8383048D01*
G01X17535665Y-8389115D01*
G01X17519875Y-8398577D01*
G01X17506329Y-8411040D01*
G01X17495587Y-8425988D01*
G01X17488096Y-8442802D01*
G01X17484165Y-8460785D01*
G01X17483958Y-8479192D01*
G01X17487483Y-8497259D01*
G01X17494594Y-8514237D01*
G01X17504997Y-8529423D01*
G01X17518260Y-8542188D01*
G01X17533833Y-8552002D01*
G01X17551071Y-8558458D01*
G01X17569260Y-8561290D01*
G01X17587645Y-8560378D01*
G01X17605464Y-8555762D01*
G01X17621979Y-8547633D01*
G01X17636506Y-8536327D01*
G01X17648442Y-8522314D01*
G01X17816734Y-8522314D01*
G01X17920210Y-8625790D01*
G01X17930880Y-8634547D01*
G01X17943054Y-8641054D01*
G01X17956263Y-8645061D01*
G01X17970000Y-8646414D01*
G01X19617834Y-8646414D01*
G01X19624006Y-8652586D01*
G01X17993000Y-8652586D01*
G01X17980014Y-8653794D01*
G01X17967473Y-8657376D01*
G01X17955808Y-8663210D01*
G01X17945419Y-8671095D01*
G01X17926845Y-8675082D01*
G01X17909515Y-8682860D01*
G01X17894192Y-8694089D01*
G01X17881554Y-8708271D01*
G01X17872158Y-8724780D01*
G01X17866419Y-8742889D01*
G01X17864590Y-8761796D01*
G01X17866751Y-8780669D01*
G01X17854002Y-8792288D01*
G01X17843692Y-8806116D01*
G01X17836195Y-8821650D01*
G01X17831785Y-8838326D01*
G01X17830622Y-8855536D01*
G01X17832748Y-8872653D01*
G01X17838086Y-8889055D01*
G01X17846442Y-8904145D01*
G01X17857512Y-8917374D01*
G01X17870892Y-8928259D01*
G01X17886097Y-8936405D01*
G01X17902571Y-8941516D01*
G01X17919716Y-8943405D01*
G01X17936908Y-8942003D01*
G01X17953521Y-8937363D01*
G01X17968950Y-8929651D01*
G01X17982634Y-8919150D01*
G01X17994075Y-8906242D01*
G01X17997784Y-8902790D01*
G01X18063161Y-8837414D01*
G01X19623834Y-8837414D01*
G01X19918586Y-9132166D01*
G01X19918586Y-12231833D01*
G01X18943834Y-13206586D01*
G01X16471000Y-13206586D01*
G01X16457263Y-13207939D01*
G01X16444054Y-13211946D01*
G01X16431880Y-13218453D01*
G01X16421210Y-13227210D01*
G01X16227313Y-13421106D01*
G01X16209265Y-13424945D01*
G01X16192372Y-13432368D01*
G01X16177337Y-13443066D01*
G01X16164788Y-13456594D01*
G01X16155246Y-13472387D01*
G01X16149109Y-13489789D01*
G01X16146634Y-13508074D01*
G01X16147921Y-13526481D01*
G01X16152920Y-13544244D01*
G01X16161420Y-13560621D01*
G01X16173068Y-13574932D01*
G01X16187379Y-13586580D01*
G01X16203756Y-13595080D01*
G01X16221519Y-13600078D01*
G01X16239926Y-13601366D01*
G01X16258211Y-13598890D01*
G01X16275613Y-13592754D01*
G01X16291406Y-13583212D01*
G01X16304934Y-13570663D01*
G01X16315632Y-13555628D01*
G01X16323055Y-13538735D01*
G01X16326893Y-13520687D01*
G01X16500166Y-13347414D01*
G01X16773006Y-13347414D01*
G01X16619313Y-13501107D01*
G01X16601265Y-13504945D01*
G01X16584372Y-13512368D01*
G01X16569337Y-13523066D01*
G01X16556788Y-13536594D01*
G01X16547246Y-13552387D01*
G01X16541109Y-13569789D01*
G01X16538634Y-13588074D01*
G01X16539921Y-13606481D01*
G01X16544920Y-13624244D01*
G01X16553420Y-13640621D01*
G01X16565068Y-13654932D01*
G01X16579379Y-13666580D01*
G01X16595756Y-13675080D01*
G01X16613519Y-13680079D01*
G01X16631926Y-13681366D01*
G01X16650211Y-13678891D01*
G01X16667613Y-13672754D01*
G01X16683406Y-13663212D01*
G01X16696934Y-13650663D01*
G01X16707632Y-13635628D01*
G01X16715055Y-13618735D01*
G01X16718893Y-13600687D01*
G01X16908166Y-13411414D01*
G01X18978000Y-13411414D01*
G01X18991737Y-13410061D01*
G01X19004946Y-13406054D01*
G01X19017120Y-13399547D01*
G01X19027790Y-13390790D01*
G01X20079790Y-12338790D01*
G01X20088547Y-12328120D01*
G01X20095054Y-12315946D01*
G01X20099061Y-12302737D01*
G01X20100414Y-12289000D01*
G01X20100414Y-9128994D01*
G01X20218210Y-9246790D01*
G01X20228880Y-9255547D01*
G01X20241054Y-9262054D01*
G01X20254263Y-9266061D01*
G01X20268000Y-9267414D01*
G01X20282672Y-9267414D01*
G01X20298365Y-9275319D01*
G01X20315291Y-9280039D01*
G01X20332811Y-9281396D01*
G01X20350262Y-9279338D01*
G01X20366985Y-9273944D01*
G01X20382349Y-9265417D01*
G01X20395774Y-9254079D01*
G01X20406752Y-9240359D01*
G01X20414869Y-9224774D01*
G01X20419818Y-9207913D01*
G01X20421412Y-9190414D01*
G01X20453848Y-9190414D01*
G01X20467159Y-9202882D01*
G01X20482701Y-9212426D01*
G01X20499841Y-9218656D01*
G01X20517884Y-9221320D01*
G01X20536094Y-9220309D01*
G01X20553731Y-9215663D01*
G01X20570076Y-9207573D01*
G01X20584465Y-9196366D01*
G01X20596313Y-9182501D01*
G01X20605136Y-9166539D01*
G01X20610577Y-9149131D01*
G01X20612414Y-9130986D01*
G01X20610572Y-9112841D01*
G01X20605125Y-9095435D01*
G01X20596297Y-9079476D01*
G01X20584445Y-9065614D01*
G01X20570052Y-9054412D01*
G01X20553704Y-9046327D01*
G01X20536066Y-9041687D01*
G01X20517856Y-9040681D01*
G01X20499814Y-9043350D01*
G01X20482675Y-9049586D01*
G01X20272166Y-9049586D01*
G01X20254954Y-9032374D01*
G01X21004646Y-9032374D01*
G01X21007104Y-9056309D01*
G01X21013114Y-9079608D01*
G01X21022542Y-9101746D01*
G01X21035175Y-9122224D01*
G01X21050729Y-9140582D01*
G01X21068854Y-9156408D01*
G01X21089142Y-9169344D01*
G01X21111137Y-9179101D01*
G01X21134344Y-9185457D01*
G01X21158240Y-9188271D01*
G01X21141226Y-9205957D01*
G01X21127109Y-9226031D01*
G01X21116220Y-9248024D01*
G01X21108812Y-9271420D01*
G01X21105060Y-9295672D01*
G01X21105052Y-9320213D01*
G01X21108786Y-9344468D01*
G01X21116177Y-9367870D01*
G01X21127051Y-9389870D01*
G01X21141153Y-9409954D01*
G01X21158154Y-9427652D01*
G01X21177656Y-9442550D01*
G01X21199202Y-9454298D01*
G01X21222288Y-9462623D01*
G01X21246373Y-9467329D01*
G01X21270895Y-9468305D01*
G01X21295278Y-9465530D01*
G01X21318953Y-9459068D01*
G01X21318953Y-9459068D01*
G01X21341365Y-9449071D01*
G01X21361990Y-9435772D01*
G01X21380345Y-9419482D01*
G01X21396000Y-9400583D01*
G01X21408589Y-9379517D01*
G01X21417818Y-9356778D01*
G01X21423470Y-9332897D01*
G01X21425413Y-9308433D01*
G01X21423602Y-9283959D01*
G01X21418079Y-9260048D01*
G01X21408973Y-9237259D01*
G01X21396498Y-9216125D01*
G01X21380945Y-9197142D01*
G01X21362678Y-9180754D01*
G01X21342126Y-9167343D01*
G01X21319768Y-9157225D01*
G01X21296128Y-9150635D01*
G01X21271760Y-9147729D01*
G01X21288077Y-9130882D01*
G01X21301763Y-9111836D01*
G01X21312526Y-9090998D01*
G01X21320135Y-9068813D01*
G01X21324428Y-9045756D01*
G01X21325313Y-9022319D01*
G01X21322772Y-8999004D01*
G01X21316857Y-8976309D01*
G01X21307697Y-8954718D01*
G01X21295486Y-8934694D01*
G01X21280486Y-8916665D01*
G01X21305465Y-8912226D01*
G01X21329431Y-8903905D01*
G01X21351786Y-8891910D01*
G01X21371970Y-8876540D01*
G01X21389479Y-8858181D01*
G01X21403874Y-8837290D01*
G01X21414796Y-8814392D01*
G01X21421971Y-8790058D01*
G01X21425219Y-8764897D01*
G01X21424461Y-8739538D01*
G01X21419713Y-8714617D01*
G01X21411096Y-8690755D01*
G01X21398825Y-8668550D01*
G01X21383207Y-8648558D01*
G01X21364632Y-8631278D01*
G01X21343565Y-8617142D01*
G01X21320533Y-8606505D01*
G01X21296112Y-8599632D01*
G01X21270913Y-8596695D01*
G01X21245565Y-8597768D01*
G01X21220704Y-8602823D01*
G01X21196951Y-8611735D01*
G01X21174900Y-8624280D01*
G01X21155103Y-8640144D01*
G01X21138054Y-8658932D01*
G01X21124180Y-8680172D01*
G01X21113829Y-8703334D01*
G01X21107259Y-8727839D01*
G01X21104634Y-8753072D01*
G01X21106020Y-8778404D01*
G01X21111383Y-8803201D01*
G01X21120588Y-8826842D01*
G01X21133405Y-8848736D01*
G01X21149514Y-8868335D01*
G01X21125806Y-8872448D01*
G01X21102981Y-8880060D01*
G01X21081550Y-8891001D01*
G01X21061998Y-8905024D01*
G01X21044762Y-8921814D01*
G01X21030232Y-8940993D01*
G01X21018734Y-8962129D01*
G01X21010527Y-8984748D01*
G01X21005796Y-9008340D01*
G01X21004646Y-9032374D01*
G01X20254954Y-9032374D01*
G01X19972725Y-8750144D01*
G01X19981421Y-8750414D01*
G01X20799580Y-8750414D01*
G01X20821545Y-8748685D01*
G01X20842969Y-8743541D01*
G01X20863325Y-8735109D01*
G01X20882111Y-8723597D01*
G01X20898866Y-8709288D01*
G01X21199287Y-8408867D01*
G01X21213597Y-8392112D01*
G01X21225110Y-8373326D01*
G01X21233542Y-8352969D01*
G01X21238686Y-8331544D01*
G01X21240414Y-8309577D01*
G01X21240414Y-8207000D01*
G01X21255586Y-8207000D01*
G01X21257561Y-8232094D01*
G01X21263437Y-8256571D01*
G01X21273070Y-8279826D01*
G01X21286223Y-8301289D01*
G01X21302570Y-8320430D01*
G01X21321711Y-8336778D01*
G01X21343174Y-8349930D01*
G01X21366429Y-8359563D01*
G01X21390906Y-8365439D01*
G01X21416000Y-8367414D01*
G01X21441094Y-8365439D01*
G01X21465571Y-8359563D01*
G01X21488826Y-8349930D01*
G01X21510289Y-8336778D01*
G01X21529430Y-8320430D01*
G01X21545778Y-8301289D01*
G01X21558930Y-8279826D01*
G01X21568563Y-8256571D01*
G01X21574439Y-8232094D01*
G01X21576414Y-8207000D01*
G01X21576414Y-8207000D01*
G01X21574439Y-8181906D01*
G01X21568563Y-8157429D01*
G01X21558930Y-8134174D01*
G01X21545778Y-8112711D01*
G01X21529430Y-8093570D01*
G01X21510289Y-8077223D01*
G01X21488826Y-8064070D01*
G01X21465571Y-8054437D01*
G01X21441094Y-8048561D01*
G01X21416000Y-8046586D01*
G01X21390906Y-8048561D01*
G01X21366429Y-8054437D01*
G01X21343174Y-8064070D01*
G01X21321711Y-8077223D01*
G01X21302570Y-8093570D01*
G01X21286223Y-8112711D01*
G01X21273070Y-8134174D01*
G01X21263437Y-8157429D01*
G01X21257561Y-8181906D01*
G01X21255586Y-8207000D01*
G01X21240414Y-8207000D01*
G01X21240414Y-8050000D01*
G01X21241698Y-8045207D01*
G01X21245207Y-8041698D01*
G01X21250000Y-8040414D01*
G01X21573033Y-8040414D01*
G01X21577824Y-8041697D01*
G01X21581332Y-8045203D01*
G01X21582619Y-8049994D01*
G01X21583521Y-9435961D01*
G01X21582034Y-9449227D01*
G01X21577632Y-9461828D01*
G01X21570535Y-9473134D01*
G01X21561099Y-9482576D01*
G01X21549798Y-9489680D01*
G01X21537199Y-9494091D01*
G01X21523935Y-9495586D01*
G01X20405430Y-9495586D01*
G01X20391218Y-9480993D01*
G01X20375044Y-9468611D01*
G01X20357248Y-9458699D01*
G01X20338205Y-9451466D01*
G01X20318317Y-9447064D01*
G01X20298000Y-9445586D01*
G01X20276035Y-9447315D01*
G01X20254610Y-9452458D01*
G01X20234254Y-9460890D01*
G01X20215467Y-9472403D01*
G01X20198713Y-9486712D01*
G01X20184403Y-9503467D01*
G01X20172890Y-9522253D01*
G01X20164458Y-9542610D01*
G01X20159315Y-9564034D01*
G01X20157586Y-9586000D01*
G01X20157586Y-12303829D01*
G01X20156441Y-12315453D01*
G01X20153050Y-12326631D01*
G01X20147544Y-12336933D01*
G01X20140134Y-12345962D01*
G01X18722666Y-13763430D01*
G01X18710345Y-13772887D01*
G01X18696000Y-13778840D01*
G01X18680604Y-13780886D01*
G01X18373036Y-13780884D01*
G01X18373056Y-13752994D01*
G01X18372269Y-13749013D01*
G01X18370019Y-13745635D01*
G01X18196376Y-13571399D01*
G01X18192892Y-13569091D01*
G01X18188781Y-13568338D01*
G01X17654781Y-13579588D01*
G01X17649703Y-13581034D01*
G01X17645987Y-13584783D01*
G01X17644587Y-13589873D01*
G01X17639712Y-13989586D01*
G01X11930414Y-13989586D01*
G01X11930414Y-13563000D01*
G01X11929015Y-13557787D01*
G01X11925195Y-13553974D01*
G01X11919979Y-13552586D01*
G37*
G36*
G01X12750067Y-8634586D02*
G01X12630470Y-8634586D01*
G01X12630470Y-8607500D01*
G01X12629249Y-8595414D01*
G01X12951890Y-8595414D01*
G01X12959266Y-8602790D01*
G01X12969936Y-8611547D01*
G01X12982110Y-8618054D01*
G01X12995319Y-8622061D01*
G01X13009056Y-8623414D01*
G01X13492655Y-8623414D01*
G01X13483298Y-8628518D01*
G01X13474534Y-8634586D01*
G01X12750067Y-8634586D01*
G37*
G36*
G01X13621586Y-8661468D02*
G01X13610034Y-8646151D01*
G01X13595780Y-8633310D01*
G01X13579345Y-8623414D01*
G01X13601890Y-8623414D01*
G01X13621586Y-8643110D01*
G01X13621586Y-8661468D01*
G37*
G54D10*
G01X11919979Y-13552586D02*
G01X11690414Y-13553045D01*
G01X11690414Y-8850000D01*
G02X11750000Y-8790414I59586J0D01*
G01X13470842Y-8790414D01*
G03X13621586Y-8766532I65158J76414D01*
G01X13621586Y-8767944D01*
G03X13642210Y-8817734I70414J0D01*
G01X13759266Y-8934790D01*
G03X13809056Y-8955414I49790J49790D01*
G01X15545890Y-8955414D01*
G01X15586642Y-8996166D01*
G01X15586642Y-9735000D01*
G03X15607266Y-9784790I70414J0D01*
G01X15627642Y-9805166D01*
G01X15627642Y-10473217D01*
G03X15713056Y-10769414I85414J-135783D01*
G03X15798470Y-10473217I0J160414D01*
G01X15798470Y-9791000D01*
G03X15728660Y-9707024I-85414J0D01*
G01X15727470Y-9705834D01*
G01X15727470Y-9636116D01*
G03X15840969Y-9598873I35586J83116D01*
G03X15818470Y-9481558I-77912J45873D01*
G01X15818470Y-8952000D01*
G03X15797846Y-8902210I-70414J0D01*
G01X15758050Y-8862414D01*
G01X15977056Y-8862414D01*
G03X16026846Y-8841790I0J70414D01*
G01X16090443Y-8778193D01*
G03X16136453Y-8754397I-14387J84194D01*
G01X16139453Y-8751397D01*
G03X16164470Y-8691000I-60397J60397D01*
G01X16164470Y-7761859D01*
G03X16310748Y-7490837I33586J156859D01*
G03X16041646Y-7640617I-112692J-114163D01*
G01X16018659Y-7663603D01*
G03X15993642Y-7724000I60397J-60397D01*
G01X15993642Y-8671561D01*
G03X15992319Y-8677156I82414J-22438D01*
G01X15947890Y-8721586D01*
G01X13864222Y-8721586D01*
G01X13836414Y-8693778D01*
G01X13836414Y-8537944D01*
G03X13815790Y-8488154I-70414J0D01*
G01X13734846Y-8407210D01*
G03X13685056Y-8386586I-49790J-49790D01*
G01X13458283Y-8386586D01*
G03X13419108Y-8286448I-87283J23586D01*
G03X13311888Y-8294586I-48108J-76552D01*
G01X13269166Y-8294586D01*
G01X13247790Y-8273210D01*
G03X13238521Y-8265414I-49790J-49790D01*
G01X13831061Y-8265414D01*
G02X13890642Y-8324997I2J-59579D01*
G01X13890642Y-8467523D01*
G03X13840586Y-8575000I90359J-107479D01*
G01X13840665Y-8577523D01*
G03X13981056Y-8715414I140391J2522D01*
G01X15779054Y-8715414D01*
G03X15919470Y-8574998I6J140410D01*
G01X15919391Y-8572478D01*
G03X15869470Y-8467616I-140391J-2522D01*
G01X15869470Y-7495002D01*
G02X15929014Y-7435414I59590J-2D01*
G01X16804084Y-7435414D01*
G03X16944478Y-7295017I-117J140512D01*
G03X16894470Y-7187579I-140413J0D01*
G01X16894470Y-5749999D01*
G02X16954012Y-5690414I59583J2D01*
G01X17379055Y-5690414D01*
G02X17438610Y-5752071I-2J-59593D01*
G01X17438587Y-5753428D01*
G01X17438642Y-7443911D01*
G02X17424911Y-7481964I-59586J-2D01*
G01X17087936Y-7888062D01*
G02X17042091Y-7909586I-45844J38060D01*
G01X16620479Y-7909586D01*
G03X16521189Y-7950714I-6J-140404D01*
G01X16379768Y-8092134D01*
G03X16338642Y-8191421I99287J-99288D01*
G01X16338642Y-8900999D01*
G02X16279055Y-8960586I-59589J2D01*
G01X16195479Y-8960586D01*
G03X16096189Y-9001713I-6J-140404D01*
G01X15954768Y-9143134D01*
G03X15913642Y-9242422I99288J-99288D01*
G01X15913642Y-10830000D01*
G02X15904056Y-10839586I-9586J0D01*
G01X15529062Y-10839586D01*
G02X15519470Y-10829994I1J9593D01*
G01X15519470Y-10057605D01*
G03X15569464Y-9950246I-90427J107429D01*
G03X15429102Y-9809586I-140511J148D01*
G01X12859000Y-9809586D01*
G02X12799414Y-9750000I0J59586D01*
G01X12799414Y-9100000D01*
G02X12809000Y-9090414I9586J0D01*
G01X12908198Y-9090414D01*
G03X13009247Y-9375414I101049J-124586D01*
G03X13110295Y-9090414I0J160414D01*
G01X13229056Y-9090414D01*
G02X13238642Y-9100000I0J-9586D01*
G01X13238642Y-9392523D01*
G03X13188586Y-9500000I90359J-107478D01*
G01X13188665Y-9502522D01*
G03X13328807Y-9640414I140391J2522D01*
G01X15429243Y-9640414D01*
G03X15569420Y-9499997I-250J140427D01*
G03X15569333Y-9497341I-40414J3D01*
G03X15519470Y-9392663I-140388J-2658D01*
G01X15519470Y-9208383D01*
G03X15569390Y-9103540I-90470J107383D01*
G03X15569470Y-9101000I-40334J2539D01*
G03X15429056Y-8960586I-140414J0D01*
G01X12079000Y-8960586D01*
G03X11938586Y-9101000I-0J-140414D01*
G03X11988586Y-9208431I140413J-0D01*
G01X11988586Y-11851569D01*
G03X11938586Y-11959000I90414J-107431D01*
G03X12078998Y-12100714I140457J-1252D01*
G01X12080261Y-12100693D01*
G03X12186812Y-12050714I-870J140423D01*
G01X13950950Y-12050714D01*
G03X14041364Y-11960300I-0J90414D01*
G01X14041364Y-11940300D01*
G03X14035563Y-11919438I-40414J0D01*
G02X14242121Y-11919438I103279J62247D01*
G03X14236536Y-11944472I34613J-20862D01*
G01X14236536Y-11960300D01*
G03X14326950Y-12050714I90414J0D01*
G01X17201950Y-12050714D01*
G03X17289664Y-11982228I-0J90414D01*
G03X17304743Y-11992976I100493J125035D01*
G01X17304743Y-11998614D01*
G03X17329760Y-12059011I85414J0D01*
G01X17424157Y-12153407D01*
G03X17474673Y-12183027I65843J54408D01*
G03X17521000Y-12200414I46327J53027D01*
G01X17844834Y-12200414D01*
G01X18024586Y-12380166D01*
G01X18024586Y-12625134D01*
G01X17959313Y-12690407D01*
G03X17905068Y-12844232I9687J-89893D01*
G03X18058894Y-12789987I63932J63932D01*
G01X18144790Y-12704090D01*
G03X18165414Y-12654300I-49790J49790D01*
G01X18165414Y-12351000D01*
G03X18144790Y-12301210I-70414J0D01*
G01X17923790Y-12080210D01*
G03X17874000Y-12059586I-49790J-49790D01*
G01X17566056Y-12059586D01*
G03X17550397Y-12038061I-76056J-38871D01*
G01X17492803Y-11980467D01*
G03X17502291Y-11971903I-102646J123274D01*
G01X17554630Y-12024242D01*
G03X17618575Y-12050725I63926J63909D01*
G01X17895530Y-12050714D01*
G02X17937662Y-12068166I2J-59580D01*
G01X18269083Y-12399587D01*
G03X18368372Y-12440714I99286J99281D01*
G01X19171056Y-12440714D01*
G03X19270344Y-12399587I0J140413D01*
G01X19483288Y-12186644D01*
G03X19524414Y-12087356I-99289J99288D01*
G01X19524414Y-12087000D01*
G03X19474414Y-11979570I-140415J-1D01*
G01X19474414Y-9348430D01*
G03X19524414Y-9241000I-90415J107431D01*
G03X19384000Y-9100586I-140414J0D01*
G01X18751421Y-9100586D01*
G03X18652134Y-9141712I3J-140420D01*
G01X18511712Y-9282134D01*
G02X18469579Y-9299586I-42133J42133D01*
G01X18024000Y-9299586D01*
G03X17883586Y-9440000I0J-140414D01*
G03X17933586Y-9547430I140415J2D01*
G01X17933586Y-10883000D01*
G02X17924000Y-10892586I-9586J0D01*
G01X17550000Y-10892586D01*
G02X17540414Y-10883000I0J9586D01*
G01X17540414Y-9381421D01*
G03X17499288Y-9282134I-140420J-3D01*
G01X17429577Y-9212424D01*
G03X17400968Y-9200586I-28578J-28576D01*
G01X16841414Y-9200586D01*
G01X16841414Y-8231414D01*
G01X17400955Y-8231414D01*
G03X17429720Y-8219433I45J40414D01*
G01X17499375Y-8149075D01*
G02X17541711Y-8131414I42329J-41896D01*
G01X18469580Y-8131414D01*
G02X18511712Y-8148866I2J-59580D01*
G01X18653134Y-8290288D01*
G03X18706195Y-8323586I99288J99291D01*
G01X18367166Y-8323586D01*
G01X18239790Y-8196210D01*
G03X18194928Y-8175759I-49790J-49790D01*
G03X18048452Y-8233519I-56928J-70241D01*
G03X18173551Y-8329131I89548J-12481D01*
G01X18288210Y-8443790D01*
G03X18338000Y-8464414I49790J49790D01*
G01X19266000Y-8464414D01*
G03X19315790Y-8443790I0J70414D01*
G01X19339790Y-8419790D01*
G03X19360414Y-8370000I-49790J49790D01*
G01X19360414Y-6919347D01*
G03X19375414Y-6871000I-70414J48347D01*
G01X19375414Y-6715360D01*
G03X19493009Y-6688404I25586J158360D01*
G03X19737176Y-6894683I130991J-92596D01*
G03X19531991Y-6649596I-113176J113683D01*
G03X19432196Y-6399649I-130991J92596D01*
G03X19244590Y-6592616I-31196J-157351D01*
G01X19229603Y-6607603D01*
G03X19204586Y-6668000I60397J-60397D01*
G01X19204586Y-6871000D01*
G03X19219586Y-6919347I85414J0D01*
G01X19219586Y-8323586D01*
G01X19116228Y-8323586D01*
G03X19210414Y-8191000I-46228J132586D01*
G03X19160414Y-8083570I-140415J-1D01*
G01X19160414Y-6404000D01*
G02X19220000Y-6344414I59586J0D01*
G01X19991000Y-6344414D01*
G02X20050586Y-6404000I0J-59586D01*
G01X20050586Y-7033000D01*
G02X19991000Y-7092586I-59586J0D01*
G01X19530000Y-7092586D01*
G03X19389586Y-7233000I0J-140414D01*
G01X19389586Y-8158578D01*
G03X19430712Y-8257866I140413J-1D01*
G01X19642432Y-8469586D01*
G01X18023166Y-8469586D01*
G01X17895690Y-8342110D01*
G03X17845900Y-8321486I-49790J-49790D01*
G01X17717715Y-8321486D01*
G03X17571292Y-8380627I-56715J-70414D01*
G03X17494594Y-8514237I2708J-90373D01*
G03X17648442Y-8522314I79405J43237D01*
G01X17816734Y-8522314D01*
G01X17920210Y-8625790D01*
G03X17970000Y-8646414I49790J49790D01*
G01X19617834Y-8646414D01*
G01X19624006Y-8652586D01*
G01X17993000Y-8652586D01*
G03X17945419Y-8671095I0J-70414D01*
G03X17866751Y-8780669I9581J-89905D01*
G03X17857512Y-8917374I54249J-72331D01*
G03X17994075Y-8906242I63488J64373D01*
G03X17997784Y-8902790I-46081J53242D01*
G01X18063161Y-8837414D01*
G01X19623834Y-8837414D01*
G01X19918586Y-9132166D01*
G01X19918586Y-12231833D01*
G01X18943834Y-13206586D01*
G01X16471000Y-13206586D01*
G03X16421210Y-13227210I0J-70414D01*
G01X16227313Y-13421106D01*
G03X16173068Y-13574932I9687J-89893D01*
G03X16326893Y-13520687I63932J63932D01*
G01X16500166Y-13347414D01*
G01X16773006Y-13347414D01*
G01X16619313Y-13501107D01*
G03X16565068Y-13654932I9687J-89893D01*
G03X16718893Y-13600687I63932J63932D01*
G01X16908166Y-13411414D01*
G01X18978000Y-13411414D01*
G03X19027790Y-13390790I0J70414D01*
G01X20079790Y-12338790D01*
G03X20100414Y-12289000I-49790J49790D01*
G01X20100414Y-9128994D01*
G01X20218210Y-9246790D01*
G03X20268000Y-9267414I49790J49790D01*
G01X20282672Y-9267414D01*
G03X20421412Y-9190414I48328J76414D01*
G01X20453848Y-9190414D01*
G03X20610577Y-9149131I68152J59414D01*
G03X20482675Y-9049586I-88577J18131D01*
G01X20272166Y-9049586D01*
G01X19972725Y-8750144D01*
G03X19981421Y-8750414I8697J140144D01*
G01X20799580Y-8750414D01*
G03X20898866Y-8709288I-4J140419D01*
G01X21199287Y-8408867D01*
G03X21240414Y-8309577I-99281J99286D01*
G01X21240414Y-8050000D01*
G02X21250000Y-8040414I9586J0D01*
G01X21573033Y-8040414D01*
G02X21582619Y-8049994I0J-9586D01*
G01X21583521Y-9435961D01*
G02X21523935Y-9495586I-59586J-39D01*
G01X20405430Y-9495586D01*
G03X20298000Y-9445586I-107431J-90415D01*
G03X20157586Y-9586000I-0J-140414D01*
G01X20157586Y-12303829D01*
G02X20140134Y-12345962I-59586J0D01*
G01X18722666Y-13763430D01*
G02X18680604Y-13780886I-42151J42162D01*
G01X18373036Y-13780884D01*
G01X18373056Y-13752994D01*
G03X18370019Y-13745635I-10414J8D01*
G01X18196376Y-13571399D01*
G03X18188781Y-13568338I-7376J-7351D01*
G01X17654781Y-13579588D01*
G03X17644587Y-13589873I219J-10412D01*
G01X17639712Y-13989586D01*
G01X11930414Y-13989586D01*
G01X11930414Y-13563000D01*
G03X11919979Y-13552586I-10414J0D01*
G01X14013765Y-12497714D02*
G03X14153963Y-12377124I1185J140414D01*
G03X14376109Y-12378294I111181J19933D01*
G03X14516141Y-12497714I138841J20994D01*
G01X15263759Y-12497714D01*
G03X15403967Y-12377090I1191J140414D01*
G03X15626114Y-12378326I111188J19898D01*
G03X15766141Y-12497714I138836J21026D01*
G01X16263765Y-12497714D01*
G03X16378067Y-12440499I1185J140414D01*
G03X16400165Y-12469042I137086J83307D01*
G01X16333620Y-12535586D01*
G01X13821000Y-12535586D01*
G03X13760603Y-12560603I0J-85414D01*
G01X13755936Y-12565271D01*
G03X13700778Y-12725962I23064J-97729D01*
G03X13869544Y-12706414I78222J62962D01*
G01X16369000Y-12706414D01*
G03X16429397Y-12681397I0J85414D01*
G01X16575550Y-12535244D01*
G03X16598305Y-12494372I-60397J60397D01*
G03X16652055Y-12440800I-83152J137180D01*
G03X16766141Y-12497714I112895J83500D01*
G01X17783769Y-12497714D01*
G03X17783769Y-12216886I1191J140414D01*
G01X16766141Y-12216886D01*
G03X16652128Y-12273702I-1191J-140414D01*
G03X16514977Y-12196778I-136975J-83490D01*
G03X16377995Y-12274004I176J-160414D01*
G03X16263765Y-12216886I-113045J-83296D01*
G01X15766141Y-12216886D01*
G03X15626132Y-12336154I-1191J-140414D01*
G03X15403950Y-12337390I-110978J-21038D01*
G03X15263759Y-12216886I-139000J-19910D01*
G01X14516141Y-12216886D01*
G03X14376128Y-12336186I-1191J-140414D01*
G03X14153945Y-12337355I-110984J-21006D01*
G03X14013765Y-12216886I-138995J-19945D01*
G01X12265135Y-12216886D01*
G03X12265135Y-12497714I-1185J-140414D01*
G01X14013765Y-12497714D01*
G01X14253105Y-11857193D02*
G03X14027197Y-11857193I-112954J0D01*
G03X14253105Y-11857193I112954J0D01*
G01X18116994Y-8879586D02*
G03X18067204Y-8900210I0J-70414D01*
G01X18043651Y-8923763D01*
G03X17963811Y-8962321I-5651J-90237D01*
G03X17835965Y-9018513I-40811J-80679D01*
G03X17915757Y-9133123I87035J-24487D01*
G03X17954000Y-9144414I38243J59123D01*
G01X18009353Y-9144414D01*
G03X18013106Y-9144514I3753J70314D01*
G01X18062894Y-9144514D01*
G03X18066647Y-9144414I0J70414D01*
G01X18081000Y-9144414D01*
G03X18130790Y-9123790I0J70414D01*
G01X18198166Y-9056414D01*
G01X19543834Y-9056414D01*
G01X19717586Y-9230166D01*
G01X19717586Y-12165834D01*
G01X18959834Y-12923586D01*
G01X15306000Y-12923586D01*
G03X15256210Y-12944210I0J-70414D01*
G01X14753813Y-13446607D01*
G03X14699568Y-13600432I9687J-89893D01*
G03X14853393Y-13546187I63932J63932D01*
G01X15335167Y-13064414D01*
G01X15642006Y-13064414D01*
G01X15204813Y-13501607D01*
G03X15150568Y-13655432I9687J-89893D01*
G03X15304393Y-13601187I63932J63932D01*
G01X15731166Y-13174414D01*
G01X18941000Y-13174414D01*
G03X18990790Y-13153790I0J70414D01*
G01X19888790Y-12255790D01*
G03X19909414Y-12206000I-49790J49790D01*
G01X19909414Y-9201000D01*
G03X19888790Y-9151210I-70414J0D01*
G01X19637790Y-8900210D01*
G03X19588000Y-8879586I-49790J-49790D01*
G01X18116994Y-8879586D01*
G01X17264056Y-5871586D02*
G03X17172749Y-6107000I0J-135414D01*
G03X17264056Y-6342414I91307J-100000D01*
G03X17355363Y-6107000I0J135414D01*
G03X17264056Y-5871586I-91307J100000D01*
G01X17714000Y-10885414D02*
G03X17794414Y-10586197I0J160414D01*
G01X17794414Y-9919414D01*
G01X17817000Y-9919414D01*
G03X17877414Y-9859000I0J60414D01*
G01X17877414Y-9659000D01*
G03X17817000Y-9598586I-60414J0D01*
G01X17793414Y-9598586D01*
G01X17793414Y-8678184D01*
G03X17706605Y-8550693I-82414J37184D01*
G03X17632586Y-8686010I4395J-90307D01*
G01X17632586Y-9598586D01*
G01X17617000Y-9598586D01*
G03X17556586Y-9659000I0J-60414D01*
G01X17556586Y-9859000D01*
G03X17617000Y-9919414I60414J0D01*
G01X17633586Y-9919414D01*
G01X17633586Y-10586197D01*
G03X17714000Y-10885414I80414J-138803D01*
G01X21318953Y-9459068D02*
G03X21271760Y-9147729I-53953J151069D01*
G03X21280486Y-8916665I-106760J119729D01*
G03X21320533Y-8606505I-15486J159665D01*
G03X21149514Y-8868335I-55533J-150495D01*
G03X21004646Y-9032374I15486J-159665D01*
G03X21158240Y-9188271I160354J4374D01*
G03X21318953Y-9459068I106760J-119729D01*
G01X21576414Y-8207000D02*
G03X21255586Y-8207000I-160414J0D01*
G03X21576414Y-8207000I160414J0D01*
G01X12750067Y-8634586D02*
G01X12630470Y-8634586D01*
G01X12630470Y-8607500D01*
G03X12629249Y-8595414I-60414J0D01*
G01X12951890Y-8595414D01*
G01X12959266Y-8602790D01*
G03X13009056Y-8623414I49790J49790D01*
G01X13492655Y-8623414D01*
G03X13474534Y-8634586I43345J-90586D01*
G01X12750067Y-8634586D01*
G01X13621586Y-8661468D02*
G03X13579345Y-8623414I-85586J-52532D01*
G01X13601890Y-8623414D01*
G01X13621586Y-8643110D01*
G01X13621586Y-8661468D01*
G54D11*
G01X14140151Y-11956939D02*
G01X14140151Y-11959987D01*
G01X14265144Y-12456938D02*
G01X14265144Y-12459986D01*
G01X14265144Y-12257446D02*
G01X14265144Y-12254398D01*
G01X15515155Y-12456938D02*
G01X15515155Y-12459986D01*
G01X15515155Y-12257446D02*
G01X15515155Y-12254398D01*
G04 Copper End*

G04 Pad Start*
G54D12*
G01X12370056Y-8275000D03*
G01X12370056Y-8325000D03*
G01X12370056Y-8375000D03*
G01X12370056Y-8425000D03*
G01X12370056Y-8475000D03*
G01X12370056Y-8525000D03*
G01X12370056Y-8575000D03*
G01X12370056Y-8625000D03*
G54D13*
G01X17714000Y-10725000D03*
G01X13009247Y-9215000D03*
G54D14*
G01X17717000Y-9759000D03*
G54D13*
G01X21265000Y-8757000D03*
G01X21165000Y-9028000D03*
G54D15*
G01X14235216Y-14220300D03*
G54D13*
G01X19624000Y-6781000D03*
G01X15713056Y-10609000D03*
G01X16198056Y-7605000D03*
G54D15*
G01X14596009Y-14220300D03*
G01X16309777Y-14220300D03*
G01X16129380Y-14220300D03*
G01X15227398Y-14220300D03*
G54D13*
G01X14265144Y-12357192D03*
G01X19401000Y-6557000D03*
G01X17390157Y-11857193D03*
G01X21416000Y-8207000D03*
G01X21265000Y-9308000D03*
G01X15515155Y-12357192D03*
G54D17*
G01X17264056Y-6007000D03*
G01X17264056Y-6207000D03*
G54D13*
G01X16515153Y-12357192D03*
G54D15*
G01X14415613Y-14220300D03*
G54D13*
G01X14140151Y-11857193D03*
G04 Pad End*

G04 Via Start*
G54D18*
G01X13779000Y-12663000D03*
G54D19*
G01X17711000Y-8641000D03*
G01X17969000Y-12780300D03*
G01X17923000Y-9043000D03*
G01X14763500Y-13536500D03*
G01X15214500Y-13591500D03*
G01X18038000Y-9014000D03*
G01X16237000Y-13511000D03*
G01X17921000Y-8853000D03*
G01X16622000Y-13182000D03*
G01X19703199Y-12755199D03*
G01X16287056Y-8894000D03*
G01X11816000Y-12737000D03*
G01X16009000Y-12181000D03*
G01X16970000Y-6966000D03*
G01X14554000Y-12537000D03*
G01X19547000Y-10312000D03*
G01X21506000Y-8638000D03*
G01X18059000Y-8914000D03*
G01X11710000Y-10596000D03*
G01X17588000Y-10117000D03*
G01X14719000Y-13711000D03*
G01X13149000Y-8387000D03*
G01X15178000Y-12083000D03*
G01X11964000Y-12170000D03*
G01X18713000Y-8636000D03*
G01X17041000Y-5773000D03*
G01X20285000Y-8997000D03*
G01X18670000Y-13706000D03*
G01X20136000Y-11825000D03*
G01X19899000Y-10008000D03*
G01X20815000Y-9463000D03*
G01X17582000Y-9539000D03*
G01X19396315Y-12301315D03*
G01X11917000Y-10111000D03*
G01X17859000Y-10861000D03*
G01X20136000Y-11024000D03*
G01X20012000Y-6411000D03*
G01X11917000Y-11216000D03*
G01X15716000Y-13319000D03*
G01X17625000Y-8759000D03*
G01X16160000Y-8210000D03*
G01X14897000Y-12186000D03*
G01X18294000Y-9175000D03*
G01X16171000Y-13269000D03*
G01X15548000Y-9321000D03*
G01X18280000Y-8235000D03*
G01X17835000Y-9541000D03*
G01X20602000Y-8789000D03*
G01X19728897Y-10722430D03*
G01X17547927Y-8919074D03*
G01X20058000Y-8829000D03*
G01X15667000Y-12081000D03*
G01X15872000Y-10791000D03*
G01X14965000Y-13948000D03*
G01X13458056Y-8613000D03*
G01X13151000Y-13744000D03*
G01X13182000Y-9413000D03*
G01X12979000Y-8812000D03*
G01X19888091Y-10590236D03*
G01X15956000Y-9033000D03*
G01X20261000Y-9365000D03*
G01X18387000Y-12704000D03*
G01X17764000Y-13185000D03*
G01X14841000Y-13218000D03*
G54D20*
G01X15102000Y-12780000D03*
G54D19*
G01X14506000Y-12087000D03*
G01X15866000Y-9807000D03*
G01X11710000Y-11683000D03*
G01X11917000Y-9362000D03*
G01X21498000Y-9419000D03*
G01X19554150Y-9327000D03*
G01X19802000Y-6600000D03*
G01X17211000Y-13545000D03*
G01X16780000Y-12885000D03*
G01X19401000Y-6798000D03*
G01X19890782Y-12019400D03*
G01X14124000Y-12954000D03*
G01X20924013Y-9027615D03*
G01X17806000Y-8534000D03*
G01X20132000Y-10321000D03*
G01X12982000Y-12195000D03*
G01X17557000Y-13942000D03*
G01X17561000Y-10860000D03*
G01X12842292Y-9764917D03*
G01X18696000Y-12460300D03*
G01X12326000Y-12888000D03*
G01X18956000Y-12884000D03*
G01X19915000Y-9335000D03*
G01X11982000Y-13094000D03*
G01X13385000Y-12079000D03*
G54D20*
G01X14678000Y-12776000D03*
G54D19*
G01X15864000Y-9322000D03*
G01X17980000Y-8410000D03*
G01X19478000Y-8636000D03*
G01X11746000Y-8836000D03*
G01X15594000Y-13934000D03*
G01X15976056Y-7499000D03*
G01X19724043Y-11954221D03*
G01X17782000Y-12636000D03*
G01X15886000Y-13707000D03*
G01X18951000Y-12671000D03*
G01X19750000Y-7058000D03*
G01X16777000Y-12083000D03*
G01X16352000Y-13707000D03*
G01X21405000Y-8946000D03*
G01X18183573Y-8324427D03*
G01X16955000Y-7887000D03*
G01X15578000Y-9006000D03*
G01X17591000Y-12915000D03*
G01X13851000Y-8306000D03*
G01X14862000Y-9787000D03*
G01X17808000Y-9175000D03*
G01X18908000Y-8832000D03*
G01X18429000Y-12894000D03*
G01X19544000Y-11608000D03*
G01X16425000Y-7523000D03*
G01X17612000Y-9175000D03*
G01X15947000Y-8397000D03*
G01X17121000Y-12679000D03*
G01X15629000Y-12882000D03*
G01X17128000Y-12181000D03*
G01X20131000Y-9680000D03*
G01X18940000Y-13469000D03*
G01X13830000Y-13938000D03*
G01X14387000Y-13706000D03*
G01X17974000Y-13526000D03*
G01X15095000Y-13720000D03*
G01X16646000Y-13940000D03*
G01X17400000Y-6774000D03*
G01X14887000Y-12518000D03*
G01X17844000Y-10114000D03*
G01X19915000Y-11247000D03*
G01X18214000Y-9046000D03*
G01X15334000Y-13127000D03*
G01X18510000Y-8217000D03*
G01X15361000Y-13715000D03*
G01X18523000Y-8467000D03*
G01X17169000Y-6596000D03*
G01X19445000Y-8384000D03*
G01X20011000Y-6827000D03*
G01X16698000Y-13360000D03*
G01X17396000Y-7238000D03*
G01X17067000Y-7569000D03*
G01X13797000Y-12144000D03*
G01X19261000Y-6402000D03*
G01X16034000Y-12747000D03*
G01X12556000Y-13361000D03*
G01X12833000Y-9330000D03*
G01X12493000Y-12080000D03*
G01X13872000Y-9660006D03*
G01X15951056Y-7828000D03*
G01X17808000Y-8769000D03*
G01X19729794Y-9724394D03*
G01X18927000Y-13183000D03*
G01X13647602Y-8808398D03*
G01X19403000Y-8832000D03*
G01X16754000Y-7675000D03*
G01X20991000Y-9243000D03*
G01X12061000Y-13898000D03*
G01X15595000Y-10003000D03*
G01X16294000Y-12082000D03*
G01X15251000Y-12539000D03*
G01X15562000Y-10795000D03*
G01X13971000Y-13378000D03*
G01X16162000Y-8603000D03*
G01X11710000Y-9688000D03*
G01X16629000Y-13591000D03*
G01X17955000Y-8761000D03*
G01X17661000Y-8391900D03*
G01X20522000Y-9131000D03*
G01X17574000Y-8471000D03*
G01X20331000Y-9191000D03*
G01X18138000Y-8246000D03*
G01X13371000Y-8363000D03*
G01X15763056Y-9553000D03*
G04 Via End*

G04 Track Start*
G54D21*
G01X16515153Y-12474847D02*
G01X16515153Y-12357192D01*
G01X16369000Y-12621000D02*
G01X16515153Y-12474847D01*
G01X13779000Y-12663000D02*
G01X13821000Y-12621000D01*
G01X16369000Y-12621000D01*
G54D22*
G01X17713000Y-9755000D02*
G01X17717000Y-9759000D01*
G01X17713000Y-8643000D02*
G01X17713000Y-9755000D01*
G01X17714000Y-9762000D02*
G01X17714000Y-10725000D01*
G01X17717000Y-9759000D02*
G01X17714000Y-9762000D01*
G01X17711000Y-8641000D02*
G01X17713000Y-8643000D01*
G54D21*
G01X17490000Y-12099000D02*
G01X17490000Y-12098457D01*
G01X17390157Y-11998614D02*
G01X17390157Y-11857193D01*
G54D23*
G01X17874000Y-12130000D02*
G01X18095000Y-12351000D01*
G01X17521000Y-12130000D02*
G01X17874000Y-12130000D01*
G54D21*
G01X17490000Y-12098457D02*
G01X17390157Y-11998614D01*
G54D23*
G01X17490000Y-12099000D02*
G01X17521000Y-12130000D01*
G01X18095000Y-12351000D02*
G01X18095000Y-12654300D01*
G01X17969000Y-12780300D01*
G01X18081000Y-9074000D02*
G01X18062994Y-9074000D01*
G01X17954000Y-9074000D02*
G01X17923000Y-9043000D01*
G01X18013006Y-9074000D02*
G01X17954000Y-9074000D01*
G01X18169000Y-8986000D02*
G01X18081000Y-9074000D01*
G01X15306000Y-12994000D02*
G01X18989000Y-12994000D01*
G01X19573000Y-8986000D02*
G01X18169000Y-8986000D01*
G01X19788000Y-12195000D02*
G01X19788000Y-9201000D01*
G01X18989000Y-12994000D02*
G01X19788000Y-12195000D01*
G01X19788000Y-9201000D02*
G01X19573000Y-8986000D01*
G01X18062894Y-9074100D02*
G01X18013106Y-9074100D01*
G01X14763500Y-13536500D02*
G01X15306000Y-12994000D01*
G01X18941000Y-13104000D02*
G01X15702000Y-13104000D01*
G01X18116994Y-8950000D02*
G01X19588000Y-8950000D01*
G01X19839000Y-9201000D02*
G01X19839000Y-12206000D01*
G01X18052994Y-9014000D02*
G01X18116994Y-8950000D01*
G01X18038000Y-9014000D02*
G01X18052994Y-9014000D01*
G01X19839000Y-12206000D02*
G01X18941000Y-13104000D01*
G01X15702000Y-13104000D02*
G01X15214500Y-13591500D01*
G01X19588000Y-8950000D02*
G01X19839000Y-9201000D01*
G01X17938619Y-8853000D02*
G01X17941809Y-8849809D01*
G01X18033994Y-8767000D02*
G01X17947994Y-8853000D01*
G01X17921000Y-8853000D02*
G01X17938619Y-8853000D01*
G01X19989000Y-9103000D02*
G01X19653000Y-8767000D01*
G01X18973000Y-13277000D02*
G01X19989000Y-12261000D01*
G01X16237000Y-13511000D02*
G01X16471000Y-13277000D01*
G01X17947994Y-8853000D02*
G01X17921000Y-8853000D01*
G01X16471000Y-13277000D02*
G01X18973000Y-13277000D01*
G01X19989000Y-12261000D02*
G01X19989000Y-9103000D01*
G01X19653000Y-8767000D02*
G01X18033994Y-8767000D01*
G54D24*
G01X17764000Y-13185000D02*
G01X17766000Y-13183000D01*
G54D23*
G01X19389900Y-7812000D02*
G01X19389000Y-7812900D01*
G01X17859000Y-10861000D02*
G01X17883900Y-10836100D01*
G01X13083000Y-8387000D02*
G01X13071000Y-8375000D01*
G01X19180710Y-8337000D02*
G01X19185000Y-8332710D01*
G01X12370056Y-8575000D02*
G01X12943000Y-8575000D01*
G54D24*
G01X18966000Y-13183000D02*
G01X18927000Y-13183000D01*
G54D23*
G01X14088000Y-8718000D02*
G01X14090900Y-8715100D01*
G54D22*
G01X17808000Y-8946000D02*
G01X17808000Y-8769000D01*
G54D24*
G01X19915000Y-9335000D02*
G01X19915000Y-9171000D01*
G54D23*
G01X18100000Y-8410000D02*
G01X18183573Y-8326427D01*
G01X17540100Y-10164900D02*
G01X17588000Y-10117000D01*
G54D24*
G01X20815000Y-9463000D02*
G01X20647000Y-9463000D01*
G01X18413000Y-13183000D02*
G01X18927000Y-13183000D01*
G01X19915000Y-9813000D02*
G01X19915000Y-9335000D01*
G54D22*
G01X17613000Y-9174000D02*
G01X17612000Y-9175000D01*
G54D23*
G01X17883900Y-10836100D02*
G01X17883900Y-10153900D01*
G54D24*
G01X19554150Y-9578150D02*
G01X19554150Y-9327000D01*
G54D23*
G01X13638000Y-8798797D02*
G01X13638000Y-8665000D01*
G54D24*
G01X20647000Y-9463000D02*
G01X20624000Y-9440000D01*
G54D23*
G01X19389900Y-8216610D02*
G01X19923390Y-8750100D01*
G54D22*
G01X17547927Y-8919074D02*
G01X17578074Y-8919074D01*
G54D24*
G01X18059000Y-8914000D02*
G01X18059000Y-8923000D01*
G54D23*
G01X13840956Y-8407044D02*
G01X13840956Y-8671956D01*
G01X18382000Y-8337000D02*
G01X19180710Y-8337000D01*
G01X17588000Y-10117000D02*
G01X17545000Y-10074000D01*
G54D22*
G01X17613000Y-8954000D02*
G01X17613000Y-9174000D01*
G54D24*
G01X17939000Y-8638000D02*
G01X17808000Y-8769000D01*
G54D23*
G01X13460056Y-8611000D02*
G01X13458056Y-8613000D01*
G01X18183573Y-8326427D02*
G01X18183573Y-8324427D01*
G01X19750000Y-7058000D02*
G01X19729000Y-7037000D01*
G01X19643000Y-11707000D02*
G01X19544000Y-11608000D01*
G01X13851000Y-8306000D02*
G01X13876000Y-8331000D01*
G01X19389000Y-8175000D02*
G01X19389900Y-8175900D01*
G01X17540100Y-10839100D02*
G01X17540100Y-10164900D01*
G01X19210100Y-8307610D02*
G01X19210100Y-6452900D01*
G54D24*
G01X18072000Y-8914000D02*
G01X18059000Y-8914000D01*
G01X18729000Y-8640000D02*
G01X18725000Y-8636000D01*
G54D23*
G01X19923390Y-8750100D02*
G01X19979100Y-8750100D01*
G54D22*
G01X17625000Y-8759000D02*
G01X17625000Y-8761792D01*
G01X17578074Y-8919074D02*
G01X17613000Y-8954000D01*
G54D23*
G01X13876000Y-8331000D02*
G01X13876000Y-8372000D01*
G01X17883900Y-10153900D02*
G01X17844000Y-10114000D01*
G01X14090900Y-8715100D02*
G01X15879900Y-8715100D01*
G54D24*
G01X19541000Y-9953000D02*
G01X19541000Y-10306000D01*
G01X18059000Y-8923000D02*
G01X18036000Y-8946000D01*
G54D23*
G01X17844000Y-10114000D02*
G01X17881000Y-10077000D01*
G01X15879900Y-8715100D02*
G01X15947000Y-8648000D01*
G54D22*
G01X17806000Y-8534000D02*
G01X17807000Y-8535000D01*
G54D23*
G01X13851000Y-8306000D02*
G01X13820000Y-8275000D01*
G54D24*
G01X18711000Y-8638000D02*
G01X17939000Y-8638000D01*
G01X19915000Y-9171000D02*
G01X19576000Y-8832000D01*
G01X18725000Y-8636000D02*
G01X18713000Y-8636000D01*
G54D22*
G01X17582000Y-8885000D02*
G01X17547927Y-8919074D01*
G54D23*
G01X19389900Y-8175900D02*
G01X19389900Y-8216610D01*
G01X19389900Y-7116390D02*
G01X19389900Y-7812000D01*
G01X13876000Y-8372000D02*
G01X13840956Y-8407044D01*
G54D24*
G01X19899000Y-9829000D02*
G01X19915000Y-9813000D01*
G54D23*
G01X13840956Y-8671956D02*
G01X13887000Y-8718000D01*
G01X17561000Y-10860000D02*
G01X17540100Y-10839100D01*
G01X19729000Y-7037000D02*
G01X19469290Y-7037000D01*
G54D24*
G01X19723000Y-11429000D02*
G01X19544000Y-11608000D01*
G01X19576000Y-8832000D02*
G01X18154000Y-8832000D01*
G54D23*
G01X13887000Y-8718000D02*
G01X14088000Y-8718000D01*
G54D24*
G01X18154000Y-8832000D02*
G01X18072000Y-8914000D01*
G01X20624000Y-9440000D02*
G01X20453000Y-9440000D01*
G54D23*
G01X18280000Y-8235000D02*
G01X18382000Y-8337000D01*
G01X13647602Y-8808398D02*
G01X13638000Y-8798797D01*
G54D22*
G01X17625000Y-8761792D02*
G01X17582000Y-8804792D01*
G54D23*
G01X13584000Y-8611000D02*
G01X13460056Y-8611000D01*
G54D24*
G01X19721950Y-9772050D02*
G01X19541000Y-9953000D01*
G54D22*
G01X17612000Y-9175000D02*
G01X17580729Y-9206271D01*
G54D24*
G01X18713000Y-8636000D02*
G01X18711000Y-8638000D01*
G01X19721950Y-9755341D02*
G01X19721950Y-9772050D01*
G54D23*
G01X13149000Y-8387000D02*
G01X13083000Y-8387000D01*
G54D22*
G01X17808000Y-9175000D02*
G01X17835000Y-9202000D01*
G54D24*
G01X19653000Y-8640000D02*
G01X18729000Y-8640000D01*
G54D22*
G01X17807000Y-8548000D02*
G01X17808000Y-8549000D01*
G54D23*
G01X12981000Y-8613000D02*
G01X13458056Y-8613000D01*
G01X13071000Y-8375000D02*
G01X12370056Y-8375000D01*
G54D22*
G01X17835000Y-9202000D02*
G01X17835000Y-9541000D01*
G54D23*
G01X13638000Y-8665000D02*
G01X13584000Y-8611000D01*
G54D24*
G01X19541000Y-10306000D02*
G01X19547000Y-10312000D01*
G54D23*
G01X17545000Y-9576000D02*
G01X17582000Y-9539000D01*
G54D22*
G01X17580729Y-9206271D02*
G01X17580729Y-9537729D01*
G54D23*
G01X13820000Y-8275000D02*
G01X12370056Y-8275000D01*
G01X15947000Y-8648000D02*
G01X15947000Y-8397000D01*
G01X12943000Y-8575000D02*
G01X12981000Y-8613000D01*
G54D24*
G01X19723000Y-11119000D02*
G01X19723000Y-11429000D01*
G01X17766000Y-13183000D02*
G01X18413000Y-13183000D01*
G54D23*
G01X17881000Y-10077000D02*
G01X17881000Y-9587000D01*
G01X19210100Y-6452900D02*
G01X19261000Y-6402000D01*
G01X19185000Y-8332710D02*
G01X19185000Y-8331100D01*
G54D24*
G01X19899000Y-10008000D02*
G01X19899000Y-9829000D01*
G54D23*
G01X17545000Y-10074000D02*
G01X17545000Y-9576000D01*
G54D24*
G01X20453000Y-9440000D02*
G01X19653000Y-8640000D01*
G54D23*
G01X17881000Y-9587000D02*
G01X17835000Y-9541000D01*
G54D24*
G01X19721950Y-10486950D02*
G01X19547000Y-10312000D01*
G54D22*
G01X17582000Y-8804792D02*
G01X17582000Y-8885000D01*
G54D23*
G01X17980000Y-8410000D02*
G01X18100000Y-8410000D01*
G54D22*
G01X17807000Y-8535000D02*
G01X17807000Y-8548000D01*
G54D23*
G01X19979100Y-8750100D02*
G01X20058000Y-8829000D01*
G54D24*
G01X18036000Y-8946000D02*
G01X17808000Y-8946000D01*
G54D22*
G01X17808000Y-9175000D02*
G01X17808000Y-8946000D01*
G54D23*
G01X17580729Y-9537729D02*
G01X17582000Y-9539000D01*
G01X19185000Y-8331100D02*
G01X19186610Y-8331100D01*
G54D22*
G01X17808000Y-8549000D02*
G01X17808000Y-8769000D01*
G54D23*
G01X19469290Y-7037000D02*
G01X19389900Y-7116390D01*
G01X19389000Y-7812900D02*
G01X19389000Y-8175000D01*
G01X19186610Y-8331100D02*
G01X19210100Y-8307610D01*
G01X19677000Y-8723000D02*
G01X17993000Y-8723000D01*
G01X20030000Y-9076000D02*
G01X19677000Y-8723000D01*
G01X17993000Y-8723000D02*
G01X17955000Y-8761000D01*
G01X16629000Y-13591000D02*
G01X16879000Y-13341000D01*
G01X20030000Y-12289000D02*
G01X20030000Y-9076000D01*
G01X18978000Y-13341000D02*
G01X20030000Y-12289000D01*
G01X16879000Y-13341000D02*
G01X18978000Y-13341000D01*
G01X17994000Y-8540000D02*
G01X17845900Y-8391900D01*
G01X20511000Y-9120000D02*
G01X20243000Y-9120000D01*
G01X19663000Y-8540000D01*
G01X17994000Y-8540000D01*
G01X20522000Y-9131000D02*
G01X20511000Y-9120000D01*
G01X17845900Y-8391900D02*
G01X17661000Y-8391900D01*
G01X20325000Y-9197000D02*
G01X20268000Y-9197000D01*
G01X17845900Y-8451900D02*
G01X17593100Y-8451900D01*
G01X20331000Y-9191000D02*
G01X20325000Y-9197000D01*
G01X20268000Y-9197000D02*
G01X19647000Y-8576000D01*
G01X17970000Y-8576000D02*
G01X17845900Y-8451900D01*
G01X17593100Y-8451900D02*
G01X17574000Y-8471000D01*
G01X19647000Y-8576000D02*
G01X17970000Y-8576000D01*
G54D21*
G01X19290000Y-6871000D02*
G01X19290000Y-6668000D01*
G01X19401000Y-6557000D01*
G54D23*
G01X18190000Y-8246000D02*
G01X18138000Y-8246000D01*
G01X19266000Y-8394000D02*
G01X18338000Y-8394000D01*
G01X18190000Y-8246000D01*
G01X19290000Y-6871000D02*
G01X19290000Y-8370000D01*
G01X19266000Y-8394000D01*
G01X13240000Y-8365000D02*
G01X13198000Y-8323000D01*
G01X13369000Y-8365000D02*
G01X13240000Y-8365000D01*
G01X12372056Y-8323000D02*
G01X12370056Y-8325000D01*
G01X13371000Y-8363000D02*
G01X13369000Y-8365000D01*
G01X13198000Y-8323000D02*
G01X12372056Y-8323000D01*
G01X12370056Y-8325000D02*
G01X12570056Y-8325000D01*
G54D21*
G01X16079056Y-8691000D02*
G01X16079056Y-7724000D01*
G54D23*
G01X15977056Y-8792000D02*
G01X13835056Y-8792000D01*
G01X13021000Y-8425000D02*
G01X12370056Y-8425000D01*
G01X16076056Y-8694000D02*
G01X16075056Y-8694000D01*
G54D21*
G01X16079056Y-7724000D02*
G01X16198056Y-7605000D01*
G54D23*
G01X13766000Y-8537944D02*
G01X13685056Y-8457000D01*
G01X13053000Y-8457000D01*
G01X16075056Y-8694000D02*
G01X15977056Y-8792000D01*
G54D21*
G01X16076056Y-8694000D02*
G01X16079056Y-8691000D01*
G54D23*
G01X13835056Y-8792000D02*
G01X13766000Y-8722944D01*
G01X13766000Y-8537944D01*
G01X13053000Y-8457000D02*
G01X13021000Y-8425000D01*
G01X13692000Y-8767944D02*
G01X13692000Y-8613944D01*
G01X12981056Y-8525000D02*
G01X12370056Y-8525000D01*
G01X15657056Y-8967000D02*
G01X15575056Y-8885000D01*
G01X15713056Y-9791000D02*
G01X15657056Y-9735000D01*
G01X13809056Y-8885000D02*
G01X13692000Y-8767944D01*
G01X13692000Y-8613944D02*
G01X13631056Y-8553000D01*
G54D21*
G01X15713056Y-10609000D02*
G01X15713056Y-9791000D01*
G54D23*
G01X15657056Y-9735000D02*
G01X15657056Y-8967000D01*
G01X13009056Y-8553000D02*
G01X12981056Y-8525000D01*
G01X13631056Y-8553000D02*
G01X13009056Y-8553000D01*
G01X15575056Y-8885000D02*
G01X13809056Y-8885000D01*
G01X12371056Y-8474000D02*
G01X12370056Y-8475000D01*
G01X13036000Y-8503000D02*
G01X13007000Y-8474000D01*
G01X15763056Y-9553000D02*
G01X15748056Y-9538000D01*
G01X15633056Y-8837000D02*
G01X13821056Y-8837000D01*
G01X13007000Y-8474000D02*
G01X12371056Y-8474000D01*
G01X15748056Y-8952000D02*
G01X15633056Y-8837000D01*
G01X13728000Y-8743944D02*
G01X13728000Y-8574944D01*
G01X12370056Y-8475000D02*
G01X12570056Y-8475000D01*
G01X13728000Y-8574944D02*
G01X13656056Y-8503000D01*
G01X15748056Y-9538000D02*
G01X15748056Y-8952000D01*
G01X13821056Y-8837000D02*
G01X13728000Y-8743944D01*
G01X13656056Y-8503000D02*
G01X13036000Y-8503000D01*
G01X19724043Y-11954221D02*
G01X19643000Y-11873178D01*
G01X19643000Y-11707000D01*
G54D24*
G01X19915000Y-11247000D02*
G01X19890782Y-11271218D01*
G01X19890782Y-12019400D01*
G01X19890782Y-12258218D01*
G01X18966000Y-13183000D01*
G01X19728897Y-10722430D02*
G01X19721950Y-10715483D01*
G01X19721950Y-10486950D01*
G01X19728897Y-10722430D02*
G01X19728897Y-11113103D01*
G01X19723000Y-11119000D01*
G01X19899000Y-10008000D02*
G01X19888091Y-10018909D01*
G01X19888091Y-10590236D01*
G01X19888091Y-11220091D01*
G01X19915000Y-11247000D01*
G01X19729794Y-9724394D02*
G01X19700394Y-9724394D01*
G01X19554150Y-9578150D01*
G01X19729794Y-9724394D02*
G01X19729794Y-9747497D01*
G01X19721950Y-9755341D01*
G04 Track End*

M02*

