G04 Layer: BottomSilkscreenLayer*
G04 EasyEDA Pro v2.2.45.4, 2026-01-24 22:56:51*
G04 Gerber Generator version 0.3*
G04 Scale: 100 percent, Rotated: No, Reflected: No*
G04 Dimensions in millimeters*
G04 Leading zeros omitted, absolute positions, 4 integers and 5 decimals*
G04 Generated by one-click*
%FSLAX45Y45*%
%MOMM*%
%ADD10C,0.3*%
%ADD11C,0.52*%
%ADD12C,0.2*%
%ADD13C,0.4*%
%ADD14C,0.15*%
%ADD15C,0.5*%
%ADD16C,0.1547*%
%ADD17C,0.153*%
G75*


G04 Text Start*
G54D10*
G01X11885694Y-13558172D02*
G01X11891028Y-13547504D01*
G01X11907030Y-13542170D01*
G01X11917444Y-13542170D01*
G01X11933446Y-13547504D01*
G01X11944114Y-13563506D01*
G01X11949448Y-13590176D01*
G01X11949448Y-13616592D01*
G01X11944114Y-13637928D01*
G01X11933446Y-13648596D01*
G01X11917444Y-13653930D01*
G01X11912364Y-13653930D01*
G01X11896362Y-13648596D01*
G01X11885694Y-13637928D01*
G01X11880360Y-13621926D01*
G01X11880360Y-13616592D01*
G01X11885694Y-13600590D01*
G01X11896362Y-13590176D01*
G01X11912364Y-13584842D01*
G01X11917444Y-13584842D01*
G01X11933446Y-13590176D01*
G01X11944114Y-13600590D01*
G01X11949448Y-13616592D01*
G01X11798318Y-13542170D02*
G01X11814320Y-13547504D01*
G01X11819654Y-13558172D01*
G01X11819654Y-13568840D01*
G01X11814320Y-13579508D01*
G01X11803652Y-13584842D01*
G01X11782316Y-13590176D01*
G01X11766314Y-13595256D01*
G01X11755900Y-13605924D01*
G01X11750566Y-13616592D01*
G01X11750566Y-13632594D01*
G01X11755900Y-13643262D01*
G01X11761234Y-13648596D01*
G01X11776982Y-13653930D01*
G01X11798318Y-13653930D01*
G01X11814320Y-13648596D01*
G01X11819654Y-13643262D01*
G01X11824734Y-13632594D01*
G01X11824734Y-13616592D01*
G01X11819654Y-13605924D01*
G01X11808986Y-13595256D01*
G01X11792984Y-13590176D01*
G01X11771648Y-13584842D01*
G01X11761234Y-13579508D01*
G01X11755900Y-13568840D01*
G01X11755900Y-13558172D01*
G01X11761234Y-13547504D01*
G01X11776982Y-13542170D01*
G01X11798318Y-13542170D01*
G54D11*
G01X13791452Y-12982065D02*
G01X13813296Y-12960475D01*
G01X13845808Y-12949553D01*
G01X13889496Y-12949553D01*
G01X13922008Y-12960475D01*
G01X13943852Y-12982065D01*
G01X13943852Y-13003909D01*
G01X13932930Y-13025753D01*
G01X13922008Y-13036421D01*
G01X13900164Y-13047343D01*
G01X13834886Y-13069187D01*
G01X13813296Y-13080109D01*
G01X13802374Y-13090777D01*
G01X13791452Y-13112621D01*
G01X13791452Y-13145133D01*
G01X13813296Y-13166977D01*
G01X13845808Y-13177899D01*
G01X13889496Y-13177899D01*
G01X13922008Y-13166977D01*
G01X13943852Y-13145133D01*
G01X13524244Y-13003909D02*
G01X13534912Y-12982065D01*
G01X13556756Y-12960475D01*
G01X13578600Y-12949553D01*
G01X13622034Y-12949553D01*
G01X13643878Y-12960475D01*
G01X13665468Y-12982065D01*
G01X13676390Y-13003909D01*
G01X13687312Y-13036421D01*
G01X13687312Y-13090777D01*
G01X13676390Y-13123543D01*
G01X13665468Y-13145133D01*
G01X13643878Y-13166977D01*
G01X13622034Y-13177899D01*
G01X13578600Y-13177899D01*
G01X13556756Y-13166977D01*
G01X13534912Y-13145133D01*
G01X13524244Y-13123543D01*
G01X13420104Y-12949553D02*
G01X13420104Y-13177899D01*
G01X13420104Y-12949553D02*
G01X13322060Y-12949553D01*
G01X13289548Y-12960475D01*
G01X13278626Y-12971143D01*
G01X13267704Y-12992987D01*
G01X13267704Y-13014831D01*
G01X13278626Y-13036421D01*
G01X13289548Y-13047343D01*
G01X13322060Y-13058265D01*
G01X13420104Y-13058265D01*
G01X13343904Y-13058265D02*
G01X13267704Y-13177899D01*
G01X13163564Y-12949553D02*
G01X13163564Y-13177899D01*
G01X13163564Y-12949553D02*
G01X13022086Y-12949553D01*
G01X13163564Y-13058265D02*
G01X13076442Y-13058265D01*
G01X13163564Y-13177899D02*
G01X13022086Y-13177899D01*
G01X12917946Y-12949553D02*
G01X12917946Y-13177899D01*
G01X12917946Y-12949553D02*
G01X12776468Y-12949553D01*
G01X12917946Y-13058265D02*
G01X12830824Y-13058265D01*
G01X12917946Y-13177899D02*
G01X12776468Y-13177899D01*
G01X12672328Y-12949553D02*
G01X12672328Y-13177899D01*
G01X12672328Y-12949553D02*
G01X12519928Y-13177899D01*
G01X12519928Y-12949553D02*
G01X12519928Y-13177899D01*
G54D10*
G01X18284939Y-13596177D02*
G01X18284939Y-13707937D01*
G01X18284939Y-13707937D02*
G01X18221185Y-13707937D01*
G01X18086057Y-13622847D02*
G01X18091391Y-13612179D01*
G01X18102059Y-13601511D01*
G01X18112473Y-13596177D01*
G01X18133809Y-13596177D01*
G01X18144477Y-13601511D01*
G01X18155145Y-13612179D01*
G01X18160479Y-13622847D01*
G01X18165559Y-13638849D01*
G01X18165559Y-13665265D01*
G01X18160479Y-13681267D01*
G01X18155145Y-13691935D01*
G01X18144477Y-13702603D01*
G01X18133809Y-13707937D01*
G01X18112473Y-13707937D01*
G01X18102059Y-13702603D01*
G01X18091391Y-13691935D01*
G01X18086057Y-13681267D01*
G01X18030431Y-13596177D02*
G01X18030431Y-13707937D01*
G01X18030431Y-13596177D02*
G01X17993347Y-13596177D01*
G01X17977345Y-13601511D01*
G01X17966931Y-13612179D01*
G01X17961597Y-13622847D01*
G01X17956263Y-13638849D01*
G01X17956263Y-13665265D01*
G01X17961597Y-13681267D01*
G01X17966931Y-13691935D01*
G01X17977345Y-13702603D01*
G01X17993347Y-13707937D01*
G01X18030431Y-13707937D01*
G01X17781765Y-13617513D02*
G01X17771097Y-13612179D01*
G01X17755095Y-13596177D01*
G01X17755095Y-13707937D01*
G54D11*
G01X19930414Y-11949068D02*
G01X19702068Y-11949068D01*
G01X19930414Y-11949068D02*
G01X19930414Y-11851024D01*
G01X19919492Y-11818512D01*
G01X19908824Y-11807590D01*
G01X19886980Y-11796668D01*
G01X19854214Y-11796668D01*
G01X19832624Y-11807590D01*
G01X19821702Y-11818512D01*
G01X19810780Y-11851024D01*
G01X19810780Y-11949068D01*
G01X19930414Y-11692528D02*
G01X19702068Y-11692528D01*
G01X19876058Y-11425066D02*
G01X19897902Y-11435988D01*
G01X19919492Y-11457832D01*
G01X19930414Y-11479422D01*
G01X19930414Y-11523110D01*
G01X19919492Y-11544700D01*
G01X19897902Y-11566544D01*
G01X19876058Y-11577466D01*
G01X19843546Y-11588388D01*
G01X19789190Y-11588388D01*
G01X19756424Y-11577466D01*
G01X19734834Y-11566544D01*
G01X19712990Y-11544700D01*
G01X19702068Y-11523110D01*
G01X19702068Y-11479422D01*
G01X19712990Y-11457832D01*
G01X19734834Y-11435988D01*
G01X19756424Y-11425066D01*
G01X19930414Y-11255648D02*
G01X19919492Y-11277492D01*
G01X19897902Y-11299082D01*
G01X19876058Y-11310004D01*
G01X19843546Y-11320926D01*
G01X19789190Y-11320926D01*
G01X19756424Y-11310004D01*
G01X19734834Y-11299082D01*
G01X19712990Y-11277492D01*
G01X19702068Y-11255648D01*
G01X19702068Y-11212214D01*
G01X19712990Y-11190370D01*
G01X19734834Y-11168526D01*
G01X19756424Y-11157858D01*
G01X19789190Y-11146936D01*
G01X19843546Y-11146936D01*
G01X19876058Y-11157858D01*
G01X19897902Y-11168526D01*
G01X19919492Y-11190370D01*
G01X19930414Y-11212214D01*
G01X19930414Y-11255648D01*
G01X19876058Y-10635888D02*
G01X19897902Y-10646810D01*
G01X19919492Y-10668654D01*
G01X19930414Y-10690498D01*
G01X19930414Y-10733932D01*
G01X19919492Y-10755522D01*
G01X19897902Y-10777366D01*
G01X19876058Y-10788288D01*
G01X19843546Y-10799210D01*
G01X19789190Y-10799210D01*
G01X19756424Y-10788288D01*
G01X19734834Y-10777366D01*
G01X19712990Y-10755522D01*
G01X19702068Y-10733932D01*
G01X19702068Y-10690498D01*
G01X19712990Y-10668654D01*
G01X19734834Y-10646810D01*
G01X19756424Y-10635888D01*
G01X19789190Y-10635888D01*
G01X19789190Y-10690498D02*
G01X19789190Y-10635888D01*
G01X19876058Y-10368680D02*
G01X19897902Y-10379348D01*
G01X19919492Y-10401192D01*
G01X19930414Y-10423036D01*
G01X19930414Y-10466470D01*
G01X19919492Y-10488314D01*
G01X19897902Y-10509904D01*
G01X19876058Y-10520826D01*
G01X19843546Y-10531748D01*
G01X19789190Y-10531748D01*
G01X19756424Y-10520826D01*
G01X19734834Y-10509904D01*
G01X19712990Y-10488314D01*
G01X19702068Y-10466470D01*
G01X19702068Y-10423036D01*
G01X19712990Y-10401192D01*
G01X19734834Y-10379348D01*
G01X19756424Y-10368680D01*
G01X19789190Y-10368680D01*
G01X19789190Y-10423036D02*
G01X19789190Y-10368680D01*
G01X19930414Y-10020954D02*
G01X19702068Y-10020954D01*
G01X19702068Y-10020954D02*
G01X19702068Y-9890398D01*
G01X19876058Y-9623190D02*
G01X19897902Y-9633858D01*
G01X19919492Y-9655702D01*
G01X19930414Y-9677546D01*
G01X19930414Y-9720980D01*
G01X19919492Y-9742824D01*
G01X19897902Y-9764414D01*
G01X19876058Y-9775336D01*
G01X19843546Y-9786258D01*
G01X19789190Y-9786258D01*
G01X19756424Y-9775336D01*
G01X19734834Y-9764414D01*
G01X19712990Y-9742824D01*
G01X19702068Y-9720980D01*
G01X19702068Y-9677546D01*
G01X19712990Y-9655702D01*
G01X19734834Y-9633858D01*
G01X19756424Y-9623190D01*
G01X19930414Y-9519050D02*
G01X19702068Y-9519050D01*
G01X19930414Y-9519050D02*
G01X19930414Y-9442850D01*
G01X19919492Y-9410338D01*
G01X19897902Y-9388494D01*
G01X19876058Y-9377572D01*
G01X19843546Y-9366650D01*
G01X19789190Y-9366650D01*
G01X19756424Y-9377572D01*
G01X19734834Y-9388494D01*
G01X19712990Y-9410338D01*
G01X19702068Y-9442850D01*
G01X19702068Y-9519050D01*
G54D12*
G01X21034259Y-8757596D02*
G01X21034259Y-8875706D01*
G01X21034259Y-8757596D02*
G01X20983459Y-8757596D01*
G01X20966695Y-8763184D01*
G01X20961107Y-8768772D01*
G01X20955519Y-8779948D01*
G01X20955519Y-8791124D01*
G01X20961107Y-8802554D01*
G01X20966695Y-8808142D01*
G01X20983459Y-8813730D01*
G01X21034259Y-8813730D01*
G01X20994889Y-8813730D02*
G01X20955519Y-8875706D01*
G01X20908529Y-8757596D02*
G01X20908529Y-8875706D01*
G01X20777211Y-8785536D02*
G01X20782799Y-8774360D01*
G01X20793975Y-8763184D01*
G01X20805151Y-8757596D01*
G01X20827757Y-8757596D01*
G01X20838933Y-8763184D01*
G01X20850363Y-8774360D01*
G01X20855951Y-8785536D01*
G01X20861539Y-8802554D01*
G01X20861539Y-8830494D01*
G01X20855951Y-8847512D01*
G01X20850363Y-8858688D01*
G01X20838933Y-8869864D01*
G01X20827757Y-8875706D01*
G01X20805151Y-8875706D01*
G01X20793975Y-8869864D01*
G01X20782799Y-8858688D01*
G01X20777211Y-8847512D01*
G01X20777211Y-8830494D01*
G01X20805151Y-8830494D02*
G01X20777211Y-8830494D01*
G01X20730221Y-8757596D02*
G01X20730221Y-8875706D01*
G01X20651481Y-8757596D02*
G01X20651481Y-8875706D01*
G01X20730221Y-8813730D02*
G01X20651481Y-8813730D01*
G01X20565121Y-8757596D02*
G01X20565121Y-8875706D01*
G01X20604491Y-8757596D02*
G01X20525751Y-8757596D01*
G01X20435548Y-8757596D02*
G01X20435548Y-8875706D01*
G01X20435548Y-8757596D02*
G01X20390336Y-8875706D01*
G01X20345378Y-8757596D02*
G01X20390336Y-8875706D01*
G01X20345378Y-8757596D02*
G01X20345378Y-8875706D01*
G01X20298388Y-8779948D02*
G01X20287212Y-8774360D01*
G01X20270194Y-8757596D01*
G01X20270194Y-8875706D01*
G01X20217616Y-8785536D02*
G01X20217616Y-8779948D01*
G01X20212028Y-8768772D01*
G01X20206440Y-8763184D01*
G01X20195010Y-8757596D01*
G01X20172658Y-8757596D01*
G01X20161228Y-8763184D01*
G01X20155640Y-8768772D01*
G01X20150052Y-8779948D01*
G01X20150052Y-8791124D01*
G01X20155640Y-8802554D01*
G01X20167070Y-8819318D01*
G01X20223204Y-8875706D01*
G01X20144464Y-8875706D01*
G01X20971794Y-8997596D02*
G01X20971794Y-9115706D01*
G01X20971794Y-9115706D02*
G01X20904230Y-9115706D01*
G01X20857240Y-8997596D02*
G01X20857240Y-9115706D01*
G01X20857240Y-8997596D02*
G01X20784088Y-8997596D01*
G01X20857240Y-9053730D02*
G01X20812282Y-9053730D01*
G01X20857240Y-9115706D02*
G01X20784088Y-9115706D01*
G01X20737098Y-8997596D02*
G01X20737098Y-9115706D01*
G01X20737098Y-8997596D02*
G01X20663946Y-8997596D01*
G01X20737098Y-9053730D02*
G01X20692140Y-9053730D01*
G01X20577586Y-8997596D02*
G01X20577586Y-9115706D01*
G01X20616956Y-8997596D02*
G01X20538216Y-8997596D01*
G01X20435548Y-8997596D02*
G01X20435548Y-9115706D01*
G01X20435548Y-8997596D02*
G01X20390336Y-9115706D01*
G01X20345378Y-8997596D02*
G01X20390336Y-9115706D01*
G01X20345378Y-8997596D02*
G01X20345378Y-9115706D01*
G01X20298388Y-9019948D02*
G01X20287212Y-9014360D01*
G01X20270194Y-8997596D01*
G01X20270194Y-9115706D01*
G01X20212028Y-8997596D02*
G01X20150052Y-8997596D01*
G01X20183834Y-9042554D01*
G01X20167070Y-9042554D01*
G01X20155640Y-9048142D01*
G01X20150052Y-9053730D01*
G01X20144464Y-9070494D01*
G01X20144464Y-9081924D01*
G01X20150052Y-9098688D01*
G01X20161228Y-9109864D01*
G01X20178246Y-9115706D01*
G01X20195010Y-9115706D01*
G01X20212028Y-9109864D01*
G01X20217616Y-9104276D01*
G01X20223204Y-9093100D01*
G01X15568231Y-13205554D02*
G01X15574073Y-13194378D01*
G01X15585249Y-13183202D01*
G01X15596425Y-13177614D01*
G01X15619031Y-13177614D01*
G01X15630207Y-13183202D01*
G01X15641383Y-13194378D01*
G01X15646971Y-13205554D01*
G01X15652813Y-13222572D01*
G01X15652813Y-13250512D01*
G01X15646971Y-13267530D01*
G01X15641383Y-13278706D01*
G01X15630207Y-13289882D01*
G01X15619031Y-13295724D01*
G01X15596425Y-13295724D01*
G01X15585249Y-13289882D01*
G01X15574073Y-13278706D01*
G01X15568231Y-13267530D01*
G01X15521241Y-13177614D02*
G01X15521241Y-13295724D01*
G01X15521241Y-13295724D02*
G01X15453677Y-13295724D01*
G01X15401099Y-13205554D02*
G01X15401099Y-13199966D01*
G01X15395511Y-13188790D01*
G01X15389923Y-13183202D01*
G01X15378493Y-13177614D01*
G01X15356141Y-13177614D01*
G01X15344711Y-13183202D01*
G01X15339123Y-13188790D01*
G01X15333535Y-13199966D01*
G01X15333535Y-13211142D01*
G01X15339123Y-13222572D01*
G01X15350553Y-13239336D01*
G01X15406687Y-13295724D01*
G01X15327947Y-13295724D01*
G01X14199957Y-13846314D02*
G01X14199957Y-13964424D01*
G01X14199957Y-13846314D02*
G01X14160587Y-13846314D01*
G01X14143569Y-13851902D01*
G01X14132393Y-13863078D01*
G01X14126805Y-13874254D01*
G01X14121217Y-13891272D01*
G01X14121217Y-13919212D01*
G01X14126805Y-13936230D01*
G01X14132393Y-13947406D01*
G01X14143569Y-13958582D01*
G01X14160587Y-13964424D01*
G01X14199957Y-13964424D01*
G01X14074227Y-13846314D02*
G01X14046033Y-13964424D01*
G01X14018093Y-13846314D02*
G01X14046033Y-13964424D01*
G01X14018093Y-13846314D02*
G01X13989899Y-13964424D01*
G01X13961705Y-13846314D02*
G01X13989899Y-13964424D01*
G01X19863789Y-6907600D02*
G01X19863789Y-7025710D01*
G01X19863789Y-7025710D02*
G01X19796225Y-7025710D01*
G01X19650656Y-7056614D02*
G01X19650656Y-7174724D01*
G01X19650656Y-7056614D02*
G01X19605444Y-7174724D01*
G01X19560486Y-7056614D02*
G01X19605444Y-7174724D01*
G01X19560486Y-7056614D02*
G01X19560486Y-7174724D01*
G01X19457362Y-7056614D02*
G01X19513496Y-7135354D01*
G01X19429168Y-7135354D01*
G01X19457362Y-7056614D02*
G01X19457362Y-7174724D01*
G01X19376590Y-7084554D02*
G01X19376590Y-7078966D01*
G01X19371002Y-7067790D01*
G01X19365414Y-7062202D01*
G01X19353984Y-7056614D01*
G01X19331632Y-7056614D01*
G01X19320202Y-7062202D01*
G01X19314614Y-7067790D01*
G01X19309026Y-7078966D01*
G01X19309026Y-7090142D01*
G01X19314614Y-7101572D01*
G01X19326044Y-7118336D01*
G01X19382178Y-7174724D01*
G01X19303438Y-7174724D01*
G01X16421743Y-13177614D02*
G01X16421743Y-13295724D01*
G01X16421743Y-13177614D02*
G01X16382373Y-13177614D01*
G01X16365355Y-13183202D01*
G01X16354179Y-13194378D01*
G01X16348591Y-13205554D01*
G01X16343003Y-13222572D01*
G01X16343003Y-13250512D01*
G01X16348591Y-13267530D01*
G01X16354179Y-13278706D01*
G01X16365355Y-13289882D01*
G01X16382373Y-13295724D01*
G01X16421743Y-13295724D01*
G01X16239879Y-13177614D02*
G01X16296013Y-13256354D01*
G01X16211685Y-13256354D01*
G01X16239879Y-13177614D02*
G01X16239879Y-13295724D01*
G01X16005282Y-13177614D02*
G01X16005282Y-13295724D01*
G01X16005282Y-13177614D02*
G01X15965912Y-13177614D01*
G01X15948894Y-13183202D01*
G01X15937718Y-13194378D01*
G01X15932130Y-13205554D01*
G01X15926542Y-13222572D01*
G01X15926542Y-13250512D01*
G01X15932130Y-13267530D01*
G01X15937718Y-13278706D01*
G01X15948894Y-13289882D01*
G01X15965912Y-13295724D01*
G01X16005282Y-13295724D01*
G01X15868376Y-13177614D02*
G01X15806400Y-13177614D01*
G01X15840182Y-13222572D01*
G01X15823418Y-13222572D01*
G01X15811988Y-13228160D01*
G01X15806400Y-13233748D01*
G01X15800812Y-13250512D01*
G01X15800812Y-13261942D01*
G01X15806400Y-13278706D01*
G01X15817576Y-13289882D01*
G01X15834594Y-13295724D01*
G01X15851358Y-13295724D01*
G01X15868376Y-13289882D01*
G01X15873964Y-13284294D01*
G01X15879552Y-13273118D01*
G01X15791009Y-9853614D02*
G01X15791009Y-9971724D01*
G01X15791009Y-9853614D02*
G01X15740209Y-9853614D01*
G01X15723445Y-9859202D01*
G01X15717857Y-9864790D01*
G01X15712269Y-9875966D01*
G01X15712269Y-9887142D01*
G01X15717857Y-9898572D01*
G01X15723445Y-9904160D01*
G01X15740209Y-9909748D01*
G01X15791009Y-9909748D02*
G01X15740209Y-9909748D01*
G01X15723445Y-9915336D01*
G01X15717857Y-9920924D01*
G01X15712269Y-9932354D01*
G01X15712269Y-9949118D01*
G01X15717857Y-9960294D01*
G01X15723445Y-9965882D01*
G01X15740209Y-9971724D01*
G01X15791009Y-9971724D01*
G01X15665279Y-9875966D02*
G01X15654103Y-9870378D01*
G01X15637085Y-9853614D01*
G01X15637085Y-9971724D01*
G01X15809486Y-10068554D02*
G01X15815328Y-10057378D01*
G01X15826504Y-10046202D01*
G01X15837680Y-10040614D01*
G01X15860286Y-10040614D01*
G01X15871462Y-10046202D01*
G01X15882638Y-10057378D01*
G01X15888226Y-10068554D01*
G01X15894068Y-10085572D01*
G01X15894068Y-10113512D01*
G01X15888226Y-10130530D01*
G01X15882638Y-10141706D01*
G01X15871462Y-10152882D01*
G01X15860286Y-10158724D01*
G01X15837680Y-10158724D01*
G01X15826504Y-10152882D01*
G01X15815328Y-10141706D01*
G01X15809486Y-10130530D01*
G01X15756908Y-10068554D02*
G01X15756908Y-10062966D01*
G01X15751320Y-10051790D01*
G01X15745732Y-10046202D01*
G01X15734302Y-10040614D01*
G01X15711950Y-10040614D01*
G01X15700520Y-10046202D01*
G01X15694932Y-10051790D01*
G01X15689344Y-10062966D01*
G01X15689344Y-10074142D01*
G01X15694932Y-10085572D01*
G01X15706362Y-10102336D01*
G01X15762496Y-10158724D01*
G01X15683756Y-10158724D01*
G01X15608572Y-10040614D02*
G01X15625590Y-10046202D01*
G01X15631178Y-10057378D01*
G01X15631178Y-10068554D01*
G01X15625590Y-10079984D01*
G01X15614160Y-10085572D01*
G01X15591808Y-10091160D01*
G01X15574790Y-10096748D01*
G01X15563614Y-10107924D01*
G01X15558026Y-10119354D01*
G01X15558026Y-10136118D01*
G01X15563614Y-10147294D01*
G01X15569202Y-10152882D01*
G01X15586220Y-10158724D01*
G01X15608572Y-10158724D01*
G01X15625590Y-10152882D01*
G01X15631178Y-10147294D01*
G01X15636766Y-10136118D01*
G01X15636766Y-10119354D01*
G01X15631178Y-10107924D01*
G01X15620002Y-10096748D01*
G01X15602984Y-10091160D01*
G01X15580632Y-10085572D01*
G01X15569202Y-10079984D01*
G01X15563614Y-10068554D01*
G01X15563614Y-10057378D01*
G01X15569202Y-10046202D01*
G01X15586220Y-10040614D01*
G01X15608572Y-10040614D01*
G01X16383725Y-7824378D02*
G01X16394901Y-7813202D01*
G01X16411665Y-7807614D01*
G01X16434271Y-7807614D01*
G01X16451035Y-7813202D01*
G01X16462465Y-7824378D01*
G01X16462465Y-7835554D01*
G01X16456623Y-7846984D01*
G01X16451035Y-7852572D01*
G01X16439859Y-7858160D01*
G01X16406077Y-7869336D01*
G01X16394901Y-7874924D01*
G01X16389313Y-7880512D01*
G01X16383725Y-7891942D01*
G01X16383725Y-7908706D01*
G01X16394901Y-7919882D01*
G01X16411665Y-7925724D01*
G01X16434271Y-7925724D01*
G01X16451035Y-7919882D01*
G01X16462465Y-7908706D01*
G01X16297365Y-7807614D02*
G01X16297365Y-7925724D01*
G01X16336735Y-7807614D02*
G01X16257995Y-7807614D01*
G01X16166047Y-7807614D02*
G01X16211005Y-7925724D01*
G01X16166047Y-7807614D02*
G01X16121089Y-7925724D01*
G01X16194241Y-7886354D02*
G01X16137853Y-7886354D01*
G01X16074099Y-7807614D02*
G01X16074099Y-7925724D01*
G01X16074099Y-7807614D02*
G01X16023553Y-7807614D01*
G01X16006535Y-7813202D01*
G01X16000947Y-7818790D01*
G01X15995359Y-7829966D01*
G01X15995359Y-7841142D01*
G01X16000947Y-7852572D01*
G01X16006535Y-7858160D01*
G01X16023553Y-7863748D01*
G01X16074099Y-7863748D01*
G01X16034729Y-7863748D02*
G01X15995359Y-7925724D01*
G01X15908999Y-7807614D02*
G01X15908999Y-7925724D01*
G01X15948369Y-7807614D02*
G01X15869629Y-7807614D01*
G01X16113486Y-8029554D02*
G01X16119328Y-8018378D01*
G01X16130504Y-8007202D01*
G01X16141680Y-8001614D01*
G01X16164286Y-8001614D01*
G01X16175462Y-8007202D01*
G01X16186638Y-8018378D01*
G01X16192226Y-8029554D01*
G01X16198068Y-8046572D01*
G01X16198068Y-8074512D01*
G01X16192226Y-8091530D01*
G01X16186638Y-8102706D01*
G01X16175462Y-8113882D01*
G01X16164286Y-8119724D01*
G01X16141680Y-8119724D01*
G01X16130504Y-8113882D01*
G01X16119328Y-8102706D01*
G01X16113486Y-8091530D01*
G01X16055320Y-8001614D02*
G01X15993344Y-8001614D01*
G01X16027126Y-8046572D01*
G01X16010362Y-8046572D01*
G01X15998932Y-8052160D01*
G01X15993344Y-8057748D01*
G01X15987756Y-8074512D01*
G01X15987756Y-8085942D01*
G01X15993344Y-8102706D01*
G01X16004520Y-8113882D01*
G01X16021538Y-8119724D01*
G01X16038302Y-8119724D01*
G01X16055320Y-8113882D01*
G01X16060908Y-8108294D01*
G01X16066496Y-8097118D01*
G01X15906984Y-8001614D02*
G01X15924002Y-8007202D01*
G01X15935178Y-8023966D01*
G01X15940766Y-8052160D01*
G01X15940766Y-8068924D01*
G01X15935178Y-8097118D01*
G01X15924002Y-8113882D01*
G01X15906984Y-8119724D01*
G01X15895808Y-8119724D01*
G01X15878790Y-8113882D01*
G01X15867614Y-8097118D01*
G01X15862026Y-8068924D01*
G01X15862026Y-8052160D01*
G01X15867614Y-8023966D01*
G01X15878790Y-8007202D01*
G01X15895808Y-8001614D01*
G01X15906984Y-8001614D01*
G01X14907273Y-13847314D02*
G01X14907273Y-13965424D01*
G01X14907273Y-13847314D02*
G01X14867903Y-13847314D01*
G01X14850885Y-13852902D01*
G01X14839709Y-13864078D01*
G01X14834121Y-13875254D01*
G01X14828533Y-13892272D01*
G01X14828533Y-13920212D01*
G01X14834121Y-13937230D01*
G01X14839709Y-13948406D01*
G01X14850885Y-13959582D01*
G01X14867903Y-13965424D01*
G01X14907273Y-13965424D01*
G01X14775955Y-13875254D02*
G01X14775955Y-13869666D01*
G01X14770367Y-13858490D01*
G01X14764779Y-13852902D01*
G01X14753349Y-13847314D01*
G01X14730997Y-13847314D01*
G01X14719567Y-13852902D01*
G01X14713979Y-13858490D01*
G01X14708391Y-13869666D01*
G01X14708391Y-13880842D01*
G01X14713979Y-13892272D01*
G01X14725409Y-13909036D01*
G01X14781543Y-13965424D01*
G01X14702803Y-13965424D01*
G01X16591299Y-13849614D02*
G01X16591299Y-13967724D01*
G01X16591299Y-13849614D02*
G01X16551929Y-13849614D01*
G01X16534911Y-13855202D01*
G01X16523735Y-13866378D01*
G01X16518147Y-13877554D01*
G01X16512559Y-13894572D01*
G01X16512559Y-13922512D01*
G01X16518147Y-13939530D01*
G01X16523735Y-13950706D01*
G01X16534911Y-13961882D01*
G01X16551929Y-13967724D01*
G01X16591299Y-13967724D01*
G01X16409435Y-13849614D02*
G01X16465569Y-13928354D01*
G01X16381241Y-13928354D01*
G01X16409435Y-13849614D02*
G01X16409435Y-13967724D01*
G01X16075901Y-13848314D02*
G01X16075901Y-13966424D01*
G01X16075901Y-13848314D02*
G01X16036531Y-13848314D01*
G01X16019513Y-13853902D01*
G01X16008337Y-13865078D01*
G01X16002749Y-13876254D01*
G01X15997161Y-13893272D01*
G01X15997161Y-13921212D01*
G01X16002749Y-13938230D01*
G01X16008337Y-13949406D01*
G01X16019513Y-13960582D01*
G01X16036531Y-13966424D01*
G01X16075901Y-13966424D01*
G01X15938995Y-13848314D02*
G01X15877019Y-13848314D01*
G01X15910801Y-13893272D01*
G01X15894037Y-13893272D01*
G01X15882607Y-13898860D01*
G01X15877019Y-13904448D01*
G01X15871431Y-13921212D01*
G01X15871431Y-13932642D01*
G01X15877019Y-13949406D01*
G01X15888195Y-13960582D01*
G01X15905213Y-13966424D01*
G01X15921977Y-13966424D01*
G01X15938995Y-13960582D01*
G01X15944583Y-13954994D01*
G01X15950171Y-13943818D01*
G01X15350501Y-13871254D02*
G01X15356343Y-13860078D01*
G01X15367519Y-13848902D01*
G01X15378695Y-13843314D01*
G01X15401301Y-13843314D01*
G01X15412477Y-13848902D01*
G01X15423653Y-13860078D01*
G01X15429241Y-13871254D01*
G01X15435083Y-13888272D01*
G01X15435083Y-13916212D01*
G01X15429241Y-13933230D01*
G01X15423653Y-13944406D01*
G01X15412477Y-13955582D01*
G01X15401301Y-13961424D01*
G01X15378695Y-13961424D01*
G01X15367519Y-13955582D01*
G01X15356343Y-13944406D01*
G01X15350501Y-13933230D01*
G01X15303511Y-13843314D02*
G01X15303511Y-13961424D01*
G01X15303511Y-13961424D02*
G01X15235947Y-13961424D01*
G01X15183369Y-13871254D02*
G01X15183369Y-13865666D01*
G01X15177781Y-13854490D01*
G01X15172193Y-13848902D01*
G01X15160763Y-13843314D01*
G01X15138411Y-13843314D01*
G01X15126981Y-13848902D01*
G01X15121393Y-13854490D01*
G01X15115805Y-13865666D01*
G01X15115805Y-13876842D01*
G01X15121393Y-13888272D01*
G01X15132823Y-13905036D01*
G01X15188957Y-13961424D01*
G01X15110217Y-13961424D01*
G01X14353494Y-12560561D02*
G01X14359336Y-12549385D01*
G01X14370512Y-12538209D01*
G01X14381688Y-12532621D01*
G01X14404294Y-12532621D01*
G01X14415470Y-12538209D01*
G01X14426646Y-12549385D01*
G01X14432234Y-12560561D01*
G01X14438076Y-12577579D01*
G01X14438076Y-12605519D01*
G01X14432234Y-12622537D01*
G01X14426646Y-12633713D01*
G01X14415470Y-12644889D01*
G01X14404294Y-12650731D01*
G01X14381688Y-12650731D01*
G01X14370512Y-12644889D01*
G01X14359336Y-12633713D01*
G01X14353494Y-12622537D01*
G01X14353494Y-12605519D01*
G01X14381688Y-12605519D02*
G01X14353494Y-12605519D01*
G01X14306504Y-12532621D02*
G01X14306504Y-12650731D01*
G01X14306504Y-12532621D02*
G01X14227764Y-12650731D01*
G01X14227764Y-12532621D02*
G01X14227764Y-12650731D01*
G01X14180774Y-12532621D02*
G01X14180774Y-12650731D01*
G01X14180774Y-12532621D02*
G01X14141404Y-12532621D01*
G01X14124640Y-12538209D01*
G01X14113210Y-12549385D01*
G01X14107622Y-12560561D01*
G01X14102034Y-12577579D01*
G01X14102034Y-12605519D01*
G01X14107622Y-12622537D01*
G01X14113210Y-12633713D01*
G01X14124640Y-12644889D01*
G01X14141404Y-12650731D01*
G01X14180774Y-12650731D01*
G01X19247417Y-6752614D02*
G01X19247417Y-6870724D01*
G01X19247417Y-6752614D02*
G01X19196617Y-6752614D01*
G01X19179853Y-6758202D01*
G01X19174265Y-6763790D01*
G01X19168677Y-6774966D01*
G01X19168677Y-6786142D01*
G01X19174265Y-6797572D01*
G01X19179853Y-6803160D01*
G01X19196617Y-6808748D01*
G01X19247417Y-6808748D01*
G01X19208047Y-6808748D02*
G01X19168677Y-6870724D01*
G01X19888344Y-6482601D02*
G01X19888344Y-6600711D01*
G01X19888344Y-6482601D02*
G01X19843132Y-6600711D01*
G01X19798174Y-6482601D02*
G01X19843132Y-6600711D01*
G01X19798174Y-6482601D02*
G01X19798174Y-6600711D01*
G01X19695050Y-6482601D02*
G01X19751184Y-6561341D01*
G01X19666856Y-6561341D01*
G01X19695050Y-6482601D02*
G01X19695050Y-6600711D01*
G01X19619866Y-6504953D02*
G01X19608690Y-6499365D01*
G01X19591672Y-6482601D01*
G01X19591672Y-6600711D01*
G01X17476960Y-12979352D02*
G01X17488136Y-12968176D01*
G01X17504900Y-12962588D01*
G01X17527506Y-12962588D01*
G01X17544270Y-12968176D01*
G01X17555700Y-12979352D01*
G01X17555700Y-12990528D01*
G01X17549858Y-13001958D01*
G01X17544270Y-13007546D01*
G01X17533094Y-13013134D01*
G01X17499312Y-13024310D01*
G01X17488136Y-13029898D01*
G01X17482548Y-13035486D01*
G01X17476960Y-13046916D01*
G01X17476960Y-13063680D01*
G01X17488136Y-13074856D01*
G01X17504900Y-13080698D01*
G01X17527506Y-13080698D01*
G01X17544270Y-13074856D01*
G01X17555700Y-13063680D01*
G01X17429970Y-12962588D02*
G01X17429970Y-13080698D01*
G01X17429970Y-12962588D02*
G01X17385012Y-13080698D01*
G01X17340054Y-12962588D02*
G01X17385012Y-13080698D01*
G01X17340054Y-12962588D02*
G01X17340054Y-13080698D01*
G01X17214324Y-12979352D02*
G01X17225500Y-12968176D01*
G01X17242518Y-12962588D01*
G01X17264870Y-12962588D01*
G01X17281888Y-12968176D01*
G01X17293064Y-12979352D01*
G01X17293064Y-12990528D01*
G01X17287476Y-13001958D01*
G01X17281888Y-13007546D01*
G01X17270458Y-13013134D01*
G01X17236930Y-13024310D01*
G01X17225500Y-13029898D01*
G01X17219912Y-13035486D01*
G01X17214324Y-13046916D01*
G01X17214324Y-13063680D01*
G01X17225500Y-13074856D01*
G01X17242518Y-13080698D01*
G01X17264870Y-13080698D01*
G01X17281888Y-13074856D01*
G01X17293064Y-13063680D01*
G01X17481960Y-12054354D02*
G01X17493136Y-12043178D01*
G01X17509900Y-12037590D01*
G01X17532506Y-12037590D01*
G01X17549270Y-12043178D01*
G01X17560700Y-12054354D01*
G01X17560700Y-12065530D01*
G01X17554858Y-12076960D01*
G01X17549270Y-12082548D01*
G01X17538094Y-12088136D01*
G01X17504312Y-12099312D01*
G01X17493136Y-12104900D01*
G01X17487548Y-12110488D01*
G01X17481960Y-12121918D01*
G01X17481960Y-12138682D01*
G01X17493136Y-12149858D01*
G01X17509900Y-12155700D01*
G01X17532506Y-12155700D01*
G01X17549270Y-12149858D01*
G01X17560700Y-12138682D01*
G01X17434970Y-12037590D02*
G01X17434970Y-12155700D01*
G01X17434970Y-12037590D02*
G01X17390012Y-12155700D01*
G01X17345054Y-12037590D02*
G01X17390012Y-12155700D01*
G01X17345054Y-12037590D02*
G01X17345054Y-12155700D01*
G01X17219324Y-12054354D02*
G01X17230500Y-12043178D01*
G01X17247518Y-12037590D01*
G01X17269870Y-12037590D01*
G01X17286888Y-12043178D01*
G01X17298064Y-12054354D01*
G01X17298064Y-12065530D01*
G01X17292476Y-12076960D01*
G01X17286888Y-12082548D01*
G01X17275458Y-12088136D01*
G01X17241930Y-12099312D01*
G01X17230500Y-12104900D01*
G01X17224912Y-12110488D01*
G01X17219324Y-12121918D01*
G01X17219324Y-12138682D01*
G01X17230500Y-12149858D01*
G01X17247518Y-12155700D01*
G01X17269870Y-12155700D01*
G01X17286888Y-12149858D01*
G01X17298064Y-12138682D01*
G01X21592239Y-8367597D02*
G01X21592239Y-8451925D01*
G01X21586397Y-8468689D01*
G01X21575221Y-8479865D01*
G01X21558457Y-8485707D01*
G01X21547027Y-8485707D01*
G01X21530263Y-8479865D01*
G01X21519087Y-8468689D01*
G01X21513499Y-8451925D01*
G01X21513499Y-8367597D01*
G01X21466509Y-8367597D02*
G01X21466509Y-8485707D01*
G01X21466509Y-8367597D02*
G01X21415963Y-8367597D01*
G01X21398945Y-8373185D01*
G01X21393357Y-8378773D01*
G01X21387769Y-8389949D01*
G01X21387769Y-8406967D01*
G01X21393357Y-8418143D01*
G01X21398945Y-8423731D01*
G01X21415963Y-8429319D01*
G01X21466509Y-8429319D01*
G01X21390547Y-8462597D02*
G01X21390547Y-8580707D01*
G01X21390547Y-8462597D02*
G01X21345335Y-8580707D01*
G01X21300377Y-8462597D02*
G01X21345335Y-8580707D01*
G01X21300377Y-8462597D02*
G01X21300377Y-8580707D01*
G01X21253387Y-8484949D02*
G01X21242211Y-8479361D01*
G01X21225193Y-8462597D01*
G01X21225193Y-8580707D01*
G01X21144421Y-8462597D02*
G01X21161439Y-8468185D01*
G01X21172615Y-8484949D01*
G01X21178203Y-8513143D01*
G01X21178203Y-8529907D01*
G01X21172615Y-8558101D01*
G01X21161439Y-8574865D01*
G01X21144421Y-8580707D01*
G01X21133245Y-8580707D01*
G01X21116227Y-8574865D01*
G01X21105051Y-8558101D01*
G01X21099463Y-8529907D01*
G01X21099463Y-8513143D01*
G01X21105051Y-8484949D01*
G01X21116227Y-8468185D01*
G01X21133245Y-8462597D01*
G01X21144421Y-8462597D01*
G01X21090449Y-9277595D02*
G01X21090449Y-9395705D01*
G01X21090449Y-9277595D02*
G01X21051079Y-9277595D01*
G01X21034061Y-9283183D01*
G01X21022885Y-9294359D01*
G01X21017297Y-9305535D01*
G01X21011709Y-9322553D01*
G01X21011709Y-9350493D01*
G01X21017297Y-9367511D01*
G01X21022885Y-9378687D01*
G01X21034061Y-9389863D01*
G01X21051079Y-9395705D01*
G01X21090449Y-9395705D01*
G01X20930937Y-9277595D02*
G01X20942113Y-9283183D01*
G01X20953543Y-9294359D01*
G01X20959131Y-9305535D01*
G01X20964719Y-9322553D01*
G01X20964719Y-9350493D01*
G01X20959131Y-9367511D01*
G01X20953543Y-9378687D01*
G01X20942113Y-9389863D01*
G01X20930937Y-9395705D01*
G01X20908585Y-9395705D01*
G01X20897155Y-9389863D01*
G01X20885979Y-9378687D01*
G01X20880391Y-9367511D01*
G01X20874803Y-9350493D01*
G01X20874803Y-9322553D01*
G01X20880391Y-9305535D01*
G01X20885979Y-9294359D01*
G01X20897155Y-9283183D01*
G01X20908585Y-9277595D01*
G01X20930937Y-9277595D01*
G01X20827813Y-9277595D02*
G01X20799619Y-9395705D01*
G01X20771679Y-9277595D02*
G01X20799619Y-9395705D01*
G01X20771679Y-9277595D02*
G01X20743485Y-9395705D01*
G01X20715291Y-9277595D02*
G01X20743485Y-9395705D01*
G01X20668301Y-9277595D02*
G01X20668301Y-9395705D01*
G01X20668301Y-9277595D02*
G01X20589561Y-9395705D01*
G01X20589561Y-9277595D02*
G01X20589561Y-9395705D01*
G01X20495275Y-9277595D02*
G01X20495275Y-9395705D01*
G01X20495275Y-9277595D02*
G01X20450063Y-9395705D01*
G01X20405105Y-9277595D02*
G01X20450063Y-9395705D01*
G01X20405105Y-9277595D02*
G01X20405105Y-9395705D01*
G01X20358115Y-9299947D02*
G01X20346939Y-9294359D01*
G01X20329921Y-9277595D01*
G01X20329921Y-9395705D01*
G01X20282931Y-9299947D02*
G01X20271755Y-9294359D01*
G01X20254737Y-9277595D01*
G01X20254737Y-9395705D01*
G01X15593494Y-12550561D02*
G01X15599336Y-12539385D01*
G01X15610512Y-12528209D01*
G01X15621688Y-12522621D01*
G01X15644294Y-12522621D01*
G01X15655470Y-12528209D01*
G01X15666646Y-12539385D01*
G01X15672234Y-12550561D01*
G01X15678076Y-12567579D01*
G01X15678076Y-12595519D01*
G01X15672234Y-12612537D01*
G01X15666646Y-12623713D01*
G01X15655470Y-12634889D01*
G01X15644294Y-12640731D01*
G01X15621688Y-12640731D01*
G01X15610512Y-12634889D01*
G01X15599336Y-12623713D01*
G01X15593494Y-12612537D01*
G01X15593494Y-12595519D01*
G01X15621688Y-12595519D02*
G01X15593494Y-12595519D01*
G01X15546504Y-12522621D02*
G01X15546504Y-12640731D01*
G01X15546504Y-12522621D02*
G01X15467764Y-12640731D01*
G01X15467764Y-12522621D02*
G01X15467764Y-12640731D01*
G01X15420774Y-12522621D02*
G01X15420774Y-12640731D01*
G01X15420774Y-12522621D02*
G01X15381404Y-12522621D01*
G01X15364640Y-12528209D01*
G01X15353210Y-12539385D01*
G01X15347622Y-12550561D01*
G01X15342034Y-12567579D01*
G01X15342034Y-12595519D01*
G01X15347622Y-12612537D01*
G01X15353210Y-12623713D01*
G01X15364640Y-12634889D01*
G01X15381404Y-12640731D01*
G01X15420774Y-12640731D01*
G01X14369456Y-13179914D02*
G01X14369456Y-13298024D01*
G01X14369456Y-13179914D02*
G01X14330086Y-13179914D01*
G01X14313068Y-13185502D01*
G01X14301892Y-13196678D01*
G01X14296304Y-13207854D01*
G01X14290716Y-13224872D01*
G01X14290716Y-13252812D01*
G01X14296304Y-13269830D01*
G01X14301892Y-13281006D01*
G01X14313068Y-13292182D01*
G01X14330086Y-13298024D01*
G01X14369456Y-13298024D01*
G01X14243726Y-13179914D02*
G01X14215532Y-13298024D01*
G01X14187592Y-13179914D02*
G01X14215532Y-13298024D01*
G01X14187592Y-13179914D02*
G01X14159398Y-13298024D01*
G01X14131204Y-13179914D02*
G01X14159398Y-13298024D01*
G01X14968456Y-12980528D02*
G01X14974298Y-12969352D01*
G01X14985474Y-12958176D01*
G01X14996650Y-12952588D01*
G01X15019256Y-12952588D01*
G01X15030432Y-12958176D01*
G01X15041608Y-12969352D01*
G01X15047196Y-12980528D01*
G01X15053038Y-12997546D01*
G01X15053038Y-13025486D01*
G01X15047196Y-13042504D01*
G01X15041608Y-13053680D01*
G01X15030432Y-13064856D01*
G01X15019256Y-13070698D01*
G01X14996650Y-13070698D01*
G01X14985474Y-13064856D01*
G01X14974298Y-13053680D01*
G01X14968456Y-13042504D01*
G01X14968456Y-13025486D01*
G01X14996650Y-13025486D02*
G01X14968456Y-13025486D01*
G01X14921466Y-12952588D02*
G01X14921466Y-13070698D01*
G01X14921466Y-12952588D02*
G01X14842726Y-13070698D01*
G01X14842726Y-12952588D02*
G01X14842726Y-13070698D01*
G01X14795736Y-12952588D02*
G01X14795736Y-13070698D01*
G01X14795736Y-12952588D02*
G01X14756366Y-12952588D01*
G01X14739602Y-12958176D01*
G01X14728172Y-12969352D01*
G01X14722584Y-12980528D01*
G01X14716996Y-12997546D01*
G01X14716996Y-13025486D01*
G01X14722584Y-13042504D01*
G01X14728172Y-13053680D01*
G01X14739602Y-13064856D01*
G01X14756366Y-13070698D01*
G01X14795736Y-13070698D01*
G01X16997352Y-6557154D02*
G01X16879242Y-6557154D01*
G01X16997352Y-6557154D02*
G01X16997352Y-6506354D01*
G01X16991764Y-6489590D01*
G01X16986176Y-6484002D01*
G01X16975000Y-6478414D01*
G01X16963824Y-6478414D01*
G01X16952394Y-6484002D01*
G01X16946806Y-6489590D01*
G01X16941218Y-6506354D01*
G01X16941218Y-6557154D02*
G01X16941218Y-6506354D01*
G01X16935630Y-6489590D01*
G01X16930042Y-6484002D01*
G01X16918612Y-6478414D01*
G01X16901848Y-6478414D01*
G01X16890672Y-6484002D01*
G01X16885084Y-6489590D01*
G01X16879242Y-6506354D01*
G01X16879242Y-6557154D01*
G01X16997352Y-6431424D02*
G01X16879242Y-6431424D01*
G01X16997352Y-6431424D02*
G01X16997352Y-6380878D01*
G01X16991764Y-6363860D01*
G01X16986176Y-6358272D01*
G01X16975000Y-6352684D01*
G01X16963824Y-6352684D01*
G01X16952394Y-6358272D01*
G01X16946806Y-6363860D01*
G01X16941218Y-6380878D01*
G01X16941218Y-6431424D01*
G01X16941218Y-6392054D02*
G01X16879242Y-6352684D01*
G01X16997352Y-6305694D02*
G01X16879242Y-6305694D01*
G01X16969412Y-6174376D02*
G01X16980588Y-6179964D01*
G01X16991764Y-6191140D01*
G01X16997352Y-6202316D01*
G01X16997352Y-6224922D01*
G01X16991764Y-6236098D01*
G01X16980588Y-6247528D01*
G01X16969412Y-6253116D01*
G01X16952394Y-6258704D01*
G01X16924454Y-6258704D01*
G01X16907436Y-6253116D01*
G01X16896260Y-6247528D01*
G01X16885084Y-6236098D01*
G01X16879242Y-6224922D01*
G01X16879242Y-6202316D01*
G01X16885084Y-6191140D01*
G01X16896260Y-6179964D01*
G01X16907436Y-6174376D01*
G01X16924454Y-6174376D01*
G01X16924454Y-6202316D02*
G01X16924454Y-6174376D01*
G01X16997352Y-6127386D02*
G01X16879242Y-6127386D01*
G01X16997352Y-6048646D02*
G01X16879242Y-6048646D01*
G01X16941218Y-6127386D02*
G01X16941218Y-6048646D01*
G01X16997352Y-5962286D02*
G01X16879242Y-5962286D01*
G01X16997352Y-6001656D02*
G01X16997352Y-5922916D01*
G01X15177949Y-13177614D02*
G01X15177949Y-13295724D01*
G01X15177949Y-13177614D02*
G01X15138579Y-13177614D01*
G01X15121561Y-13183202D01*
G01X15110385Y-13194378D01*
G01X15104797Y-13205554D01*
G01X15099209Y-13222572D01*
G01X15099209Y-13250512D01*
G01X15104797Y-13267530D01*
G01X15110385Y-13278706D01*
G01X15121561Y-13289882D01*
G01X15138579Y-13295724D01*
G01X15177949Y-13295724D01*
G01X15046631Y-13205554D02*
G01X15046631Y-13199966D01*
G01X15041043Y-13188790D01*
G01X15035455Y-13183202D01*
G01X15024025Y-13177614D01*
G01X15001673Y-13177614D01*
G01X14990243Y-13183202D01*
G01X14984655Y-13188790D01*
G01X14979067Y-13199966D01*
G01X14979067Y-13211142D01*
G01X14984655Y-13222572D01*
G01X14996085Y-13239336D01*
G01X15052219Y-13295724D01*
G01X14973479Y-13295724D01*
G01X14737009Y-13176614D02*
G01X14737009Y-13294724D01*
G01X14737009Y-13176614D02*
G01X14697639Y-13176614D01*
G01X14680621Y-13182202D01*
G01X14669445Y-13193378D01*
G01X14663857Y-13204554D01*
G01X14658269Y-13221572D01*
G01X14658269Y-13249512D01*
G01X14663857Y-13266530D01*
G01X14669445Y-13277706D01*
G01X14680621Y-13288882D01*
G01X14697639Y-13294724D01*
G01X14737009Y-13294724D01*
G01X14611279Y-13198966D02*
G01X14600103Y-13193378D01*
G01X14583085Y-13176614D01*
G01X14583085Y-13294724D01*
G01X16615377Y-12536994D02*
G01X16615377Y-12610146D01*
G01X16651953Y-12573570D02*
G01X16578801Y-12573570D01*
G01X16490663Y-12524802D02*
G01X16531303Y-12524802D01*
G01X16535113Y-12561378D01*
G01X16531303Y-12557314D01*
G01X16519111Y-12553250D01*
G01X16506919Y-12553250D01*
G01X16494727Y-12557314D01*
G01X16486599Y-12565442D01*
G01X16482535Y-12577634D01*
G01X16482535Y-12585762D01*
G01X16486599Y-12597954D01*
G01X16494727Y-12606082D01*
G01X16506919Y-12610146D01*
G01X16519111Y-12610146D01*
G01X16531303Y-12606082D01*
G01X16535113Y-12602018D01*
G01X16539177Y-12593890D01*
G01X16442911Y-12524802D02*
G01X16410653Y-12610146D01*
G01X16378141Y-12524802D02*
G01X16410653Y-12610146D01*
G01X16640238Y-12984378D02*
G01X16640238Y-13085724D01*
G01X16691038Y-13034924D02*
G01X16589692Y-13034924D01*
G01X16475138Y-12967614D02*
G01X16531526Y-12967614D01*
G01X16537114Y-13018160D01*
G01X16531526Y-13012572D01*
G01X16514508Y-13006984D01*
G01X16497744Y-13006984D01*
G01X16480726Y-13012572D01*
G01X16469550Y-13023748D01*
G01X16463962Y-13040512D01*
G01X16463962Y-13051942D01*
G01X16469550Y-13068706D01*
G01X16480726Y-13079882D01*
G01X16497744Y-13085724D01*
G01X16514508Y-13085724D01*
G01X16531526Y-13079882D01*
G01X16537114Y-13074294D01*
G01X16542702Y-13063118D01*
G01X16416972Y-12967614D02*
G01X16372014Y-13085724D01*
G01X16327056Y-12967614D02*
G01X16372014Y-13085724D01*
G01X14531396Y-13843314D02*
G01X14531396Y-13961424D01*
G01X14531396Y-13843314D02*
G01X14492026Y-13843314D01*
G01X14475008Y-13848902D01*
G01X14463832Y-13860078D01*
G01X14458244Y-13871254D01*
G01X14452656Y-13888272D01*
G01X14452656Y-13916212D01*
G01X14458244Y-13933230D01*
G01X14463832Y-13944406D01*
G01X14475008Y-13955582D01*
G01X14492026Y-13961424D01*
G01X14531396Y-13961424D01*
G01X14405666Y-13865666D02*
G01X14394490Y-13860078D01*
G01X14377472Y-13843314D01*
G01X14377472Y-13961424D01*
G01X14223494Y-12060561D02*
G01X14229336Y-12049385D01*
G01X14240512Y-12038209D01*
G01X14251688Y-12032621D01*
G01X14274294Y-12032621D01*
G01X14285470Y-12038209D01*
G01X14296646Y-12049385D01*
G01X14302234Y-12060561D01*
G01X14308076Y-12077579D01*
G01X14308076Y-12105519D01*
G01X14302234Y-12122537D01*
G01X14296646Y-12133713D01*
G01X14285470Y-12144889D01*
G01X14274294Y-12150731D01*
G01X14251688Y-12150731D01*
G01X14240512Y-12144889D01*
G01X14229336Y-12133713D01*
G01X14223494Y-12122537D01*
G01X14223494Y-12105519D01*
G01X14251688Y-12105519D02*
G01X14223494Y-12105519D01*
G01X14176504Y-12032621D02*
G01X14176504Y-12150731D01*
G01X14176504Y-12032621D02*
G01X14097764Y-12150731D01*
G01X14097764Y-12032621D02*
G01X14097764Y-12150731D01*
G01X14050774Y-12032621D02*
G01X14050774Y-12150731D01*
G01X14050774Y-12032621D02*
G01X14011404Y-12032621D01*
G01X13994640Y-12038209D01*
G01X13983210Y-12049385D01*
G01X13977622Y-12060561D01*
G01X13972034Y-12077579D01*
G01X13972034Y-12105519D01*
G01X13977622Y-12122537D01*
G01X13983210Y-12133713D01*
G01X13994640Y-12144889D01*
G01X14011404Y-12150731D01*
G01X14050774Y-12150731D01*
G54D11*
G01X13824099Y-13319553D02*
G01X13824099Y-13547899D01*
G01X13824099Y-13319553D02*
G01X13682621Y-13319553D01*
G01X13824099Y-13428265D02*
G01X13736977Y-13428265D01*
G01X13578481Y-13319553D02*
G01X13578481Y-13547899D01*
G01X13578481Y-13319553D02*
G01X13480437Y-13319553D01*
G01X13447925Y-13330475D01*
G01X13437003Y-13341143D01*
G01X13426081Y-13362987D01*
G01X13426081Y-13384831D01*
G01X13437003Y-13406421D01*
G01X13447925Y-13417343D01*
G01X13480437Y-13428265D01*
G01X13578481Y-13428265D01*
G01X13502281Y-13428265D02*
G01X13426081Y-13547899D01*
G01X13256663Y-13319553D02*
G01X13278507Y-13330475D01*
G01X13300097Y-13352065D01*
G01X13311019Y-13373909D01*
G01X13321941Y-13406421D01*
G01X13321941Y-13460777D01*
G01X13311019Y-13493543D01*
G01X13300097Y-13515133D01*
G01X13278507Y-13536977D01*
G01X13256663Y-13547899D01*
G01X13213229Y-13547899D01*
G01X13191385Y-13536977D01*
G01X13169541Y-13515133D01*
G01X13158873Y-13493543D01*
G01X13147951Y-13460777D01*
G01X13147951Y-13406421D01*
G01X13158873Y-13373909D01*
G01X13169541Y-13352065D01*
G01X13191385Y-13330475D01*
G01X13213229Y-13319553D01*
G01X13256663Y-13319553D01*
G01X13043811Y-13319553D02*
G01X13043811Y-13547899D01*
G01X13043811Y-13319553D02*
G01X12891411Y-13547899D01*
G01X12891411Y-13319553D02*
G01X12891411Y-13547899D01*
G01X12711071Y-13319553D02*
G01X12711071Y-13547899D01*
G01X12787271Y-13319553D02*
G01X12634871Y-13319553D01*
G04 Text End*

G04 PolygonModel Start*
G54D13*
G01X16408931Y-14090300D02*
G01X16408931Y-14250000D01*
G01X14527304Y-14090300D02*
G01X14527304Y-14250000D01*
G01X13541689Y-14090300D02*
G01X13541689Y-14250000D01*
G54D14*
G01X15817000Y-10314000D02*
G01X15817000Y-10214000D01*
G54D13*
G01X17932203Y-14090150D02*
G01X17932203Y-14249850D01*
G54D14*
G01X17752916Y-14044937D02*
G01X17800416Y-13997437D01*
G54D13*
G01X15602519Y-14090300D02*
G01X15602519Y-14250000D01*
G01X12645676Y-14090300D02*
G01X12645676Y-14250000D01*
G54D14*
G01X16300000Y-7703000D02*
G01X16400000Y-7703000D01*
G54D13*
G01X15064911Y-14090300D02*
G01X15064911Y-14250000D01*
G01X17484146Y-14090300D02*
G01X17484146Y-14250000D01*
G54D15*
G01X14258500Y-14060000D02*
G01X14258500Y-14037000D01*
G54D13*
G01X14975310Y-14090300D02*
G01X14975310Y-14250000D01*
G01X11749663Y-14090452D02*
G01X11749663Y-14250152D01*
G54D14*
G01X11750185Y-14047722D02*
G01X11797685Y-14000222D01*
G54D13*
G01X11839265Y-14090452D02*
G01X11839265Y-14250152D01*
G54D15*
G01X16140127Y-14063000D02*
G01X16140127Y-14040000D01*
G54D13*
G01X14348101Y-14090300D02*
G01X14348101Y-14250000D01*
G01X15333715Y-14090300D02*
G01X15333715Y-14250000D01*
G01X12914480Y-14090300D02*
G01X12914480Y-14250000D01*
G01X16946538Y-14090300D02*
G01X16946538Y-14250000D01*
G54D14*
G01X15617000Y-10313000D02*
G01X15617000Y-10213000D01*
G54D13*
G01X12108069Y-14090300D02*
G01X12108069Y-14250000D01*
G01X14706506Y-14090300D02*
G01X14706506Y-14250000D01*
G54D11*
G01X12366076Y-13421217D02*
G01X12366076Y-13203217D01*
G54D13*
G01X16856937Y-14090300D02*
G01X16856937Y-14250000D01*
G54D14*
G01X16401000Y-7503000D02*
G01X16401000Y-7703000D01*
G54D13*
G01X12735278Y-14090300D02*
G01X12735278Y-14250000D01*
G01X14079297Y-14090300D02*
G01X14079297Y-14250000D01*
G01X17036140Y-14090300D02*
G01X17036140Y-14250000D01*
G01X18021804Y-14090150D02*
G01X18021804Y-14249850D01*
G01X18201006Y-14090150D02*
G01X18201006Y-14249850D01*
G01X16498532Y-14090300D02*
G01X16498532Y-14250000D01*
G01X13183284Y-14090300D02*
G01X13183284Y-14250000D01*
G54D15*
G01X16319329Y-14064000D02*
G01X16319329Y-14041000D01*
G54D13*
G01X13093683Y-14090300D02*
G01X13093683Y-14250000D01*
G01X15423316Y-14090300D02*
G01X15423316Y-14250000D01*
G54D15*
G01X15244114Y-14064000D02*
G01X15244114Y-14041000D01*
G54D13*
G01X17215342Y-14090150D02*
G01X17215342Y-14249850D01*
G54D14*
G01X11750185Y-14047722D02*
G01X11702685Y-14000222D01*
G54D13*
G01X13362487Y-14090300D02*
G01X13362487Y-14250000D01*
G01X18111405Y-14090150D02*
G01X18111405Y-14249850D01*
G54D11*
G01X12366196Y-13203098D02*
G01X12267421Y-13301872D01*
G54D13*
G01X15960924Y-14090300D02*
G01X15960924Y-14250000D01*
G01X17752950Y-14090300D02*
G01X17752950Y-14250000D01*
G01X15154513Y-14090300D02*
G01X15154513Y-14250000D01*
G01X15781722Y-14090300D02*
G01X15781722Y-14250000D01*
G54D11*
G01X12366174Y-13202917D02*
G01X12464579Y-13301322D01*
G54D13*
G01X13810493Y-14090300D02*
G01X13810493Y-14250000D01*
G54D14*
G01X11750185Y-13897722D02*
G01X11750185Y-14047722D01*
G54D13*
G01X17304943Y-14090300D02*
G01X17304943Y-14250000D01*
G54D14*
G01X12248000Y-13663000D02*
G01X17580000Y-13663000D01*
G54D15*
G01X14437702Y-14062000D02*
G01X14437702Y-14039000D01*
G54D13*
G01X15692120Y-14090300D02*
G01X15692120Y-14250000D01*
G01X17663349Y-14090300D02*
G01X17663349Y-14250000D01*
G01X13452088Y-14090300D02*
G01X13452088Y-14250000D01*
G01X14796107Y-14090300D02*
G01X14796107Y-14250000D01*
G01X12556075Y-14090300D02*
G01X12556075Y-14250000D01*
G01X14168898Y-14090300D02*
G01X14168898Y-14250000D01*
G01X14885709Y-14090300D02*
G01X14885709Y-14250000D01*
G54D14*
G01X16301000Y-7503000D02*
G01X16401000Y-7503000D01*
G01X15617000Y-10213000D02*
G01X15817000Y-10213000D01*
G54D13*
G01X16588133Y-14090300D02*
G01X16588133Y-14250000D01*
G01X13631291Y-14090300D02*
G01X13631291Y-14250000D01*
G01X16767336Y-14090300D02*
G01X16767336Y-14250000D01*
G01X13272885Y-14090300D02*
G01X13272885Y-14250000D01*
G01X12824879Y-14090300D02*
G01X12824879Y-14250000D01*
G01X17394545Y-14090300D02*
G01X17394545Y-14250000D01*
G01X12197670Y-14090300D02*
G01X12197670Y-14250000D01*
G01X15871323Y-14090300D02*
G01X15871323Y-14250000D01*
G01X12376873Y-14090300D02*
G01X12376873Y-14250000D01*
G54D14*
G01X17752916Y-13894937D02*
G01X17752916Y-14044937D01*
G54D13*
G01X16050526Y-14090300D02*
G01X16050526Y-14250000D01*
G01X12287271Y-14090300D02*
G01X12287271Y-14250000D01*
G01X16677734Y-14090300D02*
G01X16677734Y-14250000D01*
G01X11928866Y-14090452D02*
G01X11928866Y-14250152D01*
G01X16229728Y-14090300D02*
G01X16229728Y-14250000D01*
G01X15512918Y-14090300D02*
G01X15512918Y-14250000D01*
G01X17125741Y-14090150D02*
G01X17125741Y-14249850D01*
G01X17842601Y-14090150D02*
G01X17842601Y-14249850D01*
G01X13989696Y-14090300D02*
G01X13989696Y-14250000D01*
G01X17573747Y-14090300D02*
G01X17573747Y-14250000D01*
G01X12018467Y-14090300D02*
G01X12018467Y-14250000D01*
G01X12466474Y-14090300D02*
G01X12466474Y-14250000D01*
G01X13720892Y-14090300D02*
G01X13720892Y-14250000D01*
G54D15*
G01X14616905Y-14066000D02*
G01X14616905Y-14043000D01*
G54D14*
G01X17752916Y-14044937D02*
G01X17705416Y-13997437D01*
G54D13*
G01X13900095Y-14090300D02*
G01X13900095Y-14250000D01*
G01X13004082Y-14090300D02*
G01X13004082Y-14250000D01*
G54D14*
G01X15361683Y-13362000D02*
G01X15361683Y-13613000D01*
G01X15363000Y-13614000D02*
G01X15614000Y-13614000D01*
G01X15614000Y-13361000D02*
G01X15363000Y-13361000D01*
G01X15615522Y-13613000D02*
G01X15615522Y-13362000D01*
G01X16187683Y-13362000D02*
G01X16187683Y-13613000D01*
G01X16189000Y-13614000D02*
G01X16440000Y-13614000D01*
G01X16440000Y-13361000D02*
G01X16189000Y-13361000D01*
G01X16441522Y-13613000D02*
G01X16441522Y-13362000D01*
G01X15774682Y-13362000D02*
G01X15774682Y-13613000D01*
G01X15776000Y-13614000D02*
G01X16027000Y-13614000D01*
G01X16027000Y-13361000D02*
G01X15776000Y-13361000D01*
G01X16028522Y-13613000D02*
G01X16028522Y-13362000D01*
G01X15863056Y-10359000D02*
G01X15563056Y-10359000D01*
G01X15563056Y-10659000D01*
G01X15863056Y-10659000D01*
G01X15863056Y-10359000D01*
G01X16248056Y-7455000D02*
G01X15948056Y-7455000D01*
G01X15948056Y-7755000D01*
G01X16248056Y-7755000D01*
G01X16248056Y-7455000D01*
G01X17253632Y-12655300D02*
G01X17253632Y-12906300D01*
G01X17254950Y-12907300D02*
G01X17505950Y-12907300D01*
G01X17505950Y-12654300D02*
G01X17254950Y-12654300D01*
G01X17507472Y-12906300D02*
G01X17507472Y-12655300D01*
G01X14122682Y-13362000D02*
G01X14122682Y-13613000D01*
G01X14124000Y-13614000D02*
G01X14375000Y-13614000D01*
G01X14375000Y-13361000D02*
G01X14124000Y-13361000D01*
G01X14376522Y-13613000D02*
G01X14376522Y-13362000D01*
G01X14758633Y-12661300D02*
G01X14758633Y-12912300D01*
G01X14759950Y-12913300D02*
G01X15010950Y-12913300D01*
G01X15010950Y-12660300D02*
G01X14759950Y-12660300D01*
G01X15012472Y-12912300D02*
G01X15012472Y-12661300D01*
G01X14948682Y-13362000D02*
G01X14948682Y-13613000D01*
G01X14950000Y-13614000D02*
G01X15201000Y-13614000D01*
G01X15201000Y-13361000D02*
G01X14950000Y-13361000D01*
G01X15202522Y-13613000D02*
G01X15202522Y-13362000D01*
G01X14535683Y-13362000D02*
G01X14535683Y-13613000D01*
G01X14537000Y-13614000D02*
G01X14788000Y-13614000D01*
G01X14788000Y-13361000D02*
G01X14537000Y-13361000D01*
G01X14789522Y-13613000D02*
G01X14789522Y-13362000D01*
G01X16383633Y-12650300D02*
G01X16383633Y-12901300D01*
G01X16384950Y-12902300D02*
G01X16635950Y-12902300D01*
G01X16635950Y-12649300D02*
G01X16384950Y-12649300D01*
G01X16637472Y-12901300D02*
G01X16637472Y-12650300D01*

G04 Circle Start*
G01X17064000Y-5908040D02*
G03X17264000Y-5908040I100000J0D01*
G03X17064000Y-5908040I-100000J0D01*
G54D17*
G01X17064000Y-6510020D02*
G03X17264000Y-6510020I100000J0D01*
G03X17064000Y-6510020I-100000J0D01*
G54D14*
G01X21135000Y-8757000D02*
G03X21395000Y-8757000I130000J0D01*
G03X21135000Y-8757000I-130000J0D01*
G01X21035000Y-9028000D02*
G03X21295000Y-9028000I130000J0D01*
G03X21035000Y-9028000I-130000J0D01*
G01X19494000Y-6881000D02*
G03X19754000Y-6881000I130000J0D01*
G03X19494000Y-6881000I-130000J0D01*
G01X14135144Y-12357192D02*
G03X14395144Y-12357192I130000J0D01*
G03X14135144Y-12357192I-130000J0D01*
G01X19271000Y-6657000D02*
G03X19531000Y-6657000I130000J0D01*
G03X19271000Y-6657000I-130000J0D01*
G01X17260157Y-11857193D02*
G03X17520157Y-11857193I130000J0D01*
G03X17260157Y-11857193I-130000J0D01*
G01X21286000Y-8207000D02*
G03X21546000Y-8207000I130000J0D01*
G03X21286000Y-8207000I-130000J0D01*
G01X21135000Y-9308000D02*
G03X21395000Y-9308000I130000J0D01*
G03X21135000Y-9308000I-130000J0D01*
G01X15385155Y-12357192D02*
G03X15645155Y-12357192I130000J0D01*
G03X15385155Y-12357192I-130000J0D01*
G01X17066056Y-6107000D02*
G03X17262056Y-6107000I98000J0D01*
G03X17066056Y-6107000I-98000J0D01*
G01X17066056Y-6307000D02*
G03X17262056Y-6307000I98000J0D01*
G03X17066056Y-6307000I-98000J0D01*
G01X16385153Y-12357192D02*
G03X16645153Y-12357192I130000J0D01*
G03X16385153Y-12357192I-130000J0D01*
G01X14010151Y-11857193D02*
G03X14270151Y-11857193I130000J0D01*
G03X14010151Y-11857193I-130000J0D01*
G04 Circle End*

M02*

