G04 Layer: DrillDrawingLayer*
G04 EasyEDA Pro v2.2.45.4, 2026-01-24 22:56:51*
G04 Gerber Generator version 0.3*
G04 Scale: 100 percent, Rotated: No, Reflected: No*
G04 Dimensions in millimeters*
G04 Leading zeros omitted, absolute positions, 4 integers and 5 decimals*
G04 Generated by one-click*
%FSLAX45Y45*%
%MOMM*%
%AMIconRect*4,1,4,0.28,-0.28,-0.28,-0.28,-0.28,0.28,0.28,0.28,0.28,-0.28,0*4,0,4,0.233333,-0.233333,0.233333,0.233333,-0.233333,0.233333,-0.233333,-0.233333,0.233333,-0.233333,0*%
%AMIconTriangle*4,1,3,-0.339593,0.240473,0.339593,0.240473,0,-0.37884,-0.339593,0.240473,0*4,0,3,-0.265673,0.19404,0,-0.27342,0.266233,0.19404,-0.265673,0.19404,0*%
%AMIconStar6*4,1,12,0.12068,0.20888,0.298527,0.172713,0.241313,0,0.298527,-0.17206,0.12068,-0.208227,0,-0.344073,-0.120073,-0.208227,-0.298573,-0.17206,-0.240707,0,-0.298573,0.17206,-0.120073,0.20888,0,0.344073,0.12068,0.20888,0*4,0,12,-0.000467,0.273467,-0.090067,0.171733,-0.237533,0.136733,-0.193667,-0.007467,-0.237533,-0.1372,-0.090067,-0.171733,-0.000467,-0.273933,0.090067,-0.171733,0.237533,-0.1372,0.194133,0.007,0.237533,0.1372,0.090067,0.171267,-0.000467,0.273467,0*%
%AMIconStar4*4,1,8,-0.311733,0.311733,0,0.202533,0.311733,0.311733,0.202533,0,0.311733,-0.311733,0,-0.202533,-0.304407,-0.311733,-0.202533,0,-0.311733,0.311733,0*4,0,8,0.233333,-0.233333,0.1512,0,0.233333,0.233333,0,0.1512,-0.233333,0.233333,-0.1512,0,-0.233333,-0.233333,0,-0.1512,0.233333,-0.233333,0*%
%AMIconPlus*4,1,12,0.1736,-0.28,-0.1736,-0.28,-0.1736,-0.1736,-0.28,-0.1736,-0.28,0.1736,-0.1736,0.1736,-0.1736,0.28,0.1736,0.28,0.1736,0.1736,0.28,0.1736,0.28,-0.1736,0.1736,-0.1736,0.1736,-0.28,0*4,0,12,0.126933,-0.233333,0.126933,-0.126933,0.233333,-0.126933,0.233333,0.126933,0.126933,0.126933,0.126933,0.233333,-0.126933,0.233333,-0.126933,0.126933,-0.233333,0.126933,-0.233333,-0.126933,-0.126933,-0.126933,-0.126933,-0.233333,0.126933,-0.233333,0*%
%ADD10IconRect*%
%ADD11C,0.616X0.522667*%
%ADD12IconTriangle*%
%ADD13IconStar6*%
%ADD14IconStar4*%
%ADD15IconPlus*%
G75*


G04 Drill Drawing Start*
G54D10*
G01X13779000Y-12663000D03*
G54D11*
G01X14678000Y-12776000D03*
G01X15102000Y-12780000D03*
G54D12*
G01X17164056Y-6307000D03*
G01X17164056Y-6107000D03*
G54D13*
G01X14258000Y-14220000D03*
G01X14438000Y-14220000D03*
G01X14618000Y-14220000D03*
G01X15244000Y-14221000D03*
G01X16140000Y-14221000D03*
G01X16320000Y-14220300D03*
G54D14*
G01X13009247Y-9215000D03*
G01X14140151Y-11857193D03*
G01X14265144Y-12357192D03*
G01X15515155Y-12357192D03*
G01X15713056Y-10509000D03*
G01X16098056Y-7605000D03*
G01X16515153Y-12357192D03*
G01X17390157Y-11857193D03*
G01X17714000Y-10725000D03*
G01X19401000Y-6657000D03*
G01X19624000Y-6881000D03*
G01X21165000Y-9028000D03*
G01X21265000Y-9308000D03*
G01X21265000Y-8757000D03*
G01X21416000Y-8207000D03*
G54D15*
G01X11725612Y-8743295D03*
G01X11816000Y-12737000D03*
G01X11982000Y-13094000D03*
G01X12228000Y-12938000D03*
G01X12386000Y-13869000D03*
G01X12493000Y-12080000D03*
G01X12556000Y-13361000D03*
G01X12842000Y-9480000D03*
G01X12982000Y-12195000D03*
G01X13151000Y-13744000D03*
G01X13243000Y-9480000D03*
G01X13385000Y-12079000D03*
G01X13797000Y-12144000D03*
G01X13830000Y-13938000D03*
G01X13983000Y-13253000D03*
G01X14025000Y-13731000D03*
G01X14025000Y-13491000D03*
G01X14387000Y-13706000D03*
G01X14453000Y-13485000D03*
G01X14506000Y-12087000D03*
G01X14554000Y-12537000D03*
G01X14611000Y-13718000D03*
G01X14629000Y-13293000D03*
G01X14828000Y-13332000D03*
G01X14866000Y-13487000D03*
G01X14887000Y-12518000D03*
G01X14897000Y-12186000D03*
G01X14965000Y-13948000D03*
G01X15058000Y-13244000D03*
G01X15095000Y-13720000D03*
G01X15178000Y-12083000D03*
G01X15251000Y-12539000D03*
G01X15254000Y-13298000D03*
G01X15286000Y-13477000D03*
G01X15500000Y-13726000D03*
G01X15555000Y-9302000D03*
G01X15562000Y-9964000D03*
G01X15578000Y-9006000D03*
G01X15594000Y-13934000D03*
G01X15667000Y-12081000D03*
G01X15701000Y-13489000D03*
G01X15763056Y-9453000D03*
G01X15813000Y-7859000D03*
G01X15847000Y-8397000D03*
G01X15858000Y-9678000D03*
G01X15874000Y-9298000D03*
G01X15884000Y-9956000D03*
G01X15886000Y-13707000D03*
G01X15908000Y-9012000D03*
G01X16009000Y-12181000D03*
G01X16034000Y-12747000D03*
G01X16062000Y-8603000D03*
G01X16090000Y-13375000D03*
G01X16121000Y-13505000D03*
G01X16183000Y-8920000D03*
G01X16294000Y-12082000D03*
G01X16509000Y-13412000D03*
G01X16554000Y-7675000D03*
G01X16562000Y-7890000D03*
G01X16578000Y-7467000D03*
G01X16640000Y-13510000D03*
G01X16646000Y-13940000D03*
G01X16710000Y-13730000D03*
G01X16777000Y-12083000D03*
G01X16814056Y-7133000D03*
G01X16814056Y-6718000D03*
G01X17031000Y-7215000D03*
G01X17048000Y-6716000D03*
G01X17121000Y-12679000D03*
G01X17128000Y-12181000D03*
G01X17211000Y-13545000D03*
G01X17267000Y-7392000D03*
G01X17269026Y-6722000D03*
G01X17375000Y-8563000D03*
G01X17507000Y-8568000D03*
G01X17557000Y-13942000D03*
G01X17560000Y-10049000D03*
G01X17582000Y-9539000D03*
G01X17628000Y-8575000D03*
G01X17713000Y-9425000D03*
G01X17715000Y-9101000D03*
G01X17747000Y-8720000D03*
G01X17782000Y-12636000D03*
G01X17834000Y-8772000D03*
G01X17835000Y-9541000D03*
G01X17836000Y-12780300D03*
G01X17881000Y-10041000D03*
G01X17902500Y-8550500D03*
G01X17934000Y-8815000D03*
G01X17990000Y-12748000D03*
G01X18023000Y-8867000D03*
G01X18204000Y-12848000D03*
G01X18289000Y-8852000D03*
G01X18314000Y-8587000D03*
G01X18347000Y-12843000D03*
G01X18434000Y-12901000D03*
G01X18445000Y-9091000D03*
G01X18496500Y-8203500D03*
G01X18516426Y-12949900D03*
G01X18586000Y-8508000D03*
G01X18633000Y-13096000D03*
G01X18696000Y-12460300D03*
G01X18718500Y-8548500D03*
G01X18720000Y-13011000D03*
G01X18822000Y-8570000D03*
G01X18872000Y-13378000D03*
G01X18949000Y-12660000D03*
G01X19180000Y-7427000D03*
G01X19251000Y-13011000D03*
G01X19317000Y-8368000D03*
G01X19370000Y-7412500D03*
G01X19456000Y-8791000D03*
G01X19482074Y-8336927D03*
G01X19523000Y-9500000D03*
G01X19544000Y-11608000D03*
G01X19547000Y-10312000D03*
G01X19706699Y-12751698D03*
G01X19723000Y-9300000D03*
G01X19723000Y-10881000D03*
G01X19728000Y-9833000D03*
G01X19733000Y-11862050D03*
G01X20065000Y-8790000D03*
G01X20138000Y-11828000D03*
G01X20138000Y-11030000D03*
G01X20138000Y-10320000D03*
G01X20138000Y-9737000D03*
G01X20206000Y-9345000D03*
G01X20331000Y-9191000D03*
G01X20388000Y-8991000D03*
G01X20507000Y-8804000D03*
G01X20522000Y-9131000D03*
G01X20641000Y-9036000D03*
G01X20665000Y-9463000D03*
G01X20739000Y-9228000D03*
G04 Drill Drawing End*

M02*

