G04 Layer: BottomLayer*
G04 EasyEDA Pro v2.2.45.4, 2025-12-23 22:45:37*
G04 Gerber Generator version 0.3*
G04 Scale: 100 percent, Rotated: No, Reflected: No*
G04 Dimensions in millimeters*
G04 Leading zeros omitted, absolute positions, 4 integers and 5 decimals*
G04 Generated by one-click*
%FSLAX45Y45*%
%MOMM*%
%AMRoundRect*1,1,$1,$2,$3*1,1,$1,$4,$5*1,1,$1,0-$2,0-$3*1,1,$1,0-$4,0-$5*20,1,$1,$2,$3,$4,$5,0*20,1,$1,$4,$5,0-$2,0-$3,0*20,1,$1,0-$2,0-$3,0-$4,0-$5,0*20,1,$1,0-$4,0-$5,$2,$3,0*4,1,4,$2,$3,$4,$5,0-$2,0-$3,0-$4,0-$5,$2,$3,0*%
%ADD10C,0.2032*%
%ADD11C,1.00508*%
%ADD12C,2.0*%
%ADD13R,2.0X2.0*%
%ADD14RoundRect,0.3X-0.35X0.85X0.35X0.85*%
%ADD15R,4.0X0.35*%
%ADD16C,1.5030*%
%ADD17C,1.5*%
%ADD18C,0.8*%
%ADD19C,0.6*%
%ADD20C,1.0*%
%ADD21C,0.5*%
%ADD22C,0.25*%
%ADD23C,0.2*%
%ADD24C,0.4*%
%ADD25C,0.3*%
G75*


G04 Copper Start*
G36*
G01X14013765Y-12497714D02*
G01X14036113Y-12496115D01*
G01X14057923Y-12490982D01*
G01X14078638Y-12482445D01*
G01X14097732Y-12470722D01*
G01X14114719Y-12456112D01*
G01X14129165Y-12438985D01*
G01X14140703Y-12419779D01*
G01X14149040Y-12398982D01*
G01X14153963Y-12377124D01*
G01X14159530Y-12397245D01*
G01X14168704Y-12415997D01*
G01X14181173Y-12432740D01*
G01X14196511Y-12446903D01*
G01X14214193Y-12458002D01*
G01X14233615Y-12465656D01*
G01X14254114Y-12469606D01*
G01X14274990Y-12469716D01*
G01X14295530Y-12465982D01*
G01X14315031Y-12458532D01*
G01X14332829Y-12447621D01*
G01X14348315Y-12433620D01*
G01X14360959Y-12417009D01*
G01X14370331Y-12398354D01*
G01X14376109Y-12378294D01*
G01X14381176Y-12399985D01*
G01X14389609Y-12420602D01*
G01X14401197Y-12439626D01*
G01X14415646Y-12456579D01*
G01X14432595Y-12471033D01*
G01X14451617Y-12482625D01*
G01X14472232Y-12491063D01*
G01X14493922Y-12496135D01*
G01X14516141Y-12497714D01*
G01X15263759Y-12497714D01*
G01X15286112Y-12496115D01*
G01X15307926Y-12490981D01*
G01X15328645Y-12482442D01*
G01X15347742Y-12470715D01*
G01X15364730Y-12456100D01*
G01X15379177Y-12438968D01*
G01X15390714Y-12419756D01*
G01X15399049Y-12398954D01*
G01X15403967Y-12377090D01*
G01X15409528Y-12397212D01*
G01X15418697Y-12415967D01*
G01X15431161Y-12432715D01*
G01X15446495Y-12446882D01*
G01X15464173Y-12457986D01*
G01X15483593Y-12465647D01*
G01X15504091Y-12469603D01*
G01X15524967Y-12469719D01*
G01X15545508Y-12465991D01*
G01X15565012Y-12458547D01*
G01X15582813Y-12447640D01*
G01X15598303Y-12433644D01*
G01X15610953Y-12417037D01*
G01X15620330Y-12398385D01*
G01X15626114Y-12378326D01*
G01X15631185Y-12400012D01*
G01X15639621Y-12420625D01*
G01X15651209Y-12439644D01*
G01X15665659Y-12456591D01*
G01X15682607Y-12471041D01*
G01X15701626Y-12482630D01*
G01X15722238Y-12491065D01*
G01X15743925Y-12496136D01*
G01X15766141Y-12497714D01*
G01X16263765Y-12497714D01*
G01X16285805Y-12496162D01*
G01X16307329Y-12491171D01*
G01X16327804Y-12482866D01*
G01X16346722Y-12471453D01*
G01X16363616Y-12457213D01*
G01X16378067Y-12440499D01*
G01X16390304Y-12457916D01*
G01X16404739Y-12473559D01*
G01X16404739Y-12615206D01*
G01X16390369Y-12618500D01*
G01X16377225Y-12625176D01*
G01X16366089Y-12634836D01*
G01X16357624Y-12646907D01*
G01X16352335Y-12660668D01*
G01X16350536Y-12675300D01*
G01X16350536Y-12875300D01*
G01X16352051Y-12888743D01*
G01X16356519Y-12901513D01*
G01X16363716Y-12912968D01*
G01X16373283Y-12922534D01*
G01X16384737Y-12929731D01*
G01X16397507Y-12934199D01*
G01X16410950Y-12935714D01*
G01X16610950Y-12935714D01*
G01X16624393Y-12934199D01*
G01X16637163Y-12929731D01*
G01X16648617Y-12922534D01*
G01X16658183Y-12912968D01*
G01X16665381Y-12901513D01*
G01X16669849Y-12888743D01*
G01X16671364Y-12875300D01*
G01X16671364Y-12675300D01*
G01X16669828Y-12661766D01*
G01X16665300Y-12648919D01*
G01X16658008Y-12637414D01*
G01X17238399Y-12637414D01*
G01X17230817Y-12646588D01*
G01X17225180Y-12657071D01*
G01X17221709Y-12668456D01*
G01X17220536Y-12680300D01*
G01X17220536Y-12880300D01*
G01X17222407Y-12895219D01*
G01X17227904Y-12909213D01*
G01X17236687Y-12921417D01*
G01X17248211Y-12931074D01*
G01X17261762Y-12937586D01*
G01X14854250Y-12937586D01*
G01X14840513Y-12938939D01*
G01X14827304Y-12942946D01*
G01X14815130Y-12949453D01*
G01X14804460Y-12958210D01*
G01X14619084Y-13143586D01*
G01X14458000Y-13143586D01*
G01X14444557Y-13145101D01*
G01X14431787Y-13149569D01*
G01X14420333Y-13156767D01*
G01X14410767Y-13166333D01*
G01X14403569Y-13177787D01*
G01X14399101Y-13190557D01*
G01X14397586Y-13204000D01*
G01X14397586Y-13343870D01*
G01X14174603Y-13566853D01*
G01X14163981Y-13579797D01*
G01X14156088Y-13594564D01*
G01X14151227Y-13610587D01*
G01X14149586Y-13627250D01*
G01X14149586Y-13628031D01*
G01X14138894Y-13643642D01*
G01X14131024Y-13660849D01*
G01X14126207Y-13679148D01*
G01X14124586Y-13698000D01*
G01X14124586Y-13989586D01*
G01X11930414Y-13989586D01*
G01X11930414Y-13563000D01*
G01X11929015Y-13557787D01*
G01X11925195Y-13553974D01*
G01X11919979Y-13552586D01*
G01X11690414Y-13553045D01*
G01X11690414Y-8850000D01*
G01X11691908Y-8836741D01*
G01X11696315Y-8824147D01*
G01X11703414Y-8812849D01*
G01X11712849Y-8803414D01*
G01X11724147Y-8796315D01*
G01X11736741Y-8791908D01*
G01X11750000Y-8790414D01*
G01X13470842Y-8790414D01*
G01X13484492Y-8800206D01*
G01X13499582Y-8807586D01*
G01X11890000Y-8807586D01*
G01X11873337Y-8809227D01*
G01X11857314Y-8814088D01*
G01X11842547Y-8821981D01*
G01X11829603Y-8832603D01*
G01X11753603Y-8908603D01*
G01X11742981Y-8921547D01*
G01X11735088Y-8936314D01*
G01X11730227Y-8952337D01*
G01X11728586Y-8969000D01*
G01X11728586Y-12402000D01*
G01X11730227Y-12418664D01*
G01X11735088Y-12434687D01*
G01X11742981Y-12449453D01*
G01X11753603Y-12462397D01*
G01X12014603Y-12723397D01*
G01X12027547Y-12734019D01*
G01X12042314Y-12741912D01*
G01X12058337Y-12746773D01*
G01X12075000Y-12748414D01*
G01X13726204Y-12748414D01*
G01X13743579Y-12756959D01*
G01X13762271Y-12762011D01*
G01X13781586Y-12763381D01*
G01X13800804Y-12761018D01*
G01X13819211Y-12755011D01*
G01X13836124Y-12745583D01*
G01X13850912Y-12733083D01*
G01X13863026Y-12717978D01*
G01X13872016Y-12700829D01*
G01X13876347Y-12686300D01*
G01X14774536Y-12686300D01*
G01X14774536Y-12886300D01*
G01X14776065Y-12892007D01*
G01X14780243Y-12896185D01*
G01X14785950Y-12897714D01*
G01X14985950Y-12897714D01*
G01X14991657Y-12896185D01*
G01X14995835Y-12892007D01*
G01X14997364Y-12886300D01*
G01X14997364Y-12686300D01*
G01X14995835Y-12680593D01*
G01X14991657Y-12676415D01*
G01X14985950Y-12674886D01*
G01X14785950Y-12674886D01*
G01X14785950Y-12674886D01*
G01X14780243Y-12676415D01*
G01X14776065Y-12680593D01*
G01X14774536Y-12686300D01*
G01X13876347Y-12686300D01*
G01X13877547Y-12682273D01*
G01X13879414Y-12663000D01*
G01X13877547Y-12643727D01*
G01X13872016Y-12625171D01*
G01X13863026Y-12608022D01*
G01X13850912Y-12592917D01*
G01X13836124Y-12580418D01*
G01X13819211Y-12570989D01*
G01X13800804Y-12564982D01*
G01X13781586Y-12562619D01*
G01X13762271Y-12563989D01*
G01X13743579Y-12569041D01*
G01X13726204Y-12577586D01*
G01X12110380Y-12577586D01*
G01X11899414Y-12366621D01*
G01X11899414Y-9004380D01*
G01X11925380Y-8978414D01*
G01X12010526Y-8978414D01*
G01X11992795Y-8990163D01*
G01X11977043Y-9004456D01*
G01X11963630Y-9020964D01*
G01X11952864Y-9039308D01*
G01X11944993Y-9059068D01*
G01X11940197Y-9079791D01*
G01X11938586Y-9101000D01*
G01X11940064Y-9121316D01*
G01X11944465Y-9141205D01*
G01X11951698Y-9160248D01*
G01X11961610Y-9178044D01*
G01X11973993Y-9194218D01*
G01X11988586Y-9208431D01*
G01X11988586Y-11851569D01*
G01X11973993Y-11865782D01*
G01X11961611Y-11881956D01*
G01X11951698Y-11899752D01*
G01X11944465Y-11918794D01*
G01X11940064Y-11938683D01*
G01X11938586Y-11959000D01*
G01X11940137Y-11981107D01*
G01X11945146Y-12002695D01*
G01X11953489Y-12023226D01*
G01X11964956Y-12042190D01*
G01X11979264Y-12059114D01*
G01X11996055Y-12073577D01*
G01X12014912Y-12085219D01*
G01X12035366Y-12093751D01*
G01X12056906Y-12098959D01*
G01X12078998Y-12100714D01*
G01X12080261Y-12100693D01*
G01X12100421Y-12099112D01*
G01X12120146Y-12094652D01*
G01X12139025Y-12087405D01*
G01X12156667Y-12077521D01*
G01X12172707Y-12065206D01*
G01X12186812Y-12050714D01*
G01X13950950Y-12050714D01*
G01X13968589Y-12048977D01*
G01X13985550Y-12043832D01*
G01X14001181Y-12035476D01*
G01X14014882Y-12024232D01*
G01X14026126Y-12010531D01*
G01X14034482Y-11994900D01*
G01X14039627Y-11977939D01*
G01X14041364Y-11960300D01*
G01X14041364Y-11940300D01*
G01X14039887Y-11929473D01*
G01X14035563Y-11919438D01*
G01X14026255Y-11900382D01*
G01X14020430Y-11879990D01*
G01X14018267Y-11858892D01*
G01X14018393Y-11857193D01*
G01X14027197Y-11857193D01*
G01X14029120Y-11877948D01*
G01X14034825Y-11897997D01*
G01X14044116Y-11916656D01*
G01X14056677Y-11933290D01*
G01X14072081Y-11947332D01*
G01X14089803Y-11958305D01*
G01X14109240Y-11965835D01*
G01X14129729Y-11969665D01*
G01X14150573Y-11969665D01*
G01X14171062Y-11965835D01*
G01X14190499Y-11958305D01*
G01X14208221Y-11947332D01*
G01X14223625Y-11933290D01*
G01X14236186Y-11916656D01*
G01X14245478Y-11897997D01*
G01X14251182Y-11877948D01*
G01X14253105Y-11857193D01*
G01X14253105Y-11857193D01*
G01X14251182Y-11836438D01*
G01X14245478Y-11816389D01*
G01X14236186Y-11797730D01*
G01X14223625Y-11781096D01*
G01X14208221Y-11767054D01*
G01X14190499Y-11756081D01*
G01X14171062Y-11748551D01*
G01X14150573Y-11744721D01*
G01X14129729Y-11744721D01*
G01X14109240Y-11748551D01*
G01X14089803Y-11756081D01*
G01X14072081Y-11767054D01*
G01X14056677Y-11781096D01*
G01X14044116Y-11797730D01*
G01X14034825Y-11816389D01*
G01X14029120Y-11836438D01*
G01X14027197Y-11857193D01*
G01X14018393Y-11857193D01*
G01X14019834Y-11837742D01*
G01X14025082Y-11817194D01*
G01X14033848Y-11797882D01*
G01X14045862Y-11780406D01*
G01X14060753Y-11765304D01*
G01X14078058Y-11753044D01*
G01X14097244Y-11744006D01*
G01X14117716Y-11738469D01*
G01X14138842Y-11736604D01*
G01X14159968Y-11738469D01*
G01X14180440Y-11744006D01*
G01X14199626Y-11753044D01*
G01X14216932Y-11765304D01*
G01X14231822Y-11780406D01*
G01X14243836Y-11797882D01*
G01X14252603Y-11817194D01*
G01X14257850Y-11837742D01*
G01X14259417Y-11858892D01*
G01X14257254Y-11879990D01*
G01X14251429Y-11900382D01*
G01X14242121Y-11919438D01*
G01X14238464Y-11927314D01*
G01X14236573Y-11935789D01*
G01X14236536Y-11944472D01*
G01X14236536Y-11960300D01*
G01X14238273Y-11977939D01*
G01X14243418Y-11994900D01*
G01X14251774Y-12010531D01*
G01X14263018Y-12024232D01*
G01X14276719Y-12035476D01*
G01X14292350Y-12043832D01*
G01X14309311Y-12048977D01*
G01X14326950Y-12050714D01*
G01X17201950Y-12050714D01*
G01X17218973Y-12049097D01*
G01X17235386Y-12044304D01*
G01X17250604Y-12036507D01*
G01X17264081Y-12025984D01*
G01X17275337Y-12013112D01*
G01X17283967Y-11998350D01*
G01X17289664Y-11982228D01*
G01X17308800Y-11995445D01*
G01X17329646Y-12005756D01*
G01X17351763Y-12012944D01*
G01X17374688Y-12016859D01*
G01X17397937Y-12017418D01*
G01X17421023Y-12014609D01*
G01X17443461Y-12008492D01*
G01X17464778Y-11999194D01*
G01X17484526Y-11986912D01*
G01X17502291Y-11971903D01*
G01X17554630Y-12024242D01*
G01X17568333Y-12035489D01*
G01X17583967Y-12043846D01*
G01X17600933Y-12048991D01*
G01X17618575Y-12050725D01*
G01X17895530Y-12050714D01*
G01X17907154Y-12051859D01*
G01X17918332Y-12055249D01*
G01X17928633Y-12060755D01*
G01X17937662Y-12068166D01*
G01X18269083Y-12399587D01*
G01X18285837Y-12413897D01*
G01X18304624Y-12425410D01*
G01X18324981Y-12433842D01*
G01X18346406Y-12438986D01*
G01X18368372Y-12440714D01*
G01X19171056Y-12440714D01*
G01X19193022Y-12438985D01*
G01X19214447Y-12433842D01*
G01X19234803Y-12425410D01*
G01X19253590Y-12413897D01*
G01X19270344Y-12399587D01*
G01X19483288Y-12186644D01*
G01X19497597Y-12169889D01*
G01X19509110Y-12151103D01*
G01X19517541Y-12130747D01*
G01X19522685Y-12109322D01*
G01X19524414Y-12087356D01*
G01X19524414Y-12087000D01*
G01X19522936Y-12066683D01*
G01X19518534Y-12046795D01*
G01X19511301Y-12027752D01*
G01X19501389Y-12009956D01*
G01X19489007Y-11993782D01*
G01X19474414Y-11979570D01*
G01X19474414Y-9348430D01*
G01X19489007Y-9334218D01*
G01X19501389Y-9318044D01*
G01X19511301Y-9300248D01*
G01X19518534Y-9281205D01*
G01X19522936Y-9261317D01*
G01X19524414Y-9241000D01*
G01X19522641Y-9218756D01*
G01X19517366Y-9197072D01*
G01X19508722Y-9176499D01*
G01X19496929Y-9157554D01*
G01X19482283Y-9140718D01*
G01X19465155Y-9126414D01*
G01X19504620Y-9126414D01*
G01X19561536Y-9183330D01*
G01X19561536Y-9722759D01*
G01X19561436Y-9726892D01*
G01X19561436Y-9789107D01*
G01X19561536Y-9793241D01*
G01X19561536Y-11037759D01*
G01X19561436Y-11041893D01*
G01X19561436Y-11104108D01*
G01X19561536Y-11108241D01*
G01X19561536Y-11743759D01*
G01X19561436Y-11747892D01*
G01X19561436Y-11810107D01*
G01X19561536Y-11814241D01*
G01X19561536Y-12148670D01*
G01X19243620Y-12466586D01*
G01X17873130Y-12466586D01*
G01X17889860Y-12450646D01*
G01X17903748Y-12432178D01*
G01X17914420Y-12411683D01*
G01X17921586Y-12389715D01*
G01X17925052Y-12366869D01*
G01X17924725Y-12343763D01*
G01X17920612Y-12321025D01*
G01X17912826Y-12299269D01*
G01X17901578Y-12279084D01*
G01X17887171Y-12261017D01*
G01X17869996Y-12245558D01*
G01X17850519Y-12233125D01*
G01X17829266Y-12224054D01*
G01X17806814Y-12218592D01*
G01X17783769Y-12216886D01*
G01X16766141Y-12216886D01*
G01X16744181Y-12218426D01*
G01X16722732Y-12223378D01*
G01X16702321Y-12231622D01*
G01X16683449Y-12242954D01*
G01X16666579Y-12257097D01*
G01X16652128Y-12273702D01*
G01X16638488Y-12254619D01*
G01X16622210Y-12237729D01*
G01X16603644Y-12223394D01*
G01X16583185Y-12211919D01*
G01X16561272Y-12203551D01*
G01X16538373Y-12198467D01*
G01X16514977Y-12196778D01*
G01X16491584Y-12198519D01*
G01X16468696Y-12203652D01*
G01X16446801Y-12212069D01*
G01X16426368Y-12223588D01*
G01X16407833Y-12237965D01*
G01X16391593Y-12254890D01*
G01X16377995Y-12274004D01*
G01X16363544Y-12257317D01*
G01X16346656Y-12243100D01*
G01X16327749Y-12231707D01*
G01X16307290Y-12223417D01*
G01X16285785Y-12218436D01*
G01X16263765Y-12216886D01*
G01X15766141Y-12216886D01*
G01X15743939Y-12218462D01*
G01X15722264Y-12223526D01*
G01X15701662Y-12231952D01*
G01X15682651Y-12243527D01*
G01X15665707Y-12257961D01*
G01X15651257Y-12274891D01*
G01X15639663Y-12293891D01*
G01X15631218Y-12314485D01*
G01X15626132Y-12336154D01*
G01X15620361Y-12316078D01*
G01X15610991Y-12297408D01*
G01X15598343Y-12280783D01*
G01X15582850Y-12266771D01*
G01X15565042Y-12255851D01*
G01X15545527Y-12248398D01*
G01X15524974Y-12244666D01*
G01X15504085Y-12244782D01*
G01X15483574Y-12248743D01*
G01X15464144Y-12256412D01*
G01X15446458Y-12267529D01*
G01X15431122Y-12281713D01*
G01X15418660Y-12298478D01*
G01X15409498Y-12317251D01*
G01X15403950Y-12337390D01*
G01X15399017Y-12315544D01*
G01X15390672Y-12294759D01*
G01X15379130Y-12275566D01*
G01X15364683Y-12258453D01*
G01X15347699Y-12243853D01*
G01X15328609Y-12232140D01*
G01X15307900Y-12223611D01*
G01X15286099Y-12218483D01*
G01X15263759Y-12216886D01*
G01X14516141Y-12216886D01*
G01X14493935Y-12218463D01*
G01X14472257Y-12223529D01*
G01X14451653Y-12231957D01*
G01X14432639Y-12243536D01*
G01X14415694Y-12257974D01*
G01X14401244Y-12274908D01*
G01X14389652Y-12293914D01*
G01X14381209Y-12314512D01*
G01X14376128Y-12336186D01*
G01X14370362Y-12316109D01*
G01X14360997Y-12297436D01*
G01X14348354Y-12280807D01*
G01X14332866Y-12266791D01*
G01X14315061Y-12255866D01*
G01X14295549Y-12248407D01*
G01X14274997Y-12244668D01*
G01X14254108Y-12244778D01*
G01X14233596Y-12248733D01*
G01X14214164Y-12256397D01*
G01X14196475Y-12267508D01*
G01X14181134Y-12281687D01*
G01X14168667Y-12298448D01*
G01X14159500Y-12317218D01*
G01X14153945Y-12337355D01*
G01X14149008Y-12315515D01*
G01X14140661Y-12294736D01*
G01X14129118Y-12275549D01*
G01X14114671Y-12258441D01*
G01X14097689Y-12243846D01*
G01X14078602Y-12232137D01*
G01X14057897Y-12223610D01*
G01X14036100Y-12218483D01*
G01X14013765Y-12216886D01*
G01X12265135Y-12216886D01*
G01X12241884Y-12218626D01*
G01X12219242Y-12224189D01*
G01X12197832Y-12233421D01*
G01X12178245Y-12246070D01*
G01X12161022Y-12261785D01*
G01X12146635Y-12280133D01*
G01X12135484Y-12300609D01*
G01X12127874Y-12322648D01*
G01X12124016Y-12345642D01*
G01X12124016Y-12368958D01*
G01X12127874Y-12391952D01*
G01X12135484Y-12413991D01*
G01X12146635Y-12434467D01*
G01X12161022Y-12452815D01*
G01X12178245Y-12468530D01*
G01X12197832Y-12481179D01*
G01X12219242Y-12490411D01*
G01X12241884Y-12495974D01*
G01X12265135Y-12497714D01*
G01X14013765Y-12497714D01*
G37*
G36*
G01X13697849Y-8807586D02*
G01X13572418Y-8807586D01*
G01X13589480Y-8798997D01*
G01X13604608Y-8787332D01*
G01X13617253Y-8773014D01*
G01X13626957Y-8756560D01*
G01X13633371Y-8738567D01*
G01X13636261Y-8719684D01*
G01X13635524Y-8700596D01*
G01X13631185Y-8681993D01*
G01X13623402Y-8664548D01*
G01X13612457Y-8648892D01*
G01X13598745Y-8635592D01*
G01X13582762Y-8625130D01*
G01X13565088Y-8617883D01*
G01X13546361Y-8614114D01*
G01X13527259Y-8613959D01*
G01X13508474Y-8617424D01*
G01X13490684Y-8624384D01*
G01X13474534Y-8634586D01*
G01X12750067Y-8634586D01*
G01X12190470Y-8634586D01*
G01X12190470Y-8265414D01*
G01X12749977Y-8265414D01*
G01X13831061Y-8265414D01*
G01X13844320Y-8266908D01*
G01X13856913Y-8271314D01*
G01X13868210Y-8278413D01*
G01X13877645Y-8287847D01*
G01X13884743Y-8299145D01*
G01X13889149Y-8311739D01*
G01X13890642Y-8324997D01*
G01X13890642Y-8467523D01*
G01X13876034Y-8481736D01*
G01X13863637Y-8497916D01*
G01X13853714Y-8515719D01*
G01X13846472Y-8534771D01*
G01X13842065Y-8554671D01*
G01X13840586Y-8575000D01*
G01X13840665Y-8577523D01*
G01X13842744Y-8599205D01*
G01X13848152Y-8620305D01*
G01X13856758Y-8640315D01*
G01X13868355Y-8658753D01*
G01X13882664Y-8675176D01*
G01X13899341Y-8689187D01*
G01X13917985Y-8700452D01*
G01X13938146Y-8708697D01*
G01X13959340Y-8713724D01*
G01X13981056Y-8715414D01*
G01X15779054Y-8715414D01*
G01X15801020Y-8713686D01*
G01X15822446Y-8708543D01*
G01X15842803Y-8700111D01*
G01X15861590Y-8688599D01*
G01X15878345Y-8674289D01*
G01X15892655Y-8657534D01*
G01X15904167Y-8638747D01*
G01X15912599Y-8618390D01*
G01X15917742Y-8596965D01*
G01X15919470Y-8574998D01*
G01X15919391Y-8572478D01*
G01X15917619Y-8552618D01*
G01X15913051Y-8533210D01*
G01X15905780Y-8514644D01*
G01X15895953Y-8497295D01*
G01X15883768Y-8481513D01*
G01X15869470Y-8467616D01*
G01X15869470Y-7605000D01*
G01X16037642Y-7605000D01*
G01X16039617Y-7630094D01*
G01X16045493Y-7654571D01*
G01X16055126Y-7677826D01*
G01X16068278Y-7699289D01*
G01X16084626Y-7718430D01*
G01X16103767Y-7734778D01*
G01X16125230Y-7747930D01*
G01X16148485Y-7757563D01*
G01X16172962Y-7763439D01*
G01X16198056Y-7765414D01*
G01X16223150Y-7763439D01*
G01X16247627Y-7757563D01*
G01X16270882Y-7747930D01*
G01X16292345Y-7734778D01*
G01X16311486Y-7718430D01*
G01X16327834Y-7699289D01*
G01X16340986Y-7677826D01*
G01X16350619Y-7654571D01*
G01X16356495Y-7630094D01*
G01X16358470Y-7605000D01*
G01X16358470Y-7605000D01*
G01X16356495Y-7579906D01*
G01X16350619Y-7555429D01*
G01X16340986Y-7532174D01*
G01X16327834Y-7510711D01*
G01X16311486Y-7491570D01*
G01X16292345Y-7475222D01*
G01X16270882Y-7462070D01*
G01X16247627Y-7452437D01*
G01X16223150Y-7446561D01*
G01X16198056Y-7444586D01*
G01X16172962Y-7446561D01*
G01X16148485Y-7452437D01*
G01X16125230Y-7462070D01*
G01X16103767Y-7475222D01*
G01X16084626Y-7491570D01*
G01X16068278Y-7510711D01*
G01X16055126Y-7532174D01*
G01X16045493Y-7555429D01*
G01X16039617Y-7579906D01*
G01X16037642Y-7605000D01*
G01X15869470Y-7605000D01*
G01X15869470Y-7495002D01*
G01X15870963Y-7481748D01*
G01X15875366Y-7469159D01*
G01X15882459Y-7457865D01*
G01X15891886Y-7448430D01*
G01X15903176Y-7441329D01*
G01X15915762Y-7436917D01*
G01X15929014Y-7435414D01*
G01X16804084Y-7435414D01*
G01X16826040Y-7433669D01*
G01X16847454Y-7428515D01*
G01X16867800Y-7420077D01*
G01X16886577Y-7408564D01*
G01X16903324Y-7394258D01*
G01X16917630Y-7377511D01*
G01X16929143Y-7358734D01*
G01X16937580Y-7338388D01*
G01X16942734Y-7316974D01*
G01X16944478Y-7295017D01*
G01X16943000Y-7274699D01*
G01X16938598Y-7254808D01*
G01X16931364Y-7235764D01*
G01X16921450Y-7217967D01*
G01X16909065Y-7201792D01*
G01X16894470Y-7187579D01*
G01X16894470Y-5749999D01*
G01X16895962Y-5736746D01*
G01X16900365Y-5724156D01*
G01X16907458Y-5712862D01*
G01X16916885Y-5703428D01*
G01X16928174Y-5696327D01*
G01X16940760Y-5691916D01*
G01X16954012Y-5690414D01*
G01X17379055Y-5690414D01*
G01X17392602Y-5691975D01*
G01X17405441Y-5696575D01*
G01X17416897Y-5703973D01*
G01X17426371Y-5713781D01*
G01X17433368Y-5725487D01*
G01X17437520Y-5738477D01*
G01X17438610Y-5752071D01*
G01X17438587Y-5753428D01*
G01X17438642Y-7443911D01*
G01X17437061Y-7457547D01*
G01X17432402Y-7470460D01*
G01X17424911Y-7481964D01*
G01X17087936Y-7888062D01*
G01X17078549Y-7897131D01*
G01X17067414Y-7903938D01*
G01X17055064Y-7908157D01*
G01X17042091Y-7909586D01*
G01X16620479Y-7909586D01*
G01X16598513Y-7911314D01*
G01X16577087Y-7916458D01*
G01X16556730Y-7924890D01*
G01X16537943Y-7936403D01*
G01X16521189Y-7950714D01*
G01X16379768Y-8092134D01*
G01X16365459Y-8108888D01*
G01X16353946Y-8127675D01*
G01X16345514Y-8148031D01*
G01X16340371Y-8169456D01*
G01X16338642Y-8191421D01*
G01X16338642Y-8900999D01*
G01X16337148Y-8914258D01*
G01X16332741Y-8926852D01*
G01X16325641Y-8938150D01*
G01X16316206Y-8947586D01*
G01X16304908Y-8954685D01*
G01X16292314Y-8959092D01*
G01X16279055Y-8960586D01*
G01X16195479Y-8960586D01*
G01X16173513Y-8962314D01*
G01X16152087Y-8967458D01*
G01X16131730Y-8975890D01*
G01X16112943Y-8987403D01*
G01X16096189Y-9001713D01*
G01X15954768Y-9143134D01*
G01X15940459Y-9159888D01*
G01X15928946Y-9178675D01*
G01X15920514Y-9199031D01*
G01X15915371Y-9220456D01*
G01X15913642Y-9242422D01*
G01X15913642Y-10830000D01*
G01X15912358Y-10834793D01*
G01X15908849Y-10838302D01*
G01X15904056Y-10839586D01*
G01X15529062Y-10839586D01*
G01X15524266Y-10838301D01*
G01X15520755Y-10834790D01*
G01X15519470Y-10829994D01*
G01X15519470Y-10609000D01*
G01X15552642Y-10609000D01*
G01X15554617Y-10634094D01*
G01X15560493Y-10658570D01*
G01X15570126Y-10681826D01*
G01X15583278Y-10703289D01*
G01X15599626Y-10722430D01*
G01X15618767Y-10738777D01*
G01X15640230Y-10751930D01*
G01X15663485Y-10761563D01*
G01X15687962Y-10767439D01*
G01X15713056Y-10769414D01*
G01X15738150Y-10767439D01*
G01X15762627Y-10761563D01*
G01X15785882Y-10751930D01*
G01X15807345Y-10738777D01*
G01X15826486Y-10722430D01*
G01X15842834Y-10703289D01*
G01X15855986Y-10681826D01*
G01X15865619Y-10658570D01*
G01X15871495Y-10634094D01*
G01X15873470Y-10609000D01*
G01X15873470Y-10609000D01*
G01X15871495Y-10583906D01*
G01X15865619Y-10559429D01*
G01X15855986Y-10536173D01*
G01X15842834Y-10514711D01*
G01X15826486Y-10495570D01*
G01X15807345Y-10479222D01*
G01X15785882Y-10466070D01*
G01X15762627Y-10456437D01*
G01X15738150Y-10450561D01*
G01X15713056Y-10448586D01*
G01X15687962Y-10450561D01*
G01X15663485Y-10456437D01*
G01X15640230Y-10466070D01*
G01X15618767Y-10479222D01*
G01X15599626Y-10495570D01*
G01X15583278Y-10514711D01*
G01X15570126Y-10536173D01*
G01X15560493Y-10559429D01*
G01X15554617Y-10583906D01*
G01X15552642Y-10609000D01*
G01X15519470Y-10609000D01*
G01X15519470Y-10057605D01*
G01X15534053Y-10043400D01*
G01X15546429Y-10027237D01*
G01X15556339Y-10009453D01*
G01X15563572Y-9990424D01*
G01X15567978Y-9970549D01*
G01X15569464Y-9950246D01*
G01X15567757Y-9928263D01*
G01X15562632Y-9906818D01*
G01X15554216Y-9886439D01*
G01X15542716Y-9867627D01*
G01X15528414Y-9850846D01*
G01X15511663Y-9836509D01*
G01X15492876Y-9824969D01*
G01X15472514Y-9816509D01*
G01X15451080Y-9811339D01*
G01X15429102Y-9809586D01*
G01X12859000Y-9809586D01*
G01X12845741Y-9808092D01*
G01X12833147Y-9803685D01*
G01X12821849Y-9796586D01*
G01X12812414Y-9787151D01*
G01X12805315Y-9775854D01*
G01X12800908Y-9763259D01*
G01X12799414Y-9750000D01*
G01X12799414Y-9100000D01*
G01X12800698Y-9095207D01*
G01X12804207Y-9091698D01*
G01X12809000Y-9090414D01*
G01X12908198Y-9090414D01*
G01X12889830Y-9107891D01*
G01X12874445Y-9128044D01*
G01X12862428Y-9150370D01*
G01X12854079Y-9174310D01*
G01X12849606Y-9199266D01*
G01X12849121Y-9224616D01*
G01X12852636Y-9249725D01*
G01X12860064Y-9273967D01*
G01X12871218Y-9296735D01*
G01X12885820Y-9317462D01*
G01X12903506Y-9335630D01*
G01X12923833Y-9350783D01*
G01X12923833Y-9533247D01*
G01X12925504Y-9550061D01*
G01X12930453Y-9566218D01*
G01X12938485Y-9581084D01*
G01X12949287Y-9594078D01*
G01X12962436Y-9604691D01*
G01X12977416Y-9612508D01*
G01X12993643Y-9617223D01*
G01X13148210Y-9771790D01*
G01X13158880Y-9780547D01*
G01X13171054Y-9787054D01*
G01X13184263Y-9791061D01*
G01X13198000Y-9792414D01*
G01X15691056Y-9792414D01*
G01X15704793Y-9791061D01*
G01X15718002Y-9787054D01*
G01X15730176Y-9780547D01*
G01X15740846Y-9771790D01*
G01X15812846Y-9699790D01*
G01X15821603Y-9689120D01*
G01X15828110Y-9676946D01*
G01X15832117Y-9663737D01*
G01X15833470Y-9650000D01*
G01X15833470Y-9609715D01*
G01X15843518Y-9594238D01*
G01X15850214Y-9577044D01*
G01X15853281Y-9558848D01*
G01X15852589Y-9540409D01*
G01X15848168Y-9522495D01*
G01X15840203Y-9505850D01*
G01X15829024Y-9491170D01*
G01X15815097Y-9479065D01*
G01X15799003Y-9470039D01*
G01X15781412Y-9464469D01*
G01X15763056Y-9462586D01*
G01X15744700Y-9464469D01*
G01X15727109Y-9470039D01*
G01X15711015Y-9479065D01*
G01X15697089Y-9491170D01*
G01X15685910Y-9505850D01*
G01X15677944Y-9522495D01*
G01X15673523Y-9540409D01*
G01X15672832Y-9558848D01*
G01X15675898Y-9577044D01*
G01X15682594Y-9594238D01*
G01X15692642Y-9609715D01*
G01X15692642Y-9620834D01*
G01X15661890Y-9651586D01*
G01X13227166Y-9651586D01*
G01X13094660Y-9519080D01*
G01X13094660Y-9350783D01*
G01X13114988Y-9335630D01*
G01X13132673Y-9317462D01*
G01X13147275Y-9296735D01*
G01X13158430Y-9273967D01*
G01X13165857Y-9249725D01*
G01X13169372Y-9224616D01*
G01X13168887Y-9199266D01*
G01X13164414Y-9174310D01*
G01X13156065Y-9150370D01*
G01X13144048Y-9128044D01*
G01X13128663Y-9107891D01*
G01X13110295Y-9090414D01*
G01X13229056Y-9090414D01*
G01X13233849Y-9091698D01*
G01X13237358Y-9095207D01*
G01X13238642Y-9100000D01*
G01X13238642Y-9392523D01*
G01X13224034Y-9406737D01*
G01X13211638Y-9422916D01*
G01X13201714Y-9440719D01*
G01X13194472Y-9459771D01*
G01X13190066Y-9479671D01*
G01X13188586Y-9500000D01*
G01X13188665Y-9502522D01*
G01X13190740Y-9524180D01*
G01X13196136Y-9545258D01*
G01X13204723Y-9565249D01*
G01X13216296Y-9583673D01*
G01X13230575Y-9600088D01*
G01X13247220Y-9614101D01*
G01X13265829Y-9625373D01*
G01X13285956Y-9633636D01*
G01X13307119Y-9638690D01*
G01X13328807Y-9640414D01*
G01X15429243Y-9640414D01*
G01X15451182Y-9638650D01*
G01X15472576Y-9633480D01*
G01X15492899Y-9625030D01*
G01X15511652Y-9613509D01*
G01X15528375Y-9599199D01*
G01X15542656Y-9582452D01*
G01X15554145Y-9563679D01*
G01X15562560Y-9543341D01*
G01X15567694Y-9521939D01*
G01X15569420Y-9499997D01*
G01X15569333Y-9497341D01*
G01X15567546Y-9477518D01*
G01X15562975Y-9458146D01*
G01X15555711Y-9439615D01*
G01X15545899Y-9422298D01*
G01X15533737Y-9406542D01*
G01X15519470Y-9392663D01*
G01X15519470Y-9208383D01*
G01X15533766Y-9194488D01*
G01X15545949Y-9178709D01*
G01X15555776Y-9161363D01*
G01X15563047Y-9142801D01*
G01X15567616Y-9123396D01*
G01X15569390Y-9103540D01*
G01X15569470Y-9101000D01*
G01X15567859Y-9079791D01*
G01X15563063Y-9059069D01*
G01X15555192Y-9039308D01*
G01X15544426Y-9020964D01*
G01X15531013Y-9004456D01*
G01X15515261Y-8990163D01*
G01X15497530Y-8978414D01*
G01X16077056Y-8978414D01*
G01X16093719Y-8976773D01*
G01X16109742Y-8971912D01*
G01X16124509Y-8964019D01*
G01X16137453Y-8953397D01*
G01X16306397Y-8784453D01*
G01X16317019Y-8771509D01*
G01X16324912Y-8756742D01*
G01X16329773Y-8740719D01*
G01X16331414Y-8724056D01*
G01X16331414Y-8114380D01*
G01X16585380Y-7860414D01*
G01X16981000Y-7860414D01*
G01X16997663Y-7858773D01*
G01X17013687Y-7853912D01*
G01X17028453Y-7846019D01*
G01X17041397Y-7835397D01*
G01X17334397Y-7542397D01*
G01X17345019Y-7529453D01*
G01X17352912Y-7514686D01*
G01X17357773Y-7498663D01*
G01X17359414Y-7482000D01*
G01X17359414Y-6303145D01*
G01X17373675Y-6286502D01*
G01X17385065Y-6267776D01*
G01X17393284Y-6247459D01*
G01X17398119Y-6226081D01*
G01X17399441Y-6204204D01*
G01X17397216Y-6182400D01*
G01X17391504Y-6161240D01*
G01X17382452Y-6141279D01*
G01X17370299Y-6123040D01*
G01X17355363Y-6107000D01*
G01X17370505Y-6090698D01*
G01X17382774Y-6072137D01*
G01X17391838Y-6051817D01*
G01X17397452Y-6030288D01*
G01X17399465Y-6008129D01*
G01X17397822Y-5985941D01*
G01X17392568Y-5964320D01*
G01X17383844Y-5943852D01*
G01X17371887Y-5925089D01*
G01X17357018Y-5908537D01*
G01X17339640Y-5894643D01*
G01X17320221Y-5883783D01*
G01X17299286Y-5876249D01*
G01X17277399Y-5872245D01*
G01X17255153Y-5871879D01*
G01X17233146Y-5875161D01*
G01X17211975Y-5882002D01*
G01X17192209Y-5892218D01*
G01X17174383Y-5905532D01*
G01X17158978Y-5921586D01*
G01X17084000Y-5921586D01*
G01X17067337Y-5923227D01*
G01X17051314Y-5928088D01*
G01X17036547Y-5935981D01*
G01X17023603Y-5946603D01*
G01X16974603Y-5995603D01*
G01X16963981Y-6008547D01*
G01X16956088Y-6023314D01*
G01X16951227Y-6039337D01*
G01X16949586Y-6056000D01*
G01X16949586Y-6641000D01*
G01X16951227Y-6657663D01*
G01X16956088Y-6673686D01*
G01X16963981Y-6688453D01*
G01X16974603Y-6701396D01*
G01X16987586Y-6714380D01*
G01X16987586Y-7383620D01*
G01X16879620Y-7491586D01*
G01X16597000Y-7491586D01*
G01X16580337Y-7493227D01*
G01X16564314Y-7498088D01*
G01X16549547Y-7505981D01*
G01X16536603Y-7516603D01*
G01X15965603Y-8087603D01*
G01X15954981Y-8100547D01*
G01X15947088Y-8115313D01*
G01X15942227Y-8131337D01*
G01X15940586Y-8148000D01*
G01X15940586Y-8730586D01*
G01X13862435Y-8730586D01*
G01X13829470Y-8697620D01*
G01X13829470Y-8457056D01*
G01X13827829Y-8440393D01*
G01X13822968Y-8424369D01*
G01X13815075Y-8409603D01*
G01X13804453Y-8396659D01*
G01X13710397Y-8302603D01*
G01X13697453Y-8291981D01*
G01X13682686Y-8284088D01*
G01X13666663Y-8279227D01*
G01X13650000Y-8277586D01*
G01X13400650Y-8277586D01*
G01X13382045Y-8273263D01*
G01X13362946Y-8272946D01*
G01X13344207Y-8276647D01*
G01X13326664Y-8284203D01*
G01X13311100Y-8295275D01*
G01X13298209Y-8309371D01*
G01X13288567Y-8325859D01*
G01X13282604Y-8344006D01*
G01X13280586Y-8363000D01*
G01X13282604Y-8381994D01*
G01X13288567Y-8400141D01*
G01X13298209Y-8416629D01*
G01X13311100Y-8430725D01*
G01X13326664Y-8441797D01*
G01X13344207Y-8449353D01*
G01X13362946Y-8453054D01*
G01X13382045Y-8452737D01*
G01X13400650Y-8448414D01*
G01X13614620Y-8448414D01*
G01X13658642Y-8492436D01*
G01X13658642Y-8733000D01*
G01X13660283Y-8749663D01*
G01X13665144Y-8765687D01*
G01X13673037Y-8780453D01*
G01X13683659Y-8793397D01*
G01X13697849Y-8807586D01*
G37*
G36*
G01X16098256Y-13078414D02*
G01X16030784Y-13145886D01*
G01X15869950Y-13145886D01*
G01X15856507Y-13147401D01*
G01X15843737Y-13151869D01*
G01X15832283Y-13159067D01*
G01X15822717Y-13168633D01*
G01X15815519Y-13180087D01*
G01X15811051Y-13192857D01*
G01X15809536Y-13206300D01*
G01X15809536Y-13346671D01*
G01X15439620Y-13716586D01*
G01X15270263Y-13716586D01*
G01X15252675Y-13711154D01*
G01X15234428Y-13708720D01*
G01X15216030Y-13709351D01*
G01X15197993Y-13713029D01*
G01X15180818Y-13719654D01*
G01X15164982Y-13729039D01*
G01X15150926Y-13740926D01*
G01X15149323Y-13742528D01*
G01X15138071Y-13755703D01*
G01X15129018Y-13770476D01*
G01X15122388Y-13786483D01*
G01X15118343Y-13803330D01*
G01X15116984Y-13820603D01*
G01X15116984Y-13989586D01*
G01X14706423Y-13989586D01*
G01X14706423Y-13904414D01*
G01X14822000Y-13904414D01*
G01X14838663Y-13902773D01*
G01X14854687Y-13897912D01*
G01X14869453Y-13890019D01*
G01X14882397Y-13879397D01*
G01X15084380Y-13677414D01*
G01X15186331Y-13677414D01*
G01X15204427Y-13681351D01*
G01X15222946Y-13681519D01*
G01X15241111Y-13677909D01*
G01X15258159Y-13670674D01*
G01X15273375Y-13660118D01*
G01X15286121Y-13646682D01*
G01X15295863Y-13630931D01*
G01X15460080Y-13466714D01*
G01X15598617Y-13466714D01*
G01X15612060Y-13465199D01*
G01X15624829Y-13460731D01*
G01X15636284Y-13453534D01*
G01X15645850Y-13443967D01*
G01X15653048Y-13432513D01*
G01X15657516Y-13419743D01*
G01X15659031Y-13406300D01*
G01X15659031Y-13206300D01*
G01X15657516Y-13192857D01*
G01X15653048Y-13180087D01*
G01X15645850Y-13168633D01*
G01X15636284Y-13159067D01*
G01X15624829Y-13151869D01*
G01X15612060Y-13147401D01*
G01X15598617Y-13145886D01*
G01X15398617Y-13145886D01*
G01X15385173Y-13147401D01*
G01X15372404Y-13151869D01*
G01X15360949Y-13159067D01*
G01X15351383Y-13168633D01*
G01X15344186Y-13180087D01*
G01X15339718Y-13192857D01*
G01X15338203Y-13206300D01*
G01X15338203Y-13347004D01*
G01X15178620Y-13506586D01*
G01X15049000Y-13506586D01*
G01X15032337Y-13508227D01*
G01X15016314Y-13513088D01*
G01X15001547Y-13520981D01*
G01X14988603Y-13531603D01*
G01X14786620Y-13733586D01*
G01X14666969Y-13733586D01*
G01X14653902Y-13724377D01*
G01X14639641Y-13717152D01*
G01X14693379Y-13663414D01*
G01X14722000Y-13663414D01*
G01X14738663Y-13661773D01*
G01X14754686Y-13656912D01*
G01X14769453Y-13649019D01*
G01X14782397Y-13638397D01*
G01X14802931Y-13617863D01*
G01X14817194Y-13609244D01*
G01X14829632Y-13598154D01*
G01X14839825Y-13584969D01*
G01X14958079Y-13466714D01*
G01X15127283Y-13466714D01*
G01X15140727Y-13465199D01*
G01X15153496Y-13460731D01*
G01X15164951Y-13453534D01*
G01X15174517Y-13443967D01*
G01X15181714Y-13432513D01*
G01X15186183Y-13419743D01*
G01X15187697Y-13406300D01*
G01X15187697Y-13206300D01*
G01X15186183Y-13192857D01*
G01X15181714Y-13180087D01*
G01X15174517Y-13168633D01*
G01X15164951Y-13159067D01*
G01X15153496Y-13151869D01*
G01X15140727Y-13147401D01*
G01X15127283Y-13145886D01*
G01X14927283Y-13145886D01*
G01X14913840Y-13147401D01*
G01X14901071Y-13151869D01*
G01X14889616Y-13159067D01*
G01X14880050Y-13168633D01*
G01X14872852Y-13180087D01*
G01X14868384Y-13192857D01*
G01X14866869Y-13206300D01*
G01X14866869Y-13316337D01*
G01X14731125Y-13452081D01*
G01X14716972Y-13458977D01*
G01X14704229Y-13468224D01*
G01X14693283Y-13479542D01*
G01X14684467Y-13492586D01*
G01X14658000Y-13492586D01*
G01X14641336Y-13494227D01*
G01X14625313Y-13499088D01*
G01X14610547Y-13506981D01*
G01X14597603Y-13517603D01*
G01X14402832Y-13712374D01*
G01X14382224Y-13716879D01*
G01X14362849Y-13725221D01*
G01X14345414Y-13737095D01*
G01X14345414Y-13698000D01*
G01X14344123Y-13681167D01*
G01X14340281Y-13664727D01*
G01X14333978Y-13649066D01*
G01X14518630Y-13464414D01*
G01X14658000Y-13464414D01*
G01X14671443Y-13462899D01*
G01X14684213Y-13458431D01*
G01X14695668Y-13451234D01*
G01X14705234Y-13441668D01*
G01X14712431Y-13430213D01*
G01X14716899Y-13417443D01*
G01X14718414Y-13404000D01*
G01X14718414Y-13243416D01*
G01X14883416Y-13078414D01*
G01X16098256Y-13078414D01*
G37*
G36*
G01X18680604Y-13780886D02*
G01X18373036Y-13780884D01*
G01X18373056Y-13752994D01*
G01X18372269Y-13749013D01*
G01X18370019Y-13745635D01*
G01X18196376Y-13571399D01*
G01X18192892Y-13569091D01*
G01X18188781Y-13568338D01*
G01X17654781Y-13579588D01*
G01X17649703Y-13581034D01*
G01X17645987Y-13584783D01*
G01X17644587Y-13589873D01*
G01X17639712Y-13989586D01*
G01X16419414Y-13989586D01*
G01X16419414Y-13909549D01*
G01X16431038Y-13904448D01*
G01X16441778Y-13897681D01*
G01X16451397Y-13889397D01*
G01X16668431Y-13672363D01*
G01X16681411Y-13664673D01*
G01X16692932Y-13654932D01*
G01X16702673Y-13643411D01*
G01X16710363Y-13630431D01*
G01X16874080Y-13466714D01*
G01X17012617Y-13466714D01*
G01X17026060Y-13465199D01*
G01X17038829Y-13460731D01*
G01X17050284Y-13453534D01*
G01X17059850Y-13443967D01*
G01X17067048Y-13432513D01*
G01X17071516Y-13419743D01*
G01X17073031Y-13406300D01*
G01X17073031Y-13206300D01*
G01X17071516Y-13192857D01*
G01X17067048Y-13180087D01*
G01X17059850Y-13168633D01*
G01X17050284Y-13159067D01*
G01X17038829Y-13151869D01*
G01X17026060Y-13147401D01*
G01X17012617Y-13145886D01*
G01X16812617Y-13145886D01*
G01X16799173Y-13147401D01*
G01X16786404Y-13151869D01*
G01X16774949Y-13159067D01*
G01X16765383Y-13168633D01*
G01X16758186Y-13180087D01*
G01X16753717Y-13192857D01*
G01X16752203Y-13206300D01*
G01X16752203Y-13347004D01*
G01X16589569Y-13509637D01*
G01X16576589Y-13517327D01*
G01X16565068Y-13527068D01*
G01X16555327Y-13538589D01*
G01X16547637Y-13551569D01*
G01X16357024Y-13742183D01*
G01X16337646Y-13735606D01*
G01X16317388Y-13732718D01*
G01X16296945Y-13733617D01*
G01X16277019Y-13738274D01*
G01X16258294Y-13746528D01*
G01X16241414Y-13758095D01*
G01X16241414Y-13628379D01*
G01X16278431Y-13591363D01*
G01X16290769Y-13583688D01*
G01X16301718Y-13574137D01*
G01X16310996Y-13562955D01*
G01X16318363Y-13550431D01*
G01X16402079Y-13466714D01*
G01X16541283Y-13466714D01*
G01X16554727Y-13465199D01*
G01X16567496Y-13460731D01*
G01X16578951Y-13453534D01*
G01X16588517Y-13443967D01*
G01X16595714Y-13432513D01*
G01X16600183Y-13419743D01*
G01X16601697Y-13406300D01*
G01X16601697Y-13206300D01*
G01X16600183Y-13192857D01*
G01X16595714Y-13180087D01*
G01X16588517Y-13168633D01*
G01X16578951Y-13159067D01*
G01X16567496Y-13151869D01*
G01X16554727Y-13147401D01*
G01X16541283Y-13145886D01*
G01X16341283Y-13145886D01*
G01X16327840Y-13147401D01*
G01X16315071Y-13151869D01*
G01X16303616Y-13159067D01*
G01X16294050Y-13168633D01*
G01X16286852Y-13180087D01*
G01X16282384Y-13192857D01*
G01X16280869Y-13206300D01*
G01X16280869Y-13346337D01*
G01X16197569Y-13429637D01*
G01X16184165Y-13437630D01*
G01X16172334Y-13447810D01*
G01X16162431Y-13459872D01*
G01X16154749Y-13473457D01*
G01X16120079Y-13508127D01*
G01X16100164Y-13511979D01*
G01X16081290Y-13519409D01*
G01X16064094Y-13530166D01*
G01X16049155Y-13543887D01*
G01X16036979Y-13560110D01*
G01X16027976Y-13578286D01*
G01X16022449Y-13597802D01*
G01X16020586Y-13618000D01*
G01X16020586Y-13989586D01*
G01X15337811Y-13989586D01*
G01X15337811Y-13887414D01*
G01X15475000Y-13887414D01*
G01X15491663Y-13885773D01*
G01X15507687Y-13880912D01*
G01X15522453Y-13873019D01*
G01X15535397Y-13862397D01*
G01X15931080Y-13466714D01*
G01X16069950Y-13466714D01*
G01X16083393Y-13465199D01*
G01X16096163Y-13460731D01*
G01X16107617Y-13453534D01*
G01X16117184Y-13443967D01*
G01X16124381Y-13432513D01*
G01X16128849Y-13419743D01*
G01X16130364Y-13406300D01*
G01X16130364Y-13245466D01*
G01X16247416Y-13128414D01*
G01X19292000Y-13128414D01*
G01X19305737Y-13127061D01*
G01X19318946Y-13123054D01*
G01X19331120Y-13116547D01*
G01X19341790Y-13107790D01*
G01X20097790Y-12351790D01*
G01X20106547Y-12341120D01*
G01X20113054Y-12328946D01*
G01X20117061Y-12315737D01*
G01X20118414Y-12302000D01*
G01X20118414Y-9122000D01*
G01X20117061Y-9108263D01*
G01X20113054Y-9095054D01*
G01X20106547Y-9082880D01*
G01X20097790Y-9072210D01*
G01X20032994Y-9007414D01*
G01X20821867Y-9007414D01*
G01X20834649Y-9019254D01*
G01X20849568Y-9028254D01*
G01X20866003Y-9034040D01*
G01X20883270Y-9036370D01*
G01X20900650Y-9035148D01*
G01X20917421Y-9030424D01*
G01X20932884Y-9022396D01*
G01X20946397Y-9011397D01*
G01X21115380Y-8842414D01*
G01X21129217Y-8842414D01*
G01X21138698Y-8855897D01*
G01X21149514Y-8868335D01*
G01X21124912Y-8872676D01*
G01X21101283Y-8880783D01*
G01X21079198Y-8892461D01*
G01X21059195Y-8907426D01*
G01X21041758Y-8925316D01*
G01X21027310Y-8945695D01*
G01X21016201Y-8968071D01*
G01X21008701Y-8991900D01*
G01X21004991Y-9016605D01*
G01X21005163Y-9041586D01*
G01X20535410Y-9041586D01*
G01X20516675Y-9040743D01*
G01X20498168Y-9043784D01*
G01X20480687Y-9050577D01*
G01X20464984Y-9060830D01*
G01X20451734Y-9074102D01*
G01X20441507Y-9089823D01*
G01X20434744Y-9107315D01*
G01X20431734Y-9125827D01*
G01X20432609Y-9144561D01*
G01X20437330Y-9162711D01*
G01X20445694Y-9179497D01*
G01X20457341Y-9194197D01*
G01X20471770Y-9206177D01*
G01X20488360Y-9214923D01*
G01X20506398Y-9220058D01*
G01X20525107Y-9221360D01*
G01X20543683Y-9218776D01*
G01X20561325Y-9212414D01*
G01X21066000Y-9212414D01*
G01X21082663Y-9210773D01*
G01X21098686Y-9205912D01*
G01X21113453Y-9198019D01*
G01X21126397Y-9187397D01*
G01X21129384Y-9184410D01*
G01X21143724Y-9186997D01*
G01X21158240Y-9188271D01*
G01X21143031Y-9203807D01*
G01X21130062Y-9221257D01*
G01X21119572Y-9240300D01*
G01X21111753Y-9260586D01*
G01X20507237Y-9260586D01*
G01X20419592Y-9172941D01*
G01X20414381Y-9156040D01*
G01X20405981Y-9140477D01*
G01X20394711Y-9126847D01*
G01X20381004Y-9115672D01*
G01X20365384Y-9107379D01*
G01X20348448Y-9102286D01*
G01X20330844Y-9100586D01*
G01X20313246Y-9102346D01*
G01X20296328Y-9107498D01*
G01X20280736Y-9115845D01*
G01X20267068Y-9127068D01*
G01X20255845Y-9140736D01*
G01X20247498Y-9156328D01*
G01X20242346Y-9173246D01*
G01X20240586Y-9190844D01*
G01X20242286Y-9208447D01*
G01X20247379Y-9225383D01*
G01X20255672Y-9241004D01*
G01X20266847Y-9254711D01*
G01X20280477Y-9265981D01*
G01X20296040Y-9274381D01*
G01X20312940Y-9279592D01*
G01X20404317Y-9370968D01*
G01X20411414Y-9387623D01*
G01X20421862Y-9402408D01*
G01X20435192Y-9414659D01*
G01X20450804Y-9423825D01*
G01X20467998Y-9429495D01*
G01X20486000Y-9431414D01*
G01X21162523Y-9431414D01*
G01X21183220Y-9446002D01*
G01X21205955Y-9457152D01*
G01X21230161Y-9464585D01*
G01X21255235Y-9468116D01*
G01X21280553Y-9467658D01*
G01X21305483Y-9463221D01*
G01X21329405Y-9454917D01*
G01X21351721Y-9442952D01*
G01X21371877Y-9427624D01*
G01X21389369Y-9409316D01*
G01X21403763Y-9388482D01*
G01X21414699Y-9365644D01*
G01X21421905Y-9341369D01*
G01X21425201Y-9316263D01*
G01X21424505Y-9290950D01*
G01X21419835Y-9266063D01*
G01X21411307Y-9242220D01*
G01X21399133Y-9220017D01*
G01X21383617Y-9200006D01*
G01X21365145Y-9182686D01*
G01X21344178Y-9168488D01*
G01X21321238Y-9157767D01*
G01X21296896Y-9150789D01*
G01X21271760Y-9147729D01*
G01X21288077Y-9130882D01*
G01X21301763Y-9111836D01*
G01X21312526Y-9090998D01*
G01X21320135Y-9068813D01*
G01X21324428Y-9045756D01*
G01X21325313Y-9022319D01*
G01X21322772Y-8999004D01*
G01X21316857Y-8976309D01*
G01X21307697Y-8954718D01*
G01X21295486Y-8934694D01*
G01X21280486Y-8916665D01*
G01X21305475Y-8912224D01*
G01X21329450Y-8903897D01*
G01X21351811Y-8891894D01*
G01X21372000Y-8876514D01*
G01X21389511Y-8858142D01*
G01X21403904Y-8837239D01*
G01X21414821Y-8814326D01*
G01X21421987Y-8789979D01*
G01X21425224Y-8764807D01*
G01X21424450Y-8739439D01*
G01X21419684Y-8714510D01*
G01X21411047Y-8690646D01*
G01X21398754Y-8668442D01*
G01X21383112Y-8648455D01*
G01X21364514Y-8631185D01*
G01X21343425Y-8617064D01*
G01X21320373Y-8606446D01*
G01X21295935Y-8599597D01*
G01X21270723Y-8596688D01*
G01X21245367Y-8597792D01*
G01X21220503Y-8602881D01*
G01X21196752Y-8611828D01*
G01X21247140Y-8561440D01*
G01X21265286Y-8562250D01*
G01X21283192Y-8559205D01*
G01X21300050Y-8552442D01*
G01X21315097Y-8542267D01*
G01X21327652Y-8529141D01*
G01X21476397Y-8380397D01*
G01X21485370Y-8369833D01*
G01X21492517Y-8357956D01*
G01X21497649Y-8345080D01*
G01X21517868Y-8330917D01*
G01X21535675Y-8313820D01*
G01X21550648Y-8294192D01*
G01X21562432Y-8272500D01*
G01X21570748Y-8249256D01*
G01X21575400Y-8225012D01*
G01X21576276Y-8200341D01*
G01X21573356Y-8175828D01*
G01X21566710Y-8152053D01*
G01X21556495Y-8129580D01*
G01X21542952Y-8108939D01*
G01X21526403Y-8090622D01*
G01X21507239Y-8075060D01*
G01X21485914Y-8062623D01*
G01X21462933Y-8053606D01*
G01X21438841Y-8048221D01*
G01X21414209Y-8046596D01*
G01X21389618Y-8048770D01*
G01X21365652Y-8054692D01*
G01X21342879Y-8064221D01*
G01X21321837Y-8077131D01*
G01X21303026Y-8093117D01*
G01X21286890Y-8111799D01*
G01X21273812Y-8132737D01*
G01X21264101Y-8155433D01*
G01X21257987Y-8179351D01*
G01X21255616Y-8203923D01*
G01X21257043Y-8228568D01*
G01X21262234Y-8252702D01*
G01X21271067Y-8275754D01*
G01X21283333Y-8297178D01*
G01X21298740Y-8316466D01*
G01X21201829Y-8413378D01*
G01X21191426Y-8419451D01*
G01X21182210Y-8427210D01*
G01X20790834Y-8818586D01*
G01X20031167Y-8818586D01*
G01X19961586Y-8749006D01*
G01X19981421Y-8750414D01*
G01X20799580Y-8750414D01*
G01X20821545Y-8748685D01*
G01X20842969Y-8743541D01*
G01X20863325Y-8735109D01*
G01X20882111Y-8723597D01*
G01X20898866Y-8709288D01*
G01X21199287Y-8408867D01*
G01X21213597Y-8392112D01*
G01X21225110Y-8373326D01*
G01X21233542Y-8352969D01*
G01X21238686Y-8331544D01*
G01X21240414Y-8309577D01*
G01X21240414Y-8050000D01*
G01X21241698Y-8045207D01*
G01X21245207Y-8041698D01*
G01X21250000Y-8040414D01*
G01X21573033Y-8040414D01*
G01X21577824Y-8041697D01*
G01X21581332Y-8045203D01*
G01X21582619Y-8049994D01*
G01X21583521Y-9435961D01*
G01X21582034Y-9449227D01*
G01X21577632Y-9461828D01*
G01X21570535Y-9473134D01*
G01X21561099Y-9482576D01*
G01X21549798Y-9489680D01*
G01X21537199Y-9494091D01*
G01X21523935Y-9495586D01*
G01X20405430Y-9495586D01*
G01X20391218Y-9480993D01*
G01X20375044Y-9468611D01*
G01X20357248Y-9458699D01*
G01X20338205Y-9451466D01*
G01X20318317Y-9447064D01*
G01X20298000Y-9445586D01*
G01X20276035Y-9447315D01*
G01X20254610Y-9452458D01*
G01X20234254Y-9460890D01*
G01X20215467Y-9472403D01*
G01X20198713Y-9486712D01*
G01X20184403Y-9503467D01*
G01X20172890Y-9522253D01*
G01X20164458Y-9542610D01*
G01X20159315Y-9564034D01*
G01X20157586Y-9586000D01*
G01X20157586Y-12303829D01*
G01X20156441Y-12315453D01*
G01X20153050Y-12326631D01*
G01X20147544Y-12336933D01*
G01X20140134Y-12345962D01*
G01X18722666Y-13763430D01*
G01X18710345Y-13772887D01*
G01X18696000Y-13778840D01*
G01X18680604Y-13780886D01*
G37*
G36*
G01X16160586Y-8134207D02*
G01X16160586Y-8688676D01*
G01X16111414Y-8737849D01*
G01X16111414Y-8183380D01*
G01X16160586Y-8134207D01*
G37*
G36*
G01X16632380Y-7662414D02*
G01X16915000Y-7662414D01*
G01X16931663Y-7660773D01*
G01X16947686Y-7655912D01*
G01X16962453Y-7648019D01*
G01X16975397Y-7637397D01*
G01X17133397Y-7479397D01*
G01X17144019Y-7466453D01*
G01X17151912Y-7451686D01*
G01X17156773Y-7435663D01*
G01X17158414Y-7419000D01*
G01X17158414Y-6679000D01*
G01X17156773Y-6662337D01*
G01X17151912Y-6646314D01*
G01X17144019Y-6631547D01*
G01X17133397Y-6618604D01*
G01X17120414Y-6605621D01*
G01X17120414Y-6092414D01*
G01X17158978Y-6092414D01*
G01X17172749Y-6107000D01*
G01X17157599Y-6123311D01*
G01X17145325Y-6141885D01*
G01X17136261Y-6162218D01*
G01X17130651Y-6183761D01*
G01X17128646Y-6205933D01*
G01X17130301Y-6228133D01*
G01X17135571Y-6249763D01*
G01X17144314Y-6270236D01*
G01X17156293Y-6289000D01*
G01X17171185Y-6305549D01*
G01X17188586Y-6319433D01*
G01X17188586Y-7446620D01*
G01X16945620Y-7689586D01*
G01X16605207Y-7689586D01*
G01X16632380Y-7662414D01*
G37*
G36*
G01X19913586Y-12255834D02*
G01X19231834Y-12937586D01*
G01X17500138Y-12937586D01*
G01X17513689Y-12931074D01*
G01X17525213Y-12921417D01*
G01X17533996Y-12909213D01*
G01X17539493Y-12895219D01*
G01X17541364Y-12880300D01*
G01X17541364Y-12850714D01*
G01X17912286Y-12850714D01*
G01X17926903Y-12860315D01*
G01X17943095Y-12866923D01*
G01X17960256Y-12870290D01*
G01X17977744Y-12870290D01*
G01X17994906Y-12866923D01*
G01X18011098Y-12860315D01*
G01X18025715Y-12850714D01*
G01X19281700Y-12850714D01*
G01X19295437Y-12849361D01*
G01X19308646Y-12845354D01*
G01X19320820Y-12838847D01*
G01X19331490Y-12830090D01*
G01X19871790Y-12289790D01*
G01X19880547Y-12279120D01*
G01X19887054Y-12266946D01*
G01X19891061Y-12253737D01*
G01X19892414Y-12240000D01*
G01X19892414Y-9157000D01*
G01X19891061Y-9143263D01*
G01X19887054Y-9130054D01*
G01X19880547Y-9117880D01*
G01X19871790Y-9107210D01*
G01X19607790Y-8843210D01*
G01X19597120Y-8834453D01*
G01X19584946Y-8827946D01*
G01X19571737Y-8823939D01*
G01X19558000Y-8822586D01*
G01X18479000Y-8822586D01*
G01X18465263Y-8823939D01*
G01X18452054Y-8827946D01*
G01X18439880Y-8834453D01*
G01X18429210Y-8843210D01*
G01X18236834Y-9035586D01*
G01X18125799Y-9035586D01*
G01X18128307Y-9018399D01*
G01X18127481Y-9001049D01*
G01X18123354Y-8984177D01*
G01X18116076Y-8968406D01*
G01X18105916Y-8954317D01*
G01X18093250Y-8942431D01*
G01X18078545Y-8933187D01*
G01X18062343Y-8926925D01*
G01X18045243Y-8923877D01*
G01X18033299Y-8917682D01*
G01X18020394Y-8913872D01*
G01X18007000Y-8912586D01*
G01X17989001Y-8912586D01*
G01X17997456Y-8901261D01*
G01X18004043Y-8888757D01*
G01X18008600Y-8875379D01*
G01X18011018Y-8861455D01*
G01X18011235Y-8847323D01*
G01X18009248Y-8833331D01*
G01X18021991Y-8821719D01*
G01X18032298Y-8807900D01*
G01X18039795Y-8792375D01*
G01X18045210Y-8797790D01*
G01X18055880Y-8806547D01*
G01X18068054Y-8813054D01*
G01X18081263Y-8817061D01*
G01X18095000Y-8818414D01*
G01X19588834Y-8818414D01*
G01X19913586Y-9143166D01*
G01X19913586Y-12255834D01*
G37*
G36*
G01X19732264Y-9730926D02*
G01X19732364Y-9726793D01*
G01X19732364Y-9166944D01*
G01X19751586Y-9186166D01*
G01X19751586Y-12210834D01*
G01X19252534Y-12709886D01*
G01X18025715Y-12709886D01*
G01X18011098Y-12700285D01*
G01X17994906Y-12693677D01*
G01X17977744Y-12690310D01*
G01X17960256Y-12690310D01*
G01X17943095Y-12693677D01*
G01X17926903Y-12700285D01*
G01X17912286Y-12709886D01*
G01X17541364Y-12709886D01*
G01X17541364Y-12680300D01*
G01X17540191Y-12668456D01*
G01X17536720Y-12657071D01*
G01X17531083Y-12646588D01*
G01X17523501Y-12637414D01*
G01X19279000Y-12637414D01*
G01X19295663Y-12635773D01*
G01X19311687Y-12630912D01*
G01X19326453Y-12623019D01*
G01X19339397Y-12612397D01*
G01X19707347Y-12244447D01*
G01X19717969Y-12231503D01*
G01X19725862Y-12216737D01*
G01X19730723Y-12200713D01*
G01X19732364Y-12184050D01*
G01X19732364Y-11810208D01*
G01X19732264Y-11806074D01*
G01X19732264Y-11751926D01*
G01X19732364Y-11747793D01*
G01X19732364Y-11104207D01*
G01X19732264Y-11100074D01*
G01X19732264Y-11045926D01*
G01X19732364Y-11041792D01*
G01X19732364Y-9789207D01*
G01X19732264Y-9785074D01*
G01X19732264Y-9730926D01*
G37*
G36*
G01X17540414Y-9381421D02*
G01X17538447Y-9358004D01*
G01X17532603Y-9335243D01*
G01X17538000Y-9335414D01*
G01X17576764Y-9335414D01*
G01X17580892Y-9335514D01*
G01X17643107Y-9335514D01*
G01X17647236Y-9335414D01*
G01X17772764Y-9335414D01*
G01X17776893Y-9335514D01*
G01X17839108Y-9335514D01*
G01X17843236Y-9335414D01*
G01X17930310Y-9335414D01*
G01X17914136Y-9352559D01*
G01X17901057Y-9372168D01*
G01X17891443Y-9393688D01*
G01X17885564Y-9416513D01*
G01X17883586Y-9440000D01*
G01X17885064Y-9460317D01*
G01X17889466Y-9480205D01*
G01X17896699Y-9499248D01*
G01X17906611Y-9517044D01*
G01X17918994Y-9533218D01*
G01X17933586Y-9547430D01*
G01X17933586Y-10883000D01*
G01X17932302Y-10887793D01*
G01X17928793Y-10891302D01*
G01X17924000Y-10892586D01*
G01X17550000Y-10892586D01*
G01X17545207Y-10891302D01*
G01X17541698Y-10887793D01*
G01X17540414Y-10883000D01*
G01X17540414Y-10725000D01*
G01X17553586Y-10725000D01*
G01X17555561Y-10750094D01*
G01X17561437Y-10774571D01*
G01X17571070Y-10797826D01*
G01X17584223Y-10819289D01*
G01X17600570Y-10838430D01*
G01X17619711Y-10854777D01*
G01X17641174Y-10867930D01*
G01X17664430Y-10877563D01*
G01X17688906Y-10883439D01*
G01X17714000Y-10885414D01*
G01X17739094Y-10883439D01*
G01X17763571Y-10877563D01*
G01X17786827Y-10867930D01*
G01X17808289Y-10854777D01*
G01X17827430Y-10838430D01*
G01X17843778Y-10819289D01*
G01X17856930Y-10797826D01*
G01X17866563Y-10774571D01*
G01X17872439Y-10750094D01*
G01X17874414Y-10725000D01*
G01X17872439Y-10699906D01*
G01X17866563Y-10675429D01*
G01X17856930Y-10652173D01*
G01X17843778Y-10630711D01*
G01X17827430Y-10611570D01*
G01X17808289Y-10595222D01*
G01X17786827Y-10582070D01*
G01X17763571Y-10572437D01*
G01X17739094Y-10566561D01*
G01X17714000Y-10564586D01*
G01X17688906Y-10566561D01*
G01X17664430Y-10572437D01*
G01X17641174Y-10582070D01*
G01X17619711Y-10595222D01*
G01X17600570Y-10611570D01*
G01X17584223Y-10630711D01*
G01X17571070Y-10652173D01*
G01X17561437Y-10675429D01*
G01X17555561Y-10699906D01*
G01X17553586Y-10725000D01*
G01X17553586Y-10725000D01*
G01X17540414Y-10725000D01*
G01X17540414Y-9381421D01*
G37*
G36*
G01X18137166Y-8639586D02*
G01X18054790Y-8557210D01*
G01X18044120Y-8548453D01*
G01X18031946Y-8541946D01*
G01X18018737Y-8537939D01*
G01X18005000Y-8536586D01*
G01X17799167Y-8536586D01*
G01X17784790Y-8522210D01*
G01X17774120Y-8513453D01*
G01X17761946Y-8506946D01*
G01X17748737Y-8502939D01*
G01X17735000Y-8501586D01*
G01X17682000Y-8501586D01*
G01X17669473Y-8502709D01*
G01X17657347Y-8506043D01*
G01X17661340Y-8494375D01*
G01X17663708Y-8482273D01*
G01X17682481Y-8479725D01*
G01X17700311Y-8473321D01*
G01X17716415Y-8463341D01*
G01X17730085Y-8450225D01*
G01X17740723Y-8434549D01*
G01X17747860Y-8416999D01*
G01X17751184Y-8398348D01*
G01X17750548Y-8379414D01*
G01X17959834Y-8379414D01*
G01X18195210Y-8614790D01*
G01X18205880Y-8623547D01*
G01X18218054Y-8630054D01*
G01X18231263Y-8634061D01*
G01X18245000Y-8635414D01*
G01X19598834Y-8635414D01*
G01X19603006Y-8639586D01*
G01X18137166Y-8639586D01*
G37*
G36*
G01X19430712Y-8257866D02*
G01X19630432Y-8457586D01*
G01X18297166Y-8457586D01*
G01X18170103Y-8330523D01*
G01X18186437Y-8322345D01*
G01X18200794Y-8311051D01*
G01X18212588Y-8297101D01*
G01X18221337Y-8281066D01*
G01X18226685Y-8263599D01*
G01X18228412Y-8245414D01*
G01X18285834Y-8245414D01*
G01X18459210Y-8418790D01*
G01X18469880Y-8427547D01*
G01X18482054Y-8434054D01*
G01X18495263Y-8438061D01*
G01X18509000Y-8439414D01*
G01X19267000Y-8439414D01*
G01X19280737Y-8438061D01*
G01X19293946Y-8434054D01*
G01X19306120Y-8427547D01*
G01X19316790Y-8418790D01*
G01X19360790Y-8374790D01*
G01X19369547Y-8364120D01*
G01X19376054Y-8351946D01*
G01X19380061Y-8338737D01*
G01X19381414Y-8325000D01*
G01X19381414Y-7116380D01*
G01X19566890Y-6930903D01*
G01X19591239Y-6938033D01*
G01X19616407Y-6941234D01*
G01X19641765Y-6940427D01*
G01X19666679Y-6935632D01*
G01X19690525Y-6926969D01*
G01X19712708Y-6914655D01*
G01X19732671Y-6898997D01*
G01X19749915Y-6880388D01*
G01X19764011Y-6859292D01*
G01X19774603Y-6836238D01*
G01X19781429Y-6811803D01*
G01X19784316Y-6786596D01*
G01X19783194Y-6761250D01*
G01X19778089Y-6736398D01*
G01X19769129Y-6712662D01*
G01X19756540Y-6690634D01*
G01X19740634Y-6670868D01*
G01X19721812Y-6653856D01*
G01X19700542Y-6640025D01*
G01X19677358Y-6629720D01*
G01X19652839Y-6623200D01*
G01X19627599Y-6620626D01*
G01X19602269Y-6622065D01*
G01X19577482Y-6627479D01*
G01X19553859Y-6636733D01*
G01X19531991Y-6649596D01*
G01X19544806Y-6628080D01*
G01X19554117Y-6604831D01*
G01X19559696Y-6580417D01*
G01X19561406Y-6555432D01*
G01X19559207Y-6530485D01*
G01X19553152Y-6506184D01*
G01X19543389Y-6483122D01*
G01X19530155Y-6461860D01*
G01X19513773Y-6442917D01*
G01X19494643Y-6426755D01*
G01X19473230Y-6413768D01*
G01X19450056Y-6404271D01*
G01X19425687Y-6398497D01*
G01X19400716Y-6396586D01*
G01X19375753Y-6398586D01*
G01X19351404Y-6404446D01*
G01X19328264Y-6414024D01*
G01X19306898Y-6427087D01*
G01X19287824Y-6443317D01*
G01X19271509Y-6462317D01*
G01X19258351Y-6483626D01*
G01X19248669Y-6506722D01*
G01X19242700Y-6531044D01*
G01X19240589Y-6555999D01*
G01X19242388Y-6580978D01*
G01X19248053Y-6605373D01*
G01X19257446Y-6628588D01*
G01X19270338Y-6650059D01*
G01X19286414Y-6669262D01*
G01X19305283Y-6685728D01*
G01X19326485Y-6699057D01*
G01X19349504Y-6708924D01*
G01X19373777Y-6715087D01*
G01X19398714Y-6717398D01*
G01X19423707Y-6715799D01*
G01X19448146Y-6710329D01*
G01X19471436Y-6701123D01*
G01X19493009Y-6688404D01*
G01X19481585Y-6707172D01*
G01X19472833Y-6727325D01*
G01X19466916Y-6748485D01*
G01X19463946Y-6770255D01*
G01X19463980Y-6792227D01*
G01X19250603Y-7005603D01*
G01X19239895Y-7018675D01*
G01X19231970Y-7033599D01*
G01X19227138Y-7049791D01*
G01X19225588Y-7066617D01*
G01X19227381Y-7083419D01*
G01X19232446Y-7099539D01*
G01X19240586Y-7114347D01*
G01X19240586Y-8295834D01*
G01X19237834Y-8298586D01*
G01X19160229Y-8298586D01*
G01X19174873Y-8284369D01*
G01X19187301Y-8268178D01*
G01X19197251Y-8250358D01*
G01X19204512Y-8231282D01*
G01X19208931Y-8211356D01*
G01X19210414Y-8191000D01*
G01X19208936Y-8170683D01*
G01X19204535Y-8150795D01*
G01X19197302Y-8131752D01*
G01X19187389Y-8113956D01*
G01X19175007Y-8097782D01*
G01X19160414Y-8083570D01*
G01X19160414Y-6404000D01*
G01X19161908Y-6390741D01*
G01X19166315Y-6378147D01*
G01X19173414Y-6366849D01*
G01X19182849Y-6357414D01*
G01X19194147Y-6350315D01*
G01X19206741Y-6345908D01*
G01X19220000Y-6344414D01*
G01X19991000Y-6344414D01*
G01X20004259Y-6345908D01*
G01X20016853Y-6350315D01*
G01X20028151Y-6357414D01*
G01X20037586Y-6366849D01*
G01X20044685Y-6378147D01*
G01X20049092Y-6390741D01*
G01X20050586Y-6404000D01*
G01X20050586Y-7033000D01*
G01X20049092Y-7046259D01*
G01X20044685Y-7058853D01*
G01X20037586Y-7070151D01*
G01X20028151Y-7079586D01*
G01X20016853Y-7086685D01*
G01X20004259Y-7091092D01*
G01X19991000Y-7092586D01*
G01X19530000Y-7092586D01*
G01X19508034Y-7094315D01*
G01X19486610Y-7099458D01*
G01X19466253Y-7107890D01*
G01X19447467Y-7119403D01*
G01X19430712Y-7133712D01*
G01X19416403Y-7150467D01*
G01X19404890Y-7169253D01*
G01X19396458Y-7189610D01*
G01X19391315Y-7211034D01*
G01X19389586Y-7233000D01*
G01X19389586Y-8158578D01*
G01X19391315Y-8180544D01*
G01X19396458Y-8201969D01*
G01X19404890Y-8222325D01*
G01X19416403Y-8241112D01*
G01X19430712Y-8257866D01*
G37*
G36*
G01X18366620Y-9164586D02*
G01X18325207Y-9164586D01*
G01X18321079Y-9164686D01*
G01X18304911Y-9164686D01*
G01X18315790Y-9155790D01*
G01X18508167Y-8963414D01*
G01X18575280Y-8963414D01*
G01X18562179Y-8970914D01*
G01X18550603Y-8980603D01*
G01X18366620Y-9164586D01*
G37*
G36*
G01X18538166Y-8298586D02*
G01X18370994Y-8131414D01*
G01X18469580Y-8131414D01*
G01X18481204Y-8132559D01*
G01X18492381Y-8135949D01*
G01X18502683Y-8141455D01*
G01X18511712Y-8148866D01*
G01X18653134Y-8290288D01*
G01X18662192Y-8298586D01*
G01X18538166Y-8298586D01*
G37*
G36*
G01X18511712Y-9282134D02*
G01X18500447Y-9290967D01*
G01X18487401Y-9296858D01*
G01X18473325Y-9299468D01*
G01X18646380Y-9126414D01*
G01X18670267Y-9126414D01*
G01X18652134Y-9141712D01*
G01X18511712Y-9282134D01*
G37*
G54D10*
G01X14013765Y-12497714D02*
G03X14153963Y-12377124I1185J140414D01*
G03X14376109Y-12378294I111181J19933D01*
G03X14516141Y-12497714I138841J20994D01*
G01X15263759Y-12497714D01*
G03X15403967Y-12377090I1191J140414D01*
G03X15626114Y-12378326I111188J19898D01*
G03X15766141Y-12497714I138836J21026D01*
G01X16263765Y-12497714D01*
G03X16378067Y-12440499I1185J140414D01*
G03X16404739Y-12473559I137086J83307D01*
G01X16404739Y-12615206D01*
G03X16350536Y-12675300I6211J-60094D01*
G01X16350536Y-12875300D01*
G03X16410950Y-12935714I60414J0D01*
G01X16610950Y-12935714D01*
G03X16671364Y-12875300I0J60414D01*
G01X16671364Y-12675300D01*
G03X16658008Y-12637414I-60414J0D01*
G01X17238399Y-12637414D01*
G03X17220536Y-12680300I42551J-42886D01*
G01X17220536Y-12880300D01*
G03X17261762Y-12937586I60414J0D01*
G01X14854250Y-12937586D01*
G03X14804460Y-12958210I0J-70414D01*
G01X14619084Y-13143586D01*
G01X14458000Y-13143586D01*
G03X14397586Y-13204000I0J-60414D01*
G01X14397586Y-13343870D01*
G01X14174603Y-13566853D01*
G03X14149586Y-13627250I60397J-60397D01*
G01X14149586Y-13628031D01*
G03X14124586Y-13698000I85414J-69969D01*
G01X14124586Y-13989586D01*
G01X11930414Y-13989586D01*
G01X11930414Y-13563000D01*
G03X11919979Y-13552586I-10414J0D01*
G01X11690414Y-13553045D01*
G01X11690414Y-8850000D01*
G02X11750000Y-8790414I59586J0D01*
G01X13470842Y-8790414D01*
G03X13499582Y-8807586I65158J76414D01*
G01X11890000Y-8807586D01*
G03X11829603Y-8832603I0J-85414D01*
G01X11753603Y-8908603D01*
G03X11728586Y-8969000I60397J-60397D01*
G01X11728586Y-12402000D01*
G03X11753603Y-12462397I85414J0D01*
G01X12014603Y-12723397D01*
G03X12075000Y-12748414I60397J60397D01*
G01X13726204Y-12748414D01*
G03X13879414Y-12663000I52796J85414D01*
G03X13726204Y-12577586I-100414J0D01*
G01X12110380Y-12577586D01*
G01X11899414Y-12366621D01*
G01X11899414Y-9004380D01*
G01X11925380Y-8978414D01*
G01X12010526Y-8978414D01*
G03X11938586Y-9101000I68474J-122586D01*
G03X11988586Y-9208431I140413J-0D01*
G01X11988586Y-11851569D01*
G03X11938586Y-11959000I90414J-107431D01*
G03X12078998Y-12100714I140457J-1252D01*
G01X12080261Y-12100693D01*
G03X12186812Y-12050714I-870J140423D01*
G01X13950950Y-12050714D01*
G03X14041364Y-11960300I-0J90414D01*
G01X14041364Y-11940300D01*
G03X14035563Y-11919438I-40414J0D01*
G02X14242121Y-11919438I103279J62247D01*
G03X14236536Y-11944472I34613J-20862D01*
G01X14236536Y-11960300D01*
G03X14326950Y-12050714I90414J0D01*
G01X17201950Y-12050714D01*
G03X17289664Y-11982228I-0J90414D01*
G03X17502291Y-11971903I100493J125035D01*
G01X17554630Y-12024242D01*
G03X17618575Y-12050725I63926J63909D01*
G01X17895530Y-12050714D01*
G02X17937662Y-12068166I2J-59580D01*
G01X18269083Y-12399587D01*
G03X18368372Y-12440714I99286J99281D01*
G01X19171056Y-12440714D01*
G03X19270344Y-12399587I0J140413D01*
G01X19483288Y-12186644D01*
G03X19524414Y-12087356I-99289J99288D01*
G01X19524414Y-12087000D01*
G03X19474414Y-11979570I-140415J-1D01*
G01X19474414Y-9348430D01*
G03X19524414Y-9241000I-90415J107431D01*
G03X19465155Y-9126414I-140414J0D01*
G01X19504620Y-9126414D01*
G01X19561536Y-9183330D01*
G01X19561536Y-9722759D01*
G03X19561436Y-9726892I85314J-4133D01*
G01X19561436Y-9789107D01*
G03X19561536Y-9793241I85414J0D01*
G01X19561536Y-11037759D01*
G03X19561436Y-11041893I85314J-4133D01*
G01X19561436Y-11104108D01*
G03X19561536Y-11108241I85414J0D01*
G01X19561536Y-11743759D01*
G03X19561436Y-11747892I85314J-4133D01*
G01X19561436Y-11810107D01*
G03X19561536Y-11814241I85414J0D01*
G01X19561536Y-12148670D01*
G01X19243620Y-12466586D01*
G01X17873130Y-12466586D01*
G03X17783769Y-12216886I-88170J109286D01*
G01X16766141Y-12216886D01*
G03X16652128Y-12273702I-1191J-140414D01*
G03X16514977Y-12196778I-136975J-83490D01*
G03X16377995Y-12274004I176J-160414D01*
G03X16263765Y-12216886I-113045J-83296D01*
G01X15766141Y-12216886D01*
G03X15626132Y-12336154I-1191J-140414D01*
G03X15403950Y-12337390I-110978J-21038D01*
G03X15263759Y-12216886I-139000J-19910D01*
G01X14516141Y-12216886D01*
G03X14376128Y-12336186I-1191J-140414D01*
G03X14153945Y-12337355I-110984J-21006D01*
G03X14013765Y-12216886I-138995J-19945D01*
G01X12265135Y-12216886D01*
G03X12265135Y-12497714I-1185J-140414D01*
G01X14013765Y-12497714D01*
G01X14253105Y-11857193D02*
G03X14027197Y-11857193I-112954J0D01*
G03X14253105Y-11857193I112954J0D01*
G01X14785950Y-12674886D02*
G03X14774536Y-12686300I0J-11414D01*
G01X14774536Y-12886300D01*
G03X14785950Y-12897714I11414J0D01*
G01X14985950Y-12897714D01*
G03X14997364Y-12886300I0J11414D01*
G01X14997364Y-12686300D01*
G03X14985950Y-12674886I-11414J0D01*
G01X14785950Y-12674886D01*
G01X13697849Y-8807586D02*
G01X13572418Y-8807586D01*
G03X13623402Y-8664548I-36418J93586D01*
G03X13474534Y-8634586I-87402J-49452D01*
G01X12750067Y-8634586D01*
G01X12190470Y-8634586D01*
G01X12190470Y-8265414D01*
G01X12749977Y-8265414D01*
G01X13831061Y-8265414D01*
G02X13890642Y-8324997I2J-59579D01*
G01X13890642Y-8467523D01*
G03X13840586Y-8575000I90359J-107479D01*
G01X13840665Y-8577523D01*
G03X13981056Y-8715414I140391J2522D01*
G01X15779054Y-8715414D01*
G03X15919470Y-8574998I6J140410D01*
G01X15919391Y-8572478D01*
G03X15869470Y-8467616I-140391J-2522D01*
G01X15869470Y-7495002D01*
G02X15929014Y-7435414I59590J-2D01*
G01X16804084Y-7435414D01*
G03X16944478Y-7295017I-117J140512D01*
G03X16894470Y-7187579I-140413J0D01*
G01X16894470Y-5749999D01*
G02X16954012Y-5690414I59583J2D01*
G01X17379055Y-5690414D01*
G02X17438610Y-5752071I-2J-59593D01*
G01X17438587Y-5753428D01*
G01X17438642Y-7443911D01*
G02X17424911Y-7481964I-59586J-2D01*
G01X17087936Y-7888062D01*
G02X17042091Y-7909586I-45844J38060D01*
G01X16620479Y-7909586D01*
G03X16521189Y-7950714I-6J-140404D01*
G01X16379768Y-8092134D01*
G03X16338642Y-8191421I99287J-99288D01*
G01X16338642Y-8900999D01*
G02X16279055Y-8960586I-59589J2D01*
G01X16195479Y-8960586D01*
G03X16096189Y-9001713I-6J-140404D01*
G01X15954768Y-9143134D01*
G03X15913642Y-9242422I99288J-99288D01*
G01X15913642Y-10830000D01*
G02X15904056Y-10839586I-9586J0D01*
G01X15529062Y-10839586D01*
G02X15519470Y-10829994I1J9593D01*
G01X15519470Y-10057605D01*
G03X15569464Y-9950246I-90427J107429D01*
G03X15429102Y-9809586I-140511J148D01*
G01X12859000Y-9809586D01*
G02X12799414Y-9750000I0J59586D01*
G01X12799414Y-9100000D01*
G02X12809000Y-9090414I9586J0D01*
G01X12908198Y-9090414D01*
G03X12923833Y-9350783I101049J-124586D01*
G01X12923833Y-9533247D01*
G03X12993643Y-9617223I85414J0D01*
G01X13148210Y-9771790D01*
G03X13198000Y-9792414I49790J49790D01*
G01X15691056Y-9792414D01*
G03X15740846Y-9771790I0J70414D01*
G01X15812846Y-9699790D01*
G03X15833470Y-9650000I-49790J49790D01*
G01X15833470Y-9609715D01*
G03X15763056Y-9462586I-70414J56715D01*
G03X15692642Y-9609715I0J-90414D01*
G01X15692642Y-9620834D01*
G01X15661890Y-9651586D01*
G01X13227166Y-9651586D01*
G01X13094660Y-9519080D01*
G01X13094660Y-9350783D01*
G03X13110295Y-9090414I-85414J135783D01*
G01X13229056Y-9090414D01*
G02X13238642Y-9100000I0J-9586D01*
G01X13238642Y-9392523D01*
G03X13188586Y-9500000I90359J-107478D01*
G01X13188665Y-9502522D01*
G03X13328807Y-9640414I140391J2522D01*
G01X15429243Y-9640414D01*
G03X15569420Y-9499997I-250J140427D01*
G03X15569333Y-9497341I-40414J3D01*
G03X15519470Y-9392663I-140388J-2658D01*
G01X15519470Y-9208383D01*
G03X15569390Y-9103540I-90470J107383D01*
G03X15569470Y-9101000I-40334J2539D01*
G03X15497530Y-8978414I-140414J0D01*
G01X16077056Y-8978414D01*
G03X16137453Y-8953397I0J85414D01*
G01X16306397Y-8784453D01*
G03X16331414Y-8724056I-60397J60397D01*
G01X16331414Y-8114380D01*
G01X16585380Y-7860414D01*
G01X16981000Y-7860414D01*
G03X17041397Y-7835397I0J85414D01*
G01X17334397Y-7542397D01*
G03X17359414Y-7482000I-60397J60397D01*
G01X17359414Y-6303145D01*
G03X17355363Y-6107000I-95358J96145D01*
G03X17357018Y-5908537I-91307J100000D01*
G03X17158978Y-5921586I-92962J-98463D01*
G01X17084000Y-5921586D01*
G03X17023603Y-5946603I0J-85414D01*
G01X16974603Y-5995603D01*
G03X16949586Y-6056000I60397J-60397D01*
G01X16949586Y-6641000D01*
G03X16974603Y-6701396I85414J0D01*
G01X16987586Y-6714380D01*
G01X16987586Y-7383620D01*
G01X16879620Y-7491586D01*
G01X16597000Y-7491586D01*
G03X16536603Y-7516603I0J-85414D01*
G01X15965603Y-8087603D01*
G03X15940586Y-8148000I60397J-60397D01*
G01X15940586Y-8730586D01*
G01X13862435Y-8730586D01*
G01X13829470Y-8697620D01*
G01X13829470Y-8457056D01*
G03X13804453Y-8396659I-85414J0D01*
G01X13710397Y-8302603D01*
G03X13650000Y-8277586I-60397J-60397D01*
G01X13400650Y-8277586D01*
G03X13280586Y-8363000I-29650J-85414D01*
G03X13400650Y-8448414I90414J0D01*
G01X13614620Y-8448414D01*
G01X13658642Y-8492436D01*
G01X13658642Y-8733000D01*
G03X13683659Y-8793397I85414J0D01*
G01X13697849Y-8807586D01*
G01X15873470Y-10609000D02*
G03X15552642Y-10609000I-160414J0D01*
G03X15873470Y-10609000I160414J0D01*
G01X16358470Y-7605000D02*
G03X16037642Y-7605000I-160414J0D01*
G03X16358470Y-7605000I160414J0D01*
G01X16098256Y-13078414D02*
G01X16030784Y-13145886D01*
G01X15869950Y-13145886D01*
G03X15809536Y-13206300I0J-60414D01*
G01X15809536Y-13346671D01*
G01X15439620Y-13716586D01*
G01X15270263Y-13716586D01*
G03X15150926Y-13740926I-41263J-102414D01*
G01X15149323Y-13742528D01*
G03X15116984Y-13820603I78074J-78074D01*
G01X15116984Y-13989586D01*
G01X14706423Y-13989586D01*
G01X14706423Y-13904414D01*
G01X14822000Y-13904414D01*
G03X14882397Y-13879397I0J85414D01*
G01X15084380Y-13677414D01*
G01X15186331Y-13677414D01*
G03X15295863Y-13630931I28169J85914D01*
G01X15460080Y-13466714D01*
G01X15598617Y-13466714D01*
G03X15659031Y-13406300I0J60414D01*
G01X15659031Y-13206300D01*
G03X15598617Y-13145886I-60414J0D01*
G01X15398617Y-13145886D01*
G03X15338203Y-13206300I0J-60414D01*
G01X15338203Y-13347004D01*
G01X15178620Y-13506586D01*
G01X15049000Y-13506586D01*
G03X14988603Y-13531603I0J-85414D01*
G01X14786620Y-13733586D01*
G01X14666969Y-13733586D01*
G03X14639641Y-13717152I-69969J-85414D01*
G01X14693379Y-13663414D01*
G01X14722000Y-13663414D01*
G03X14782397Y-13638397I0J85414D01*
G01X14802931Y-13617863D01*
G03X14839825Y-13584969I-39431J81363D01*
G01X14958079Y-13466714D01*
G01X15127283Y-13466714D01*
G03X15187697Y-13406300I0J60414D01*
G01X15187697Y-13206300D01*
G03X15127283Y-13145886I-60414J0D01*
G01X14927283Y-13145886D01*
G03X14866869Y-13206300I0J-60414D01*
G01X14866869Y-13316337D01*
G01X14731125Y-13452081D01*
G03X14684467Y-13492586I32375J-84419D01*
G01X14658000Y-13492586D01*
G03X14597603Y-13517603I0J-85414D01*
G01X14402832Y-13712374D01*
G03X14345414Y-13737095I13167J-109626D01*
G01X14345414Y-13698000D01*
G03X14333978Y-13649066I-110414J0D01*
G01X14518630Y-13464414D01*
G01X14658000Y-13464414D01*
G03X14718414Y-13404000I0J60414D01*
G01X14718414Y-13243416D01*
G01X14883416Y-13078414D01*
G01X16098256Y-13078414D01*
G01X18680604Y-13780886D02*
G01X18373036Y-13780884D01*
G01X18373056Y-13752994D01*
G03X18370019Y-13745635I-10414J8D01*
G01X18196376Y-13571399D01*
G03X18188781Y-13568338I-7376J-7351D01*
G01X17654781Y-13579588D01*
G03X17644587Y-13589873I219J-10412D01*
G01X17639712Y-13989586D01*
G01X16419414Y-13989586D01*
G01X16419414Y-13909549D01*
G03X16451397Y-13889397I-28414J80549D01*
G01X16668431Y-13672363D01*
G03X16710363Y-13630431I-39431J81363D01*
G01X16874080Y-13466714D01*
G01X17012617Y-13466714D01*
G03X17073031Y-13406300I0J60414D01*
G01X17073031Y-13206300D01*
G03X17012617Y-13145886I-60414J0D01*
G01X16812617Y-13145886D01*
G03X16752203Y-13206300I0J-60414D01*
G01X16752203Y-13347004D01*
G01X16589569Y-13509637D01*
G03X16547637Y-13551569I39431J-81363D01*
G01X16357024Y-13742183D01*
G03X16241414Y-13758095I-45024J-100817D01*
G01X16241414Y-13628379D01*
G01X16278431Y-13591363D01*
G03X16318363Y-13550431I-41431J80363D01*
G01X16402079Y-13466714D01*
G01X16541283Y-13466714D01*
G03X16601697Y-13406300I0J60414D01*
G01X16601697Y-13206300D01*
G03X16541283Y-13145886I-60414J0D01*
G01X16341283Y-13145886D01*
G03X16280869Y-13206300I0J-60414D01*
G01X16280869Y-13346337D01*
G01X16197569Y-13429637D01*
G03X16154749Y-13473457I39431J-81363D01*
G01X16120079Y-13508127D01*
G03X16020586Y-13618000I10921J-109873D01*
G01X16020586Y-13989586D01*
G01X15337811Y-13989586D01*
G01X15337811Y-13887414D01*
G01X15475000Y-13887414D01*
G03X15535397Y-13862397I0J85414D01*
G01X15931080Y-13466714D01*
G01X16069950Y-13466714D01*
G03X16130364Y-13406300I0J60414D01*
G01X16130364Y-13245466D01*
G01X16247416Y-13128414D01*
G01X19292000Y-13128414D01*
G03X19341790Y-13107790I0J70414D01*
G01X20097790Y-12351790D01*
G03X20118414Y-12302000I-49790J49790D01*
G01X20118414Y-9122000D01*
G03X20097790Y-9072210I-70414J0D01*
G01X20032994Y-9007414D01*
G01X20821867Y-9007414D01*
G03X20946397Y-9011397I64133J56414D01*
G01X21115380Y-8842414D01*
G01X21129217Y-8842414D01*
G03X21149514Y-8868335I135783J85414D01*
G03X21005163Y-9041586I15486J-159665D01*
G01X20535410Y-9041586D01*
G03X20432609Y-9144561I-13410J-89414D01*
G03X20561325Y-9212414I89391J13561D01*
G01X21066000Y-9212414D01*
G03X21126397Y-9187397I0J85414D01*
G01X21129384Y-9184410D01*
G03X21158240Y-9188271I35617J156410D01*
G03X21111753Y-9260586I106760J-119729D01*
G01X20507237Y-9260586D01*
G01X20419592Y-9172941D01*
G03X20267068Y-9127068I-88592J-18059D01*
G03X20312940Y-9279592I63932J-63932D01*
G01X20404317Y-9370968D01*
G03X20486000Y-9431414I81683J24968D01*
G01X21162523Y-9431414D01*
G03X21414699Y-9365644I102477J123414D01*
G03X21271760Y-9147729I-149699J57644D01*
G03X21280486Y-8916665I-106760J119729D01*
G03X21419684Y-8714510I-15486J159665D01*
G03X21196752Y-8611828I-154684J-42490D01*
G01X21247140Y-8561440D01*
G03X21327652Y-8529141I12860J84440D01*
G01X21476397Y-8380397D01*
G03X21497649Y-8345080I-60397J60397D01*
G03X21438841Y-8048221I-81649J138080D01*
G03X21298740Y-8316466I-22841J-158779D01*
G01X21201829Y-8413378D01*
G03X21182210Y-8427210I30171J-63623D01*
G01X20790834Y-8818586D01*
G01X20031167Y-8818586D01*
G01X19961586Y-8749006D01*
G03X19981421Y-8750414I19835J139006D01*
G01X20799580Y-8750414D01*
G03X20898866Y-8709288I-4J140419D01*
G01X21199287Y-8408867D01*
G03X21240414Y-8309577I-99281J99286D01*
G01X21240414Y-8050000D01*
G02X21250000Y-8040414I9586J0D01*
G01X21573033Y-8040414D01*
G02X21582619Y-8049994I0J-9586D01*
G01X21583521Y-9435961D01*
G02X21523935Y-9495586I-59586J-39D01*
G01X20405430Y-9495586D01*
G03X20298000Y-9445586I-107431J-90415D01*
G03X20157586Y-9586000I-0J-140414D01*
G01X20157586Y-12303829D01*
G02X20140134Y-12345962I-59586J0D01*
G01X18722666Y-13763430D01*
G02X18680604Y-13780886I-42151J42162D01*
G01X16160586Y-8134207D02*
G01X16160586Y-8688676D01*
G01X16111414Y-8737849D01*
G01X16111414Y-8183380D01*
G01X16160586Y-8134207D01*
G01X16632380Y-7662414D02*
G01X16915000Y-7662414D01*
G03X16975397Y-7637397I0J85414D01*
G01X17133397Y-7479397D01*
G03X17158414Y-7419000I-60397J60397D01*
G01X17158414Y-6679000D01*
G03X17133397Y-6618604I-85414J0D01*
G01X17120414Y-6605621D01*
G01X17120414Y-6092414D01*
G01X17158978Y-6092414D01*
G03X17172749Y-6107000I105078J85414D01*
G03X17188586Y-6319433I91307J-100000D01*
G01X17188586Y-7446620D01*
G01X16945620Y-7689586D01*
G01X16605207Y-7689586D01*
G01X16632380Y-7662414D01*
G01X19913586Y-12255834D02*
G01X19231834Y-12937586D01*
G01X17500138Y-12937586D01*
G03X17541364Y-12880300I-19188J57286D01*
G01X17541364Y-12850714D01*
G01X17912286Y-12850714D01*
G03X18025715Y-12850714I56715J70414D01*
G01X19281700Y-12850714D01*
G03X19331490Y-12830090I0J70414D01*
G01X19871790Y-12289790D01*
G03X19892414Y-12240000I-49790J49790D01*
G01X19892414Y-9157000D01*
G03X19871790Y-9107210I-70414J0D01*
G01X19607790Y-8843210D01*
G03X19558000Y-8822586I-49790J-49790D01*
G01X18479000Y-8822586D01*
G03X18429210Y-8843210I0J-70414D01*
G01X18236834Y-9035586D01*
G01X18125799Y-9035586D01*
G03X18045243Y-8923877I-87799J21586D01*
G03X18007000Y-8912586I-38243J-59123D01*
G01X17989001Y-8912586D01*
G03X18008600Y-8875379I-68001J59586D01*
G03X18009248Y-8833331I-87600J22379D01*
G03X18039795Y-8792375I-54249J72331D01*
G01X18045210Y-8797790D01*
G03X18095000Y-8818414I49790J49790D01*
G01X19588834Y-8818414D01*
G01X19913586Y-9143166D01*
G01X19913586Y-12255834D01*
G01X19732264Y-9730926D02*
G03X19732364Y-9726793I-85314J4133D01*
G01X19732364Y-9166944D01*
G01X19751586Y-9186166D01*
G01X19751586Y-12210834D01*
G01X19252534Y-12709886D01*
G01X18025715Y-12709886D01*
G03X17912286Y-12709886I-56715J-70414D01*
G01X17541364Y-12709886D01*
G01X17541364Y-12680300D01*
G03X17523501Y-12637414I-60414J0D01*
G01X19279000Y-12637414D01*
G03X19339397Y-12612397I0J85414D01*
G01X19707347Y-12244447D01*
G03X19732364Y-12184050I-60397J60397D01*
G01X19732364Y-11810208D01*
G03X19732264Y-11806074I-85414J0D01*
G01X19732264Y-11751926D01*
G03X19732364Y-11747793I-85314J4133D01*
G01X19732364Y-11104207D01*
G03X19732264Y-11100074I-85414J0D01*
G01X19732264Y-11045926D01*
G03X19732364Y-11041792I-85314J4133D01*
G01X19732364Y-9789207D01*
G03X19732264Y-9785074I-85414J0D01*
G01X19732264Y-9730926D01*
G01X17540414Y-9381421D02*
G03X17532603Y-9335243I-140420J-3D01*
G03X17538000Y-9335414I5397J85243D01*
G01X17576764Y-9335414D01*
G03X17580892Y-9335514I4128J85314D01*
G01X17643107Y-9335514D01*
G03X17647236Y-9335414I0J85414D01*
G01X17772764Y-9335414D01*
G03X17776893Y-9335514I4128J85314D01*
G01X17839108Y-9335514D01*
G03X17843236Y-9335414I0J85414D01*
G01X17930310Y-9335414D01*
G03X17883586Y-9440000I93690J-104586D01*
G03X17933586Y-9547430I140415J2D01*
G01X17933586Y-10883000D01*
G02X17924000Y-10892586I-9586J0D01*
G01X17550000Y-10892586D01*
G02X17540414Y-10883000I0J9586D01*
G01X17540414Y-9381421D01*
G01X17553586Y-10725000D02*
G03X17874414Y-10725000I160414J0D01*
G03X17553586Y-10725000I-160414J0D01*
G01X18137166Y-8639586D02*
G01X18054790Y-8557210D01*
G03X18005000Y-8536586I-49790J-49790D01*
G01X17799167Y-8536586D01*
G01X17784790Y-8522210D01*
G03X17735000Y-8501586I-49790J-49790D01*
G01X17682000Y-8501586D01*
G03X17657347Y-8506043I0J-70414D01*
G03X17663708Y-8482273I-83347J35043D01*
G03X17730085Y-8450225I-2708J90373D01*
G03X17750548Y-8379414I-69085J58326D01*
G01X17959834Y-8379414D01*
G01X18195210Y-8614790D01*
G03X18245000Y-8635414I49790J49790D01*
G01X19598834Y-8635414D01*
G01X19603006Y-8639586D01*
G01X18137166Y-8639586D01*
G01X19430712Y-8257866D02*
G01X19630432Y-8457586D01*
G01X18297166Y-8457586D01*
G01X18170103Y-8330523D01*
G03X18228412Y-8245414I-32103J84523D01*
G01X18285834Y-8245414D01*
G01X18459210Y-8418790D01*
G03X18509000Y-8439414I49790J49790D01*
G01X19267000Y-8439414D01*
G03X19316790Y-8418790I0J70414D01*
G01X19360790Y-8374790D01*
G03X19381414Y-8325000I-49790J49790D01*
G01X19381414Y-7116380D01*
G01X19566890Y-6930903D01*
G03X19783194Y-6761250I57110J149903D01*
G03X19531991Y-6649596I-159193J-19750D01*
G03X19287824Y-6443317I-130991J92596D01*
G03X19493009Y-6688404I113176J-113683D01*
G03X19463980Y-6792227I130991J-92596D01*
G01X19250603Y-7005603D01*
G03X19240586Y-7114347I60397J-60397D01*
G01X19240586Y-8295834D01*
G01X19237834Y-8298586D01*
G01X19160229Y-8298586D01*
G03X19210414Y-8191000I-90229J107586D01*
G03X19160414Y-8083570I-140415J-1D01*
G01X19160414Y-6404000D01*
G02X19220000Y-6344414I59586J0D01*
G01X19991000Y-6344414D01*
G02X20050586Y-6404000I0J-59586D01*
G01X20050586Y-7033000D01*
G02X19991000Y-7092586I-59586J0D01*
G01X19530000Y-7092586D01*
G03X19389586Y-7233000I0J-140414D01*
G01X19389586Y-8158578D01*
G03X19430712Y-8257866I140413J-1D01*
G01X18366620Y-9164586D02*
G01X18325207Y-9164586D01*
G03X18321079Y-9164686I0J-85414D01*
G01X18304911Y-9164686D01*
G03X18315790Y-9155790I-38911J58686D01*
G01X18508167Y-8963414D01*
G01X18575280Y-8963414D01*
G03X18550603Y-8980603I35720J-77586D01*
G01X18366620Y-9164586D01*
G01X18538166Y-8298586D02*
G01X18370994Y-8131414D01*
G01X18469580Y-8131414D01*
G02X18511712Y-8148866I2J-59580D01*
G01X18653134Y-8290288D01*
G03X18662192Y-8298586I99288J99291D01*
G01X18538166Y-8298586D01*
G01X18511712Y-9282134D02*
G02X18473325Y-9299468I-42133J42133D01*
G01X18646380Y-9126414D01*
G01X18670267Y-9126414D01*
G03X18652134Y-9141712I81156J-114592D01*
G01X18511712Y-9282134D01*
G54D11*
G01X14885950Y-12686554D02*
G01X14885950Y-12685046D01*
G01X14885950Y-12886046D02*
G01X14885950Y-12887554D01*
G01X14985696Y-12786300D02*
G01X14987204Y-12786300D01*
G01X14786204Y-12786300D02*
G01X14784696Y-12786300D01*
G01X14140151Y-11956939D02*
G01X14140151Y-11959987D01*
G01X14265144Y-12456938D02*
G01X14265144Y-12459986D01*
G01X14265144Y-12257446D02*
G01X14265144Y-12254398D01*
G01X15515155Y-12456938D02*
G01X15515155Y-12459986D01*
G01X15515155Y-12257446D02*
G01X15515155Y-12254398D01*
G04 Copper End*

G04 Pad Start*
G54D12*
G01X17714000Y-10725000D03*
G01X13009247Y-9215000D03*
G01X21265000Y-8757000D03*
G01X21165000Y-9028000D03*
G54D13*
G01X15969950Y-13306300D03*
G54D14*
G01X14235216Y-14220300D03*
G54D12*
G01X19624000Y-6781000D03*
G54D13*
G01X16912617Y-13306300D03*
G01X16441283Y-13306300D03*
G54D12*
G01X15713056Y-10609000D03*
G01X16198056Y-7605000D03*
G54D14*
G01X14596009Y-14220300D03*
G01X16309777Y-14220300D03*
G01X16129380Y-14220300D03*
G01X15227398Y-14220300D03*
G54D12*
G01X14265144Y-12357192D03*
G01X19401000Y-6557000D03*
G54D15*
G01X17021000Y-9191000D03*
G01X17021000Y-9141000D03*
G01X17021000Y-9091000D03*
G01X17021000Y-9041000D03*
G01X17021000Y-8991000D03*
G01X17021000Y-8941000D03*
G01X17021000Y-8891000D03*
G01X17021000Y-8841000D03*
G01X17021000Y-8791000D03*
G01X17021000Y-8741000D03*
G01X17021000Y-8691000D03*
G01X17021000Y-8641000D03*
G01X17021000Y-8591000D03*
G01X17021000Y-8541000D03*
G01X17021000Y-8491000D03*
G01X17021000Y-8441000D03*
G01X17021000Y-8391000D03*
G01X17021000Y-8341000D03*
G01X17021000Y-8291000D03*
G01X17021000Y-8241000D03*
G54D13*
G01X17380950Y-12780300D03*
G54D12*
G01X17390157Y-11857193D03*
G01X21416000Y-8207000D03*
G01X21265000Y-9308000D03*
G01X15515155Y-12357192D03*
G54D13*
G01X14558000Y-13304000D03*
G01X14885950Y-12786300D03*
G54D17*
G01X17264056Y-6007000D03*
G01X17264056Y-6207000D03*
G54D13*
G01X15498617Y-13306300D03*
G01X15027283Y-13306300D03*
G54D12*
G01X16515153Y-12357192D03*
G54D13*
G01X16510950Y-12775300D03*
G54D14*
G01X14415613Y-14220300D03*
G54D12*
G01X14140151Y-11857193D03*
G04 Pad End*

G04 Via Start*
G54D18*
G01X13779000Y-12663000D03*
G54D19*
G01X17711000Y-8641000D03*
G01X17969000Y-12780300D03*
G01X17923000Y-9043000D03*
G01X14763500Y-13536500D03*
G01X15214500Y-13591500D03*
G01X18038000Y-9014000D03*
G01X16237000Y-13511000D03*
G01X17921000Y-8853000D03*
G01X16622000Y-13182000D03*
G01X19703199Y-12755199D03*
G01X16287056Y-8894000D03*
G01X11816000Y-12737000D03*
G01X16009000Y-12181000D03*
G01X16970000Y-6966000D03*
G01X14554000Y-12537000D03*
G01X19547000Y-10312000D03*
G01X21506000Y-8638000D03*
G01X18059000Y-8914000D03*
G01X11710000Y-10596000D03*
G01X17588000Y-10117000D03*
G01X14719000Y-13711000D03*
G01X13149000Y-8387000D03*
G01X15178000Y-12083000D03*
G01X11964000Y-12170000D03*
G01X18713000Y-8636000D03*
G01X17041000Y-5773000D03*
G01X20285000Y-8997000D03*
G01X18670000Y-13706000D03*
G01X20136000Y-11825000D03*
G01X19899000Y-10008000D03*
G01X20815000Y-9463000D03*
G01X17582000Y-9539000D03*
G01X19396315Y-12301315D03*
G01X11917000Y-10111000D03*
G01X17859000Y-10861000D03*
G01X20136000Y-11024000D03*
G01X20012000Y-6411000D03*
G01X11917000Y-11216000D03*
G01X15716000Y-13319000D03*
G01X17625000Y-8759000D03*
G01X16160000Y-8210000D03*
G01X14897000Y-12186000D03*
G01X18294000Y-9175000D03*
G01X16171000Y-13269000D03*
G01X15548000Y-9321000D03*
G01X18280000Y-8235000D03*
G01X17835000Y-9541000D03*
G01X20602000Y-8789000D03*
G01X19728897Y-10722430D03*
G01X17547927Y-8919074D03*
G01X20058000Y-8829000D03*
G01X15667000Y-12081000D03*
G01X15872000Y-10791000D03*
G01X14965000Y-13948000D03*
G01X13458056Y-8613000D03*
G01X13151000Y-13744000D03*
G01X13182000Y-9413000D03*
G01X12979000Y-8812000D03*
G01X19888091Y-10590236D03*
G01X15956000Y-9033000D03*
G01X20261000Y-9365000D03*
G01X18387000Y-12704000D03*
G01X17764000Y-13185000D03*
G01X14841000Y-13218000D03*
G54D20*
G01X15102000Y-12780000D03*
G54D19*
G01X14506000Y-12087000D03*
G01X15866000Y-9807000D03*
G01X11710000Y-11683000D03*
G01X11917000Y-9362000D03*
G01X21498000Y-9419000D03*
G01X19554150Y-9327000D03*
G01X19802000Y-6600000D03*
G01X17211000Y-13545000D03*
G01X16780000Y-12885000D03*
G01X19401000Y-6798000D03*
G01X19890782Y-12019400D03*
G01X14124000Y-12954000D03*
G01X20924013Y-9027615D03*
G01X17806000Y-8534000D03*
G01X20132000Y-10321000D03*
G01X12982000Y-12195000D03*
G01X17557000Y-13942000D03*
G01X17561000Y-10860000D03*
G01X12842292Y-9764917D03*
G01X18696000Y-12460300D03*
G01X12326000Y-12888000D03*
G01X18956000Y-12884000D03*
G01X19915000Y-9335000D03*
G01X11982000Y-13094000D03*
G01X13385000Y-12079000D03*
G54D20*
G01X14678000Y-12776000D03*
G54D19*
G01X15864000Y-9322000D03*
G01X17980000Y-8410000D03*
G01X19478000Y-8636000D03*
G01X11746000Y-8836000D03*
G01X15594000Y-13934000D03*
G01X15976056Y-7499000D03*
G01X19724043Y-11954221D03*
G01X17782000Y-12636000D03*
G01X15886000Y-13707000D03*
G01X18951000Y-12671000D03*
G01X19750000Y-7058000D03*
G01X16777000Y-12083000D03*
G01X16352000Y-13707000D03*
G01X21405000Y-8946000D03*
G01X18183573Y-8324427D03*
G01X16955000Y-7887000D03*
G01X15578000Y-9006000D03*
G01X17591000Y-12915000D03*
G01X13851000Y-8306000D03*
G01X14862000Y-9787000D03*
G01X17808000Y-9175000D03*
G01X18908000Y-8832000D03*
G01X18429000Y-12894000D03*
G01X19544000Y-11608000D03*
G01X16425000Y-7523000D03*
G01X17612000Y-9175000D03*
G01X15947000Y-8397000D03*
G01X17121000Y-12679000D03*
G01X15629000Y-12882000D03*
G01X17128000Y-12181000D03*
G01X20131000Y-9680000D03*
G01X18940000Y-13469000D03*
G01X13830000Y-13938000D03*
G01X14387000Y-13706000D03*
G01X17974000Y-13526000D03*
G01X15095000Y-13720000D03*
G01X16646000Y-13940000D03*
G01X17400000Y-6774000D03*
G01X14887000Y-12518000D03*
G01X17844000Y-10114000D03*
G01X19915000Y-11247000D03*
G01X18214000Y-9046000D03*
G01X15334000Y-13127000D03*
G01X18510000Y-8217000D03*
G01X15361000Y-13715000D03*
G01X18523000Y-8467000D03*
G01X17169000Y-6596000D03*
G01X19445000Y-8384000D03*
G01X20011000Y-6827000D03*
G01X16698000Y-13360000D03*
G01X17396000Y-7238000D03*
G01X17067000Y-7569000D03*
G01X13797000Y-12144000D03*
G01X19261000Y-6402000D03*
G01X16034000Y-12747000D03*
G01X12556000Y-13361000D03*
G01X12833000Y-9330000D03*
G01X12493000Y-12080000D03*
G01X13872000Y-9660006D03*
G01X15951056Y-7828000D03*
G01X17808000Y-8769000D03*
G01X19729794Y-9724394D03*
G01X18927000Y-13183000D03*
G01X13647602Y-8808398D03*
G01X19403000Y-8832000D03*
G01X16754000Y-7675000D03*
G01X20991000Y-9243000D03*
G01X12061000Y-13898000D03*
G01X15595000Y-10003000D03*
G01X16294000Y-12082000D03*
G01X15251000Y-12539000D03*
G01X15562000Y-10795000D03*
G01X13971000Y-13378000D03*
G01X16162000Y-8603000D03*
G01X11710000Y-9688000D03*
G01X16629000Y-13591000D03*
G01X17955000Y-8761000D03*
G01X17661000Y-8391900D03*
G01X20522000Y-9131000D03*
G01X17574000Y-8471000D03*
G01X20331000Y-9191000D03*
G01X18138000Y-8246000D03*
G01X13371000Y-8363000D03*
G01X15763056Y-9553000D03*
G04 Via End*

G04 Track Start*
G54D21*
G01X11890000Y-8893000D02*
G01X16077056Y-8893000D01*
G01X16981000Y-7775000D02*
G01X17274000Y-7482000D01*
G01X12075000Y-12663000D02*
G01X11814000Y-12402000D01*
G01X19646950Y-11104207D02*
G01X19646950Y-11747793D01*
G01X17643208Y-9250000D02*
G01X17776792Y-9250000D01*
G01X16583153Y-12552000D02*
G01X16510950Y-12624203D01*
G01X19646850Y-11747892D02*
G01X19646850Y-11810107D01*
G01X19646950Y-9789207D02*
G01X19646950Y-11041792D01*
G01X17304700Y-9153100D02*
G01X17305800Y-9152000D01*
G01X16077056Y-8893000D02*
G01X16246000Y-8724056D01*
G01X19646950Y-12184050D02*
G01X19279000Y-12552000D01*
G01X18325207Y-9250000D02*
G01X18402000Y-9250000D01*
G54D22*
G01X17297400Y-9160400D02*
G01X17266800Y-9191000D01*
G54D21*
G01X17839207Y-9250000D02*
G01X18262793Y-9250000D01*
G01X16246000Y-8079000D02*
G01X16550000Y-7775000D01*
G01X19646850Y-9726892D02*
G01X19646850Y-9789107D01*
G01X19646850Y-11041893D02*
G01X19646850Y-11104108D01*
G01X13779000Y-12663000D02*
G01X12075000Y-12663000D01*
G01X19646950Y-11810208D02*
G01X19646950Y-12184050D01*
G01X19279000Y-12552000D02*
G01X16583153Y-12552000D01*
G01X17776893Y-9250100D02*
G01X17839108Y-9250100D01*
G01X16550000Y-7775000D02*
G01X16981000Y-7775000D01*
G01X11814000Y-12402000D02*
G01X11814000Y-8969000D01*
G01X19540000Y-9041000D02*
G01X19646950Y-9147950D01*
G01X17440000Y-9152000D02*
G01X17538000Y-9250000D01*
G01X16246000Y-8724056D02*
G01X16246000Y-8079000D01*
G54D23*
G01X16515153Y-12771097D02*
G01X16510950Y-12775300D01*
G54D22*
G01X17266800Y-9191000D02*
G01X17021000Y-9191000D01*
G54D21*
G01X16583153Y-12552000D02*
G01X16567000Y-12552000D01*
G01X18402000Y-9250000D02*
G01X18611000Y-9041000D01*
G01X17274000Y-6216944D02*
G01X17264056Y-6207000D01*
G01X16515153Y-12500153D02*
G01X16515153Y-12357192D01*
G01X16510950Y-12624203D02*
G01X16510950Y-12775300D01*
G01X17580892Y-9250100D02*
G01X17643107Y-9250100D01*
G01X16567000Y-12552000D02*
G01X16515153Y-12500153D01*
G01X19646950Y-9147950D02*
G01X19646950Y-9726793D01*
G01X11814000Y-8969000D02*
G01X11890000Y-8893000D01*
G01X18611000Y-9041000D02*
G01X19540000Y-9041000D01*
G01X17538000Y-9250000D02*
G01X17580793Y-9250000D01*
G54D22*
G01X17331900Y-9141000D02*
G01X17021000Y-9141000D01*
G54D21*
G01X17305800Y-9152000D02*
G01X17440000Y-9152000D01*
G01X18262893Y-9250100D02*
G01X18325108Y-9250100D01*
G01X17274000Y-7482000D02*
G01X17274000Y-6216944D01*
G54D20*
G01X16515153Y-12357192D02*
G01X16515153Y-12771097D01*
G54D23*
G01X17711000Y-8641000D02*
G01X17021000Y-8641000D01*
G01X19281700Y-12780300D02*
G01X19822000Y-12240000D01*
G01X19822000Y-9157000D02*
G01X19558000Y-8893000D01*
G01X17969000Y-12780300D02*
G01X19281700Y-12780300D01*
G01X17479000Y-9041000D02*
G01X17021000Y-9041000D01*
G01X18479000Y-8893000D02*
G01X18266000Y-9106000D01*
G01X19822000Y-12240000D02*
G01X19822000Y-9157000D01*
G01X17544000Y-9106000D02*
G01X17479000Y-9041000D01*
G01X18266000Y-9106000D02*
G01X17544000Y-9106000D01*
G01X17969000Y-12780300D02*
G01X17380950Y-12780300D01*
G01X19558000Y-8893000D02*
G01X18479000Y-8893000D01*
G01X17778500Y-8705000D02*
G01X17666000Y-8705000D01*
G54D21*
G01X14235216Y-14220300D02*
G01X14235000Y-14220084D01*
G54D23*
G01X14555950Y-13306300D02*
G01X14854250Y-13008000D01*
G01X17994200Y-8647200D02*
G01X17836300Y-8647200D01*
G01X17021000Y-8691000D02*
G01X17023400Y-8688600D01*
G01X17652000Y-8691000D02*
G01X17021000Y-8691000D01*
G01X19618000Y-8748000D02*
G01X18095000Y-8748000D01*
G01X17666000Y-8705000D02*
G01X17652000Y-8691000D01*
G54D20*
G01X14235000Y-14220084D02*
G01X14235000Y-13698000D01*
G54D23*
G01X14555950Y-13249050D02*
G01X14555950Y-13306300D01*
G01X17836300Y-8647200D02*
G01X17778500Y-8705000D01*
G54D21*
G01X14235000Y-13627250D02*
G01X14555950Y-13306300D01*
G54D23*
G01X19984000Y-9114000D02*
G01X19618000Y-8748000D01*
G01X18095000Y-8748000D02*
G01X17994200Y-8647200D01*
G54D21*
G01X14235000Y-13698000D02*
G01X14235000Y-13627250D01*
G54D23*
G01X19984000Y-12285000D02*
G01X19984000Y-9114000D01*
G01X14854250Y-13008000D02*
G01X19261000Y-13008000D01*
G01X19984000Y-12285000D01*
G01X15969950Y-13306300D02*
G01X16010700Y-13306300D01*
G01X20048000Y-12302000D02*
G01X20048000Y-9122000D01*
G01X19636000Y-8710000D01*
G01X15969950Y-13306300D02*
G01X16218250Y-13058000D01*
G01X18005000Y-8607000D02*
G01X17770000Y-8607000D01*
G54D21*
G01X15475000Y-13802000D02*
G01X15969950Y-13307050D01*
G54D23*
G01X17735000Y-8572000D02*
G01X17682000Y-8572000D01*
G54D21*
G01X15236000Y-13802000D02*
G01X15475000Y-13802000D01*
G54D23*
G01X18108000Y-8710000D02*
G01X18005000Y-8607000D01*
G01X16218250Y-13058000D02*
G01X19292000Y-13058000D01*
G54D20*
G01X15227398Y-13820603D02*
G01X15229000Y-13819000D01*
G54D23*
G01X17663000Y-8591000D02*
G01X17021000Y-8591000D01*
G01X19292000Y-13058000D02*
G01X20048000Y-12302000D01*
G01X17770000Y-8607000D02*
G01X17735000Y-8572000D01*
G01X19636000Y-8710000D02*
G01X18108000Y-8710000D01*
G01X15969950Y-13307050D02*
G01X15969950Y-13306300D01*
G01X17682000Y-8572000D02*
G01X17663000Y-8591000D01*
G54D20*
G01X15227398Y-14220300D02*
G01X15227398Y-13820603D01*
G54D23*
G01X17533000Y-9043000D02*
G01X17481000Y-8991000D01*
G01X15027283Y-13302717D02*
G01X15027283Y-13306300D01*
G54D21*
G01X14763500Y-13536500D02*
G01X14767500Y-13536500D01*
G01X14763500Y-13536500D02*
G01X14722000Y-13578000D01*
G54D20*
G01X14416000Y-13822000D02*
G01X14415613Y-13822387D01*
G54D21*
G01X14767500Y-13536500D02*
G01X14936483Y-13367517D01*
G54D20*
G01X14415613Y-13822387D02*
G01X14415613Y-14220300D01*
G54D23*
G01X17923000Y-9043000D02*
G01X17533000Y-9043000D01*
G54D21*
G01X14722000Y-13578000D02*
G01X14658000Y-13578000D01*
G01X14416000Y-13820000D02*
G01X14416000Y-13822000D01*
G01X14658000Y-13578000D02*
G01X14416000Y-13820000D01*
G01X14936483Y-13367517D02*
G01X14994483Y-13367517D01*
G54D23*
G01X14994483Y-13367517D02*
G01X14994483Y-13306300D01*
G01X17481000Y-8991000D02*
G01X17021000Y-8991000D01*
G54D21*
G01X15498617Y-13307383D02*
G01X15214500Y-13591500D01*
G01X14822000Y-13819000D02*
G01X15049000Y-13592000D01*
G54D23*
G01X17527000Y-8983000D02*
G01X17485000Y-8941000D01*
G01X18038000Y-9014000D02*
G01X18007000Y-8983000D01*
G01X17527000Y-8983000D01*
G54D21*
G01X15049000Y-13592000D02*
G01X15214000Y-13592000D01*
G01X14597000Y-13819000D02*
G01X14822000Y-13819000D01*
G54D20*
G01X14596009Y-13819991D02*
G01X14596009Y-14220300D01*
G54D21*
G01X15214000Y-13592000D02*
G01X15214500Y-13591500D01*
G54D23*
G01X15498617Y-13276383D02*
G01X15498617Y-13307383D01*
G54D20*
G01X14597000Y-13819000D02*
G01X14596009Y-13819991D01*
G54D23*
G01X17485000Y-8941000D02*
G01X17021000Y-8941000D01*
G54D20*
G01X16131000Y-13618000D02*
G01X16131000Y-14218680D01*
G54D21*
G01X16131000Y-14218680D02*
G01X16129380Y-14220300D01*
G01X16237000Y-13511000D02*
G01X16441283Y-13306717D01*
G01X16237000Y-13511000D02*
G01X16237000Y-13512000D01*
G54D23*
G01X17897000Y-8877000D02*
G01X17595000Y-8877000D01*
G01X17559000Y-8841000D02*
G01X17021000Y-8841000D01*
G01X17921000Y-8853000D02*
G01X17897000Y-8877000D01*
G01X17595000Y-8877000D02*
G01X17559000Y-8841000D01*
G01X16441283Y-13306717D02*
G01X16441283Y-13306300D01*
G54D21*
G01X16237000Y-13512000D02*
G01X16131000Y-13618000D01*
G54D24*
G01X17333000Y-8541000D02*
G01X17652472Y-8541000D01*
G54D23*
G01X19210100Y-7515000D02*
G01X19210100Y-6988900D01*
G54D21*
G01X15092347Y-12780000D02*
G01X15086047Y-12786300D01*
G01X14651000Y-12743048D02*
G01X14651000Y-12749000D01*
G01X17582000Y-9539000D02*
G01X17582000Y-9321000D01*
G54D23*
G01X18580290Y-8217000D02*
G01X18694390Y-8331100D01*
G54D25*
G01X19646800Y-8640800D02*
G01X19480800Y-8640800D01*
G54D23*
G01X19445000Y-8384000D02*
G01X19421200Y-8407800D01*
G01X19500610Y-9100900D02*
G01X19525000Y-9125290D01*
G54D25*
G01X18713000Y-8636000D02*
G01X18109000Y-8636000D01*
G01X19478000Y-8638000D02*
G01X19478000Y-8636000D01*
G54D23*
G01X19581090Y-8407800D02*
G01X19468800Y-8407800D01*
G01X20058000Y-8829000D02*
G01X20006000Y-8777000D01*
G54D25*
G01X19472000Y-8637000D02*
G01X18714000Y-8637000D01*
G54D22*
G01X17021000Y-8741000D02*
G01X17329000Y-8741000D01*
G54D23*
G01X13489000Y-8812000D02*
G01X13500000Y-8823000D01*
G54D25*
G01X20152000Y-9298000D02*
G01X20152000Y-9146000D01*
G54D23*
G01X19210100Y-6988900D02*
G01X19401000Y-6798000D01*
G54D25*
G01X19250000Y-12884000D02*
G01X19894000Y-12240000D01*
G01X15578000Y-9001000D02*
G01X15531000Y-8954000D01*
G54D21*
G01X15515155Y-12357192D02*
G01X15333347Y-12539000D01*
G54D22*
G01X17328000Y-9091000D02*
G01X17021000Y-9091000D01*
G54D23*
G01X17417492Y-9200900D02*
G01X17516492Y-9299900D01*
G54D21*
G01X14678000Y-12776000D02*
G01X14688300Y-12786300D01*
G54D24*
G01X17465000Y-9091000D02*
G01X17549000Y-9175000D01*
G01X17625000Y-8759000D02*
G01X17607000Y-8741000D01*
G54D23*
G01X12979000Y-8812000D02*
G01X13489000Y-8812000D01*
G54D24*
G01X17652472Y-8541000D02*
G01X17672472Y-8521000D01*
G01X17656726Y-8769000D02*
G01X17808000Y-8769000D01*
G54D25*
G01X15531000Y-8954000D02*
G01X12007000Y-8954000D01*
G54D23*
G01X18510000Y-8217000D02*
G01X18580290Y-8217000D01*
G54D25*
G01X18956000Y-12676000D02*
G01X18951000Y-12671000D01*
G54D23*
G01X19210100Y-8307610D02*
G01X19210100Y-7539900D01*
G54D25*
G01X17856000Y-8564000D02*
G01X17828000Y-8536000D01*
G54D21*
G01X15086047Y-12786300D02*
G01X14885950Y-12786300D01*
G54D25*
G01X19478000Y-8636000D02*
G01X19478000Y-8631000D01*
G01X17808000Y-8769000D02*
G01X17886000Y-8691000D01*
G54D23*
G01X19421200Y-8407800D02*
G01X19365200Y-8407800D01*
G54D24*
G01X18050000Y-8923000D02*
G01X18059000Y-8914000D01*
G54D21*
G01X15251000Y-12621347D02*
G01X15102000Y-12770347D01*
G01X15102000Y-12780000D01*
G54D23*
G01X17021000Y-8741000D02*
G01X17023400Y-8743400D01*
G01X13633000Y-8823000D02*
G01X13647602Y-8808398D01*
G54D25*
G01X19894000Y-9150000D02*
G01X19577000Y-8833000D01*
G54D21*
G01X14554000Y-12537000D02*
G01X14444952Y-12537000D01*
G54D25*
G01X18109000Y-8636000D02*
G01X18037000Y-8564000D01*
G54D23*
G01X17530826Y-8132102D02*
G01X17510360Y-8140640D01*
G01X19310000Y-8463000D02*
G01X18508000Y-8463000D01*
G01X17516492Y-9299900D02*
G01X17560900Y-9299900D01*
G54D21*
G01X17835000Y-9320000D02*
G01X17835000Y-9541000D01*
G54D23*
G01X19950290Y-8777000D02*
G01X19581090Y-8407800D01*
G54D21*
G01X15102000Y-12780000D02*
G01X15092347Y-12780000D01*
G54D24*
G01X17625000Y-8759000D02*
G01X17625000Y-8755356D01*
G54D22*
G01X17498000Y-8542000D02*
G01X17497000Y-8541000D01*
G54D23*
G01X18424100Y-8131100D02*
G01X17554177Y-8131100D01*
G54D25*
G01X20152000Y-9146000D02*
G01X19646800Y-8640800D01*
G54D23*
G01X17554177Y-8131100D02*
G01X17530826Y-8132102D01*
G54D24*
G01X17549000Y-9175000D02*
G01X17612000Y-9175000D01*
G01X17646726Y-8759000D02*
G01X17656726Y-8769000D01*
G54D23*
G01X18510000Y-8217000D02*
G01X18424100Y-8131100D01*
G54D24*
G01X17547927Y-8919074D02*
G01X17551853Y-8923000D01*
G01X17497000Y-8541000D02*
G01X17333000Y-8541000D01*
G54D21*
G01X14265950Y-12173300D02*
G01X14265950Y-12356386D01*
G54D24*
G01X17793000Y-8521000D02*
G01X17806000Y-8534000D01*
G54D23*
G01X13500000Y-8823000D02*
G01X13633000Y-8823000D01*
G01X19210100Y-7539900D02*
G01X19210100Y-7515000D01*
G01X17835000Y-9320000D02*
G01X17855100Y-9299900D01*
G54D24*
G01X17607000Y-8741000D02*
G01X17329000Y-8741000D01*
G54D21*
G01X14688300Y-12786300D02*
G01X14885950Y-12786300D01*
G54D25*
G01X19274000Y-12676000D02*
G01X18956000Y-12676000D01*
G54D21*
G01X14265950Y-12356386D02*
G01X14265144Y-12357192D01*
G54D23*
G01X18480417Y-9298910D02*
G01X18503571Y-9289319D01*
G54D24*
G01X18294000Y-9175000D02*
G01X17808000Y-9175000D01*
G54D23*
G01X18503571Y-9289319D02*
G01X18520976Y-9273313D01*
G54D25*
G01X19721000Y-12229000D02*
G01X19274000Y-12676000D01*
G54D21*
G01X17817000Y-9321000D02*
G01X17818000Y-9320000D01*
G54D24*
G01X17551853Y-8923000D02*
G01X18050000Y-8923000D01*
G54D21*
G01X14554000Y-12646048D02*
G01X14651000Y-12743048D01*
G54D23*
G01X17855100Y-9299900D02*
G01X18456758Y-9299900D01*
G54D25*
G01X18359000Y-9175000D02*
G01X18294000Y-9175000D01*
G01X11917000Y-9044000D02*
G01X11917000Y-9362000D01*
G54D24*
G01X17520853Y-8892000D02*
G01X17326000Y-8892000D01*
G54D25*
G01X20219000Y-9365000D02*
G01X20152000Y-9298000D01*
G01X19480800Y-8640800D02*
G01X19478000Y-8638000D01*
G01X19577000Y-8833000D02*
G01X18124000Y-8833000D01*
G54D24*
G01X17328000Y-9091000D02*
G01X17465000Y-9091000D01*
G54D21*
G01X14140151Y-12047501D02*
G01X14265950Y-12173300D01*
G54D23*
G01X17560900Y-9299900D02*
G01X17582000Y-9321000D01*
G54D24*
G01X17547927Y-8919074D02*
G01X17520853Y-8892000D01*
G54D21*
G01X14140151Y-11857193D02*
G01X14140151Y-12047501D01*
G54D25*
G01X19572000Y-8980000D02*
G01X18554000Y-8980000D01*
G01X19478000Y-8631000D02*
G01X19472000Y-8637000D01*
G54D22*
G01X17326000Y-8892000D02*
G01X17325000Y-8891000D01*
G54D24*
G01X17612000Y-9175000D02*
G01X17808000Y-9175000D01*
G54D23*
G01X18694390Y-8331100D02*
G01X19186610Y-8331100D01*
G54D21*
G01X17582000Y-9321000D02*
G01X17817000Y-9321000D01*
G54D23*
G01X19365200Y-8407800D02*
G01X19310000Y-8463000D01*
G54D21*
G01X14651000Y-12749000D02*
G01X14678000Y-12776000D01*
G54D25*
G01X18554000Y-8980000D02*
G01X18359000Y-9175000D01*
G01X15578000Y-9006000D02*
G01X15578000Y-9001000D01*
G54D23*
G01X18273000Y-8235000D02*
G01X18280000Y-8235000D01*
G54D24*
G01X17672472Y-8521000D02*
G01X17793000Y-8521000D01*
G54D21*
G01X15333347Y-12539000D02*
G01X15251000Y-12539000D01*
G54D23*
G01X17980000Y-8410000D02*
G01X17930000Y-8410000D01*
G01X20006000Y-8777000D02*
G01X19950290Y-8777000D01*
G54D21*
G01X14444952Y-12537000D02*
G01X14265144Y-12357192D01*
G54D25*
G01X18714000Y-8637000D02*
G01X18713000Y-8636000D01*
G01X17886000Y-8691000D02*
G01X17980000Y-8691000D01*
G54D23*
G01X18456758Y-9299900D02*
G01X18480417Y-9298910D01*
G54D22*
G01X17497000Y-8541000D02*
G01X17021000Y-8541000D01*
G54D24*
G01X17625000Y-8759000D02*
G01X17646726Y-8759000D01*
G54D25*
G01X18124000Y-8833000D02*
G01X18123000Y-8834000D01*
G01X12007000Y-8954000D02*
G01X11917000Y-9044000D01*
G54D23*
G01X18693390Y-9100900D02*
G01X19500610Y-9100900D01*
G54D25*
G01X18123000Y-8850000D02*
G01X18123000Y-8834000D01*
G54D23*
G01X19186610Y-8331100D02*
G01X19210100Y-8307610D01*
G01X13627601Y-8808398D02*
G01X13647602Y-8808398D01*
G54D25*
G01X17980000Y-8691000D02*
G01X18123000Y-8834000D01*
G01X18956000Y-12884000D02*
G01X19250000Y-12884000D01*
G54D23*
G01X18508000Y-8463000D02*
G01X18280000Y-8235000D01*
G54D22*
G01X17325000Y-8891000D02*
G01X17021000Y-8891000D01*
G54D23*
G01X19525000Y-9297850D02*
G01X19554150Y-9327000D01*
G54D25*
G01X20261000Y-9365000D02*
G01X20219000Y-9365000D01*
G54D23*
G01X19525000Y-9125290D02*
G01X19525000Y-9297850D01*
G54D25*
G01X18037000Y-8564000D02*
G01X17856000Y-8564000D01*
G01X19733000Y-9141000D02*
G01X19572000Y-8980000D01*
G54D21*
G01X17818000Y-9320000D02*
G01X17835000Y-9320000D01*
G54D25*
G01X18059000Y-8914000D02*
G01X18123000Y-8850000D01*
G54D23*
G01X18183573Y-8324427D02*
G01X18273000Y-8235000D01*
G54D21*
G01X14554000Y-12537000D02*
G01X14554000Y-12646048D01*
G54D23*
G01X19389900Y-8394900D02*
G01X19389900Y-8012000D01*
G01X18520976Y-9273313D02*
G01X18693390Y-9100900D01*
G01X19468800Y-8407800D02*
G01X19445000Y-8384000D01*
G01X17930000Y-8410000D02*
G01X17806000Y-8534000D01*
G54D21*
G01X15251000Y-12539000D02*
G01X15251000Y-12621347D01*
G54D23*
G01X17831000Y-8834000D02*
G01X17604000Y-8834000D01*
G54D21*
G01X16326000Y-13829000D02*
G01X16391000Y-13829000D01*
G01X16309000Y-14219523D02*
G01X16309777Y-14220300D01*
G54D23*
G01X17604000Y-8834000D02*
G01X17561000Y-8791000D01*
G01X17955000Y-8761000D02*
G01X17904000Y-8761000D01*
G54D21*
G01X16391000Y-13829000D02*
G01X16912617Y-13307383D01*
G54D23*
G01X17561000Y-8791000D02*
G01X17021000Y-8791000D01*
G54D21*
G01X16312000Y-13843000D02*
G01X16326000Y-13829000D01*
G54D20*
G01X16312000Y-13843000D02*
G01X16309000Y-13846000D01*
G54D23*
G01X16912617Y-13306300D02*
G01X16912617Y-13307383D01*
G01X17904000Y-8761000D02*
G01X17831000Y-8834000D01*
G54D20*
G01X16309000Y-13846000D02*
G01X16309000Y-14219523D01*
G54D21*
G01X20522000Y-9131000D02*
G01X20526000Y-9127000D01*
G54D23*
G01X17548000Y-8393000D02*
G01X17500000Y-8441000D01*
G54D21*
G01X21066000Y-9127000D02*
G01X21165000Y-9028000D01*
G54D23*
G01X17500000Y-8441000D02*
G01X17021000Y-8441000D01*
G01X17661000Y-8391900D02*
G01X17659900Y-8393000D01*
G54D21*
G01X20526000Y-9127000D02*
G01X21066000Y-9127000D01*
G54D23*
G01X17659900Y-8393000D02*
G01X17548000Y-8393000D01*
G01X17495000Y-8391000D02*
G01X17577000Y-8309000D01*
G01X20000000Y-8937000D02*
G01X20872000Y-8937000D01*
G01X18245000Y-8565000D02*
G01X19628000Y-8565000D01*
G01X17021000Y-8391000D02*
G01X17495000Y-8391000D01*
G54D21*
G01X21080000Y-8757000D02*
G01X21265000Y-8757000D01*
G54D23*
G01X20872000Y-8937000D02*
G01X20886000Y-8951000D01*
G01X19628000Y-8565000D02*
G01X20000000Y-8937000D01*
G01X17989000Y-8309000D02*
G01X18245000Y-8565000D01*
G01X17577000Y-8309000D02*
G01X17989000Y-8309000D01*
G54D21*
G01X20886000Y-8951000D02*
G01X21080000Y-8757000D01*
G54D23*
G01X18010000Y-8270000D02*
G01X17562500Y-8270000D01*
G54D21*
G01X21416000Y-8207000D02*
G01X21416000Y-8320000D01*
G54D23*
G01X21260000Y-8477000D02*
G01X21232000Y-8477000D01*
G01X20820000Y-8889000D01*
G54D21*
G01X21416000Y-8320000D02*
G01X21260000Y-8476000D01*
G54D23*
G01X17491500Y-8341000D02*
G01X17021000Y-8341000D01*
G54D21*
G01X21260000Y-8476000D02*
G01X21260000Y-8477000D01*
G54D23*
G01X19641000Y-8528000D02*
G01X18268000Y-8528000D01*
G01X20820000Y-8889000D02*
G01X20002000Y-8889000D01*
G01X17562500Y-8270000D02*
G01X17491500Y-8341000D01*
G01X18268000Y-8528000D02*
G01X18010000Y-8270000D01*
G01X20002000Y-8889000D02*
G01X19641000Y-8528000D01*
G01X17524000Y-8471000D02*
G01X17504000Y-8491000D01*
G54D25*
G01X20331000Y-9191000D02*
G01X20486000Y-9346000D01*
G54D23*
G01X17504000Y-8491000D02*
G01X17021000Y-8491000D01*
G54D21*
G01X20486000Y-9346000D02*
G01X21227000Y-9346000D01*
G01X21265000Y-9308000D01*
G54D23*
G01X17574000Y-8471000D02*
G01X17524000Y-8471000D01*
G01X17480000Y-8291000D02*
G01X17021000Y-8291000D01*
G01X18138000Y-8246000D02*
G01X18106000Y-8214000D01*
G01X17557000Y-8214000D01*
G01X17480000Y-8291000D01*
G01X19311000Y-8325000D02*
G01X19267000Y-8369000D01*
G01X17534000Y-8175000D02*
G01X17468000Y-8241000D01*
G01X17021000Y-8241000D01*
G01X18509000Y-8369000D02*
G01X18315000Y-8175000D01*
G01X17534000Y-8175000D01*
G54D21*
G01X19311000Y-7066000D02*
G01X19596000Y-6781000D01*
G54D23*
G01X19267000Y-8369000D02*
G01X18509000Y-8369000D01*
G01X19311000Y-7066000D02*
G01X19311000Y-8325000D01*
G54D21*
G01X19596000Y-6781000D02*
G01X19624000Y-6781000D01*
G01X13744056Y-8457056D02*
G01X13744056Y-8733000D01*
G01X17073000Y-6679000D02*
G01X17035000Y-6641000D01*
G01X17073000Y-7419000D02*
G01X17073000Y-6679000D01*
G01X17035000Y-6056000D02*
G01X17084000Y-6007000D01*
G01X13744056Y-8733000D02*
G01X13827056Y-8816000D01*
G01X16597000Y-7577000D02*
G01X16915000Y-7577000D01*
G01X17073000Y-7419000D01*
G01X13650000Y-8363000D02*
G01X13744056Y-8457056D01*
G01X16005056Y-8816000D02*
G01X16026000Y-8795056D01*
G01X17035000Y-6641000D02*
G01X17035000Y-6056000D01*
G01X13371000Y-8363000D02*
G01X13650000Y-8363000D01*
G01X17084000Y-6007000D02*
G01X17264056Y-6007000D01*
G01X16026000Y-8148000D02*
G01X16597000Y-7577000D01*
G01X16026000Y-8795056D02*
G01X16026000Y-8148000D01*
G01X13827056Y-8816000D02*
G01X16005056Y-8816000D01*
G54D23*
G01X15763056Y-9650000D02*
G01X15691056Y-9722000D01*
G54D21*
G01X13009247Y-9215000D02*
G01X13009247Y-9533247D01*
G54D23*
G01X13198000Y-9722000D02*
G01X13009247Y-9533247D01*
G01X15691056Y-9722000D02*
G01X13198000Y-9722000D01*
G01X15763056Y-9553000D02*
G01X15763056Y-9650000D01*
G54D25*
G01X19894000Y-12240000D02*
G01X19894000Y-9150000D01*
G01X19724043Y-11954221D02*
G01X19721000Y-11957264D01*
G01X19721000Y-12229000D01*
G01X19728897Y-10722430D02*
G01X19728897Y-10812103D01*
G01X19724000Y-10817000D01*
G01X19728897Y-10722430D02*
G01X19730000Y-10721327D01*
G01X19724000Y-10817000D02*
G01X19724043Y-11954221D01*
G01X19730000Y-10721327D02*
G01X19730000Y-9724600D01*
G01X19729794Y-9724394D01*
G01X19733000Y-9721188D01*
G01X19733000Y-9141000D01*
G04 Track End*

M02*

