%TF.GenerationSoftware,KiCad,Pcbnew,9.0.6*%
%TF.CreationDate,2025-12-21T20:44:10+00:00*%
%TF.ProjectId,NewInstallationRibbon,4e657749-6e73-4746-916c-6c6174696f6e,rev?*%
%TF.SameCoordinates,Original*%
%TF.FileFunction,Other,Comment*%
%FSLAX46Y46*%
G04 Gerber Fmt 4.6, Leading zero omitted, Abs format (unit mm)*
G04 Created by KiCad (PCBNEW 9.0.6) date 2025-12-21 20:44:10*
%MOMM*%
%LPD*%
G01*
G04 APERTURE LIST*
%ADD10C,0.150000*%
%ADD11C,0.100000*%
G04 APERTURE END LIST*
D10*
X116763333Y-78557200D02*
X116906190Y-78604819D01*
X116906190Y-78604819D02*
X117144285Y-78604819D01*
X117144285Y-78604819D02*
X117239523Y-78557200D01*
X117239523Y-78557200D02*
X117287142Y-78509580D01*
X117287142Y-78509580D02*
X117334761Y-78414342D01*
X117334761Y-78414342D02*
X117334761Y-78319104D01*
X117334761Y-78319104D02*
X117287142Y-78223866D01*
X117287142Y-78223866D02*
X117239523Y-78176247D01*
X117239523Y-78176247D02*
X117144285Y-78128628D01*
X117144285Y-78128628D02*
X116953809Y-78081009D01*
X116953809Y-78081009D02*
X116858571Y-78033390D01*
X116858571Y-78033390D02*
X116810952Y-77985771D01*
X116810952Y-77985771D02*
X116763333Y-77890533D01*
X116763333Y-77890533D02*
X116763333Y-77795295D01*
X116763333Y-77795295D02*
X116810952Y-77700057D01*
X116810952Y-77700057D02*
X116858571Y-77652438D01*
X116858571Y-77652438D02*
X116953809Y-77604819D01*
X116953809Y-77604819D02*
X117191904Y-77604819D01*
X117191904Y-77604819D02*
X117334761Y-77652438D01*
X117620476Y-77938152D02*
X118001428Y-77938152D01*
X117763333Y-77604819D02*
X117763333Y-78461961D01*
X117763333Y-78461961D02*
X117810952Y-78557200D01*
X117810952Y-78557200D02*
X117906190Y-78604819D01*
X117906190Y-78604819D02*
X118001428Y-78604819D01*
X118334762Y-78604819D02*
X118334762Y-77938152D01*
X118334762Y-77604819D02*
X118287143Y-77652438D01*
X118287143Y-77652438D02*
X118334762Y-77700057D01*
X118334762Y-77700057D02*
X118382381Y-77652438D01*
X118382381Y-77652438D02*
X118334762Y-77604819D01*
X118334762Y-77604819D02*
X118334762Y-77700057D01*
X118668095Y-77938152D02*
X119049047Y-77938152D01*
X118810952Y-78604819D02*
X118810952Y-77747676D01*
X118810952Y-77747676D02*
X118858571Y-77652438D01*
X118858571Y-77652438D02*
X118953809Y-77604819D01*
X118953809Y-77604819D02*
X119049047Y-77604819D01*
X119239524Y-77938152D02*
X119620476Y-77938152D01*
X119382381Y-78604819D02*
X119382381Y-77747676D01*
X119382381Y-77747676D02*
X119430000Y-77652438D01*
X119430000Y-77652438D02*
X119525238Y-77604819D01*
X119525238Y-77604819D02*
X119620476Y-77604819D01*
X120334762Y-78557200D02*
X120239524Y-78604819D01*
X120239524Y-78604819D02*
X120049048Y-78604819D01*
X120049048Y-78604819D02*
X119953810Y-78557200D01*
X119953810Y-78557200D02*
X119906191Y-78461961D01*
X119906191Y-78461961D02*
X119906191Y-78081009D01*
X119906191Y-78081009D02*
X119953810Y-77985771D01*
X119953810Y-77985771D02*
X120049048Y-77938152D01*
X120049048Y-77938152D02*
X120239524Y-77938152D01*
X120239524Y-77938152D02*
X120334762Y-77985771D01*
X120334762Y-77985771D02*
X120382381Y-78081009D01*
X120382381Y-78081009D02*
X120382381Y-78176247D01*
X120382381Y-78176247D02*
X119906191Y-78271485D01*
X120810953Y-77938152D02*
X120810953Y-78604819D01*
X120810953Y-78033390D02*
X120858572Y-77985771D01*
X120858572Y-77985771D02*
X120953810Y-77938152D01*
X120953810Y-77938152D02*
X121096667Y-77938152D01*
X121096667Y-77938152D02*
X121191905Y-77985771D01*
X121191905Y-77985771D02*
X121239524Y-78081009D01*
X121239524Y-78081009D02*
X121239524Y-78604819D01*
X122096667Y-78557200D02*
X122001429Y-78604819D01*
X122001429Y-78604819D02*
X121810953Y-78604819D01*
X121810953Y-78604819D02*
X121715715Y-78557200D01*
X121715715Y-78557200D02*
X121668096Y-78461961D01*
X121668096Y-78461961D02*
X121668096Y-78081009D01*
X121668096Y-78081009D02*
X121715715Y-77985771D01*
X121715715Y-77985771D02*
X121810953Y-77938152D01*
X121810953Y-77938152D02*
X122001429Y-77938152D01*
X122001429Y-77938152D02*
X122096667Y-77985771D01*
X122096667Y-77985771D02*
X122144286Y-78081009D01*
X122144286Y-78081009D02*
X122144286Y-78176247D01*
X122144286Y-78176247D02*
X121668096Y-78271485D01*
X122572858Y-78604819D02*
X122572858Y-77938152D01*
X122572858Y-78128628D02*
X122620477Y-78033390D01*
X122620477Y-78033390D02*
X122668096Y-77985771D01*
X122668096Y-77985771D02*
X122763334Y-77938152D01*
X122763334Y-77938152D02*
X122858572Y-77938152D01*
X124287144Y-78081009D02*
X124430001Y-78128628D01*
X124430001Y-78128628D02*
X124477620Y-78176247D01*
X124477620Y-78176247D02*
X124525239Y-78271485D01*
X124525239Y-78271485D02*
X124525239Y-78414342D01*
X124525239Y-78414342D02*
X124477620Y-78509580D01*
X124477620Y-78509580D02*
X124430001Y-78557200D01*
X124430001Y-78557200D02*
X124334763Y-78604819D01*
X124334763Y-78604819D02*
X123953811Y-78604819D01*
X123953811Y-78604819D02*
X123953811Y-77604819D01*
X123953811Y-77604819D02*
X124287144Y-77604819D01*
X124287144Y-77604819D02*
X124382382Y-77652438D01*
X124382382Y-77652438D02*
X124430001Y-77700057D01*
X124430001Y-77700057D02*
X124477620Y-77795295D01*
X124477620Y-77795295D02*
X124477620Y-77890533D01*
X124477620Y-77890533D02*
X124430001Y-77985771D01*
X124430001Y-77985771D02*
X124382382Y-78033390D01*
X124382382Y-78033390D02*
X124287144Y-78081009D01*
X124287144Y-78081009D02*
X123953811Y-78081009D01*
X125096668Y-78604819D02*
X125001430Y-78557200D01*
X125001430Y-78557200D02*
X124953811Y-78509580D01*
X124953811Y-78509580D02*
X124906192Y-78414342D01*
X124906192Y-78414342D02*
X124906192Y-78128628D01*
X124906192Y-78128628D02*
X124953811Y-78033390D01*
X124953811Y-78033390D02*
X125001430Y-77985771D01*
X125001430Y-77985771D02*
X125096668Y-77938152D01*
X125096668Y-77938152D02*
X125239525Y-77938152D01*
X125239525Y-77938152D02*
X125334763Y-77985771D01*
X125334763Y-77985771D02*
X125382382Y-78033390D01*
X125382382Y-78033390D02*
X125430001Y-78128628D01*
X125430001Y-78128628D02*
X125430001Y-78414342D01*
X125430001Y-78414342D02*
X125382382Y-78509580D01*
X125382382Y-78509580D02*
X125334763Y-78557200D01*
X125334763Y-78557200D02*
X125239525Y-78604819D01*
X125239525Y-78604819D02*
X125096668Y-78604819D01*
X125715716Y-77938152D02*
X126096668Y-77938152D01*
X125858573Y-77604819D02*
X125858573Y-78461961D01*
X125858573Y-78461961D02*
X125906192Y-78557200D01*
X125906192Y-78557200D02*
X126001430Y-78604819D01*
X126001430Y-78604819D02*
X126096668Y-78604819D01*
X126287145Y-77938152D02*
X126668097Y-77938152D01*
X126430002Y-77604819D02*
X126430002Y-78461961D01*
X126430002Y-78461961D02*
X126477621Y-78557200D01*
X126477621Y-78557200D02*
X126572859Y-78604819D01*
X126572859Y-78604819D02*
X126668097Y-78604819D01*
X127144288Y-78604819D02*
X127049050Y-78557200D01*
X127049050Y-78557200D02*
X127001431Y-78509580D01*
X127001431Y-78509580D02*
X126953812Y-78414342D01*
X126953812Y-78414342D02*
X126953812Y-78128628D01*
X126953812Y-78128628D02*
X127001431Y-78033390D01*
X127001431Y-78033390D02*
X127049050Y-77985771D01*
X127049050Y-77985771D02*
X127144288Y-77938152D01*
X127144288Y-77938152D02*
X127287145Y-77938152D01*
X127287145Y-77938152D02*
X127382383Y-77985771D01*
X127382383Y-77985771D02*
X127430002Y-78033390D01*
X127430002Y-78033390D02*
X127477621Y-78128628D01*
X127477621Y-78128628D02*
X127477621Y-78414342D01*
X127477621Y-78414342D02*
X127430002Y-78509580D01*
X127430002Y-78509580D02*
X127382383Y-78557200D01*
X127382383Y-78557200D02*
X127287145Y-78604819D01*
X127287145Y-78604819D02*
X127144288Y-78604819D01*
X127906193Y-78604819D02*
X127906193Y-77938152D01*
X127906193Y-78033390D02*
X127953812Y-77985771D01*
X127953812Y-77985771D02*
X128049050Y-77938152D01*
X128049050Y-77938152D02*
X128191907Y-77938152D01*
X128191907Y-77938152D02*
X128287145Y-77985771D01*
X128287145Y-77985771D02*
X128334764Y-78081009D01*
X128334764Y-78081009D02*
X128334764Y-78604819D01*
X128334764Y-78081009D02*
X128382383Y-77985771D01*
X128382383Y-77985771D02*
X128477621Y-77938152D01*
X128477621Y-77938152D02*
X128620478Y-77938152D01*
X128620478Y-77938152D02*
X128715717Y-77985771D01*
X128715717Y-77985771D02*
X128763336Y-78081009D01*
X128763336Y-78081009D02*
X128763336Y-78604819D01*
X129239526Y-78509580D02*
X129287145Y-78557200D01*
X129287145Y-78557200D02*
X129239526Y-78604819D01*
X129239526Y-78604819D02*
X129191907Y-78557200D01*
X129191907Y-78557200D02*
X129239526Y-78509580D01*
X129239526Y-78509580D02*
X129239526Y-78604819D01*
X129239526Y-77985771D02*
X129287145Y-78033390D01*
X129287145Y-78033390D02*
X129239526Y-78081009D01*
X129239526Y-78081009D02*
X129191907Y-78033390D01*
X129191907Y-78033390D02*
X129239526Y-77985771D01*
X129239526Y-77985771D02*
X129239526Y-78081009D01*
X130477621Y-78604819D02*
X130477621Y-77604819D01*
X130477621Y-77604819D02*
X130858573Y-77604819D01*
X130858573Y-77604819D02*
X130953811Y-77652438D01*
X130953811Y-77652438D02*
X131001430Y-77700057D01*
X131001430Y-77700057D02*
X131049049Y-77795295D01*
X131049049Y-77795295D02*
X131049049Y-77938152D01*
X131049049Y-77938152D02*
X131001430Y-78033390D01*
X131001430Y-78033390D02*
X130953811Y-78081009D01*
X130953811Y-78081009D02*
X130858573Y-78128628D01*
X130858573Y-78128628D02*
X130477621Y-78128628D01*
X131620478Y-78604819D02*
X131525240Y-78557200D01*
X131525240Y-78557200D02*
X131477621Y-78509580D01*
X131477621Y-78509580D02*
X131430002Y-78414342D01*
X131430002Y-78414342D02*
X131430002Y-78128628D01*
X131430002Y-78128628D02*
X131477621Y-78033390D01*
X131477621Y-78033390D02*
X131525240Y-77985771D01*
X131525240Y-77985771D02*
X131620478Y-77938152D01*
X131620478Y-77938152D02*
X131763335Y-77938152D01*
X131763335Y-77938152D02*
X131858573Y-77985771D01*
X131858573Y-77985771D02*
X131906192Y-78033390D01*
X131906192Y-78033390D02*
X131953811Y-78128628D01*
X131953811Y-78128628D02*
X131953811Y-78414342D01*
X131953811Y-78414342D02*
X131906192Y-78509580D01*
X131906192Y-78509580D02*
X131858573Y-78557200D01*
X131858573Y-78557200D02*
X131763335Y-78604819D01*
X131763335Y-78604819D02*
X131620478Y-78604819D01*
X132525240Y-78604819D02*
X132430002Y-78557200D01*
X132430002Y-78557200D02*
X132382383Y-78461961D01*
X132382383Y-78461961D02*
X132382383Y-77604819D01*
X132810955Y-77938152D02*
X133049050Y-78604819D01*
X133287145Y-77938152D02*
X133049050Y-78604819D01*
X133049050Y-78604819D02*
X132953812Y-78842914D01*
X132953812Y-78842914D02*
X132906193Y-78890533D01*
X132906193Y-78890533D02*
X132810955Y-78938152D01*
X133668098Y-78604819D02*
X133668098Y-77938152D01*
X133668098Y-77604819D02*
X133620479Y-77652438D01*
X133620479Y-77652438D02*
X133668098Y-77700057D01*
X133668098Y-77700057D02*
X133715717Y-77652438D01*
X133715717Y-77652438D02*
X133668098Y-77604819D01*
X133668098Y-77604819D02*
X133668098Y-77700057D01*
X134144288Y-78604819D02*
X134144288Y-77938152D01*
X134144288Y-78033390D02*
X134191907Y-77985771D01*
X134191907Y-77985771D02*
X134287145Y-77938152D01*
X134287145Y-77938152D02*
X134430002Y-77938152D01*
X134430002Y-77938152D02*
X134525240Y-77985771D01*
X134525240Y-77985771D02*
X134572859Y-78081009D01*
X134572859Y-78081009D02*
X134572859Y-78604819D01*
X134572859Y-78081009D02*
X134620478Y-77985771D01*
X134620478Y-77985771D02*
X134715716Y-77938152D01*
X134715716Y-77938152D02*
X134858573Y-77938152D01*
X134858573Y-77938152D02*
X134953812Y-77985771D01*
X134953812Y-77985771D02*
X135001431Y-78081009D01*
X135001431Y-78081009D02*
X135001431Y-78604819D01*
X135477621Y-78604819D02*
X135477621Y-77938152D01*
X135477621Y-77604819D02*
X135430002Y-77652438D01*
X135430002Y-77652438D02*
X135477621Y-77700057D01*
X135477621Y-77700057D02*
X135525240Y-77652438D01*
X135525240Y-77652438D02*
X135477621Y-77604819D01*
X135477621Y-77604819D02*
X135477621Y-77700057D01*
X136382382Y-78604819D02*
X136382382Y-77604819D01*
X136382382Y-78557200D02*
X136287144Y-78604819D01*
X136287144Y-78604819D02*
X136096668Y-78604819D01*
X136096668Y-78604819D02*
X136001430Y-78557200D01*
X136001430Y-78557200D02*
X135953811Y-78509580D01*
X135953811Y-78509580D02*
X135906192Y-78414342D01*
X135906192Y-78414342D02*
X135906192Y-78128628D01*
X135906192Y-78128628D02*
X135953811Y-78033390D01*
X135953811Y-78033390D02*
X136001430Y-77985771D01*
X136001430Y-77985771D02*
X136096668Y-77938152D01*
X136096668Y-77938152D02*
X136287144Y-77938152D01*
X136287144Y-77938152D02*
X136382382Y-77985771D01*
X137239525Y-78557200D02*
X137144287Y-78604819D01*
X137144287Y-78604819D02*
X136953811Y-78604819D01*
X136953811Y-78604819D02*
X136858573Y-78557200D01*
X136858573Y-78557200D02*
X136810954Y-78461961D01*
X136810954Y-78461961D02*
X136810954Y-78081009D01*
X136810954Y-78081009D02*
X136858573Y-77985771D01*
X136858573Y-77985771D02*
X136953811Y-77938152D01*
X136953811Y-77938152D02*
X137144287Y-77938152D01*
X137144287Y-77938152D02*
X137239525Y-77985771D01*
X137239525Y-77985771D02*
X137287144Y-78081009D01*
X137287144Y-78081009D02*
X137287144Y-78176247D01*
X137287144Y-78176247D02*
X136810954Y-78271485D01*
X138668097Y-77604819D02*
X138763335Y-77604819D01*
X138763335Y-77604819D02*
X138858573Y-77652438D01*
X138858573Y-77652438D02*
X138906192Y-77700057D01*
X138906192Y-77700057D02*
X138953811Y-77795295D01*
X138953811Y-77795295D02*
X139001430Y-77985771D01*
X139001430Y-77985771D02*
X139001430Y-78223866D01*
X139001430Y-78223866D02*
X138953811Y-78414342D01*
X138953811Y-78414342D02*
X138906192Y-78509580D01*
X138906192Y-78509580D02*
X138858573Y-78557200D01*
X138858573Y-78557200D02*
X138763335Y-78604819D01*
X138763335Y-78604819D02*
X138668097Y-78604819D01*
X138668097Y-78604819D02*
X138572859Y-78557200D01*
X138572859Y-78557200D02*
X138525240Y-78509580D01*
X138525240Y-78509580D02*
X138477621Y-78414342D01*
X138477621Y-78414342D02*
X138430002Y-78223866D01*
X138430002Y-78223866D02*
X138430002Y-77985771D01*
X138430002Y-77985771D02*
X138477621Y-77795295D01*
X138477621Y-77795295D02*
X138525240Y-77700057D01*
X138525240Y-77700057D02*
X138572859Y-77652438D01*
X138572859Y-77652438D02*
X138668097Y-77604819D01*
X139430002Y-78509580D02*
X139477621Y-78557200D01*
X139477621Y-78557200D02*
X139430002Y-78604819D01*
X139430002Y-78604819D02*
X139382383Y-78557200D01*
X139382383Y-78557200D02*
X139430002Y-78509580D01*
X139430002Y-78509580D02*
X139430002Y-78604819D01*
X139858573Y-77700057D02*
X139906192Y-77652438D01*
X139906192Y-77652438D02*
X140001430Y-77604819D01*
X140001430Y-77604819D02*
X140239525Y-77604819D01*
X140239525Y-77604819D02*
X140334763Y-77652438D01*
X140334763Y-77652438D02*
X140382382Y-77700057D01*
X140382382Y-77700057D02*
X140430001Y-77795295D01*
X140430001Y-77795295D02*
X140430001Y-77890533D01*
X140430001Y-77890533D02*
X140382382Y-78033390D01*
X140382382Y-78033390D02*
X139810954Y-78604819D01*
X139810954Y-78604819D02*
X140430001Y-78604819D01*
X140858573Y-78604819D02*
X140858573Y-77938152D01*
X140858573Y-78033390D02*
X140906192Y-77985771D01*
X140906192Y-77985771D02*
X141001430Y-77938152D01*
X141001430Y-77938152D02*
X141144287Y-77938152D01*
X141144287Y-77938152D02*
X141239525Y-77985771D01*
X141239525Y-77985771D02*
X141287144Y-78081009D01*
X141287144Y-78081009D02*
X141287144Y-78604819D01*
X141287144Y-78081009D02*
X141334763Y-77985771D01*
X141334763Y-77985771D02*
X141430001Y-77938152D01*
X141430001Y-77938152D02*
X141572858Y-77938152D01*
X141572858Y-77938152D02*
X141668097Y-77985771D01*
X141668097Y-77985771D02*
X141715716Y-78081009D01*
X141715716Y-78081009D02*
X141715716Y-78604819D01*
X142191906Y-78604819D02*
X142191906Y-77938152D01*
X142191906Y-78033390D02*
X142239525Y-77985771D01*
X142239525Y-77985771D02*
X142334763Y-77938152D01*
X142334763Y-77938152D02*
X142477620Y-77938152D01*
X142477620Y-77938152D02*
X142572858Y-77985771D01*
X142572858Y-77985771D02*
X142620477Y-78081009D01*
X142620477Y-78081009D02*
X142620477Y-78604819D01*
X142620477Y-78081009D02*
X142668096Y-77985771D01*
X142668096Y-77985771D02*
X142763334Y-77938152D01*
X142763334Y-77938152D02*
X142906191Y-77938152D01*
X142906191Y-77938152D02*
X143001430Y-77985771D01*
X143001430Y-77985771D02*
X143049049Y-78081009D01*
X143049049Y-78081009D02*
X143049049Y-78604819D01*
X122518712Y-86447142D02*
X123185379Y-86447142D01*
X122137760Y-86685237D02*
X122852045Y-86923332D01*
X122852045Y-86923332D02*
X122852045Y-86304285D01*
X123090140Y-85923332D02*
X123137760Y-85875713D01*
X123137760Y-85875713D02*
X123185379Y-85923332D01*
X123185379Y-85923332D02*
X123137760Y-85970951D01*
X123137760Y-85970951D02*
X123090140Y-85923332D01*
X123090140Y-85923332D02*
X123185379Y-85923332D01*
X122185379Y-84970952D02*
X122185379Y-85447142D01*
X122185379Y-85447142D02*
X122661569Y-85494761D01*
X122661569Y-85494761D02*
X122613950Y-85447142D01*
X122613950Y-85447142D02*
X122566331Y-85351904D01*
X122566331Y-85351904D02*
X122566331Y-85113809D01*
X122566331Y-85113809D02*
X122613950Y-85018571D01*
X122613950Y-85018571D02*
X122661569Y-84970952D01*
X122661569Y-84970952D02*
X122756807Y-84923333D01*
X122756807Y-84923333D02*
X122994902Y-84923333D01*
X122994902Y-84923333D02*
X123090140Y-84970952D01*
X123090140Y-84970952D02*
X123137760Y-85018571D01*
X123137760Y-85018571D02*
X123185379Y-85113809D01*
X123185379Y-85113809D02*
X123185379Y-85351904D01*
X123185379Y-85351904D02*
X123137760Y-85447142D01*
X123137760Y-85447142D02*
X123090140Y-85494761D01*
X123185379Y-84494761D02*
X122518712Y-84494761D01*
X122613950Y-84494761D02*
X122566331Y-84447142D01*
X122566331Y-84447142D02*
X122518712Y-84351904D01*
X122518712Y-84351904D02*
X122518712Y-84209047D01*
X122518712Y-84209047D02*
X122566331Y-84113809D01*
X122566331Y-84113809D02*
X122661569Y-84066190D01*
X122661569Y-84066190D02*
X123185379Y-84066190D01*
X122661569Y-84066190D02*
X122566331Y-84018571D01*
X122566331Y-84018571D02*
X122518712Y-83923333D01*
X122518712Y-83923333D02*
X122518712Y-83780476D01*
X122518712Y-83780476D02*
X122566331Y-83685237D01*
X122566331Y-83685237D02*
X122661569Y-83637618D01*
X122661569Y-83637618D02*
X123185379Y-83637618D01*
X123185379Y-83161428D02*
X122518712Y-83161428D01*
X122613950Y-83161428D02*
X122566331Y-83113809D01*
X122566331Y-83113809D02*
X122518712Y-83018571D01*
X122518712Y-83018571D02*
X122518712Y-82875714D01*
X122518712Y-82875714D02*
X122566331Y-82780476D01*
X122566331Y-82780476D02*
X122661569Y-82732857D01*
X122661569Y-82732857D02*
X123185379Y-82732857D01*
X122661569Y-82732857D02*
X122566331Y-82685238D01*
X122566331Y-82685238D02*
X122518712Y-82590000D01*
X122518712Y-82590000D02*
X122518712Y-82447143D01*
X122518712Y-82447143D02*
X122566331Y-82351904D01*
X122566331Y-82351904D02*
X122661569Y-82304285D01*
X122661569Y-82304285D02*
X123185379Y-82304285D01*
X127517702Y-79164819D02*
X127327226Y-79164819D01*
X127327226Y-79164819D02*
X127231988Y-79212438D01*
X127231988Y-79212438D02*
X127184369Y-79260057D01*
X127184369Y-79260057D02*
X127089131Y-79402914D01*
X127089131Y-79402914D02*
X127041512Y-79593390D01*
X127041512Y-79593390D02*
X127041512Y-79974342D01*
X127041512Y-79974342D02*
X127089131Y-80069580D01*
X127089131Y-80069580D02*
X127136750Y-80117200D01*
X127136750Y-80117200D02*
X127231988Y-80164819D01*
X127231988Y-80164819D02*
X127422464Y-80164819D01*
X127422464Y-80164819D02*
X127517702Y-80117200D01*
X127517702Y-80117200D02*
X127565321Y-80069580D01*
X127565321Y-80069580D02*
X127612940Y-79974342D01*
X127612940Y-79974342D02*
X127612940Y-79736247D01*
X127612940Y-79736247D02*
X127565321Y-79641009D01*
X127565321Y-79641009D02*
X127517702Y-79593390D01*
X127517702Y-79593390D02*
X127422464Y-79545771D01*
X127422464Y-79545771D02*
X127231988Y-79545771D01*
X127231988Y-79545771D02*
X127136750Y-79593390D01*
X127136750Y-79593390D02*
X127089131Y-79641009D01*
X127089131Y-79641009D02*
X127041512Y-79736247D01*
X128041512Y-80164819D02*
X128041512Y-79498152D01*
X128041512Y-79593390D02*
X128089131Y-79545771D01*
X128089131Y-79545771D02*
X128184369Y-79498152D01*
X128184369Y-79498152D02*
X128327226Y-79498152D01*
X128327226Y-79498152D02*
X128422464Y-79545771D01*
X128422464Y-79545771D02*
X128470083Y-79641009D01*
X128470083Y-79641009D02*
X128470083Y-80164819D01*
X128470083Y-79641009D02*
X128517702Y-79545771D01*
X128517702Y-79545771D02*
X128612940Y-79498152D01*
X128612940Y-79498152D02*
X128755797Y-79498152D01*
X128755797Y-79498152D02*
X128851036Y-79545771D01*
X128851036Y-79545771D02*
X128898655Y-79641009D01*
X128898655Y-79641009D02*
X128898655Y-80164819D01*
X129374845Y-80164819D02*
X129374845Y-79498152D01*
X129374845Y-79593390D02*
X129422464Y-79545771D01*
X129422464Y-79545771D02*
X129517702Y-79498152D01*
X129517702Y-79498152D02*
X129660559Y-79498152D01*
X129660559Y-79498152D02*
X129755797Y-79545771D01*
X129755797Y-79545771D02*
X129803416Y-79641009D01*
X129803416Y-79641009D02*
X129803416Y-80164819D01*
X129803416Y-79641009D02*
X129851035Y-79545771D01*
X129851035Y-79545771D02*
X129946273Y-79498152D01*
X129946273Y-79498152D02*
X130089130Y-79498152D01*
X130089130Y-79498152D02*
X130184369Y-79545771D01*
X130184369Y-79545771D02*
X130231988Y-79641009D01*
X130231988Y-79641009D02*
X130231988Y-80164819D01*
X165310476Y-80647200D02*
X165453333Y-80694819D01*
X165453333Y-80694819D02*
X165691428Y-80694819D01*
X165691428Y-80694819D02*
X165786666Y-80647200D01*
X165786666Y-80647200D02*
X165834285Y-80599580D01*
X165834285Y-80599580D02*
X165881904Y-80504342D01*
X165881904Y-80504342D02*
X165881904Y-80409104D01*
X165881904Y-80409104D02*
X165834285Y-80313866D01*
X165834285Y-80313866D02*
X165786666Y-80266247D01*
X165786666Y-80266247D02*
X165691428Y-80218628D01*
X165691428Y-80218628D02*
X165500952Y-80171009D01*
X165500952Y-80171009D02*
X165405714Y-80123390D01*
X165405714Y-80123390D02*
X165358095Y-80075771D01*
X165358095Y-80075771D02*
X165310476Y-79980533D01*
X165310476Y-79980533D02*
X165310476Y-79885295D01*
X165310476Y-79885295D02*
X165358095Y-79790057D01*
X165358095Y-79790057D02*
X165405714Y-79742438D01*
X165405714Y-79742438D02*
X165500952Y-79694819D01*
X165500952Y-79694819D02*
X165739047Y-79694819D01*
X165739047Y-79694819D02*
X165881904Y-79742438D01*
X166167619Y-80028152D02*
X166548571Y-80028152D01*
X166310476Y-79694819D02*
X166310476Y-80551961D01*
X166310476Y-80551961D02*
X166358095Y-80647200D01*
X166358095Y-80647200D02*
X166453333Y-80694819D01*
X166453333Y-80694819D02*
X166548571Y-80694819D01*
X166881905Y-80694819D02*
X166881905Y-80028152D01*
X166881905Y-79694819D02*
X166834286Y-79742438D01*
X166834286Y-79742438D02*
X166881905Y-79790057D01*
X166881905Y-79790057D02*
X166929524Y-79742438D01*
X166929524Y-79742438D02*
X166881905Y-79694819D01*
X166881905Y-79694819D02*
X166881905Y-79790057D01*
X167215238Y-80028152D02*
X167596190Y-80028152D01*
X167358095Y-80694819D02*
X167358095Y-79837676D01*
X167358095Y-79837676D02*
X167405714Y-79742438D01*
X167405714Y-79742438D02*
X167500952Y-79694819D01*
X167500952Y-79694819D02*
X167596190Y-79694819D01*
X167786667Y-80028152D02*
X168167619Y-80028152D01*
X167929524Y-80694819D02*
X167929524Y-79837676D01*
X167929524Y-79837676D02*
X167977143Y-79742438D01*
X167977143Y-79742438D02*
X168072381Y-79694819D01*
X168072381Y-79694819D02*
X168167619Y-79694819D01*
X168881905Y-80647200D02*
X168786667Y-80694819D01*
X168786667Y-80694819D02*
X168596191Y-80694819D01*
X168596191Y-80694819D02*
X168500953Y-80647200D01*
X168500953Y-80647200D02*
X168453334Y-80551961D01*
X168453334Y-80551961D02*
X168453334Y-80171009D01*
X168453334Y-80171009D02*
X168500953Y-80075771D01*
X168500953Y-80075771D02*
X168596191Y-80028152D01*
X168596191Y-80028152D02*
X168786667Y-80028152D01*
X168786667Y-80028152D02*
X168881905Y-80075771D01*
X168881905Y-80075771D02*
X168929524Y-80171009D01*
X168929524Y-80171009D02*
X168929524Y-80266247D01*
X168929524Y-80266247D02*
X168453334Y-80361485D01*
X169358096Y-80028152D02*
X169358096Y-80694819D01*
X169358096Y-80123390D02*
X169405715Y-80075771D01*
X169405715Y-80075771D02*
X169500953Y-80028152D01*
X169500953Y-80028152D02*
X169643810Y-80028152D01*
X169643810Y-80028152D02*
X169739048Y-80075771D01*
X169739048Y-80075771D02*
X169786667Y-80171009D01*
X169786667Y-80171009D02*
X169786667Y-80694819D01*
X170643810Y-80647200D02*
X170548572Y-80694819D01*
X170548572Y-80694819D02*
X170358096Y-80694819D01*
X170358096Y-80694819D02*
X170262858Y-80647200D01*
X170262858Y-80647200D02*
X170215239Y-80551961D01*
X170215239Y-80551961D02*
X170215239Y-80171009D01*
X170215239Y-80171009D02*
X170262858Y-80075771D01*
X170262858Y-80075771D02*
X170358096Y-80028152D01*
X170358096Y-80028152D02*
X170548572Y-80028152D01*
X170548572Y-80028152D02*
X170643810Y-80075771D01*
X170643810Y-80075771D02*
X170691429Y-80171009D01*
X170691429Y-80171009D02*
X170691429Y-80266247D01*
X170691429Y-80266247D02*
X170215239Y-80361485D01*
X171120001Y-80694819D02*
X171120001Y-80028152D01*
X171120001Y-80218628D02*
X171167620Y-80123390D01*
X171167620Y-80123390D02*
X171215239Y-80075771D01*
X171215239Y-80075771D02*
X171310477Y-80028152D01*
X171310477Y-80028152D02*
X171405715Y-80028152D01*
X172358097Y-79694819D02*
X172929525Y-79694819D01*
X172643811Y-80694819D02*
X172643811Y-79694819D01*
X173405716Y-80694819D02*
X173310478Y-80647200D01*
X173310478Y-80647200D02*
X173262859Y-80599580D01*
X173262859Y-80599580D02*
X173215240Y-80504342D01*
X173215240Y-80504342D02*
X173215240Y-80218628D01*
X173215240Y-80218628D02*
X173262859Y-80123390D01*
X173262859Y-80123390D02*
X173310478Y-80075771D01*
X173310478Y-80075771D02*
X173405716Y-80028152D01*
X173405716Y-80028152D02*
X173548573Y-80028152D01*
X173548573Y-80028152D02*
X173643811Y-80075771D01*
X173643811Y-80075771D02*
X173691430Y-80123390D01*
X173691430Y-80123390D02*
X173739049Y-80218628D01*
X173739049Y-80218628D02*
X173739049Y-80504342D01*
X173739049Y-80504342D02*
X173691430Y-80599580D01*
X173691430Y-80599580D02*
X173643811Y-80647200D01*
X173643811Y-80647200D02*
X173548573Y-80694819D01*
X173548573Y-80694819D02*
X173405716Y-80694819D01*
X174167621Y-80028152D02*
X174167621Y-81028152D01*
X174167621Y-80075771D02*
X174262859Y-80028152D01*
X174262859Y-80028152D02*
X174453335Y-80028152D01*
X174453335Y-80028152D02*
X174548573Y-80075771D01*
X174548573Y-80075771D02*
X174596192Y-80123390D01*
X174596192Y-80123390D02*
X174643811Y-80218628D01*
X174643811Y-80218628D02*
X174643811Y-80504342D01*
X174643811Y-80504342D02*
X174596192Y-80599580D01*
X174596192Y-80599580D02*
X174548573Y-80647200D01*
X174548573Y-80647200D02*
X174453335Y-80694819D01*
X174453335Y-80694819D02*
X174262859Y-80694819D01*
X174262859Y-80694819D02*
X174167621Y-80647200D01*
X175072383Y-80599580D02*
X175120002Y-80647200D01*
X175120002Y-80647200D02*
X175072383Y-80694819D01*
X175072383Y-80694819D02*
X175024764Y-80647200D01*
X175024764Y-80647200D02*
X175072383Y-80599580D01*
X175072383Y-80599580D02*
X175072383Y-80694819D01*
X175072383Y-80075771D02*
X175120002Y-80123390D01*
X175120002Y-80123390D02*
X175072383Y-80171009D01*
X175072383Y-80171009D02*
X175024764Y-80123390D01*
X175024764Y-80123390D02*
X175072383Y-80075771D01*
X175072383Y-80075771D02*
X175072383Y-80171009D01*
X176310478Y-80694819D02*
X176310478Y-79694819D01*
X176310478Y-79694819D02*
X176691430Y-79694819D01*
X176691430Y-79694819D02*
X176786668Y-79742438D01*
X176786668Y-79742438D02*
X176834287Y-79790057D01*
X176834287Y-79790057D02*
X176881906Y-79885295D01*
X176881906Y-79885295D02*
X176881906Y-80028152D01*
X176881906Y-80028152D02*
X176834287Y-80123390D01*
X176834287Y-80123390D02*
X176786668Y-80171009D01*
X176786668Y-80171009D02*
X176691430Y-80218628D01*
X176691430Y-80218628D02*
X176310478Y-80218628D01*
X177453335Y-80694819D02*
X177358097Y-80647200D01*
X177358097Y-80647200D02*
X177310478Y-80599580D01*
X177310478Y-80599580D02*
X177262859Y-80504342D01*
X177262859Y-80504342D02*
X177262859Y-80218628D01*
X177262859Y-80218628D02*
X177310478Y-80123390D01*
X177310478Y-80123390D02*
X177358097Y-80075771D01*
X177358097Y-80075771D02*
X177453335Y-80028152D01*
X177453335Y-80028152D02*
X177596192Y-80028152D01*
X177596192Y-80028152D02*
X177691430Y-80075771D01*
X177691430Y-80075771D02*
X177739049Y-80123390D01*
X177739049Y-80123390D02*
X177786668Y-80218628D01*
X177786668Y-80218628D02*
X177786668Y-80504342D01*
X177786668Y-80504342D02*
X177739049Y-80599580D01*
X177739049Y-80599580D02*
X177691430Y-80647200D01*
X177691430Y-80647200D02*
X177596192Y-80694819D01*
X177596192Y-80694819D02*
X177453335Y-80694819D01*
X178358097Y-80694819D02*
X178262859Y-80647200D01*
X178262859Y-80647200D02*
X178215240Y-80551961D01*
X178215240Y-80551961D02*
X178215240Y-79694819D01*
X178643812Y-80028152D02*
X178881907Y-80694819D01*
X179120002Y-80028152D02*
X178881907Y-80694819D01*
X178881907Y-80694819D02*
X178786669Y-80932914D01*
X178786669Y-80932914D02*
X178739050Y-80980533D01*
X178739050Y-80980533D02*
X178643812Y-81028152D01*
X179500955Y-80694819D02*
X179500955Y-80028152D01*
X179500955Y-79694819D02*
X179453336Y-79742438D01*
X179453336Y-79742438D02*
X179500955Y-79790057D01*
X179500955Y-79790057D02*
X179548574Y-79742438D01*
X179548574Y-79742438D02*
X179500955Y-79694819D01*
X179500955Y-79694819D02*
X179500955Y-79790057D01*
X179977145Y-80694819D02*
X179977145Y-80028152D01*
X179977145Y-80123390D02*
X180024764Y-80075771D01*
X180024764Y-80075771D02*
X180120002Y-80028152D01*
X180120002Y-80028152D02*
X180262859Y-80028152D01*
X180262859Y-80028152D02*
X180358097Y-80075771D01*
X180358097Y-80075771D02*
X180405716Y-80171009D01*
X180405716Y-80171009D02*
X180405716Y-80694819D01*
X180405716Y-80171009D02*
X180453335Y-80075771D01*
X180453335Y-80075771D02*
X180548573Y-80028152D01*
X180548573Y-80028152D02*
X180691430Y-80028152D01*
X180691430Y-80028152D02*
X180786669Y-80075771D01*
X180786669Y-80075771D02*
X180834288Y-80171009D01*
X180834288Y-80171009D02*
X180834288Y-80694819D01*
X181310478Y-80694819D02*
X181310478Y-80028152D01*
X181310478Y-79694819D02*
X181262859Y-79742438D01*
X181262859Y-79742438D02*
X181310478Y-79790057D01*
X181310478Y-79790057D02*
X181358097Y-79742438D01*
X181358097Y-79742438D02*
X181310478Y-79694819D01*
X181310478Y-79694819D02*
X181310478Y-79790057D01*
X182215239Y-80694819D02*
X182215239Y-79694819D01*
X182215239Y-80647200D02*
X182120001Y-80694819D01*
X182120001Y-80694819D02*
X181929525Y-80694819D01*
X181929525Y-80694819D02*
X181834287Y-80647200D01*
X181834287Y-80647200D02*
X181786668Y-80599580D01*
X181786668Y-80599580D02*
X181739049Y-80504342D01*
X181739049Y-80504342D02*
X181739049Y-80218628D01*
X181739049Y-80218628D02*
X181786668Y-80123390D01*
X181786668Y-80123390D02*
X181834287Y-80075771D01*
X181834287Y-80075771D02*
X181929525Y-80028152D01*
X181929525Y-80028152D02*
X182120001Y-80028152D01*
X182120001Y-80028152D02*
X182215239Y-80075771D01*
X183072382Y-80647200D02*
X182977144Y-80694819D01*
X182977144Y-80694819D02*
X182786668Y-80694819D01*
X182786668Y-80694819D02*
X182691430Y-80647200D01*
X182691430Y-80647200D02*
X182643811Y-80551961D01*
X182643811Y-80551961D02*
X182643811Y-80171009D01*
X182643811Y-80171009D02*
X182691430Y-80075771D01*
X182691430Y-80075771D02*
X182786668Y-80028152D01*
X182786668Y-80028152D02*
X182977144Y-80028152D01*
X182977144Y-80028152D02*
X183072382Y-80075771D01*
X183072382Y-80075771D02*
X183120001Y-80171009D01*
X183120001Y-80171009D02*
X183120001Y-80266247D01*
X183120001Y-80266247D02*
X182643811Y-80361485D01*
X184500954Y-79694819D02*
X184596192Y-79694819D01*
X184596192Y-79694819D02*
X184691430Y-79742438D01*
X184691430Y-79742438D02*
X184739049Y-79790057D01*
X184739049Y-79790057D02*
X184786668Y-79885295D01*
X184786668Y-79885295D02*
X184834287Y-80075771D01*
X184834287Y-80075771D02*
X184834287Y-80313866D01*
X184834287Y-80313866D02*
X184786668Y-80504342D01*
X184786668Y-80504342D02*
X184739049Y-80599580D01*
X184739049Y-80599580D02*
X184691430Y-80647200D01*
X184691430Y-80647200D02*
X184596192Y-80694819D01*
X184596192Y-80694819D02*
X184500954Y-80694819D01*
X184500954Y-80694819D02*
X184405716Y-80647200D01*
X184405716Y-80647200D02*
X184358097Y-80599580D01*
X184358097Y-80599580D02*
X184310478Y-80504342D01*
X184310478Y-80504342D02*
X184262859Y-80313866D01*
X184262859Y-80313866D02*
X184262859Y-80075771D01*
X184262859Y-80075771D02*
X184310478Y-79885295D01*
X184310478Y-79885295D02*
X184358097Y-79790057D01*
X184358097Y-79790057D02*
X184405716Y-79742438D01*
X184405716Y-79742438D02*
X184500954Y-79694819D01*
X185262859Y-80599580D02*
X185310478Y-80647200D01*
X185310478Y-80647200D02*
X185262859Y-80694819D01*
X185262859Y-80694819D02*
X185215240Y-80647200D01*
X185215240Y-80647200D02*
X185262859Y-80599580D01*
X185262859Y-80599580D02*
X185262859Y-80694819D01*
X185691430Y-79790057D02*
X185739049Y-79742438D01*
X185739049Y-79742438D02*
X185834287Y-79694819D01*
X185834287Y-79694819D02*
X186072382Y-79694819D01*
X186072382Y-79694819D02*
X186167620Y-79742438D01*
X186167620Y-79742438D02*
X186215239Y-79790057D01*
X186215239Y-79790057D02*
X186262858Y-79885295D01*
X186262858Y-79885295D02*
X186262858Y-79980533D01*
X186262858Y-79980533D02*
X186215239Y-80123390D01*
X186215239Y-80123390D02*
X185643811Y-80694819D01*
X185643811Y-80694819D02*
X186262858Y-80694819D01*
X186691430Y-80694819D02*
X186691430Y-80028152D01*
X186691430Y-80123390D02*
X186739049Y-80075771D01*
X186739049Y-80075771D02*
X186834287Y-80028152D01*
X186834287Y-80028152D02*
X186977144Y-80028152D01*
X186977144Y-80028152D02*
X187072382Y-80075771D01*
X187072382Y-80075771D02*
X187120001Y-80171009D01*
X187120001Y-80171009D02*
X187120001Y-80694819D01*
X187120001Y-80171009D02*
X187167620Y-80075771D01*
X187167620Y-80075771D02*
X187262858Y-80028152D01*
X187262858Y-80028152D02*
X187405715Y-80028152D01*
X187405715Y-80028152D02*
X187500954Y-80075771D01*
X187500954Y-80075771D02*
X187548573Y-80171009D01*
X187548573Y-80171009D02*
X187548573Y-80694819D01*
X188024763Y-80694819D02*
X188024763Y-80028152D01*
X188024763Y-80123390D02*
X188072382Y-80075771D01*
X188072382Y-80075771D02*
X188167620Y-80028152D01*
X188167620Y-80028152D02*
X188310477Y-80028152D01*
X188310477Y-80028152D02*
X188405715Y-80075771D01*
X188405715Y-80075771D02*
X188453334Y-80171009D01*
X188453334Y-80171009D02*
X188453334Y-80694819D01*
X188453334Y-80171009D02*
X188500953Y-80075771D01*
X188500953Y-80075771D02*
X188596191Y-80028152D01*
X188596191Y-80028152D02*
X188739048Y-80028152D01*
X188739048Y-80028152D02*
X188834287Y-80075771D01*
X188834287Y-80075771D02*
X188881906Y-80171009D01*
X188881906Y-80171009D02*
X188881906Y-80694819D01*
X166294819Y-89435160D02*
X166294819Y-90006588D01*
X166294819Y-89720874D02*
X165294819Y-89720874D01*
X165294819Y-89720874D02*
X165437676Y-89816112D01*
X165437676Y-89816112D02*
X165532914Y-89911350D01*
X165532914Y-89911350D02*
X165580533Y-90006588D01*
X165294819Y-88816112D02*
X165294819Y-88720874D01*
X165294819Y-88720874D02*
X165342438Y-88625636D01*
X165342438Y-88625636D02*
X165390057Y-88578017D01*
X165390057Y-88578017D02*
X165485295Y-88530398D01*
X165485295Y-88530398D02*
X165675771Y-88482779D01*
X165675771Y-88482779D02*
X165913866Y-88482779D01*
X165913866Y-88482779D02*
X166104342Y-88530398D01*
X166104342Y-88530398D02*
X166199580Y-88578017D01*
X166199580Y-88578017D02*
X166247200Y-88625636D01*
X166247200Y-88625636D02*
X166294819Y-88720874D01*
X166294819Y-88720874D02*
X166294819Y-88816112D01*
X166294819Y-88816112D02*
X166247200Y-88911350D01*
X166247200Y-88911350D02*
X166199580Y-88958969D01*
X166199580Y-88958969D02*
X166104342Y-89006588D01*
X166104342Y-89006588D02*
X165913866Y-89054207D01*
X165913866Y-89054207D02*
X165675771Y-89054207D01*
X165675771Y-89054207D02*
X165485295Y-89006588D01*
X165485295Y-89006588D02*
X165390057Y-88958969D01*
X165390057Y-88958969D02*
X165342438Y-88911350D01*
X165342438Y-88911350D02*
X165294819Y-88816112D01*
X166199580Y-88054207D02*
X166247200Y-88006588D01*
X166247200Y-88006588D02*
X166294819Y-88054207D01*
X166294819Y-88054207D02*
X166247200Y-88101826D01*
X166247200Y-88101826D02*
X166199580Y-88054207D01*
X166199580Y-88054207D02*
X166294819Y-88054207D01*
X165294819Y-87101827D02*
X165294819Y-87578017D01*
X165294819Y-87578017D02*
X165771009Y-87625636D01*
X165771009Y-87625636D02*
X165723390Y-87578017D01*
X165723390Y-87578017D02*
X165675771Y-87482779D01*
X165675771Y-87482779D02*
X165675771Y-87244684D01*
X165675771Y-87244684D02*
X165723390Y-87149446D01*
X165723390Y-87149446D02*
X165771009Y-87101827D01*
X165771009Y-87101827D02*
X165866247Y-87054208D01*
X165866247Y-87054208D02*
X166104342Y-87054208D01*
X166104342Y-87054208D02*
X166199580Y-87101827D01*
X166199580Y-87101827D02*
X166247200Y-87149446D01*
X166247200Y-87149446D02*
X166294819Y-87244684D01*
X166294819Y-87244684D02*
X166294819Y-87482779D01*
X166294819Y-87482779D02*
X166247200Y-87578017D01*
X166247200Y-87578017D02*
X166199580Y-87625636D01*
X166294819Y-86625636D02*
X165628152Y-86625636D01*
X165723390Y-86625636D02*
X165675771Y-86578017D01*
X165675771Y-86578017D02*
X165628152Y-86482779D01*
X165628152Y-86482779D02*
X165628152Y-86339922D01*
X165628152Y-86339922D02*
X165675771Y-86244684D01*
X165675771Y-86244684D02*
X165771009Y-86197065D01*
X165771009Y-86197065D02*
X166294819Y-86197065D01*
X165771009Y-86197065D02*
X165675771Y-86149446D01*
X165675771Y-86149446D02*
X165628152Y-86054208D01*
X165628152Y-86054208D02*
X165628152Y-85911351D01*
X165628152Y-85911351D02*
X165675771Y-85816112D01*
X165675771Y-85816112D02*
X165771009Y-85768493D01*
X165771009Y-85768493D02*
X166294819Y-85768493D01*
X166294819Y-85292303D02*
X165628152Y-85292303D01*
X165723390Y-85292303D02*
X165675771Y-85244684D01*
X165675771Y-85244684D02*
X165628152Y-85149446D01*
X165628152Y-85149446D02*
X165628152Y-85006589D01*
X165628152Y-85006589D02*
X165675771Y-84911351D01*
X165675771Y-84911351D02*
X165771009Y-84863732D01*
X165771009Y-84863732D02*
X166294819Y-84863732D01*
X165771009Y-84863732D02*
X165675771Y-84816113D01*
X165675771Y-84816113D02*
X165628152Y-84720875D01*
X165628152Y-84720875D02*
X165628152Y-84578018D01*
X165628152Y-84578018D02*
X165675771Y-84482779D01*
X165675771Y-84482779D02*
X165771009Y-84435160D01*
X165771009Y-84435160D02*
X166294819Y-84435160D01*
X170007143Y-94704819D02*
X169816667Y-94704819D01*
X169816667Y-94704819D02*
X169721429Y-94752438D01*
X169721429Y-94752438D02*
X169673810Y-94800057D01*
X169673810Y-94800057D02*
X169578572Y-94942914D01*
X169578572Y-94942914D02*
X169530953Y-95133390D01*
X169530953Y-95133390D02*
X169530953Y-95514342D01*
X169530953Y-95514342D02*
X169578572Y-95609580D01*
X169578572Y-95609580D02*
X169626191Y-95657200D01*
X169626191Y-95657200D02*
X169721429Y-95704819D01*
X169721429Y-95704819D02*
X169911905Y-95704819D01*
X169911905Y-95704819D02*
X170007143Y-95657200D01*
X170007143Y-95657200D02*
X170054762Y-95609580D01*
X170054762Y-95609580D02*
X170102381Y-95514342D01*
X170102381Y-95514342D02*
X170102381Y-95276247D01*
X170102381Y-95276247D02*
X170054762Y-95181009D01*
X170054762Y-95181009D02*
X170007143Y-95133390D01*
X170007143Y-95133390D02*
X169911905Y-95085771D01*
X169911905Y-95085771D02*
X169721429Y-95085771D01*
X169721429Y-95085771D02*
X169626191Y-95133390D01*
X169626191Y-95133390D02*
X169578572Y-95181009D01*
X169578572Y-95181009D02*
X169530953Y-95276247D01*
X170530953Y-95704819D02*
X170530953Y-95038152D01*
X170530953Y-95133390D02*
X170578572Y-95085771D01*
X170578572Y-95085771D02*
X170673810Y-95038152D01*
X170673810Y-95038152D02*
X170816667Y-95038152D01*
X170816667Y-95038152D02*
X170911905Y-95085771D01*
X170911905Y-95085771D02*
X170959524Y-95181009D01*
X170959524Y-95181009D02*
X170959524Y-95704819D01*
X170959524Y-95181009D02*
X171007143Y-95085771D01*
X171007143Y-95085771D02*
X171102381Y-95038152D01*
X171102381Y-95038152D02*
X171245238Y-95038152D01*
X171245238Y-95038152D02*
X171340477Y-95085771D01*
X171340477Y-95085771D02*
X171388096Y-95181009D01*
X171388096Y-95181009D02*
X171388096Y-95704819D01*
X171864286Y-95704819D02*
X171864286Y-95038152D01*
X171864286Y-95133390D02*
X171911905Y-95085771D01*
X171911905Y-95085771D02*
X172007143Y-95038152D01*
X172007143Y-95038152D02*
X172150000Y-95038152D01*
X172150000Y-95038152D02*
X172245238Y-95085771D01*
X172245238Y-95085771D02*
X172292857Y-95181009D01*
X172292857Y-95181009D02*
X172292857Y-95704819D01*
X172292857Y-95181009D02*
X172340476Y-95085771D01*
X172340476Y-95085771D02*
X172435714Y-95038152D01*
X172435714Y-95038152D02*
X172578571Y-95038152D01*
X172578571Y-95038152D02*
X172673810Y-95085771D01*
X172673810Y-95085771D02*
X172721429Y-95181009D01*
X172721429Y-95181009D02*
X172721429Y-95704819D01*
X122518712Y-86447142D02*
X123185379Y-86447142D01*
X122137760Y-86685237D02*
X122852045Y-86923332D01*
X122852045Y-86923332D02*
X122852045Y-86304285D01*
X123090140Y-85923332D02*
X123137760Y-85875713D01*
X123137760Y-85875713D02*
X123185379Y-85923332D01*
X123185379Y-85923332D02*
X123137760Y-85970951D01*
X123137760Y-85970951D02*
X123090140Y-85923332D01*
X123090140Y-85923332D02*
X123185379Y-85923332D01*
X122185379Y-84970952D02*
X122185379Y-85447142D01*
X122185379Y-85447142D02*
X122661569Y-85494761D01*
X122661569Y-85494761D02*
X122613950Y-85447142D01*
X122613950Y-85447142D02*
X122566331Y-85351904D01*
X122566331Y-85351904D02*
X122566331Y-85113809D01*
X122566331Y-85113809D02*
X122613950Y-85018571D01*
X122613950Y-85018571D02*
X122661569Y-84970952D01*
X122661569Y-84970952D02*
X122756807Y-84923333D01*
X122756807Y-84923333D02*
X122994902Y-84923333D01*
X122994902Y-84923333D02*
X123090140Y-84970952D01*
X123090140Y-84970952D02*
X123137760Y-85018571D01*
X123137760Y-85018571D02*
X123185379Y-85113809D01*
X123185379Y-85113809D02*
X123185379Y-85351904D01*
X123185379Y-85351904D02*
X123137760Y-85447142D01*
X123137760Y-85447142D02*
X123090140Y-85494761D01*
X123185379Y-84494761D02*
X122518712Y-84494761D01*
X122613950Y-84494761D02*
X122566331Y-84447142D01*
X122566331Y-84447142D02*
X122518712Y-84351904D01*
X122518712Y-84351904D02*
X122518712Y-84209047D01*
X122518712Y-84209047D02*
X122566331Y-84113809D01*
X122566331Y-84113809D02*
X122661569Y-84066190D01*
X122661569Y-84066190D02*
X123185379Y-84066190D01*
X122661569Y-84066190D02*
X122566331Y-84018571D01*
X122566331Y-84018571D02*
X122518712Y-83923333D01*
X122518712Y-83923333D02*
X122518712Y-83780476D01*
X122518712Y-83780476D02*
X122566331Y-83685237D01*
X122566331Y-83685237D02*
X122661569Y-83637618D01*
X122661569Y-83637618D02*
X123185379Y-83637618D01*
X123185379Y-83161428D02*
X122518712Y-83161428D01*
X122613950Y-83161428D02*
X122566331Y-83113809D01*
X122566331Y-83113809D02*
X122518712Y-83018571D01*
X122518712Y-83018571D02*
X122518712Y-82875714D01*
X122518712Y-82875714D02*
X122566331Y-82780476D01*
X122566331Y-82780476D02*
X122661569Y-82732857D01*
X122661569Y-82732857D02*
X123185379Y-82732857D01*
X122661569Y-82732857D02*
X122566331Y-82685238D01*
X122566331Y-82685238D02*
X122518712Y-82590000D01*
X122518712Y-82590000D02*
X122518712Y-82447143D01*
X122518712Y-82447143D02*
X122566331Y-82351904D01*
X122566331Y-82351904D02*
X122661569Y-82304285D01*
X122661569Y-82304285D02*
X123185379Y-82304285D01*
D11*
X125000560Y-82250000D02*
X123914140Y-82250000D01*
X123914140Y-86750000D02*
X125000560Y-86750000D01*
X124500560Y-82250000D02*
X124500560Y-86750000D01*
X124500560Y-82250000D02*
X125086981Y-83376504D01*
X124500560Y-82250000D02*
X123914139Y-83376504D01*
X124500560Y-86750000D02*
X123914139Y-85623496D01*
X124500560Y-86750000D02*
X125086981Y-85623496D01*
D10*
X127517702Y-79164819D02*
X127327226Y-79164819D01*
X127327226Y-79164819D02*
X127231988Y-79212438D01*
X127231988Y-79212438D02*
X127184369Y-79260057D01*
X127184369Y-79260057D02*
X127089131Y-79402914D01*
X127089131Y-79402914D02*
X127041512Y-79593390D01*
X127041512Y-79593390D02*
X127041512Y-79974342D01*
X127041512Y-79974342D02*
X127089131Y-80069580D01*
X127089131Y-80069580D02*
X127136750Y-80117200D01*
X127136750Y-80117200D02*
X127231988Y-80164819D01*
X127231988Y-80164819D02*
X127422464Y-80164819D01*
X127422464Y-80164819D02*
X127517702Y-80117200D01*
X127517702Y-80117200D02*
X127565321Y-80069580D01*
X127565321Y-80069580D02*
X127612940Y-79974342D01*
X127612940Y-79974342D02*
X127612940Y-79736247D01*
X127612940Y-79736247D02*
X127565321Y-79641009D01*
X127565321Y-79641009D02*
X127517702Y-79593390D01*
X127517702Y-79593390D02*
X127422464Y-79545771D01*
X127422464Y-79545771D02*
X127231988Y-79545771D01*
X127231988Y-79545771D02*
X127136750Y-79593390D01*
X127136750Y-79593390D02*
X127089131Y-79641009D01*
X127089131Y-79641009D02*
X127041512Y-79736247D01*
X128041512Y-80164819D02*
X128041512Y-79498152D01*
X128041512Y-79593390D02*
X128089131Y-79545771D01*
X128089131Y-79545771D02*
X128184369Y-79498152D01*
X128184369Y-79498152D02*
X128327226Y-79498152D01*
X128327226Y-79498152D02*
X128422464Y-79545771D01*
X128422464Y-79545771D02*
X128470083Y-79641009D01*
X128470083Y-79641009D02*
X128470083Y-80164819D01*
X128470083Y-79641009D02*
X128517702Y-79545771D01*
X128517702Y-79545771D02*
X128612940Y-79498152D01*
X128612940Y-79498152D02*
X128755797Y-79498152D01*
X128755797Y-79498152D02*
X128851036Y-79545771D01*
X128851036Y-79545771D02*
X128898655Y-79641009D01*
X128898655Y-79641009D02*
X128898655Y-80164819D01*
X129374845Y-80164819D02*
X129374845Y-79498152D01*
X129374845Y-79593390D02*
X129422464Y-79545771D01*
X129422464Y-79545771D02*
X129517702Y-79498152D01*
X129517702Y-79498152D02*
X129660559Y-79498152D01*
X129660559Y-79498152D02*
X129755797Y-79545771D01*
X129755797Y-79545771D02*
X129803416Y-79641009D01*
X129803416Y-79641009D02*
X129803416Y-80164819D01*
X129803416Y-79641009D02*
X129851035Y-79545771D01*
X129851035Y-79545771D02*
X129946273Y-79498152D01*
X129946273Y-79498152D02*
X130089130Y-79498152D01*
X130089130Y-79498152D02*
X130184369Y-79545771D01*
X130184369Y-79545771D02*
X130231988Y-79641009D01*
X130231988Y-79641009D02*
X130231988Y-80164819D01*
D11*
X125500560Y-81750000D02*
X125500560Y-80583580D01*
X131500560Y-80583580D02*
X131500560Y-81750000D01*
X125500560Y-81170000D02*
X131500560Y-81170000D01*
X125500560Y-81170000D02*
X126627064Y-80583579D01*
X125500560Y-81170000D02*
X126627064Y-81756421D01*
X131500560Y-81170000D02*
X130374056Y-81756421D01*
X131500560Y-81170000D02*
X130374056Y-80583579D01*
D10*
X166294819Y-89435160D02*
X166294819Y-90006588D01*
X166294819Y-89720874D02*
X165294819Y-89720874D01*
X165294819Y-89720874D02*
X165437676Y-89816112D01*
X165437676Y-89816112D02*
X165532914Y-89911350D01*
X165532914Y-89911350D02*
X165580533Y-90006588D01*
X165294819Y-88816112D02*
X165294819Y-88720874D01*
X165294819Y-88720874D02*
X165342438Y-88625636D01*
X165342438Y-88625636D02*
X165390057Y-88578017D01*
X165390057Y-88578017D02*
X165485295Y-88530398D01*
X165485295Y-88530398D02*
X165675771Y-88482779D01*
X165675771Y-88482779D02*
X165913866Y-88482779D01*
X165913866Y-88482779D02*
X166104342Y-88530398D01*
X166104342Y-88530398D02*
X166199580Y-88578017D01*
X166199580Y-88578017D02*
X166247200Y-88625636D01*
X166247200Y-88625636D02*
X166294819Y-88720874D01*
X166294819Y-88720874D02*
X166294819Y-88816112D01*
X166294819Y-88816112D02*
X166247200Y-88911350D01*
X166247200Y-88911350D02*
X166199580Y-88958969D01*
X166199580Y-88958969D02*
X166104342Y-89006588D01*
X166104342Y-89006588D02*
X165913866Y-89054207D01*
X165913866Y-89054207D02*
X165675771Y-89054207D01*
X165675771Y-89054207D02*
X165485295Y-89006588D01*
X165485295Y-89006588D02*
X165390057Y-88958969D01*
X165390057Y-88958969D02*
X165342438Y-88911350D01*
X165342438Y-88911350D02*
X165294819Y-88816112D01*
X166199580Y-88054207D02*
X166247200Y-88006588D01*
X166247200Y-88006588D02*
X166294819Y-88054207D01*
X166294819Y-88054207D02*
X166247200Y-88101826D01*
X166247200Y-88101826D02*
X166199580Y-88054207D01*
X166199580Y-88054207D02*
X166294819Y-88054207D01*
X165294819Y-87101827D02*
X165294819Y-87578017D01*
X165294819Y-87578017D02*
X165771009Y-87625636D01*
X165771009Y-87625636D02*
X165723390Y-87578017D01*
X165723390Y-87578017D02*
X165675771Y-87482779D01*
X165675771Y-87482779D02*
X165675771Y-87244684D01*
X165675771Y-87244684D02*
X165723390Y-87149446D01*
X165723390Y-87149446D02*
X165771009Y-87101827D01*
X165771009Y-87101827D02*
X165866247Y-87054208D01*
X165866247Y-87054208D02*
X166104342Y-87054208D01*
X166104342Y-87054208D02*
X166199580Y-87101827D01*
X166199580Y-87101827D02*
X166247200Y-87149446D01*
X166247200Y-87149446D02*
X166294819Y-87244684D01*
X166294819Y-87244684D02*
X166294819Y-87482779D01*
X166294819Y-87482779D02*
X166247200Y-87578017D01*
X166247200Y-87578017D02*
X166199580Y-87625636D01*
X166294819Y-86625636D02*
X165628152Y-86625636D01*
X165723390Y-86625636D02*
X165675771Y-86578017D01*
X165675771Y-86578017D02*
X165628152Y-86482779D01*
X165628152Y-86482779D02*
X165628152Y-86339922D01*
X165628152Y-86339922D02*
X165675771Y-86244684D01*
X165675771Y-86244684D02*
X165771009Y-86197065D01*
X165771009Y-86197065D02*
X166294819Y-86197065D01*
X165771009Y-86197065D02*
X165675771Y-86149446D01*
X165675771Y-86149446D02*
X165628152Y-86054208D01*
X165628152Y-86054208D02*
X165628152Y-85911351D01*
X165628152Y-85911351D02*
X165675771Y-85816112D01*
X165675771Y-85816112D02*
X165771009Y-85768493D01*
X165771009Y-85768493D02*
X166294819Y-85768493D01*
X166294819Y-85292303D02*
X165628152Y-85292303D01*
X165723390Y-85292303D02*
X165675771Y-85244684D01*
X165675771Y-85244684D02*
X165628152Y-85149446D01*
X165628152Y-85149446D02*
X165628152Y-85006589D01*
X165628152Y-85006589D02*
X165675771Y-84911351D01*
X165675771Y-84911351D02*
X165771009Y-84863732D01*
X165771009Y-84863732D02*
X166294819Y-84863732D01*
X165771009Y-84863732D02*
X165675771Y-84816113D01*
X165675771Y-84816113D02*
X165628152Y-84720875D01*
X165628152Y-84720875D02*
X165628152Y-84578018D01*
X165628152Y-84578018D02*
X165675771Y-84482779D01*
X165675771Y-84482779D02*
X165771009Y-84435160D01*
X165771009Y-84435160D02*
X166294819Y-84435160D01*
D11*
X167510000Y-92410000D02*
X166383580Y-92410000D01*
X166383580Y-81910000D02*
X167510000Y-81910000D01*
X166970000Y-92410000D02*
X166970000Y-81910000D01*
X166970000Y-92410000D02*
X166383579Y-91283496D01*
X166970000Y-92410000D02*
X167556421Y-91283496D01*
X166970000Y-81910000D02*
X167556421Y-83036504D01*
X166970000Y-81910000D02*
X166383579Y-83036504D01*
D10*
X170007143Y-94704819D02*
X169816667Y-94704819D01*
X169816667Y-94704819D02*
X169721429Y-94752438D01*
X169721429Y-94752438D02*
X169673810Y-94800057D01*
X169673810Y-94800057D02*
X169578572Y-94942914D01*
X169578572Y-94942914D02*
X169530953Y-95133390D01*
X169530953Y-95133390D02*
X169530953Y-95514342D01*
X169530953Y-95514342D02*
X169578572Y-95609580D01*
X169578572Y-95609580D02*
X169626191Y-95657200D01*
X169626191Y-95657200D02*
X169721429Y-95704819D01*
X169721429Y-95704819D02*
X169911905Y-95704819D01*
X169911905Y-95704819D02*
X170007143Y-95657200D01*
X170007143Y-95657200D02*
X170054762Y-95609580D01*
X170054762Y-95609580D02*
X170102381Y-95514342D01*
X170102381Y-95514342D02*
X170102381Y-95276247D01*
X170102381Y-95276247D02*
X170054762Y-95181009D01*
X170054762Y-95181009D02*
X170007143Y-95133390D01*
X170007143Y-95133390D02*
X169911905Y-95085771D01*
X169911905Y-95085771D02*
X169721429Y-95085771D01*
X169721429Y-95085771D02*
X169626191Y-95133390D01*
X169626191Y-95133390D02*
X169578572Y-95181009D01*
X169578572Y-95181009D02*
X169530953Y-95276247D01*
X170530953Y-95704819D02*
X170530953Y-95038152D01*
X170530953Y-95133390D02*
X170578572Y-95085771D01*
X170578572Y-95085771D02*
X170673810Y-95038152D01*
X170673810Y-95038152D02*
X170816667Y-95038152D01*
X170816667Y-95038152D02*
X170911905Y-95085771D01*
X170911905Y-95085771D02*
X170959524Y-95181009D01*
X170959524Y-95181009D02*
X170959524Y-95704819D01*
X170959524Y-95181009D02*
X171007143Y-95085771D01*
X171007143Y-95085771D02*
X171102381Y-95038152D01*
X171102381Y-95038152D02*
X171245238Y-95038152D01*
X171245238Y-95038152D02*
X171340477Y-95085771D01*
X171340477Y-95085771D02*
X171388096Y-95181009D01*
X171388096Y-95181009D02*
X171388096Y-95704819D01*
X171864286Y-95704819D02*
X171864286Y-95038152D01*
X171864286Y-95133390D02*
X171911905Y-95085771D01*
X171911905Y-95085771D02*
X172007143Y-95038152D01*
X172007143Y-95038152D02*
X172150000Y-95038152D01*
X172150000Y-95038152D02*
X172245238Y-95085771D01*
X172245238Y-95085771D02*
X172292857Y-95181009D01*
X172292857Y-95181009D02*
X172292857Y-95704819D01*
X172292857Y-95181009D02*
X172340476Y-95085771D01*
X172340476Y-95085771D02*
X172435714Y-95038152D01*
X172435714Y-95038152D02*
X172578571Y-95038152D01*
X172578571Y-95038152D02*
X172673810Y-95085771D01*
X172673810Y-95085771D02*
X172721429Y-95181009D01*
X172721429Y-95181009D02*
X172721429Y-95704819D01*
D11*
X168010000Y-92910000D02*
X168010000Y-94036420D01*
X174010000Y-94036420D02*
X174010000Y-92910000D01*
X168010000Y-93450000D02*
X174010000Y-93450000D01*
X168010000Y-93450000D02*
X169136504Y-92863579D01*
X168010000Y-93450000D02*
X169136504Y-94036421D01*
X174010000Y-93450000D02*
X172883496Y-94036421D01*
X174010000Y-93450000D02*
X172883496Y-92863579D01*
M02*
