%TF.GenerationSoftware,KiCad,Pcbnew,9.0.6*%
%TF.CreationDate,2025-12-21T20:44:10+00:00*%
%TF.ProjectId,NewInstallationRibbon,4e657749-6e73-4746-916c-6c6174696f6e,rev?*%
%TF.SameCoordinates,Original*%
%TF.FileFunction,Profile,NP*%
%FSLAX46Y46*%
G04 Gerber Fmt 4.6, Leading zero omitted, Abs format (unit mm)*
G04 Created by KiCad (PCBNEW 9.0.6) date 2025-12-21 20:44:10*
%MOMM*%
%LPD*%
G01*
G04 APERTURE LIST*
%TA.AperFunction,Profile*%
%ADD10C,0.050000*%
%TD*%
G04 APERTURE END LIST*
D10*
X163790560Y-81914214D02*
G75*
G02*
X164083438Y-81207092I1000040J14D01*
G01*
X201980000Y-123038286D02*
X201980000Y-96360000D01*
X131500000Y-86750000D02*
X135440560Y-86750000D01*
X179240000Y-108830000D02*
G75*
G02*
X178740000Y-109330000I-500000J0D01*
G01*
X167659500Y-122573000D02*
X177839550Y-122573000D01*
X178270000Y-139213000D02*
G75*
G02*
X179270000Y-138213000I1000000J0D01*
G01*
X212500000Y-80000000D02*
X215730325Y-80000000D01*
X191700000Y-66040000D02*
G75*
G02*
X192700000Y-65040000I1000000J0D01*
G01*
X169040560Y-72950000D02*
X169040560Y-60000000D01*
X142769500Y-119403000D02*
X142769500Y-119603000D01*
X122649500Y-124573000D02*
G75*
G02*
X122649500Y-122573000I-10000J1000000D01*
G01*
X116500000Y-141923000D02*
X116500000Y-88500000D01*
X174790560Y-67160000D02*
X174790560Y-67150000D01*
X163900000Y-142923000D02*
X177270012Y-142922843D01*
X172520580Y-119403001D02*
G75*
G02*
X175278421Y-119403000I1378920J831101D01*
G01*
X216239349Y-94359349D02*
G75*
G02*
X215239349Y-95360049I-1000049J-651D01*
G01*
X135640560Y-86950000D02*
X135640560Y-87300000D01*
X187512393Y-137920107D02*
G75*
G02*
X186805286Y-138212961I-707093J707207D01*
G01*
X179662393Y-120395893D02*
X182976607Y-123710107D01*
X187524214Y-82910000D02*
G75*
G02*
X186817121Y-82617093I-14J999900D01*
G01*
X175278421Y-119403001D02*
X175832090Y-119956670D01*
X178270000Y-141922843D02*
X178270000Y-139213000D01*
X153096465Y-143520000D02*
X151430000Y-143520000D01*
X193840000Y-91410000D02*
X187514214Y-91410000D01*
X212000000Y-83095786D02*
G75*
G02*
X211707093Y-83802879I-999900J-14D01*
G01*
X169040560Y-72950000D02*
G75*
G02*
X168040560Y-73949960I-999960J0D01*
G01*
X135440560Y-86750000D02*
G75*
G02*
X135640500Y-86950000I40J-199900D01*
G01*
X153096465Y-143520000D02*
X153096465Y-142923000D01*
X175417160Y-80910000D02*
X184695786Y-80910000D01*
X185402893Y-93107107D02*
G75*
G02*
X184695786Y-93399990I-707093J707107D01*
G01*
X154790560Y-106500000D02*
X154790560Y-99500000D01*
X215730325Y-80000000D02*
G75*
G02*
X216230300Y-80499674I-25J-500000D01*
G01*
X172519500Y-119603000D02*
G75*
G02*
X172019500Y-120103000I-500000J0D01*
G01*
X174790560Y-60000000D02*
X174790560Y-67160000D01*
X139810560Y-86750000D02*
G75*
G02*
X138810600Y-85750000I40J1000000D01*
G01*
X132290560Y-90500000D02*
G75*
G02*
X132790500Y-91000000I40J-499900D01*
G01*
X192700000Y-65040000D02*
X197410000Y-65040000D01*
X132790560Y-95000000D02*
X132790560Y-91000000D01*
X119790000Y-119100000D02*
X119790000Y-91010000D01*
X151430000Y-142923000D02*
X151430000Y-143520000D01*
X191700000Y-81910000D02*
X191700000Y-66040000D01*
X137810560Y-82250000D02*
G75*
G02*
X138810600Y-83250000I40J-1000000D01*
G01*
X207995786Y-87100000D02*
X199814214Y-87100000D01*
X143269500Y-120103000D02*
G75*
G02*
X142769500Y-119603000I0J500000D01*
G01*
X183683714Y-124003000D02*
G75*
G02*
X182976621Y-123710093I-14J999900D01*
G01*
X145159500Y-124573000D02*
X152639500Y-124573000D01*
X174706509Y-81206456D02*
G75*
G02*
X175417160Y-80909984I710591J-703344D01*
G01*
X194592893Y-82292893D02*
G75*
G02*
X194300010Y-81585786I707107J707093D01*
G01*
X194840000Y-120873563D02*
G75*
G02*
X194547084Y-121580647I-999800J-37D01*
G01*
X160470000Y-142921500D02*
X160470000Y-143518500D01*
X141550000Y-142923000D02*
X141550000Y-143520000D01*
X170040560Y-59000000D02*
X173790560Y-59000000D01*
X157659500Y-122573000D02*
X162639500Y-122573000D01*
X128590000Y-98500000D02*
G75*
G02*
X127590000Y-97500000I0J1000000D01*
G01*
X158790560Y-85750000D02*
G75*
G02*
X157790560Y-86750060I-1000060J0D01*
G01*
X140009500Y-119403000D02*
G75*
G02*
X142767311Y-119402981I1378900J831100D01*
G01*
X162790560Y-90010000D02*
X161954774Y-90010000D01*
X184695786Y-80910000D02*
G75*
G02*
X185402900Y-81202886I14J-1000000D01*
G01*
X163790560Y-89010000D02*
G75*
G02*
X162790560Y-90010060I-1000060J0D01*
G01*
X179270000Y-138212959D02*
X186805300Y-138212959D01*
X195300000Y-73330000D02*
X197410000Y-73330000D01*
X161247667Y-90302893D02*
G75*
G02*
X161954774Y-90010023I707033J-707007D01*
G01*
X159540560Y-106500000D02*
X159540560Y-92424214D01*
X167659550Y-124573000D02*
G75*
G02*
X167659550Y-122573000I-10050J1000000D01*
G01*
X174560122Y-75077708D02*
X171190468Y-79138573D01*
X172519500Y-119403000D02*
X172519500Y-119603000D01*
X153790560Y-96000000D02*
X133790560Y-96000000D01*
X145159500Y-122573000D02*
X152639500Y-122573000D01*
X199814214Y-87100000D02*
G75*
G02*
X199107100Y-86807114I-14J1000000D01*
G01*
X194300000Y-74330000D02*
G75*
G02*
X195300000Y-73330000I1000000J0D01*
G01*
X160470000Y-142923000D02*
X153096465Y-142923000D01*
X163900000Y-143517000D02*
X163900000Y-142923000D01*
X193840000Y-91410000D02*
G75*
G02*
X194840000Y-92410000I0J-1000000D01*
G01*
X119790000Y-91010000D02*
G75*
G02*
X120790000Y-90010000I1000000J0D01*
G01*
X159790560Y-73950000D02*
X168040560Y-73950000D01*
X178270000Y-141922843D02*
G75*
G02*
X177270012Y-142922900I-1000100J43D01*
G01*
X155290560Y-107000000D02*
G75*
G02*
X154790500Y-106500000I40J500100D01*
G01*
X211707107Y-83802893D02*
X208702893Y-86807107D01*
X162639500Y-122573000D02*
G75*
G02*
X162639500Y-124573000I10000J-1000000D01*
G01*
X135640560Y-87300000D02*
G75*
G02*
X135440560Y-87499960I-199960J0D01*
G01*
X138810560Y-83250000D02*
X138810560Y-85750000D01*
X139810560Y-86750000D02*
X157790560Y-86750000D01*
X117500000Y-142923000D02*
G75*
G02*
X116500000Y-141923000I0J1000000D01*
G01*
X153790560Y-90010000D02*
X120790000Y-90010000D01*
X173790560Y-59000000D02*
G75*
G02*
X174790500Y-60000000I40J-999900D01*
G01*
X192417670Y-123710107D02*
G75*
G02*
X191710563Y-124002974I-707070J707107D01*
G01*
X116500000Y-88500000D02*
G75*
G02*
X117500000Y-87500000I1000000J0D01*
G01*
X127590000Y-91000000D02*
G75*
G02*
X128090000Y-90500000I500000J0D01*
G01*
X161247667Y-90302893D02*
X159833453Y-91717107D01*
X178740000Y-109330000D02*
X175500000Y-109330000D01*
X120789950Y-120103000D02*
G75*
G02*
X119789950Y-119093000I-50J1000000D01*
G01*
X191700000Y-81910000D02*
G75*
G02*
X190700000Y-82910000I-1000000J0D01*
G01*
X157659500Y-124573000D02*
X162639500Y-124573000D01*
X194592893Y-82292893D02*
X199107107Y-86807107D01*
X212000000Y-80500000D02*
G75*
G02*
X212500000Y-80000000I500000J0D01*
G01*
X174790560Y-67150000D02*
X174790560Y-74439135D01*
X192417670Y-123710107D02*
X194547107Y-121580670D01*
X174790560Y-74439135D02*
G75*
G02*
X174560097Y-75077687I-999960J35D01*
G01*
X153790560Y-90010000D02*
G75*
G02*
X154790600Y-91010000I40J-1000000D01*
G01*
X172019500Y-120103000D02*
X143269500Y-120103000D01*
X159540560Y-106500000D02*
G75*
G02*
X159040560Y-106999960I-499960J0D01*
G01*
X201980000Y-96360000D02*
G75*
G02*
X202980000Y-95360000I1000000J0D01*
G01*
X178955286Y-120103000D02*
G75*
G02*
X179662379Y-120395907I14J-999900D01*
G01*
X185402893Y-81202893D02*
X186817107Y-82617107D01*
X215239349Y-95360000D02*
X202980000Y-95360000D01*
X174010000Y-81910000D02*
X174706509Y-81206456D01*
X187524214Y-82910000D02*
X190700000Y-82910000D01*
X145159550Y-124573000D02*
G75*
G02*
X145159550Y-122573000I-10050J1000000D01*
G01*
X131500000Y-82250000D02*
X137810560Y-82250000D01*
X146790000Y-143520000D02*
X146790000Y-142923000D01*
X170420906Y-79500000D02*
X166204774Y-79500000D01*
X175500000Y-109330000D02*
G75*
G02*
X175000000Y-108830000I0J500000D01*
G01*
X216230325Y-80499674D02*
X216239349Y-94359349D01*
X140009500Y-119603000D02*
G75*
G02*
X139509500Y-120103000I-500000J0D01*
G01*
X198410000Y-72330000D02*
G75*
G02*
X197410000Y-73330000I-1000000J0D01*
G01*
X198410000Y-66040000D02*
X198410000Y-72330000D01*
X158790560Y-74950000D02*
G75*
G02*
X159790560Y-73950060I999940J0D01*
G01*
X174707107Y-93107107D02*
G75*
G02*
X174999990Y-93814214I-707107J-707093D01*
G01*
X187512393Y-137920107D02*
X201687107Y-123745393D01*
X141550000Y-142923000D02*
X117500000Y-142923000D01*
X176185664Y-120103116D02*
G75*
G02*
X175832107Y-119956653I-64J499816D01*
G01*
X176185664Y-120103116D02*
X178955286Y-120103000D01*
X151430000Y-142923000D02*
X146790000Y-142923000D01*
X159040560Y-107000000D02*
X155290560Y-107000000D01*
X140009500Y-119403000D02*
X140009500Y-119603000D01*
X158790560Y-85750000D02*
X158790560Y-74950000D01*
X194300000Y-74330000D02*
X194300000Y-81585786D01*
X139509500Y-120103000D02*
X120790000Y-120103000D01*
X154790560Y-95000000D02*
G75*
G02*
X153790560Y-96000060I-1000060J0D01*
G01*
X157659550Y-124573000D02*
G75*
G02*
X157659550Y-122573000I-10050J1000000D01*
G01*
X154790560Y-95000000D02*
X154790560Y-91010000D01*
X169040560Y-60000000D02*
G75*
G02*
X170040560Y-58999960I1000040J0D01*
G01*
X201980000Y-123038286D02*
G75*
G02*
X201687114Y-123745400I-1000000J-14D01*
G01*
X177839550Y-122573000D02*
G75*
G02*
X177839550Y-124573000I10050J-1000000D01*
G01*
X197410000Y-65040000D02*
G75*
G02*
X198410000Y-66040000I0J-1000000D01*
G01*
X165497667Y-79792893D02*
G75*
G02*
X166204774Y-79500023I707033J-707007D01*
G01*
X135440560Y-87500000D02*
X117500000Y-87500000D01*
X140139500Y-122573000D02*
G75*
G02*
X140139500Y-124573000I10000J-1000000D01*
G01*
X194840000Y-120873563D02*
X194840000Y-92410000D01*
X174707107Y-93107107D02*
X174010000Y-92410000D01*
X163790560Y-89010000D02*
X163790560Y-81914214D01*
X171190468Y-79138573D02*
G75*
G02*
X170420906Y-79500005I-769568J638573D01*
G01*
X167659500Y-124573000D02*
X177839550Y-124573000D01*
X141550000Y-143520000D02*
X146790000Y-143520000D01*
X133790560Y-96000000D02*
G75*
G02*
X132790500Y-95000000I40J1000100D01*
G01*
X212000000Y-80500000D02*
X212000000Y-83095786D01*
X159540560Y-92424214D02*
G75*
G02*
X159833438Y-91717092I1000040J14D01*
G01*
X128590000Y-98500000D02*
X153790560Y-98500000D01*
X122649500Y-124573000D02*
X140139500Y-124573000D01*
X160470000Y-143518500D02*
X163900000Y-143518500D01*
X152639450Y-122573000D02*
G75*
G02*
X152639450Y-124573000I10050J-1000000D01*
G01*
X153790560Y-98500000D02*
G75*
G02*
X154790500Y-99500000I40J-999900D01*
G01*
X127590000Y-91000000D02*
X127590000Y-97500000D01*
X208702893Y-86807107D02*
G75*
G02*
X207995786Y-87099961I-707093J707207D01*
G01*
X179240000Y-94400000D02*
G75*
G02*
X180240000Y-93400000I1000000J0D01*
G01*
X183683714Y-124003000D02*
X191710563Y-124003000D01*
X132290560Y-90500000D02*
X128090000Y-90500000D01*
X179240000Y-94400000D02*
X179240000Y-108830000D01*
X186807107Y-91702893D02*
G75*
G02*
X187514214Y-91410039I707093J-707207D01*
G01*
X175000000Y-108830000D02*
X175000000Y-93814214D01*
X185402893Y-93107107D02*
X186807107Y-91702893D01*
X165497667Y-79792893D02*
X164083453Y-81207107D01*
X122649500Y-122573000D02*
X140139500Y-122573000D01*
X180240000Y-93400000D02*
X184695786Y-93400000D01*
%TO.C,J11*%
X125500560Y-82550000D02*
X125500560Y-86450000D01*
X125800560Y-86750000D02*
X131500560Y-86750000D01*
X131500560Y-82250000D02*
X125800560Y-82250000D01*
X125500560Y-82550000D02*
G75*
G02*
X125800560Y-82250000I300000J0D01*
G01*
X125800560Y-86750000D02*
G75*
G02*
X125500560Y-86450000I0J300000D01*
G01*
%TO.C,J17*%
X168010000Y-92110000D02*
X168010000Y-82210000D01*
X168310000Y-81910000D02*
X174010000Y-81910000D01*
X174010000Y-92410000D02*
X168310000Y-92410000D01*
X168010000Y-82210000D02*
G75*
G02*
X168310000Y-81910000I300000J0D01*
G01*
X168310000Y-92410000D02*
G75*
G02*
X168010000Y-92110000I0J300000D01*
G01*
%TD*%
M02*
