%TF.GenerationSoftware,KiCad,Pcbnew,9.0.6*%
%TF.CreationDate,2025-12-21T20:44:10+00:00*%
%TF.ProjectId,NewInstallationRibbon,4e657749-6e73-4746-916c-6c6174696f6e,rev?*%
%TF.SameCoordinates,Original*%
%TF.FileFunction,Legend,Top*%
%TF.FilePolarity,Positive*%
%FSLAX46Y46*%
G04 Gerber Fmt 4.6, Leading zero omitted, Abs format (unit mm)*
G04 Created by KiCad (PCBNEW 9.0.6) date 2025-12-21 20:44:10*
%MOMM*%
%LPD*%
G01*
G04 APERTURE LIST*
%ADD10C,0.150000*%
%ADD11C,0.100000*%
%ADD12C,0.200000*%
G04 APERTURE END LIST*
D10*
X174500000Y-91915000D02*
X175430000Y-91915000D01*
X174505000Y-91915000D02*
X174815000Y-91605000D01*
X174505000Y-91915000D02*
X174815000Y-92225000D01*
D11*
X127330000Y-126750000D02*
X135330000Y-126750000D01*
X135330000Y-134750000D01*
X127330000Y-134750000D01*
X127330000Y-126750000D01*
G36*
X127330000Y-126750000D02*
G01*
X135330000Y-126750000D01*
X135330000Y-134750000D01*
X127330000Y-134750000D01*
X127330000Y-126750000D01*
G37*
D12*
X175804435Y-91296028D02*
X174947292Y-91296028D01*
X175375863Y-91296028D02*
X175375863Y-89796028D01*
X175375863Y-89796028D02*
X175233006Y-90010314D01*
X175233006Y-90010314D02*
X175090149Y-90153171D01*
X175090149Y-90153171D02*
X174947292Y-90224600D01*
X176257142Y-104950671D02*
X176185714Y-105022100D01*
X176185714Y-105022100D02*
X175971428Y-105093528D01*
X175971428Y-105093528D02*
X175828571Y-105093528D01*
X175828571Y-105093528D02*
X175614285Y-105022100D01*
X175614285Y-105022100D02*
X175471428Y-104879242D01*
X175471428Y-104879242D02*
X175399999Y-104736385D01*
X175399999Y-104736385D02*
X175328571Y-104450671D01*
X175328571Y-104450671D02*
X175328571Y-104236385D01*
X175328571Y-104236385D02*
X175399999Y-103950671D01*
X175399999Y-103950671D02*
X175471428Y-103807814D01*
X175471428Y-103807814D02*
X175614285Y-103664957D01*
X175614285Y-103664957D02*
X175828571Y-103593528D01*
X175828571Y-103593528D02*
X175971428Y-103593528D01*
X175971428Y-103593528D02*
X176185714Y-103664957D01*
X176185714Y-103664957D02*
X176257142Y-103736385D01*
X177614285Y-105093528D02*
X176899999Y-105093528D01*
X176899999Y-105093528D02*
X176899999Y-103593528D01*
X178114285Y-105093528D02*
X178114285Y-103593528D01*
X178971428Y-105093528D02*
X178328571Y-104236385D01*
X178971428Y-103593528D02*
X178114285Y-104450671D01*
X129101428Y-95067814D02*
X129315714Y-95139242D01*
X129315714Y-95139242D02*
X129387143Y-95210671D01*
X129387143Y-95210671D02*
X129458571Y-95353528D01*
X129458571Y-95353528D02*
X129458571Y-95567814D01*
X129458571Y-95567814D02*
X129387143Y-95710671D01*
X129387143Y-95710671D02*
X129315714Y-95782100D01*
X129315714Y-95782100D02*
X129172857Y-95853528D01*
X129172857Y-95853528D02*
X128601428Y-95853528D01*
X128601428Y-95853528D02*
X128601428Y-94353528D01*
X128601428Y-94353528D02*
X129101428Y-94353528D01*
X129101428Y-94353528D02*
X129244286Y-94424957D01*
X129244286Y-94424957D02*
X129315714Y-94496385D01*
X129315714Y-94496385D02*
X129387143Y-94639242D01*
X129387143Y-94639242D02*
X129387143Y-94782100D01*
X129387143Y-94782100D02*
X129315714Y-94924957D01*
X129315714Y-94924957D02*
X129244286Y-94996385D01*
X129244286Y-94996385D02*
X129101428Y-95067814D01*
X129101428Y-95067814D02*
X128601428Y-95067814D01*
X129744286Y-95996385D02*
X130887143Y-95996385D01*
X132030000Y-95853528D02*
X131172857Y-95853528D01*
X131601428Y-95853528D02*
X131601428Y-94353528D01*
X131601428Y-94353528D02*
X131458571Y-94567814D01*
X131458571Y-94567814D02*
X131315714Y-94710671D01*
X131315714Y-94710671D02*
X131172857Y-94782100D01*
X178620000Y-85066385D02*
X178691428Y-84994957D01*
X178691428Y-84994957D02*
X178834286Y-84923528D01*
X178834286Y-84923528D02*
X179191428Y-84923528D01*
X179191428Y-84923528D02*
X179334286Y-84994957D01*
X179334286Y-84994957D02*
X179405714Y-85066385D01*
X179405714Y-85066385D02*
X179477143Y-85209242D01*
X179477143Y-85209242D02*
X179477143Y-85352100D01*
X179477143Y-85352100D02*
X179405714Y-85566385D01*
X179405714Y-85566385D02*
X178548571Y-86423528D01*
X178548571Y-86423528D02*
X179477143Y-86423528D01*
X180405714Y-84923528D02*
X180548571Y-84923528D01*
X180548571Y-84923528D02*
X180691428Y-84994957D01*
X180691428Y-84994957D02*
X180762857Y-85066385D01*
X180762857Y-85066385D02*
X180834285Y-85209242D01*
X180834285Y-85209242D02*
X180905714Y-85494957D01*
X180905714Y-85494957D02*
X180905714Y-85852100D01*
X180905714Y-85852100D02*
X180834285Y-86137814D01*
X180834285Y-86137814D02*
X180762857Y-86280671D01*
X180762857Y-86280671D02*
X180691428Y-86352100D01*
X180691428Y-86352100D02*
X180548571Y-86423528D01*
X180548571Y-86423528D02*
X180405714Y-86423528D01*
X180405714Y-86423528D02*
X180262857Y-86352100D01*
X180262857Y-86352100D02*
X180191428Y-86280671D01*
X180191428Y-86280671D02*
X180119999Y-86137814D01*
X180119999Y-86137814D02*
X180048571Y-85852100D01*
X180048571Y-85852100D02*
X180048571Y-85494957D01*
X180048571Y-85494957D02*
X180119999Y-85209242D01*
X180119999Y-85209242D02*
X180191428Y-85066385D01*
X180191428Y-85066385D02*
X180262857Y-84994957D01*
X180262857Y-84994957D02*
X180405714Y-84923528D01*
X182691427Y-86423528D02*
X182691427Y-84923528D01*
X182691427Y-84923528D02*
X183262856Y-84923528D01*
X183262856Y-84923528D02*
X183405713Y-84994957D01*
X183405713Y-84994957D02*
X183477142Y-85066385D01*
X183477142Y-85066385D02*
X183548570Y-85209242D01*
X183548570Y-85209242D02*
X183548570Y-85423528D01*
X183548570Y-85423528D02*
X183477142Y-85566385D01*
X183477142Y-85566385D02*
X183405713Y-85637814D01*
X183405713Y-85637814D02*
X183262856Y-85709242D01*
X183262856Y-85709242D02*
X182691427Y-85709242D01*
X184191427Y-86423528D02*
X184191427Y-85423528D01*
X184191427Y-84923528D02*
X184119999Y-84994957D01*
X184119999Y-84994957D02*
X184191427Y-85066385D01*
X184191427Y-85066385D02*
X184262856Y-84994957D01*
X184262856Y-84994957D02*
X184191427Y-84923528D01*
X184191427Y-84923528D02*
X184191427Y-85066385D01*
X184905713Y-85423528D02*
X184905713Y-86423528D01*
X184905713Y-85566385D02*
X184977142Y-85494957D01*
X184977142Y-85494957D02*
X185119999Y-85423528D01*
X185119999Y-85423528D02*
X185334285Y-85423528D01*
X185334285Y-85423528D02*
X185477142Y-85494957D01*
X185477142Y-85494957D02*
X185548571Y-85637814D01*
X185548571Y-85637814D02*
X185548571Y-86423528D01*
D10*
%TO.C,J3*%
X178440000Y-107250000D02*
G75*
G02*
X175840000Y-107250000I-1300000J0D01*
G01*
X175840000Y-107250000D02*
G75*
G02*
X178440000Y-107250000I1300000J0D01*
G01*
%TO.C,J22*%
X131392466Y-92150000D02*
G75*
G02*
X128792466Y-92150000I-1300000J0D01*
G01*
X128792466Y-92150000D02*
G75*
G02*
X131392466Y-92150000I1300000J0D01*
G01*
%TO.C,TP3*%
X175904779Y-98850000D02*
X175904779Y-96340000D01*
X175920000Y-96330000D02*
X178430000Y-96330000D01*
X178430000Y-98860000D02*
X175920000Y-98860000D01*
X178443175Y-96340000D02*
X178443175Y-98850000D01*
%TO.C,J17*%
X174010000Y-92410000D02*
X168010000Y-92410000D01*
X168010000Y-81910000D01*
X174010000Y-81910000D01*
X174010000Y-92410000D01*
%TD*%
M02*
