%TF.GenerationSoftware,KiCad,Pcbnew,9.0.6*%
%TF.CreationDate,2025-12-21T20:44:10+00:00*%
%TF.ProjectId,NewInstallationRibbon,4e657749-6e73-4746-916c-6c6174696f6e,rev?*%
%TF.SameCoordinates,Original*%
%TF.FileFunction,Soldermask,Bot*%
%TF.FilePolarity,Negative*%
%FSLAX46Y46*%
G04 Gerber Fmt 4.6, Leading zero omitted, Abs format (unit mm)*
G04 Created by KiCad (PCBNEW 9.0.6) date 2025-12-21 20:44:10*
%MOMM*%
%LPD*%
G01*
G04 APERTURE LIST*
G04 Aperture macros list*
%AMRoundRect*
0 Rectangle with rounded corners*
0 $1 Rounding radius*
0 $2 $3 $4 $5 $6 $7 $8 $9 X,Y pos of 4 corners*
0 Add a 4 corners polygon primitive as box body*
4,1,4,$2,$3,$4,$5,$6,$7,$8,$9,$2,$3,0*
0 Add four circle primitives for the rounded corners*
1,1,$1+$1,$2,$3*
1,1,$1+$1,$4,$5*
1,1,$1+$1,$6,$7*
1,1,$1+$1,$8,$9*
0 Add four rect primitives between the rounded corners*
20,1,$1+$1,$2,$3,$4,$5,0*
20,1,$1+$1,$4,$5,$6,$7,0*
20,1,$1+$1,$6,$7,$8,$9,0*
20,1,$1+$1,$8,$9,$2,$3,0*%
G04 Aperture macros list end*
%ADD10C,1.700000*%
%ADD11R,2.000000X2.000000*%
%ADD12RoundRect,0.150000X0.350000X0.850000X-0.350000X0.850000X-0.350000X-0.850000X0.350000X-0.850000X0*%
%ADD13R,4.000000X0.350000*%
%ADD14C,1.400000*%
G04 APERTURE END LIST*
D10*
%TO.C,J13*%
X212650000Y-87570000D03*
%TD*%
%TO.C,J12*%
X211650000Y-90280000D03*
%TD*%
D11*
%TO.C,TP6*%
X159699500Y-133063000D03*
%TD*%
D12*
%TO.C,J5*%
X142352161Y-142203000D03*
%TD*%
D10*
%TO.C,J20*%
X196240000Y-69810000D03*
%TD*%
D11*
%TO.C,TP7*%
X169126167Y-133063000D03*
%TD*%
%TO.C,TP8*%
X164412833Y-133063000D03*
%TD*%
D10*
%TO.C,J23*%
X157130560Y-104090000D03*
%TD*%
%TO.C,J21*%
X161980560Y-76050000D03*
%TD*%
D12*
%TO.C,J8*%
X145960093Y-142203000D03*
%TD*%
%TO.C,J10*%
X163097771Y-142203000D03*
%TD*%
%TO.C,J9*%
X161293805Y-142203000D03*
%TD*%
%TO.C,J6*%
X152273974Y-142203000D03*
%TD*%
D10*
%TO.C,J16*%
X142651440Y-123571920D03*
%TD*%
%TO.C,J19*%
X194010000Y-67570000D03*
%TD*%
D13*
%TO.C,J17*%
X170210000Y-91910000D03*
X170210000Y-91410000D03*
X170210000Y-90910000D03*
X170210000Y-90410000D03*
X170210000Y-89910000D03*
X170210000Y-89410000D03*
X170210000Y-88910000D03*
X170210000Y-88410000D03*
X170210000Y-87910000D03*
X170210000Y-87410000D03*
X170210000Y-86910000D03*
X170210000Y-86410000D03*
X170210000Y-85910000D03*
X170210000Y-85410000D03*
X170210000Y-84910000D03*
X170210000Y-84410000D03*
X170210000Y-83910000D03*
X170210000Y-83410000D03*
X170210000Y-82910000D03*
X170210000Y-82410000D03*
%TD*%
D11*
%TO.C,TP4*%
X173809500Y-127803000D03*
%TD*%
D10*
%TO.C,J4*%
X173901570Y-118571930D03*
%TD*%
%TO.C,J14*%
X214160000Y-82070000D03*
%TD*%
%TO.C,J18*%
X212650000Y-93080000D03*
%TD*%
%TO.C,J2*%
X155151550Y-123571920D03*
%TD*%
D11*
%TO.C,TP5*%
X145580000Y-133040000D03*
%TD*%
%TO.C,TP2*%
X148859500Y-127863000D03*
%TD*%
D14*
%TO.C,J25*%
X172640560Y-62070000D03*
X172640560Y-64070000D03*
%TD*%
D11*
%TO.C,TP9*%
X154986167Y-133063000D03*
%TD*%
%TO.C,TP10*%
X150272833Y-133063000D03*
%TD*%
D10*
%TO.C,J1*%
X165151530Y-123571920D03*
%TD*%
D11*
%TO.C,TP1*%
X165109500Y-127753000D03*
%TD*%
D12*
%TO.C,J7*%
X144156127Y-142203000D03*
%TD*%
D10*
%TO.C,J15*%
X141401510Y-118571930D03*
%TD*%
M02*
