M48
; DRILL file {KiCad 9.0.6} date 2025-12-21T20:44:12+0000
; FORMAT={-:-/ absolute / metric / decimal}
; #@! TF.CreationDate,2025-12-21T20:44:12+00:00
; #@! TF.GenerationSoftware,Kicad,Pcbnew,9.0.6
; #@! TF.FileFunction,Plated,1,2,PTH
FMAT,2
METRIC
; #@! TA.AperFunction,Plated,PTH,ViaDrill
T1C0.300
; #@! TA.AperFunction,Plated,PTH,ViaDrill
T2C0.500
; #@! TA.AperFunction,Plated,PTH,ComponentDrill
T3C0.500
; #@! TA.AperFunction,Plated,PTH,ViaDrill
T4C0.600
; #@! TA.AperFunction,Plated,PTH,ComponentDrill
T5C1.000
; #@! TA.AperFunction,Plated,PTH,ComponentDrill
T6C1.200
%
G90
G05
T1
X117.1Y-96.88
X117.1Y-105.96
X117.1Y-116.83
X119.17Y-93.62
X119.17Y-101.11
X119.17Y-112.16
X120.37Y-121.67
X123.45Y-134.12
X123.57Y-129.25
X128.912Y-93.77
X129.992Y-96.77
X131.602Y-93.6
X132.66Y-138.23
X134.581Y-86.13
X135.251Y-83.99
X136.156Y-87.807
X137.311Y-83.93
X138.01Y-82.99
X138.94Y-121.37
X139.71Y-133.78
X140.95Y-137.39
X141.24Y-129.54
X143.99Y-137.24
X144.525Y-125.445
X144.9Y-121.31
X147.52Y-137.33
X147.87Y-133.03
X148.055Y-134.985
X152.145Y-135.915
X152.49Y-133.91
X153.12Y-137.28
X153.317Y-125.407
X154.81Y-128.31
X155.53Y-94.93
X155.59Y-90.41
X155.78Y-98.79
X157.21Y-134.13
X157.631Y-95.53
X158.34Y-137.73
X158.361Y-90.68
X158.53Y-98.03
X158.59Y-94.28
X158.81Y-99.13
X159.44Y-121.4
X159.501Y-86.16
X159.511Y-78.28
X159.761Y-74.99
X161.12Y-128.31
X161.6Y-82.1
X161.62Y-86.03
X161.94Y-133.97
X162.37Y-135.11
X162.871Y-88.94
X163.02Y-137.21
X163.54Y-121.3
X166.66Y-133.89
X166.66Y-135.54
X166.76Y-121.29
X167.47Y-74.66
X167.51Y-78.78
X167.51Y-137.44
X167.54Y-76.75
X167.99Y-127.94
X169.641Y-68.21
X169.66Y-72.89
X170.22Y-121.32
X170.67Y-75.69
X170.84Y-127.87
X171.68Y-66.67
X172.11Y-135.45
X173.87Y-73.13
X173.95Y-68.2
X175.479Y-89.191
X175.61Y-108.6
X175.74Y-84.71
X175.82Y-95.39
X175.88Y-101.17
X176.12Y-91.75
X176.25Y-87.59
X176.61Y-83.919
X177.11Y-86.41
X177.22Y-128.94
X177.88Y-126.78
X178.06Y-85.34
X178.08Y-87.69
X178.08Y-91.75
X178.09Y-131.83
X178.35Y-95.41
X178.44Y-101.14
X178.59Y-108.61
X179.21Y-88.53
X179.23Y-90.43
X179.55Y-87.61
X179.69Y-127.803
X179.8Y-84.1
X180.38Y-90.14
X180.59Y-89.14
X181.38Y-82.46
X181.836Y-83.244
X181.86Y-128.97
X182.14Y-90.46
X182.8Y-82.35
X182.94Y-91.75
X184.04Y-126.81
X184.43Y-135.19
X185.1Y-82.17
X185.23Y-84.67
X187.13Y-86.36
X187.64Y-128.91
X189.08Y-88.32
X189.69Y-126.76
X192.61Y-66.02
X194.01Y-69.98
X194.03Y-88.32
X194.78Y-86.36
X195.44Y-116.08
X195.47Y-103.12
X195.541Y-93.27
X197.07Y-72.38
X197.218Y-97.552
X197.219Y-110.73
X197.219Y-118.36
X197.49Y-66.08
X198.99Y-98.29
X199.15Y-93.35
X199.15Y-105.62
X199.15Y-112.47
X199.15Y-119.88
X201.7Y-87.9
X204.09Y-92.72
X204.375Y-94.315
X205.22Y-91.31
X205.96Y-87.8
X207.44Y-92.4
X208.49Y-94.4
X214.97Y-88.93
X214.98Y-91.3
X214.98Y-94.19
X215.06Y-86.38
T2
X139.56Y-126.63
T4
X146.51Y-127.67
X148.87Y-125.69
X151.062Y-127.662
T5
X172.641Y-62.07
X172.641Y-64.07
T6
X130.092Y-92.15
X141.402Y-118.572
X142.651Y-123.572
X155.152Y-123.572
X157.131Y-104.09
X161.981Y-76.05
X165.152Y-123.572
X173.902Y-118.572
X177.14Y-107.25
X194.01Y-67.57
X196.24Y-69.81
X211.65Y-90.28
X212.65Y-87.57
X212.65Y-93.08
X214.16Y-82.07
T3
X142.352Y-142.653G85X142.352Y-141.753
G05
X144.156Y-142.653G85X144.156Y-141.753
G05
X145.96Y-142.653G85X145.96Y-141.753
G05
X152.274Y-142.653G85X152.274Y-141.753
G05
X161.294Y-142.653G85X161.294Y-141.753
G05
X163.098Y-142.653G85X163.098Y-141.753
G05
M30
