%TF.GenerationSoftware,KiCad,Pcbnew,9.0.6*%
%TF.CreationDate,2025-12-21T20:44:10+00:00*%
%TF.ProjectId,NewInstallationRibbon,4e657749-6e73-4746-916c-6c6174696f6e,rev?*%
%TF.SameCoordinates,Original*%
%TF.FileFunction,Legend,Bot*%
%TF.FilePolarity,Positive*%
%FSLAX46Y46*%
G04 Gerber Fmt 4.6, Leading zero omitted, Abs format (unit mm)*
G04 Created by KiCad (PCBNEW 9.0.6) date 2025-12-21 20:44:10*
%MOMM*%
%LPD*%
G01*
G04 APERTURE LIST*
%ADD10C,0.400000*%
%ADD11C,0.150000*%
%ADD12C,0.500000*%
%ADD13C,0.520000*%
%ADD14C,0.300000*%
%ADD15C,0.200000*%
G04 APERTURE END LIST*
D10*
X163999754Y-140903000D02*
X163999754Y-142500000D01*
X145058110Y-140903000D02*
X145058110Y-142500000D01*
X135136296Y-140903000D02*
X135136296Y-142500000D01*
D11*
X131710000Y-82750000D02*
X132020000Y-82440000D01*
X177537663Y-140138101D02*
X178012663Y-139663101D01*
D10*
X155881907Y-140903000D02*
X155881907Y-142500000D01*
X126116466Y-140903000D02*
X126116466Y-142500000D01*
X150470008Y-140903000D02*
X150470008Y-142500000D01*
X174823551Y-140903000D02*
X174823551Y-142500000D01*
D12*
X142352161Y-140600000D02*
X142352161Y-140370000D01*
D10*
X149568025Y-140903000D02*
X149568025Y-142500000D01*
X117096635Y-140904523D02*
X117096635Y-142501523D01*
D11*
X131710000Y-82750000D02*
X132020000Y-83060000D01*
X131705000Y-82750000D02*
X132635000Y-82750000D01*
X117100000Y-140130000D02*
X117575000Y-139655000D01*
D10*
X117998618Y-140904523D02*
X117998618Y-142501523D01*
D12*
X161293805Y-140630000D02*
X161293805Y-140400000D01*
D10*
X143254144Y-140903000D02*
X143254144Y-142500000D01*
X153175957Y-140903000D02*
X153175957Y-142500000D01*
X128822415Y-140903000D02*
X128822415Y-142500000D01*
X169411652Y-140903000D02*
X169411652Y-142500000D01*
X120704567Y-140903000D02*
X120704567Y-142500000D01*
X146862076Y-140903000D02*
X146862076Y-142500000D01*
D13*
X123560762Y-132712173D02*
X123560762Y-130532173D01*
D10*
X168509669Y-140903000D02*
X168509669Y-142500000D01*
X127018449Y-140903000D02*
X127018449Y-142500000D01*
X140548195Y-140903000D02*
X140548195Y-142500000D01*
X170313636Y-140903000D02*
X170313636Y-142500000D01*
X164901737Y-140903000D02*
X164901737Y-142500000D01*
X131528364Y-140903000D02*
X131528364Y-142500000D01*
D12*
X163097771Y-140640000D02*
X163097771Y-140410000D01*
D10*
X130626381Y-140903000D02*
X130626381Y-142500000D01*
X154077940Y-140903000D02*
X154077940Y-142500000D01*
D12*
X152273974Y-140640000D02*
X152273974Y-140410000D01*
D10*
X172117602Y-140901500D02*
X172117602Y-142498500D01*
D11*
X117100000Y-140130000D02*
X116625000Y-139655000D01*
D10*
X133332330Y-140903000D02*
X133332330Y-142500000D01*
D13*
X123561958Y-130530977D02*
X122574213Y-131518722D01*
D10*
X159489839Y-140903000D02*
X159489839Y-142500000D01*
X177529500Y-140903000D02*
X177529500Y-142500000D01*
X151371991Y-140903000D02*
X151371991Y-142500000D01*
X157685873Y-140903000D02*
X157685873Y-142500000D01*
D13*
X123561739Y-130529173D02*
X124545788Y-131513222D01*
D10*
X137842245Y-140903000D02*
X137842245Y-142500000D01*
D11*
X117100000Y-138630000D02*
X117100000Y-140130000D01*
D10*
X173019585Y-140903000D02*
X173019585Y-142500000D01*
D11*
X122480000Y-136630000D02*
X175800000Y-136630000D01*
D12*
X144156127Y-140620000D02*
X144156127Y-140390000D01*
D10*
X156783890Y-140903000D02*
X156783890Y-142500000D01*
X176627517Y-140903000D02*
X176627517Y-142500000D01*
X134234313Y-140903000D02*
X134234313Y-142500000D01*
X147764059Y-140903000D02*
X147764059Y-142500000D01*
X125214483Y-140903000D02*
X125214483Y-142500000D01*
X141450178Y-140903000D02*
X141450178Y-142500000D01*
X148666042Y-140903000D02*
X148666042Y-142500000D01*
X165803720Y-140903000D02*
X165803720Y-142500000D01*
X136038279Y-140903000D02*
X136038279Y-142500000D01*
X167607686Y-140903000D02*
X167607686Y-142500000D01*
X132430347Y-140903000D02*
X132430347Y-142500000D01*
X127920432Y-140903000D02*
X127920432Y-142500000D01*
X173921568Y-140903000D02*
X173921568Y-142500000D01*
X121606550Y-140903000D02*
X121606550Y-142500000D01*
X158587856Y-140903000D02*
X158587856Y-142500000D01*
X123410516Y-140903000D02*
X123410516Y-142500000D01*
D11*
X177537663Y-138638101D02*
X177537663Y-140138101D01*
D10*
X160391822Y-140903000D02*
X160391822Y-142500000D01*
X122508533Y-140903000D02*
X122508533Y-142500000D01*
X166705703Y-140903000D02*
X166705703Y-142500000D01*
X118900601Y-140904523D02*
X118900601Y-142501523D01*
X162195788Y-140903000D02*
X162195788Y-142500000D01*
X154979924Y-140903000D02*
X154979924Y-142500000D01*
X171215619Y-140901500D02*
X171215619Y-142498500D01*
X139646211Y-140903000D02*
X139646211Y-142500000D01*
X175725534Y-140903000D02*
X175725534Y-142500000D01*
X119802584Y-140903000D02*
X119802584Y-142500000D01*
X124312499Y-140903000D02*
X124312499Y-142500000D01*
X136940262Y-140903000D02*
X136940262Y-142500000D01*
D12*
X145960093Y-140660000D02*
X145960093Y-140430000D01*
D11*
X177537663Y-140138101D02*
X177062663Y-139663101D01*
D10*
X138744228Y-140903000D02*
X138744228Y-142500000D01*
X129724398Y-140903000D02*
X129724398Y-142500000D01*
D14*
X119011428Y-135539638D02*
X119392381Y-135539638D01*
X119392381Y-135539638D02*
X119582857Y-135634876D01*
X119582857Y-135634876D02*
X119678095Y-135730114D01*
X119678095Y-135730114D02*
X119868571Y-136015828D01*
X119868571Y-136015828D02*
X119963809Y-136396780D01*
X119963809Y-136396780D02*
X119963809Y-137158685D01*
X119963809Y-137158685D02*
X119868571Y-137349161D01*
X119868571Y-137349161D02*
X119773333Y-137444400D01*
X119773333Y-137444400D02*
X119582857Y-137539638D01*
X119582857Y-137539638D02*
X119201904Y-137539638D01*
X119201904Y-137539638D02*
X119011428Y-137444400D01*
X119011428Y-137444400D02*
X118916190Y-137349161D01*
X118916190Y-137349161D02*
X118820952Y-137158685D01*
X118820952Y-137158685D02*
X118820952Y-136682495D01*
X118820952Y-136682495D02*
X118916190Y-136492019D01*
X118916190Y-136492019D02*
X119011428Y-136396780D01*
X119011428Y-136396780D02*
X119201904Y-136301542D01*
X119201904Y-136301542D02*
X119582857Y-136301542D01*
X119582857Y-136301542D02*
X119773333Y-136396780D01*
X119773333Y-136396780D02*
X119868571Y-136492019D01*
X119868571Y-136492019D02*
X119963809Y-136682495D01*
X117678095Y-136396780D02*
X117868571Y-136301542D01*
X117868571Y-136301542D02*
X117963809Y-136206304D01*
X117963809Y-136206304D02*
X118059047Y-136015828D01*
X118059047Y-136015828D02*
X118059047Y-135920590D01*
X118059047Y-135920590D02*
X117963809Y-135730114D01*
X117963809Y-135730114D02*
X117868571Y-135634876D01*
X117868571Y-135634876D02*
X117678095Y-135539638D01*
X117678095Y-135539638D02*
X117297142Y-135539638D01*
X117297142Y-135539638D02*
X117106666Y-135634876D01*
X117106666Y-135634876D02*
X117011428Y-135730114D01*
X117011428Y-135730114D02*
X116916190Y-135920590D01*
X116916190Y-135920590D02*
X116916190Y-136015828D01*
X116916190Y-136015828D02*
X117011428Y-136206304D01*
X117011428Y-136206304D02*
X117106666Y-136301542D01*
X117106666Y-136301542D02*
X117297142Y-136396780D01*
X117297142Y-136396780D02*
X117678095Y-136396780D01*
X117678095Y-136396780D02*
X117868571Y-136492019D01*
X117868571Y-136492019D02*
X117963809Y-136587257D01*
X117963809Y-136587257D02*
X118059047Y-136777733D01*
X118059047Y-136777733D02*
X118059047Y-137158685D01*
X118059047Y-137158685D02*
X117963809Y-137349161D01*
X117963809Y-137349161D02*
X117868571Y-137444400D01*
X117868571Y-137444400D02*
X117678095Y-137539638D01*
X117678095Y-137539638D02*
X117297142Y-137539638D01*
X117297142Y-137539638D02*
X117106666Y-137444400D01*
X117106666Y-137444400D02*
X117011428Y-137349161D01*
X117011428Y-137349161D02*
X116916190Y-137158685D01*
X116916190Y-137158685D02*
X116916190Y-136777733D01*
X116916190Y-136777733D02*
X117011428Y-136587257D01*
X117011428Y-136587257D02*
X117106666Y-136492019D01*
X117106666Y-136492019D02*
X117297142Y-136396780D01*
D13*
X139957142Y-130785106D02*
X139585714Y-130908915D01*
X139585714Y-130908915D02*
X138966666Y-130908915D01*
X138966666Y-130908915D02*
X138719047Y-130785106D01*
X138719047Y-130785106D02*
X138595238Y-130661296D01*
X138595238Y-130661296D02*
X138471428Y-130413677D01*
X138471428Y-130413677D02*
X138471428Y-130166058D01*
X138471428Y-130166058D02*
X138595238Y-129918439D01*
X138595238Y-129918439D02*
X138719047Y-129794629D01*
X138719047Y-129794629D02*
X138966666Y-129670820D01*
X138966666Y-129670820D02*
X139461904Y-129547010D01*
X139461904Y-129547010D02*
X139709523Y-129423201D01*
X139709523Y-129423201D02*
X139833333Y-129299391D01*
X139833333Y-129299391D02*
X139957142Y-129051772D01*
X139957142Y-129051772D02*
X139957142Y-128804153D01*
X139957142Y-128804153D02*
X139833333Y-128556534D01*
X139833333Y-128556534D02*
X139709523Y-128432725D01*
X139709523Y-128432725D02*
X139461904Y-128308915D01*
X139461904Y-128308915D02*
X138842857Y-128308915D01*
X138842857Y-128308915D02*
X138471428Y-128432725D01*
X135871429Y-130661296D02*
X135995238Y-130785106D01*
X135995238Y-130785106D02*
X136366667Y-130908915D01*
X136366667Y-130908915D02*
X136614286Y-130908915D01*
X136614286Y-130908915D02*
X136985714Y-130785106D01*
X136985714Y-130785106D02*
X137233333Y-130537486D01*
X137233333Y-130537486D02*
X137357143Y-130289867D01*
X137357143Y-130289867D02*
X137480952Y-129794629D01*
X137480952Y-129794629D02*
X137480952Y-129423201D01*
X137480952Y-129423201D02*
X137357143Y-128927963D01*
X137357143Y-128927963D02*
X137233333Y-128680344D01*
X137233333Y-128680344D02*
X136985714Y-128432725D01*
X136985714Y-128432725D02*
X136614286Y-128308915D01*
X136614286Y-128308915D02*
X136366667Y-128308915D01*
X136366667Y-128308915D02*
X135995238Y-128432725D01*
X135995238Y-128432725D02*
X135871429Y-128556534D01*
X133271429Y-130908915D02*
X134138095Y-129670820D01*
X134757143Y-130908915D02*
X134757143Y-128308915D01*
X134757143Y-128308915D02*
X133766667Y-128308915D01*
X133766667Y-128308915D02*
X133519048Y-128432725D01*
X133519048Y-128432725D02*
X133395238Y-128556534D01*
X133395238Y-128556534D02*
X133271429Y-128804153D01*
X133271429Y-128804153D02*
X133271429Y-129175582D01*
X133271429Y-129175582D02*
X133395238Y-129423201D01*
X133395238Y-129423201D02*
X133519048Y-129547010D01*
X133519048Y-129547010D02*
X133766667Y-129670820D01*
X133766667Y-129670820D02*
X134757143Y-129670820D01*
X132157143Y-129547010D02*
X131290476Y-129547010D01*
X130919048Y-130908915D02*
X132157143Y-130908915D01*
X132157143Y-130908915D02*
X132157143Y-128308915D01*
X132157143Y-128308915D02*
X130919048Y-128308915D01*
X129804762Y-129547010D02*
X128938095Y-129547010D01*
X128566667Y-130908915D02*
X129804762Y-130908915D01*
X129804762Y-130908915D02*
X129804762Y-128308915D01*
X129804762Y-128308915D02*
X128566667Y-128308915D01*
X127452381Y-130908915D02*
X127452381Y-128308915D01*
X127452381Y-128308915D02*
X125966667Y-130908915D01*
X125966667Y-130908915D02*
X125966667Y-128308915D01*
X137542856Y-133732864D02*
X138409523Y-133732864D01*
X138409523Y-135094769D02*
X138409523Y-132494769D01*
X138409523Y-132494769D02*
X137171428Y-132494769D01*
X134695238Y-135094769D02*
X135561904Y-133856674D01*
X136180952Y-135094769D02*
X136180952Y-132494769D01*
X136180952Y-132494769D02*
X135190476Y-132494769D01*
X135190476Y-132494769D02*
X134942857Y-132618579D01*
X134942857Y-132618579D02*
X134819047Y-132742388D01*
X134819047Y-132742388D02*
X134695238Y-132990007D01*
X134695238Y-132990007D02*
X134695238Y-133361436D01*
X134695238Y-133361436D02*
X134819047Y-133609055D01*
X134819047Y-133609055D02*
X134942857Y-133732864D01*
X134942857Y-133732864D02*
X135190476Y-133856674D01*
X135190476Y-133856674D02*
X136180952Y-133856674D01*
X133085714Y-132494769D02*
X132590476Y-132494769D01*
X132590476Y-132494769D02*
X132342857Y-132618579D01*
X132342857Y-132618579D02*
X132095238Y-132866198D01*
X132095238Y-132866198D02*
X131971428Y-133361436D01*
X131971428Y-133361436D02*
X131971428Y-134228102D01*
X131971428Y-134228102D02*
X132095238Y-134723340D01*
X132095238Y-134723340D02*
X132342857Y-134970960D01*
X132342857Y-134970960D02*
X132590476Y-135094769D01*
X132590476Y-135094769D02*
X133085714Y-135094769D01*
X133085714Y-135094769D02*
X133333333Y-134970960D01*
X133333333Y-134970960D02*
X133580952Y-134723340D01*
X133580952Y-134723340D02*
X133704761Y-134228102D01*
X133704761Y-134228102D02*
X133704761Y-133361436D01*
X133704761Y-133361436D02*
X133580952Y-132866198D01*
X133580952Y-132866198D02*
X133333333Y-132618579D01*
X133333333Y-132618579D02*
X133085714Y-132494769D01*
X130857142Y-135094769D02*
X130857142Y-132494769D01*
X130857142Y-132494769D02*
X129371428Y-135094769D01*
X129371428Y-135094769D02*
X129371428Y-132494769D01*
X128504760Y-132494769D02*
X127019046Y-132494769D01*
X127761903Y-135094769D02*
X127761903Y-132494769D01*
D15*
X133255564Y-84026028D02*
X134112707Y-84026028D01*
X133684136Y-84026028D02*
X133684136Y-82526028D01*
X133684136Y-82526028D02*
X133826993Y-82740314D01*
X133826993Y-82740314D02*
X133969850Y-82883171D01*
X133969850Y-82883171D02*
X134112707Y-82954600D01*
D14*
X184225238Y-137569638D02*
X185177619Y-137569638D01*
X185177619Y-137569638D02*
X185177619Y-135569638D01*
X182415714Y-137379161D02*
X182510952Y-137474400D01*
X182510952Y-137474400D02*
X182796666Y-137569638D01*
X182796666Y-137569638D02*
X182987142Y-137569638D01*
X182987142Y-137569638D02*
X183272857Y-137474400D01*
X183272857Y-137474400D02*
X183463333Y-137283923D01*
X183463333Y-137283923D02*
X183558571Y-137093447D01*
X183558571Y-137093447D02*
X183653809Y-136712495D01*
X183653809Y-136712495D02*
X183653809Y-136426780D01*
X183653809Y-136426780D02*
X183558571Y-136045828D01*
X183558571Y-136045828D02*
X183463333Y-135855352D01*
X183463333Y-135855352D02*
X183272857Y-135664876D01*
X183272857Y-135664876D02*
X182987142Y-135569638D01*
X182987142Y-135569638D02*
X182796666Y-135569638D01*
X182796666Y-135569638D02*
X182510952Y-135664876D01*
X182510952Y-135664876D02*
X182415714Y-135760114D01*
X181558571Y-137569638D02*
X181558571Y-135569638D01*
X181558571Y-135569638D02*
X181082381Y-135569638D01*
X181082381Y-135569638D02*
X180796666Y-135664876D01*
X180796666Y-135664876D02*
X180606190Y-135855352D01*
X180606190Y-135855352D02*
X180510952Y-136045828D01*
X180510952Y-136045828D02*
X180415714Y-136426780D01*
X180415714Y-136426780D02*
X180415714Y-136712495D01*
X180415714Y-136712495D02*
X180510952Y-137093447D01*
X180510952Y-137093447D02*
X180606190Y-137283923D01*
X180606190Y-137283923D02*
X180796666Y-137474400D01*
X180796666Y-137474400D02*
X181082381Y-137569638D01*
X181082381Y-137569638D02*
X181558571Y-137569638D01*
X176987142Y-137569638D02*
X178129999Y-137569638D01*
X177558571Y-137569638D02*
X177558571Y-135569638D01*
X177558571Y-135569638D02*
X177749047Y-135855352D01*
X177749047Y-135855352D02*
X177939523Y-136045828D01*
X177939523Y-136045828D02*
X178129999Y-136141066D01*
D12*
X196873142Y-120546767D02*
X199873142Y-120546767D01*
X199873142Y-120546767D02*
X199873142Y-119403910D01*
X199873142Y-119403910D02*
X199730285Y-119118195D01*
X199730285Y-119118195D02*
X199587428Y-118975338D01*
X199587428Y-118975338D02*
X199301714Y-118832481D01*
X199301714Y-118832481D02*
X198873142Y-118832481D01*
X198873142Y-118832481D02*
X198587428Y-118975338D01*
X198587428Y-118975338D02*
X198444571Y-119118195D01*
X198444571Y-119118195D02*
X198301714Y-119403910D01*
X198301714Y-119403910D02*
X198301714Y-120546767D01*
X196873142Y-117546767D02*
X199873142Y-117546767D01*
X197158857Y-114403910D02*
X197016000Y-114546767D01*
X197016000Y-114546767D02*
X196873142Y-114975339D01*
X196873142Y-114975339D02*
X196873142Y-115261053D01*
X196873142Y-115261053D02*
X197016000Y-115689624D01*
X197016000Y-115689624D02*
X197301714Y-115975339D01*
X197301714Y-115975339D02*
X197587428Y-116118196D01*
X197587428Y-116118196D02*
X198158857Y-116261053D01*
X198158857Y-116261053D02*
X198587428Y-116261053D01*
X198587428Y-116261053D02*
X199158857Y-116118196D01*
X199158857Y-116118196D02*
X199444571Y-115975339D01*
X199444571Y-115975339D02*
X199730285Y-115689624D01*
X199730285Y-115689624D02*
X199873142Y-115261053D01*
X199873142Y-115261053D02*
X199873142Y-114975339D01*
X199873142Y-114975339D02*
X199730285Y-114546767D01*
X199730285Y-114546767D02*
X199587428Y-114403910D01*
X199873142Y-112546767D02*
X199873142Y-111975339D01*
X199873142Y-111975339D02*
X199730285Y-111689624D01*
X199730285Y-111689624D02*
X199444571Y-111403910D01*
X199444571Y-111403910D02*
X198873142Y-111261053D01*
X198873142Y-111261053D02*
X197873142Y-111261053D01*
X197873142Y-111261053D02*
X197301714Y-111403910D01*
X197301714Y-111403910D02*
X197016000Y-111689624D01*
X197016000Y-111689624D02*
X196873142Y-111975339D01*
X196873142Y-111975339D02*
X196873142Y-112546767D01*
X196873142Y-112546767D02*
X197016000Y-112832482D01*
X197016000Y-112832482D02*
X197301714Y-113118196D01*
X197301714Y-113118196D02*
X197873142Y-113261053D01*
X197873142Y-113261053D02*
X198873142Y-113261053D01*
X198873142Y-113261053D02*
X199444571Y-113118196D01*
X199444571Y-113118196D02*
X199730285Y-112832482D01*
X199730285Y-112832482D02*
X199873142Y-112546767D01*
X199730285Y-106118196D02*
X199873142Y-106403911D01*
X199873142Y-106403911D02*
X199873142Y-106832482D01*
X199873142Y-106832482D02*
X199730285Y-107261053D01*
X199730285Y-107261053D02*
X199444571Y-107546768D01*
X199444571Y-107546768D02*
X199158857Y-107689625D01*
X199158857Y-107689625D02*
X198587428Y-107832482D01*
X198587428Y-107832482D02*
X198158857Y-107832482D01*
X198158857Y-107832482D02*
X197587428Y-107689625D01*
X197587428Y-107689625D02*
X197301714Y-107546768D01*
X197301714Y-107546768D02*
X197016000Y-107261053D01*
X197016000Y-107261053D02*
X196873142Y-106832482D01*
X196873142Y-106832482D02*
X196873142Y-106546768D01*
X196873142Y-106546768D02*
X197016000Y-106118196D01*
X197016000Y-106118196D02*
X197158857Y-105975339D01*
X197158857Y-105975339D02*
X198158857Y-105975339D01*
X198158857Y-105975339D02*
X198158857Y-106546768D01*
X199730285Y-103118196D02*
X199873142Y-103403911D01*
X199873142Y-103403911D02*
X199873142Y-103832482D01*
X199873142Y-103832482D02*
X199730285Y-104261053D01*
X199730285Y-104261053D02*
X199444571Y-104546768D01*
X199444571Y-104546768D02*
X199158857Y-104689625D01*
X199158857Y-104689625D02*
X198587428Y-104832482D01*
X198587428Y-104832482D02*
X198158857Y-104832482D01*
X198158857Y-104832482D02*
X197587428Y-104689625D01*
X197587428Y-104689625D02*
X197301714Y-104546768D01*
X197301714Y-104546768D02*
X197016000Y-104261053D01*
X197016000Y-104261053D02*
X196873142Y-103832482D01*
X196873142Y-103832482D02*
X196873142Y-103546768D01*
X196873142Y-103546768D02*
X197016000Y-103118196D01*
X197016000Y-103118196D02*
X197158857Y-102975339D01*
X197158857Y-102975339D02*
X198158857Y-102975339D01*
X198158857Y-102975339D02*
X198158857Y-103546768D01*
X196873142Y-97975339D02*
X196873142Y-99403911D01*
X196873142Y-99403911D02*
X199873142Y-99403911D01*
X197158857Y-95261054D02*
X197016000Y-95403911D01*
X197016000Y-95403911D02*
X196873142Y-95832483D01*
X196873142Y-95832483D02*
X196873142Y-96118197D01*
X196873142Y-96118197D02*
X197016000Y-96546768D01*
X197016000Y-96546768D02*
X197301714Y-96832483D01*
X197301714Y-96832483D02*
X197587428Y-96975340D01*
X197587428Y-96975340D02*
X198158857Y-97118197D01*
X198158857Y-97118197D02*
X198587428Y-97118197D01*
X198587428Y-97118197D02*
X199158857Y-96975340D01*
X199158857Y-96975340D02*
X199444571Y-96832483D01*
X199444571Y-96832483D02*
X199730285Y-96546768D01*
X199730285Y-96546768D02*
X199873142Y-96118197D01*
X199873142Y-96118197D02*
X199873142Y-95832483D01*
X199873142Y-95832483D02*
X199730285Y-95403911D01*
X199730285Y-95403911D02*
X199587428Y-95261054D01*
X196873142Y-93975340D02*
X199873142Y-93975340D01*
X199873142Y-93975340D02*
X199873142Y-93261054D01*
X199873142Y-93261054D02*
X199730285Y-92832483D01*
X199730285Y-92832483D02*
X199444571Y-92546768D01*
X199444571Y-92546768D02*
X199158857Y-92403911D01*
X199158857Y-92403911D02*
X198587428Y-92261054D01*
X198587428Y-92261054D02*
X198158857Y-92261054D01*
X198158857Y-92261054D02*
X197587428Y-92403911D01*
X197587428Y-92403911D02*
X197301714Y-92546768D01*
X197301714Y-92546768D02*
X197016000Y-92832483D01*
X197016000Y-92832483D02*
X196873142Y-93261054D01*
X196873142Y-93261054D02*
X196873142Y-93975340D01*
D15*
X137529999Y-85326385D02*
X137672856Y-85254957D01*
X137672856Y-85254957D02*
X137744285Y-85183528D01*
X137744285Y-85183528D02*
X137815713Y-85040671D01*
X137815713Y-85040671D02*
X137815713Y-84969242D01*
X137815713Y-84969242D02*
X137744285Y-84826385D01*
X137744285Y-84826385D02*
X137672856Y-84754957D01*
X137672856Y-84754957D02*
X137529999Y-84683528D01*
X137529999Y-84683528D02*
X137244285Y-84683528D01*
X137244285Y-84683528D02*
X137101428Y-84754957D01*
X137101428Y-84754957D02*
X137029999Y-84826385D01*
X137029999Y-84826385D02*
X136958570Y-84969242D01*
X136958570Y-84969242D02*
X136958570Y-85040671D01*
X136958570Y-85040671D02*
X137029999Y-85183528D01*
X137029999Y-85183528D02*
X137101428Y-85254957D01*
X137101428Y-85254957D02*
X137244285Y-85326385D01*
X137244285Y-85326385D02*
X137529999Y-85326385D01*
X137529999Y-85326385D02*
X137672856Y-85397814D01*
X137672856Y-85397814D02*
X137744285Y-85469242D01*
X137744285Y-85469242D02*
X137815713Y-85612100D01*
X137815713Y-85612100D02*
X137815713Y-85897814D01*
X137815713Y-85897814D02*
X137744285Y-86040671D01*
X137744285Y-86040671D02*
X137672856Y-86112100D01*
X137672856Y-86112100D02*
X137529999Y-86183528D01*
X137529999Y-86183528D02*
X137244285Y-86183528D01*
X137244285Y-86183528D02*
X137101428Y-86112100D01*
X137101428Y-86112100D02*
X137029999Y-86040671D01*
X137029999Y-86040671D02*
X136958570Y-85897814D01*
X136958570Y-85897814D02*
X136958570Y-85612100D01*
X136958570Y-85612100D02*
X137029999Y-85469242D01*
X137029999Y-85469242D02*
X137101428Y-85397814D01*
X137101428Y-85397814D02*
X137244285Y-85326385D01*
X135172857Y-86183528D02*
X135172857Y-84683528D01*
X135172857Y-84683528D02*
X134601428Y-84683528D01*
X134601428Y-84683528D02*
X134458571Y-84754957D01*
X134458571Y-84754957D02*
X134387142Y-84826385D01*
X134387142Y-84826385D02*
X134315714Y-84969242D01*
X134315714Y-84969242D02*
X134315714Y-85183528D01*
X134315714Y-85183528D02*
X134387142Y-85326385D01*
X134387142Y-85326385D02*
X134458571Y-85397814D01*
X134458571Y-85397814D02*
X134601428Y-85469242D01*
X134601428Y-85469242D02*
X135172857Y-85469242D01*
X133672857Y-86183528D02*
X133672857Y-85183528D01*
X133672857Y-84683528D02*
X133744285Y-84754957D01*
X133744285Y-84754957D02*
X133672857Y-84826385D01*
X133672857Y-84826385D02*
X133601428Y-84754957D01*
X133601428Y-84754957D02*
X133672857Y-84683528D01*
X133672857Y-84683528D02*
X133672857Y-84826385D01*
X132958571Y-85183528D02*
X132958571Y-86183528D01*
X132958571Y-85326385D02*
X132887142Y-85254957D01*
X132887142Y-85254957D02*
X132744285Y-85183528D01*
X132744285Y-85183528D02*
X132529999Y-85183528D01*
X132529999Y-85183528D02*
X132387142Y-85254957D01*
X132387142Y-85254957D02*
X132315714Y-85397814D01*
X132315714Y-85397814D02*
X132315714Y-86183528D01*
X209250000Y-89203528D02*
X209750000Y-88489242D01*
X210107143Y-89203528D02*
X210107143Y-87703528D01*
X210107143Y-87703528D02*
X209535714Y-87703528D01*
X209535714Y-87703528D02*
X209392857Y-87774957D01*
X209392857Y-87774957D02*
X209321428Y-87846385D01*
X209321428Y-87846385D02*
X209250000Y-87989242D01*
X209250000Y-87989242D02*
X209250000Y-88203528D01*
X209250000Y-88203528D02*
X209321428Y-88346385D01*
X209321428Y-88346385D02*
X209392857Y-88417814D01*
X209392857Y-88417814D02*
X209535714Y-88489242D01*
X209535714Y-88489242D02*
X210107143Y-88489242D01*
X208607143Y-89203528D02*
X208607143Y-87703528D01*
X207107142Y-87774957D02*
X207250000Y-87703528D01*
X207250000Y-87703528D02*
X207464285Y-87703528D01*
X207464285Y-87703528D02*
X207678571Y-87774957D01*
X207678571Y-87774957D02*
X207821428Y-87917814D01*
X207821428Y-87917814D02*
X207892857Y-88060671D01*
X207892857Y-88060671D02*
X207964285Y-88346385D01*
X207964285Y-88346385D02*
X207964285Y-88560671D01*
X207964285Y-88560671D02*
X207892857Y-88846385D01*
X207892857Y-88846385D02*
X207821428Y-88989242D01*
X207821428Y-88989242D02*
X207678571Y-89132100D01*
X207678571Y-89132100D02*
X207464285Y-89203528D01*
X207464285Y-89203528D02*
X207321428Y-89203528D01*
X207321428Y-89203528D02*
X207107142Y-89132100D01*
X207107142Y-89132100D02*
X207035714Y-89060671D01*
X207035714Y-89060671D02*
X207035714Y-88560671D01*
X207035714Y-88560671D02*
X207321428Y-88560671D01*
X206392857Y-89203528D02*
X206392857Y-87703528D01*
X206392857Y-88417814D02*
X205535714Y-88417814D01*
X205535714Y-89203528D02*
X205535714Y-87703528D01*
X205035713Y-87703528D02*
X204178571Y-87703528D01*
X204607142Y-89203528D02*
X204607142Y-87703528D01*
X209198571Y-91823528D02*
X209912857Y-91823528D01*
X209912857Y-91823528D02*
X209912857Y-90323528D01*
X208698571Y-91037814D02*
X208198571Y-91037814D01*
X207984285Y-91823528D02*
X208698571Y-91823528D01*
X208698571Y-91823528D02*
X208698571Y-90323528D01*
X208698571Y-90323528D02*
X207984285Y-90323528D01*
X206841428Y-91037814D02*
X207341428Y-91037814D01*
X207341428Y-91823528D02*
X207341428Y-90323528D01*
X207341428Y-90323528D02*
X206627142Y-90323528D01*
X206269999Y-90323528D02*
X205412857Y-90323528D01*
X205841428Y-91823528D02*
X205841428Y-90323528D01*
X160577142Y-136150671D02*
X160648570Y-136222100D01*
X160648570Y-136222100D02*
X160862856Y-136293528D01*
X160862856Y-136293528D02*
X161005713Y-136293528D01*
X161005713Y-136293528D02*
X161219999Y-136222100D01*
X161219999Y-136222100D02*
X161362856Y-136079242D01*
X161362856Y-136079242D02*
X161434285Y-135936385D01*
X161434285Y-135936385D02*
X161505713Y-135650671D01*
X161505713Y-135650671D02*
X161505713Y-135436385D01*
X161505713Y-135436385D02*
X161434285Y-135150671D01*
X161434285Y-135150671D02*
X161362856Y-135007814D01*
X161362856Y-135007814D02*
X161219999Y-134864957D01*
X161219999Y-134864957D02*
X161005713Y-134793528D01*
X161005713Y-134793528D02*
X160862856Y-134793528D01*
X160862856Y-134793528D02*
X160648570Y-134864957D01*
X160648570Y-134864957D02*
X160577142Y-134936385D01*
X159219999Y-136293528D02*
X159934285Y-136293528D01*
X159934285Y-136293528D02*
X159934285Y-134793528D01*
X158791427Y-134936385D02*
X158719999Y-134864957D01*
X158719999Y-134864957D02*
X158577142Y-134793528D01*
X158577142Y-134793528D02*
X158219999Y-134793528D01*
X158219999Y-134793528D02*
X158077142Y-134864957D01*
X158077142Y-134864957D02*
X158005713Y-134936385D01*
X158005713Y-134936385D02*
X157934284Y-135079242D01*
X157934284Y-135079242D02*
X157934284Y-135222100D01*
X157934284Y-135222100D02*
X158005713Y-135436385D01*
X158005713Y-135436385D02*
X158862856Y-136293528D01*
X158862856Y-136293528D02*
X157934284Y-136293528D01*
X141732661Y-140063528D02*
X141732661Y-138563528D01*
X141732661Y-138563528D02*
X141375518Y-138563528D01*
X141375518Y-138563528D02*
X141161232Y-138634957D01*
X141161232Y-138634957D02*
X141018375Y-138777814D01*
X141018375Y-138777814D02*
X140946946Y-138920671D01*
X140946946Y-138920671D02*
X140875518Y-139206385D01*
X140875518Y-139206385D02*
X140875518Y-139420671D01*
X140875518Y-139420671D02*
X140946946Y-139706385D01*
X140946946Y-139706385D02*
X141018375Y-139849242D01*
X141018375Y-139849242D02*
X141161232Y-139992100D01*
X141161232Y-139992100D02*
X141375518Y-140063528D01*
X141375518Y-140063528D02*
X141732661Y-140063528D01*
X140375518Y-138563528D02*
X140018375Y-140063528D01*
X140018375Y-140063528D02*
X139732661Y-138992100D01*
X139732661Y-138992100D02*
X139446946Y-140063528D01*
X139446946Y-140063528D02*
X139089804Y-138563528D01*
X194065714Y-72753528D02*
X194780000Y-72753528D01*
X194780000Y-72753528D02*
X194780000Y-71253528D01*
X170257142Y-136333528D02*
X170257142Y-134833528D01*
X170257142Y-134833528D02*
X169899999Y-134833528D01*
X169899999Y-134833528D02*
X169685713Y-134904957D01*
X169685713Y-134904957D02*
X169542856Y-135047814D01*
X169542856Y-135047814D02*
X169471427Y-135190671D01*
X169471427Y-135190671D02*
X169399999Y-135476385D01*
X169399999Y-135476385D02*
X169399999Y-135690671D01*
X169399999Y-135690671D02*
X169471427Y-135976385D01*
X169471427Y-135976385D02*
X169542856Y-136119242D01*
X169542856Y-136119242D02*
X169685713Y-136262100D01*
X169685713Y-136262100D02*
X169899999Y-136333528D01*
X169899999Y-136333528D02*
X170257142Y-136333528D01*
X168114285Y-135333528D02*
X168114285Y-136333528D01*
X168471427Y-134762100D02*
X168828570Y-135833528D01*
X168828570Y-135833528D02*
X167899999Y-135833528D01*
X165537142Y-136323528D02*
X165537142Y-134823528D01*
X165537142Y-134823528D02*
X165179999Y-134823528D01*
X165179999Y-134823528D02*
X164965713Y-134894957D01*
X164965713Y-134894957D02*
X164822856Y-135037814D01*
X164822856Y-135037814D02*
X164751427Y-135180671D01*
X164751427Y-135180671D02*
X164679999Y-135466385D01*
X164679999Y-135466385D02*
X164679999Y-135680671D01*
X164679999Y-135680671D02*
X164751427Y-135966385D01*
X164751427Y-135966385D02*
X164822856Y-136109242D01*
X164822856Y-136109242D02*
X164965713Y-136252100D01*
X164965713Y-136252100D02*
X165179999Y-136323528D01*
X165179999Y-136323528D02*
X165537142Y-136323528D01*
X164179999Y-134823528D02*
X163251427Y-134823528D01*
X163251427Y-134823528D02*
X163751427Y-135394957D01*
X163751427Y-135394957D02*
X163537142Y-135394957D01*
X163537142Y-135394957D02*
X163394285Y-135466385D01*
X163394285Y-135466385D02*
X163322856Y-135537814D01*
X163322856Y-135537814D02*
X163251427Y-135680671D01*
X163251427Y-135680671D02*
X163251427Y-136037814D01*
X163251427Y-136037814D02*
X163322856Y-136180671D01*
X163322856Y-136180671D02*
X163394285Y-136252100D01*
X163394285Y-136252100D02*
X163537142Y-136323528D01*
X163537142Y-136323528D02*
X163965713Y-136323528D01*
X163965713Y-136323528D02*
X164108570Y-136252100D01*
X164108570Y-136252100D02*
X164179999Y-136180671D01*
X158398571Y-101417814D02*
X158184285Y-101489242D01*
X158184285Y-101489242D02*
X158112856Y-101560671D01*
X158112856Y-101560671D02*
X158041428Y-101703528D01*
X158041428Y-101703528D02*
X158041428Y-101917814D01*
X158041428Y-101917814D02*
X158112856Y-102060671D01*
X158112856Y-102060671D02*
X158184285Y-102132100D01*
X158184285Y-102132100D02*
X158327142Y-102203528D01*
X158327142Y-102203528D02*
X158898571Y-102203528D01*
X158898571Y-102203528D02*
X158898571Y-100703528D01*
X158898571Y-100703528D02*
X158398571Y-100703528D01*
X158398571Y-100703528D02*
X158255714Y-100774957D01*
X158255714Y-100774957D02*
X158184285Y-100846385D01*
X158184285Y-100846385D02*
X158112856Y-100989242D01*
X158112856Y-100989242D02*
X158112856Y-101132100D01*
X158112856Y-101132100D02*
X158184285Y-101274957D01*
X158184285Y-101274957D02*
X158255714Y-101346385D01*
X158255714Y-101346385D02*
X158398571Y-101417814D01*
X158398571Y-101417814D02*
X158898571Y-101417814D01*
X157755714Y-102346385D02*
X156612856Y-102346385D01*
X156327142Y-100846385D02*
X156255714Y-100774957D01*
X156255714Y-100774957D02*
X156112857Y-100703528D01*
X156112857Y-100703528D02*
X155755714Y-100703528D01*
X155755714Y-100703528D02*
X155612857Y-100774957D01*
X155612857Y-100774957D02*
X155541428Y-100846385D01*
X155541428Y-100846385D02*
X155469999Y-100989242D01*
X155469999Y-100989242D02*
X155469999Y-101132100D01*
X155469999Y-101132100D02*
X155541428Y-101346385D01*
X155541428Y-101346385D02*
X156398571Y-102203528D01*
X156398571Y-102203528D02*
X155469999Y-102203528D01*
X165654284Y-79172100D02*
X165439999Y-79243528D01*
X165439999Y-79243528D02*
X165082856Y-79243528D01*
X165082856Y-79243528D02*
X164939999Y-79172100D01*
X164939999Y-79172100D02*
X164868570Y-79100671D01*
X164868570Y-79100671D02*
X164797141Y-78957814D01*
X164797141Y-78957814D02*
X164797141Y-78814957D01*
X164797141Y-78814957D02*
X164868570Y-78672100D01*
X164868570Y-78672100D02*
X164939999Y-78600671D01*
X164939999Y-78600671D02*
X165082856Y-78529242D01*
X165082856Y-78529242D02*
X165368570Y-78457814D01*
X165368570Y-78457814D02*
X165511427Y-78386385D01*
X165511427Y-78386385D02*
X165582856Y-78314957D01*
X165582856Y-78314957D02*
X165654284Y-78172100D01*
X165654284Y-78172100D02*
X165654284Y-78029242D01*
X165654284Y-78029242D02*
X165582856Y-77886385D01*
X165582856Y-77886385D02*
X165511427Y-77814957D01*
X165511427Y-77814957D02*
X165368570Y-77743528D01*
X165368570Y-77743528D02*
X165011427Y-77743528D01*
X165011427Y-77743528D02*
X164797141Y-77814957D01*
X164368570Y-77743528D02*
X163511428Y-77743528D01*
X163939999Y-79243528D02*
X163939999Y-77743528D01*
X163082856Y-78814957D02*
X162368571Y-78814957D01*
X163225713Y-79243528D02*
X162725713Y-77743528D01*
X162725713Y-77743528D02*
X162225713Y-79243528D01*
X160868571Y-79243528D02*
X161368571Y-78529242D01*
X161725714Y-79243528D02*
X161725714Y-77743528D01*
X161725714Y-77743528D02*
X161154285Y-77743528D01*
X161154285Y-77743528D02*
X161011428Y-77814957D01*
X161011428Y-77814957D02*
X160939999Y-77886385D01*
X160939999Y-77886385D02*
X160868571Y-78029242D01*
X160868571Y-78029242D02*
X160868571Y-78243528D01*
X160868571Y-78243528D02*
X160939999Y-78386385D01*
X160939999Y-78386385D02*
X161011428Y-78457814D01*
X161011428Y-78457814D02*
X161154285Y-78529242D01*
X161154285Y-78529242D02*
X161725714Y-78529242D01*
X160439999Y-77743528D02*
X159582857Y-77743528D01*
X160011428Y-79243528D02*
X160011428Y-77743528D01*
X148957735Y-140023528D02*
X148957735Y-138523528D01*
X148957735Y-138523528D02*
X148600592Y-138523528D01*
X148600592Y-138523528D02*
X148386306Y-138594957D01*
X148386306Y-138594957D02*
X148243449Y-138737814D01*
X148243449Y-138737814D02*
X148172020Y-138880671D01*
X148172020Y-138880671D02*
X148100592Y-139166385D01*
X148100592Y-139166385D02*
X148100592Y-139380671D01*
X148100592Y-139380671D02*
X148172020Y-139666385D01*
X148172020Y-139666385D02*
X148243449Y-139809242D01*
X148243449Y-139809242D02*
X148386306Y-139952100D01*
X148386306Y-139952100D02*
X148600592Y-140023528D01*
X148600592Y-140023528D02*
X148957735Y-140023528D01*
X147529163Y-138666385D02*
X147457735Y-138594957D01*
X147457735Y-138594957D02*
X147314878Y-138523528D01*
X147314878Y-138523528D02*
X146957735Y-138523528D01*
X146957735Y-138523528D02*
X146814878Y-138594957D01*
X146814878Y-138594957D02*
X146743449Y-138666385D01*
X146743449Y-138666385D02*
X146672020Y-138809242D01*
X146672020Y-138809242D02*
X146672020Y-138952100D01*
X146672020Y-138952100D02*
X146743449Y-139166385D01*
X146743449Y-139166385D02*
X147600592Y-140023528D01*
X147600592Y-140023528D02*
X146672020Y-140023528D01*
X165945413Y-140263528D02*
X165945413Y-138763528D01*
X165945413Y-138763528D02*
X165588270Y-138763528D01*
X165588270Y-138763528D02*
X165373984Y-138834957D01*
X165373984Y-138834957D02*
X165231127Y-138977814D01*
X165231127Y-138977814D02*
X165159698Y-139120671D01*
X165159698Y-139120671D02*
X165088270Y-139406385D01*
X165088270Y-139406385D02*
X165088270Y-139620671D01*
X165088270Y-139620671D02*
X165159698Y-139906385D01*
X165159698Y-139906385D02*
X165231127Y-140049242D01*
X165231127Y-140049242D02*
X165373984Y-140192100D01*
X165373984Y-140192100D02*
X165588270Y-140263528D01*
X165588270Y-140263528D02*
X165945413Y-140263528D01*
X163802556Y-139263528D02*
X163802556Y-140263528D01*
X164159698Y-138692100D02*
X164516841Y-139763528D01*
X164516841Y-139763528D02*
X163588270Y-139763528D01*
X160691447Y-140213528D02*
X160691447Y-138713528D01*
X160691447Y-138713528D02*
X160334304Y-138713528D01*
X160334304Y-138713528D02*
X160120018Y-138784957D01*
X160120018Y-138784957D02*
X159977161Y-138927814D01*
X159977161Y-138927814D02*
X159905732Y-139070671D01*
X159905732Y-139070671D02*
X159834304Y-139356385D01*
X159834304Y-139356385D02*
X159834304Y-139570671D01*
X159834304Y-139570671D02*
X159905732Y-139856385D01*
X159905732Y-139856385D02*
X159977161Y-139999242D01*
X159977161Y-139999242D02*
X160120018Y-140142100D01*
X160120018Y-140142100D02*
X160334304Y-140213528D01*
X160334304Y-140213528D02*
X160691447Y-140213528D01*
X159334304Y-138713528D02*
X158405732Y-138713528D01*
X158405732Y-138713528D02*
X158905732Y-139284957D01*
X158905732Y-139284957D02*
X158691447Y-139284957D01*
X158691447Y-139284957D02*
X158548590Y-139356385D01*
X158548590Y-139356385D02*
X158477161Y-139427814D01*
X158477161Y-139427814D02*
X158405732Y-139570671D01*
X158405732Y-139570671D02*
X158405732Y-139927814D01*
X158405732Y-139927814D02*
X158477161Y-140070671D01*
X158477161Y-140070671D02*
X158548590Y-140142100D01*
X158548590Y-140142100D02*
X158691447Y-140213528D01*
X158691447Y-140213528D02*
X159120018Y-140213528D01*
X159120018Y-140213528D02*
X159262875Y-140142100D01*
X159262875Y-140142100D02*
X159334304Y-140070671D01*
X153111616Y-139690671D02*
X153183044Y-139762100D01*
X153183044Y-139762100D02*
X153397330Y-139833528D01*
X153397330Y-139833528D02*
X153540187Y-139833528D01*
X153540187Y-139833528D02*
X153754473Y-139762100D01*
X153754473Y-139762100D02*
X153897330Y-139619242D01*
X153897330Y-139619242D02*
X153968759Y-139476385D01*
X153968759Y-139476385D02*
X154040187Y-139190671D01*
X154040187Y-139190671D02*
X154040187Y-138976385D01*
X154040187Y-138976385D02*
X153968759Y-138690671D01*
X153968759Y-138690671D02*
X153897330Y-138547814D01*
X153897330Y-138547814D02*
X153754473Y-138404957D01*
X153754473Y-138404957D02*
X153540187Y-138333528D01*
X153540187Y-138333528D02*
X153397330Y-138333528D01*
X153397330Y-138333528D02*
X153183044Y-138404957D01*
X153183044Y-138404957D02*
X153111616Y-138476385D01*
X151754473Y-139833528D02*
X152468759Y-139833528D01*
X152468759Y-139833528D02*
X152468759Y-138333528D01*
X151325901Y-138476385D02*
X151254473Y-138404957D01*
X151254473Y-138404957D02*
X151111616Y-138333528D01*
X151111616Y-138333528D02*
X150754473Y-138333528D01*
X150754473Y-138333528D02*
X150611616Y-138404957D01*
X150611616Y-138404957D02*
X150540187Y-138476385D01*
X150540187Y-138476385D02*
X150468758Y-138619242D01*
X150468758Y-138619242D02*
X150468758Y-138762100D01*
X150468758Y-138762100D02*
X150540187Y-138976385D01*
X150540187Y-138976385D02*
X151397330Y-139833528D01*
X151397330Y-139833528D02*
X150468758Y-139833528D01*
X143332856Y-125334957D02*
X143475714Y-125263528D01*
X143475714Y-125263528D02*
X143689999Y-125263528D01*
X143689999Y-125263528D02*
X143904285Y-125334957D01*
X143904285Y-125334957D02*
X144047142Y-125477814D01*
X144047142Y-125477814D02*
X144118571Y-125620671D01*
X144118571Y-125620671D02*
X144189999Y-125906385D01*
X144189999Y-125906385D02*
X144189999Y-126120671D01*
X144189999Y-126120671D02*
X144118571Y-126406385D01*
X144118571Y-126406385D02*
X144047142Y-126549242D01*
X144047142Y-126549242D02*
X143904285Y-126692100D01*
X143904285Y-126692100D02*
X143689999Y-126763528D01*
X143689999Y-126763528D02*
X143547142Y-126763528D01*
X143547142Y-126763528D02*
X143332856Y-126692100D01*
X143332856Y-126692100D02*
X143261428Y-126620671D01*
X143261428Y-126620671D02*
X143261428Y-126120671D01*
X143261428Y-126120671D02*
X143547142Y-126120671D01*
X142618571Y-126763528D02*
X142618571Y-125263528D01*
X142618571Y-125263528D02*
X141761428Y-126763528D01*
X141761428Y-126763528D02*
X141761428Y-125263528D01*
X141047142Y-126763528D02*
X141047142Y-125263528D01*
X141047142Y-125263528D02*
X140689999Y-125263528D01*
X140689999Y-125263528D02*
X140475713Y-125334957D01*
X140475713Y-125334957D02*
X140332856Y-125477814D01*
X140332856Y-125477814D02*
X140261427Y-125620671D01*
X140261427Y-125620671D02*
X140189999Y-125906385D01*
X140189999Y-125906385D02*
X140189999Y-126120671D01*
X140189999Y-126120671D02*
X140261427Y-126406385D01*
X140261427Y-126406385D02*
X140332856Y-126549242D01*
X140332856Y-126549242D02*
X140475713Y-126692100D01*
X140475713Y-126692100D02*
X140689999Y-126763528D01*
X140689999Y-126763528D02*
X141047142Y-126763528D01*
X195985714Y-68013528D02*
X196485714Y-67299242D01*
X196842857Y-68013528D02*
X196842857Y-66513528D01*
X196842857Y-66513528D02*
X196271428Y-66513528D01*
X196271428Y-66513528D02*
X196128571Y-66584957D01*
X196128571Y-66584957D02*
X196057142Y-66656385D01*
X196057142Y-66656385D02*
X195985714Y-66799242D01*
X195985714Y-66799242D02*
X195985714Y-67013528D01*
X195985714Y-67013528D02*
X196057142Y-67156385D01*
X196057142Y-67156385D02*
X196128571Y-67227814D01*
X196128571Y-67227814D02*
X196271428Y-67299242D01*
X196271428Y-67299242D02*
X196842857Y-67299242D01*
X175829999Y-131032100D02*
X175615714Y-131103528D01*
X175615714Y-131103528D02*
X175258571Y-131103528D01*
X175258571Y-131103528D02*
X175115714Y-131032100D01*
X175115714Y-131032100D02*
X175044285Y-130960671D01*
X175044285Y-130960671D02*
X174972856Y-130817814D01*
X174972856Y-130817814D02*
X174972856Y-130674957D01*
X174972856Y-130674957D02*
X175044285Y-130532100D01*
X175044285Y-130532100D02*
X175115714Y-130460671D01*
X175115714Y-130460671D02*
X175258571Y-130389242D01*
X175258571Y-130389242D02*
X175544285Y-130317814D01*
X175544285Y-130317814D02*
X175687142Y-130246385D01*
X175687142Y-130246385D02*
X175758571Y-130174957D01*
X175758571Y-130174957D02*
X175829999Y-130032100D01*
X175829999Y-130032100D02*
X175829999Y-129889242D01*
X175829999Y-129889242D02*
X175758571Y-129746385D01*
X175758571Y-129746385D02*
X175687142Y-129674957D01*
X175687142Y-129674957D02*
X175544285Y-129603528D01*
X175544285Y-129603528D02*
X175187142Y-129603528D01*
X175187142Y-129603528D02*
X174972856Y-129674957D01*
X174330000Y-131103528D02*
X174330000Y-129603528D01*
X174330000Y-129603528D02*
X173830000Y-130674957D01*
X173830000Y-130674957D02*
X173330000Y-129603528D01*
X173330000Y-129603528D02*
X173330000Y-131103528D01*
X172687142Y-131032100D02*
X172472857Y-131103528D01*
X172472857Y-131103528D02*
X172115714Y-131103528D01*
X172115714Y-131103528D02*
X171972857Y-131032100D01*
X171972857Y-131032100D02*
X171901428Y-130960671D01*
X171901428Y-130960671D02*
X171829999Y-130817814D01*
X171829999Y-130817814D02*
X171829999Y-130674957D01*
X171829999Y-130674957D02*
X171901428Y-130532100D01*
X171901428Y-130532100D02*
X171972857Y-130460671D01*
X171972857Y-130460671D02*
X172115714Y-130389242D01*
X172115714Y-130389242D02*
X172401428Y-130317814D01*
X172401428Y-130317814D02*
X172544285Y-130246385D01*
X172544285Y-130246385D02*
X172615714Y-130174957D01*
X172615714Y-130174957D02*
X172687142Y-130032100D01*
X172687142Y-130032100D02*
X172687142Y-129889242D01*
X172687142Y-129889242D02*
X172615714Y-129746385D01*
X172615714Y-129746385D02*
X172544285Y-129674957D01*
X172544285Y-129674957D02*
X172401428Y-129603528D01*
X172401428Y-129603528D02*
X172044285Y-129603528D01*
X172044285Y-129603528D02*
X171829999Y-129674957D01*
X176119999Y-121942100D02*
X175905714Y-122013528D01*
X175905714Y-122013528D02*
X175548571Y-122013528D01*
X175548571Y-122013528D02*
X175405714Y-121942100D01*
X175405714Y-121942100D02*
X175334285Y-121870671D01*
X175334285Y-121870671D02*
X175262856Y-121727814D01*
X175262856Y-121727814D02*
X175262856Y-121584957D01*
X175262856Y-121584957D02*
X175334285Y-121442100D01*
X175334285Y-121442100D02*
X175405714Y-121370671D01*
X175405714Y-121370671D02*
X175548571Y-121299242D01*
X175548571Y-121299242D02*
X175834285Y-121227814D01*
X175834285Y-121227814D02*
X175977142Y-121156385D01*
X175977142Y-121156385D02*
X176048571Y-121084957D01*
X176048571Y-121084957D02*
X176119999Y-120942100D01*
X176119999Y-120942100D02*
X176119999Y-120799242D01*
X176119999Y-120799242D02*
X176048571Y-120656385D01*
X176048571Y-120656385D02*
X175977142Y-120584957D01*
X175977142Y-120584957D02*
X175834285Y-120513528D01*
X175834285Y-120513528D02*
X175477142Y-120513528D01*
X175477142Y-120513528D02*
X175262856Y-120584957D01*
X174620000Y-122013528D02*
X174620000Y-120513528D01*
X174620000Y-120513528D02*
X174120000Y-121584957D01*
X174120000Y-121584957D02*
X173620000Y-120513528D01*
X173620000Y-120513528D02*
X173620000Y-122013528D01*
X172977142Y-121942100D02*
X172762857Y-122013528D01*
X172762857Y-122013528D02*
X172405714Y-122013528D01*
X172405714Y-122013528D02*
X172262857Y-121942100D01*
X172262857Y-121942100D02*
X172191428Y-121870671D01*
X172191428Y-121870671D02*
X172119999Y-121727814D01*
X172119999Y-121727814D02*
X172119999Y-121584957D01*
X172119999Y-121584957D02*
X172191428Y-121442100D01*
X172191428Y-121442100D02*
X172262857Y-121370671D01*
X172262857Y-121370671D02*
X172405714Y-121299242D01*
X172405714Y-121299242D02*
X172691428Y-121227814D01*
X172691428Y-121227814D02*
X172834285Y-121156385D01*
X172834285Y-121156385D02*
X172905714Y-121084957D01*
X172905714Y-121084957D02*
X172977142Y-120942100D01*
X172977142Y-120942100D02*
X172977142Y-120799242D01*
X172977142Y-120799242D02*
X172905714Y-120656385D01*
X172905714Y-120656385D02*
X172834285Y-120584957D01*
X172834285Y-120584957D02*
X172691428Y-120513528D01*
X172691428Y-120513528D02*
X172334285Y-120513528D01*
X172334285Y-120513528D02*
X172119999Y-120584957D01*
X215168571Y-83673528D02*
X215168571Y-84887814D01*
X215168571Y-84887814D02*
X215097142Y-85030671D01*
X215097142Y-85030671D02*
X215025714Y-85102100D01*
X215025714Y-85102100D02*
X214882856Y-85173528D01*
X214882856Y-85173528D02*
X214597142Y-85173528D01*
X214597142Y-85173528D02*
X214454285Y-85102100D01*
X214454285Y-85102100D02*
X214382856Y-85030671D01*
X214382856Y-85030671D02*
X214311428Y-84887814D01*
X214311428Y-84887814D02*
X214311428Y-83673528D01*
X213597142Y-85173528D02*
X213597142Y-83673528D01*
X213597142Y-83673528D02*
X213025713Y-83673528D01*
X213025713Y-83673528D02*
X212882856Y-83744957D01*
X212882856Y-83744957D02*
X212811427Y-83816385D01*
X212811427Y-83816385D02*
X212739999Y-83959242D01*
X212739999Y-83959242D02*
X212739999Y-84173528D01*
X212739999Y-84173528D02*
X212811427Y-84316385D01*
X212811427Y-84316385D02*
X212882856Y-84387814D01*
X212882856Y-84387814D02*
X213025713Y-84459242D01*
X213025713Y-84459242D02*
X213597142Y-84459242D01*
X211001429Y-94023528D02*
X211001429Y-92523528D01*
X211001429Y-92523528D02*
X210644286Y-92523528D01*
X210644286Y-92523528D02*
X210430000Y-92594957D01*
X210430000Y-92594957D02*
X210287143Y-92737814D01*
X210287143Y-92737814D02*
X210215714Y-92880671D01*
X210215714Y-92880671D02*
X210144286Y-93166385D01*
X210144286Y-93166385D02*
X210144286Y-93380671D01*
X210144286Y-93380671D02*
X210215714Y-93666385D01*
X210215714Y-93666385D02*
X210287143Y-93809242D01*
X210287143Y-93809242D02*
X210430000Y-93952100D01*
X210430000Y-93952100D02*
X210644286Y-94023528D01*
X210644286Y-94023528D02*
X211001429Y-94023528D01*
X209215714Y-92523528D02*
X208930000Y-92523528D01*
X208930000Y-92523528D02*
X208787143Y-92594957D01*
X208787143Y-92594957D02*
X208644286Y-92737814D01*
X208644286Y-92737814D02*
X208572857Y-93023528D01*
X208572857Y-93023528D02*
X208572857Y-93523528D01*
X208572857Y-93523528D02*
X208644286Y-93809242D01*
X208644286Y-93809242D02*
X208787143Y-93952100D01*
X208787143Y-93952100D02*
X208930000Y-94023528D01*
X208930000Y-94023528D02*
X209215714Y-94023528D01*
X209215714Y-94023528D02*
X209358572Y-93952100D01*
X209358572Y-93952100D02*
X209501429Y-93809242D01*
X209501429Y-93809242D02*
X209572857Y-93523528D01*
X209572857Y-93523528D02*
X209572857Y-93023528D01*
X209572857Y-93023528D02*
X209501429Y-92737814D01*
X209501429Y-92737814D02*
X209358572Y-92594957D01*
X209358572Y-92594957D02*
X209215714Y-92523528D01*
X208072857Y-92523528D02*
X207715714Y-94023528D01*
X207715714Y-94023528D02*
X207430000Y-92952100D01*
X207430000Y-92952100D02*
X207144285Y-94023528D01*
X207144285Y-94023528D02*
X206787143Y-92523528D01*
X206215714Y-94023528D02*
X206215714Y-92523528D01*
X206215714Y-92523528D02*
X205358571Y-94023528D01*
X205358571Y-94023528D02*
X205358571Y-92523528D01*
X156842856Y-125344957D02*
X156985714Y-125273528D01*
X156985714Y-125273528D02*
X157199999Y-125273528D01*
X157199999Y-125273528D02*
X157414285Y-125344957D01*
X157414285Y-125344957D02*
X157557142Y-125487814D01*
X157557142Y-125487814D02*
X157628571Y-125630671D01*
X157628571Y-125630671D02*
X157699999Y-125916385D01*
X157699999Y-125916385D02*
X157699999Y-126130671D01*
X157699999Y-126130671D02*
X157628571Y-126416385D01*
X157628571Y-126416385D02*
X157557142Y-126559242D01*
X157557142Y-126559242D02*
X157414285Y-126702100D01*
X157414285Y-126702100D02*
X157199999Y-126773528D01*
X157199999Y-126773528D02*
X157057142Y-126773528D01*
X157057142Y-126773528D02*
X156842856Y-126702100D01*
X156842856Y-126702100D02*
X156771428Y-126630671D01*
X156771428Y-126630671D02*
X156771428Y-126130671D01*
X156771428Y-126130671D02*
X157057142Y-126130671D01*
X156128571Y-126773528D02*
X156128571Y-125273528D01*
X156128571Y-125273528D02*
X155271428Y-126773528D01*
X155271428Y-126773528D02*
X155271428Y-125273528D01*
X154557142Y-126773528D02*
X154557142Y-125273528D01*
X154557142Y-125273528D02*
X154199999Y-125273528D01*
X154199999Y-125273528D02*
X153985713Y-125344957D01*
X153985713Y-125344957D02*
X153842856Y-125487814D01*
X153842856Y-125487814D02*
X153771427Y-125630671D01*
X153771427Y-125630671D02*
X153699999Y-125916385D01*
X153699999Y-125916385D02*
X153699999Y-126130671D01*
X153699999Y-126130671D02*
X153771427Y-126416385D01*
X153771427Y-126416385D02*
X153842856Y-126559242D01*
X153842856Y-126559242D02*
X153985713Y-126702100D01*
X153985713Y-126702100D02*
X154199999Y-126773528D01*
X154199999Y-126773528D02*
X154557142Y-126773528D01*
X146840000Y-136303528D02*
X146840000Y-134803528D01*
X146840000Y-134803528D02*
X146482857Y-134803528D01*
X146482857Y-134803528D02*
X146268571Y-134874957D01*
X146268571Y-134874957D02*
X146125714Y-135017814D01*
X146125714Y-135017814D02*
X146054285Y-135160671D01*
X146054285Y-135160671D02*
X145982857Y-135446385D01*
X145982857Y-135446385D02*
X145982857Y-135660671D01*
X145982857Y-135660671D02*
X146054285Y-135946385D01*
X146054285Y-135946385D02*
X146125714Y-136089242D01*
X146125714Y-136089242D02*
X146268571Y-136232100D01*
X146268571Y-136232100D02*
X146482857Y-136303528D01*
X146482857Y-136303528D02*
X146840000Y-136303528D01*
X145482857Y-134803528D02*
X145125714Y-136303528D01*
X145125714Y-136303528D02*
X144840000Y-135232100D01*
X144840000Y-135232100D02*
X144554285Y-136303528D01*
X144554285Y-136303528D02*
X144197143Y-134803528D01*
X150002856Y-129794957D02*
X150145714Y-129723528D01*
X150145714Y-129723528D02*
X150359999Y-129723528D01*
X150359999Y-129723528D02*
X150574285Y-129794957D01*
X150574285Y-129794957D02*
X150717142Y-129937814D01*
X150717142Y-129937814D02*
X150788571Y-130080671D01*
X150788571Y-130080671D02*
X150859999Y-130366385D01*
X150859999Y-130366385D02*
X150859999Y-130580671D01*
X150859999Y-130580671D02*
X150788571Y-130866385D01*
X150788571Y-130866385D02*
X150717142Y-131009242D01*
X150717142Y-131009242D02*
X150574285Y-131152100D01*
X150574285Y-131152100D02*
X150359999Y-131223528D01*
X150359999Y-131223528D02*
X150217142Y-131223528D01*
X150217142Y-131223528D02*
X150002856Y-131152100D01*
X150002856Y-131152100D02*
X149931428Y-131080671D01*
X149931428Y-131080671D02*
X149931428Y-130580671D01*
X149931428Y-130580671D02*
X150217142Y-130580671D01*
X149288571Y-131223528D02*
X149288571Y-129723528D01*
X149288571Y-129723528D02*
X148431428Y-131223528D01*
X148431428Y-131223528D02*
X148431428Y-129723528D01*
X147717142Y-131223528D02*
X147717142Y-129723528D01*
X147717142Y-129723528D02*
X147359999Y-129723528D01*
X147359999Y-129723528D02*
X147145713Y-129794957D01*
X147145713Y-129794957D02*
X147002856Y-129937814D01*
X147002856Y-129937814D02*
X146931427Y-130080671D01*
X146931427Y-130080671D02*
X146859999Y-130366385D01*
X146859999Y-130366385D02*
X146859999Y-130580671D01*
X146859999Y-130580671D02*
X146931427Y-130866385D01*
X146931427Y-130866385D02*
X147002856Y-131009242D01*
X147002856Y-131009242D02*
X147145713Y-131152100D01*
X147145713Y-131152100D02*
X147359999Y-131223528D01*
X147359999Y-131223528D02*
X147717142Y-131223528D01*
D11*
X170448990Y-64181428D02*
X170401371Y-64038571D01*
X170401371Y-64038571D02*
X170353752Y-63990952D01*
X170353752Y-63990952D02*
X170258514Y-63943333D01*
X170258514Y-63943333D02*
X170115657Y-63943333D01*
X170115657Y-63943333D02*
X170020419Y-63990952D01*
X170020419Y-63990952D02*
X169972800Y-64038571D01*
X169972800Y-64038571D02*
X169925180Y-64133809D01*
X169925180Y-64133809D02*
X169925180Y-64514761D01*
X169925180Y-64514761D02*
X170925180Y-64514761D01*
X170925180Y-64514761D02*
X170925180Y-64181428D01*
X170925180Y-64181428D02*
X170877561Y-64086190D01*
X170877561Y-64086190D02*
X170829942Y-64038571D01*
X170829942Y-64038571D02*
X170734704Y-63990952D01*
X170734704Y-63990952D02*
X170639466Y-63990952D01*
X170639466Y-63990952D02*
X170544228Y-64038571D01*
X170544228Y-64038571D02*
X170496609Y-64086190D01*
X170496609Y-64086190D02*
X170448990Y-64181428D01*
X170448990Y-64181428D02*
X170448990Y-64514761D01*
X169925180Y-62943333D02*
X170401371Y-63276666D01*
X169925180Y-63514761D02*
X170925180Y-63514761D01*
X170925180Y-63514761D02*
X170925180Y-63133809D01*
X170925180Y-63133809D02*
X170877561Y-63038571D01*
X170877561Y-63038571D02*
X170829942Y-62990952D01*
X170829942Y-62990952D02*
X170734704Y-62943333D01*
X170734704Y-62943333D02*
X170591847Y-62943333D01*
X170591847Y-62943333D02*
X170496609Y-62990952D01*
X170496609Y-62990952D02*
X170448990Y-63038571D01*
X170448990Y-63038571D02*
X170401371Y-63133809D01*
X170401371Y-63133809D02*
X170401371Y-63514761D01*
X169925180Y-62514761D02*
X170925180Y-62514761D01*
X170877561Y-61514762D02*
X170925180Y-61610000D01*
X170925180Y-61610000D02*
X170925180Y-61752857D01*
X170925180Y-61752857D02*
X170877561Y-61895714D01*
X170877561Y-61895714D02*
X170782323Y-61990952D01*
X170782323Y-61990952D02*
X170687085Y-62038571D01*
X170687085Y-62038571D02*
X170496609Y-62086190D01*
X170496609Y-62086190D02*
X170353752Y-62086190D01*
X170353752Y-62086190D02*
X170163276Y-62038571D01*
X170163276Y-62038571D02*
X170068038Y-61990952D01*
X170068038Y-61990952D02*
X169972800Y-61895714D01*
X169972800Y-61895714D02*
X169925180Y-61752857D01*
X169925180Y-61752857D02*
X169925180Y-61657619D01*
X169925180Y-61657619D02*
X169972800Y-61514762D01*
X169972800Y-61514762D02*
X170020419Y-61467143D01*
X170020419Y-61467143D02*
X170353752Y-61467143D01*
X170353752Y-61467143D02*
X170353752Y-61657619D01*
X169925180Y-61038571D02*
X170925180Y-61038571D01*
X170448990Y-61038571D02*
X170448990Y-60467143D01*
X169925180Y-60467143D02*
X170925180Y-60467143D01*
X170925180Y-60133809D02*
X170925180Y-59562381D01*
X169925180Y-59848095D02*
X170925180Y-59848095D01*
D15*
X156097142Y-136303528D02*
X156097142Y-134803528D01*
X156097142Y-134803528D02*
X155739999Y-134803528D01*
X155739999Y-134803528D02*
X155525713Y-134874957D01*
X155525713Y-134874957D02*
X155382856Y-135017814D01*
X155382856Y-135017814D02*
X155311427Y-135160671D01*
X155311427Y-135160671D02*
X155239999Y-135446385D01*
X155239999Y-135446385D02*
X155239999Y-135660671D01*
X155239999Y-135660671D02*
X155311427Y-135946385D01*
X155311427Y-135946385D02*
X155382856Y-136089242D01*
X155382856Y-136089242D02*
X155525713Y-136232100D01*
X155525713Y-136232100D02*
X155739999Y-136303528D01*
X155739999Y-136303528D02*
X156097142Y-136303528D01*
X154668570Y-134946385D02*
X154597142Y-134874957D01*
X154597142Y-134874957D02*
X154454285Y-134803528D01*
X154454285Y-134803528D02*
X154097142Y-134803528D01*
X154097142Y-134803528D02*
X153954285Y-134874957D01*
X153954285Y-134874957D02*
X153882856Y-134946385D01*
X153882856Y-134946385D02*
X153811427Y-135089242D01*
X153811427Y-135089242D02*
X153811427Y-135232100D01*
X153811427Y-135232100D02*
X153882856Y-135446385D01*
X153882856Y-135446385D02*
X154739999Y-136303528D01*
X154739999Y-136303528D02*
X153811427Y-136303528D01*
X151347142Y-136303528D02*
X151347142Y-134803528D01*
X151347142Y-134803528D02*
X150989999Y-134803528D01*
X150989999Y-134803528D02*
X150775713Y-134874957D01*
X150775713Y-134874957D02*
X150632856Y-135017814D01*
X150632856Y-135017814D02*
X150561427Y-135160671D01*
X150561427Y-135160671D02*
X150489999Y-135446385D01*
X150489999Y-135446385D02*
X150489999Y-135660671D01*
X150489999Y-135660671D02*
X150561427Y-135946385D01*
X150561427Y-135946385D02*
X150632856Y-136089242D01*
X150632856Y-136089242D02*
X150775713Y-136232100D01*
X150775713Y-136232100D02*
X150989999Y-136303528D01*
X150989999Y-136303528D02*
X151347142Y-136303528D01*
X149061427Y-136303528D02*
X149918570Y-136303528D01*
X149489999Y-136303528D02*
X149489999Y-134803528D01*
X149489999Y-134803528D02*
X149632856Y-135017814D01*
X149632856Y-135017814D02*
X149775713Y-135160671D01*
X149775713Y-135160671D02*
X149918570Y-135232100D01*
X170428571Y-125922100D02*
X169285714Y-125922100D01*
X169857142Y-126493528D02*
X169857142Y-125350671D01*
X167857142Y-124993528D02*
X168571428Y-124993528D01*
X168571428Y-124993528D02*
X168642856Y-125707814D01*
X168642856Y-125707814D02*
X168571428Y-125636385D01*
X168571428Y-125636385D02*
X168428571Y-125564957D01*
X168428571Y-125564957D02*
X168071428Y-125564957D01*
X168071428Y-125564957D02*
X167928571Y-125636385D01*
X167928571Y-125636385D02*
X167857142Y-125707814D01*
X167857142Y-125707814D02*
X167785713Y-125850671D01*
X167785713Y-125850671D02*
X167785713Y-126207814D01*
X167785713Y-126207814D02*
X167857142Y-126350671D01*
X167857142Y-126350671D02*
X167928571Y-126422100D01*
X167928571Y-126422100D02*
X168071428Y-126493528D01*
X168071428Y-126493528D02*
X168428571Y-126493528D01*
X168428571Y-126493528D02*
X168571428Y-126422100D01*
X168571428Y-126422100D02*
X168642856Y-126350671D01*
X167357142Y-124993528D02*
X166857142Y-126493528D01*
X166857142Y-126493528D02*
X166357142Y-124993528D01*
X167018571Y-130462100D02*
X165875714Y-130462100D01*
X166447142Y-131033528D02*
X166447142Y-129890671D01*
X164447142Y-129533528D02*
X165161428Y-129533528D01*
X165161428Y-129533528D02*
X165232856Y-130247814D01*
X165232856Y-130247814D02*
X165161428Y-130176385D01*
X165161428Y-130176385D02*
X165018571Y-130104957D01*
X165018571Y-130104957D02*
X164661428Y-130104957D01*
X164661428Y-130104957D02*
X164518571Y-130176385D01*
X164518571Y-130176385D02*
X164447142Y-130247814D01*
X164447142Y-130247814D02*
X164375713Y-130390671D01*
X164375713Y-130390671D02*
X164375713Y-130747814D01*
X164375713Y-130747814D02*
X164447142Y-130890671D01*
X164447142Y-130890671D02*
X164518571Y-130962100D01*
X164518571Y-130962100D02*
X164661428Y-131033528D01*
X164661428Y-131033528D02*
X165018571Y-131033528D01*
X165018571Y-131033528D02*
X165161428Y-130962100D01*
X165161428Y-130962100D02*
X165232856Y-130890671D01*
X163947142Y-129533528D02*
X163447142Y-131033528D01*
X163447142Y-131033528D02*
X162947142Y-129533528D01*
X145283769Y-139743528D02*
X145283769Y-138243528D01*
X145283769Y-138243528D02*
X144926626Y-138243528D01*
X144926626Y-138243528D02*
X144712340Y-138314957D01*
X144712340Y-138314957D02*
X144569483Y-138457814D01*
X144569483Y-138457814D02*
X144498054Y-138600671D01*
X144498054Y-138600671D02*
X144426626Y-138886385D01*
X144426626Y-138886385D02*
X144426626Y-139100671D01*
X144426626Y-139100671D02*
X144498054Y-139386385D01*
X144498054Y-139386385D02*
X144569483Y-139529242D01*
X144569483Y-139529242D02*
X144712340Y-139672100D01*
X144712340Y-139672100D02*
X144926626Y-139743528D01*
X144926626Y-139743528D02*
X145283769Y-139743528D01*
X142998054Y-139743528D02*
X143855197Y-139743528D01*
X143426626Y-139743528D02*
X143426626Y-138243528D01*
X143426626Y-138243528D02*
X143569483Y-138457814D01*
X143569483Y-138457814D02*
X143712340Y-138600671D01*
X143712340Y-138600671D02*
X143855197Y-138672100D01*
X142612856Y-120554957D02*
X142755714Y-120483528D01*
X142755714Y-120483528D02*
X142969999Y-120483528D01*
X142969999Y-120483528D02*
X143184285Y-120554957D01*
X143184285Y-120554957D02*
X143327142Y-120697814D01*
X143327142Y-120697814D02*
X143398571Y-120840671D01*
X143398571Y-120840671D02*
X143469999Y-121126385D01*
X143469999Y-121126385D02*
X143469999Y-121340671D01*
X143469999Y-121340671D02*
X143398571Y-121626385D01*
X143398571Y-121626385D02*
X143327142Y-121769242D01*
X143327142Y-121769242D02*
X143184285Y-121912100D01*
X143184285Y-121912100D02*
X142969999Y-121983528D01*
X142969999Y-121983528D02*
X142827142Y-121983528D01*
X142827142Y-121983528D02*
X142612856Y-121912100D01*
X142612856Y-121912100D02*
X142541428Y-121840671D01*
X142541428Y-121840671D02*
X142541428Y-121340671D01*
X142541428Y-121340671D02*
X142827142Y-121340671D01*
X141898571Y-121983528D02*
X141898571Y-120483528D01*
X141898571Y-120483528D02*
X141041428Y-121983528D01*
X141041428Y-121983528D02*
X141041428Y-120483528D01*
X140327142Y-121983528D02*
X140327142Y-120483528D01*
X140327142Y-120483528D02*
X139969999Y-120483528D01*
X139969999Y-120483528D02*
X139755713Y-120554957D01*
X139755713Y-120554957D02*
X139612856Y-120697814D01*
X139612856Y-120697814D02*
X139541427Y-120840671D01*
X139541427Y-120840671D02*
X139469999Y-121126385D01*
X139469999Y-121126385D02*
X139469999Y-121340671D01*
X139469999Y-121340671D02*
X139541427Y-121626385D01*
X139541427Y-121626385D02*
X139612856Y-121769242D01*
X139612856Y-121769242D02*
X139755713Y-121912100D01*
X139755713Y-121912100D02*
X139969999Y-121983528D01*
X139969999Y-121983528D02*
X140327142Y-121983528D01*
%TO.C,J11*%
D11*
X125500560Y-82250000D02*
X131500560Y-82250000D01*
X131500560Y-86750000D01*
X125500560Y-86750000D01*
X125500560Y-82250000D01*
%TO.C,J13*%
X213950000Y-87570000D02*
G75*
G02*
X211350000Y-87570000I-1300000J0D01*
G01*
X211350000Y-87570000D02*
G75*
G02*
X213950000Y-87570000I1300000J0D01*
G01*
%TO.C,J12*%
X212950000Y-90280000D02*
G75*
G02*
X210350000Y-90280000I-1300000J0D01*
G01*
X210350000Y-90280000D02*
G75*
G02*
X212950000Y-90280000I1300000J0D01*
G01*
%TO.C,TP6*%
X158426325Y-131813000D02*
X158426325Y-134323000D01*
X158439500Y-134333000D02*
X160949500Y-134333000D01*
X160949500Y-131803000D02*
X158439500Y-131803000D01*
X160964721Y-134323000D02*
X160964721Y-131813000D01*
%TO.C,J20*%
X197540000Y-69810000D02*
G75*
G02*
X194940000Y-69810000I-1300000J0D01*
G01*
X194940000Y-69810000D02*
G75*
G02*
X197540000Y-69810000I1300000J0D01*
G01*
%TO.C,TP7*%
X167852992Y-131813000D02*
X167852992Y-134323000D01*
X167866167Y-134333000D02*
X170376167Y-134333000D01*
X170376167Y-131803000D02*
X167866167Y-131803000D01*
X170391388Y-134323000D02*
X170391388Y-131813000D01*
%TO.C,TP8*%
X163139658Y-131813000D02*
X163139658Y-134323000D01*
X163152833Y-134333000D02*
X165662833Y-134333000D01*
X165662833Y-131803000D02*
X163152833Y-131803000D01*
X165678054Y-134323000D02*
X165678054Y-131813000D01*
%TO.C,J23*%
X158430560Y-104090000D02*
G75*
G02*
X155830560Y-104090000I-1300000J0D01*
G01*
X155830560Y-104090000D02*
G75*
G02*
X158430560Y-104090000I1300000J0D01*
G01*
%TO.C,J21*%
X163280560Y-76050000D02*
G75*
G02*
X160680560Y-76050000I-1300000J0D01*
G01*
X160680560Y-76050000D02*
G75*
G02*
X163280560Y-76050000I1300000J0D01*
G01*
%TO.C,J16*%
X143951440Y-123571920D02*
G75*
G02*
X141351440Y-123571920I-1300000J0D01*
G01*
X141351440Y-123571920D02*
G75*
G02*
X143951440Y-123571920I1300000J0D01*
G01*
%TO.C,J19*%
X195310000Y-67570000D02*
G75*
G02*
X192710000Y-67570000I-1300000J0D01*
G01*
X192710000Y-67570000D02*
G75*
G02*
X195310000Y-67570000I1300000J0D01*
G01*
%TO.C,TP4*%
X172536325Y-126553000D02*
X172536325Y-129063000D01*
X172549500Y-129073000D02*
X175059500Y-129073000D01*
X175059500Y-126543000D02*
X172549500Y-126543000D01*
X175074721Y-129063000D02*
X175074721Y-126553000D01*
%TO.C,J4*%
X175201570Y-118571930D02*
G75*
G02*
X172601570Y-118571930I-1300000J0D01*
G01*
X172601570Y-118571930D02*
G75*
G02*
X175201570Y-118571930I1300000J0D01*
G01*
%TO.C,J14*%
X215460000Y-82070000D02*
G75*
G02*
X212860000Y-82070000I-1300000J0D01*
G01*
X212860000Y-82070000D02*
G75*
G02*
X215460000Y-82070000I1300000J0D01*
G01*
%TO.C,J18*%
X213950000Y-93080000D02*
G75*
G02*
X211350000Y-93080000I-1300000J0D01*
G01*
X211350000Y-93080000D02*
G75*
G02*
X213950000Y-93080000I1300000J0D01*
G01*
%TO.C,J2*%
X156451550Y-123571920D02*
G75*
G02*
X153851550Y-123571920I-1300000J0D01*
G01*
X153851550Y-123571920D02*
G75*
G02*
X156451550Y-123571920I1300000J0D01*
G01*
%TO.C,TP5*%
X144306825Y-131790000D02*
X144306825Y-134300000D01*
X144320000Y-134310000D02*
X146830000Y-134310000D01*
X146830000Y-131780000D02*
X144320000Y-131780000D01*
X146845221Y-134300000D02*
X146845221Y-131790000D01*
%TO.C,TP2*%
X147586325Y-126613000D02*
X147586325Y-129123000D01*
X147599500Y-129133000D02*
X150109500Y-129133000D01*
X150109500Y-126603000D02*
X147599500Y-126603000D01*
X150124721Y-129123000D02*
X150124721Y-126613000D01*
%TO.C,J25*%
X171550560Y-61870000D02*
X171550560Y-64260000D01*
X173750560Y-64259000D02*
X173750560Y-61871000D01*
X171550560Y-61870000D02*
G75*
G02*
X173750550Y-61871000I1100000J10000D01*
G01*
X173750550Y-64259000D02*
G75*
G02*
X171550560Y-64260000I-1099990J-11000D01*
G01*
%TO.C,TP9*%
X153712992Y-131813000D02*
X153712992Y-134323000D01*
X153726167Y-134333000D02*
X156236167Y-134333000D01*
X156236167Y-131803000D02*
X153726167Y-131803000D01*
X156251388Y-134323000D02*
X156251388Y-131813000D01*
%TO.C,TP10*%
X148999658Y-131813000D02*
X148999658Y-134323000D01*
X149012833Y-134333000D02*
X151522833Y-134333000D01*
X151522833Y-131803000D02*
X149012833Y-131803000D01*
X151538054Y-134323000D02*
X151538054Y-131813000D01*
%TO.C,J1*%
X166451530Y-123571920D02*
G75*
G02*
X163851530Y-123571920I-1300000J0D01*
G01*
X163851530Y-123571920D02*
G75*
G02*
X166451530Y-123571920I1300000J0D01*
G01*
%TO.C,TP1*%
X163836325Y-126503000D02*
X163836325Y-129013000D01*
X163849500Y-129023000D02*
X166359500Y-129023000D01*
X166359500Y-126493000D02*
X163849500Y-126493000D01*
X166374721Y-129013000D02*
X166374721Y-126503000D01*
%TO.C,J15*%
X142701510Y-118571930D02*
G75*
G02*
X140101510Y-118571930I-1300000J0D01*
G01*
X140101510Y-118571930D02*
G75*
G02*
X142701510Y-118571930I1300000J0D01*
G01*
%TD*%
M02*
